<?xml version="1.0" encoding="UTF-8"?>
<!--Generator: Apple Native CoreSVG 175.5-->
<!DOCTYPE svg
PUBLIC "-//W3C//DTD SVG 1.1//EN"
       "http://www.w3.org/Graphics/SVG/1.1/DTD/svg11.dtd">
<svg version="1.1" xmlns="http://www.w3.org/2000/svg" xmlns:xlink="http://www.w3.org/1999/xlink" width="3300" height="2200">
 <!--glyph: "", point size: 100.0, font version: "18.0d12e2", template writer version: "101"-->
 <style>.monochrome-0 {fill:#000000}
.monochrome-1 {fill:#000000}

.multicolor-0:secondaryLabelColor {fill:#8A8A8E}
.multicolor-1:tertiaryLabelColor {fill:#BDBDBD}

.hierarchical-0:primary {fill:#212121}
.hierarchical-1:tertiary {fill:#8E8E8E}

.SFSymbolsPreview8A8A8E {fill:#8A8A8E;opacity:1.0}
.SFSymbolsPreviewBDBDBD {fill:#BDBDBD;opacity:1.0}
</style>
 <g id="Notes">
  <rect height="2200" id="artboard" style="fill:white;opacity:1" width="3300" x="0" y="0"/>
  <line style="fill:none;stroke:black;opacity:1;stroke-width:0.5;" x1="263" x2="3036" y1="292" y2="292"/>
  <text style="stroke:none;fill:black;font-family:sans-serif;font-size:13;font-weight:bold;" transform="matrix(1 0 0 1 263 322)">Weight/Scale Variations</text>
  <text style="stroke:none;fill:black;font-family:sans-serif;font-size:13;text-anchor:middle;" transform="matrix(1 0 0 1 559.711 322)">Ultralight</text>
  <text style="stroke:none;fill:black;font-family:sans-serif;font-size:13;text-anchor:middle;" transform="matrix(1 0 0 1 856.422 322)">Thin</text>
  <text style="stroke:none;fill:black;font-family:sans-serif;font-size:13;text-anchor:middle;" transform="matrix(1 0 0 1 1153.13 322)">Light</text>
  <text style="stroke:none;fill:black;font-family:sans-serif;font-size:13;text-anchor:middle;" transform="matrix(1 0 0 1 1449.84 322)">Regular</text>
  <text style="stroke:none;fill:black;font-family:sans-serif;font-size:13;text-anchor:middle;" transform="matrix(1 0 0 1 1746.56 322)">Medium</text>
  <text style="stroke:none;fill:black;font-family:sans-serif;font-size:13;text-anchor:middle;" transform="matrix(1 0 0 1 2043.27 322)">Semibold</text>
  <text style="stroke:none;fill:black;font-family:sans-serif;font-size:13;text-anchor:middle;" transform="matrix(1 0 0 1 2339.98 322)">Bold</text>
  <text style="stroke:none;fill:black;font-family:sans-serif;font-size:13;text-anchor:middle;" transform="matrix(1 0 0 1 2636.69 322)">Heavy</text>
  <text style="stroke:none;fill:black;font-family:sans-serif;font-size:13;text-anchor:middle;" transform="matrix(1 0 0 1 2933.4 322)">Black</text>
  <line style="fill:none;stroke:black;opacity:1;stroke-width:0.5;" x1="263" x2="3036" y1="1903" y2="1903"/>
  <g transform="matrix(1 0 0 1 263 1933)">
   <path d="M9.24805 0.830078C13.5547 0.830078 17.1387-2.74414 17.1387-7.05078C17.1387-11.3574 13.5449-14.9316 9.23828-14.9316C4.94141-14.9316 1.36719-11.3574 1.36719-7.05078C1.36719-2.74414 4.95117 0.830078 9.24805 0.830078ZM9.24805-0.654297C5.70312-0.654297 2.87109-3.49609 2.87109-7.05078C2.87109-10.6055 5.69336-13.4473 9.23828-13.4473C12.793-13.4473 15.6445-10.6055 15.6445-7.05078C15.6445-3.49609 12.8027-0.654297 9.24805-0.654297ZM5.6543-7.05078C5.6543-6.62109 5.95703-6.32812 6.40625-6.32812L8.50586-6.32812L8.50586-4.20898C8.50586-3.76953 8.79883-3.4668 9.22852-3.4668C9.67773-3.4668 9.9707-3.76953 9.9707-4.20898L9.9707-6.32812L12.0898-6.32812C12.5293-6.32812 12.832-6.62109 12.832-7.05078C12.832-7.49023 12.5293-7.79297 12.0898-7.79297L9.9707-7.79297L9.9707-9.90234C9.9707-10.3516 9.67773-10.6543 9.22852-10.6543C8.79883-10.6543 8.50586-10.3516 8.50586-9.90234L8.50586-7.79297L6.40625-7.79297C5.95703-7.79297 5.6543-7.49023 5.6543-7.05078Z"/>
  </g>
  <g transform="matrix(1 0 0 1 281.867 1933)">
   <path d="M11.709 2.91016C17.1582 2.91016 21.6699-1.61133 21.6699-7.05078C21.6699-12.5 17.1484-17.0117 11.6992-17.0117C6.25977-17.0117 1.74805-12.5 1.74805-7.05078C1.74805-1.61133 6.26953 2.91016 11.709 2.91016ZM11.709 1.25C7.09961 1.25 3.41797-2.44141 3.41797-7.05078C3.41797-11.6602 7.08984-15.3516 11.6992-15.3516C16.3086-15.3516 20.0098-11.6602 20.0098-7.05078C20.0098-2.44141 16.3184 1.25 11.709 1.25ZM7.17773-7.05078C7.17773-6.57227 7.50977-6.25 8.00781-6.25L10.8789-6.25L10.8789-3.36914C10.8789-2.88086 11.2109-2.53906 11.6895-2.53906C12.1777-2.53906 12.5195-2.87109 12.5195-3.36914L12.5195-6.25L15.4004-6.25C15.8887-6.25 16.2305-6.57227 16.2305-7.05078C16.2305-7.53906 15.8887-7.88086 15.4004-7.88086L12.5195-7.88086L12.5195-10.752C12.5195-11.25 12.1777-11.5918 11.6895-11.5918C11.2109-11.5918 10.8789-11.25 10.8789-10.752L10.8789-7.88086L8.00781-7.88086C7.50977-7.88086 7.17773-7.53906 7.17773-7.05078Z"/>
  </g>
  <g transform="matrix(1 0 0 1 305.646 1933)">
   <path d="M14.9707 5.66406C21.9336 5.66406 27.6953-0.0976562 27.6953-7.05078C27.6953-14.0137 21.9238-19.7754 14.9609-19.7754C8.00781-19.7754 2.25586-14.0137 2.25586-7.05078C2.25586-0.0976562 8.01758 5.66406 14.9707 5.66406ZM14.9707 3.84766C8.93555 3.84766 4.08203-1.01562 4.08203-7.05078C4.08203-13.0957 8.92578-17.9492 14.9609-17.9492C21.0059-17.9492 25.8691-13.0957 25.8691-7.05078C25.8691-1.01562 21.0156 3.84766 14.9707 3.84766ZM9.19922-7.05078C9.19922-6.5332 9.57031-6.17188 10.1172-6.17188L14.0625-6.17188L14.0625-2.2168C14.0625-1.67969 14.4336-1.29883 14.9512-1.29883C15.4883-1.29883 15.8594-1.66992 15.8594-2.2168L15.8594-6.17188L19.8145-6.17188C20.3516-6.17188 20.7324-6.5332 20.7324-7.05078C20.7324-7.59766 20.3613-7.96875 19.8145-7.96875L15.8594-7.96875L15.8594-11.9141C15.8594-12.4609 15.4883-12.8418 14.9512-12.8418C14.4336-12.8418 14.0625-12.4609 14.0625-11.9141L14.0625-7.96875L10.1172-7.96875C9.57031-7.96875 9.19922-7.59766 9.19922-7.05078Z"/>
  </g>
  <text style="stroke:none;fill:black;font-family:sans-serif;font-size:13;font-weight:bold;" transform="matrix(1 0 0 1 263 1953)">Design Variations</text>
  <text style="stroke:none;fill:black;font-family:sans-serif;font-size:13;" transform="matrix(1 0 0 1 263 1971)">Symbols are supported in up to nine weights and three scales.</text>
  <text style="stroke:none;fill:black;font-family:sans-serif;font-size:13;" transform="matrix(1 0 0 1 263 1989)">For optimal layout with text and other symbols, vertically align</text>
  <text style="stroke:none;fill:black;font-family:sans-serif;font-size:13;" transform="matrix(1 0 0 1 263 2007)">symbols with the adjacent text.</text>
  <line style="fill:none;stroke:#00AEEF;stroke-width:0.5;opacity:1.0;" x1="776" x2="776" y1="1919" y2="1933"/>
  <g transform="matrix(1 0 0 1 776 1933)">
   <path d="M3.31055 0.15625C3.82812 0.15625 4.08203-0.0390625 4.26758-0.585938L5.52734-4.0332L11.2891-4.0332L12.5488-0.585938C12.7344-0.0390625 12.9883 0.15625 13.4961 0.15625C14.0137 0.15625 14.3457-0.15625 14.3457-0.644531C14.3457-0.810547 14.3164-0.966797 14.2383-1.17188L9.6582-13.3691C9.43359-13.9648 9.0332-14.2676 8.4082-14.2676C7.80273-14.2676 7.39258-13.9746 7.17773-13.3789L2.59766-1.16211C2.51953-0.957031 2.49023-0.800781 2.49023-0.634766C2.49023-0.146484 2.80273 0.15625 3.31055 0.15625ZM6.00586-5.51758L8.37891-12.0898L8.42773-12.0898L10.8008-5.51758Z"/>
  </g>
  <line style="fill:none;stroke:#00AEEF;stroke-width:0.5;opacity:1.0;" x1="793.197" x2="793.197" y1="1919" y2="1933"/>
  <text style="stroke:none;fill:black;font-family:sans-serif;font-size:13;font-weight:bold;" transform="matrix(1 0 0 1 776 1953)">Margins</text>
  <text style="stroke:none;fill:black;font-family:sans-serif;font-size:13;" transform="matrix(1 0 0 1 776 1971)">Leading and trailing margins on the left and right side of each symbol</text>
  <text style="stroke:none;fill:black;font-family:sans-serif;font-size:13;" transform="matrix(1 0 0 1 776 1989)">can be adjusted by modifying the x-location of the margin guidelines.</text>
  <text style="stroke:none;fill:black;font-family:sans-serif;font-size:13;" transform="matrix(1 0 0 1 776 2007)">Modifications are automatically applied proportionally to all</text>
  <text style="stroke:none;fill:black;font-family:sans-serif;font-size:13;" transform="matrix(1 0 0 1 776 2025)">scales and weights.</text>
  <g transform="matrix(1 0 0 1 1289 1933)">
   <path d="M2.8418 1.86523L4.54102 3.57422C5.40039 4.44336 6.38672 4.38477 7.31445 3.35938L18.0078-8.42773L17.041-9.4043L6.42578 2.27539C6.07422 2.67578 5.74219 2.77344 5.27344 2.30469L4.10156 1.14258C3.63281 0.683594 3.74023 0.341797 4.14062-0.0195312L15.6152-10.8203L14.6387-11.7871L3.04688-0.898438C2.06055 0.0195312 1.98242 0.996094 2.8418 1.86523ZM9.25781-16.3281C8.83789-15.918 8.80859-15.3418 9.04297-14.9512C9.27734-14.5898 9.73633-14.3555 10.3809-14.5215C11.8457-14.8633 13.3691-14.9219 14.7949-13.9844L14.209-12.5293C13.8672-11.6992 14.043-11.1133 14.5801-10.5664L16.875-8.25195C17.3633-7.76367 17.7734-7.74414 18.3398-7.8418L19.4043-8.03711L20.0684-7.36328L20.0293-6.80664C19.9902-6.30859 20.1172-5.92773 20.6055-5.44922L21.3672-4.70703C21.8457-4.22852 22.4609-4.19922 22.9297-4.66797L25.8398-7.58789C26.3086-8.05664 26.2891-8.65234 25.8105-9.13086L25.0391-9.89258C24.5605-10.3711 24.1895-10.5273 23.7109-10.4883L23.1348-10.4395L22.4902-11.0742L22.7344-12.1973C22.8613-12.7637 22.7051-13.2031 22.1191-13.7891L19.9219-15.9766C16.582-19.2969 12.1484-19.2188 9.25781-16.3281ZM10.752-15.957C13.1836-17.7344 16.4746-17.4316 18.7012-15.2051L21.1328-12.793C21.3672-12.5586 21.4062-12.373 21.3379-12.0312L21.0156-10.5469L22.5195-9.0625L23.5059-9.12109C23.7598-9.13086 23.8379-9.11133 24.0332-8.91602L24.6094-8.33984L22.168-5.89844L21.5918-6.47461C21.3965-6.66992 21.3672-6.74805 21.377-7.01172L21.4453-7.98828L19.9512-9.47266L18.4277-9.21875C18.1055-9.15039 17.959-9.17969 17.7148-9.41406L15.7129-11.416C15.459-11.6504 15.4297-11.8164 15.5859-12.1875L16.4648-14.2773C14.9023-15.7324 12.8711-16.3574 10.8398-15.7617C10.6836-15.7227 10.625-15.8496 10.752-15.957Z"/>
  </g>
  <text style="stroke:none;fill:black;font-family:sans-serif;font-size:13;font-weight:bold;" transform="matrix(1 0 0 1 1289 1953)">Exporting</text>
  <text style="stroke:none;fill:black;font-family:sans-serif;font-size:13;" transform="matrix(1 0 0 1 1289 1971)">Symbols should be outlined when exporting to ensure the</text>
  <text style="stroke:none;fill:black;font-family:sans-serif;font-size:13;" transform="matrix(1 0 0 1 1289 1989)">design is preserved when submitting to Xcode.</text>
  <text id="template-version" style="stroke:none;fill:black;font-family:sans-serif;font-size:13;text-anchor:end;" transform="matrix(1 0 0 1 3036 1933)">Template v.4.0</text>
  <text style="stroke:none;fill:black;font-family:sans-serif;font-size:13;text-anchor:end;" transform="matrix(1 0 0 1 3036 1951)">Requires Xcode 14 or greater</text>
  <text id="descriptive-name" style="stroke:none;fill:black;font-family:sans-serif;font-size:13;text-anchor:end;" transform="matrix(1 0 0 1 3036 1969)">Generated from taycan</text>
  <text style="stroke:none;fill:black;font-family:sans-serif;font-size:13;text-anchor:end;" transform="matrix(1 0 0 1 3036 1987)">Typeset at 100 points</text>
  <text style="stroke:none;fill:black;font-family:sans-serif;font-size:13;" transform="matrix(1 0 0 1 263 726)">Small</text>
  <text style="stroke:none;fill:black;font-family:sans-serif;font-size:13;" transform="matrix(1 0 0 1 263 1156)">Medium</text>
  <text style="stroke:none;fill:black;font-family:sans-serif;font-size:13;" transform="matrix(1 0 0 1 263 1586)">Large</text>
 </g>
 <g id="Guides">
  <g id="H-reference" style="fill:#27AAE1;stroke:none;" transform="matrix(1 0 0 1 339 696)">
   <path d="M0.993654 0L3.63775 0L29.3281-67.1323L30.0303-67.1323L30.0303-70.459L28.1226-70.459ZM11.6885-24.4799L46.9815-24.4799L46.2315-26.7285L12.4385-26.7285ZM55.1196 0L57.7637 0L30.6382-70.459L29.4326-70.459L29.4326-67.1323Z"/>
  </g>
  <line id="Baseline-S" style="fill:none;stroke:#27AAE1;opacity:1;stroke-width:0.5;" x1="263" x2="3036" y1="696" y2="696"/>
  <line id="Capline-S" style="fill:none;stroke:#27AAE1;opacity:1;stroke-width:0.5;" x1="263" x2="3036" y1="625.541" y2="625.541"/>
  <g id="H-reference" style="fill:#27AAE1;stroke:none;" transform="matrix(1 0 0 1 339 1126)">
   <path d="M0.993654 0L3.63775 0L29.3281-67.1323L30.0303-67.1323L30.0303-70.459L28.1226-70.459ZM11.6885-24.4799L46.9815-24.4799L46.2315-26.7285L12.4385-26.7285ZM55.1196 0L57.7637 0L30.6382-70.459L29.4326-70.459L29.4326-67.1323Z"/>
  </g>
  <line id="Baseline-M" style="fill:none;stroke:#27AAE1;opacity:1;stroke-width:0.5;" x1="263" x2="3036" y1="1126" y2="1126"/>
  <line id="Capline-M" style="fill:none;stroke:#27AAE1;opacity:1;stroke-width:0.5;" x1="263" x2="3036" y1="1055.54" y2="1055.54"/>
  <g id="H-reference" style="fill:#27AAE1;stroke:none;" transform="matrix(1 0 0 1 339 1556)">
   <path d="M0.993654 0L3.63775 0L29.3281-67.1323L30.0303-67.1323L30.0303-70.459L28.1226-70.459ZM11.6885-24.4799L46.9815-24.4799L46.2315-26.7285L12.4385-26.7285ZM55.1196 0L57.7637 0L30.6382-70.459L29.4326-70.459L29.4326-67.1323Z"/>
  </g>
  <line id="Baseline-L" style="fill:none;stroke:#27AAE1;opacity:1;stroke-width:0.5;" x1="263" x2="3036" y1="1556" y2="1556"/>
  <line id="Capline-L" style="fill:none;stroke:#27AAE1;opacity:1;stroke-width:0.5;" x1="263" x2="3036" y1="1485.54" y2="1485.54"/>
  <line id="left-margin-Regular-M" style="fill:none;stroke:#00AEEF;stroke-width:0.5;opacity:1.0;" x1="1379.59" x2="1379.59" y1="1030.79" y2="1150.12"/>
  <line id="right-margin-Regular-M" style="fill:none;stroke:#00AEEF;stroke-width:0.5;opacity:1.0;" x1="1520.09" x2="1520.09" y1="1030.79" y2="1150.12"/>
 </g>
 <g id="Symbols">
  <g id="Medium-L" transform="matrix(1 0 0 1 1654.63 1556)">
   <path class="monochrome-0 multicolor-0:secondaryLabelColor hierarchical-0:primary SFSymbolsPreview8A8A8E" d="M145.711 17.9C142.511 17.9 138.911 17.9 135.011 17.9C131.411 17.9 127.811 17.9 124.611 17.9L59.0107 17.9C55.8107 17.9 52.1107 17.9 48.6107 17.9C18.1107 18.2001 8.61067 17.5 4.91072 13C2.61067 10 2.31074 4.69995 2.21076-10.8C2.21076-13.8 2.21076-17 2.11079-20.3C2.01081-28.7001 1.81074-36.7001 3.31074-42.5C7.21076-57.7 19.7108-60.2 25.7108-60.6C27.4107-65.5 30.2108-71.2999 32.3107-75.4C41.8107-94.1 49.3107-95.3 63.1108-95.6L65.1108-95.6C78.9108-96 104.911-96 118.711-95.6L120.611-95.6C134.311-95.2 141.911-94.2 151.411-75.4C153.711-70.9 156.511-65.4 158.011-60.6C164.011-60.2999 176.311-57.7 180.411-42.5C182.011-36.7 181.711-28.7 181.611-20.1L181.611-20.1C181.611-16.9 181.511-13.6 181.511-10.6C181.411 4.90002 181.111 10.2001 178.811 13.2001C175.611 17 168.011 17.9 145.711 17.9ZM59.0107 7.40002L124.611 7.40002C128.011 7.40002 131.511 7.40002 135.111 7.40002C146.511 7.5 165.111 7.70007 170.311 6.09998C170.811 3 171.011-4.70007 171.011-11.1C171.011-14.2 171.011-17.5 171.111-20.7L171.111-20.7C171.211-28.3999 171.411-35.7999 170.211-40.2C168.511-46.7999 164.011-50.2999 156.81-50.5C152.91-50.6 149.41-53.2 148.211-57C146.91-61.2 144.211-66.6 142.011-70.9C134.811-85.1 131.711-85.2001 120.211-85.5L118.111-85.5C104.411-85.9 78.8105-85.9 65.2105-85.5L63.1105-85.5C51.5106-85.2 48.4106-85.1 41.4106-71.1C39.3106-66.9 36.5106-61.2999 35.2106-57.1C34.0107-53.2999 30.5107-50.7 26.6107-50.6C19.5107-50.5 15.0107-47 13.2106-40.2999C12.0107-35.8999 12.2106-28.2 12.3106-20.7999C12.4106-17.6 12.4106-14.2999 12.4106-11.2C12.4106-4.79993 12.5106 3 13.1105 6C18.3105 7.59998 36.9106 7.40002 48.3105 7.30005C52.1107 7.5 55.7106 7.40002 59.0107 7.40002ZM160.811 14.9L22.7108 14.9C22.7108 14.9 21.8107 4.40002 23.1108 2.59998C25.2108-0.400024 32.9108-3 36.5108-3.40002C48.3109-4.59998 91.9108-4.59998 91.9108-4.59998C91.9108-4.59998 135.511-4.69995 147.311-3.40002C150.911-3 158.611-0.400024 160.711 2.59998C161.911 4.40002 160.811 14.9 160.811 14.9ZM10.3107 10.4L31.2108 13.5C31.2108 13.5 31.3107 23.1 30.3107 23.1C21.5107 23.1 13.1108 23.1 7.51069 23.1C6.61067 23.1 5.21064 22.7 4.81074 21.9C3.11079 18.4 3.21076 3.80005 3.21076 3.80005L10.3107 10.4ZM180.511 3.90002C180.511 3.90002 180.611 18.5 178.911 22C178.511 22.8 177.111 23.2 176.211 23.2C170.611 23.2 162.311 23.2 153.411 23.2C152.411 23.2 152.511 13.6 152.511 13.6L173.411 10.5L180.511 3.90002ZM161.911-55.4L165.411-61C165.411-61 164.711-65.8 165.511-67.1C165.911-67.6 167.311-68.2999 168.011-68.2999C171.011-68.3999 177.411-67.7999 179.611-65.7999C180.111-65.2999 180.911-64.3999 180.911-63.2C181.011-62 180.011-58.6 178.811-58.2999C176.311-57.4999 166.111-56.1 166.111-56.1L161.911-55.4ZM17.4107-56C17.4107-56 7.11067-57.4 4.71076-58.2C3.51081-58.6 2.61079-62 2.61079-63.1C2.71076-64.2999 3.41084-65.2 3.91084-65.7C6.21089-67.6 12.6108-68.2999 15.5108-68.2C16.2108-68.2 17.6108-67.5 18.0108-67C18.8109-65.7 18.1108-60.9 18.1108-60.9L21.6108-55.3L17.4107-56Z"/>
   <path class="monochrome-1 multicolor-1:tertiaryLabelColor hierarchical-1:tertiary SFSymbolsPreviewBDBDBD" d="M25.1107-30.7C28.2106-30.7999 43.2106-29.5 49.3106-28.8999C51.0106-28.7999 55.7106-27.2 55.7106-27.2C55.7106-27.2 46.5107-38.8999 42.4106-41.1C39.5106-42.7 32.9106-43.2999 29.7106-43.4C28.3106-43.4 25.4106-43.8 24.0107-43.4C23.4107-43.1 21.9107-42.5 21.4107-42C20.4107-40.8 19.5107-38.6 19.2108-37.3C18.3107-32.9 18.3107-28.5 18.6108-23.1001C18.9108-19.1001 20.0108-10.6001 21.1108-7.1001C21.2108-6.6001 22.0108-5.50012 22.5108-5.30005C23.4108-4.80005 23.9108-5 24.6108-5.6001C25.0108-6.00012 25.8107-6.50012 25.6108-7.20007C25.2108-11.1001 23.8107-18.9 23.6108-23.3C23.6108-25 23.2108-28.5 23.7108-29.8C23.9107-30.2 24.6107-30.6 25.1107-30.7ZM158.511-30.7C155.411-30.7999 140.411-29.5 134.311-28.8999C132.611-28.7999 127.911-27.2 127.911-27.2C127.911-27.2 137.111-38.8999 141.211-41.1C144.111-42.7 150.711-43.2999 153.911-43.4C155.311-43.4 158.211-43.8 159.611-43.4C160.311-43.1 161.711-42.5 162.211-42C163.211-40.8 164.211-38.6 164.411-37.3C165.311-32.9 165.311-28.5 165.111-23.1001C164.81-19.1001 163.711-10.6001 162.611-7.1001C162.511-6.6001 161.711-5.50012 161.211-5.30005C160.31-4.80005 159.81-5 159.111-5.6001C158.711-6.00012 157.911-6.50012 158.111-7.20007C158.511-11.1001 159.911-18.9 160.011-23.3C160.011-25 160.411-28.5 159.911-29.8C159.811-30.2 159.011-30.6 158.511-30.7Z"/>
  </g>
  <g id="Regular-L" transform="matrix(1 0 0 1 1359.15 1556)">
   <path class="monochrome-0 multicolor-0:secondaryLabelColor hierarchical-0:primary SFSymbolsPreview8A8A8E" d="M144.597 16.4788C141.347 16.4788 137.837 16.4788 133.937 16.4788C130.297 16.4788 126.787 16.4788 123.408 16.4788L57.8874 16.4788C54.6374 16.4788 50.9974 16.4788 47.3575 16.4788C17.7175 16.7388 7.96746 16.2189 4.71746 12.0587C2.63739 9.32874 2.37738 4.25879 2.24737-10.9512C2.24737-13.9413 2.24737-17.1913 2.11737-20.4413C1.98748-28.7612 1.85748-36.6913 3.28741-42.4113C7.18743-57.4912 19.9275-59.3113 25.2575-59.4413C25.3874-59.4413 25.3874-59.5712 25.3874-59.5712C26.9473-64.5112 29.9374-70.6212 32.1474-74.9113C41.2474-93.1113 48.2674-94.0212 61.7874-94.4113L63.8674-94.4113C77.6474-94.8014 103.517-94.8014 117.297-94.4113L119.377-94.4113C132.897-94.0212 139.917-93.1113 149.017-74.9113C151.357-70.2313 154.347-64.3813 155.908-59.5712C155.908-59.5712 155.908-59.4413 156.037-59.4413C161.367-59.3113 174.107-57.3613 178.008-42.4113C179.437-36.8212 179.307-28.8912 179.178-20.4413L179.178-20.4413C179.048-17.1913 179.048-13.9413 179.048-10.8212C178.918 4.38867 178.658 9.45874 176.577 12.1887C173.717 15.5687 166.047 16.4788 144.597 16.4788ZM57.8873 8.54883L123.407 8.54883C126.657 8.54883 130.297 8.54883 133.937 8.54883C146.027 8.67883 166.047 8.80872 170.337 6.98889C170.987 4.38892 171.117-4.19104 171.117-11.0812C171.117-14.2012 171.117-17.4512 171.247-20.7012L171.247-20.7012C171.377-28.5012 171.507-35.9111 170.337-40.4611C167.997-49.5612 161.107-51.6411 155.777-51.6411C152.397-51.771 149.407-53.9812 148.367-57.2312C147.067-61.5212 144.207-66.9812 141.997-71.4011C134.457-86.2212 130.947-86.3512 119.117-86.6111L117.037-86.6111C103.387-87.0012 77.6474-87.0012 64.1275-86.6111L62.0475-86.6111C50.2176-86.3512 46.5774-86.2211 39.1675-71.4011C37.0876-67.2412 34.2275-61.5212 32.7975-57.1012C31.7575-53.8512 28.7675-51.6412 25.3876-51.5111C20.0577-51.3811 13.1675-49.3011 10.8277-40.3312C9.65765-35.6511 9.78765-28.3712 9.91778-20.5712C10.0477-17.3212 10.0477-14.0712 10.0477-10.9512C10.0477-3.93115 10.1777 4.6488 10.8277 7.24878C15.1177 9.06885 35.1376 8.93884 47.2277 8.80872C50.9974 8.67883 54.6373 8.54883 57.8873 8.54883ZM159.677 14.7887L21.6174 14.7887C21.6174 14.7887 20.7075 4.25879 22.0075 2.43872C24.0875-0.551392 31.7575-3.15137 35.3975-3.54126C47.2275-4.7113 90.7775-4.7113 90.7775-4.7113C90.7775-4.7113 134.327-4.84119 146.158-3.54126C149.798-3.15112 157.467-0.551148 159.548 2.43872C160.717 4.25879 159.677 14.7887 159.677 14.7887ZM10.4373 10.2388L31.3672 13.3588C31.3672 13.3588 31.4972 22.9788 30.4573 22.9788C21.6172 22.9788 13.2974 22.9788 7.70733 22.9788C6.79742 22.9788 5.36724 22.5887 4.97735 21.8087C3.28729 18.2988 3.41741 3.73877 3.41741 3.73877L10.4373 10.2388ZM178.007 3.73877C178.007 3.73877 178.137 18.2987 176.447 21.8087C176.057 22.5887 174.627 22.9788 173.717 22.9788C168.127 22.9788 159.807 22.9788 150.967 22.9788C149.927 22.9788 150.057 13.3588 150.057 13.3588L170.987 10.2388L178.007 3.73877ZM159.417-54.2412L162.927-59.8313C162.927-59.8313 162.277-64.6412 163.057-65.9413C163.447-66.4613 164.877-67.1113 165.527-67.1113C168.517-67.2412 174.887-66.5912 177.097-64.6412C177.617-64.1212 178.397-63.2113 178.397-62.0413C178.527-60.8712 177.487-57.4912 176.317-57.1012C173.847-56.3212 163.577-54.8912 163.577-54.8912L159.417-54.2412ZM17.5873-54.8912C17.5873-54.8912 7.31719-56.3212 4.84722-57.1012C3.67718-57.4912 2.76727-60.8712 2.76727-62.0413C2.89727-63.2113 3.54718-64.1212 4.06719-64.6412C6.40728-66.5912 12.7772-67.2412 15.6373-67.1113C16.2873-67.1113 17.7172-66.4613 18.1074-65.9413C18.8873-64.6412 18.2372-59.8313 18.2372-59.8313L21.7472-54.2412L17.5873-54.8912Z"/>
   <path class="monochrome-1 multicolor-1:tertiaryLabelColor hierarchical-1:tertiary SFSymbolsPreviewBDBDBD" d="M23.9573-30.8412C27.0773-30.9712 42.0274-29.6713 48.1373-29.0212C49.8273-28.8912 54.5073-27.3312 54.5073-27.3312C54.5073-27.3312 45.2774-39.0311 41.2474-41.2411C38.3874-42.801 31.7573-43.451 28.5073-43.5812C27.0773-43.5812 24.2172-43.9712 22.7873-43.5812C22.1373-43.3212 20.7073-42.6713 20.1873-42.1511C19.1473-40.9812 18.2372-38.7712 17.9774-37.4712C17.0674-33.0511 17.0674-28.6311 17.3273-23.3011C17.5873-19.2712 18.7573-10.8212 19.7974-7.31116C19.9273-6.79114 20.7073-5.75122 21.2274-5.49109C22.1373-4.97107 22.6573-5.2312 23.3073-5.75098C23.6973-6.14111 24.4774-6.66101 24.3473-7.31091C23.9573-11.2109 22.5274-19.011 22.3974-23.431C22.3974-25.1211 22.0073-28.631 22.5274-29.931C22.7873-30.3212 23.4373-30.7113 23.9573-30.8412ZM157.337-30.8412C154.217-30.9712 139.267-29.6713 133.157-29.0212C131.467-28.8912 126.787-27.3312 126.787-27.3312C126.787-27.3312 136.017-39.0311 140.047-41.2411C142.907-42.801 149.537-43.451 152.787-43.5812C154.217-43.5812 157.077-43.9712 158.507-43.5812C159.157-43.3212 160.587-42.6713 161.107-42.1511C162.147-40.9812 163.057-38.7712 163.317-37.4712C164.227-33.0511 164.227-28.6311 163.967-23.3011C163.707-19.2712 162.537-10.8212 161.497-7.31116C161.367-6.79114 160.587-5.75122 160.067-5.49109C159.157-4.97107 158.637-5.2312 157.987-5.75098C157.597-6.14111 156.817-6.66101 156.947-7.31091C157.337-11.2109 158.767-19.011 158.897-23.431C158.897-25.1211 159.287-28.631 158.767-29.931C158.637-30.3212 157.857-30.7113 157.337-30.8412Z"/>
  </g>
  <g id="Medium-M" transform="matrix(1 0 0 1 1675.4 1126)">
   <path class="monochrome-0 multicolor-0:secondaryLabelColor hierarchical-0:primary SFSymbolsPreview8A8A8E" d="M112.6 6.40002C110.1 6.40002 107.4 6.40002 104.4 6.40002C101.6 6.40002 98.9 6.40002 96.4 6.40002L45.9 6.40002C43.4 6.40002 40.6 6.40002 37.9 6.40002C14.4 6.59998 7.09998 6.09998 4.30005 2.59998C2.5 0.299927 2.30005-3.80005 2.20007-15.7001C2.20007-18.0001 2.20007-20.5001 2.1001-23.0001C2.00012-29.5001 1.90015-35.6001 3.00012-40.1001C6.00012-51.8 15.6001-53.7001 20.2001-54.0001C21.5001-57.8002 23.7001-62.2001 25.3-65.4001C32.6001-79.8002 38.4-80.7002 49-80.9001L50.5-80.9001C61.1-81.2002 81.1-81.2002 91.7-80.9001L93.2-80.9001C103.7-80.6001 109.6-79.8002 116.9-65.4001C118.7-61.9001 120.8-57.7002 122-54.0001C126.6-53.8002 136.1-51.8002 139.2-40.1001C140.4-35.6001 140.2-29.5001 140.1-22.9001L140.1-22.9001C140.1-20.4001 140-17.9001 140-15.6001C139.9-3.70007 139.7 0.399902 137.9 2.69995C135.6 5.69995 129.7 6.40002 112.6 6.40002ZM45.8999-1.69995L96.3999-1.69995C98.9999-1.69995 101.7-1.69995 104.5-1.69995C113.3-1.59998 127.6-1.5 131.6-2.69995C132-5.09998 132.1-11 132.1-15.8999C132.1-18.2999 132.1-20.7999 132.2-23.2999L132.2-23.2999C132.3-29.2 132.4-34.8999 131.5-38.2999C130.2-43.3999 126.7-46.1 121.2-46.2C118.2-46.2999 115.5-48.2999 114.6-51.2C113.6-54.3999 111.5-58.6 109.8-61.8999C104.3-72.7999 101.9-72.8999 92.9998-73.0999L91.3998-73.0999C80.8998-73.3999 61.1998-73.3999 50.6998-73.0999L49.0999-73.0999C40.1998-72.8999 37.7998-72.7998 32.3999-61.9999C30.7999-58.7999 28.5999-54.4999 27.5999-51.1998C26.6998-48.2998 23.9999-46.2998 20.9999-46.1998C15.4999-46.0999 12.0999-43.3998 10.6998-38.2998C9.7998-34.8998 9.89978-28.9998 9.99988-23.2998C10.0999-20.7998 10.0999-18.2998 10.0999-15.8998C10.0999-10.9998 10.1998-4.99976 10.5999-2.69983C14.5999-1.49988 28.8999-1.59985 37.6998-1.69983C40.6-1.59998 43.2999-1.69995 45.8999-1.69995ZM124.2 4.09998L18 4.09998C18 4.09998 17.3-4 18.3-5.40002C19.9-7.70007 25.8-9.70007 28.6001-10C37.7001-10.9 71.2001-10.9 71.2001-10.9C71.2001-10.9 104.7-11 113.8-10C116.6-9.69995 122.5-7.69995 124.1-5.40002C125-4 124.2 4.09998 124.2 4.09998ZM8.3999 0.599976L24.4999 3C24.4999 3 24.5999 10.4 23.7999 10.4C16.9999 10.4 10.6 10.4 6.29993 10.4C5.59998 10.4 4.49988 10.1 4.19995 9.5C2.8999 6.80005 3-4.40002 3-4.40002L8.3999 0.599976ZM139.3-4.40002C139.3-4.40002 139.4 6.79993 138.1 9.5C137.8 10.1 136.7 10.4 136 10.4C131.7 10.4 125.3 10.4 118.5 10.4C117.7 10.4 117.8 3 117.8 3L133.9 0.599976L139.3-4.40002ZM125-50L127.7-54.3C127.7-54.3 127.2-58 127.8-59C128.1-59.4 129.2-59.9 129.7-59.9C132-60 136.9-59.5 138.6-58C139-57.6 139.6-56.9 139.6-56C139.7-55.1 138.9-52.5 138-52.2C136.1-51.6 128.2-50.5 128.2-50.5L125-50ZM13.8999-50.5C13.8999-50.5 5.99988-51.6 4.09985-52.2C3.19983-52.5 2.49988-55.1 2.49988-56C2.59985-56.9 3.09985-57.6 3.49988-58C5.29993-59.5 10.1998-60 12.3999-59.9C12.8999-59.9 13.9999-59.4 14.2999-59C14.8999-58 14.3999-54.3 14.3999-54.3L17.0999-50L13.8999-50.5Z"/>
   <path class="monochrome-1 multicolor-1:tertiaryLabelColor hierarchical-1:tertiary SFSymbolsPreviewBDBDBD" d="M19.7999-31C22.2-31.1 33.7-30.1 38.3999-29.6C39.7-29.5 43.2999-28.2999 43.2999-28.2999C43.2999-28.2999 36.2-37.2999 33.1-38.9999C30.9-40.1998 25.7999-40.6998 23.2999-40.7999C22.2-40.7999 19.9999-41.1 18.8999-40.7999C18.3999-40.6 17.2999-40.1 16.8999-39.7C16.0999-38.7999 15.3999-37.1 15.2-36.1C14.5-32.7 14.5-29.2999 14.7-25.2C14.8999-22.1 15.7999-15.6 16.6-12.8999C16.7-12.4999 17.2999-11.7 17.7-11.4999C18.3999-11.0999 18.7999-11.2999 19.2999-11.6998C19.6-11.9999 20.2-12.3998 20.1-12.8998C19.7999-15.8998 18.7-21.8998 18.6-25.2998C18.6-26.5999 18.2999-29.2998 18.7-30.2998C18.8999-30.6 19.3999-30.9 19.7999-31ZM122.4-31C120-31.1 108.5-30.1 103.8-29.6C102.5-29.5 98.8999-28.2999 98.8999-28.2999C98.8999-28.2999 106-37.2999 109.1-38.9999C111.3-40.1998 116.4-40.6998 118.9-40.7999C120-40.7999 122.2-41.1 123.3-40.7999C123.8-40.6 124.9-40.1 125.3-39.7C126.1-38.7999 126.8-37.1 127-36.1C127.7-32.7 127.7-29.2999 127.5-25.2C127.3-22.1 126.4-15.6 125.6-12.8999C125.5-12.4999 124.9-11.7 124.5-11.4999C123.8-11.0999 123.4-11.2999 122.9-11.6998C122.6-11.9999 122-12.3998 122.1-12.8998C122.4-15.8998 123.5-21.8998 123.6-25.2998C123.6-26.5999 123.9-29.2998 123.5-30.2998C123.4-30.6 122.8-30.9 122.4-31Z"/>
  </g>
  <g id="Regular-M" transform="matrix(1 0 0 1 1379.59 1126)">
   <path class="monochrome-0 multicolor-0:secondaryLabelColor hierarchical-0:primary SFSymbolsPreview8A8A8E" d="M111.7 5.40002C109.2 5.40002 106.5 5.40002 103.5 5.40002C100.7 5.40002 98.0001 5.40002 95.4001 5.40002L45.0001 5.40002C42.5001 5.40002 39.7001 5.40002 36.9001 5.40002C14.1001 5.59998 6.6001 5.20007 4.1001 2C2.50012-0.0999756 2.30005-4 2.20007-15.7C2.20007-18 2.20007-20.5 2.1001-23C2.00012-29.4 1.90015-35.5 3.00012-39.9C6.00012-51.5 15.8002-52.9 19.9001-53C20.0001-53 20.0001-53.1 20.0001-53.1C21.2001-56.9 23.5001-61.6 25.2001-64.9C32.2001-78.9 37.6001-79.6 48.0001-79.9L49.6001-79.9C60.2001-80.2001 80.1001-80.2001 90.7001-79.9L92.3-79.9C102.7-79.6 108.1-78.9 115.1-64.9C116.9-61.3 119.2-56.8 120.4-53.1C120.4-53.1 120.4-53 120.5-53C124.6-52.9 134.4-51.4 137.4-39.9C138.5-35.6 138.4-29.5 138.3-23L138.3-23C138.2-20.5 138.2-18 138.2-15.6C138.1-3.90002 137.9 0 136.3 2.09998C134.1 4.69995 128.2 5.40002 111.7 5.40002ZM45-0.699951L95.4-0.699951C97.9-0.699951 100.7-0.699951 103.5-0.699951C112.8-0.599976 128.2-0.5 131.5-1.8999C132-3.8999 132.1-10.4999 132.1-15.7999C132.1-18.2 132.1-20.7 132.2-23.2L132.2-23.2C132.3-29.2 132.4-34.8999 131.5-38.3999C129.7-45.3999 124.4-46.9999 120.3-46.9999C117.7-47.0999 115.4-48.7999 114.6-51.2999C113.6-54.6 111.4-58.7999 109.7-62.2C103.9-73.6 101.2-73.7 92.1001-73.8999L90.5001-73.8999C80.0001-74.2 60.2001-74.2 49.8002-73.8999L48.2002-73.8999C39.1002-73.7 36.3002-73.5999 30.6002-62.2C29.0002-59 26.8002-54.6 25.7002-51.2C24.9001-48.7 22.6002-47 20.0002-46.8999C15.9003-46.7999 10.6002-45.2 8.80029-38.2999C7.90027-34.7 8.00024-29.1 8.10034-23.1C8.20032-20.6 8.20032-18.1 8.20032-15.7C8.20032-10.2999 8.30029-3.69995 8.80029-1.69995C12.1003-0.299927 27.5002-0.399902 36.8003-0.5C39.7001-0.599976 42.5-0.699951 45-0.699951ZM123.3 4.09998L17.1001 4.09998C17.1001 4.09998 16.4001-4 17.4001-5.40002C19.0001-7.70007 24.9001-9.70007 27.7002-10C36.8002-10.9 70.3002-10.9 70.3002-10.9C70.3002-10.9 103.8-11 112.9-10C115.7-9.69995 121.6-7.69995 123.2-5.40002C124.1-4 123.3 4.09998 123.3 4.09998ZM8.5 0.599976L24.6 3C24.6 3 24.7 10.4 23.9 10.4C17.1 10.4 10.7001 10.4 6.40002 10.4C5.70007 10.4 4.59998 10.1 4.30005 9.5C3 6.80005 3.1001-4.40002 3.1001-4.40002L8.5 0.599976ZM137.4-4.40002C137.4-4.40002 137.5 6.79993 136.2 9.5C135.9 10.1 134.8 10.4 134.1 10.4C129.8 10.4 123.4 10.4 116.6 10.4C115.8 10.4 115.9 3 115.9 3L132 0.599976L137.4-4.40002ZM123.1-49L125.8-53.3C125.8-53.3 125.3-57 125.9-58C126.2-58.4 127.3-58.9 127.8-58.9C130.1-59 135-58.5 136.7-57C137.1-56.6 137.7-55.9 137.7-55C137.8-54.1 137-51.5 136.1-51.2C134.2-50.6 126.3-49.5 126.3-49.5L123.1-49ZM14-49.5C14-49.5 6.09998-50.6 4.19995-51.2C3.29993-51.5 2.59998-54.1 2.59998-55C2.69995-55.9 3.19995-56.6 3.59998-57C5.40002-58.5 10.2999-59 12.5-58.9C13-58.9 14.1-58.4 14.4-58C15-57 14.5-53.3 14.5-53.3L17.2-49L14-49.5Z"/>
   <path class="monochrome-1 multicolor-1:tertiaryLabelColor hierarchical-1:tertiary SFSymbolsPreviewBDBDBD" d="M18.9-31C21.3-31.1 32.8-30.1 37.5-29.6C38.8-29.5 42.4-28.2999 42.4-28.2999C42.4-28.2999 35.3-37.2999 32.2001-38.9999C30.0001-40.1998 24.9-40.6998 22.4-40.7999C21.3-40.7999 19.1-41.1 18-40.7999C17.5-40.6 16.4-40.1 16-39.7C15.2-38.7999 14.5-37.1 14.3-36.1C13.6001-32.7 13.6001-29.2999 13.8-25.2C14-22.1 14.9-15.6 15.7001-12.8999C15.8-12.4999 16.4-11.7 16.8-11.4999C17.5-11.0999 17.9-11.2999 18.4-11.6998C18.7001-11.9999 19.3-12.3998 19.2001-12.8998C18.9-15.8998 17.8-21.8998 17.7001-25.2998C17.7001-26.5999 17.4-29.2998 17.8-30.2998C18-30.6 18.5-30.9 18.9-31ZM121.5-31C119.1-31.1 107.6-30.1 102.9-29.6C101.6-29.5 98-28.2999 98-28.2999C98-28.2999 105.1-37.2999 108.2-38.9999C110.4-40.1998 115.5-40.6998 118-40.7999C119.1-40.7999 121.3-41.1 122.4-40.7999C122.9-40.6 124-40.1 124.4-39.7C125.2-38.7999 125.9-37.1 126.1-36.1C126.8-32.7 126.8-29.2999 126.6-25.2C126.4-22.1 125.5-15.6 124.7-12.8999C124.6-12.4999 124-11.7 123.6-11.4999C122.9-11.0999 122.5-11.2999 122-11.6998C121.7-11.9999 121.1-12.3998 121.2-12.8998C121.5-15.8998 122.6-21.8998 122.7-25.2998C122.7-26.5999 123-29.2998 122.6-30.2998C122.5-30.6 121.9-30.9 121.5-31Z"/>
  </g>
 </g>
</svg>
