<?xml version="1.0" encoding="UTF-8"?>
<!--Generator: Apple Native CoreSVG 175.5-->
<!DOCTYPE svg
PUBLIC "-//W3C//DTD SVG 1.1//EN"
       "http://www.w3.org/Graphics/SVG/1.1/DTD/svg11.dtd">
<svg version="1.1" xmlns="http://www.w3.org/2000/svg" xmlns:xlink="http://www.w3.org/1999/xlink" width="3300" height="2200">
 <!--glyph: "", point size: 100.0, font version: "18.0d11e1", template writer version: "90"-->
 <style/>
 <g id="Notes">
  <rect height="2200" id="artboard" style="fill:white;opacity:1" width="3300" x="0" y="0"/>
  <line style="fill:none;stroke:black;opacity:1;stroke-width:0.5;" x1="263" x2="3036" y1="292" y2="292"/>
  <text style="stroke:none;fill:black;font-family:sans-serif;font-size:13;font-weight:bold;" transform="matrix(1 0 0 1 263 322)">Weight/Scale Variations</text>
  <text style="stroke:none;fill:black;font-family:sans-serif;font-size:13;text-anchor:middle;" transform="matrix(1 0 0 1 559.711 322)">Ultralight</text>
  <text style="stroke:none;fill:black;font-family:sans-serif;font-size:13;text-anchor:middle;" transform="matrix(1 0 0 1 856.422 322)">Thin</text>
  <text style="stroke:none;fill:black;font-family:sans-serif;font-size:13;text-anchor:middle;" transform="matrix(1 0 0 1 1153.13 322)">Light</text>
  <text style="stroke:none;fill:black;font-family:sans-serif;font-size:13;text-anchor:middle;" transform="matrix(1 0 0 1 1449.84 322)">Regular</text>
  <text style="stroke:none;fill:black;font-family:sans-serif;font-size:13;text-anchor:middle;" transform="matrix(1 0 0 1 1746.56 322)">Medium</text>
  <text style="stroke:none;fill:black;font-family:sans-serif;font-size:13;text-anchor:middle;" transform="matrix(1 0 0 1 2043.27 322)">Semibold</text>
  <text style="stroke:none;fill:black;font-family:sans-serif;font-size:13;text-anchor:middle;" transform="matrix(1 0 0 1 2339.98 322)">Bold</text>
  <text style="stroke:none;fill:black;font-family:sans-serif;font-size:13;text-anchor:middle;" transform="matrix(1 0 0 1 2636.69 322)">Heavy</text>
  <text style="stroke:none;fill:black;font-family:sans-serif;font-size:13;text-anchor:middle;" transform="matrix(1 0 0 1 2933.4 322)">Black</text>
  <line style="fill:none;stroke:black;opacity:1;stroke-width:0.5;" x1="263" x2="3036" y1="1903" y2="1903"/>
  <g transform="matrix(1 0 0 1 263 1933)">
   <path d="M9.24805 0.830078C13.5547 0.830078 17.1387-2.74414 17.1387-7.05078C17.1387-11.3574 13.5449-14.9316 9.23828-14.9316C4.94141-14.9316 1.36719-11.3574 1.36719-7.05078C1.36719-2.74414 4.95117 0.830078 9.24805 0.830078ZM9.24805-0.654297C5.70312-0.654297 2.87109-3.49609 2.87109-7.05078C2.87109-10.6055 5.69336-13.4473 9.23828-13.4473C12.793-13.4473 15.6445-10.6055 15.6445-7.05078C15.6445-3.49609 12.8027-0.654297 9.24805-0.654297ZM5.6543-7.05078C5.6543-6.62109 5.95703-6.32812 6.40625-6.32812L8.50586-6.32812L8.50586-4.20898C8.50586-3.76953 8.79883-3.4668 9.22852-3.4668C9.67773-3.4668 9.9707-3.76953 9.9707-4.20898L9.9707-6.32812L12.0898-6.32812C12.5293-6.32812 12.832-6.62109 12.832-7.05078C12.832-7.49023 12.5293-7.79297 12.0898-7.79297L9.9707-7.79297L9.9707-9.90234C9.9707-10.3516 9.67773-10.6543 9.22852-10.6543C8.79883-10.6543 8.50586-10.3516 8.50586-9.90234L8.50586-7.79297L6.40625-7.79297C5.95703-7.79297 5.6543-7.49023 5.6543-7.05078Z"/>
  </g>
  <g transform="matrix(1 0 0 1 281.867 1933)">
   <path d="M11.709 2.91016C17.1582 2.91016 21.6699-1.61133 21.6699-7.05078C21.6699-12.5 17.1484-17.0117 11.6992-17.0117C6.25977-17.0117 1.74805-12.5 1.74805-7.05078C1.74805-1.61133 6.26953 2.91016 11.709 2.91016ZM11.709 1.25C7.09961 1.25 3.41797-2.44141 3.41797-7.05078C3.41797-11.6602 7.08984-15.3516 11.6992-15.3516C16.3086-15.3516 20.0098-11.6602 20.0098-7.05078C20.0098-2.44141 16.3184 1.25 11.709 1.25ZM7.17773-7.05078C7.17773-6.57227 7.50977-6.25 8.00781-6.25L10.8789-6.25L10.8789-3.36914C10.8789-2.88086 11.2109-2.53906 11.6895-2.53906C12.1777-2.53906 12.5195-2.87109 12.5195-3.36914L12.5195-6.25L15.4004-6.25C15.8887-6.25 16.2305-6.57227 16.2305-7.05078C16.2305-7.53906 15.8887-7.88086 15.4004-7.88086L12.5195-7.88086L12.5195-10.752C12.5195-11.25 12.1777-11.5918 11.6895-11.5918C11.2109-11.5918 10.8789-11.25 10.8789-10.752L10.8789-7.88086L8.00781-7.88086C7.50977-7.88086 7.17773-7.53906 7.17773-7.05078Z"/>
  </g>
  <g transform="matrix(1 0 0 1 305.646 1933)">
   <path d="M14.9707 5.66406C21.9336 5.66406 27.6953-0.0976562 27.6953-7.05078C27.6953-14.0137 21.9238-19.7754 14.9609-19.7754C8.00781-19.7754 2.25586-14.0137 2.25586-7.05078C2.25586-0.0976562 8.01758 5.66406 14.9707 5.66406ZM14.9707 3.84766C8.93555 3.84766 4.08203-1.01562 4.08203-7.05078C4.08203-13.0957 8.92578-17.9492 14.9609-17.9492C21.0059-17.9492 25.8691-13.0957 25.8691-7.05078C25.8691-1.01562 21.0156 3.84766 14.9707 3.84766ZM9.19922-7.05078C9.19922-6.5332 9.57031-6.17188 10.1172-6.17188L14.0625-6.17188L14.0625-2.2168C14.0625-1.67969 14.4336-1.29883 14.9512-1.29883C15.4883-1.29883 15.8594-1.66992 15.8594-2.2168L15.8594-6.17188L19.8145-6.17188C20.3516-6.17188 20.7324-6.5332 20.7324-7.05078C20.7324-7.59766 20.3613-7.96875 19.8145-7.96875L15.8594-7.96875L15.8594-11.9141C15.8594-12.4609 15.4883-12.8418 14.9512-12.8418C14.4336-12.8418 14.0625-12.4609 14.0625-11.9141L14.0625-7.96875L10.1172-7.96875C9.57031-7.96875 9.19922-7.59766 9.19922-7.05078Z"/>
  </g>
  <text style="stroke:none;fill:black;font-family:sans-serif;font-size:13;font-weight:bold;" transform="matrix(1 0 0 1 263 1953)">Design Variations</text>
  <text style="stroke:none;fill:black;font-family:sans-serif;font-size:13;" transform="matrix(1 0 0 1 263 1971)">Symbols are supported in up to nine weights and three scales.</text>
  <text style="stroke:none;fill:black;font-family:sans-serif;font-size:13;" transform="matrix(1 0 0 1 263 1989)">For optimal layout with text and other symbols, vertically align</text>
  <text style="stroke:none;fill:black;font-family:sans-serif;font-size:13;" transform="matrix(1 0 0 1 263 2007)">symbols with the adjacent text.</text>
  <line style="fill:none;stroke:#00AEEF;stroke-width:0.5;opacity:1.0;" x1="776" x2="776" y1="1919" y2="1933"/>
  <g transform="matrix(1 0 0 1 776 1933)">
   <path d="M3.31055 0.15625C3.82812 0.15625 4.08203-0.0390625 4.26758-0.585938L5.52734-4.0332L11.2891-4.0332L12.5488-0.585938C12.7344-0.0390625 12.9883 0.15625 13.4961 0.15625C14.0137 0.15625 14.3457-0.15625 14.3457-0.644531C14.3457-0.810547 14.3164-0.966797 14.2383-1.17188L9.6582-13.3691C9.43359-13.9648 9.0332-14.2676 8.4082-14.2676C7.80273-14.2676 7.39258-13.9746 7.17773-13.3789L2.59766-1.16211C2.51953-0.957031 2.49023-0.800781 2.49023-0.634766C2.49023-0.146484 2.80273 0.15625 3.31055 0.15625ZM6.00586-5.51758L8.37891-12.0898L8.42773-12.0898L10.8008-5.51758Z"/>
  </g>
  <line style="fill:none;stroke:#00AEEF;stroke-width:0.5;opacity:1.0;" x1="793.197" x2="793.197" y1="1919" y2="1933"/>
  <text style="stroke:none;fill:black;font-family:sans-serif;font-size:13;font-weight:bold;" transform="matrix(1 0 0 1 776 1953)">Margins</text>
  <text style="stroke:none;fill:black;font-family:sans-serif;font-size:13;" transform="matrix(1 0 0 1 776 1971)">Leading and trailing margins on the left and right side of each symbol</text>
  <text style="stroke:none;fill:black;font-family:sans-serif;font-size:13;" transform="matrix(1 0 0 1 776 1989)">can be adjusted by modifying the x-location of the margin guidelines.</text>
  <text style="stroke:none;fill:black;font-family:sans-serif;font-size:13;" transform="matrix(1 0 0 1 776 2007)">Modifications are automatically applied proportionally to all</text>
  <text style="stroke:none;fill:black;font-family:sans-serif;font-size:13;" transform="matrix(1 0 0 1 776 2025)">scales and weights.</text>
  <g transform="matrix(1 0 0 1 1289 1933)">
   <path d="M2.8418 1.86523L4.54102 3.57422C5.40039 4.44336 6.38672 4.38477 7.31445 3.35938L18.0078-8.42773L17.041-9.4043L6.42578 2.27539C6.07422 2.67578 5.74219 2.77344 5.27344 2.30469L4.10156 1.14258C3.63281 0.683594 3.74023 0.341797 4.14062-0.0195312L15.6152-10.8203L14.6387-11.7871L3.04688-0.898438C2.06055 0.0195312 1.98242 0.996094 2.8418 1.86523ZM9.25781-16.3281C8.83789-15.918 8.80859-15.3418 9.04297-14.9512C9.27734-14.5898 9.73633-14.3555 10.3809-14.5215C11.8457-14.8633 13.3691-14.9219 14.7949-13.9844L14.209-12.5293C13.8672-11.6992 14.043-11.1133 14.5801-10.5664L16.875-8.25195C17.3633-7.76367 17.7734-7.74414 18.3398-7.8418L19.4043-8.03711L20.0684-7.36328L20.0293-6.80664C19.9902-6.30859 20.1172-5.92773 20.6055-5.44922L21.3672-4.70703C21.8457-4.22852 22.4609-4.19922 22.9297-4.66797L25.8398-7.58789C26.3086-8.05664 26.2891-8.65234 25.8105-9.13086L25.0391-9.89258C24.5605-10.3711 24.1895-10.5273 23.7109-10.4883L23.1348-10.4395L22.4902-11.0742L22.7344-12.1973C22.8613-12.7637 22.7051-13.2031 22.1191-13.7891L19.9219-15.9766C16.582-19.2969 12.1484-19.2188 9.25781-16.3281ZM10.752-15.957C13.1836-17.7344 16.4746-17.4316 18.7012-15.2051L21.1328-12.793C21.3672-12.5586 21.4062-12.373 21.3379-12.0312L21.0156-10.5469L22.5195-9.0625L23.5059-9.12109C23.7598-9.13086 23.8379-9.11133 24.0332-8.91602L24.6094-8.33984L22.168-5.89844L21.5918-6.47461C21.3965-6.66992 21.3672-6.74805 21.377-7.01172L21.4453-7.98828L19.9512-9.47266L18.4277-9.21875C18.1055-9.15039 17.959-9.17969 17.7148-9.41406L15.7129-11.416C15.459-11.6504 15.4297-11.8164 15.5859-12.1875L16.4648-14.2773C14.9023-15.7324 12.8711-16.3574 10.8398-15.7617C10.6836-15.7227 10.625-15.8496 10.752-15.957Z"/>
  </g>
  <text style="stroke:none;fill:black;font-family:sans-serif;font-size:13;font-weight:bold;" transform="matrix(1 0 0 1 1289 1953)">Exporting</text>
  <text style="stroke:none;fill:black;font-family:sans-serif;font-size:13;" transform="matrix(1 0 0 1 1289 1971)">Symbols should be outlined when exporting to ensure the</text>
  <text style="stroke:none;fill:black;font-family:sans-serif;font-size:13;" transform="matrix(1 0 0 1 1289 1989)">design is preserved when submitting to Xcode.</text>
  <text id="template-version" style="stroke:none;fill:black;font-family:sans-serif;font-size:13;text-anchor:end;" transform="matrix(1 0 0 1 3036 1933)">Template v.4.0</text>
  <text style="stroke:none;fill:black;font-family:sans-serif;font-size:13;text-anchor:end;" transform="matrix(1 0 0 1 3036 1951)">Requires Xcode 14 or greater</text>
  <text id="descriptive-name" style="stroke:none;fill:black;font-family:sans-serif;font-size:13;text-anchor:end;" transform="matrix(1 0 0 1 3036 1969)">Generated from taycan</text>
  <text style="stroke:none;fill:black;font-family:sans-serif;font-size:13;text-anchor:end;" transform="matrix(1 0 0 1 3036 1987)">Typeset at 100 points</text>
  <text style="stroke:none;fill:black;font-family:sans-serif;font-size:13;" transform="matrix(1 0 0 1 263 726)">Small</text>
  <text style="stroke:none;fill:black;font-family:sans-serif;font-size:13;" transform="matrix(1 0 0 1 263 1156)">Medium</text>
  <text style="stroke:none;fill:black;font-family:sans-serif;font-size:13;" transform="matrix(1 0 0 1 263 1586)">Large</text>
 </g>
 <g id="Guides">
  <g id="H-reference" style="fill:#27AAE1;stroke:none;" transform="matrix(1 0 0 1 339 696)">
   <path d="M0.993654 0L3.63775 0L29.3281-67.1323L30.0303-67.1323L30.0303-70.459L28.1226-70.459ZM11.6885-24.4799L46.9815-24.4799L46.2315-26.7285L12.4385-26.7285ZM55.1196 0L57.7637 0L30.6382-70.459L29.4326-70.459L29.4326-67.1323Z"/>
  </g>
  <line id="Baseline-S" style="fill:none;stroke:#27AAE1;opacity:1;stroke-width:0.5;" x1="263" x2="3036" y1="696" y2="696"/>
  <line id="Capline-S" style="fill:none;stroke:#27AAE1;opacity:1;stroke-width:0.5;" x1="263" x2="3036" y1="625.541" y2="625.541"/>
  <g id="H-reference" style="fill:#27AAE1;stroke:none;" transform="matrix(1 0 0 1 339 1126)">
   <path d="M0.993654 0L3.63775 0L29.3281-67.1323L30.0303-67.1323L30.0303-70.459L28.1226-70.459ZM11.6885-24.4799L46.9815-24.4799L46.2315-26.7285L12.4385-26.7285ZM55.1196 0L57.7637 0L30.6382-70.459L29.4326-70.459L29.4326-67.1323Z"/>
  </g>
  <line id="Baseline-M" style="fill:none;stroke:#27AAE1;opacity:1;stroke-width:0.5;" x1="263" x2="3036" y1="1126" y2="1126"/>
  <line id="Capline-M" style="fill:none;stroke:#27AAE1;opacity:1;stroke-width:0.5;" x1="263" x2="3036" y1="1055.54" y2="1055.54"/>
  <g id="H-reference" style="fill:#27AAE1;stroke:none;" transform="matrix(1 0 0 1 339 1556)">
   <path d="M0.993654 0L3.63775 0L29.3281-67.1323L30.0303-67.1323L30.0303-70.459L28.1226-70.459ZM11.6885-24.4799L46.9815-24.4799L46.2315-26.7285L12.4385-26.7285ZM55.1196 0L57.7637 0L30.6382-70.459L29.4326-70.459L29.4326-67.1323Z"/>
  </g>
  <line id="Baseline-L" style="fill:none;stroke:#27AAE1;opacity:1;stroke-width:0.5;" x1="263" x2="3036" y1="1556" y2="1556"/>
  <line id="Capline-L" style="fill:none;stroke:#27AAE1;opacity:1;stroke-width:0.5;" x1="263" x2="3036" y1="1485.54" y2="1485.54"/>
  <line id="left-margin-Regular-M" style="fill:none;stroke:#00AEEF;stroke-width:0.5;opacity:1.0;" x1="1379.74" x2="1379.74" y1="1030.73" y2="1150.14"/>
  <line id="right-margin-Regular-M" style="fill:none;stroke:#00AEEF;stroke-width:0.5;opacity:1.0;" x1="1519.95" x2="1519.95" y1="1030.73" y2="1150.14"/>
 </g>
 <g id="Symbols">
  <g id="Semibold-L" transform="matrix(1 0 0 1 1951.02 1556)">
   <path d="M25.6684-30.7C28.7684-30.8 43.7684-29.5 49.8684-28.9C51.5684-28.8 56.2684-27.2 56.2684-27.2C56.2684-27.2 47.0684-38.9 42.9684-41.1C40.0684-42.7 33.4684-43.3 30.2684-43.4C28.8684-43.4 25.9684-43.8 24.5684-43.4C23.9684-43.1 22.4684-42.5 21.9684-42C20.9684-40.8 20.0684-38.6 19.7684-37.3C18.8684-32.9 18.8684-28.5 19.1684-23.1C19.4684-19.1 20.5684-10.6 21.6684-7.1C21.7684-6.6 22.5684-5.5 23.0684-5.3C23.9684-4.8 24.4684-5 25.1684-5.6C25.5684-6 26.3684-6.5 26.1684-7.2C25.7684-11.1 24.3684-18.9 24.1684-23.3C24.1684-25 23.7684-28.5 24.2684-29.8C24.5684-30.2 25.1684-30.6 25.6684-30.7ZM18.0684-56.4C18.0684-56.4 7.76841-57.8 5.36841-58.6C4.16841-59 3.26841-62.4 3.26841-63.5C3.36841-64.7 4.06841-65.6 4.56841-66.1C6.86841-68 13.2684-68.7 16.1684-68.6C16.8684-68.6 18.2684-67.9 18.6684-67.4C19.4684-66.1 18.7684-61.3 18.7684-61.3L22.2684-55.7L18.0684-56.4ZM161.468 14.9L23.3684 14.9C23.3684 14.9 22.4684 4.4 23.7684 2.6C25.8684-0.4 33.5684-3 37.1684-3.4C48.9684-4.6 92.5684-4.6 92.5684-4.6C92.5684-4.6 136.068-4.7 147.968-3.4C151.568-3 159.268-0.4 161.368 2.6C162.368 4.4 161.468 14.9 161.468 14.9ZM9.56841 10.4L30.4684 13.5C30.4684 13.5 30.5684 23.1 29.5684 23.1C20.7684 23.1 12.3684 23.1 6.76841 23.1C5.86841 23.1 4.46841 22.7 4.06841 21.9C2.36841 18.4 2.46841 3.8 2.46841 3.8L9.56841 10.4ZM38.6684 18.6C16.0684 18.6 8.26841 17.6 4.96841 13.4C2.36841 10.2 2.26841 4.6 2.06841-10.8C2.06841-13.8 2.06841-17 1.96841-20.3C1.86841-28.7 1.66841-36.8 3.16841-42.8C6.06841-53.7 14.3684-60.5 25.6684-61.3C27.3684-66.1 30.0684-71.7 32.1684-75.9C41.7684-95 49.5684-96.1 63.4684-96.4L65.3684-96.4C79.1684-96.8 105.168-96.8 118.968-96.4L120.868-96.4C134.768-96 142.568-95 152.168-75.9C154.368-71.5 157.068-66.1 158.668-61.3C169.968-60.5 178.268-53.8 181.168-42.8C182.768-36.8 182.568-28.9 182.368-20.3L182.368-20.3C182.368-17.1 182.268-13.8 182.268-10.8C182.168 4.7 181.968 10.1 179.368 13.4C175.568 18.2 166.068 18.9 135.168 18.6C131.568 18.6 127.968 18.6 124.768 18.6L59.1684 18.6C55.9684 18.6 52.2684 18.6 48.7684 18.6C45.3684 18.6 41.8684 18.6 38.6684 18.6ZM14.6684 7L14.6684 7L14.6684 7ZM170.168 7L170.168 7L170.168 7ZM59.6684 6.7L125.368 6.7C128.768 6.7 132.268 6.7 135.868 6.7C146.968 6.8 164.868 7 170.468 5.5C170.968 2.3 170.968-5 170.968-11.1C170.968-14.2 170.968-17.5 171.068-20.7C171.168-28.4 171.368-35.6 170.268-39.9C168.568-46.3 164.268-49.5 157.568-49.7C153.268-49.8 149.668-52.6 148.368-56.7C147.068-60.9 144.368-66.2 142.168-70.6C135.168-84.4 132.368-84.5 120.968-84.8L118.868-84.8C105.368-85.2 79.5684-85.2 66.0684-84.8L63.9684-84.8C52.3684-84.5 49.6684-84.4 42.7684-70.6C40.6684-66.6 37.8684-60.8 36.5684-56.7C35.2684-52.7 31.6684-49.8 27.3684-49.8C20.5684-49.7 16.2684-46.3 14.6684-40C13.4684-35.6 13.6684-28 13.7684-20.8C13.8684-17.6 13.8684-14.3 13.8684-11.2C13.8684-5.1 13.9684 2.2 14.3684 5.4C19.9684 6.8 37.8684 6.7 48.9684 6.6C52.7684 6.9 56.2684 6.7 59.6684 6.7ZM171.568 5.3L171.568 5.3L171.568 5.3ZM13.3684 5.3L13.3684 5.3ZM159.468-60.1L159.468-60.1L159.468-60.1ZM26.9684-61.4L26.9684-61.4L26.9684-61.4ZM157.768-61.4L157.768-61.4L157.768-61.4ZM159.068-30.7C155.968-30.8 140.968-29.5 134.868-28.9C133.168-28.8 128.468-27.2 128.468-27.2C128.468-27.2 137.668-38.9 141.768-41.1C144.668-42.7 151.268-43.3 154.468-43.4C155.868-43.4 158.768-43.8 160.168-43.4C160.868-43.1 162.268-42.5 162.768-42C163.768-40.8 164.668-38.6 164.968-37.3C165.868-32.9 165.868-28.5 165.568-23.1C165.268-19.1 164.168-10.6 163.068-7.1C162.968-6.6 162.168-5.5 161.668-5.3C160.768-4.8 160.268-5 159.568-5.6C159.168-6 158.368-6.5 158.568-7.2C158.968-11.1 160.368-18.9 160.468-23.3C160.468-25 160.868-28.5 160.368-29.8C160.368-30.2 159.568-30.6 159.068-30.7ZM162.468-55.8L165.968-61.4C165.968-61.4 165.368-66.2 166.068-67.5C166.468-68 167.868-68.7 168.568-68.7C171.568-68.8 177.968-68.2 180.168-66.2C180.668-65.7 181.468-64.8 181.468-63.6C181.568-62.4 180.568-59 179.368-58.7C176.868-57.9 166.668-56.5 166.668-56.5L162.468-55.8ZM182.368 3.9C182.368 3.9 182.468 18.5 180.768 22C180.368 22.8 178.968 23.2 178.068 23.2C172.468 23.2 164.168 23.2 155.268 23.2C154.268 23.2 154.368 13.6 154.368 13.6L175.268 10.5L182.368 3.9Z"/>
  </g>
  <g id="Medium-L" transform="matrix(1 0 0 1 1654.78 1556)">
   <path d="M24.9684-30.8C28.0684-30.9 43.0684-29.6 49.1684-29C50.8684-28.9 55.5684-27.3 55.5684-27.3C55.5684-27.3 46.3684-39 42.2684-41.2C39.3684-42.8 32.7684-43.4 29.5684-43.5C28.1684-43.5 25.2684-43.9 23.8684-43.5C23.2684-43.2 21.7684-42.6 21.2684-42.1C20.2684-40.9 19.3684-38.7 19.0684-37.4C18.1684-33 18.1684-28.6 18.4684-23.2C18.7684-19.2 19.8684-10.7 20.9684-7.2C21.0684-6.7 21.8684-5.6 22.3684-5.4C23.2684-4.9 23.7684-5.1 24.4684-5.7C24.8684-6.1 25.6684-6.6 25.4684-7.3C25.0684-11.2 23.6684-19 23.4684-23.4C23.4684-25.1 23.0684-28.6 23.5684-29.9C23.7684-30.3 24.4684-30.7 24.9684-30.8ZM17.2684-56.1C17.2684-56.1 6.96841-57.5 4.56841-58.3C3.36841-58.7 2.46841-62.1 2.46841-63.2C2.56841-64.4 3.26841-65.3 3.76841-65.8C6.06841-67.7 12.4684-68.4 15.3684-68.3C16.0684-68.3 17.4684-67.6 17.8684-67.1C18.6684-65.8 17.9684-61 17.9684-61L21.4684-55.4L17.2684-56.1ZM160.668 14.8L22.5684 14.8C22.5684 14.8 21.6684 4.3 22.9684 2.5C25.0684-0.5 32.7684-3.1 36.3684-3.5C48.1684-4.7 91.7684-4.7 91.7684-4.7C91.7684-4.7 135.368-4.8 147.168-3.5C150.768-3.1 158.468-0.5 160.568 2.5C161.768 4.3 160.668 14.8 160.668 14.8ZM10.1684 10.3L31.0684 13.4C31.0684 13.4 31.1684 23 30.1684 23C21.3684 23 12.9684 23 7.36841 23C6.46841 23 5.06841 22.6 4.66841 21.8C2.96841 18.3 3.06841 3.7 3.06841 3.7L10.1684 10.3ZM145.568 17.8C142.368 17.8 138.768 17.8 134.868 17.8C131.268 17.8 127.668 17.8 124.468 17.8L58.8684 17.8C55.6684 17.8 51.9684 17.8 48.4684 17.8C17.9684 18.1 8.46841 17.4 4.76841 12.9C2.46841 9.9 2.16841 4.6 2.06841-10.9C2.06841-13.9 2.06841-17.1 1.96841-20.4C1.86841-28.8 1.66841-36.8 3.16841-42.6C7.06841-57.8 19.5684-60.3 25.5684-60.7C27.2684-65.6 30.0684-71.4 32.1684-75.5C41.6684-94.2 49.1684-95.4 62.9684-95.7L64.9684-95.7C78.7684-96.1 104.768-96.1 118.568-95.7L120.468-95.7C134.168-95.3 141.768-94.3 151.268-75.5C153.568-71 156.368-65.5 157.868-60.7C163.868-60.4 176.168-57.8 180.268-42.6C181.868-36.8 181.568-28.8 181.468-20.2L181.468-20.2C181.468-17 181.368-13.7 181.368-10.7C181.268 4.8 180.968 10.1 178.668 13.1C175.468 16.9 167.868 17.8 145.568 17.8ZM58.8684 7.3L124.468 7.3C127.868 7.3 131.368 7.3 134.968 7.3C146.368 7.4 164.968 7.6 170.168 6C170.668 2.9 170.868-4.8 170.868-11.2C170.868-14.3 170.868-17.6 170.968-20.8L170.968-20.8C171.068-28.5 171.268-35.9 170.068-40.3C168.368-46.9 163.868-50.4 156.668-50.6C152.768-50.7 149.268-53.3 148.068-57.1C146.768-61.3 144.068-66.7 141.868-71C134.668-85.2 131.568-85.3 120.068-85.6L117.968-85.6C104.268-86 78.6684-86 65.0684-85.6L62.9684-85.6C51.3684-85.3 48.2684-85.2 41.2684-71.2C39.1684-67 36.3684-61.4 35.0684-57.2C33.8684-53.4 30.3684-50.8 26.4684-50.7C19.3684-50.6 14.8684-47.1 13.0684-40.4C11.8684-36 12.0684-28.3 12.1684-20.9C12.2684-17.7 12.2684-14.4 12.2684-11.3C12.2684-4.9 12.3684 2.9 12.9684 5.9C18.1684 7.5 36.7684 7.3 48.1684 7.2C51.9684 7.4 55.5684 7.3 58.8684 7.3ZM13.3684 7L13.3684 7L13.3684 7ZM12.2684 5.9L12.2684 5.9ZM158.068-60L158.068-60L158.068-60ZM158.368-30.8C155.268-30.9 140.268-29.6 134.168-29C132.468-28.9 127.768-27.3 127.768-27.3C127.768-27.3 136.968-39 141.068-41.2C143.968-42.8 150.568-43.4 153.768-43.5C155.168-43.5 158.068-43.9 159.468-43.5C160.168-43.2 161.568-42.6 162.068-42.1C163.068-40.9 164.068-38.7 164.268-37.4C165.168-33 165.168-28.6 164.968-23.2C164.668-19.2 163.568-10.7 162.468-7.2C162.368-6.7 161.568-5.6 161.068-5.4C160.168-4.9 159.668-5.1 158.968-5.7C158.568-6.1 157.768-6.6 157.968-7.3C158.368-11.2 159.768-19 159.868-23.4C159.868-25.1 160.268-28.6 159.768-29.9C159.668-30.3 158.868-30.7 158.368-30.8ZM161.768-55.5L165.268-61.1C165.268-61.1 164.568-65.9 165.368-67.2C165.768-67.7 167.168-68.4 167.868-68.4C170.868-68.5 177.268-67.9 179.468-65.9C179.968-65.4 180.768-64.5 180.768-63.3C180.868-62.1 179.868-58.7 178.668-58.4C176.168-57.6 165.968-56.2 165.968-56.2L161.768-55.5ZM180.368 3.8C180.368 3.8 180.468 18.4 178.768 21.9C178.368 22.7 176.968 23.1 176.068 23.1C170.468 23.1 162.168 23.1 153.268 23.1C152.268 23.1 152.368 13.5 152.368 13.5L173.268 10.4L180.368 3.8Z"/>
  </g>
  <g id="Regular-L" transform="matrix(1 0 0 1 1359.28 1556)">
   <path d="M23.7684-30.9C26.8684-31 41.8684-29.7 47.9684-29.1C49.6684-29 54.3684-27.4 54.3684-27.4C54.3684-27.4 45.1684-39.1 41.0684-41.3C38.1684-42.9 31.5684-43.5 28.3684-43.6C26.9684-43.6 24.0684-44 22.6684-43.6C21.9684-43.3 20.5684-42.7 20.0684-42.2C19.0684-41 18.0684-38.8 17.8684-37.5C16.9684-33.1 16.9684-28.7 17.1684-23.3C17.4684-19.3 18.5684-10.8 19.6684-7.3C19.7684-6.8 20.5684-5.7 21.0684-5.5C21.9684-5 22.4684-5.2 23.1684-5.8C23.5684-6.2 24.3684-6.7 24.1684-7.4C23.7684-11.3 22.3684-19.1 22.2684-23.5C22.2684-25.2 21.8684-28.7 22.3684-30C22.5684-30.4 23.2684-30.8 23.7684-30.9ZM17.3684-55C17.3684-55 7.06841-56.4 4.66841-57.2C3.46841-57.6 2.56841-61 2.56841-62.1C2.66841-63.3 3.36841-64.2 3.86841-64.7C6.16841-66.6 12.5684-67.3 15.4684-67.2C16.1684-67.2 17.5684-66.5 17.9684-66C18.7684-64.7 18.0684-59.9 18.0684-59.9L21.5684-54.3L17.3684-55ZM159.468 14.7L21.3684 14.7C21.3684 14.7 20.4684 4.2 21.7684 2.4C23.8684-0.6 31.5684-3.2 35.1684-3.6C46.9684-4.8 90.5684-4.8 90.5684-4.8C90.5684-4.8 134.068-4.9 145.968-3.6C149.568-3.2 157.268-0.6 159.368 2.4C160.568 4.2 159.468 14.7 159.468 14.7ZM10.2684 10.1L31.1684 13.2C31.1684 13.2 31.2684 22.8 30.2684 22.8C21.4684 22.8 13.0684 22.8 7.46841 22.8C6.56841 22.8 5.16841 22.4 4.76841 21.6C3.06841 18.1 3.16841 3.5 3.16841 3.5L10.2684 10.1ZM144.468 16.4C141.268 16.4 137.668 16.4 133.768 16.4C130.168 16.4 126.568 16.4 123.268 16.4L57.6684 16.4C54.4684 16.4 50.7684 16.4 47.1684 16.4C17.5684 16.7 7.76841 16.1 4.56841 12C2.46841 9.3 2.26841 4.2 2.06841-11C2.06841-14 2.06841-17.2 1.96841-20.5C1.86841-28.8 1.66841-36.7 3.16841-42.5C7.06841-57.6 19.7684-59.4 25.1684-59.5C25.2684-59.5 25.2684-59.6 25.2684-59.6C26.8684-64.5 29.8684-70.7 32.0684-74.9C41.1684-93.1 48.1684-94 61.6684-94.4L63.7684-94.4C77.5684-94.8 103.468-94.8 117.168-94.4L119.268-94.4C132.768-94 139.768-93.1 148.868-74.9C151.168-70.2 154.168-64.4 155.768-59.6C155.768-59.6 155.768-59.5 155.868-59.5C161.168-59.4 173.968-57.4 177.868-42.5C179.268-36.9 179.168-29 179.068-20.5L179.068-20.5C178.968-17.3 178.968-14 178.968-10.9C178.868 4.3 178.568 9.4 176.468 12.1C173.568 15.5 165.868 16.4 144.468 16.4ZM57.6684 8.4L123.168 8.4C126.368 8.4 130.068 8.4 133.668 8.4C145.768 8.5 165.768 8.7 170.068 6.8C170.668 4.2 170.868-4.4 170.868-11.3C170.868-14.4 170.868-17.7 170.968-20.9L170.968-20.9C171.068-28.7 171.268-36.1 170.068-40.7C167.768-49.8 160.868-51.9 155.468-51.9C152.068-52 149.068-54.2 148.068-57.5C146.768-61.8 143.868-67.3 141.668-71.7C134.168-86.5 130.568-86.7 118.768-86.9L116.668-86.9C102.968-87.3 77.2684-87.3 63.7684-86.9L61.6684-86.9C49.8684-86.6 46.1684-86.5 38.7684-71.7C36.6684-67.5 33.8684-61.8 32.3684-57.4C31.3684-54.2 28.3684-51.9 24.9684-51.8C19.6684-51.7 12.7684-49.6 10.3684-40.6C9.16841-35.9 9.36841-28.6 9.46841-20.8C9.56841-17.6 9.56841-14.3 9.56841-11.2C9.56841-4.2 9.66841 4.4 10.3684 7C14.6684 8.8 34.6684 8.7 46.7684 8.6C50.8684 8.6 54.4684 8.4 57.6684 8.4ZM170.068 7.4L170.068 7.4L170.068 7.4ZM10.3684 6.8L10.3684 6.8ZM170.568 6.8L170.568 6.8L170.568 6.8ZM157.168-30.9C154.068-31 139.068-29.7 132.968-29.1C131.268-29 126.568-27.4 126.568-27.4C126.568-27.4 135.768-39.1 139.868-41.3C142.768-42.9 149.368-43.5 152.568-43.6C153.968-43.6 156.868-44 158.268-43.6C158.968-43.3 160.368-42.7 160.868-42.2C161.868-41 162.768-38.8 163.068-37.5C163.968-33.1 163.968-28.7 163.768-23.3C163.468-19.3 162.368-10.8 161.268-7.3C161.168-6.8 160.368-5.7 159.868-5.5C158.968-5 158.468-5.2 157.768-5.8C157.368-6.2 156.568-6.7 156.768-7.4C157.168-11.3 158.568-19.1 158.768-23.5C158.768-25.2 159.168-28.7 158.668-30C158.468-30.4 157.668-30.8 157.168-30.9ZM159.268-54.3L162.768-59.9C162.768-59.9 162.068-64.7 162.868-66C163.268-66.5 164.668-67.2 165.368-67.2C168.368-67.3 174.768-66.7 176.968-64.7C177.468-64.2 178.268-63.3 178.268-62.1C178.368-60.9 177.368-57.5 176.168-57.2C173.668-56.4 163.468-55 163.468-55L159.268-54.3ZM177.868 3.6C177.868 3.6 177.968 18.2 176.268 21.7C175.868 22.5 174.468 22.9 173.568 22.9C167.968 22.9 159.668 22.9 150.768 22.9C149.768 22.9 149.868 13.3 149.868 13.3L170.768 10.2L177.868 3.6Z"/>
  </g>
  <g id="Semibold-M" transform="matrix(1 0 0 1 1971.83 1126)">
   <path d="M20.1577-31.075C22.5577-31.175 34.0577-30.175 38.7577-29.675C40.0577-29.575 43.6577-28.375 43.6577-28.375C43.6577-28.375 36.5577-37.375 33.4577-39.075C31.2577-40.275 26.1577-40.775 23.6577-40.875C22.5577-40.875 20.3577-41.175 19.2577-40.875C18.7577-40.675 17.6577-40.175 17.2577-39.775C16.4577-38.875 15.7577-37.175 15.5577-36.175C14.8577-32.775 14.8577-29.375 15.0577-25.275C15.2577-22.175 16.1577-15.675 16.9577-12.975C17.0577-12.575 17.6577-11.775 18.0577-11.575C18.7577-11.175 19.1577-11.375 19.6577-11.775C19.9577-12.075 20.5577-12.475 20.4577-12.975C20.1577-15.975 19.0577-21.975 18.9577-25.375C18.9577-26.675 18.6577-29.375 19.0577-30.375C19.2577-30.675 19.7577-30.975 20.1577-31.075ZM14.2577-50.875C14.2577-50.875 6.35774-51.975 4.45774-52.575C3.55774-52.875 2.85774-55.475 2.85774-56.375C2.95774-57.275 3.45774-57.975 3.85774-58.375C5.65774-59.875 10.5577-60.375 12.7577-60.275C13.2577-60.275 14.3577-59.775 14.6577-59.375C15.2577-58.375 14.7577-54.675 14.7577-54.675L17.4577-50.375L14.2577-50.875ZM124.558 4.025L18.3577 4.025C18.3577 4.025 17.6577-4.075 18.6577-5.475C20.2577-7.775 26.1577-9.775 28.9577-10.075C38.0577-10.975 71.5577-10.975 71.5577-10.975C71.5577-10.975 105.058-11.075 114.158-10.075C116.958-9.775 122.858-7.775 124.458-5.475C125.258-4.075 124.558 4.025 124.558 4.025ZM7.75774 0.525L23.8577 2.925C23.8577 2.925 23.9577 10.325 23.1577 10.325C16.3577 10.325 9.95774 10.325 5.65774 10.325C4.95774 10.325 3.85774 10.025 3.55774 9.425C2.25774 6.725 2.35774-4.475 2.35774-4.475L7.75774 0.525ZM30.1577 6.825C12.7577 6.825 6.75774 6.025 4.25774 2.825C2.25774 0.325 2.15774-3.975 2.05774-15.775C2.05774-18.075 2.05774-20.575 1.95774-23.075C1.85774-29.575 1.75774-35.775 2.85774-40.375C5.05774-48.775 11.4577-53.975 20.1577-54.575C21.4577-58.275 23.5577-62.575 25.1577-65.775C32.5577-80.475 38.5577-81.275 49.2577-81.575L50.7577-81.575C61.3577-81.875 81.3577-81.875 91.9577-81.575L93.4577-81.575C104.158-81.275 110.158-80.475 117.558-65.775C119.258-62.375 121.358-58.275 122.558-54.575C131.258-53.975 137.658-48.775 139.858-40.375C141.058-35.775 140.958-29.675 140.758-23.075L140.758-23.075C140.758-20.575 140.658-18.075 140.658-15.775C140.558-3.875 140.458 0.325 138.458 2.825C135.558 6.525 128.258 7.025 104.458 6.825C101.658 6.825 98.9577 6.825 96.4577 6.825L45.9577 6.825C43.4577 6.825 40.6577 6.825 37.9577 6.825C35.2577 6.825 32.5577 6.825 30.1577 6.825ZM11.6577-2.075L11.6577-2.075L11.6577-2.075ZM131.258-2.075L131.258-2.075L131.258-2.075ZM46.2577-2.275L96.7577-2.275C99.3577-2.275 102.058-2.275 104.858-2.275C113.358-2.175 127.158-2.075 131.458-3.175C131.858-5.675 131.858-11.275 131.858-15.975C131.858-18.375 131.858-20.875 131.958-23.375C132.058-29.275 132.158-34.875 131.358-38.175C130.058-43.075 126.758-45.575 121.558-45.675C118.258-45.775 115.458-47.875 114.458-51.075C113.458-54.275 111.358-58.375 109.658-61.775C104.258-72.375 102.158-72.475 93.3577-72.675L91.7577-72.675C81.3577-72.975 61.5577-72.975 51.1577-72.675L49.5577-72.675C40.6577-72.475 38.5577-72.375 33.2577-61.775C31.6577-58.675 29.4577-54.275 28.4577-51.075C27.4577-47.975 24.6577-45.775 21.3577-45.775C16.1577-45.675 12.8577-43.075 11.5577-38.275C10.6577-34.875 10.7577-29.075 10.8577-23.475C10.9577-20.975 10.9577-18.475 10.9577-16.075C10.9577-11.375 11.0577-5.775 11.3577-3.275C15.6577-2.175 29.4577-2.275 37.9577-2.375C40.9577-2.175 43.6577-2.275 46.2577-2.275ZM132.358-3.375L132.358-3.375L132.358-3.375ZM10.6577-3.375L10.6577-3.375ZM123.058-53.675L123.058-53.675L123.058-53.675ZM21.1577-54.675L21.1577-54.675L21.1577-54.675ZM121.758-54.675L121.758-54.675L121.758-54.675ZM122.758-31.075C120.358-31.175 108.858-30.175 104.158-29.675C102.858-29.575 99.2577-28.375 99.2577-28.375C99.2577-28.375 106.358-37.375 109.458-39.075C111.658-40.275 116.758-40.775 119.258-40.875C120.358-40.875 122.558-41.175 123.658-40.875C124.158-40.675 125.258-40.175 125.658-39.775C126.458-38.875 127.158-37.175 127.358-36.175C128.058-32.775 128.058-29.375 127.858-25.275C127.658-22.175 126.758-15.675 125.958-12.975C125.858-12.575 125.258-11.775 124.858-11.575C124.158-11.175 123.758-11.375 123.258-11.775C122.958-12.075 122.358-12.475 122.458-12.975C122.758-15.975 123.858-21.975 123.958-25.375C123.958-26.675 124.258-29.375 123.858-30.375C123.758-30.675 123.158-30.975 122.758-31.075ZM125.358-50.375L128.058-54.675C128.058-54.675 127.558-58.375 128.158-59.375C128.458-59.775 129.558-60.275 130.058-60.275C132.358-60.375 137.258-59.875 138.958-58.375C139.358-57.975 139.958-57.275 139.958-56.375C140.058-55.475 139.258-52.875 138.358-52.575C136.458-51.975 128.558-50.875 128.558-50.875L125.358-50.375ZM140.658-4.475C140.658-4.475 140.758 6.725 139.458 9.425C139.158 10.025 138.058 10.325 137.358 10.325C133.058 10.325 126.658 10.325 119.858 10.325C119.058 10.325 119.158 2.925 119.158 2.925L135.258 0.525L140.658-4.475Z"/>
  </g>
  <g id="Medium-M" transform="matrix(1 0 0 1 1675.54 1126)">
   <path d="M19.6577-31.075C22.0577-31.175 33.5577-30.175 38.2577-29.675C39.5577-29.575 43.1577-28.375 43.1577-28.375C43.1577-28.375 36.0577-37.375 32.9577-39.075C30.7577-40.275 25.6577-40.775 23.1577-40.875C22.0577-40.875 19.8577-41.175 18.7577-40.875C18.2577-40.675 17.1577-40.175 16.7577-39.775C15.9577-38.875 15.2577-37.175 15.0577-36.175C14.3577-32.775 14.3577-29.375 14.5577-25.275C14.7577-22.175 15.6577-15.675 16.4577-12.975C16.5577-12.575 17.1577-11.775 17.5577-11.575C18.2577-11.175 18.6577-11.375 19.1577-11.775C19.4577-12.075 20.0577-12.475 19.9577-12.975C19.6577-15.975 18.5577-21.975 18.4577-25.375C18.4577-26.675 18.1577-29.375 18.5577-30.375C18.7577-30.675 19.2577-30.975 19.6577-31.075ZM13.7577-50.575C13.7577-50.575 5.85774-51.675 3.95774-52.275C3.05774-52.575 2.35774-55.175 2.35774-56.075C2.45774-56.975 2.95774-57.675 3.35774-58.075C5.15774-59.575 10.0577-60.075 12.2577-59.975C12.7577-59.975 13.8577-59.475 14.1577-59.075C14.7577-58.075 14.2577-54.375 14.2577-54.375L16.9577-50.075L13.7577-50.575ZM124.058 4.025L17.8577 4.025C17.8577 4.025 17.1577-4.075 18.1577-5.475C19.7577-7.775 25.6577-9.775 28.4577-10.075C37.5577-10.975 71.0577-10.975 71.0577-10.975C71.0577-10.975 104.558-11.075 113.658-10.075C116.458-9.775 122.358-7.775 123.958-5.475C124.858-4.075 124.058 4.025 124.058 4.025ZM8.25774 0.525L24.3577 2.925C24.3577 2.925 24.4577 10.325 23.6577 10.325C16.8577 10.325 10.4577 10.325 6.15774 10.325C5.45774 10.325 4.35774 10.025 4.05774 9.425C2.75774 6.725 2.85774-4.475 2.85774-4.475L8.25774 0.525ZM112.458 6.325C109.958 6.325 107.258 6.325 104.258 6.325C101.458 6.325 98.7577 6.325 96.2577 6.325L45.7577 6.325C43.2577 6.325 40.4577 6.325 37.7577 6.325C14.2577 6.525 6.95774 6.025 4.15774 2.525C2.35774 0.225 2.15774-3.875 2.05774-15.775C2.05774-18.075 2.05774-20.575 1.95774-23.075C1.85774-29.575 1.75774-35.675 2.85774-40.175C5.85774-51.875 15.4577-53.775 20.0577-54.075C21.3577-57.875 23.5577-62.275 25.1577-65.475C32.4577-79.875 38.2577-80.775 48.8577-80.975L50.3577-80.975C60.9577-81.275 80.9577-81.275 91.5577-80.975L93.0577-80.975C103.558-80.675 109.458-79.875 116.758-65.475C118.558-61.975 120.658-57.775 121.858-54.075C126.458-53.875 135.958-51.875 139.058-40.175C140.258-35.675 140.058-29.575 139.958-22.975L139.958-22.975C139.958-20.475 139.858-17.975 139.858-15.675C139.758-3.775 139.558 0.325 137.758 2.625C135.458 5.625 129.558 6.325 112.458 6.325ZM45.7577-1.775L96.2577-1.775C98.8577-1.775 101.558-1.775 104.358-1.775C113.158-1.675 127.458-1.575 131.458-2.775C131.858-5.175 131.958-11.075 131.958-15.975C131.958-18.375 131.958-20.875 132.058-23.375L132.058-23.375C132.158-29.275 132.258-34.975 131.358-38.375C130.058-43.475 126.558-46.175 121.058-46.275C118.058-46.375 115.358-48.375 114.458-51.275C113.458-54.475 111.358-58.675 109.658-61.975C104.158-72.875 101.758-72.975 92.8577-73.175L91.2577-73.175C80.7577-73.475 61.0577-73.475 50.5577-73.175L48.9577-73.175C40.0577-72.975 37.6577-72.875 32.2577-62.075C30.6577-58.875 28.4577-54.575 27.4577-51.275C26.5577-48.375 23.8577-46.375 20.8577-46.275C15.3577-46.175 11.9577-43.475 10.5577-38.375C9.65774-34.975 9.75774-29.075 9.85774-23.375C9.95774-20.875 9.95774-18.375 9.95774-15.975C9.95774-11.075 10.0577-5.075 10.4577-2.775C14.4577-1.575 28.7577-1.675 37.5577-1.775C40.4577-1.675 43.1577-1.775 45.7577-1.775ZM10.7577-1.975L10.7577-1.975L10.7577-1.975ZM9.85774-2.875L9.85774-2.875ZM122.058-53.575L122.058-53.575L122.058-53.575ZM122.258-31.075C119.858-31.175 108.358-30.175 103.658-29.675C102.358-29.575 98.7577-28.375 98.7577-28.375C98.7577-28.375 105.858-37.375 108.958-39.075C111.158-40.275 116.258-40.775 118.758-40.875C119.858-40.875 122.058-41.175 123.158-40.875C123.658-40.675 124.758-40.175 125.158-39.775C125.958-38.875 126.658-37.175 126.858-36.175C127.558-32.775 127.558-29.375 127.358-25.275C127.158-22.175 126.258-15.675 125.458-12.975C125.358-12.575 124.758-11.775 124.358-11.575C123.658-11.175 123.258-11.375 122.758-11.775C122.458-12.075 121.858-12.475 121.958-12.975C122.258-15.975 123.358-21.975 123.458-25.375C123.458-26.675 123.758-29.375 123.358-30.375C123.258-30.675 122.658-30.975 122.258-31.075ZM124.858-50.075L127.558-54.375C127.558-54.375 127.058-58.075 127.658-59.075C127.958-59.475 129.058-59.975 129.558-59.975C131.858-60.075 136.758-59.575 138.458-58.075C138.858-57.675 139.458-56.975 139.458-56.075C139.558-55.175 138.758-52.575 137.858-52.275C135.958-51.675 128.058-50.575 128.058-50.575L124.858-50.075ZM139.158-4.475C139.158-4.475 139.258 6.725 137.958 9.425C137.658 10.025 136.558 10.325 135.858 10.325C131.558 10.325 125.158 10.325 118.358 10.325C117.558 10.325 117.658 2.925 117.658 2.925L133.758 0.525L139.158-4.475Z"/>
  </g>
  <g id="Regular-M" transform="matrix(1 0 0 1 1379.74 1126)">
   <path d="M18.7577-31.075C21.1577-31.175 32.6577-30.175 37.3577-29.675C38.6577-29.575 42.2577-28.375 42.2577-28.375C42.2577-28.375 35.1577-37.375 32.0577-39.075C29.8577-40.275 24.7577-40.775 22.2577-40.875C21.1577-40.875 18.9577-41.175 17.8577-40.875C17.3577-40.675 16.2577-40.175 15.8577-39.775C15.0577-38.875 14.3577-37.175 14.1577-36.175C13.4577-32.775 13.4577-29.375 13.6577-25.275C13.8577-22.175 14.7577-15.675 15.5577-12.975C15.6577-12.575 16.2577-11.775 16.6577-11.575C17.3577-11.175 17.7577-11.375 18.2577-11.775C18.5577-12.075 19.1577-12.475 19.0577-12.975C18.7577-15.975 17.6577-21.975 17.5577-25.375C17.5577-26.675 17.2577-29.375 17.6577-30.375C17.8577-30.675 18.3577-30.975 18.7577-31.075ZM13.8577-49.575C13.8577-49.575 5.95774-50.675 4.05774-51.275C3.15774-51.575 2.45774-54.175 2.45774-55.075C2.55774-55.975 3.05774-56.675 3.45774-57.075C5.25774-58.575 10.1577-59.075 12.3577-58.975C12.8577-58.975 13.9577-58.475 14.2577-58.075C14.8577-57.075 14.3577-53.375 14.3577-53.375L17.0577-49.075L13.8577-49.575ZM123.158 4.025L16.9577 4.025C16.9577 4.025 16.2577-4.075 17.2577-5.475C18.8577-7.775 24.7577-9.775 27.5577-10.075C36.6577-10.975 70.1577-10.975 70.1577-10.975C70.1577-10.975 103.658-11.075 112.758-10.075C115.558-9.775 121.458-7.775 123.058-5.475C123.958-4.075 123.158 4.025 123.158 4.025ZM8.35774 0.525L24.4577 2.925C24.4577 2.925 24.5577 10.325 23.7577 10.325C16.9577 10.325 10.5577 10.325 6.25774 10.325C5.55774 10.325 4.45774 10.025 4.15774 9.425C2.85774 6.725 2.95774-4.475 2.95774-4.475L8.35774 0.525ZM111.558 5.325C109.058 5.325 106.358 5.325 103.358 5.325C100.558 5.325 97.8577 5.325 95.2577 5.325L44.8577 5.325C42.3577 5.325 39.5577 5.325 36.7577 5.325C13.9577 5.525 6.45774 5.125 3.95774 1.925C2.35774-0.175 2.15774-4.075 2.05774-15.775C2.05774-18.075 2.05774-20.575 1.95774-23.075C1.85774-29.475 1.75774-35.575 2.85774-39.975C5.85774-51.575 15.6577-52.975 19.7577-53.075C19.8577-53.075 19.8577-53.175 19.8577-53.175C21.0577-56.975 23.3577-61.675 25.0577-64.975C32.0577-78.975 37.4577-79.675 47.8577-79.975L49.4577-79.975C60.0577-80.275 79.9577-80.275 90.5577-79.975L92.1577-79.975C102.558-79.675 107.958-78.975 114.958-64.975C116.758-61.375 119.058-56.875 120.258-53.175C120.258-53.175 120.258-53.075 120.358-53.075C124.458-52.975 134.258-51.475 137.258-39.975C138.358-35.675 138.258-29.575 138.158-23.075L138.158-23.075C138.058-20.575 138.058-18.075 138.058-15.675C137.958-3.975 137.758-0.075 136.158 2.025C133.958 4.625 128.058 5.325 111.558 5.325ZM44.8577-0.775L95.2577-0.775C97.7577-0.775 100.558-0.775 103.358-0.775C112.658-0.675 128.058-0.575 131.358-1.975C131.858-3.975 131.958-10.575 131.958-15.875C131.958-18.275 131.958-20.775 132.058-23.275L132.058-23.275C132.158-29.275 132.258-34.975 131.358-38.475C129.558-45.475 124.258-47.075 120.158-47.075C117.558-47.175 115.258-48.875 114.458-51.375C113.458-54.675 111.258-58.875 109.558-62.275C103.758-73.675 101.058-73.775 91.9577-73.975L90.3577-73.975C79.8577-74.275 60.0577-74.275 49.6577-73.975L48.0577-73.975C38.9577-73.775 36.1577-73.675 30.4577-62.275C28.8577-59.075 26.6577-54.675 25.5577-51.275C24.7577-48.775 22.4577-47.075 19.8577-46.975C15.7577-46.875 10.4577-45.275 8.65774-38.375C7.75774-34.775 7.85774-29.175 7.95774-23.175C8.05774-20.675 8.05774-18.175 8.05774-15.775C8.05774-10.375 8.15774-3.775 8.65774-1.775C11.9577-0.375 27.3577-0.475 36.6577-0.575C39.5577-0.675 42.3577-0.775 44.8577-0.775ZM131.258-1.575L131.258-1.575L131.258-1.575ZM8.45774-2.075L8.45774-2.075ZM131.658-2.075L131.658-2.075L131.658-2.075ZM121.358-31.075C118.958-31.175 107.458-30.175 102.758-29.675C101.458-29.575 97.8577-28.375 97.8577-28.375C97.8577-28.375 104.958-37.375 108.058-39.075C110.258-40.275 115.358-40.775 117.858-40.875C118.958-40.875 121.158-41.175 122.258-40.875C122.758-40.675 123.858-40.175 124.258-39.775C125.058-38.875 125.758-37.175 125.958-36.175C126.658-32.775 126.658-29.375 126.458-25.275C126.258-22.175 125.358-15.675 124.558-12.975C124.458-12.575 123.858-11.775 123.458-11.575C122.758-11.175 122.358-11.375 121.858-11.775C121.558-12.075 120.958-12.475 121.058-12.975C121.358-15.975 122.458-21.975 122.558-25.375C122.558-26.675 122.858-29.375 122.458-30.375C122.358-30.675 121.758-30.975 121.358-31.075ZM122.958-49.075L125.658-53.375C125.658-53.375 125.158-57.075 125.758-58.075C126.058-58.475 127.158-58.975 127.658-58.975C129.958-59.075 134.858-58.575 136.558-57.075C136.958-56.675 137.558-55.975 137.558-55.075C137.658-54.175 136.858-51.575 135.958-51.275C134.058-50.675 126.158-49.575 126.158-49.575L122.958-49.075ZM137.258-4.475C137.258-4.475 137.358 6.725 136.058 9.425C135.758 10.025 134.658 10.325 133.958 10.325C129.658 10.325 123.258 10.325 116.458 10.325C115.658 10.325 115.758 2.925 115.758 2.925L131.858 0.525L137.258-4.475Z"/>
  </g>
 </g>
</svg>
