<?xml version="1.0" encoding="UTF-8"?>
<!--Generator: Apple Native CoreSVG 175.5-->
<!DOCTYPE svg
PUBLIC "-//W3C//DTD SVG 1.1//EN"
       "http://www.w3.org/Graphics/SVG/1.1/DTD/svg11.dtd">
<svg version="1.1" xmlns="http://www.w3.org/2000/svg" xmlns:xlink="http://www.w3.org/1999/xlink" width="3300" height="2200">
 <!--glyph: "uni10085E.medium", point size: 100.0, font version: "18.0d11e1", template writer version: "90"-->
 <g id="Notes">
  <rect height="2200" id="artboard" style="fill:white;opacity:1" width="3300" x="0" y="0"/>
  <line style="fill:none;stroke:black;opacity:1;stroke-width:0.5;" x1="263" x2="3036" y1="292" y2="292"/>
  <text style="stroke:none;fill:black;font-family:sans-serif;font-size:13;font-weight:bold;" transform="matrix(1 0 0 1 263 322)">Weight/Scale Variations</text>
  <text style="stroke:none;fill:black;font-family:sans-serif;font-size:13;text-anchor:middle;" transform="matrix(1 0 0 1 559.711 322)">Ultralight</text>
  <text style="stroke:none;fill:black;font-family:sans-serif;font-size:13;text-anchor:middle;" transform="matrix(1 0 0 1 856.422 322)">Thin</text>
  <text style="stroke:none;fill:black;font-family:sans-serif;font-size:13;text-anchor:middle;" transform="matrix(1 0 0 1 1153.13 322)">Light</text>
  <text style="stroke:none;fill:black;font-family:sans-serif;font-size:13;text-anchor:middle;" transform="matrix(1 0 0 1 1449.84 322)">Regular</text>
  <text style="stroke:none;fill:black;font-family:sans-serif;font-size:13;text-anchor:middle;" transform="matrix(1 0 0 1 1746.56 322)">Medium</text>
  <text style="stroke:none;fill:black;font-family:sans-serif;font-size:13;text-anchor:middle;" transform="matrix(1 0 0 1 2043.27 322)">Semibold</text>
  <text style="stroke:none;fill:black;font-family:sans-serif;font-size:13;text-anchor:middle;" transform="matrix(1 0 0 1 2339.98 322)">Bold</text>
  <text style="stroke:none;fill:black;font-family:sans-serif;font-size:13;text-anchor:middle;" transform="matrix(1 0 0 1 2636.69 322)">Heavy</text>
  <text style="stroke:none;fill:black;font-family:sans-serif;font-size:13;text-anchor:middle;" transform="matrix(1 0 0 1 2933.4 322)">Black</text>
  <line style="fill:none;stroke:black;opacity:1;stroke-width:0.5;" x1="263" x2="3036" y1="1903" y2="1903"/>
  <g transform="matrix(1 0 0 1 263 1933)">
   <path d="M9.24805 0.830078C13.5547 0.830078 17.1387-2.74414 17.1387-7.05078C17.1387-11.3574 13.5449-14.9316 9.23828-14.9316C4.94141-14.9316 1.36719-11.3574 1.36719-7.05078C1.36719-2.74414 4.95117 0.830078 9.24805 0.830078ZM9.24805-0.654297C5.70312-0.654297 2.87109-3.49609 2.87109-7.05078C2.87109-10.6055 5.69336-13.4473 9.23828-13.4473C12.793-13.4473 15.6445-10.6055 15.6445-7.05078C15.6445-3.49609 12.8027-0.654297 9.24805-0.654297ZM5.6543-7.05078C5.6543-6.62109 5.95703-6.32812 6.40625-6.32812L8.50586-6.32812L8.50586-4.20898C8.50586-3.76953 8.79883-3.4668 9.22852-3.4668C9.67773-3.4668 9.9707-3.76953 9.9707-4.20898L9.9707-6.32812L12.0898-6.32812C12.5293-6.32812 12.832-6.62109 12.832-7.05078C12.832-7.49023 12.5293-7.79297 12.0898-7.79297L9.9707-7.79297L9.9707-9.90234C9.9707-10.3516 9.67773-10.6543 9.22852-10.6543C8.79883-10.6543 8.50586-10.3516 8.50586-9.90234L8.50586-7.79297L6.40625-7.79297C5.95703-7.79297 5.6543-7.49023 5.6543-7.05078Z"/>
  </g>
  <g transform="matrix(1 0 0 1 281.867 1933)">
   <path d="M11.709 2.91016C17.1582 2.91016 21.6699-1.61133 21.6699-7.05078C21.6699-12.5 17.1484-17.0117 11.6992-17.0117C6.25977-17.0117 1.74805-12.5 1.74805-7.05078C1.74805-1.61133 6.26953 2.91016 11.709 2.91016ZM11.709 1.25C7.09961 1.25 3.41797-2.44141 3.41797-7.05078C3.41797-11.6602 7.08984-15.3516 11.6992-15.3516C16.3086-15.3516 20.0098-11.6602 20.0098-7.05078C20.0098-2.44141 16.3184 1.25 11.709 1.25ZM7.17773-7.05078C7.17773-6.57227 7.50977-6.25 8.00781-6.25L10.8789-6.25L10.8789-3.36914C10.8789-2.88086 11.2109-2.53906 11.6895-2.53906C12.1777-2.53906 12.5195-2.87109 12.5195-3.36914L12.5195-6.25L15.4004-6.25C15.8887-6.25 16.2305-6.57227 16.2305-7.05078C16.2305-7.53906 15.8887-7.88086 15.4004-7.88086L12.5195-7.88086L12.5195-10.752C12.5195-11.25 12.1777-11.5918 11.6895-11.5918C11.2109-11.5918 10.8789-11.25 10.8789-10.752L10.8789-7.88086L8.00781-7.88086C7.50977-7.88086 7.17773-7.53906 7.17773-7.05078Z"/>
  </g>
  <g transform="matrix(1 0 0 1 305.646 1933)">
   <path d="M14.9707 5.66406C21.9336 5.66406 27.6953-0.0976562 27.6953-7.05078C27.6953-14.0137 21.9238-19.7754 14.9609-19.7754C8.00781-19.7754 2.25586-14.0137 2.25586-7.05078C2.25586-0.0976562 8.01758 5.66406 14.9707 5.66406ZM14.9707 3.84766C8.93555 3.84766 4.08203-1.01562 4.08203-7.05078C4.08203-13.0957 8.92578-17.9492 14.9609-17.9492C21.0059-17.9492 25.8691-13.0957 25.8691-7.05078C25.8691-1.01562 21.0156 3.84766 14.9707 3.84766ZM9.19922-7.05078C9.19922-6.5332 9.57031-6.17188 10.1172-6.17188L14.0625-6.17188L14.0625-2.2168C14.0625-1.67969 14.4336-1.29883 14.9512-1.29883C15.4883-1.29883 15.8594-1.66992 15.8594-2.2168L15.8594-6.17188L19.8145-6.17188C20.3516-6.17188 20.7324-6.5332 20.7324-7.05078C20.7324-7.59766 20.3613-7.96875 19.8145-7.96875L15.8594-7.96875L15.8594-11.9141C15.8594-12.4609 15.4883-12.8418 14.9512-12.8418C14.4336-12.8418 14.0625-12.4609 14.0625-11.9141L14.0625-7.96875L10.1172-7.96875C9.57031-7.96875 9.19922-7.59766 9.19922-7.05078Z"/>
  </g>
  <text style="stroke:none;fill:black;font-family:sans-serif;font-size:13;font-weight:bold;" transform="matrix(1 0 0 1 263 1953)">Design Variations</text>
  <text style="stroke:none;fill:black;font-family:sans-serif;font-size:13;" transform="matrix(1 0 0 1 263 1971)">Symbols are supported in up to nine weights and three scales.</text>
  <text style="stroke:none;fill:black;font-family:sans-serif;font-size:13;" transform="matrix(1 0 0 1 263 1989)">For optimal layout with text and other symbols, vertically align</text>
  <text style="stroke:none;fill:black;font-family:sans-serif;font-size:13;" transform="matrix(1 0 0 1 263 2007)">symbols with the adjacent text.</text>
  <line style="fill:none;stroke:#00AEEF;stroke-width:0.5;opacity:1.0;" x1="776" x2="776" y1="1919" y2="1933"/>
  <g transform="matrix(1 0 0 1 776 1933)">
   <path d="M3.31055 0.15625C3.82812 0.15625 4.08203-0.0390625 4.26758-0.585938L5.52734-4.0332L11.2891-4.0332L12.5488-0.585938C12.7344-0.0390625 12.9883 0.15625 13.4961 0.15625C14.0137 0.15625 14.3457-0.15625 14.3457-0.644531C14.3457-0.810547 14.3164-0.966797 14.2383-1.17188L9.6582-13.3691C9.43359-13.9648 9.0332-14.2676 8.4082-14.2676C7.80273-14.2676 7.39258-13.9746 7.17773-13.3789L2.59766-1.16211C2.51953-0.957031 2.49023-0.800781 2.49023-0.634766C2.49023-0.146484 2.80273 0.15625 3.31055 0.15625ZM6.00586-5.51758L8.37891-12.0898L8.42773-12.0898L10.8008-5.51758Z"/>
  </g>
  <line style="fill:none;stroke:#00AEEF;stroke-width:0.5;opacity:1.0;" x1="793.197" x2="793.197" y1="1919" y2="1933"/>
  <text style="stroke:none;fill:black;font-family:sans-serif;font-size:13;font-weight:bold;" transform="matrix(1 0 0 1 776 1953)">Margins</text>
  <text style="stroke:none;fill:black;font-family:sans-serif;font-size:13;" transform="matrix(1 0 0 1 776 1971)">Leading and trailing margins on the left and right side of each symbol</text>
  <text style="stroke:none;fill:black;font-family:sans-serif;font-size:13;" transform="matrix(1 0 0 1 776 1989)">can be adjusted by modifying the x-location of the margin guidelines.</text>
  <text style="stroke:none;fill:black;font-family:sans-serif;font-size:13;" transform="matrix(1 0 0 1 776 2007)">Modifications are automatically applied proportionally to all</text>
  <text style="stroke:none;fill:black;font-family:sans-serif;font-size:13;" transform="matrix(1 0 0 1 776 2025)">scales and weights.</text>
  <g transform="matrix(1 0 0 1 1289 1933)">
   <path d="M2.8418 1.86523L4.54102 3.57422C5.40039 4.44336 6.38672 4.38477 7.31445 3.35938L18.0078-8.42773L17.041-9.4043L6.42578 2.27539C6.07422 2.67578 5.74219 2.77344 5.27344 2.30469L4.10156 1.14258C3.63281 0.683594 3.74023 0.341797 4.14062-0.0195312L15.6152-10.8203L14.6387-11.7871L3.04688-0.898438C2.06055 0.0195312 1.98242 0.996094 2.8418 1.86523ZM9.25781-16.3281C8.83789-15.918 8.80859-15.3418 9.04297-14.9512C9.27734-14.5898 9.73633-14.3555 10.3809-14.5215C11.8457-14.8633 13.3691-14.9219 14.7949-13.9844L14.209-12.5293C13.8672-11.6992 14.043-11.1133 14.5801-10.5664L16.875-8.25195C17.3633-7.76367 17.7734-7.74414 18.3398-7.8418L19.4043-8.03711L20.0684-7.36328L20.0293-6.80664C19.9902-6.30859 20.1172-5.92773 20.6055-5.44922L21.3672-4.70703C21.8457-4.22852 22.4609-4.19922 22.9297-4.66797L25.8398-7.58789C26.3086-8.05664 26.2891-8.65234 25.8105-9.13086L25.0391-9.89258C24.5605-10.3711 24.1895-10.5273 23.7109-10.4883L23.1348-10.4395L22.4902-11.0742L22.7344-12.1973C22.8613-12.7637 22.7051-13.2031 22.1191-13.7891L19.9219-15.9766C16.582-19.2969 12.1484-19.2188 9.25781-16.3281ZM10.752-15.957C13.1836-17.7344 16.4746-17.4316 18.7012-15.2051L21.1328-12.793C21.3672-12.5586 21.4062-12.373 21.3379-12.0312L21.0156-10.5469L22.5195-9.0625L23.5059-9.12109C23.7598-9.13086 23.8379-9.11133 24.0332-8.91602L24.6094-8.33984L22.168-5.89844L21.5918-6.47461C21.3965-6.66992 21.3672-6.74805 21.377-7.01172L21.4453-7.98828L19.9512-9.47266L18.4277-9.21875C18.1055-9.15039 17.959-9.17969 17.7148-9.41406L15.7129-11.416C15.459-11.6504 15.4297-11.8164 15.5859-12.1875L16.4648-14.2773C14.9023-15.7324 12.8711-16.3574 10.8398-15.7617C10.6836-15.7227 10.625-15.8496 10.752-15.957Z"/>
  </g>
  <text style="stroke:none;fill:black;font-family:sans-serif;font-size:13;font-weight:bold;" transform="matrix(1 0 0 1 1289 1953)">Exporting</text>
  <text style="stroke:none;fill:black;font-family:sans-serif;font-size:13;" transform="matrix(1 0 0 1 1289 1971)">Symbols should be outlined when exporting to ensure the</text>
  <text style="stroke:none;fill:black;font-family:sans-serif;font-size:13;" transform="matrix(1 0 0 1 1289 1989)">design is preserved when submitting to Xcode.</text>
  <text id="template-version" style="stroke:none;fill:black;font-family:sans-serif;font-size:13;text-anchor:end;" transform="matrix(1 0 0 1 3036 1933)">Template v.4.0</text>
  <text style="stroke:none;fill:black;font-family:sans-serif;font-size:13;text-anchor:end;" transform="matrix(1 0 0 1 3036 1951)">Requires Xcode 14 or greater</text>
  <text id="descriptive-name" style="stroke:none;fill:black;font-family:sans-serif;font-size:13;text-anchor:end;" transform="matrix(1 0 0 1 3036 1969)">Generated from bolt.car</text>
  <text style="stroke:none;fill:black;font-family:sans-serif;font-size:13;text-anchor:end;" transform="matrix(1 0 0 1 3036 1987)">Typeset at 100 points</text>
  <text style="stroke:none;fill:black;font-family:sans-serif;font-size:13;" transform="matrix(1 0 0 1 263 726)">Small</text>
  <text style="stroke:none;fill:black;font-family:sans-serif;font-size:13;" transform="matrix(1 0 0 1 263 1156)">Medium</text>
  <text style="stroke:none;fill:black;font-family:sans-serif;font-size:13;" transform="matrix(1 0 0 1 263 1586)">Large</text>
 </g>
 <g id="Guides">
  <g id="H-reference" style="fill:#27AAE1;stroke:none;" transform="matrix(1 0 0 1 339 696)">
   <path d="M0.993654 0L3.63775 0L29.3281-67.1323L30.0303-67.1323L30.0303-70.459L28.1226-70.459ZM11.6885-24.4799L46.9815-24.4799L46.2315-26.7285L12.4385-26.7285ZM55.1196 0L57.7637 0L30.6382-70.459L29.4326-70.459L29.4326-67.1323Z"/>
  </g>
  <line id="Baseline-S" style="fill:none;stroke:#27AAE1;opacity:1;stroke-width:0.5;" x1="263" x2="3036" y1="696" y2="696"/>
  <line id="Capline-S" style="fill:none;stroke:#27AAE1;opacity:1;stroke-width:0.5;" x1="263" x2="3036" y1="625.541" y2="625.541"/>
  <g id="H-reference" style="fill:#27AAE1;stroke:none;" transform="matrix(1 0 0 1 339 1126)">
   <path d="M0.993654 0L3.63775 0L29.3281-67.1323L30.0303-67.1323L30.0303-70.459L28.1226-70.459ZM11.6885-24.4799L46.9815-24.4799L46.2315-26.7285L12.4385-26.7285ZM55.1196 0L57.7637 0L30.6382-70.459L29.4326-70.459L29.4326-67.1323Z"/>
  </g>
  <line id="Baseline-M" style="fill:none;stroke:#27AAE1;opacity:1;stroke-width:0.5;" x1="263" x2="3036" y1="1126" y2="1126"/>
  <line id="Capline-M" style="fill:none;stroke:#27AAE1;opacity:1;stroke-width:0.5;" x1="263" x2="3036" y1="1055.54" y2="1055.54"/>
  <g id="H-reference" style="fill:#27AAE1;stroke:none;" transform="matrix(1 0 0 1 339 1556)">
   <path d="M0.993654 0L3.63775 0L29.3281-67.1323L30.0303-67.1323L30.0303-70.459L28.1226-70.459ZM11.6885-24.4799L46.9815-24.4799L46.2315-26.7285L12.4385-26.7285ZM55.1196 0L57.7637 0L30.6382-70.459L29.4326-70.459L29.4326-67.1323Z"/>
  </g>
  <line id="Baseline-L" style="fill:none;stroke:#27AAE1;opacity:1;stroke-width:0.5;" x1="263" x2="3036" y1="1556" y2="1556"/>
  <line id="Capline-L" style="fill:none;stroke:#27AAE1;opacity:1;stroke-width:0.5;" x1="263" x2="3036" y1="1485.54" y2="1485.54"/>
  <line id="left-margin-Ultralight-S" style="fill:none;stroke:#00AEEF;stroke-width:0.5;opacity:1.0;" x1="506.85" x2="506.85" y1="600.785" y2="720.121"/>
  <line id="right-margin-Ultralight-S" style="fill:none;stroke:#00AEEF;stroke-width:0.5;opacity:1.0;" x1="612.572" x2="612.572" y1="600.785" y2="720.121"/>
  <line id="left-margin-Regular-S" style="fill:none;stroke:#00AEEF;stroke-width:0.5;opacity:1.0;" x1="1394.33" x2="1394.33" y1="600.785" y2="720.121"/>
  <line id="right-margin-Regular-S" style="fill:none;stroke:#00AEEF;stroke-width:0.5;opacity:1.0;" x1="1505.36" x2="1505.36" y1="600.785" y2="720.121"/>
  <line id="left-margin-Black-S" style="fill:none;stroke:#00AEEF;stroke-width:0.5;opacity:1.0;" x1="2873.24" x2="2873.24" y1="600.785" y2="720.121"/>
  <line id="right-margin-Black-S" style="fill:none;stroke:#00AEEF;stroke-width:0.5;opacity:1.0;" x1="2993.56" x2="2993.56" y1="600.785" y2="720.121"/>
 </g>
 <g id="Symbols">
  <g id="Black-S" transform="matrix(1 0 0 1 2873.24 696)">
   <path d="M60.1562-7.71484C74.2676-7.71484 91.6016-8.39844 98.9746-9.22852C106.152-10.0586 110.547-14.5508 110.547-21.4844L110.547-28.2227C110.547-36.2793 109.863-40.8691 105.811-45.5078L101.709-50.1953C100.244-57.0801 97.7051-64.2578 96.3379-67.1387C93.7988-72.5098 88.9648-75.8789 82.7148-76.709C79.0527-77.1973 71.6309-77.4902 60.1562-77.4902C48.6816-77.4902 41.2598-77.1973 37.5977-76.709C31.3477-75.8789 26.4648-72.5586 23.9746-67.1387C22.6562-64.2578 20.0684-57.0801 18.6035-50.1953L14.502-45.5078C10.4492-40.8691 9.76562-36.2793 9.76562-28.2227L9.76562-21.4844C9.76562-14.5508 14.1602-10.0586 21.3379-9.22852C28.7109-8.39844 46.0449-7.71484 60.1562-7.71484ZM60.1562-19.1406C46.5332-19.1406 32.0801-19.873 25.4883-20.5566C22.2168-20.8984 20.7031-22.4121 20.7031-25.3906L20.7031-30.1758C20.7031-35.0098 22.2168-37.5 23.7305-39.502L28.8086-46.2402C29.4434-49.4141 31.7383-58.3008 33.252-61.3281C34.7168-64.3066 37.2559-65.5273 40.0391-65.918C43.3594-66.4062 49.6582-66.6504 60.1562-66.6504C70.6543-66.6504 76.9531-66.3086 80.2734-65.918C83.0078-65.5762 85.498-64.3066 87.1094-61.1816C88.4766-58.5449 90.7715-49.7559 91.5039-46.2402L96.582-39.502C98.0957-37.5 99.6094-35.0098 99.6094-30.1758L99.6094-25.3906C99.6094-22.4121 98.0957-20.8984 94.8242-20.5566C88.2324-19.873 73.7793-19.1406 60.1562-19.1406ZM17.3828 3.07617L22.4609 3.07617C25.6348 3.07617 28.125 0.585938 28.125-2.58789L28.125-13.2812L11.7188-19.043L11.7188-2.58789C11.7188 0.585938 14.209 3.07617 17.3828 3.07617ZM97.8516 3.07617L102.93 3.07617C106.104 3.07617 108.594 0.585938 108.594-2.58789L108.594-19.043L92.1875-13.2812L92.1875-2.58789C92.1875 0.585938 94.6777 3.07617 97.8516 3.07617ZM49.4629-41.1621C49.4629-40.1855 50.2441-39.4531 51.2695-39.4531L59.0332-39.4531L54.8828-28.8086C54.0527-26.5137 56.543-25.1465 58.1543-27.002L71.9727-43.4082C72.3145-43.7988 72.5098-44.2871 72.5098-44.7754C72.5098-45.752 71.7285-46.4844 70.752-46.4844L62.9395-46.4844L67.0898-57.1289C67.9688-59.4238 65.4297-60.791 63.8672-58.9355L50-42.5293C49.6582-42.1387 49.4629-41.6504 49.4629-41.1621Z"/>
  </g>
  <g id="Regular-S" transform="matrix(1 0 0 1 1394.33 696)">
   <path d="M55.5176-10.3027C68.5547-10.3027 85.6445-10.9375 92.9199-11.7676C98.291-12.3535 101.27-15.3809 101.27-20.4102L101.27-27.1484C101.27-33.4961 100.049-37.207 96.3379-41.9922L93.1641-46.1426C91.748-53.0273 89.209-60.2539 87.8906-63.0859C85.8398-67.3828 81.8359-70.1172 76.5625-70.8008C73.9746-71.1426 65.7227-71.3379 55.5176-71.3379C45.3125-71.3379 37.0117-71.0938 34.4727-70.8008C29.1992-70.166 25.1953-67.3828 23.1445-63.0859C21.8262-60.2539 19.2871-53.0273 17.8711-46.1426L14.6973-41.9922C10.9863-37.207 9.76562-33.4961 9.76562-27.1484L9.76562-20.4102C9.76562-15.3809 12.7441-12.3535 18.1152-11.7676C25.3906-10.9375 42.4805-10.3027 55.5176-10.3027ZM55.5176-15.918C42.2852-15.918 25.6348-16.5039 19.7266-17.2363C16.5039-17.6758 15.4297-19.3848 15.4297-22.2656L15.4297-27.1484C15.4297-32.373 16.2598-34.7168 19.1406-38.5254L23.1445-43.7012C24.0723-48.9746 26.5625-56.8359 28.2715-60.498C29.4434-63.0371 31.7871-64.6484 35.1562-65.0391C37.6465-65.332 45.2637-65.7227 55.5176-65.7227C65.7715-65.7227 73.584-65.332 75.7812-65.0391C79.2969-64.5996 81.543-62.9883 82.7637-60.498C84.4727-56.8359 86.9141-48.9746 87.8906-43.7012L91.8457-38.5254C94.7754-34.7168 95.6055-32.373 95.6055-27.1484L95.6055-22.2656C95.6055-19.3848 94.4824-17.627 91.3086-17.2363C85.4004-16.5039 68.7012-15.918 55.5176-15.918ZM16.8457 0.390625L21.4355 0.390625C24.3652 0.390625 26.6113-1.80664 26.6113-4.6875L26.6113-14.2578L11.7188-16.4551L11.7188-4.6875C11.7188-1.80664 13.9648 0.390625 16.8457 0.390625ZM89.5996 0.390625L94.1406 0.390625C97.0703 0.390625 99.3164-1.80664 99.3164-4.6875L99.3164-16.4551L84.4238-14.2578L84.4238-4.6875C84.4238-1.80664 86.6699 0.390625 89.5996 0.390625ZM43.3594-38.5254C43.3594-37.7441 43.9941-37.1582 44.7266-37.1582L54.0527-37.1582L49.1211-23.9258C48.3887-21.9727 50.4883-20.9473 51.709-22.5098L66.748-41.4062C67.0898-41.748 67.2852-42.1875 67.2852-42.5781C67.2852-43.3105 66.6016-43.8965 65.8691-43.8965L56.5918-43.8965L61.4746-57.1289C62.207-59.082 60.1562-60.1562 58.9355-58.5449L43.8477-39.6484C43.5547-39.2578 43.3594-38.8672 43.3594-38.5254Z"/>
  </g>
  <g id="Ultralight-S" transform="matrix(1 0 0 1 506.85 696)">
   <path d="M52.8838-10.7114C64.9673-10.7114 81.9663-11.3462 89.1509-12.1763C93.3868-12.6714 95.9566-14.7451 95.9566-19.0933L95.9566-25.8316C95.9566-32.7695 94.2364-35.8901 91.4336-39.6309L88.0328-44.0537C86.6621-50.9385 84.1231-58.2105 82.8047-60.9971C80.7994-65.2486 76.9317-67.211 72.7935-67.7583C70.1602-68.1001 61.3633-68.2954 52.8838-68.2954C44.4043-68.2954 35.5586-68.0967 32.9287-67.7583C28.8359-67.2144 24.9683-65.2486 22.9629-60.9971C21.6445-58.2105 19.1055-50.9385 17.7349-44.0537L14.334-39.6309C11.4858-35.8901 9.76562-32.7695 9.76562-25.8316L9.76562-19.0933C9.76562-14.7451 12.3809-12.6714 16.5713-12.1763C23.7559-11.3462 40.7549-10.7114 52.8838-10.7114ZM52.8838-12.8755C40.7866-12.8755 23.9092-13.4614 16.9112-14.3301C13.3252-14.7696 11.8877-16.1607 11.8877-19.2232L11.8877-25.8316C11.8877-31.2832 12.8086-34.1265 16.0528-38.3438L19.6934-43.1563C21.0298-49.9282 23.5655-57.29 24.8657-60.0894C26.4009-63.1733 29.1988-65.1025 33.2036-65.584C35.5576-65.8769 43.6743-66.1313 52.8838-66.1313C62.0479-66.1313 70.1782-65.8769 72.5117-65.584C76.5723-65.0991 79.3633-63.1699 80.8565-60.0894C82.2022-57.29 84.7344-49.9282 86.0288-43.1563L89.7114-38.3438C92.9136-34.1265 93.8345-31.2832 93.8345-25.8316L93.8345-19.2232C93.8345-16.1607 92.3936-14.7207 88.8565-14.3301C81.813-13.5523 64.9322-12.8755 52.8838-12.8755ZM16.437-0.926259L20.6636-0.926259C23.2754-0.926259 25.3399-2.9873 25.3399-5.5957L25.3399-12.6231L11.7188-14.3662L11.7188-5.5957C11.7188-3.03271 13.7832-0.926259 16.437-0.926259ZM85.104-0.926259L89.3272-0.926259C91.9844-0.926259 94.0035-2.9873 94.0035-5.5957L94.0035-14.3662L80.3824-12.6231L80.3824-5.5957C80.3824-2.9873 82.4468-0.926259 85.104-0.926259ZM40.9072-37.2993C40.9072-36.9268 41.2696-36.6587 41.7295-36.6587L51.9639-36.6587L46.3965-21.6099C45.8911-20.3833 47.128-19.7212 47.94-20.7388L64.4321-41.4517C64.6831-41.7935 64.833-42.0513 64.833-42.3057C64.833-42.7202 64.4673-43.0337 64.0073-43.0337L53.7764-43.0337L59.3403-57.9917C59.8003-59.2183 58.5215-59.8838 57.7095-58.8628L41.2593-38.1499C41.0117-37.8047 40.9072-37.5503 40.9072-37.2993Z"/>
  </g>
 </g>
</svg>
