<?xml version="1.0" encoding="UTF-8"?>
<!--Generator: Apple Native CoreSVG 175.5-->
<!DOCTYPE svg
PUBLIC "-//W3C//DTD SVG 1.1//EN"
       "http://www.w3.org/Graphics/SVG/1.1/DTD/svg11.dtd">
<svg version="1.1" xmlns="http://www.w3.org/2000/svg" xmlns:xlink="http://www.w3.org/1999/xlink" width="3300" height="2200">
 <!--glyph: "uni100658.medium", point size: 100.0, font version: "18.0d11e1", template writer version: "90"-->
 <g id="Notes">
  <rect height="2200" id="artboard" style="fill:white;opacity:1" width="3300" x="0" y="0"/>
  <line style="fill:none;stroke:black;opacity:1;stroke-width:0.5;" x1="263" x2="3036" y1="292" y2="292"/>
  <text style="stroke:none;fill:black;font-family:sans-serif;font-size:13;font-weight:bold;" transform="matrix(1 0 0 1 263 322)">Weight/Scale Variations</text>
  <text style="stroke:none;fill:black;font-family:sans-serif;font-size:13;text-anchor:middle;" transform="matrix(1 0 0 1 559.711 322)">Ultralight</text>
  <text style="stroke:none;fill:black;font-family:sans-serif;font-size:13;text-anchor:middle;" transform="matrix(1 0 0 1 856.422 322)">Thin</text>
  <text style="stroke:none;fill:black;font-family:sans-serif;font-size:13;text-anchor:middle;" transform="matrix(1 0 0 1 1153.13 322)">Light</text>
  <text style="stroke:none;fill:black;font-family:sans-serif;font-size:13;text-anchor:middle;" transform="matrix(1 0 0 1 1449.84 322)">Regular</text>
  <text style="stroke:none;fill:black;font-family:sans-serif;font-size:13;text-anchor:middle;" transform="matrix(1 0 0 1 1746.56 322)">Medium</text>
  <text style="stroke:none;fill:black;font-family:sans-serif;font-size:13;text-anchor:middle;" transform="matrix(1 0 0 1 2043.27 322)">Semibold</text>
  <text style="stroke:none;fill:black;font-family:sans-serif;font-size:13;text-anchor:middle;" transform="matrix(1 0 0 1 2339.98 322)">Bold</text>
  <text style="stroke:none;fill:black;font-family:sans-serif;font-size:13;text-anchor:middle;" transform="matrix(1 0 0 1 2636.69 322)">Heavy</text>
  <text style="stroke:none;fill:black;font-family:sans-serif;font-size:13;text-anchor:middle;" transform="matrix(1 0 0 1 2933.4 322)">Black</text>
  <line style="fill:none;stroke:black;opacity:1;stroke-width:0.5;" x1="263" x2="3036" y1="1903" y2="1903"/>
  <g transform="matrix(1 0 0 1 263 1933)">
   <path d="M9.24805 0.830078C13.5547 0.830078 17.1387-2.74414 17.1387-7.05078C17.1387-11.3574 13.5449-14.9316 9.23828-14.9316C4.94141-14.9316 1.36719-11.3574 1.36719-7.05078C1.36719-2.74414 4.95117 0.830078 9.24805 0.830078ZM9.24805-0.654297C5.70312-0.654297 2.87109-3.49609 2.87109-7.05078C2.87109-10.6055 5.69336-13.4473 9.23828-13.4473C12.793-13.4473 15.6445-10.6055 15.6445-7.05078C15.6445-3.49609 12.8027-0.654297 9.24805-0.654297ZM5.6543-7.05078C5.6543-6.62109 5.95703-6.32812 6.40625-6.32812L8.50586-6.32812L8.50586-4.20898C8.50586-3.76953 8.79883-3.4668 9.22852-3.4668C9.67773-3.4668 9.9707-3.76953 9.9707-4.20898L9.9707-6.32812L12.0898-6.32812C12.5293-6.32812 12.832-6.62109 12.832-7.05078C12.832-7.49023 12.5293-7.79297 12.0898-7.79297L9.9707-7.79297L9.9707-9.90234C9.9707-10.3516 9.67773-10.6543 9.22852-10.6543C8.79883-10.6543 8.50586-10.3516 8.50586-9.90234L8.50586-7.79297L6.40625-7.79297C5.95703-7.79297 5.6543-7.49023 5.6543-7.05078Z"/>
  </g>
  <g transform="matrix(1 0 0 1 281.867 1933)">
   <path d="M11.709 2.91016C17.1582 2.91016 21.6699-1.61133 21.6699-7.05078C21.6699-12.5 17.1484-17.0117 11.6992-17.0117C6.25977-17.0117 1.74805-12.5 1.74805-7.05078C1.74805-1.61133 6.26953 2.91016 11.709 2.91016ZM11.709 1.25C7.09961 1.25 3.41797-2.44141 3.41797-7.05078C3.41797-11.6602 7.08984-15.3516 11.6992-15.3516C16.3086-15.3516 20.0098-11.6602 20.0098-7.05078C20.0098-2.44141 16.3184 1.25 11.709 1.25ZM7.17773-7.05078C7.17773-6.57227 7.50977-6.25 8.00781-6.25L10.8789-6.25L10.8789-3.36914C10.8789-2.88086 11.2109-2.53906 11.6895-2.53906C12.1777-2.53906 12.5195-2.87109 12.5195-3.36914L12.5195-6.25L15.4004-6.25C15.8887-6.25 16.2305-6.57227 16.2305-7.05078C16.2305-7.53906 15.8887-7.88086 15.4004-7.88086L12.5195-7.88086L12.5195-10.752C12.5195-11.25 12.1777-11.5918 11.6895-11.5918C11.2109-11.5918 10.8789-11.25 10.8789-10.752L10.8789-7.88086L8.00781-7.88086C7.50977-7.88086 7.17773-7.53906 7.17773-7.05078Z"/>
  </g>
  <g transform="matrix(1 0 0 1 305.646 1933)">
   <path d="M14.9707 5.66406C21.9336 5.66406 27.6953-0.0976562 27.6953-7.05078C27.6953-14.0137 21.9238-19.7754 14.9609-19.7754C8.00781-19.7754 2.25586-14.0137 2.25586-7.05078C2.25586-0.0976562 8.01758 5.66406 14.9707 5.66406ZM14.9707 3.84766C8.93555 3.84766 4.08203-1.01562 4.08203-7.05078C4.08203-13.0957 8.92578-17.9492 14.9609-17.9492C21.0059-17.9492 25.8691-13.0957 25.8691-7.05078C25.8691-1.01562 21.0156 3.84766 14.9707 3.84766ZM9.19922-7.05078C9.19922-6.5332 9.57031-6.17188 10.1172-6.17188L14.0625-6.17188L14.0625-2.2168C14.0625-1.67969 14.4336-1.29883 14.9512-1.29883C15.4883-1.29883 15.8594-1.66992 15.8594-2.2168L15.8594-6.17188L19.8145-6.17188C20.3516-6.17188 20.7324-6.5332 20.7324-7.05078C20.7324-7.59766 20.3613-7.96875 19.8145-7.96875L15.8594-7.96875L15.8594-11.9141C15.8594-12.4609 15.4883-12.8418 14.9512-12.8418C14.4336-12.8418 14.0625-12.4609 14.0625-11.9141L14.0625-7.96875L10.1172-7.96875C9.57031-7.96875 9.19922-7.59766 9.19922-7.05078Z"/>
  </g>
  <text style="stroke:none;fill:black;font-family:sans-serif;font-size:13;font-weight:bold;" transform="matrix(1 0 0 1 263 1953)">Design Variations</text>
  <text style="stroke:none;fill:black;font-family:sans-serif;font-size:13;" transform="matrix(1 0 0 1 263 1971)">Symbols are supported in up to nine weights and three scales.</text>
  <text style="stroke:none;fill:black;font-family:sans-serif;font-size:13;" transform="matrix(1 0 0 1 263 1989)">For optimal layout with text and other symbols, vertically align</text>
  <text style="stroke:none;fill:black;font-family:sans-serif;font-size:13;" transform="matrix(1 0 0 1 263 2007)">symbols with the adjacent text.</text>
  <line style="fill:none;stroke:#00AEEF;stroke-width:0.5;opacity:1.0;" x1="776" x2="776" y1="1919" y2="1933"/>
  <g transform="matrix(1 0 0 1 776 1933)">
   <path d="M3.31055 0.15625C3.82812 0.15625 4.08203-0.0390625 4.26758-0.585938L5.52734-4.0332L11.2891-4.0332L12.5488-0.585938C12.7344-0.0390625 12.9883 0.15625 13.4961 0.15625C14.0137 0.15625 14.3457-0.15625 14.3457-0.644531C14.3457-0.810547 14.3164-0.966797 14.2383-1.17188L9.6582-13.3691C9.43359-13.9648 9.0332-14.2676 8.4082-14.2676C7.80273-14.2676 7.39258-13.9746 7.17773-13.3789L2.59766-1.16211C2.51953-0.957031 2.49023-0.800781 2.49023-0.634766C2.49023-0.146484 2.80273 0.15625 3.31055 0.15625ZM6.00586-5.51758L8.37891-12.0898L8.42773-12.0898L10.8008-5.51758Z"/>
  </g>
  <line style="fill:none;stroke:#00AEEF;stroke-width:0.5;opacity:1.0;" x1="793.197" x2="793.197" y1="1919" y2="1933"/>
  <text style="stroke:none;fill:black;font-family:sans-serif;font-size:13;font-weight:bold;" transform="matrix(1 0 0 1 776 1953)">Margins</text>
  <text style="stroke:none;fill:black;font-family:sans-serif;font-size:13;" transform="matrix(1 0 0 1 776 1971)">Leading and trailing margins on the left and right side of each symbol</text>
  <text style="stroke:none;fill:black;font-family:sans-serif;font-size:13;" transform="matrix(1 0 0 1 776 1989)">can be adjusted by modifying the x-location of the margin guidelines.</text>
  <text style="stroke:none;fill:black;font-family:sans-serif;font-size:13;" transform="matrix(1 0 0 1 776 2007)">Modifications are automatically applied proportionally to all</text>
  <text style="stroke:none;fill:black;font-family:sans-serif;font-size:13;" transform="matrix(1 0 0 1 776 2025)">scales and weights.</text>
  <g transform="matrix(1 0 0 1 1289 1933)">
   <path d="M2.8418 1.86523L4.54102 3.57422C5.40039 4.44336 6.38672 4.38477 7.31445 3.35938L18.0078-8.42773L17.041-9.4043L6.42578 2.27539C6.07422 2.67578 5.74219 2.77344 5.27344 2.30469L4.10156 1.14258C3.63281 0.683594 3.74023 0.341797 4.14062-0.0195312L15.6152-10.8203L14.6387-11.7871L3.04688-0.898438C2.06055 0.0195312 1.98242 0.996094 2.8418 1.86523ZM9.25781-16.3281C8.83789-15.918 8.80859-15.3418 9.04297-14.9512C9.27734-14.5898 9.73633-14.3555 10.3809-14.5215C11.8457-14.8633 13.3691-14.9219 14.7949-13.9844L14.209-12.5293C13.8672-11.6992 14.043-11.1133 14.5801-10.5664L16.875-8.25195C17.3633-7.76367 17.7734-7.74414 18.3398-7.8418L19.4043-8.03711L20.0684-7.36328L20.0293-6.80664C19.9902-6.30859 20.1172-5.92773 20.6055-5.44922L21.3672-4.70703C21.8457-4.22852 22.4609-4.19922 22.9297-4.66797L25.8398-7.58789C26.3086-8.05664 26.2891-8.65234 25.8105-9.13086L25.0391-9.89258C24.5605-10.3711 24.1895-10.5273 23.7109-10.4883L23.1348-10.4395L22.4902-11.0742L22.7344-12.1973C22.8613-12.7637 22.7051-13.2031 22.1191-13.7891L19.9219-15.9766C16.582-19.2969 12.1484-19.2188 9.25781-16.3281ZM10.752-15.957C13.1836-17.7344 16.4746-17.4316 18.7012-15.2051L21.1328-12.793C21.3672-12.5586 21.4062-12.373 21.3379-12.0312L21.0156-10.5469L22.5195-9.0625L23.5059-9.12109C23.7598-9.13086 23.8379-9.11133 24.0332-8.91602L24.6094-8.33984L22.168-5.89844L21.5918-6.47461C21.3965-6.66992 21.3672-6.74805 21.377-7.01172L21.4453-7.98828L19.9512-9.47266L18.4277-9.21875C18.1055-9.15039 17.959-9.17969 17.7148-9.41406L15.7129-11.416C15.459-11.6504 15.4297-11.8164 15.5859-12.1875L16.4648-14.2773C14.9023-15.7324 12.8711-16.3574 10.8398-15.7617C10.6836-15.7227 10.625-15.8496 10.752-15.957Z"/>
  </g>
  <text style="stroke:none;fill:black;font-family:sans-serif;font-size:13;font-weight:bold;" transform="matrix(1 0 0 1 1289 1953)">Exporting</text>
  <text style="stroke:none;fill:black;font-family:sans-serif;font-size:13;" transform="matrix(1 0 0 1 1289 1971)">Symbols should be outlined when exporting to ensure the</text>
  <text style="stroke:none;fill:black;font-family:sans-serif;font-size:13;" transform="matrix(1 0 0 1 1289 1989)">design is preserved when submitting to Xcode.</text>
  <text id="template-version" style="stroke:none;fill:black;font-family:sans-serif;font-size:13;text-anchor:end;" transform="matrix(1 0 0 1 3036 1933)">Template v.4.0</text>
  <text style="stroke:none;fill:black;font-family:sans-serif;font-size:13;text-anchor:end;" transform="matrix(1 0 0 1 3036 1951)">Requires Xcode 14 or greater</text>
  <text id="descriptive-name" style="stroke:none;fill:black;font-family:sans-serif;font-size:13;text-anchor:end;" transform="matrix(1 0 0 1 3036 1969)">Generated from car</text>
  <text style="stroke:none;fill:black;font-family:sans-serif;font-size:13;text-anchor:end;" transform="matrix(1 0 0 1 3036 1987)">Typeset at 100 points</text>
  <text style="stroke:none;fill:black;font-family:sans-serif;font-size:13;" transform="matrix(1 0 0 1 263 726)">Small</text>
  <text style="stroke:none;fill:black;font-family:sans-serif;font-size:13;" transform="matrix(1 0 0 1 263 1156)">Medium</text>
  <text style="stroke:none;fill:black;font-family:sans-serif;font-size:13;" transform="matrix(1 0 0 1 263 1586)">Large</text>
 </g>
 <g id="Guides">
  <g id="H-reference" style="fill:#27AAE1;stroke:none;" transform="matrix(1 0 0 1 339 696)">
   <path d="M0.993654 0L3.63775 0L29.3281-67.1323L30.0303-67.1323L30.0303-70.459L28.1226-70.459ZM11.6885-24.4799L46.9815-24.4799L46.2315-26.7285L12.4385-26.7285ZM55.1196 0L57.7637 0L30.6382-70.459L29.4326-70.459L29.4326-67.1323Z"/>
  </g>
  <line id="Baseline-S" style="fill:none;stroke:#27AAE1;opacity:1;stroke-width:0.5;" x1="263" x2="3036" y1="696" y2="696"/>
  <line id="Capline-S" style="fill:none;stroke:#27AAE1;opacity:1;stroke-width:0.5;" x1="263" x2="3036" y1="625.541" y2="625.541"/>
  <g id="H-reference" style="fill:#27AAE1;stroke:none;" transform="matrix(1 0 0 1 339 1126)">
   <path d="M0.993654 0L3.63775 0L29.3281-67.1323L30.0303-67.1323L30.0303-70.459L28.1226-70.459ZM11.6885-24.4799L46.9815-24.4799L46.2315-26.7285L12.4385-26.7285ZM55.1196 0L57.7637 0L30.6382-70.459L29.4326-70.459L29.4326-67.1323Z"/>
  </g>
  <line id="Baseline-M" style="fill:none;stroke:#27AAE1;opacity:1;stroke-width:0.5;" x1="263" x2="3036" y1="1126" y2="1126"/>
  <line id="Capline-M" style="fill:none;stroke:#27AAE1;opacity:1;stroke-width:0.5;" x1="263" x2="3036" y1="1055.54" y2="1055.54"/>
  <g id="H-reference" style="fill:#27AAE1;stroke:none;" transform="matrix(1 0 0 1 339 1556)">
   <path d="M0.993654 0L3.63775 0L29.3281-67.1323L30.0303-67.1323L30.0303-70.459L28.1226-70.459ZM11.6885-24.4799L46.9815-24.4799L46.2315-26.7285L12.4385-26.7285ZM55.1196 0L57.7637 0L30.6382-70.459L29.4326-70.459L29.4326-67.1323Z"/>
  </g>
  <line id="Baseline-L" style="fill:none;stroke:#27AAE1;opacity:1;stroke-width:0.5;" x1="263" x2="3036" y1="1556" y2="1556"/>
  <line id="Capline-L" style="fill:none;stroke:#27AAE1;opacity:1;stroke-width:0.5;" x1="263" x2="3036" y1="1485.54" y2="1485.54"/>
  <line id="left-margin-Regular-M" style="fill:none;stroke:#00AEEF;stroke-width:0.5;opacity:1.0;" x1="1379.62" x2="1379.62" y1="1030.79" y2="1150.12"/>
  <line id="right-margin-Regular-M" style="fill:none;stroke:#00AEEF;stroke-width:0.5;opacity:1.0;" x1="1520.07" x2="1520.07" y1="1030.79" y2="1150.12"/>
 </g>
 <g id="Symbols">
  <g id="Black-L" transform="matrix(1 0 0 1 2836.48 1556)">
   <path d="M53.2636-61.8173C52.4122-58.2717 53.9738-56.1146 57.8441-56.217C64.5837-56.4539 75.2754-56.9769 96.9167-56.9769C118.537-56.9769 129.25-56.4539 135.988-56.217C139.858-56.1146 141.421-58.2717 140.57-61.8173C139.638-65.8368 137.738-71.5879 136.546-73.8778C134.543-77.9674 131.862-79.4225 127.026-80.1202C123.681-80.5883 113.587-80.8336 96.9167-80.8336C80.2243-80.8336 70.1515-80.5883 66.8078-80.1202C61.9702-79.4225 59.3473-77.9674 57.2669-73.8778C56.0753-71.5879 54.2327-65.8368 53.2636-61.8173ZM50.8954-13.3019C57.6622-13.3019 62.8111-18.4508 62.8111-25.2188C62.8111-31.9857 57.6622-37.1345 50.8954-37.1345C44.1273-37.1345 38.9797-31.9857 38.9797-25.2188C38.9797-18.4508 44.1273-13.3019 50.8954-13.3019ZM78.7467-16.4359L115.086-16.4359C120.155-16.4359 123.803-20.1032 123.803-25.1729C123.803-30.2425 120.155-33.8902 115.086-33.8902L78.7467-33.8902C73.6782-33.8902 70.0305-30.2425 70.0305-25.1729C70.0305-20.1032 73.6782-16.4359 78.7467-16.4359ZM142.938-13.3019C149.705-13.3019 154.854-18.4508 154.854-25.2188C154.854-31.9857 149.705-37.1345 142.938-37.1345C136.17-37.1345 131.022-31.9857 131.022-25.2188C131.022-18.4508 136.17-13.3019 142.938-13.3019ZM96.9167 8.90966C119.649 8.90966 148.085 7.80579 160.182 6.43865C171.16 5.18398 177.748-1.52913 177.748-12.0723L177.748-23.1702C177.748-35.6846 176.367-42.8323 169.87-50.5107L163.527-57.9961C161.138-69.3353 156.956-81.1802 154.726-85.9018C150.766-94.2625 143.182-99.5049 133.358-100.802C127.81-101.541 115.198-101.979 96.9167-101.979C78.6358-101.979 66.0014-101.52 60.4738-100.802C50.6514-99.5258 43.0093-94.3209 39.1072-85.9018C36.9358-81.1802 32.6956-69.3353 30.3062-57.9961L23.9632-50.5107C17.4652-42.8323 16.084-35.6846 16.084-23.1702L16.084-12.0723C16.084-1.52913 22.6738 5.18398 33.6499 6.43865C45.7469 7.80579 74.1836 8.90966 96.9167 8.90966ZM96.9167-7.19809C74.6855-7.19809 49.8847-8.33835 39.3074-9.48983C33.9318-10.0968 31.6273-12.6695 31.6273-17.5359L31.6273-25.5065C31.6273-33.6502 33.8145-37.6987 36.9335-41.8212L44.8033-52.2051C45.9916-58.4185 49.8606-72.5795 52.4309-77.8289C54.721-82.5508 58.8267-84.7458 63.6916-85.3915C68.7823-86.1077 79.764-86.5722 96.9167-86.5722C114.068-86.5722 125.133-85.9909 130.099-85.3915C134.969-84.7834 138.975-82.53 141.46-77.6537C143.856-72.8715 147.704-58.8273 149.029-52.2051L156.879-41.8212C160.018-37.6987 162.205-33.6502 162.205-25.5065L162.205-17.5359C162.205-12.6695 159.88-10.0748 154.526-9.48983C143.948-8.34074 119.126-7.19809 96.9167-7.19809ZM28.3766 26.6145L36.5105 26.6145C41.6194 26.6145 45.606 22.6488 45.606 17.5607L45.606 0.522065L19.3008-7.34855L19.3008 17.5607C19.3008 22.6476 23.2873 26.6145 28.3766 26.6145ZM157.323 26.6145L165.436 26.6145C170.546 26.6145 174.531 22.6488 174.531 17.5607L174.531-7.34855L148.226 0.522065L148.226 17.5607C148.226 22.6488 152.213 26.6145 157.323 26.6145Z"/>
  </g>
  <g id="Heavy-L" transform="matrix(1 0 0 1 2541.34 1556)">
   <path d="M51.3078-60.0027C50.5386-56.7952 51.9408-54.9198 55.4577-55.036C63.0162-55.3782 73.989-55.9155 95.351-55.9155C116.683-55.9155 127.686-55.3782 135.239-55.036C138.756-54.9198 140.163-56.7952 139.394-60.0027C138.303-64.7183 136.178-71.1343 134.792-73.6999C132.874-77.5166 130.361-78.9453 125.861-79.5873C122.205-80.0968 112.027-80.384 95.351-80.384C78.6396-80.384 68.4917-80.0968 64.8413-79.5873C60.3355-78.9453 57.8674-77.5166 55.8796-73.6999C54.4994-71.1343 52.4131-64.7183 51.3078-60.0027ZM49.4676-12.8488C55.9669-12.8488 60.9073-17.7891 60.9073-24.2941C60.9073-30.7934 55.9669-35.7338 49.4676-35.7338C42.9626-35.7338 38.0279-30.7934 38.0279-24.2941C38.0279-17.7891 42.9626-12.8488 49.4676-12.8488ZM77.5632-15.7853L113.133-15.7853C117.999-15.7853 121.469-19.2805 121.469-24.146C121.469-29.0116 117.999-32.4822 113.133-32.4822L77.5632-32.4822C72.7033-32.4822 69.2327-29.0116 69.2327-24.146C69.2327-19.2805 72.7033-15.7853 77.5632-15.7853ZM141.235-12.8488C147.734-12.8488 152.674-17.7891 152.674-24.2941C152.674-30.7934 147.734-35.7338 141.235-35.7338C134.73-35.7338 129.795-30.7934 129.795-24.2941C129.795-17.7891 134.73-12.8488 141.235-12.8488ZM95.351 8.13936C117.687 8.13936 146.046 7.04928 158.106 5.68214C168.463 4.50521 174.613-1.70163 174.613-11.641L174.613-22.7389C174.613-34.8283 173.031-41.6704 166.719-49.2886L160.616-56.6488C158.245-67.988 154.063-79.8512 151.847-84.5545C148.029-92.6076 140.692-97.5958 131.255-98.8387C126.005-99.5355 113.106-99.9464 95.351-99.9464C77.5964-99.9464 64.6609-99.5053 59.4415-98.8387C50.0096-97.626 42.6288-92.6522 38.8552-84.5545C36.6838-79.8512 32.4574-67.988 30.0862-56.6488L23.983-49.2886C17.6654-41.6704 16.084-34.8283 16.084-22.7389L16.084-11.641C16.084-1.70163 22.2388 4.50521 32.59 5.68214C44.6506 7.04928 73.0095 8.13936 95.351 8.13936ZM95.351-5.99244C73.3406-5.99244 47.8974-7.09135 37.4071-8.26986C32.0099-8.90439 29.7941-11.5013 29.7941-16.3578L29.7941-24.5238C29.7941-32.7998 31.7972-36.8556 35.3375-41.5278L42.8687-51.4354C44.1794-58.3872 48.108-72.2101 50.6937-77.5549C52.9364-82.2057 57.0312-84.5418 62.1232-85.1964C66.9664-85.8574 78.3689-86.3501 95.351-86.3501C112.328-86.3501 123.851-85.7682 128.513-85.1964C133.656-84.5563 137.646-82.1755 140.047-77.421C142.505-72.4332 146.403-58.6995 147.828-51.4354L155.334-41.5278C158.899-36.8556 160.902-32.7998 160.902-24.5238L160.902-16.3578C160.902-11.5013 158.656-8.8686 153.295-8.26986C142.799-7.10257 117.326-5.99244 95.351-5.99244ZM28.1852 25.7283L36.146 25.7283C41.155 25.7283 45.055 21.8585 45.055 16.8797L45.055 0.405383L19.3008-6.41484L19.3008 16.8797C19.3008 21.8529 23.2008 25.7283 28.1852 25.7283ZM154.556 25.7283L162.487 25.7283C167.501 25.7283 171.396 21.8585 171.396 16.8797L171.396-6.41484L145.641 0.405383L145.641 16.8797C145.641 21.8585 149.541 25.7283 154.556 25.7283Z"/>
  </g>
  <g id="Bold-L" transform="matrix(1 0 0 1 2246.54 1556)">
   <path d="M48.8203-57.9676C48.151-55.1676 49.3534-53.5859 52.4697-53.7176C60.9977-54.183 72.2717-54.7282 93.4444-54.7282C114.579-54.7282 125.891-54.183 134.406-53.7176C137.522-53.5859 138.738-55.1676 138.069-57.9676C136.778-63.5661 134.406-70.6776 132.804-73.5516C130.963-77.0899 128.591-78.5399 124.386-79.1277C120.361-79.6835 110.046-80.0095 93.4444-80.0095C76.7919-80.0095 66.5144-79.6835 62.5024-79.1277C58.2846-78.5399 55.9416-77.0899 54.0467-73.5516C52.4583-70.6776 50.1021-63.5661 48.8203-57.9676ZM47.7151-12.3847C53.8617-12.3847 58.5259-17.049 58.5259-23.2088C58.5259-29.3553 53.8617-34.0196 47.7151-34.0196C41.5554-34.0196 36.9043-29.3553 36.9043-23.2088C36.9043-17.049 41.5554-12.3847 47.7151-12.3847ZM76.1404-15.0306L110.735-15.0306C115.332-15.0306 118.573-18.2958 118.573-22.8929C118.573-27.49 115.332-30.7305 110.735-30.7305L76.1404-30.7305C71.5565-30.7305 68.3161-27.49 68.3161-22.8929C68.3161-18.2958 71.5565-15.0306 76.1404-15.0306ZM139.174-12.3847C145.32-12.3847 149.985-17.049 149.985-23.2088C149.985-29.3553 145.32-34.0196 139.174-34.0196C133.014-34.0196 128.363-29.3553 128.363-23.2088C128.363-17.049 133.014-12.3847 139.174-12.3847ZM93.4444 7.25358C115.281 7.25358 143.548 6.17892 155.562 4.81178C165.158 3.72718 170.792-1.85712 170.792-11.0808L170.792-22.1788C170.792-33.8275 168.957-40.2931 162.905-47.7823L157.057-55.0186C154.709-66.3578 150.527-78.244 148.326-82.9243C144.67-90.6305 137.619-95.2888 128.68-96.4626C123.762-97.1131 110.509-97.4932 93.4444-97.4932C76.3801-97.4932 63.0756-97.0751 58.1957-96.4626C49.2702-95.3268 42.1898-90.6597 38.5626-82.9243C36.3912-78.244 32.1802-66.3578 29.8321-55.0186L23.9837-47.7823C17.9188-40.2931 16.084-33.8275 16.084-22.1788L16.084-11.0808C16.084-1.85712 21.7307 3.72718 31.3134 4.81178C43.3279 6.17892 71.5944 7.25358 93.4444 7.25358ZM93.4444-4.46441C71.7477-4.46441 45.5725-5.51706 35.1154-6.73384C29.6726-7.39922 27.5347-10.0045 27.5347-14.8606L27.5347-23.3469C27.5347-31.7844 29.3371-35.8777 33.3701-41.189L40.5011-50.5422C41.973-58.4084 45.9708-71.8237 48.5496-77.2242C50.7607-81.8276 54.87-84.3405 60.2538-85.0103C64.812-85.6096 76.7145-86.1257 93.4444-86.1257C110.161-86.1257 122.216-85.5512 126.546-85.0103C132.028-84.3317 136.032-81.7896 138.355-77.1366C140.86-71.9697 144.819-58.6128 146.374-50.5422L153.481-41.189C157.538-35.8777 159.341-31.7844 159.341-23.3469L159.341-14.8606C159.341-10.0045 157.165-7.348 151.773-6.73384C141.303-5.54352 115.09-4.46441 93.4444-4.46441ZM27.947 24.6593L35.6927 24.6593C40.5713 24.6593 44.3637 20.9049 44.3637 16.0643L44.3637 0.371215L19.3008-5.24722L19.3008 16.0643C19.3008 20.8917 23.0932 24.6593 27.947 24.6593ZM151.196 24.6593L158.904 24.6593C163.796 24.6593 167.575 20.9049 167.575 16.0643L167.575-5.24722L142.512 0.371215L142.512 16.0643C142.512 20.9049 146.304 24.6593 151.196 24.6593Z"/>
  </g>
  <g id="Semibold-L" transform="matrix(1 0 0 1 1951.15 1556)">
   <path d="M47.1053-56.5645C46.505-54.0456 47.5698-52.6664 50.4097-52.8086C59.6062-53.3589 71.0877-53.9097 92.13-53.9097C113.129-53.9097 124.654-53.3589 133.832-52.8086C136.672-52.6664 137.755-54.0456 137.155-56.5645C135.726-62.7718 133.184-70.3628 131.434-73.4494C129.646-76.7957 127.371-78.2605 123.37-78.8109C119.09-79.3985 108.68-79.7513 92.13-79.7513C75.518-79.7513 65.1514-79.3985 60.8899-78.8109C56.8708-78.2605 54.614-76.7957 52.7831-73.4494C51.0511-70.3628 48.5088-62.7718 47.1053-56.5645ZM46.507-12.0648C52.4103-12.0648 56.8843-16.5388 56.8843-22.4606C56.8843-28.3639 52.4103-32.8378 46.507-32.8378C40.5852-32.8378 36.1297-28.3639 36.1297-22.4606C36.1297-16.5388 40.5852-12.0648 46.507-12.0648ZM75.1595-14.5104L109.082-14.5104C113.494-14.5104 116.576-17.6171 116.576-22.0291C116.576-26.4411 113.494-29.5229 109.082-29.5229L75.1595-29.5229C70.7659-29.5229 67.6842-26.4411 67.6842-22.0291C67.6842-17.6171 70.7659-14.5104 75.1595-14.5104ZM137.753-12.0648C143.656-12.0648 148.13-16.5388 148.13-22.4606C148.13-28.3639 143.656-32.8378 137.753-32.8378C131.831-32.8378 127.376-28.3639 127.376-22.4606C127.376-16.5388 131.831-12.0648 137.753-12.0648ZM92.13 6.64293C113.623 6.64293 141.825 5.5789 153.808 4.21176C162.88 3.19082 168.158-1.96431 168.158-10.6947L168.158-21.7926C168.158-33.1376 166.148-39.3435 160.276-46.7439L154.603-53.8948C152.271-65.234 148.089-77.136 145.899-81.8005C142.354-89.2676 135.499-93.6984 126.905-94.8245C122.215-95.4432 108.718-95.802 92.13-95.802C75.5416-95.802 61.9828-95.3998 57.3368-94.8245C48.7605-93.7417 41.8872-89.2862 38.3609-81.8005C36.1895-77.136 31.9891-65.234 29.6568-53.8948L23.9843-46.7439C18.0935-39.3435 16.084-33.1376 16.084-21.7926L16.084-10.6947C16.084-1.96431 21.3804 3.19082 30.4333 4.21176C42.416 5.5789 70.6189 6.64293 92.13 6.64293ZM92.13-3.411C70.6496-3.411 43.9698-4.43176 33.5354-5.67492C28.0613-6.36156 25.9771-8.97259 25.9771-13.8284L25.9771-22.5356C25.9771-31.0843 27.6412-35.2035 32.0138-40.9554L38.869-49.9264C40.4518-58.423 44.4974-71.5573 47.0715-76.9962C49.2609-81.567 53.3801-84.2016 58.965-84.882C63.3267-85.4388 75.574-85.971 92.13-85.971C108.667-85.971 121.088-85.4016 125.19-84.882C130.905-84.1768 134.919-81.5236 137.189-76.9405C139.725-71.6502 143.728-58.553 145.373-49.9264L152.203-40.9554C156.6-35.2035 158.264-31.0843 158.264-22.5356L158.264-13.8284C158.264-8.97259 156.137-6.29971 150.725-5.67492C140.272-4.46872 113.548-3.411 92.13-3.411ZM27.7828 23.9224L35.3802 23.9224C40.1689 23.9224 43.8872 20.2475 43.8872 15.5022L43.8872 0.347661L19.3008-4.44227L19.3008 15.5022C19.3008 20.229 23.019 23.9224 27.7828 23.9224ZM148.88 23.9224L156.434 23.9224C161.241 23.9224 164.941 20.2475 164.941 15.5022L164.941-4.44227L140.354 0.347661L140.354 15.5022C140.354 20.2475 144.073 23.9224 148.88 23.9224Z"/>
  </g>
  <g id="Medium-L" transform="matrix(1 0 0 1 1655.43 1556)">
   <path d="M45.805-55.5007C45.2569-53.1948 46.2173-51.9691 48.8478-52.1194C58.5511-52.7341 70.19-53.2891 91.1333-53.2891C112.029-53.2891 123.716-52.7341 133.396-52.1194C136.027-51.9691 137.01-53.1948 136.462-55.5007C134.929-62.1696 132.258-70.1241 130.394-73.3719C128.647-76.5726 126.445-78.0486 122.599-78.5706C118.126-79.1825 107.645-79.5555 91.1333-79.5555C74.5522-79.5555 64.1178-79.1825 59.6673-78.5706C55.7988-78.0486 53.6074-76.5726 51.825-73.3719C49.9842-70.1241 47.3007-62.1696 45.805-55.5007ZM45.591-11.8222C51.3099-11.8222 55.6395-16.1519 55.6395-21.8932C55.6395-27.6121 51.3099-31.9418 45.591-31.9418C39.8496-31.9418 35.5424-27.6121 35.5424-21.8932C35.5424-16.1519 39.8496-11.8222 45.591-11.8222ZM74.4157-14.116L107.829-14.116C112.1-14.116 115.062-17.1024 115.062-21.3741C115.062-25.6458 112.1-28.6072 107.829-28.6072L74.4157-28.6072C70.1665-28.6072 67.205-25.6458 67.205-21.3741C67.205-17.1024 70.1665-14.116 74.4157-14.116ZM136.676-11.8222C142.395-11.8222 146.724-16.1519 146.724-21.8932C146.724-27.6121 142.395-31.9418 136.676-31.9418C130.934-31.9418 126.627-27.6121 126.627-21.8932C126.627-16.1519 130.934-11.8222 136.676-11.8222ZM91.1333 6.17991C112.365 6.17991 140.52 5.12394 152.478 3.7568C161.152 2.78412 166.16-2.04559 166.16-10.4019L166.16-21.4999C166.16-32.6144 164.018-38.6236 158.282-45.9565L152.743-53.0426C150.422-64.3818 146.241-76.2959 144.059-80.9483C140.598-88.2341 133.893-92.4924 125.559-93.5825C121.043-94.177 107.361-94.5197 91.1333-94.5197C74.9058-94.5197 61.1541-94.1295 56.6856-93.5825C48.374-92.5399 41.6577-88.2446 38.2079-80.9483C36.0366-76.2959 31.8442-64.3818 29.524-53.0426L23.9846-45.9565C18.2259-38.6236 16.084-32.6144 16.084-21.4999L16.084-10.4019C16.084-2.04559 21.1148 2.78412 29.7659 3.7568C41.7246 5.12394 69.8792 6.17991 91.1333 6.17991ZM91.1333-2.61225C69.817-2.61225 42.7546-3.60883 32.3375-4.87201C26.8396-5.57476 24.796-8.19016 24.796-13.0458L24.796-21.9204C24.796-30.5535 26.3552-34.6923 30.9854-40.7782L37.6314-49.4595C39.2984-58.434 43.3803-71.3553 45.9507-76.8234C48.1236-81.3694 52.2504-84.0964 57.9877-84.7846C62.2005-85.3092 74.7092-85.8537 91.1333-85.8537C107.535-85.8537 120.233-85.2882 124.162-84.7846C130.053-84.0594 134.075-81.3219 136.304-76.7918C138.865-71.4079 142.9-58.5076 144.613-49.4595L151.234-40.7782C155.889-34.6923 157.448-30.5535 157.448-21.9204L157.448-13.0458C157.448-8.19016 155.357-5.50485 149.929-4.87201C139.49-3.65376 112.38-2.61225 91.1333-2.61225ZM27.6583 23.3636L35.1432 23.3636C39.8638 23.3636 43.5258 19.749 43.5258 15.076L43.5258 0.3298L19.3008-3.83193L19.3008 15.076C19.3008 19.7266 22.9628 23.3636 27.6583 23.3636ZM147.123 23.3636L154.561 23.3636C159.304 23.3636 162.943 19.749 162.943 15.076L162.943-3.83193L138.718 0.3298L138.718 15.076C138.718 19.749 142.38 23.3636 147.123 23.3636Z"/>
  </g>
  <g id="Regular-L" transform="matrix(1 0 0 1 1360.02 1556)">
   <path d="M44.1089-54.1131C43.629-52.0851 44.4532-51.0597 46.8105-51.2205C57.1748-51.9192 69.0191-52.4796 89.8334-52.4796C110.595-52.4796 122.492-51.9192 132.829-51.2205C135.186-51.0597 136.038-52.0851 135.558-54.1131C133.889-61.384 131.049-69.8128 129.039-73.2709C127.345-76.2817 125.239-77.7722 121.594-78.2573C116.869-78.9007 106.294-79.3002 89.8334-79.3002C73.2924-79.3002 62.7697-78.9007 58.0726-78.2573C54.4005-77.7722 52.2943-76.2817 50.5753-73.2709C48.5925-69.8128 45.725-61.384 44.1089-54.1131ZM44.3961-11.5058C49.8745-11.5058 54.0159-15.6472 54.0159-21.1533C54.0159-26.6316 49.8745-30.773 44.3961-30.773C38.8901-30.773 34.7763-26.6316 34.7763-21.1533C34.7763-15.6472 38.8901-11.5058 44.3961-11.5058ZM73.4456-13.6014L106.194-13.6014C110.282-13.6014 113.087-16.431 113.087-20.5197C113.087-24.6084 110.282-27.4129 106.194-27.4129L73.4456-27.4129C69.3845-27.4129 66.58-24.6084 66.58-20.5197C66.58-16.431 69.3845-13.6014 73.4456-13.6014ZM135.271-11.5058C140.749-11.5058 144.89-15.6472 144.89-21.1533C144.89-26.6316 140.749-30.773 135.271-30.773C129.765-30.773 125.651-26.6316 125.651-21.1533C125.651-15.6472 129.765-11.5058 135.271-11.5058ZM89.8334 5.57597C110.725 5.57597 138.816 4.53051 150.744 3.16337C158.898 2.25364 163.555-2.1516 163.555-10.02L163.555-21.118C163.555-31.9321 161.24-37.6845 155.682-44.9295L150.316-51.9311C148.011-63.2703 143.83-75.2002 141.658-79.8369C138.308-86.8861 131.797-90.9195 123.803-91.9624C119.513-92.5253 105.59-92.847 89.8334-92.847C74.0766-92.847 60.0733-92.4726 55.8361-91.9624C47.8699-90.9723 41.3584-86.8861 38.0084-79.8369C35.8371-75.2002 31.6552-63.2703 29.3507-51.9311L23.9851-44.9295C18.3987-37.6845 16.084-31.9321 16.084-21.118L16.084-10.02C16.084-2.1516 20.7683 2.25364 28.8955 3.16337C40.8227 4.53051 68.9144 5.57597 89.8334 5.57597ZM89.8334-1.57042C68.731-1.57042 41.1695-2.53546 30.7749-3.82472C25.246-4.5485 23.2555-7.1696 23.2555-12.025L23.2555-21.118C23.2555-29.8612 24.6779-34.0255 29.644-40.5472L36.0171-48.8505C37.794-58.4485 41.9231-71.0919 44.4889-76.5979C46.6402-81.1116 50.7769-83.9591 56.7131-84.6577C60.7316-85.1403 73.5813-85.7006 89.8334-85.7006C106.058-85.7006 119.119-85.1403 122.82-84.6577C128.943-83.9063 132.974-81.0588 135.15-76.5979C137.744-71.0919 141.82-58.4485 143.622-48.8505L149.97-40.5472C154.961-34.0255 156.384-29.8612 156.384-21.118L156.384-12.025C156.384-7.1696 154.34-4.46808 148.892-3.82472C138.47-2.59077 110.855-1.57042 89.8334-1.57042ZM27.496 22.6348L34.8342 22.6348C39.4658 22.6348 43.0545 19.0989 43.0545 14.52L43.0545 0.306504L19.3008-3.03583L19.3008 14.52C19.3008 19.0712 22.8895 22.6348 27.496 22.6348ZM144.833 22.6348L152.118 22.6348C156.777 22.6348 160.338 19.0989 160.338 14.52L160.338-3.03583L136.585 0.306504L136.585 14.52C136.585 19.0989 140.173 22.6348 144.833 22.6348Z"/>
  </g>
  <g id="Light-L" transform="matrix(1 0 0 1 1064.43 1556)">
   <path d="M41.9714-54.0749C41.5487-52.2569 42.2202-51.0787 44.5393-51.2396C55.2854-51.9764 67.0342-52.4796 88.7264-52.4796C110.385-52.4796 122.167-51.9764 132.867-51.2396C135.186-51.0787 135.904-52.2569 135.481-54.0749C133.66-62.0902 130.858-70.1754 128.848-73.6335C127.039-76.8352 124.59-78.6883 120.373-79.2306C115.495-79.874 104.614-80.2163 88.7264-80.2163C72.758-80.2163 61.9109-79.874 57.0802-79.2306C52.8165-78.6883 50.3667-76.8352 48.5713-73.6335C46.6076-70.1754 43.7592-62.0902 41.9714-54.0749ZM43.2892-11.8112C48.3858-11.8112 52.2219-15.6472 52.2219-20.7906C52.2219-25.8873 48.3858-29.7234 43.2892-29.7234C38.1458-29.7234 34.3564-25.8873 34.3564-20.7906C34.3564-15.6472 38.1458-11.8112 43.2892-11.8112ZM72.7394-13.4106L104.667-13.4106C108.469-13.4106 111.045-15.973 111.045-19.7754C111.045-23.5778 108.469-26.1532 104.667-26.1532L72.7394-26.1532C68.9838-26.1532 66.4083-23.5778 66.4083-19.7754C66.4083-15.973 68.9838-13.4106 72.7394-13.4106ZM134.164-11.8112C139.26-11.8112 143.096-15.6472 143.096-20.7906C143.096-25.8873 139.26-29.7234 134.164-29.7234C129.02-29.7234 125.231-25.8873 125.231-20.7906C125.231-15.6472 129.02-11.8112 134.164-11.8112ZM88.7264 5.4042C109.217 5.4042 137.27 4.35874 149.16 2.9916C156.837 2.12005 161.322-1.88441 161.322-9.46653L161.322-20.5645C161.322-31.6267 158.797-37.131 153.62-43.9371L148.159-51.0532C145.874-62.3924 141.692-74.3413 139.521-78.9589C136.19-85.9891 129.736-89.698 122.219-90.6837C117.91-91.2466 103.758-91.5683 88.7264-91.5683C73.6948-91.5683 59.4626-91.213 55.1872-90.6837C47.7172-89.7317 41.263-85.9891 37.9321-78.9589C35.7607-74.3413 31.5789-62.3924 29.2935-51.0532L23.8325-43.9371C18.6086-37.131 16.084-31.6267 16.084-20.5645L16.084-9.46653C16.084-1.88441 20.6157 2.12005 28.2466 2.9916C40.1356 4.35874 68.1891 5.4042 88.7264 5.4042ZM88.7264-0.291703C68.1012-0.291703 40.4443-1.25674 29.5916-2.60327C23.91-3.32705 21.7668-5.81455 21.7668-10.7463L21.7668-20.5645C21.7668-29.4031 23.2274-33.7774 28.3462-40.4709L34.5667-48.6214C36.5153-58.8493 40.6635-71.2827 43.0575-76.4261C45.3615-81.1689 49.6891-84.1499 55.8924-84.8868C59.8536-85.3693 72.9133-85.8724 88.7264-85.8724C104.493-85.8724 117.687-85.3693 121.446-84.8868C127.797-84.1162 132.058-81.1352 134.349-76.4261C136.789-71.2827 140.904-58.8493 142.839-48.6214L149.073-40.4709C154.179-33.7774 155.639-29.4031 155.639-20.5645L155.639-10.7463C155.639-5.81455 153.462-3.24663 147.861-2.60327C136.962-1.35023 109.271-0.291703 88.7264-0.291703ZM27.3242 22.0813L34.5097 22.0813C39.0077 22.0813 42.5201 18.6027 42.5201 14.1383L42.5201 0.993574L19.3008-2.1579L19.3008 14.1383C19.3008 18.5559 22.8131 22.0813 27.3242 22.0813ZM142.943 22.0813L150.095 22.0813C154.64 22.0813 158.105 18.6027 158.105 14.1383L158.105-2.1579L134.886 0.993574L134.886 14.1383C134.886 18.6027 138.398 22.0813 142.943 22.0813Z"/>
  </g>
  <g id="Thin-L" transform="matrix(1 0 0 1 769.196 1556)">
   <path d="M39.1443-54.0244C38.7973-52.4841 39.2669-51.104 41.5355-51.2648C52.7864-52.0522 64.4091-52.4796 87.2624-52.4796C110.107-52.4796 121.738-52.0522 132.917-51.2648C135.186-51.104 135.727-52.4841 135.38-54.0244C133.357-63.0241 130.606-70.655 128.595-74.1131C126.636-77.5672 123.731-79.8999 118.757-80.518C113.678-81.1613 102.393-81.4279 87.2624-81.4279C72.0512-81.4279 60.775-81.1613 55.7676-80.518C50.7214-79.8999 47.8173-77.5672 45.921-74.1131C43.9824-70.655 41.1593-63.0241 39.1443-54.0244ZM41.8251-12.215C46.417-12.215 49.8492-15.6472 49.8492-20.311C49.8492-24.9029 46.417-28.3351 41.8251-28.3351C37.1613-28.3351 33.8011-24.9029 33.8011-20.311C33.8011-15.6472 37.1613-12.215 41.8251-12.215ZM71.8054-13.1582L102.647-13.1582C106.071-13.1582 108.344-15.3672 108.344-18.7909C108.344-22.2147 106.071-24.4873 102.647-24.4873L71.8054-24.4873C68.4537-24.4873 66.1811-22.2147 66.1811-18.7909C66.1811-15.3672 68.4537-13.1582 71.8054-13.1582ZM132.7-12.215C137.291-12.215 140.724-15.6472 140.724-20.311C140.724-24.9029 137.291-28.3351 132.7-28.3351C128.036-28.3351 124.676-24.9029 124.676-20.311C124.676-15.6472 128.036-12.215 132.7-12.215ZM87.2624 5.17702C107.223 5.17702 135.226 4.13157 147.064 2.76443C154.111 1.94335 158.369-1.53102 158.369-8.73452L158.369-19.8325C158.369-31.2228 155.566-36.399 150.894-42.6245L145.307-49.8921C143.047-61.2313 138.865-73.2054 136.694-77.7978C133.388-84.8028 127.01-88.0826 120.124-88.9925C115.79-89.5554 101.335-89.8771 87.2624-89.8771C73.19-89.8771 58.6548-89.547 54.329-88.9925C47.5152-88.091 41.1368-84.8028 37.8311-77.7978C35.6598-73.2054 31.4779-61.2313 29.2177-49.8921L23.6305-42.6245C18.8863-36.399 16.084-31.2228 16.084-19.8325L16.084-8.73452C16.084-1.53102 20.4137 1.94335 27.3883 2.76443C39.2269 4.13157 67.2299 5.17702 87.2624 5.17702ZM87.2624 1.3995C67.2682 1.3995 39.4851 0.43446 28.0267-0.98779C22.1431-1.71157 19.798-4.02238 19.798-9.05509L19.798-19.8325C19.798-28.7973 21.3091-33.4493 26.6297-40.3699L32.6483-48.3185C34.8241-59.3794 38.9975-71.5351 41.1644-76.1989C43.6703-81.2446 48.2503-84.4023 54.807-85.1897C58.6925-85.6722 72.0298-86.0996 87.2624-86.0996C102.423-86.0996 115.794-85.6722 119.629-85.1897C126.283-84.3939 130.846-81.2362 133.288-76.1989C135.527-71.5351 139.692-59.3794 141.805-48.3185L147.887-40.3699C153.144-33.4493 154.655-28.7973 154.655-19.8325L154.655-9.05509C154.655-4.02238 152.301-1.63115 146.498-0.98779C134.968 0.290493 107.176 1.3995 87.2624 1.3995ZM27.097 21.3493L34.0806 21.3493C38.4019 21.3493 41.8133 17.9464 41.8133 13.6335L41.8133 1.90228L19.3008-0.996779L19.3008 13.6335C19.3008 17.8744 22.7122 21.3493 27.097 21.3493ZM140.444 21.3493L147.419 21.3493C151.813 21.3493 155.152 17.9464 155.152 13.6335L155.152-0.996779L132.639 1.90228L132.639 13.6335C132.639 17.9464 136.051 21.3493 140.444 21.3493Z"/>
  </g>
  <g id="Ultralight-L" transform="matrix(1 0 0 1 473.241 1556)">
   <path d="M37.6963-53.9986C37.3881-52.6004 37.7543-51.1169 39.997-51.2778C51.5065-52.0909 63.0645-52.4796 86.5125-52.4796C109.965-52.4796 121.519-52.0909 132.943-51.2778C135.186-51.1169 135.637-52.6004 135.329-53.9986C133.202-63.5025 130.477-70.9007 128.466-74.3587C126.429-77.9421 123.292-80.5205 117.93-81.1773C112.747-81.8207 101.255-82.0485 86.5125-82.0485C71.6892-82.0485 60.1932-81.8207 55.0953-81.1773C49.6483-80.5205 46.5115-77.9421 44.5634-74.3587C42.6378-70.9007 39.8276-63.5025 37.6963-53.9986ZM41.0753-12.4219C45.4085-12.4219 48.6338-15.6472 48.6338-20.0654C48.6338-24.3986 45.4085-27.624 41.0753-27.624C36.6571-27.624 33.5167-24.3986 33.5167-20.0654C33.5167-15.6472 36.6571-12.4219 41.0753-12.4219ZM71.3271-13.0289L101.613-13.0289C104.843-13.0289 106.96-15.0569 106.96-18.2867C106.96-21.5166 104.843-23.634 101.613-23.634L71.3271-23.634C68.1822-23.634 66.0647-21.5166 66.0647-18.2867C66.0647-15.0569 68.1822-13.0289 71.3271-13.0289ZM131.95-12.4219C136.283-12.4219 139.508-15.6472 139.508-20.0654C139.508-24.3986 136.283-27.624 131.95-27.624C127.532-27.624 124.391-24.3986 124.391-20.0654C124.391-15.6472 127.532-12.4219 131.95-12.4219ZM86.5125 5.06067C106.201 5.06067 134.179 4.01521 145.991 2.64807C152.715 1.85285 156.856-1.35002 156.856-8.35958L156.856-19.4575C156.856-31.016 153.912-36.024 149.498-41.9522L143.846-49.2974C141.599-60.6366 137.417-72.6236 135.246-77.2031C131.953-84.1951 125.613-87.2551 119.051-88.1263C114.704-88.6892 100.094-89.0109 86.5125-89.0109C72.9314-89.0109 58.2411-88.6937 53.8894-88.1263C47.4118-87.2506 41.0721-84.1951 37.7794-77.2031C35.6081-72.6236 31.4262-60.6366 29.179-49.2974L23.5271-41.9522C19.0285-36.024 16.084-31.016 16.084-19.4575L16.084-8.35958C16.084-1.35002 20.3103 1.85285 26.9488 2.64807C38.7615 4.01521 66.7387 5.06067 86.5125 5.06067ZM86.5125 2.26572C66.8415 2.26572 38.9938 1.30069 27.2251-0.160351C21.2381-0.88413 18.7895-3.10444 18.7895-8.18887L18.7895-19.4575C18.7895-28.487 20.3265-33.2812 25.7506-40.3182L31.6657-48.1634C33.9579-59.6509 38.1442-71.6644 40.1947-76.0826C42.8041-81.2834 47.5134-84.5316 54.2511-85.3448C58.0978-85.8273 71.5773-86.2159 86.5125-86.2159C101.363-86.2159 114.824-85.8273 118.698-85.3448C125.507-84.5361 130.225-81.2879 132.745-76.0826C134.881-71.6644 139.072-59.6509 141.274-48.1634L147.279-40.3182C152.614-33.2812 154.151-28.487 154.151-19.4575L154.151-8.18887C154.151-3.10444 151.707-0.80371 145.8-0.160351C133.946 1.13086 106.103 2.26572 86.5125 2.26572ZM26.9807 20.9744L33.8608 20.9744C38.0916 20.9744 41.4513 17.6102 41.4513 13.3749L41.4513 2.36771L19.3008-0.402057L19.3008 13.3749C19.3008 17.5253 22.6604 20.9744 26.9807 20.9744ZM139.164 20.9744L146.049 20.9744C150.365 20.9744 153.639 17.6102 153.639 13.3749L153.639-0.402057L131.489 2.36771L131.489 13.3749C131.489 17.6102 134.848 20.9744 139.164 20.9744Z"/>
  </g>
  <g id="Black-M" transform="matrix(1 0 0 1 2857.12 1126)">
   <path d="M42.6568-57.3824C41.9343-54.3735 43.2604-52.4395 46.5575-52.507C51.1269-52.6052 59.1556-52.9903 76.281-52.9903C93.4009-52.9903 101.435-52.6052 106.005-52.507C109.302-52.4395 110.628-54.3735 109.905-57.3824C109.3-59.9992 108.027-63.8369 107.269-65.3741C105.63-68.8028 103.361-70.0019 99.2477-70.598C96.9028-70.9252 89.114-71.0715 76.281-71.0715C63.4428-71.0715 55.6595-70.9252 53.3143-70.598C49.2012-70.0019 46.9895-68.8028 45.2878-65.3741C44.5292-63.8369 43.3137-59.9992 42.6568-57.3824ZM40.5079-18.6721C45.9287-18.6721 50.0555-22.7989 50.0555-28.2194C50.0555-33.6402 45.9287-37.767 40.5079-37.767C35.0874-37.767 30.9603-33.6402 30.9603-28.2194C30.9603-22.7989 35.0874-18.6721 40.5079-18.6721ZM61.9297-21.2027L90.6325-21.2027C94.6968-21.2027 97.644-24.1556 97.644-28.2199C97.644-32.2841 94.6968-35.2313 90.6325-35.2313L61.9297-35.2313C57.8652-35.2313 54.918-32.2841 54.918-28.2199C54.918-24.1556 57.8652-21.2027 61.9297-21.2027ZM112.054-18.6721C117.475-18.6721 121.602-22.7989 121.602-28.2194C121.602-33.6402 117.475-37.767 112.054-37.767C106.634-37.767 102.506-33.6402 102.506-28.2194C102.506-22.7989 106.634-18.6721 112.054-18.6721ZM76.281-0.394295C94.1784-0.394295 116.271-1.26135 125.669-2.32053C134.642-3.35424 140.101-8.93596 140.101-17.5843L140.101-26.1824C140.101-36.2767 139.175-42.0433 134.034-47.9843L128.901-53.9066C127.037-62.6916 123.797-71.8553 122.058-75.5263C118.87-82.2655 112.789-86.5017 104.911-87.5461C100.353-88.1535 90.7979-88.5169 76.281-88.5169C61.7641-88.5169 52.2034-88.148 47.6509-87.5461C39.7727-86.5072 33.6351-82.3226 30.5042-75.5263C28.822-71.8553 25.525-62.6916 23.6608-53.9066L18.5276-47.9843C13.3874-42.0433 12.4609-36.2767 12.4609-26.1824L12.4609-17.5843C12.4609-8.93596 17.9196-3.35424 26.893-2.32053C36.2912-1.26135 58.3839-0.394295 76.281-0.394295ZM76.281-14.3753C58.9326-14.3753 40.2574-15.2943 31.926-16.1709C27.7591-16.6174 25.8768-18.5717 25.8768-22.3607L25.8768-28.4662C25.8768-34.6747 27.7347-37.8335 29.8097-40.5781L36.1771-49.0118C37.0158-53.2762 39.9646-64.5094 41.9195-68.4454C43.7551-72.1957 46.9713-73.793 50.5812-74.2908C54.7302-74.8931 62.905-75.2211 76.281-75.2211C89.6573-75.2211 97.854-74.7789 101.97-74.2908C105.539-73.8446 108.687-72.1902 110.7-68.2741C112.483-64.7949 115.427-53.6759 116.385-49.0118L122.747-40.5781C124.828-37.8335 126.686-34.6747 126.686-28.4662L126.686-22.3607C126.686-18.5717 124.798-16.6122 120.636-16.1709C112.305-15.2937 93.6242-14.3753 76.281-14.3753ZM22.1257 13.3703L28.5556 13.3703C32.5813 13.3703 35.734 10.2231 35.734 6.20289L35.734-7.33789L14.9531-14.3125L14.9531 6.20289C14.9531 10.2234 18.1058 13.3703 22.1257 13.3703ZM124.006 13.3703L130.431 13.3703C134.456 13.3703 137.609 10.2231 137.609 6.20289L137.609-14.3125L116.828-7.33789L116.828 6.20289C116.828 10.2231 119.981 13.3703 124.006 13.3703Z"/>
  </g>
  <g id="Heavy-M" transform="matrix(1 0 0 1 2561.84 1126)">
   <path d="M40.9421-55.6121C40.2947-52.9143 41.479-51.2697 44.4342-51.3507C49.7689-51.5483 58.0812-51.9527 74.8526-51.9527C91.6076-51.9527 99.9363-51.5483 105.269-51.3507C108.224-51.2697 109.411-52.9143 108.763-55.6121C108.016-58.8406 106.519-63.36 105.572-65.1666C104.026-68.311 101.954-69.4509 98.2217-69.9873C95.5868-70.3549 87.7437-70.5474 74.8526-70.5474C61.9428-70.5474 54.1161-70.3549 51.4836-69.9873C47.7493-69.4509 45.7207-68.311 44.1165-65.1666C43.1719-63.36 41.7164-58.8406 40.9421-55.6121ZM39.2142-18.2009C44.4087-18.2009 48.3599-22.1521 48.3599-27.3489C48.3599-32.5433 44.4087-36.4945 39.2142-36.4945C34.0175-36.4945 30.0686-32.5433 30.0686-27.3489C30.0686-22.1521 34.0175-18.2009 39.2142-18.2009ZM60.838-20.5842L88.8649-20.5842C92.7561-20.5842 95.5513-23.3935 95.5513-27.2847C95.5513-31.1759 92.7561-33.9711 88.8649-33.9711L60.838-33.9711C56.9491-33.9711 54.1539-31.1759 54.1539-27.2847C54.1539-23.3935 56.9491-20.5842 60.838-20.5842ZM110.491-18.2009C115.685-18.2009 119.637-22.1521 119.637-27.3489C119.637-32.5433 115.685-36.4945 110.491-36.4945C105.294-36.4945 101.345-32.5433 101.345-27.3489C101.345-22.1521 105.294-18.2009 110.491-18.2009ZM74.8526-1.13147C92.3999-1.13147 114.42-1.98505 123.786-3.04423C132.197-4.00545 137.242-9.12924 137.242-17.2138L137.242-25.8118C137.242-35.4677 136.139-40.9585 131.144-46.8812L126.254-52.6706C124.406-61.4556 121.166-70.6353 119.44-74.2903C116.39-80.7305 110.546-84.748 103.001-85.7443C98.7373-86.3113 88.922-86.6478 74.8526-86.6478C60.7832-86.6478 50.9493-86.2949 46.7016-85.7443C39.1594-84.7644 33.272-80.7742 30.2649-74.2903C28.5827-70.6353 25.2992-61.4556 23.451-52.6706L18.561-46.8812C13.5637-40.9585 12.4609-35.4677 12.4609-25.8118L12.4609-17.2138C12.4609-9.12924 17.5084-4.00545 25.9168-3.04423C35.2829-1.98505 57.3031-1.13147 74.8526-1.13147ZM74.8526-13.3147C57.6759-13.3147 38.3816-14.1932 30.1775-15.091C26.0035-15.5645 24.2221-17.5547 24.2221-21.327L24.2221-27.5567C24.2221-33.8857 25.8965-37.0322 28.3693-40.2984L34.4197-48.2804C35.3622-53.2086 38.3676-64.1307 40.3533-68.1933C42.1285-71.853 45.3164-73.576 49.1238-74.079C53.036-74.6273 61.6028-74.988 74.8526-74.988C88.1001-74.988 96.7325-74.54 100.546-74.079C104.362-73.6032 107.473-71.8366 109.393-68.0624C111.25-64.3488 114.239-53.514 115.283-48.2804L121.32-40.2984C123.806-37.0322 125.481-33.8857 125.481-27.5567L125.481-21.327C125.481-17.5547 123.683-15.5458 119.528-15.091C111.321-14.1977 92.0106-13.3147 74.8526-13.3147ZM21.9545 12.555L28.2292 12.555C32.1696 12.555 35.2447 9.49641 35.2447 5.57234L35.2447-7.51534L14.9531-13.4807L14.9531 5.57234C14.9531 9.49413 18.0282 12.555 21.9545 12.555ZM121.476 12.555L127.734 12.555C131.677 12.555 134.75 9.49641 134.75 5.57234L134.75-13.4807L114.458-7.51534L114.458 5.57234C114.458 9.49641 117.533 12.555 121.476 12.555Z"/>
  </g>
  <g id="Bold-M" transform="matrix(1 0 0 1 2266.73 1126)">
   <path d="M39.024-53.6318C38.4605-51.2819 39.4863-49.9612 42.0589-50.0572C48.2497-50.3661 56.8793-50.7921 73.2547-50.7921C89.6015-50.7921 98.2598-50.3661 104.445-50.0572C107.018-49.9612 108.049-51.2819 107.486-53.6318C106.58-57.5446 104.833-62.8265 103.675-64.9346C102.232-67.7609 100.379-68.8345 97.0739-69.3042C94.1147-69.7169 86.2107-69.9612 73.2547-69.9612C60.265-69.9612 52.3896-69.7169 49.4356-69.3042C46.1251-68.8345 44.3013-67.7609 42.8063-64.9346C41.6535-62.8265 39.9295-57.5446 39.024-53.6318ZM37.7671-17.6739C42.7084-17.6739 46.4631-21.4286 46.4631-26.375C46.4631-31.3163 42.7084-35.071 37.7671-35.071C32.8207-35.071 29.0711-31.3163 29.0711-26.375C29.0711-21.4286 32.8207-17.6739 37.7671-17.6739ZM59.6167-19.8924L86.8876-19.8924C90.5851-19.8924 93.2103-22.5411 93.2103-26.2386C93.2103-29.9361 90.5851-32.5614 86.8876-32.5614L59.6167-32.5614C55.9243-32.5614 53.2991-29.9361 53.2991-26.2386C53.2991-22.5411 55.9243-19.8924 59.6167-19.8924ZM108.742-17.6739C113.684-17.6739 117.438-21.4286 117.438-26.375C117.438-31.3163 113.684-35.071 108.742-35.071C103.796-35.071 100.046-31.3163 100.046-26.375C100.046-21.4286 103.796-17.6739 108.742-17.6739ZM73.2547-1.9561C90.4103-1.9561 112.349-2.79461 121.68-3.85379C129.461-4.73392 134.043-9.34544 134.043-16.7992L134.043-25.3972C134.043-34.5628 132.743-39.7451 127.911-45.6472L123.293-51.2879C121.463-60.0729 118.223-69.2706 116.512-72.9077C113.615-79.0134 108.036-82.7863 100.865-83.7288C96.9294-84.2506 86.8236-84.5569 73.2547-84.5569C59.6859-84.5569 49.5464-84.222 45.6396-83.7288C38.4733-82.8149 32.8658-79.0419 29.9972-72.9077C28.315-69.2706 25.0466-60.0729 23.2163-51.2879L18.5984-45.6472C13.761-39.7451 12.4609-34.5628 12.4609-25.3972L12.4609-16.7992C12.4609-9.34544 17.0483-4.73392 24.8247-3.85379C34.1549-2.79461 56.094-1.9561 73.2547-1.9561ZM73.2547-12.1282C56.2701-12.1282 36.2832-12.9615 28.2215-13.8829C24.0397-14.3866 22.371-16.4171 22.371-20.1707L22.371-26.5392C22.371-33.0031 23.8402-36.1358 26.7579-39.9855L32.4538-47.4623C33.5125-53.133 36.581-63.7071 38.6013-67.9113C40.309-71.4697 43.4651-73.3333 47.4934-73.842C51.1409-74.33 60.1461-74.7274 73.2547-74.7274C86.3582-74.7274 95.4779-74.2729 98.9537-73.842C103.044-73.3332 106.115-71.441 107.932-67.8256C109.871-63.8498 112.911-53.3328 114.051-47.4623L119.723-39.9855C122.664-36.1358 124.133-33.0031 124.133-26.5392L124.133-20.1707C124.133-16.4171 122.436-14.3528 118.288-13.8829C110.221-12.9718 90.2056-12.1282 73.2547-12.1282ZM21.7629 11.643L27.864 11.643C31.7091 11.643 34.6973 8.68344 34.6973 4.86698L34.6973-7.71384L14.9531-12.5502L14.9531 4.86698C14.9531 8.67831 17.9413 11.643 21.7629 11.643ZM118.645 11.643L124.718 11.643C128.568 11.643 131.551 8.68344 131.551 4.86698L131.551-12.5502L111.807-7.71384L111.807 4.86698C111.807 8.68344 114.795 11.643 118.645 11.643Z"/>
  </g>
  <g id="Semibold-M" transform="matrix(1 0 0 1 1971.12 1126)">
   <path d="M37.7016-52.2666C37.196-50.1566 38.1125-49.0591 40.4214-49.1655C47.2024-49.5511 56.0508-49.9919 72.1532-49.9919C88.2185-49.9919 97.104-49.5511 103.878-49.1655C106.187-49.0591 107.11-50.1566 106.605-52.2666C105.59-56.6512 103.67-62.4586 102.366-64.7746C100.995-67.3816 99.2938-68.4096 96.2826-68.8332C93.0999-69.2771 85.1539-69.557 72.1532-69.557C59.1083-69.557 51.1994-69.2771 48.0237-68.8332C45.0054-68.4096 43.3228-67.3816 41.903-64.7746C40.6067-62.4586 38.6976-56.6512 37.7016-52.2666ZM36.7695-17.3106C41.5362-17.3106 45.1555-20.9298 45.1555-25.7037C45.1555-30.4705 41.5362-34.0897 36.7695-34.0897C31.9956-34.0897 28.3834-30.4705 28.3834-25.7037C28.3834-20.9298 31.9956-17.3106 36.7695-17.3106ZM58.7748-19.4154L85.5244-19.4154C89.0885-19.4154 91.5965-21.9534 91.5965-25.5174C91.5965-29.0815 89.0885-31.5895 85.5244-31.5895L58.7748-31.5895C55.2179-31.5895 52.7099-29.0815 52.7099-25.5174C52.7099-21.9534 55.2179-19.4154 58.7748-19.4154ZM107.537-17.3106C112.304-17.3106 115.923-20.9298 115.923-25.7037C115.923-30.4705 112.304-34.0897 107.537-34.0897C102.763-34.0897 99.1509-30.4705 99.1509-25.7037C99.1509-20.9298 102.763-17.3106 107.537-17.3106ZM72.1532-2.5246C89.0388-2.5246 110.922-3.35272 120.227-4.4119C127.575-5.23612 131.838-9.49449 131.838-16.5134L131.838-25.1114C131.838-33.9389 130.402-38.9085 125.682-44.7965L121.252-50.3347C119.434-59.1197 116.194-68.3297 114.494-71.9545C111.702-77.8296 106.306-81.4339 99.3917-82.3393C95.683-82.8299 85.3769-83.1155 72.1532-83.1155C58.9294-83.1155 48.5792-82.7929 44.9075-82.3393C38.0002-81.4709 32.5858-77.8478 29.8127-71.9545C28.1304-68.3297 24.8724-59.1197 23.0545-50.3347L18.6242-44.7965C13.897-38.9085 12.4609-33.9389 12.4609-25.1114L12.4609-16.5134C12.4609-9.49449 16.7312-5.23612 24.0718-4.4119C33.3773-3.35272 55.2605-2.5246 72.1532-2.5246ZM72.1532-11.3102C55.301-11.3102 34.8366-12.1124 26.873-13.0501C22.6859-13.5745 21.0949-15.6328 21.0949-19.3735L21.0949-25.8377C21.0949-32.3946 22.4225-35.5178 25.647-39.7698L31.0986-46.8982C32.2374-53.0809 35.3494-63.4151 37.3935-67.7169C39.0546-71.2054 42.1889-73.1659 46.3695-73.6786C49.8344-74.125 59.1418-74.5477 72.1532-74.5477C85.1574-74.5477 94.613-74.0887 97.8557-73.6786C102.136-73.1471 105.178-71.1684 106.924-67.6624C108.921-63.5059 111.996-53.208 113.201-46.8982L118.622-39.7698C121.877-35.5178 123.204-32.3946 123.204-25.8377L123.204-19.3735C123.204-15.6328 121.576-13.5304 117.433-13.0501C109.463-12.1266 88.9612-11.3102 72.1532-11.3102ZM21.6309 11.0143L27.6122 11.0143C31.3916 11.0143 34.3199 8.12299 34.3199 4.38071L34.3199-7.85069L14.9531-11.9088L14.9531 4.38071C14.9531 8.11589 17.8815 11.0143 21.6309 11.0143ZM116.694 11.0143L122.638 11.0143C126.425 11.0143 129.346 8.12299 129.346 4.38071L129.346-11.9088L109.979-7.85069L109.979 4.38071C109.979 8.12299 112.908 11.0143 116.694 11.0143Z"/>
  </g>
  <g id="Medium-M" transform="matrix(1 0 0 1 1675.24 1126)">
   <path d="M36.6989-51.2314C36.2372-49.3033 37.0709-48.3751 39.1798-48.4894C46.4082-48.9331 55.4225-49.3852 71.3179-49.3852C87.1699-49.3852 96.2276-48.9331 103.447-48.4894C105.556-48.3751 106.399-49.3033 105.937-51.2314C104.839-55.9737 102.788-62.1798 101.374-64.6533C100.057-67.0941 98.4708-68.0874 95.6827-68.4761C92.3304-68.9437 84.3526-69.2506 71.3179-69.2506C58.2312-69.2506 50.2969-68.9437 46.9532-68.4761C44.1564-68.0874 42.5808-67.0941 41.2181-64.6533C39.813-62.1798 37.7636-55.9737 36.6989-51.2314ZM36.013-17.0351C40.6474-17.0351 44.164-20.5516 44.164-25.1947C44.164-29.8291 40.6474-33.3456 36.013-33.3456C31.37-33.3456 27.862-29.8291 27.862-25.1947C27.862-20.5516 31.37-17.0351 36.013-17.0351ZM58.1364-19.0538L84.4908-19.0538C87.9536-19.0538 90.3728-21.5078 90.3728-24.9706C90.3728-28.4334 87.9536-30.8526 84.4908-30.8526L58.1364-30.8526C54.6822-30.8526 52.263-28.4334 52.263-24.9706C52.263-21.5078 54.6822-19.0538 58.1364-19.0538ZM106.623-17.0351C111.257-17.0351 114.774-20.5516 114.774-25.1947C114.774-29.8291 111.257-33.3456 106.623-33.3456C101.98-33.3456 98.4719-29.8291 98.4719-25.1947C98.4719-20.5516 101.98-17.0351 106.623-17.0351ZM71.3179-2.95566C87.9988-2.95566 109.84-3.7759 119.126-4.83508C126.145-5.61692 130.166-9.60751 130.166-16.2967L130.166-24.8947C130.166-33.4659 128.627-38.2742 123.992-44.1514L119.704-49.612C117.895-58.3969 114.656-67.6163 112.963-71.2317C110.252-76.932 104.994-80.4085 98.2748-81.2858C94.738-81.7527 84.28-82.0225 71.3179-82.0225C58.3559-82.0225 47.8459-81.7093 44.3524-81.2858C37.6416-80.4519 32.3734-76.9423 29.6727-71.2317C27.9905-67.6163 24.7404-58.3969 22.9319-49.612L18.6438-44.1514C14.0001-38.2742 12.4609-33.4659 12.4609-24.8947L12.4609-16.2967C12.4609-9.60751 16.4908-5.61692 23.5009-4.83508C32.7877-3.7759 54.6285-2.95566 71.3179-2.95566ZM71.3179-10.69C54.5662-10.69 33.7397-11.4685 25.8506-12.4186C21.6594-12.9588 20.1274-15.0382 20.1274-18.7691L20.1274-25.3058C20.1274-31.9332 21.3476-35.0493 24.8046-39.6062L30.0709-46.4706C31.2705-53.0414 34.4155-63.1936 36.4776-67.5695C38.1034-71.005 41.2212-73.0391 45.5173-73.5547C48.8437-73.9696 58.3804-74.4114 71.3179-74.4114C84.2469-74.4114 93.9572-73.9491 97.0231-73.5547C101.448-73.0059 104.468-70.9616 106.16-67.5386C108.2-63.245 111.301-53.1133 112.556-46.4706L117.788-39.6062C121.28-35.0493 122.5-31.9332 122.5-25.3058L122.5-18.7691C122.5-15.0382 120.924-12.9068 116.785-12.4186C108.888-11.4857 88.0177-10.69 71.3179-10.69ZM21.5308 10.5376L27.4214 10.5376C31.1508 10.5376 34.0338 7.69803 34.0338 4.012L34.0338-7.95445L14.9531-11.4224L14.9531 4.012C14.9531 7.68943 17.8361 10.5376 21.5308 10.5376ZM115.214 10.5376L121.062 10.5376C124.8 10.5376 127.674 7.69803 127.674 4.012L127.674-11.4224L108.593-7.95445L108.593 4.012C108.593 7.69803 111.476 10.5376 115.214 10.5376Z"/>
  </g>
  <g id="Regular-M" transform="matrix(1 0 0 1 1379.62 1126)">
   <path d="M35.3911-49.8811C34.9867-48.1904 35.7122-47.4829 37.5602-47.6075C45.3724-48.1271 54.6031-48.5938 70.2285-48.5938C85.8021-48.5938 95.0845-48.1271 102.886-47.6075C104.734-47.4829 105.47-48.1904 105.066-49.8811C103.86-55.0901 101.638-61.816 100.08-64.4951C98.8333-66.719 97.3973-67.6671 94.9001-68.0103C91.3267-68.5087 83.3074-68.8509 70.2285-68.8509C57.0872-68.8509 49.1197-68.5087 45.5568-68.0103C43.0491-67.6671 41.6131-66.719 40.3248-64.4951C38.7777-61.816 36.5453-55.0901 35.3911-49.8811ZM35.0263-16.6758C39.4882-16.6758 42.8707-20.0583 42.8707-24.5307C42.8707-28.9925 39.4882-32.3751 35.0263-32.3751C30.5539-32.3751 27.1819-28.9925 27.1819-24.5307C27.1819-20.0583 30.5539-16.6758 35.0263-16.6758ZM57.3038-18.5821L83.1426-18.5821C86.4734-18.5821 88.7767-20.9266 88.7767-24.2574C88.7767-27.5882 86.4734-29.8914 83.1426-29.8914L57.3038-29.8914C53.9835-29.8914 51.6802-27.5882 51.6802-24.2574C51.6802-20.9266 53.9835-18.5821 57.3038-18.5821ZM105.431-16.6758C109.892-16.6758 113.275-20.0583 113.275-24.5307C113.275-28.9925 109.892-32.3751 105.431-32.3751C100.958-32.3751 97.5862-28.9925 97.5862-24.5307C97.5862-20.0583 100.958-16.6758 105.431-16.6758ZM70.2285-3.51791C86.6422-3.51791 108.428-4.32787 117.69-5.38705C124.28-6.1136 127.985-9.75492 127.985-16.014L127.985-24.6121C127.985-32.8489 126.312-37.4469 121.788-43.31L117.685-48.6692C115.889-57.4542 112.649-66.6858 110.967-70.289C108.36-75.7612 103.283-79.0709 96.818-79.9115C93.5053-80.3477 82.8492-80.5969 70.2285-80.5969C57.6077-80.5969 46.8893-80.2959 43.6284-79.9115C37.1738-79.1227 32.0965-75.7612 29.4902-70.289C27.808-66.6858 24.5681-57.4542 22.7719-48.6692L18.6693-43.31C14.1346-37.4469 12.4609-32.8489 12.4609-24.6121L12.4609-16.014C12.4609-9.75492 16.1771-6.1136 22.7563-5.38705C32.0186-4.32787 53.8041-3.51791 70.2285-3.51791ZM70.2285-9.88107C53.6077-9.88107 32.309-10.6287 24.5169-11.5949C20.3204-12.1557 18.8653-14.2625 18.8653-17.9807L18.8653-24.6121C18.8653-31.3314 19.9456-34.4381 23.706-39.3929L28.7305-45.9127C30.0093-52.9898 33.1974-62.9048 35.2831-67.3772C36.8628-70.7437 39.9589-72.8736 44.4057-73.3931C47.5516-73.7669 57.3872-74.2337 70.2285-74.2337C83.0592-74.2337 93.1018-73.7669 95.9372-73.3931C100.55-72.8218 103.542-70.6919 105.163-67.3772C107.26-62.9048 110.396-52.9898 111.716-45.9127L116.699-39.3929C120.501-34.4381 121.581-31.3314 121.581-24.6121L121.581-17.9807C121.581-14.2625 120.074-12.0934 115.94-11.5949C108.137-10.6498 86.787-9.88107 70.2285-9.88107ZM21.4002 9.9158L27.1724 9.9158C30.8368 9.9158 33.6606 7.14374 33.6606 3.53107L33.6606-8.08979L14.9531-10.788L14.9531 3.53107C14.9531 7.13319 17.7769 9.9158 21.4002 9.9158ZM113.285 9.9158L119.005 9.9158C122.68 9.9158 125.493 7.14374 125.493 3.53107L125.493-10.788L106.786-8.08979L106.786 3.53107C106.786 7.14374 109.61 9.9158 113.285 9.9158Z"/>
  </g>
  <g id="Light-M" transform="matrix(1 0 0 1 1083.91 1126)">
   <path d="M33.4747-49.8469C33.1216-48.3444 33.7102-47.5 35.524-47.6246C43.6785-48.1784 52.8235-48.5938 69.236-48.5938C85.6139-48.5938 94.7936-48.1784 102.92-47.6246C104.734-47.5 105.351-48.3444 104.997-49.8469C103.655-55.7232 101.467-62.1411 99.9093-64.8202C98.5596-67.2152 96.8155-68.4884 93.805-68.8829C90.0947-69.3814 81.8017-69.6722 69.236-69.6722C56.6081-69.6722 48.3497-69.3814 44.667-68.8829C41.6289-68.4884 39.8849-67.2152 38.5281-64.8202C36.9982-62.1411 34.7828-55.7232 33.4747-49.8469ZM34.0339-16.9495C38.1535-16.9495 41.2623-20.0583 41.2623-24.2056C41.2623-28.3252 38.1535-31.434 34.0339-31.434C29.8866-31.434 26.8055-28.3252 26.8055-24.2056C26.8055-20.0583 29.8866-16.9495 34.0339-16.9495ZM56.6706-18.411L81.7738-18.411C84.8479-18.411 86.9458-20.5159 86.9458-23.59C86.9458-26.6642 84.8479-28.7621 81.7738-28.7621L56.6706-28.7621C53.6242-28.7621 51.5262-26.6642 51.5262-23.59C51.5262-20.5159 53.6242-18.411 56.6706-18.411ZM104.438-16.9495C108.558-16.9495 111.667-20.0583 111.667-24.2056C111.667-28.3252 108.558-31.434 104.438-31.434C100.291-31.434 97.2098-28.3252 97.2098-24.2056C97.2098-20.0583 100.291-16.9495 104.438-16.9495ZM69.236-3.67191C85.2905-3.67191 107.042-4.48187 116.27-5.54105C122.432-6.23338 125.983-9.51537 125.983-15.5178L125.983-24.1159C125.983-32.5751 124.122-36.9506 119.94-42.4203L115.752-47.8821C113.972-56.6671 110.733-65.9159 109.05-69.5019C106.461-74.957 101.435-77.9758 95.3978-78.7651C92.068-79.2012 81.2066-79.4505 69.236-79.4505C57.2655-79.4505 46.3418-79.1666 43.0466-78.7651C37.0369-78.0105 32.0109-74.957 29.4218-69.5019C27.7395-65.9159 24.4997-56.6671 22.7205-47.8821L18.5324-42.4203C14.3228-36.9506 12.4609-32.5751 12.4609-24.1159L12.4609-15.5178C12.4609-9.51537 16.0402-6.23338 22.1745-5.54105C31.4026-4.48187 53.1539-3.67191 69.236-3.67191ZM69.236-8.73464C53.043-8.73464 31.6588-9.48229 23.4561-10.4998C19.1226-11.0606 17.5306-13.0476 17.5306-16.8342L17.5306-24.1159C17.5306-30.9208 18.6452-34.2157 22.5424-39.3244L27.4301-45.7074C28.8629-53.3492 32.0681-63.0759 33.9998-67.2232C35.7164-70.795 38.9836-73.0447 43.6699-73.5984C46.7645-73.9723 56.7883-74.3877 69.236-74.3877C81.6561-74.3877 91.8185-73.9723 94.7052-73.5984C99.5231-73.01 102.721-70.7604 104.445-67.2232C106.404-63.0759 109.575-53.3492 111.014-45.7074L115.895-39.3244C119.799-34.2157 120.914-30.9208 120.914-24.1159L120.914-16.8342C120.914-13.0476 119.287-10.9983 115.016-10.4998C106.786-9.53762 85.3668-8.73464 69.236-8.73464ZM21.2462 9.41958L26.8815 9.41958C30.4262 9.41958 33.1815 6.69886 33.1815 3.18885L33.1815-7.4738L14.9531-10.0009L14.9531 3.18885C14.9531 6.67119 17.7085 9.41958 21.2462 9.41958ZM111.591 9.41958L117.191 9.41958C120.764 9.41958 123.491 6.69886 123.491 3.18885L123.491-10.0009L105.263-7.4738L105.263 3.18885C105.263 6.69886 108.018 9.41958 111.591 9.41958Z"/>
  </g>
  <g id="Thin-M" transform="matrix(1 0 0 1 788.524 1126)">
   <path d="M30.9401-49.8017C30.6548-48.548 31.0624-47.5227 32.831-47.6473C41.438-48.2463 50.47-48.5938 67.9235-48.5938C85.3649-48.5938 94.4089-48.2463 102.966-47.6473C104.734-47.5227 105.192-48.548 104.907-49.8017C103.383-56.5605 101.241-62.5711 99.683-65.2502C98.1975-67.8715 96.0461-69.5747 92.3567-70.0371C88.4653-70.5355 79.8102-70.7585 67.9235-70.7585C55.9744-70.7585 47.3314-70.5355 43.4903-70.0371C39.7505-69.5747 37.5992-67.8715 36.1519-65.2502C34.6446-62.5711 32.4519-56.5605 30.9401-49.8017ZM32.7213-17.3116C36.3883-17.3116 39.135-20.0583 39.135-23.7756C39.135-27.4426 36.3883-30.1893 32.7213-30.1893C29.004-30.1893 26.3076-27.4426 26.3076-23.7756C26.3076-20.0583 29.004-17.3116 32.7213-17.3116ZM55.8333-18.1847L79.9633-18.1847C82.698-18.1847 84.5244-19.9728 84.5244-22.7074C84.5244-25.4421 82.698-27.2685 79.9633-27.2685L55.8333-27.2685C53.1489-27.2685 51.3226-25.4421 51.3226-22.7074C51.3226-19.9728 53.1489-18.1847 55.8333-18.1847ZM103.126-17.3116C106.793-17.3116 109.539-20.0583 109.539-23.7756C109.539-27.4426 106.793-30.1893 103.126-30.1893C99.4083-30.1893 96.7119-27.4426 96.7119-23.7756C96.7119-20.0583 99.4083-17.3116 103.126-17.3116ZM67.9235-3.87558C83.5027-3.87558 105.209-4.68554 114.392-5.74472C119.988-6.39179 123.336-9.19854 123.336-14.8615L123.336-23.4596C123.336-32.213 121.225-36.2943 117.496-41.2435L113.194-46.8411C111.438-55.6261 108.198-64.8975 106.516-68.4609C103.949-73.8934 98.9911-76.5275 93.5195-77.2489C90.167-77.685 79.034-77.9342 67.9235-77.9342C56.8129-77.9342 45.6176-77.673 42.2772-77.2489C36.8559-76.5395 31.8978-73.8934 29.3313-68.4609C27.649-64.8975 24.4092-55.6261 22.6526-46.8411L18.3514-41.2435C14.5718-36.2943 12.4609-32.213 12.4609-23.4596L12.4609-14.8615C12.4609-9.19854 15.8592-6.39179 21.4051-5.74472C30.5879-4.68554 52.294-3.87558 67.9235-3.87558ZM67.9235-7.21839C52.2962-7.21839 30.7988-7.96604 22.053-9.05149C17.5385-9.61223 15.7655-11.4408 15.7655-15.318L15.7655-23.4596C15.7655-30.3776 16.9252-33.9215 21.0035-39.2339L25.7102-45.4358C27.3466-53.8244 30.5744-63.3022 32.3025-67.0195C34.2001-70.8629 37.6937-73.271 42.6968-73.87C45.7235-74.2438 55.9962-74.5914 67.9235-74.5914C79.8004-74.5914 90.1212-74.2438 93.0758-73.87C98.1653-73.259 101.635-70.8509 103.494-67.0195C105.272-63.3022 108.488-53.8244 110.086-45.4358L114.831-39.2339C118.871-33.9215 120.031-30.3776 120.031-23.4596L120.031-15.318C120.031-11.4408 118.246-9.54993 113.794-9.05149C104.998-8.06663 83.4884-7.21839 67.9235-7.21839ZM21.0425 8.76329L26.4968 8.76329C29.883 8.76329 32.5479 6.11046 32.5479 2.73624L32.5479-6.6591L14.9531-8.95988L14.9531 2.73624C14.9531 6.06017 17.618 8.76329 21.0425 8.76329ZM109.35 8.76329L114.792 8.76329C118.229 8.76329 120.844 6.11046 120.844 2.73624L120.844-8.95988L103.249-6.6591L103.249 2.73624C103.249 6.11046 105.914 8.76329 109.35 8.76329Z"/>
  </g>
  <g id="Ultralight-M" transform="matrix(1 0 0 1 492.491 1126)">
   <path d="M29.6419-49.7785C29.3914-48.6524 29.7063-47.5342 31.4516-47.6589C40.2905-48.2811 49.2645-48.5938 67.2512-48.5938C85.2374-48.5938 94.2118-48.2811 102.989-47.6589C104.734-47.5342 105.111-48.6524 104.86-49.7785C103.244-56.9894 101.125-62.7913 99.5671-65.4704C98.012-68.2076 95.652-70.1311 91.6148-70.6282C87.6307-71.1267 78.7902-71.3149 67.2512-71.3149C55.6499-71.3149 46.8098-71.1267 42.8875-70.6282C38.7884-70.1311 36.4284-68.2076 34.9348-65.4704C33.4391-62.7913 31.258-56.9894 29.6419-49.7785ZM32.049-17.4971C35.4842-17.4971 38.0454-20.0583 38.0454-23.5554C38.0454-26.9905 35.4842-29.5518 32.049-29.5518C28.552-29.5518 26.0526-26.9905 26.0526-23.5554C26.0526-20.0583 28.552-17.4971 32.049-17.4971ZM55.4044-18.0688L79.036-18.0688C81.5968-18.0688 83.2841-19.6946 83.2841-22.2554C83.2841-24.8162 81.5968-26.5035 79.036-26.5035L55.4044-26.5035C52.9055-26.5035 51.2182-24.8162 51.2182-22.2554C51.2182-19.6946 52.9055-18.0688 55.4044-18.0688ZM102.453-17.4971C105.888-17.4971 108.45-20.0583 108.45-23.5554C108.45-26.9905 105.888-29.5518 102.453-29.5518C98.9563-29.5518 96.4569-26.9905 96.4569-23.5554C96.4569-20.0583 98.9563-17.4971 102.453-17.4971ZM67.2512-3.9799C82.587-3.9799 104.27-4.78986 113.429-5.84904C118.736-6.47293 121.98-9.03626 121.98-14.5254L121.98-23.1234C121.98-32.0275 119.741-35.9582 116.244-40.6407L111.884-46.3079C110.14-55.0929 106.9-64.3759 105.217-67.9277C102.663-73.3486 97.7392-75.7856 92.5574-76.4722C89.1934-76.9084 77.9213-77.1576 67.2512-77.1576C56.5811-77.1576 45.2467-76.908 41.8831-76.4722C36.7631-75.786 31.8398-73.3486 29.2849-67.9277C27.6027-64.3759 24.3628-55.0929 22.6179-46.3079L18.2586-40.6407C14.6993-35.9582 12.4609-32.0275 12.4609-23.1234L12.4609-14.5254C12.4609-9.03626 15.7665-6.47293 21.011-5.84904C30.1706-4.78986 51.8535-3.9799 67.2512-3.9799ZM67.2512-6.44177C51.9137-6.44177 30.3584-7.18943 21.3343-8.30965C16.7271-8.87039 14.8613-10.6179 14.8613-14.5414L14.8613-23.1234C14.8613-30.0995 16.0443-33.7708 20.2153-39.1875L24.8292-45.2967C26.57-54.0678 29.8094-63.4182 31.4331-66.9152C33.4235-70.8977 37.033-73.3869 42.1984-74.0091C45.1903-74.3829 55.5905-74.6957 67.2512-74.6957C78.8499-74.6957 89.2519-74.3829 92.2412-74.0091C97.4698-73.3865 101.078-70.8972 103.007-66.9152C104.693-63.4182 107.932-54.0678 109.611-45.2967L114.287-39.1875C118.396-33.7708 119.579-30.0995 119.579-23.1234L119.579-14.5414C119.579-10.6179 117.713-8.80809 113.168-8.30965C104.082-7.31319 82.5263-6.44177 67.2512-6.44177ZM20.9382 8.42715L26.2997 8.42715C29.6048 8.42715 32.2233 5.80909 32.2233 2.50441L32.2233-6.24181L14.9531-8.42668L14.9531 2.50441C14.9531 5.7472 17.5716 8.42715 20.9382 8.42715ZM108.203 8.42715L113.564 8.42715C116.931 8.42715 119.487 5.80909 119.487 2.50441L119.487-8.42668L102.217-6.24181L102.217 2.50441C102.217 5.80909 104.836 8.42715 108.203 8.42715Z"/>
  </g>
  <g id="Black-S" transform="matrix(1 0 0 1 2873.24 696)">
   <path d="M33.8379-53.125C33.252-50.6836 34.3262-49.0723 37.0117-49.1211C40.3809-49.1699 46.582-49.4629 60.1562-49.4629C73.7305-49.4629 79.9316-49.1699 83.3008-49.1211C85.9863-49.0723 87.0605-50.6836 86.4746-53.125C86.0352-55.0293 85.1074-57.8125 84.5703-58.9355C83.252-61.7188 81.3965-62.6953 78.0273-63.1836C76.2695-63.4277 70.166-63.5254 60.1562-63.5254C50.1465-63.5254 44.043-63.4277 42.2852-63.1836C38.916-62.6953 37.1094-61.7188 35.7422-58.9355C35.2051-57.8125 34.3262-55.0293 33.8379-53.125ZM32.0801-22.4121C36.377-22.4121 39.6484-25.6836 39.6484-29.9805C39.6484-34.2773 36.377-37.5488 32.0801-37.5488C27.7832-37.5488 24.5117-34.2773 24.5117-29.9805C24.5117-25.6836 27.7832-22.4121 32.0801-22.4121ZM48.8281-24.4141L71.4844-24.4141C74.707-24.4141 77.0508-26.7578 77.0508-29.9805C77.0508-33.2031 74.707-35.5469 71.4844-35.5469L48.8281-35.5469C45.6055-35.5469 43.2617-33.2031 43.2617-29.9805C43.2617-26.7578 45.6055-24.4141 48.8281-24.4141ZM88.2324-22.4121C92.5293-22.4121 95.8008-25.6836 95.8008-29.9805C95.8008-34.2773 92.5293-37.5488 88.2324-37.5488C83.9355-37.5488 80.6641-34.2773 80.6641-29.9805C80.6641-25.6836 83.9355-22.4121 88.2324-22.4121ZM60.1562-7.71484C74.2676-7.71484 91.6016-8.39844 98.9746-9.22852C106.152-10.0586 110.547-14.5508 110.547-21.4844L110.547-28.2227C110.547-36.2793 109.863-40.8691 105.811-45.5078L101.709-50.1953C100.244-57.0801 97.7051-64.2578 96.3379-67.1387C93.7988-72.5098 88.9648-75.8789 82.7148-76.709C79.0527-77.1973 71.6309-77.4902 60.1562-77.4902C48.6816-77.4902 41.2598-77.1973 37.5977-76.709C31.3477-75.8789 26.4648-72.5586 23.9746-67.1387C22.6562-64.2578 20.0684-57.0801 18.6035-50.1953L14.502-45.5078C10.4492-40.8691 9.76562-36.2793 9.76562-28.2227L9.76562-21.4844C9.76562-14.5508 14.1602-10.0586 21.3379-9.22852C28.7109-8.39844 46.0449-7.71484 60.1562-7.71484ZM60.1562-19.1406C46.5332-19.1406 32.0801-19.873 25.4883-20.5566C22.2168-20.8984 20.7031-22.4121 20.7031-25.3906L20.7031-30.1758C20.7031-35.0098 22.2168-37.5 23.7305-39.502L28.8086-46.2402C29.4434-49.4141 31.7383-58.3008 33.252-61.3281C34.7168-64.3066 37.2559-65.5273 40.0391-65.918C43.3594-66.4062 49.6582-66.6504 60.1562-66.6504C70.6543-66.6504 76.9531-66.3086 80.2734-65.918C83.0078-65.5762 85.498-64.3066 87.1094-61.1816C88.4766-58.5449 90.7715-49.7559 91.5039-46.2402L96.582-39.502C98.0957-37.5 99.6094-35.0098 99.6094-30.1758L99.6094-25.3906C99.6094-22.4121 98.0957-20.8984 94.8242-20.5566C88.2324-19.873 73.7793-19.1406 60.1562-19.1406ZM17.3828 3.07617L22.4609 3.07617C25.6348 3.07617 28.125 0.585938 28.125-2.58789L28.125-13.2812L11.7188-19.043L11.7188-2.58789C11.7188 0.585938 14.209 3.07617 17.3828 3.07617ZM97.8516 3.07617L102.93 3.07617C106.104 3.07617 108.594 0.585938 108.594-2.58789L108.594-19.043L92.1875-13.2812L92.1875-2.58789C92.1875 0.585938 94.6777 3.07617 97.8516 3.07617Z"/>
  </g>
  <g id="Heavy-S" transform="matrix(1 0 0 1 2577.63 696)">
   <path d="M32.6163-51.6153C32.088-49.4159 33.0585-48.0696 35.4559-48.13C39.4359-48.2595 45.8906-48.5755 59.0614-48.5755C72.2208-48.5755 78.687-48.2595 82.6669-48.13C85.0644-48.0696 86.0349-49.4159 85.5066-51.6153C84.9634-53.9575 83.8397-57.363 83.1413-58.7166C81.9151-61.2347 80.2671-62.1191 77.2898-62.5497C75.3015-62.8285 69.1864-62.9722 59.0614-62.9722C48.9249-62.9722 42.8214-62.8285 40.8331-62.5497C37.8558-62.1191 36.245-61.2347 34.97-58.7166C34.2716-57.363 33.1852-53.9575 32.6163-51.6153ZM31.1005-21.9742C35.2476-21.9742 38.4038-25.1304 38.4038-29.2775C38.4038-33.4245 35.2476-36.5808 31.1005-36.5808C26.9534-36.5808 23.7972-33.4245 23.7972-29.2775C23.7972-25.1304 26.9534-21.9742 31.1005-21.9742ZM47.9753-23.907L70.1475-23.907C73.2549-23.907 75.495-26.1585 75.495-29.266C75.495-32.3734 73.2549-34.6134 70.1475-34.6134L47.9753-34.6134C44.8679-34.6134 42.6279-32.3734 42.6279-29.266C42.6279-26.1585 44.8679-23.907 47.9753-23.907ZM87.0224-21.9742C91.1694-21.9742 94.3256-25.1304 94.3256-29.2775C94.3256-33.4245 91.1694-36.5808 87.0224-36.5808C82.8753-36.5808 79.7191-33.4245 79.7191-29.2775C79.7191-25.1304 82.8753-21.9742 87.0224-21.9742ZM59.0614-8.32564C72.9192-8.32564 90.1956-8.99771 97.5456-9.82779C104.297-10.6002 108.357-14.7467 108.357-21.2308L108.357-27.9691C108.357-35.6224 107.547-40.0048 103.575-44.6781L99.6922-49.2388C98.2389-56.1235 95.6998-63.3128 94.3442-66.1821C91.9203-71.2997 87.2823-74.519 81.2628-75.3145C77.8542-75.7682 70.2364-76.0382 59.0614-76.0382C47.8865-76.0382 40.2571-75.7567 36.8601-75.3145C30.8406-74.5305 26.1652-71.337 23.7787-66.1821C22.4603-63.3128 19.884-56.1235 18.4306-49.2388L14.5481-44.6781C10.576-40.0048 9.76562-35.6224 9.76562-27.9691L9.76562-21.2308C9.76562-14.7467 13.8259-10.6002 20.5773-9.82779C27.9273-8.99771 45.2036-8.32564 59.0614-8.32564ZM59.0614-18.38C45.5306-18.38 30.5588-19.0779 24.1284-19.773C20.8684-20.1378 19.4585-21.6976 19.4585-24.6531L19.4585-29.4613C19.4585-34.3874 20.8108-36.8431 22.6472-39.2715L27.4718-45.641C28.1757-49.3103 30.5167-57.955 32.0765-61.1322C33.4722-64.007 35.9651-65.3199 38.8866-65.7105C42.011-66.1527 48.621-66.4314 59.0614-66.4314C69.5019-66.4314 76.1579-66.0781 79.2132-65.7105C82.132-65.3457 84.5646-63.9955 86.0837-61.0203C87.5316-58.1416 89.8611-49.5715 90.6511-45.641L95.4642-39.2715C97.312-36.8431 98.6644-34.3874 98.6644-29.4613L98.6644-24.6531C98.6644-21.6976 97.2429-20.1263 93.9945-19.773C87.564-19.0779 72.5808-18.38 59.0614-18.38ZM17.256 2.44233L22.2189 2.44233C25.3351 2.44233 27.7677 0.0212387 27.7677-3.08344L27.7677-13.5117L11.7188-18.4322L11.7188-3.08344C11.7188 0.0212387 14.1514 2.44233 17.256 2.44233ZM95.9039 2.44233L100.855 2.44233C103.971 2.44233 106.404 0.0212387 106.404-3.08344L106.404-18.4322L90.3551-13.5117L90.3551-3.08344C90.3551 0.0212387 92.7877 2.44233 95.9039 2.44233Z"/>
  </g>
  <g id="Bold-S" transform="matrix(1 0 0 1 2282.14 696)">
   <path d="M31.25-49.9268C30.7861-47.998 31.6406-46.9482 33.7158-47.0215C38.3789-47.2412 45.1172-47.583 57.8369-47.583C70.5322-47.583 77.2949-47.2412 81.958-47.0215C84.0332-46.9482 84.8877-47.998 84.4238-49.9268C83.7646-52.7588 82.4219-56.8604 81.543-58.4717C80.4199-60.6934 79.0039-61.4746 76.4648-61.8408C74.2188-62.1582 68.0908-62.3535 57.8369-62.3535C47.5586-62.3535 41.4551-62.1582 39.209-61.8408C36.6699-61.4746 35.2783-60.6934 34.1064-58.4717C33.2275-56.8604 31.9092-52.7588 31.25-49.9268ZM30.0049-21.4844C33.9844-21.4844 37.0117-24.5117 37.0117-28.4912C37.0117-32.4707 33.9844-35.498 30.0049-35.498C26.0254-35.498 22.998-32.4707 22.998-28.4912C22.998-24.5117 26.0254-21.4844 30.0049-21.4844ZM47.0215-23.3398L68.6523-23.3398C71.6309-23.3398 73.7549-25.4883 73.7549-28.4668C73.7549-31.4453 71.6309-33.5693 68.6523-33.5693L47.0215-33.5693C44.043-33.5693 41.9189-31.4453 41.9189-28.4668C41.9189-25.4883 44.043-23.3398 47.0215-23.3398ZM85.6689-21.4844C89.6484-21.4844 92.6758-24.5117 92.6758-28.4912C92.6758-32.4707 89.6484-35.498 85.6689-35.498C81.6895-35.498 78.6621-32.4707 78.6621-28.4912C78.6621-24.5117 81.6895-21.4844 85.6689-21.4844ZM57.8369-9.00879C71.4111-9.00879 88.623-9.66797 95.9473-10.498C102.222-11.2061 105.908-14.9658 105.908-20.9473L105.908-27.6855C105.908-34.8877 104.956-39.0381 101.074-43.75L97.4365-48.1689C95.9961-55.0537 93.457-62.2559 92.1143-65.1123C89.8193-69.9463 85.4004-72.998 79.6387-73.7549C76.5137-74.1699 68.6768-74.4141 57.8369-74.4141C46.9971-74.4141 39.1357-74.1455 36.0352-73.7549C30.2734-73.0225 25.8301-69.9707 23.5596-65.1123C22.2412-62.2559 19.6777-55.0537 18.2373-48.1689L14.5996-43.75C10.7178-39.0381 9.76562-34.8877 9.76562-27.6855L9.76562-20.9473C9.76562-14.9658 13.4521-11.2061 19.7266-10.498C27.0508-9.66797 44.2627-9.00879 57.8369-9.00879ZM57.8369-17.5293C44.4092-17.5293 28.8574-18.1885 22.6074-18.8965C19.3604-19.2871 18.0664-20.8984 18.0664-23.8281L18.0664-28.6621C18.0664-33.6914 19.2383-36.1084 21.4355-39.0137L25.9766-44.9707C26.7578-49.1943 29.1504-57.5684 30.7617-60.9131C32.0801-63.6719 34.5215-65.0879 37.5977-65.4785C40.5029-65.8691 47.4609-66.1865 57.8369-66.1865C68.2129-66.1865 75.2686-65.8203 78.0273-65.4785C81.1523-65.0879 83.5205-63.6475 84.9365-60.8398C86.4746-57.6904 88.8428-49.3652 89.6973-44.9707L94.2139-39.0137C96.4355-36.1084 97.6074-33.6914 97.6074-28.6621L97.6074-23.8281C97.6074-20.8984 96.2891-19.2627 93.0664-18.8965C86.8164-18.1885 71.2402-17.5293 57.8369-17.5293ZM17.1143 1.7334L21.9482 1.7334C25 1.7334 27.3682-0.610352 27.3682-3.6377L27.3682-13.7695L11.7188-17.749L11.7188-3.6377C11.7188-0.610352 14.0869 1.7334 17.1143 1.7334ZM93.7256 1.7334L98.5352 1.7334C101.587 1.7334 103.955-0.610352 103.955-3.6377L103.955-17.749L88.3057-13.7695L88.3057-3.6377C88.3057-0.610352 90.6738 1.7334 93.7256 1.7334Z"/>
  </g>
  <g id="Semibold-S" transform="matrix(1 0 0 1 1986.27 696)">
   <path d="M30.308-48.7626C29.8886-47.0205 30.6631-46.1751 32.5161-46.2572C37.6502-46.5392 44.584-46.8987 56.9927-46.8987C69.3681-46.8987 76.3352-46.5392 81.4692-46.2572C83.3223-46.1751 84.0968-47.0205 83.6773-48.7626C82.9382-51.9323 81.4443-56.5138 80.441-58.3028C79.3891-60.3201 78.133-61.0303 75.8961-61.3521C73.4723-61.6961 67.3354-61.927 56.9927-61.927C46.6166-61.927 40.5131-61.6961 38.0893-61.3521C35.8523-61.0303 34.6118-60.3201 33.511-58.3028C32.5077-56.5138 31.0294-51.9323 30.308-48.7626ZM29.2495-21.1467C33.1135-21.1467 36.052-24.0852 36.052-27.9491C36.052-31.8131 33.1135-34.7516 29.2495-34.7516C25.3855-34.7516 22.4471-31.8131 22.4471-27.9491C22.4471-24.0852 25.3855-21.1467 29.2495-21.1467ZM46.3639-22.9488L67.6215-22.9488C70.5111-22.9488 72.5552-25.0262 72.5552-27.9158C72.5552-30.8055 70.5111-32.8495 67.6215-32.8495L46.3639-32.8495C43.4742-32.8495 41.4302-30.8055 41.4302-27.9158C41.4302-25.0262 43.4742-22.9488 46.3639-22.9488ZM84.7358-21.1467C88.5998-21.1467 91.5383-24.0852 91.5383-27.9491C91.5383-31.8131 88.5998-34.7516 84.7358-34.7516C80.8719-34.7516 77.9334-31.8131 77.9334-27.9491C77.9334-24.0852 80.8719-21.1467 84.7358-21.1467ZM56.9927-9.47979C70.3714-9.47979 87.5389-10.1301 94.8453-10.9602C100.791-11.6237 104.22-15.1169 104.22-20.7518L104.22-27.49C104.22-34.3812 103.17-38.3716 99.3502-43.1102L95.8813-47.4313C94.4498-54.3161 91.9107-61.5271 90.5769-64.3747C88.3708-69.0132 84.1029-71.9494 78.5189-72.6796C75.5895-73.068 67.6015-73.2943 56.9927-73.2943C46.3839-73.2943 38.3626-73.0347 35.4664-72.6796C29.8824-71.9827 25.599-69.0287 23.4085-64.3747C22.0901-61.5271 19.5355-54.3161 18.104-47.4313L14.6352-43.1102C10.8155-38.3716 9.76562-34.3812 9.76562-27.49L9.76562-20.7518C9.76562-15.1169 13.1944-11.6237 19.14-10.9602C26.4465-10.1301 43.614-9.47979 56.9927-9.47979ZM56.9927-16.9428C43.636-16.9428 27.6844-17.5753 21.5588-18.2922C18.3206-18.7006 17.1066-20.3475 17.1066-23.2594L17.1066-28.1111C17.1066-33.2115 18.1541-35.6019 20.6002-38.8359L24.9457-44.5086C25.7803-49.1144 28.2084-57.3018 29.8553-60.762C31.1203-63.4408 33.5262-64.9279 36.709-65.3186C39.4632-65.6736 46.6611-66.0177 56.9927-66.0177C67.3242-66.0177 74.6554-65.6426 77.2098-65.3186C80.477-64.9102 82.8007-63.4075 84.1456-60.7154C85.7459-57.3794 88.1407-49.223 89.0396-44.5086L93.3519-38.8359C95.8312-35.6019 96.8787-33.2115 96.8787-28.1111L96.8787-23.2594C96.8787-20.3475 95.6314-18.6673 92.4266-18.2922C86.301-17.5753 70.316-16.9428 56.9927-16.9428ZM17.0165 1.24463L21.7616 1.24463C24.7689 1.24463 27.0927-1.0458 27.0927-4.01982L27.0927-13.9473L11.7188-17.278L11.7188-4.01982C11.7188-1.0458 14.0425 1.24463 17.0165 1.24463ZM92.2237 1.24463L96.9355 1.24463C99.9429 1.24463 102.267-1.0458 102.267-4.01982L102.267-17.278L86.8927-13.9473L86.8927-4.01982C86.8927-1.0458 89.2164 1.24463 92.2237 1.24463Z"/>
  </g>
  <g id="Medium-S" transform="matrix(1 0 0 1 1690.2 696)">
   <path d="M29.5938-47.8799C29.208-46.2793 29.9219-45.5889 31.6064-45.6777C37.0977-46.0068 44.1797-46.3799 56.3525-46.3799C68.4854-46.3799 75.6074-46.0068 81.0986-45.6777C82.7832-45.5889 83.4971-46.2793 83.1113-47.8799C82.3115-51.3057 80.7031-56.251 79.6055-58.1748C78.6074-60.0371 77.4727-60.6934 75.4648-60.9814C72.9062-61.3457 66.7627-61.6035 56.3525-61.6035C45.9023-61.6035 39.7988-61.3457 37.2402-60.9814C35.2324-60.6934 34.1064-60.0371 33.0596-58.1748C31.9619-56.251 30.3623-51.3057 29.5938-47.8799ZM28.6768-20.8906C32.4531-20.8906 35.3242-23.7617 35.3242-27.5381C35.3242-31.3145 32.4531-34.1855 28.6768-34.1855C24.9004-34.1855 22.0293-31.3145 22.0293-27.5381C22.0293-23.7617 24.9004-20.8906 28.6768-20.8906ZM45.8652-22.6523L66.8398-22.6523C69.6621-22.6523 71.6455-24.6758 71.6455-27.498C71.6455-30.3203 69.6621-32.3037 66.8398-32.3037L45.8652-32.3037C43.043-32.3037 41.0596-30.3203 41.0596-27.498C41.0596-24.6758 43.043-22.6523 45.8652-22.6523ZM84.0283-20.8906C87.8047-20.8906 90.6758-23.7617 90.6758-27.5381C90.6758-31.3145 87.8047-34.1855 84.0283-34.1855C80.252-34.1855 77.3809-31.3145 77.3809-27.5381C77.3809-23.7617 80.252-20.8906 84.0283-20.8906ZM56.3525-9.83691C69.583-9.83691 86.7168-10.4805 94.0098-11.3105C99.7061-11.9404 102.939-15.2314 102.939-20.6035L102.939-27.3418C102.939-33.9971 101.815-37.8662 98.043-42.625L94.7021-46.8721C93.2773-53.7568 90.7383-60.9746 89.4111-63.8154C87.2725-68.3057 83.1191-71.1543 77.6699-71.8643C74.8887-72.2324 66.7861-72.4453 56.3525-72.4453C45.9189-72.4453 37.7764-72.1924 35.0352-71.8643C29.5859-71.1943 25.4238-68.3145 23.2939-63.8154C21.9756-60.9746 19.4277-53.7568 18.0029-46.8721L14.6621-42.625C10.8896-37.8662 9.76562-33.9971 9.76562-27.3418L9.76562-20.6035C9.76562-15.2314 12.999-11.9404 18.6953-11.3105C25.9883-10.4805 43.1221-9.83691 56.3525-9.83691ZM56.3525-16.498C43.0498-16.498 26.7949-17.1104 20.7637-17.834C17.5322-18.2559 16.3789-19.9297 16.3789-22.8281L16.3789-27.6934C16.3789-32.8477 17.332-35.2178 19.9668-38.7012L24.1641-44.1582C25.0391-49.0537 27.4941-57.0996 29.168-60.6475C30.3926-63.2656 32.7715-64.8066 36.0352-65.1973C38.6748-65.5254 46.0547-65.8896 56.3525-65.8896C66.6504-65.8896 74.1904-65.5078 76.5898-65.1973C79.9648-64.7754 82.2549-63.2256 83.5459-60.6211C85.1934-57.1436 87.6084-49.1152 88.541-44.1582L92.6982-38.7012C95.373-35.2178 96.3262-32.8477 96.3262-27.6934L96.3262-22.8281C96.3262-19.9297 95.1328-18.2158 91.9414-17.834C85.9102-17.1104 69.6152-16.498 56.3525-16.498ZM16.9424 0.874023L21.6201 0.874023C24.5938 0.874023 26.8838-1.37598 26.8838-4.30957L26.8838-14.082L11.7188-16.9209L11.7188-4.30957C11.7188-1.37598 14.0088 0.874023 16.9424 0.874023ZM91.085 0.874023L95.7227 0.874023C98.6963 0.874023 100.986-1.37598 100.986-4.30957L100.986-16.9209L85.8213-14.082L85.8213-4.30957C85.8213-1.37598 88.1113 0.874023 91.085 0.874023Z"/>
  </g>
  <g id="Regular-S" transform="matrix(1 0 0 1 1394.33 696)">
   <path d="M28.6621-46.7285C28.3203-45.3125 28.9551-44.8242 30.4199-44.9219C36.377-45.3125 43.6523-45.7031 55.5176-45.7031C67.334-45.7031 74.6582-45.3125 80.6152-44.9219C82.0801-44.8242 82.7148-45.3125 82.373-46.7285C81.4941-50.4883 79.7363-55.9082 78.5156-58.0078C77.5879-59.668 76.6113-60.2539 74.9023-60.498C72.168-60.8887 66.0156-61.1816 55.5176-61.1816C44.9707-61.1816 38.8672-60.8887 36.1328-60.498C34.4238-60.2539 33.4473-59.668 32.4707-58.0078C31.25-55.9082 29.4922-50.4883 28.6621-46.7285ZM27.9297-20.5566C31.5918-20.5566 34.375-23.3398 34.375-27.002C34.375-30.6641 31.5918-33.4473 27.9297-33.4473C24.2676-33.4473 21.4844-30.6641 21.4844-27.002C21.4844-23.3398 24.2676-20.5566 27.9297-20.5566ZM45.2148-22.2656L65.8203-22.2656C68.5547-22.2656 70.459-24.2188 70.459-26.9531C70.459-29.6875 68.5547-31.5918 65.8203-31.5918L45.2148-31.5918C42.4805-31.5918 40.5762-29.6875 40.5762-26.9531C40.5762-24.2188 42.4805-22.2656 45.2148-22.2656ZM83.1055-20.5566C86.7676-20.5566 89.5508-23.3398 89.5508-27.002C89.5508-30.6641 86.7676-33.4473 83.1055-33.4473C79.4434-33.4473 76.6602-30.6641 76.6602-27.002C76.6602-23.3398 79.4434-20.5566 83.1055-20.5566ZM55.5176-10.3027C68.5547-10.3027 85.6445-10.9375 92.9199-11.7676C98.291-12.3535 101.27-15.3809 101.27-20.4102L101.27-27.1484C101.27-33.4961 100.049-37.207 96.3379-41.9922L93.1641-46.1426C91.748-53.0273 89.209-60.2539 87.8906-63.0859C85.8398-67.3828 81.8359-70.1172 76.5625-70.8008C73.9746-71.1426 65.7227-71.3379 55.5176-71.3379C45.3125-71.3379 37.0117-71.0938 34.4727-70.8008C29.1992-70.166 25.1953-67.3828 23.1445-63.0859C21.8262-60.2539 19.2871-53.0273 17.8711-46.1426L14.6973-41.9922C10.9863-37.207 9.76562-33.4961 9.76562-27.1484L9.76562-20.4102C9.76562-15.3809 12.7441-12.3535 18.1152-11.7676C25.3906-10.9375 42.4805-10.3027 55.5176-10.3027ZM55.5176-15.918C42.2852-15.918 25.6348-16.5039 19.7266-17.2363C16.5039-17.6758 15.4297-19.3848 15.4297-22.2656L15.4297-27.1484C15.4297-32.373 16.2598-34.7168 19.1406-38.5254L23.1445-43.7012C24.0723-48.9746 26.5625-56.8359 28.2715-60.498C29.4434-63.0371 31.7871-64.6484 35.1562-65.0391C37.6465-65.332 45.2637-65.7227 55.5176-65.7227C65.7715-65.7227 73.584-65.332 75.7812-65.0391C79.2969-64.5996 81.543-62.9883 82.7637-60.498C84.4727-56.8359 86.9141-48.9746 87.8906-43.7012L91.8457-38.5254C94.7754-34.7168 95.6055-32.373 95.6055-27.1484L95.6055-22.2656C95.6055-19.3848 94.4824-17.627 91.3086-17.2363C85.4004-16.5039 68.7012-15.918 55.5176-15.918ZM16.8457 0.390625L21.4355 0.390625C24.3652 0.390625 26.6113-1.80664 26.6113-4.6875L26.6113-14.2578L11.7188-16.4551L11.7188-4.6875C11.7188-1.80664 13.9648 0.390625 16.8457 0.390625ZM89.5996 0.390625L94.1406 0.390625C97.0703 0.390625 99.3164-1.80664 99.3164-4.6875L99.3164-16.4551L84.4238-14.2578L84.4238-4.6875C84.4238-1.80664 86.6699 0.390625 89.5996 0.390625Z"/>
  </g>
  <g id="Light-S" transform="matrix(1 0 0 1 1098.5 696)">
   <path d="M26.9668-46.6982C26.6704-45.4487 27.1841-44.8394 28.6187-44.937C34.8784-45.3579 42.0781-45.7031 54.6397-45.7031C67.1675-45.7031 74.4009-45.3579 80.6455-44.937C82.0801-44.8394 82.6089-45.4487 82.3125-46.6982C81.3125-51.0483 79.585-56.1958 78.3643-58.2954C77.3457-60.1069 76.0967-60.9805 73.9336-61.27C71.0781-61.6606 64.6836-61.9082 54.6397-61.9082C44.5469-61.9082 38.186-61.6606 35.3457-61.27C33.1675-60.9805 31.9185-60.1069 30.8814-58.2954C29.6758-56.1958 27.9331-51.0483 26.9668-46.6982ZM27.0518-20.7988C30.4111-20.7988 32.9522-23.3398 32.9522-26.7144C32.9522-30.0737 30.4111-32.6148 27.0518-32.6148C23.6773-32.6148 21.1514-30.0737 21.1514-26.7144C21.1514-23.3398 23.6773-20.7988 27.0518-20.7988ZM44.6548-22.1143L64.6094-22.1143C67.1167-22.1143 68.8394-23.8555 68.8394-26.3628C68.8394-28.8701 67.1167-30.5928 64.6094-30.5928L44.6548-30.5928C42.1626-30.5928 40.4399-28.8701 40.4399-26.3628C40.4399-23.8555 42.1626-22.1143 44.6548-22.1143ZM82.2275-20.7988C85.5869-20.7988 88.1279-23.3398 88.1279-26.7144C88.1279-30.0737 85.5869-32.6148 82.2275-32.6148C78.853-32.6148 76.3272-30.0737 76.3272-26.7144C76.3272-23.3398 78.853-20.7988 82.2275-20.7988ZM54.6397-10.439C67.3589-10.439 84.4185-11.0737 91.6636-11.9038C96.6563-12.4595 99.4985-15.1689 99.4985-19.9712L99.4985-26.7095C99.4985-33.2539 98.1113-36.7681 94.7031-41.2051L91.4536-45.4463C90.0527-52.3311 87.5137-59.5728 86.1953-62.3897C84.1597-66.6714 80.2012-69.1484 75.3062-69.7866C72.7031-70.1284 64.2695-70.3237 54.6397-70.3237C45.0098-70.3237 36.5273-70.0947 33.958-69.7866C29.0781-69.1821 25.1196-66.6714 23.084-62.3897C21.7656-59.5728 19.2266-52.3311 17.8257-45.4463L14.5762-41.2051C11.1528-36.7681 9.76562-33.2539 9.76562-26.7095L9.76562-19.9712C9.76562-15.1689 12.623-12.4595 17.6006-11.9038C24.8457-11.0737 41.9053-10.439 54.6397-10.439ZM54.6397-14.9038C41.7856-14.9038 25.0596-15.4898 18.7881-16.2676C15.4443-16.707 14.249-18.3101 14.249-21.2515L14.249-26.7095C14.249-32.0098 15.1094-34.52 18.1113-38.4648L21.9941-43.5195C23.0581-49.2925 25.5635-56.9873 27.1362-60.3618C28.4292-63.0825 30.9243-64.7998 34.5054-65.2207C36.9502-65.5137 44.7339-65.8589 54.6397-65.8589C64.5303-65.8589 72.4487-65.5137 74.6914-65.2207C78.3887-64.7661 80.8164-63.0488 82.1279-60.3618C83.7158-56.9873 86.1875-49.2925 87.27-43.5195L91.1343-38.4648C94.1548-34.52 95.0151-32.0098 95.0151-26.7095L95.0151-21.2515C95.0151-18.3101 93.7861-16.6582 90.4912-16.2676C84.2046-15.52 67.4448-14.9038 54.6397-14.9038ZM16.7095-0.0483364L21.1782-0.0483364C24.002-0.0483364 26.1875-2.20019 26.1875-4.99023L26.1875-13.7129L11.7188-15.7588L11.7188-4.99023C11.7188-2.21533 13.9043-0.0483364 16.7095-0.0483364ZM88.1011-0.0483364L92.5361-0.0483364C95.375-0.0483364 97.5454-2.20019 97.5454-4.99023L97.5454-15.7588L83.0767-13.7129L83.0767-4.99023C83.0767-2.20019 85.2622-0.0483364 88.1011-0.0483364Z"/>
  </g>
  <g id="Thin-S" transform="matrix(1 0 0 1 802.961 696)">
   <path d="M24.7246-46.6582C24.4883-45.6289 24.8418-44.8594 26.2364-44.957C32.8965-45.418 39.9961-45.7031 53.4785-45.7031C66.9473-45.7031 74.0606-45.418 80.6855-44.957C82.0801-44.8594 82.4688-45.6289 82.2324-46.6582C81.0723-51.7891 79.3848-56.5762 78.1641-58.6758C77.0254-60.6875 75.416-61.9414 72.6524-62.291C69.6367-62.6816 62.9219-62.8691 53.4785-62.8691C43.9863-62.8691 37.2852-62.6816 34.3047-62.291C31.5059-61.9414 29.8965-60.6875 28.7793-58.6758C27.5938-56.5762 25.8711-51.7891 24.7246-46.6582ZM25.8906-21.1191C28.8496-21.1191 31.0703-23.3398 31.0703-26.334C31.0703-29.293 28.8496-31.5137 25.8906-31.5137C22.8965-31.5137 20.7109-29.293 20.7109-26.334C20.7109-23.3398 22.8965-21.1191 25.8906-21.1191ZM43.9141-21.9141L63.0078-21.9141C65.2149-21.9141 66.6973-23.375 66.6973-25.582C66.6973-27.7891 65.2149-29.2715 63.0078-29.2715L43.9141-29.2715C41.7422-29.2715 40.2598-27.7891 40.2598-25.582C40.2598-23.375 41.7422-21.9141 43.9141-21.9141ZM81.0664-21.1191C84.0254-21.1191 86.2461-23.3398 86.2461-26.334C86.2461-29.293 84.0254-31.5137 81.0664-31.5137C78.0723-31.5137 75.8867-29.293 75.8867-26.334C75.8867-23.3398 78.0723-21.1191 81.0664-21.1191ZM53.4785-10.6191C65.7774-10.6191 82.7969-11.2539 90.002-12.084C94.4942-12.5996 97.1563-14.8887 97.1563-19.3906L97.1563-26.1289C97.1563-32.9336 95.5489-36.1875 92.541-40.1641L89.1914-44.5254C87.8106-51.4102 85.2715-58.6719 83.9532-61.4688C81.9375-65.7305 78.0391-67.8672 73.6446-68.4453C71.0215-68.7871 62.3477-68.9824 53.4785-68.9824C44.6094-68.9824 35.8867-68.7735 33.2774-68.4453C28.918-67.8809 25.0195-65.7305 23.0039-61.4688C21.6855-58.6719 19.1465-51.4102 17.7656-44.5254L14.416-40.1641C11.373-36.1875 9.76562-32.9336 9.76562-26.1289L9.76562-19.3906C9.76562-14.8887 12.4629-12.5996 16.9199-12.084C24.125-11.2539 41.1445-10.6191 53.4785-10.6191ZM53.4785-13.5625C41.125-13.5625 24.2988-14.1485 17.5469-14.9863C14.043-15.4258 12.6875-16.8887 12.6875-19.9102L12.6875-26.1289C12.6875-31.5293 13.5879-34.2598 16.75-38.3848L20.4727-43.2793C21.7168-49.7129 24.2422-57.1875 25.6348-60.1816C27.0879-63.1426 29.7832-65 33.6445-65.4609C36.0293-65.7539 44.0332-66.0391 53.4785-66.0391C62.8887-66.0391 70.9473-65.7539 73.25-65.4609C77.1875-64.9863 79.8555-63.1289 81.2871-60.1816C82.7149-57.1875 85.2266-49.7129 86.4492-43.2793L90.1934-38.3848C93.334-34.2598 94.2344-31.5293 94.2344-26.1289L94.2344-19.9102C94.2344-16.8887 92.8652-15.377 89.4102-14.9863C82.6231-14.2188 65.7832-13.5625 53.4785-13.5625ZM16.5293-0.628898L20.8379-0.628898C23.5215-0.628898 25.627-2.7207 25.627-5.39062L25.627-12.9922L11.7188-14.8379L11.7188-5.39062C11.7188-2.75585 13.8242-0.628898 16.5293-0.628898ZM86.1192-0.628898L90.4141-0.628898C93.1328-0.628898 95.2032-2.7207 95.2032-5.39062L95.2032-14.8379L81.2949-12.9922L81.2949-5.39062C81.2949-2.7207 83.4004-0.628898 86.1192-0.628898Z"/>
  </g>
  <g id="Ultralight-S" transform="matrix(1 0 0 1 506.85 696)">
   <path d="M23.5762-46.6377C23.3706-45.7212 23.6421-44.8696 25.0162-44.9673C31.8814-45.4487 38.9297-45.7031 52.8838-45.7031C66.8345-45.7031 73.8862-45.4487 80.7061-44.9673C82.0801-44.8696 82.397-45.7212 82.1914-46.6377C80.9492-52.1684 79.2822-56.771 78.0615-58.8706C76.8613-60.9849 75.0674-62.4336 71.9961-62.8139C68.8985-63.2046 62.0196-63.3613 52.8838-63.3613C43.6992-63.3613 36.8237-63.2046 33.7715-62.8139C30.6548-62.4336 28.8609-60.9849 27.7027-58.8706C26.5274-56.771 24.815-52.1684 23.5762-46.6377ZM25.2959-21.2832C28.0498-21.2832 30.1065-23.3398 30.1065-26.1392C30.1065-28.8931 28.0498-30.9497 25.2959-30.9497C22.4966-30.9497 20.4854-28.8931 20.4854-26.1392C20.4854-23.3398 22.4966-21.2832 25.2959-21.2832ZM43.5347-21.8115L62.1875-21.8115C64.2408-21.8115 65.6001-23.1289 65.6001-25.1821C65.6001-27.2354 64.2408-28.5948 62.1875-28.5948L43.5347-28.5948C41.5269-28.5948 40.1675-27.2354 40.1675-25.1821C40.1675-23.1289 41.5269-21.8115 43.5347-21.8115ZM80.4717-21.2832C83.2256-21.2832 85.2823-23.3398 85.2823-26.1392C85.2823-28.8931 83.2256-30.9497 80.4717-30.9497C77.6724-30.9497 75.6611-28.8931 75.6611-26.1392C75.6611-23.3398 77.6724-21.2832 80.4717-21.2832ZM52.8838-10.7114C64.9673-10.7114 81.9663-11.3462 89.1509-12.1763C93.3868-12.6714 95.9566-14.7451 95.9566-19.0933L95.9566-25.8316C95.9566-32.7695 94.2364-35.8901 91.4336-39.6309L88.0328-44.0537C86.6621-50.9385 84.1231-58.2105 82.8047-60.9971C80.7994-65.2486 76.9317-67.211 72.7935-67.7583C70.1602-68.1001 61.3633-68.2954 52.8838-68.2954C44.4043-68.2954 35.5586-68.0967 32.9287-67.7583C28.8359-67.2144 24.9683-65.2486 22.9629-60.9971C21.6445-58.2105 19.1055-50.9385 17.7349-44.0537L14.334-39.6309C11.4858-35.8901 9.76562-32.7695 9.76562-25.8316L9.76562-19.0933C9.76562-14.7451 12.3809-12.6714 16.5713-12.1763C23.7559-11.3462 40.7549-10.7114 52.8838-10.7114ZM52.8838-12.8755C40.7866-12.8755 23.9092-13.4614 16.9112-14.3301C13.3252-14.7696 11.8877-16.1607 11.8877-19.2232L11.8877-25.8316C11.8877-31.2832 12.8086-34.1265 16.0528-38.3438L19.6934-43.1563C21.0298-49.9282 23.5655-57.29 24.8657-60.0894C26.4009-63.1733 29.1988-65.1025 33.2036-65.584C35.5576-65.8769 43.6743-66.1313 52.8838-66.1313C62.0479-66.1313 70.1782-65.8769 72.5117-65.584C76.5723-65.0991 79.3633-63.1699 80.8565-60.0894C82.2022-57.29 84.7344-49.9282 86.0288-43.1563L89.7114-38.3438C92.9136-34.1265 93.8345-31.2832 93.8345-25.8316L93.8345-19.2232C93.8345-16.1607 92.3936-14.7207 88.8565-14.3301C81.813-13.5523 64.9322-12.8755 52.8838-12.8755ZM16.437-0.926259L20.6636-0.926259C23.2754-0.926259 25.3399-2.9873 25.3399-5.5957L25.3399-12.6231L11.7188-14.3662L11.7188-5.5957C11.7188-3.03271 13.7832-0.926259 16.437-0.926259ZM85.104-0.926259L89.3272-0.926259C91.9844-0.926259 94.0035-2.9873 94.0035-5.5957L94.0035-14.3662L80.3824-12.6231L80.3824-5.5957C80.3824-2.9873 82.4468-0.926259 85.104-0.926259Z"/>
  </g>
 </g>
</svg>
