<?xml version="1.0" encoding="utf-8"?>
<!-- Generator: Adobe Illustrator 27.1.1, SVG Export Plug-In . SVG Version: 6.00 Build 0)  -->
<svg version="1.1" id="Layer_1" xmlns="http://www.w3.org/2000/svg" xmlns:xlink="http://www.w3.org/1999/xlink" x="0px" y="0px"
	 viewBox="0 0 3300 2200" style="enable-background:new 0 0 3300 2200;" xml:space="preserve">
<style type="text/css">
	.st0{fill:#FFFFFF;}
	.st1{fill:none;stroke:#000000;stroke-width:0.5;}
	.st2{font-family:'Helvetica-Bold';}
	.st3{font-size:13px;}
	.st4{font-family:'Helvetica';}
	.st5{fill:none;stroke:#00AEEF;stroke-width:0.5;}
	.st6{fill:#27AAE1;}
	.st7{fill:none;stroke:#27AAE1;stroke-width:0.5;}
	.st8{display:none;}
	.st9{display:inline;}
</style>
<g id="Notes">
	<rect id="artboard" class="st0" width="3300" height="2200"/>
	<line class="st1" x1="263" y1="292" x2="3036" y2="292"/>
	<text transform="matrix(1 0 0 1 263 322)" class="st2 st3">Weight/Scale Variations</text>
	<text transform="matrix(1 0 0 1 534.0633 322)" class="st4 st3">Ultralight</text>
	<text transform="matrix(1 0 0 1 843.7775 322)" class="st4 st3">Thin</text>
	<text transform="matrix(1 0 0 1 1139.035 322)" class="st4 st3">Light</text>
	<text transform="matrix(1 0 0 1 1427.0773 322)" class="st4 st3">Regular</text>
	<text transform="matrix(1 0 0 1 1723.4419 322)" class="st4 st3">Medium</text>
	<text transform="matrix(1 0 0 1 2016.1719 322)" class="st4 st3">Semibold</text>
	<text transform="matrix(1 0 0 1 2326.9705 322)" class="st4 st3">Bold</text>
	<text transform="matrix(1 0 0 1 2618.2659 322)" class="st4 st3">Heavy</text>
	<text transform="matrix(1 0 0 1 2917.5054 322)" class="st4 st3">Black</text>
	<line class="st1" x1="263" y1="1903" x2="3036" y2="1903"/>
	<g transform="matrix(1 0 0 1 263 1933)">
		<path d="M9.2,0.8c4.3,0,7.9-3.6,7.9-7.9S13.5-15,9.2-15s-7.9,3.6-7.9,7.9C1.4-2.7,5,0.8,9.2,0.8z M9.2-0.7c-3.5,0-6.4-2.8-6.4-6.4
			s2.8-6.4,6.4-6.4s6.4,2.8,6.4,6.4S12.8-0.7,9.2-0.7z M5.7-7.1c0,0.4,0.3,0.7,0.8,0.7h2.1v2.1c0,0.4,0.3,0.7,0.7,0.7S10-3.9,10-4.3
			v-2.1h2.1c0.4,0,0.7-0.3,0.7-0.7c0-0.4-0.3-0.7-0.7-0.7H10v-2.1c0-0.4-0.3-0.8-0.7-0.8s-0.7,0.3-0.7,0.8v2.1H6.4
			C6-7.8,5.7-7.5,5.7-7.1z"/>
	</g>
	<g transform="matrix(1 0 0 1 281.867 1933)">
		<path d="M11.7,2.9c5.4,0,10-4.5,10-10c0-5.4-4.5-10-10-10c-5.4,0-10,4.5-10,10C1.7-1.6,6.3,2.9,11.7,2.9z M11.7,1.2
			c-4.6,0-8.3-3.7-8.3-8.3s3.7-8.3,8.3-8.3S20-11.7,20-7.1C20-2.4,16.3,1.2,11.7,1.2z M7.2-7.1c0,0.5,0.3,0.8,0.8,0.8h2.9v2.9
			c0,0.5,0.3,0.8,0.8,0.8s0.8-0.3,0.8-0.8v-2.9h2.9c0.5,0,0.8-0.3,0.8-0.8s-0.3-0.8-0.8-0.8h-2.9v-2.9c0-0.5-0.3-0.8-0.8-0.8
			s-0.8,0.3-0.8,0.8v2.9H8C7.5-7.9,7.2-7.5,7.2-7.1z"/>
	</g>
	<g transform="matrix(1 0 0 1 305.646 1933)">
		<path d="M15,5.7c7,0,12.7-5.8,12.7-12.7c0-7-5.8-12.7-12.7-12.7C8-19.8,2.3-14,2.3-7.1C2.3-0.1,8,5.7,15,5.7z M15,3.8
			C8.9,3.8,4.1-1,4.1-7.1C4.1-13.1,8.9-18,15-18c6,0,10.9,4.9,10.9,10.9C25.9-1,21,3.8,15,3.8z M9.2-7.1c0,0.5,0.4,0.9,0.9,0.9H14v4
			c0,0.5,0.4,0.9,0.9,0.9s0.9-0.4,0.9-0.9v-4h4c0.5,0,0.9-0.4,0.9-0.9S20.3-8,19.8-8h-4v-3.9c0-0.5-0.4-0.9-0.9-0.9S14-12.4,14-11.9
			V-8h-3.9C9.6-8,9.2-7.6,9.2-7.1z"/>
	</g>
	<text transform="matrix(1 0 0 1 263 1953)" class="st2 st3">Design Variations</text>
	<text transform="matrix(1 0 0 1 263 1971)" class="st4 st3">Symbols are supported in up to nine weights and three scales.</text>
	<text transform="matrix(1 0 0 1 263 1989)" class="st4 st3">For optimal layout with text and other symbols, vertically align</text>
	<text transform="matrix(1 0 0 1 263 2007)" class="st4 st3">symbols with the adjacent text.</text>
	<line class="st5" x1="776" y1="1919" x2="776" y2="1933"/>
	<g transform="matrix(1 0 0 1 776 1933)">
		<path d="M3.3,0.2c0.5,0,0.8-0.2,1-0.7L5.5-4h5.8l1.3,3.4C12.7,0,13,0.2,13.5,0.2s0.8-0.3,0.8-0.8c0-0.2,0-0.3-0.1-0.5L9.7-13.4
			C9.4-14,9-14.3,8.4-14.3s-1,0.3-1.2,0.9L2.6-1.2C2.5-1,2.5-0.8,2.5-0.6C2.5-0.1,2.8,0.2,3.3,0.2z M6-5.5l2.4-6.6l0,0l2.4,6.6
			C10.8-5.5,6-5.5,6-5.5z"/>
	</g>
	<line class="st5" x1="793.2" y1="1919" x2="793.2" y2="1933"/>
	<text transform="matrix(1 0 0 1 776 1953)" class="st2 st3">Margins</text>
	<text transform="matrix(1 0 0 1 776 1971)" class="st4 st3">Leading and trailing margins on the left and right side of each symbol</text>
	<text transform="matrix(1 0 0 1 776 1989)" class="st4 st3">can be adjusted by modifying the x-location of the margin guidelines.</text>
	<text transform="matrix(1 0 0 1 776 2007)" class="st4 st3">Modifications are automatically applied proportionally to all</text>
	<text transform="matrix(1 0 0 1 776 2025)" class="st4 st3">scales and weights.</text>
	<g transform="matrix(1 0 0 1 1289 1933)">
		<path d="M2.8,1.9l1.7,1.7c0.9,0.9,1.8,0.8,2.8-0.2L18-8.4l-1-1L6.4,2.3C6,2.7,5.7,2.8,5.2,2.3L4.1,1.1C3.6,0.7,3.7,0.3,4.1,0
			l11.5-10.8l-1-1L3-0.9C2.1,0,2,1,2.8,1.9z M9.3-16.3c-0.4,0.4-0.4,1-0.2,1.4s0.7,0.6,1.3,0.4c1.5-0.3,3-0.4,4.4,0.5l-0.6,1.5
			c-0.3,0.8-0.2,1.4,0.4,2l2.3,2.3c0.5,0.5,0.9,0.5,1.5,0.4l1-0.2l0.7,0.7v0.6c0,0.5,0.1,0.9,0.6,1.4l0.8,0.7c0.5,0.5,1.1,0.5,1.6,0
			L26-7.5C26.5-8,26.4-8.6,26-9l-1-0.9c-0.5-0.5-0.8-0.6-1.3-0.6h-0.6l-0.6-0.6l0.2-1.1c0.1-0.6,0-1-0.6-1.6L19.9-16
			C16.6-19.3,12.1-19.2,9.3-16.3z M10.8-16c2.4-1.8,5.7-1.5,7.9,0.8l2.4,2.4c0.2,0.2,0.3,0.4,0.2,0.8L21-10.5L22.5-9l1-0.1
			c0.3,0,0.3,0,0.5,0.2l0.6,0.6l-2.4,2.4l-0.6-0.6c-0.2-0.2-0.2-0.3-0.2-0.5l0.1-1L20-9.5l-1.5,0.3c-0.3,0.1-0.5,0-0.7-0.2l-2-2
			c-0.3-0.2-0.3-0.4-0.1-0.8l0.9-2.1C15-15.8,13-16.4,11-15.8C10.7-15.7,10.6-15.8,10.8-16z"/>
	</g>
	<text transform="matrix(1 0 0 1 1289 1953)" class="st2 st3">Exporting</text>
	<text transform="matrix(1 0 0 1 1289 1971)" class="st4 st3">Symbols should be outlined when exporting to ensure the</text>
	<text transform="matrix(1 0 0 1 1289 1989)" class="st4 st3">design is preserved when submitting to Xcode.</text>
	<text id="template-version" transform="matrix(1 0 0 1 2952.4141 1933)" class="st4 st3">Template v.4.0</text>
	<text transform="matrix(1 0 0 1 2865.4575 1951)" class="st4 st3">Requires Xcode 14 or greater</text>
	<text id="descriptive-name" transform="matrix(1 0 0 1 2923.2847 1969)" class="st4 st3">Generated from car</text>
	<text transform="matrix(1 0 0 1 2912.4111 1987)" class="st4 st3">Typeset at 100 points</text>
	<text transform="matrix(1 0 0 1 263 726)" class="st4 st3">Small</text>
	<text transform="matrix(1 0 0 1 263 1156)" class="st4 st3">Medium</text>
	<text transform="matrix(1 0 0 1 263 1586)" class="st4 st3">Large</text>
</g>
<g id="Guides">
	<g id="H-reference" transform="matrix(1 0 0 1 339 696)">
		<path class="st6" d="M1,0h2.6l25.7-67.1H30v-3.3h-1.9L1,0z M11.7-24.5H47l-0.8-2.2H12.4L11.7-24.5z M55.1,0h2.6L30.6-70.5h-1.2
			v3.3L55.1,0z"/>
	</g>
	<line id="Baseline-S" class="st7" x1="263" y1="696" x2="3036" y2="696"/>
	<line id="Capline-S" class="st7" x1="263" y1="625.5" x2="3036" y2="625.5"/>
	<g id="H-reference_00000171684190177133267960000005760311369989212603_" transform="matrix(1 0 0 1 339 1126)">
		<path class="st6" d="M1,0h2.6l25.7-67.1H30v-3.3h-1.9L1,0z M11.7-24.5H47l-0.8-2.2H12.4L11.7-24.5z M55.1,0h2.6L30.6-70.5h-1.2
			v3.3L55.1,0z"/>
	</g>
	<line id="Baseline-M" class="st7" x1="263" y1="1126" x2="3036" y2="1126"/>
	<line id="Capline-M" class="st7" x1="263" y1="1055.5" x2="3036" y2="1055.5"/>
	<g id="H-reference_00000148655820958522059950000010542963301286862527_" transform="matrix(1 0 0 1 339 1556)">
		<path class="st6" d="M1,0h2.6l25.7-67.1H30v-3.3h-1.9L1,0z M11.7-24.5H47l-0.8-2.2H12.4L11.7-24.5z M55.1,0h2.6L30.6-70.5h-1.2
			v3.3L55.1,0z"/>
	</g>
	<line id="Baseline-L" class="st7" x1="263" y1="1556" x2="3036" y2="1556"/>
	<line id="Capline-L" class="st7" x1="263" y1="1485.5" x2="3036" y2="1485.5"/>
	<line id="left-margin-Regular-M" class="st5" x1="1379.6" y1="1030.8" x2="1379.6" y2="1150.1"/>
	<line id="right-margin-Regular-M" class="st5" x1="1520.1" y1="1030.8" x2="1520.1" y2="1150.1"/>
</g>
<g id="Symbols">
	<g id="Black-L" transform="matrix(1 0 0 1 2836.48 1556)">
		<path d="M53.3-61.8c-0.9,3.5,0.7,5.7,4.6,5.6C64.6-56.4,75.3-57,97-57c21.6,0,32.3,0.5,39.1,0.8c3.9,0.1,5.4-2.1,4.6-5.6
			c-0.9-4-2.8-9.8-4-12.1c-2-4.1-4.7-5.5-9.5-6.2c-3.3-0.5-13.4-0.7-30.1-0.7S70.3-80.6,67-80.1c-4.8,0.7-7.5,2.2-9.5,6.2
			C56.1-71.6,54.2-65.8,53.3-61.8z M50.9-13.3c6.8,0,11.9-5.1,11.9-11.9s-5.1-11.9-11.9-11.9S39-32,39-25.2
			C39-18.5,44.1-13.3,50.9-13.3z M78.7-16.4H115c5.1,0,8.7-3.7,8.7-8.7c0-5.1-3.6-8.7-8.7-8.7H78.7c-5.1,0-8.7,3.6-8.7,8.7
			C70-20.1,73.7-16.4,78.7-16.4z M142.9-13.3c6.8,0,11.9-5.1,11.9-11.9s-5.1-11.9-11.9-11.9c-6.8,0-11.9,5.1-11.9,11.9
			C131-18.5,136.2-13.3,142.9-13.3z M96.9,8.9c22.7,0,51.2-1.1,63.3-2.5c11-1.3,17.6-8,17.6-18.5v-11.1c0-12.5-1.4-19.7-7.9-27.3
			l-6.3-7.5c-2.4-11.3-6.6-23.2-8.8-27.9c-4-8.4-11.5-13.6-21.4-14.9c-5.5-0.7-18.2-1.2-36.4-1.2c-18.3,0-30.9,0.5-36.4,1.2
			c-9.8,1.3-17.5,6.5-21.4,14.9C37-81.2,32.8-69.3,30.4-58L24-50.5c-6.5,7.7-7.9,14.8-7.9,27.3v11.1c0,10.5,6.6,17.3,17.6,18.5
			C45.7,7.8,74.2,8.9,96.9,8.9z M96.9-7.2c-22.2,0-47-1.1-57.6-2.3c-5.4-0.6-7.7-3.2-7.7-8v-8c0-8.1,2.2-12.2,5.3-16.3l7.9-10.4
			c1.2-6.2,5.1-20.4,7.6-25.6c2.3-4.7,6.4-6.9,11.3-7.6c5.1-0.7,16.1-1.2,33.2-1.2c17.2,0,28.2,0.6,33.2,1.2
			c4.9,0.6,8.9,2.9,11.4,7.7c2.4,4.8,6.2,18.8,7.6,25.4l7.8,10.4c3.1,4.1,5.3,8.2,5.3,16.3v8c0,4.9-2.3,7.5-7.7,8
			C143.9-8.3,119.1-7.2,96.9-7.2z M28.4,26.6h8.1c5.1,0,9.1-4,9.1-9.1v-17L19.3-7.3v24.9C19.3,22.6,23.3,26.6,28.4,26.6z
			 M157.3,26.6h8.1c5.1,0,9.1-4,9.1-9.1V-7.3l-26.3,7.9v17C148.2,22.6,152.2,26.6,157.3,26.6z"/>
	</g>
	<g id="Heavy-L" transform="matrix(1 0 0 1 2541.34 1556)">
		<path d="M51.3-60c-0.8,3.2,0.6,5.1,4.1,5c7.6-0.3,18.5-0.9,39.9-0.9c21.3,0,32.3,0.5,39.9,0.9c3.5,0.1,4.9-1.8,4.2-5
			c-1.1-4.7-3.2-11.1-4.6-13.7c-1.9-3.8-4.4-5.2-8.9-5.9c-3.7-0.5-13.8-0.8-30.5-0.8s-26.9,0.3-30.5,0.8c-4.5,0.6-7,2.1-9,5.9
			C54.5-71.1,52.4-64.7,51.3-60z M49.5-12.8c6.5,0,11.4-4.9,11.4-11.4S56-35.6,49.5-35.6C43-35.7,38-30.8,38-24.3S43-12.8,49.5-12.8
			z M77.6-15.8h35.6c4.9,0,8.3-3.5,8.3-8.4s-3.5-8.3-8.3-8.3H77.6c-4.9,0-8.3,3.5-8.3,8.3C69.2-19.3,72.7-15.8,77.6-15.8z
			 M141.2-12.8c6.5,0,11.4-4.9,11.4-11.4s-4.9-11.4-11.4-11.4s-11.4,4.9-11.4,11.4C129.8-17.8,134.7-12.8,141.2-12.8z M95.4,8.1
			c22.3,0,50.7-1.1,62.8-2.5c10.4-1.2,16.5-7.4,16.5-17.3v-11.1c0-12.1-1.6-18.9-7.9-26.5l-6.1-7.4c-2.4-11.3-6.6-23.2-8.8-27.9
			c-3.8-8.1-11.2-13-20.6-14.3c-5.3-0.7-18.1-1.1-35.9-1.1s-30.7,0.4-35.9,1.1c-9.4,1.2-16.8,6.2-20.6,14.3
			c-2.2,4.7-6.4,16.6-8.8,27.9L24-49.3c-6.3,7.6-7.9,14.5-7.9,26.5v11.1c0,9.9,6.2,16.1,16.5,17.3C44.7,7,73,8.1,95.4,8.1z M95.4-6
			c-22,0-47.5-1.1-57.9-2.3c-5.4-0.6-7.6-3.2-7.6-8.1v-8.2c0-8.3,2-12.3,5.5-17l7.5-9.9c1.3-7,5.2-20.8,7.8-26.1
			c2.2-4.7,6.3-7,11.4-7.6c4.8-0.7,16.2-1.2,33.2-1.2s28.5,0.6,33.2,1.2c5.1,0.6,9.1,3,11.5,7.8c2.5,5,6.4,18.7,7.8,26l7.5,9.9
			c3.6,4.7,5.6,8.7,5.6,17v8.2c0,4.9-2.2,7.5-7.6,8.1C142.8-7.1,117.3-6,95.4-6z M28.2,25.7h8c5,0,8.9-3.9,8.9-8.8V0.4L19.3-6.4
			v23.3C19.3,21.9,23.2,25.7,28.2,25.7z M154.6,25.7h7.9c5,0,8.9-3.9,8.9-8.8V-6.4l-25.8,6.8v16.5C145.6,21.9,149.5,25.7,154.6,25.7
			z"/>
	</g>
	<g id="Bold-L" transform="matrix(1 0 0 1 2246.54 1556)">
		<path d="M48.8-58c-0.7,2.8,0.5,4.4,3.6,4.2c8.5-0.5,19.8-1,41-1c21.1,0,32.4,0.5,41,1c3.1,0.1,4.3-1.4,3.7-4.2
			c-1.3-5.6-3.7-12.7-5.3-15.6c-1.8-3.5-4.2-5-8.4-5.6c-4-0.6-14.3-0.9-30.9-0.9c-16.7,0-26.9,0.3-30.9,0.9c-4.2,0.6-6.6,2-8.5,5.6
			C52.5-70.7,50.1-63.6,48.8-58z M47.7-12.4c6.1,0,10.8-4.7,10.8-10.8S53.8-34,47.7-34c-6.2,0-10.8,4.7-10.8,10.8
			C36.9-17,41.6-12.4,47.7-12.4z M76.1-15h34.6c4.6,0,7.8-3.3,7.8-7.9s-3.2-7.8-7.8-7.8H76.1c-4.6,0-7.8,3.2-7.8,7.8
			S71.6-15,76.1-15z M139.2-12.4c6.1,0,10.8-4.7,10.8-10.8S145.3-34,139.2-34c-6.2,0-10.8,4.7-10.8,10.8
			C128.4-17,133-12.4,139.2-12.4z M93.4,7.3c21.8,0,50.1-1.1,62.1-2.4c9.6-1.1,15.2-6.7,15.2-15.9v-11.1c0-11.6-1.8-18.1-7.9-25.6
			l-5.8-7.2c-2.3-11.3-6.5-23.2-8.7-27.9c-3.7-7.7-10.7-12.4-19.6-13.5c-4.9-0.7-18.2-1-35.2-1c-17.1,0-30.4,0.4-35.2,1
			c-8.9,1.1-16,5.8-19.6,13.5c-2.2,4.7-6.4,16.6-8.7,27.9l-6,7.1c-6.1,7.5-7.9,14-7.9,25.6v11.1c0,9.2,5.6,14.8,15.2,15.9
			C43.3,6.2,71.6,7.3,93.4,7.3z M93.4-4.5c-21.7,0-47.9-1.1-58.3-2.3c-5.4-0.7-7.6-3.3-7.6-8.1v-8.5c0-8.4,1.8-12.5,5.8-17.8
			l7.1-9.4c1.5-7.9,5.5-21.3,8-26.7c2.2-4.6,6.3-7.1,11.7-7.8c4.6-0.6,16.5-1.1,33.2-1.1s28.8,0.6,33.1,1.1
			c5.5,0.7,9.5,3.2,11.8,7.9c2.5,5.2,6.5,18.5,8,26.6l7.1,9.4c4.1,5.3,5.9,9.4,5.9,17.8v8.5c0,4.9-2.2,7.5-7.6,8.1
			C141.3-5.5,115.1-4.5,93.4-4.5z M27.9,24.7h7.7c4.9,0,8.7-3.8,8.7-8.6V0.4l-25-5.6v21.3C19.3,20.9,23.1,24.7,27.9,24.7z
			 M151.2,24.7h7.7c4.9,0,8.7-3.8,8.7-8.6V-5.2l-25.1,5.6v15.7C142.5,20.9,146.3,24.7,151.2,24.7z"/>
	</g>
	<g id="Semibold-L" transform="matrix(1 0 0 1 1951.15 1556)">
		<path d="M47.1-56.6c-0.6,2.5,0.5,3.9,3.3,3.8c9.2-0.6,20.7-1.1,41.7-1.1s32.5,0.6,41.7,1.1c2.8,0.1,3.9-1.2,3.3-3.8
			c-1.4-6.2-4-13.8-5.7-16.9c-1.8-3.3-4.1-4.8-8.1-5.4c-4.3-0.6-14.7-0.9-31.2-0.9c-16.6,0-27,0.4-31.2,0.9c-4,0.6-6.3,2-8.1,5.4
			C51.1-70.4,48.5-62.8,47.1-56.6z M46.5-12.1c5.9,0,10.4-4.5,10.4-10.4s-4.5-10.4-10.4-10.4s-10.4,4.5-10.4,10.4
			C36.1-16.5,40.6-12.1,46.5-12.1z M75.2-14.5h33.9c4.4,0,7.5-3.1,7.5-7.5s-3.1-7.5-7.5-7.5H75.2c-4.4,0-7.5,3.1-7.5,7.5
			S70.8-14.5,75.2-14.5z M137.8-12.1c5.9,0,10.4-4.5,10.4-10.4s-4.5-10.4-10.4-10.4s-10.4,4.5-10.4,10.4
			C127.4-16.5,131.8-12.1,137.8-12.1z M92.1,6.6c21.5,0,49.7-1.1,61.7-2.4c9.1-1,14.4-6.2,14.4-14.9v-11.1c0-11.3-2-17.6-7.9-25
			l-5.7-7.2c-2.3-11.3-6.5-23.2-8.7-27.9c-3.5-7.5-10.4-11.9-19-13c-4.7-0.6-18.2-1-34.8-1s-30.1,0.4-34.8,1
			c-8.6,1.1-15.4,5.5-19,13c-2.2,4.7-6.4,16.6-8.7,27.9L24-46.7c-5.9,7.4-7.9,13.6-7.9,25v11.1c0,8.7,5.3,13.9,14.3,14.9
			C42.4,5.6,70.6,6.6,92.1,6.6z M92.1-3.4c-21.5,0-48.2-1-58.6-2.3C28.1-6.4,26-9,26-13.8v-8.7c0-8.5,1.7-12.7,6-18.4l6.9-9
			c1.6-8.5,5.6-21.6,8.2-27.1c2.2-4.6,6.3-7.2,11.9-7.9c4.4-0.6,16.6-1.1,33.2-1.1c16.5,0,29,0.6,33.1,1.1c5.7,0.7,9.7,3.4,12,7.9
			c2.5,5.3,6.5,18.4,8.2,27l6.8,9c4.4,5.8,6.1,9.9,6.1,18.4v8.7c0,4.9-2.1,7.5-7.5,8.2C140.3-4.5,113.5-3.4,92.1-3.4z M27.8,23.9
			h7.6c4.8,0,8.5-3.7,8.5-8.4V0.3L19.3-4.4v19.9C19.3,20.2,23,23.9,27.8,23.9z M148.9,23.9h7.6c4.8,0,8.5-3.7,8.5-8.4V-4.4
			l-24.6,4.8v15.2C140.4,20.2,144.1,23.9,148.9,23.9z"/>
	</g>
	<g id="Medium-L" transform="matrix(1 0 0 1 1655.43 1556)">
		<path d="M45.8-55.5c-0.5,2.3,0.4,3.5,3,3.4c9.7-0.6,21.3-1.2,42.3-1.2c20.9,0,32.6,0.6,42.3,1.2c2.6,0.2,3.6-1.1,3.1-3.4
			c-1.5-6.7-4.2-14.6-6.1-17.9c-1.7-3.2-3.9-4.7-7.8-5.2c-4.5-0.6-15-1-31.5-1c-16.6,0-27,0.4-31.5,1c-3.9,0.5-6.1,2-7.8,5.2
			C50-70.1,47.3-62.2,45.8-55.5z M45.6-11.8c5.7,0,10-4.3,10-10.1c0-5.7-4.3-10-10-10s-10,4.3-10,10C35.5-16.2,39.8-11.8,45.6-11.8z
			 M74.4-14.1h33.4c4.3,0,7.2-3,7.2-7.3s-3-7.2-7.2-7.2H74.4c-4.2,0-7.2,3-7.2,7.2S70.2-14.1,74.4-14.1z M136.7-11.8
			c5.7,0,10-4.3,10-10.1c0-5.7-4.3-10-10-10s-10,4.3-10,10C126.6-16.2,130.9-11.8,136.7-11.8z M91.1,6.2c21.2,0,49.4-1.1,61.3-2.4
			c8.7-1,13.7-5.8,13.7-14.2v-11.1c0-11.1-2.1-17.1-7.9-24.5l-5.5-7.1c-2.3-11.3-6.5-23.3-8.7-27.9c-3.5-7.3-10.2-11.5-18.5-12.6
			c-4.5-0.6-18.2-0.9-34.4-0.9s-30,0.4-34.4,0.9c-8.3,1-15,5.3-18.5,12.6c-2.2,4.7-6.4,16.6-8.7,28L24-46
			c-5.8,7.3-7.9,13.3-7.9,24.5v11.1c0,8.4,5,13.2,13.7,14.2C41.7,5.1,69.9,6.2,91.1,6.2z M91.1-2.6c-21.3,0-48.4-1-58.8-2.3
			c-5.5-0.7-7.5-3.3-7.5-8.2V-22c0-8.6,1.6-12.8,6.2-18.9l6.6-8.7c1.7-9,5.7-21.9,8.3-27.4c2.2-4.5,6.3-7.3,12-8
			c4.2-0.5,16.7-1.1,33.1-1.1s29.1,0.6,33,1.1c5.9,0.7,9.9,3.5,12.1,8c2.6,5.4,6.6,18.3,8.3,27.3L151-41c4.7,6.1,6.2,10.2,6.2,18.9
			v8.9c0,4.9-2.1,7.5-7.5,8.2C139.5-3.7,112.4-2.6,91.1-2.6z M27.7,23.4h7.5c4.7,0,8.4-3.6,8.4-8.3V0.3L19.3-3.8v18.9
			C19.3,19.7,23,23.4,27.7,23.4z M147.1,23.4h7.4c4.7,0,8.4-3.6,8.4-8.3V-3.8l-24.2,4.2v14.7C138.7,19.7,142.4,23.4,147.1,23.4z"/>
	</g>
	<g id="Regular-L" transform="matrix(1 0 0 1 1360.02 1556)">
		<path d="M44.1-54.1c-0.5,2,0.3,3.1,2.7,2.9c10.4-0.7,22.2-1.3,43-1.3s32.7,0.6,43,1.3c2.4,0.2,3.2-0.9,2.7-2.9
			c-1.7-7.3-4.5-15.7-6.5-19.2c-1.7-3-3.8-4.5-7.4-5c-4.7-0.6-15.3-1-31.8-1s-27.1,0.4-31.8,1c-3.7,0.5-5.8,2-7.5,5
			C48.6-69.8,45.7-61.4,44.1-54.1z M44.4-11.5c5.5,0,9.6-4.1,9.6-9.6s-4.1-9.6-9.6-9.6s-9.6,4.1-9.6,9.6
			C34.8-15.6,38.9-11.5,44.4-11.5z M73.4-13.6h32.7c4.1,0,6.9-2.8,6.9-6.9s-2.8-6.9-6.9-6.9H73.4c-4.1,0-6.9,2.8-6.9,6.9
			S69.4-13.6,73.4-13.6z M135.3-11.5c5.5,0,9.6-4.1,9.6-9.6s-4.1-9.6-9.6-9.6s-9.6,4.1-9.6,9.6C125.7-15.6,129.8-11.5,135.3-11.5z
			 M89.8,5.6c20.9,0,49-1,60.9-2.4c8.2-0.9,12.8-5.3,12.8-13.2v-11.1c0-10.8-2.3-16.6-7.9-23.8l-5.4-7c-2.3-11.3-6.5-23.3-8.7-27.9
			c-3.4-7-9.9-11.1-17.9-12.1c-4.3-0.6-18.2-0.9-34-0.9s-29.8,0.4-34,0.9c-8,1-14.5,5.1-17.8,12.1c-2.2,4.6-6.4,16.6-8.7,27.9
			l-5.4,7c-5.6,7.2-7.9,13-7.9,23.8V-10c0,7.9,4.7,12.3,12.8,13.2C40.8,4.5,68.9,5.6,89.8,5.6z M89.8-1.6c-21.1,0-48.7-1-59.1-2.3
			c-5.5-0.7-7.5-3.3-7.5-8.2v-9.1c0-8.7,1.4-12.9,6.4-19.4l6.4-8.3c1.8-9.6,5.9-22.2,8.5-27.7c2.2-4.5,6.3-7.4,12.2-8.1
			c4-0.5,16.9-1,33.1-1s29.3,0.6,33,1c6.1,0.8,10.2,3.6,12.3,8.1c2.6,5.5,6.7,18.1,8.5,27.7l6.3,8.3c5,6.5,6.4,10.7,6.4,19.4v9.1
			c0,4.9-2,7.6-7.5,8.2C138.5-2.6,110.9-1.6,89.8-1.6z M27.5,22.6h7.3c4.6,0,8.2-3.5,8.2-8.1V0.3L19.3-3v17.6
			C19.3,19.1,22.9,22.6,27.5,22.6z M144.8,22.6h7.3c4.7,0,8.2-3.5,8.2-8.1V-3l-23.8,3.3v14.2C136.6,19.1,140.2,22.6,144.8,22.6z"/>
	</g>
	<g id="Light-L" transform="matrix(1 0 0 1 1064.43 1556)">
		<path d="M42-54.1c-0.4,1.8,0.2,3,2.6,2.8C55.3-52,67-52.5,88.7-52.5s33.4,0.5,44.1,1.2c2.3,0.2,3-1,2.6-2.8
			c-1.8-8-4.6-16.1-6.6-19.6c-1.8-3.2-4.3-5.1-8.5-5.6c-4.9-0.6-15.8-1-31.6-1c-16,0-26.8,0.3-31.6,1c-4.3,0.5-6.7,2.4-8.5,5.6
			C46.6-70.2,43.8-62.1,42-54.1z M43.3-11.8c5.1,0,8.9-3.8,8.9-9c0-5.1-3.8-8.9-8.9-8.9s-8.9,3.8-8.9,8.9
			C34.4-15.6,38.1-11.8,43.3-11.8z M72.7-13.4h31.9c3.8,0,6.4-2.6,6.4-6.4s-2.6-6.4-6.4-6.4H72.7c-3.8,0-6.3,2.6-6.3,6.4
			S69-13.4,72.7-13.4z M134.2-11.8c5.1,0,8.9-3.8,8.9-9c0-5.1-3.8-8.9-8.9-8.9c-5.1,0-8.9,3.8-8.9,8.9
			C125.2-15.6,129-11.8,134.2-11.8z M88.7,5.4c20.5,0,48.5-1,60.4-2.4c7.7-0.9,12.2-4.9,12.2-12.5v-11.1c0-11.1-2.5-16.6-7.7-23.4
			l-5.5-7.1c-2.3-11.3-6.5-23.3-8.6-27.9c-3.3-7-9.8-10.7-17.3-11.7c-4.3-0.6-18.5-0.9-33.5-0.9s-29.3,0.4-33.5,0.9
			c-7.5,1-13.9,4.7-17.3,11.7c-2.2,4.6-6.4,16.6-8.6,27.9L23.8-44c-5.2,6.8-7.7,12.3-7.7,23.4v11.1c0,7.6,4.5,11.6,12.2,12.5
			C40.1,4.4,68.2,5.4,88.7,5.4z M88.7-0.3c-20.6,0-48.3-1-59.1-2.3c-5.7-0.7-7.8-3.2-7.8-8.1v-9.8c0-8.8,1.5-13.2,6.6-19.9l6.2-8.2
			c1.9-10.2,6.1-22.7,8.5-27.8c2.3-4.7,6.6-7.7,12.8-8.5c4-0.5,17-1,32.8-1s29,0.5,32.7,1c6.4,0.8,10.6,3.8,12.9,8.5
			c2.4,5.1,6.6,17.6,8.5,27.8l6.2,8.2c5.1,6.7,6.6,11.1,6.6,19.9v9.8c0,4.9-2.2,7.5-7.8,8.1C137-1.4,109.3-0.3,88.7-0.3z M27.3,22.1
			h7.2c4.5,0,8-3.5,8-7.9V1L19.3-2.2v16.3C19.3,18.6,22.8,22.1,27.3,22.1z M142.9,22.1h7.2c4.5,0,8-3.5,8-7.9V-2.2L134.9,1v13.1
			C134.9,18.6,138.4,22.1,142.9,22.1z"/>
	</g>
	<g id="Thin-L" transform="matrix(1 0 0 1 769.196 1556)">
		<path d="M39.1-54c-0.3,1.5,0.1,2.9,2.4,2.8c11.3-0.8,22.9-1.2,45.7-1.2s34.5,0.4,45.7,1.2c2.3,0.2,2.8-1.2,2.5-2.8
			c-2-9-4.8-16.6-6.8-20.1s-4.9-5.8-9.8-6.4c-5.1-0.6-16.4-0.9-31.5-0.9c-15.2,0-26.5,0.3-31.5,0.9s-8,3-9.8,6.4
			C44-70.7,41.2-63,39.1-54z M41.8-12.2c4.6,0,8-3.4,8-8.1c0-4.6-3.4-8-8-8c-4.7,0-8,3.4-8,8C33.8-15.6,37.2-12.2,41.8-12.2z
			 M71.8-13.2h30.8c3.4,0,5.7-2.2,5.7-5.6s-2.3-5.7-5.7-5.7H71.8c-3.4,0-5.6,2.3-5.6,5.7C66.2-15.4,68.5-13.2,71.8-13.2z
			 M132.7-12.2c4.6,0,8-3.4,8-8.1c0-4.6-3.4-8-8-8c-4.7,0-8,3.4-8,8C124.7-15.6,128-12.2,132.7-12.2z M87.3,5.2c20,0,48-1,59.8-2.4
			c7-0.8,11.3-4.3,11.3-11.5v-11.1c0-11.4-2.8-16.6-7.5-22.8l-5.6-7.3c-2.3-11.3-6.4-23.3-8.6-27.9c-3.3-7-9.7-10.3-16.6-11.2
			c-4.3-0.6-18.8-0.9-32.9-0.9S58.6-89.6,54.3-89c-6.8,0.9-13.2,4.2-16.5,11.2c-2.2,4.6-6.4,16.6-8.6,27.9l-5.6,7.3
			c-4.7,6.2-7.5,11.4-7.5,22.8v11.1c0,7.2,4.3,10.7,11.3,11.5C39.2,4.1,67.2,5.2,87.3,5.2z M87.3,1.4c-20,0-47.8-1-59.2-2.4
			c-5.9-0.7-8.2-3-8.2-8.1v-10.8c0-9,1.5-13.6,6.8-20.5l6-7.9c2.2-11.1,6.3-23.2,8.5-27.9c2.5-5,7.1-8.2,13.6-9
			c3.9-0.5,17.2-0.9,32.5-0.9c15.2,0,28.5,0.4,32.4,0.9c6.7,0.8,11.2,4,13.7,9c2.2,4.7,6.4,16.8,8.5,27.9l6.1,7.9
			c5.3,6.9,6.8,11.6,6.8,20.5v10.8c0,5-2.4,7.4-8.2,8.1C135,0.3,107.2,1.4,87.3,1.4z M27.1,21.3h7c4.3,0,7.7-3.4,7.7-7.7V1.9L19.3-1
			v14.6C19.3,17.9,22.7,21.3,27.1,21.3z M140.4,21.3h7c4.4,0,7.7-3.4,7.7-7.7V-1l-22.5,2.9v11.7C132.6,17.9,136.1,21.3,140.4,21.3z"
			/>
	</g>
	<g id="Ultralight-L" transform="matrix(1 0 0 1 473.241 1556)">
		<path d="M37.7-54c-0.3,1.4,0.1,2.9,2.3,2.7c11.5-0.8,23.1-1.2,46.5-1.2c23.5,0,35,0.4,46.4,1.2c2.2,0.2,2.7-1.3,2.4-2.7
			c-2.1-9.5-4.9-16.9-6.9-20.4c-2-3.6-5.2-6.2-10.5-6.8c-5.2-0.6-16.7-0.9-31.4-0.9c-14.8,0-26.3,0.2-31.4,0.9
			c-5.4,0.7-8.6,3.2-10.5,6.8C42.6-70.9,39.8-63.5,37.7-54z M41.1-12.4c4.3,0,7.6-3.2,7.6-7.6c0-4.3-3.2-7.6-7.6-7.6
			s-7.6,3.2-7.6,7.6S36.7-12.4,41.1-12.4z M71.3-13h30.3c3.2,0,5.3-2,5.3-5.3c0-3.2-2.1-5.3-5.3-5.3H71.3c-3.1,0-5.3,2.1-5.3,5.3
			C66.1-15.1,68.2-13,71.3-13z M131.9-12.4c4.3,0,7.6-3.2,7.6-7.6c0-4.3-3.2-7.6-7.6-7.6c-4.4,0-7.6,3.2-7.6,7.6
			C124.4-15.6,127.5-12.4,131.9-12.4z M86.5,5.1c19.7,0,47.7-1,59.5-2.4c6.7-0.8,10.9-4,10.9-11v-11.1c0-11.6-2.9-16.6-7.4-22.5
			l-5.7-7.3c-2.2-11.3-6.4-23.3-8.6-27.9c-3.3-7-9.6-10.1-16.2-10.9c-4.3-0.6-19-0.9-32.5-0.9c-13.6,0-28.3,0.3-32.6,0.9
			c-6.5,0.9-12.8,3.9-16.1,10.9c-2.2,4.6-6.4,16.6-8.6,27.9L23.5-42c-4.5,6-7.4,11-7.4,22.5v11.1c0,7,4.2,10.2,10.9,11
			C38.8,4,66.7,5.1,86.5,5.1z M86.5,2.3c-19.7,0-47.5-1-59.3-2.4c-6-0.7-8.4-2.9-8.4-8v-11.3c0-9,1.5-13.8,7-20.9l5.9-7.8
			C34-59.6,38.2-71.6,40.2-76c2.6-5.2,7.3-8.4,14.1-9.3c3.8-0.5,17.3-0.9,32.3-0.9c14.9,0,28.3,0.4,32.2,0.9
			c6.8,0.8,11.5,4.1,14,9.3c2.1,4.4,6.3,16.4,8.5,27.9l6,7.8c5.3,7,6.9,11.8,6.9,20.9v11.3c0,5.1-2.4,7.4-8.4,8
			C133.9,1.1,106.1,2.3,86.5,2.3z M27,21h6.9c4.2,0,7.6-3.4,7.6-7.6v-11L19.3-0.4v13.8C19.3,17.5,22.7,21,27,21z M139.2,21h6.9
			c4.3,0,7.6-3.4,7.6-7.6V-0.4l-22.2,2.8v11C131.5,17.6,134.8,21,139.2,21z"/>
	</g>
	<g id="Black-M" transform="matrix(1 0 0 1 2857.12 1126)">
		<path d="M42.7-57.4c-0.7,3,0.6,4.9,3.9,4.9c4.6-0.1,12.6-0.5,29.7-0.5s25.2,0.4,29.7,0.5c3.3,0.1,4.6-1.9,3.9-4.9
			c-0.6-2.6-1.9-6.5-2.6-8c-1.6-3.4-3.9-4.6-8-5.2c-2.3-0.3-10.1-0.5-23-0.5c-12.8,0-20.6,0.1-23,0.5c-4.1,0.6-6.3,1.8-8,5.2
			C44.5-63.8,43.3-60,42.7-57.4z M40.5-18.7c5.4,0,9.5-4.1,9.5-9.5s-4.1-9.5-9.5-9.5S31-33.6,31-28.2S35.1-18.7,40.5-18.7z
			 M61.9-21.2h28.7c4.1,0,7-3,7-7c0-4.1-2.9-7-7-7H61.9c-4.1,0-7,2.9-7,7C54.9-24.2,57.9-21.2,61.9-21.2z M112.1-18.7
			c5.4,0,9.5-4.1,9.5-9.5s-4.1-9.5-9.5-9.5s-9.5,4.1-9.5,9.5C102.5-22.8,106.6-18.7,112.1-18.7z M76.3-0.4c17.9,0,40-0.9,49.4-1.9
			c9-1,14.4-6.6,14.4-15.3v-8.6c0-10.1-0.9-15.9-6.1-21.8l-5.1-5.9c-1.9-8.8-5.1-17.9-6.8-21.6c-3.2-6.7-9.3-11-17.1-12
			c-4.6-0.6-14.1-1-28.6-1s-24.1,0.4-28.6,1c-7.9,1-14,5.2-17.1,12c-1.7,3.7-5,12.8-6.8,21.6L18.5-48c-5.1,5.9-6.1,11.7-6.1,21.8
			v8.6c0,8.6,5.5,14.2,14.4,15.3C36.3-1.3,58.4-0.4,76.3-0.4z M76.3-14.4c-17.3,0-36-0.9-44.4-1.8c-4.2-0.4-6-2.4-6-6.2v-6.1
			c0-6.2,1.9-9.4,3.9-12.1l6.4-8.4c0.8-4.3,3.8-15.5,5.7-19.4c1.8-3.8,5.1-5.3,8.7-5.8c4.1-0.6,12.3-0.9,25.7-0.9s21.6,0.4,25.7,0.9
			c3.6,0.4,6.7,2.1,8.7,6c1.8,3.5,4.7,14.6,5.7,19.3l6.4,8.4c2.1,2.7,3.9,5.9,3.9,12.1v6.1c0,3.8-1.9,5.7-6,6.2
			C112.3-15.3,93.6-14.4,76.3-14.4z M22.1,13.4h6.4c4,0,7.2-3.1,7.2-7.2V-7.3l-20.8-7V6.2C15,10.2,18.1,13.4,22.1,13.4z M124,13.4
			h6.4c4,0,7.2-3.1,7.2-7.2v-20.5l-20.8,7V6.2C116.8,10.2,120,13.4,124,13.4z"/>
	</g>
	<g id="Heavy-M" transform="matrix(1 0 0 1 2561.84 1126)">
		<path d="M40.9-55.6c-0.6,2.7,0.5,4.3,3.5,4.3c5.3-0.2,13.6-0.6,30.4-0.6s25.1,0.4,30.4,0.6c3,0.1,4.1-1.6,3.5-4.3
			c-0.7-3.2-2.2-7.7-3.2-9.6c-1.5-3.1-3.6-4.3-7.4-4.8c-2.6-0.4-10.5-0.6-23.4-0.6S54-70.4,51.3-70c-3.7,0.5-5.8,1.7-7.4,4.8
			C43.2-63.4,41.7-58.8,40.9-55.6z M39.2-18.2c5.2,0,9.1-4,9.1-9.1c0-5.2-4-9.1-9.1-9.1c-5.2,0-9.1,4-9.1,9.1
			C30.1-22.2,34-18.2,39.2-18.2z M60.8-20.6h28c3.9,0,6.7-2.8,6.7-6.7S92.8-34,88.9-34h-28c-3.9,0-6.7,2.8-6.7,6.7
			S56.9-20.6,60.8-20.6z M110.5-18.2c5.2,0,9.1-4,9.1-9.1c0-5.2-4-9.1-9.1-9.1c-5.2,0-9.1,4-9.1,9.1
			C101.3-22.2,105.3-18.2,110.5-18.2z M74.9-1.1c17.5,0,39.6-0.9,48.9-1.9c8.4-1,13.5-6.1,13.5-14.2v-8.6c0-9.7-1.1-15.1-6.1-21.1
			l-4.9-5.8c-1.8-8.8-5.1-18-6.8-21.6c-3.1-6.4-8.9-10.5-16.4-11.5C98.8-86.4,89-86.7,75-86.7s-23.9,0.4-28.2,0.9
			c-7.5,1-13.4,5-16.4,11.5c-1.7,3.7-5,12.8-6.8,21.6l-4.9,5.8c-5,5.9-6.1,11.4-6.1,21.1v8.6c0,8.1,5,13.2,13.5,14.2
			C35.3-2,57.3-1.1,74.9-1.1z M74.9-13.3c-17.2,0-36.5-0.9-44.7-1.8c-4.2-0.5-6-2.5-6-6.2v-6.2c0-6.3,1.7-9.5,4.1-12.7l6.1-8
			c0.9-4.9,3.9-15.9,5.9-19.9c1.8-3.7,5-5.4,8.8-5.9c3.9-0.6,12.5-1,25.8-1c13.2,0,21.9,0.4,25.7,0.9s6.9,2.2,8.8,6
			c1.9,3.7,4.8,14.5,5.9,19.8l6,8c2.5,3.3,4.2,6.4,4.2,12.7v6.2c0,3.8-1.8,5.8-6,6.2C111.3-14.2,92-13.3,74.9-13.3z M22,12.6h6.3
			c3.9,0,7-3.1,7-7V-7.5l-20.3-6V5.6C15,9.5,18,12.6,22,12.6z M121.5,12.6h6.3c3.9,0,7-3.1,7-7v-19.1l-20.3,6V5.6
			C114.5,9.5,117.5,12.6,121.5,12.6z"/>
	</g>
	<g id="Bold-M" transform="matrix(1 0 0 1 2266.73 1126)">
		<path d="M39-53.6c-0.6,2.3,0.5,3.7,3,3.6c6.2-0.3,14.8-0.7,31.2-0.7c16.3,0,25,0.4,31.2,0.7c2.6,0.1,3.6-1.2,3-3.6
			c-0.9-3.9-2.7-9.2-3.8-11.3c-1.4-2.8-3.3-3.9-6.6-4.4C94-69.7,86.1-70,73.2-70c-13,0-20.9,0.2-23.8,0.7c-3.3,0.5-5.1,1.5-6.6,4.4
			C41.7-62.8,39.9-57.5,39-53.6z M37.8-17.7c4.9,0,8.7-3.8,8.7-8.7s-3.8-8.7-8.7-8.7s-8.7,3.8-8.7,8.7
			C29.1-21.4,32.8-17.7,37.8-17.7z M59.6-19.9h27.3c3.7,0,6.3-2.6,6.3-6.3s-2.6-6.3-6.3-6.3H59.6c-3.7,0-6.3,2.6-6.3,6.3
			S55.9-19.9,59.6-19.9z M108.7-17.7c4.9,0,8.7-3.8,8.7-8.7s-3.8-8.7-8.7-8.7c-4.9,0-8.7,3.8-8.7,8.7
			C100-21.4,103.8-17.7,108.7-17.7z M73.3-2c17.2,0,39.1-0.8,48.4-1.9c7.8-0.9,12.4-5.5,12.4-12.9v-8.6c0-9.2-1.3-14.3-6.1-20.3
			l-4.6-5.6c-1.8-8.8-5.1-18-6.8-21.6c-2.9-6.1-8.5-9.9-15.6-10.8c-3.9-0.5-14-0.8-27.6-0.8s-23.7,0.3-27.6,0.8
			C38.5-82.8,32.9-79,30-72.9c-1.7,3.6-5,12.8-6.8,21.6l-4.6,5.6c-4.8,5.9-6.1,11.1-6.1,20.3v8.6c0,7.5,4.6,12.1,12.4,12.9
			C34.2-2.8,56.1-2,73.3-2z M73.3-12.1c-17,0-37-0.8-45-1.8c-4.2-0.5-5.9-2.5-5.9-6.3v-6.4c0-6.5,1.5-9.6,4.4-13.4l5.7-7.5
			c1.1-5.7,4.1-16.2,6.1-20.4c1.7-3.6,4.9-5.4,8.9-5.9c3.6-0.5,12.7-0.9,25.8-0.9s22.2,0.5,25.7,0.9c4.1,0.5,7.2,2.4,9,6
			c1.9,4,5,14.5,6.1,20.4l5.7,7.5c2.9,3.8,4.4,7,4.4,13.4v6.4c0,3.8-1.7,5.8-5.8,6.3C110.2-13,90.2-12.1,73.3-12.1z M21.8,11.6h6.1
			c3.8,0,6.8-3,6.8-6.8V-7.7L15-12.6V4.9C15,8.7,17.9,11.6,21.8,11.6z M118.6,11.6h6.1c3.8,0,6.8-3,6.8-6.8v-17.4l-19.7,4.8V4.9
			C111.8,8.7,114.8,11.6,118.6,11.6z"/>
	</g>
	<g id="Semibold-M" transform="matrix(1 0 0 1 1971.12 1126)">
		<path d="M37.7-52.3c-0.5,2.1,0.4,3.2,2.7,3.1C47.2-49.6,56-50,72.1-50s25,0.4,31.7,0.8c2.3,0.1,3.2-1,2.7-3.1
			c-1-4.4-2.9-10.2-4.2-12.5c-1.4-2.6-3.1-3.6-6.1-4.1c-3.2-0.4-11.1-0.7-24.1-0.7s-21,0.3-24.1,0.7c-3,0.4-4.7,1.5-6.1,4.1
			C40.6-62.5,38.7-56.7,37.7-52.3z M36.8-17.3c4.8,0,8.4-3.6,8.4-8.4s-3.6-8.4-8.4-8.4s-8.4,3.6-8.4,8.4
			C28.4-20.9,32-17.3,36.8-17.3z M58.8-19.4h26.7c3.6,0,6.1-2.5,6.1-6.1s-2.5-6.1-6.1-6.1H58.8c-3.6,0-6.1,2.5-6.1,6.1
			C52.7-22,55.2-19.4,58.8-19.4z M107.5-17.3c4.8,0,8.4-3.6,8.4-8.4s-3.6-8.4-8.4-8.4s-8.4,3.6-8.4,8.4
			C99.2-20.9,102.8-17.3,107.5-17.3z M72.2-2.5c16.9,0,38.8-0.8,48.1-1.9c7.3-0.8,11.6-5.1,11.6-12.1v-8.6c0-8.8-1.4-13.8-6.2-19.7
			l-4.4-5.5c-1.8-8.8-5.1-18-6.8-21.6c-2.8-5.9-8.2-9.5-15.1-10.4c-3.7-0.5-14-0.8-27.2-0.8S48.6-82.8,45-82.3
			c-7,0.8-12.4,4.5-15.2,10.3c-1.7,3.6-4.9,12.8-6.8,21.6l-4.4,5.5C13.9-39,12.4-34,12.4-25.2v8.6c0,7,4.3,11.3,11.6,12.1
			C33.4-3.4,55.3-2.5,72.2-2.5z M72.2-11.3c-16.9,0-37.3-0.8-45.3-1.7c-4.2-0.5-5.8-2.6-5.8-6.3v-6.5c0-6.6,1.3-9.7,4.6-13.9
			l5.5-7.1c1.1-6.2,4.3-16.5,6.3-20.8c1.7-3.5,4.8-5.4,9-6c3.5-0.4,12.8-0.9,25.8-0.9S94.8-74,98-73.6c4.3,0.5,7.3,2.5,9.1,6
			c2,4.2,5.1,14.5,6.3,20.8l5.4,7.1c3.3,4.3,4.6,7.4,4.6,13.9v6.5c0,3.7-1.6,5.8-5.8,6.3C109.5-12.1,89-11.3,72.2-11.3z M21.6,11h6
			c3.8,0,6.7-2.9,6.7-6.6V-7.9l-19.3-4V4.4C15,8.1,17.9,11,21.6,11z M116.7,11h5.9c3.8,0,6.7-2.9,6.7-6.6v-16.3l-19.3,4V4.4
			C110,8.1,112.9,11,116.7,11z"/>
	</g>
	<g id="Medium-M" transform="matrix(1 0 0 1 1675.24 1126)">
		<path d="M36.7-51.2c-0.5,1.9,0.4,2.9,2.5,2.7c7.2-0.4,16.2-0.9,32.1-0.9s24.9,0.5,32.1,0.9c2.1,0.1,3-0.8,2.5-2.7
			c-1.1-4.7-3.1-10.9-4.6-13.4c-1.3-2.4-2.9-3.4-5.7-3.8c-3.4-0.5-11.3-0.8-24.4-0.8s-21,0.3-24.4,0.8C44-68,42.4-67,41.1-64.6
			C39.8-62.2,37.8-56,36.7-51.2z M36-17c4.6,0,8.2-3.5,8.2-8.2c0-4.6-3.5-8.2-8.2-8.2c-4.6,0-8.2,3.5-8.2,8.2
			C27.9-20.6,31.4-17,36-17z M58.1-19.1h26.4c3.5,0,5.9-2.5,5.9-5.9s-2.4-5.9-5.9-5.9H58.1c-3.5,0-5.9,2.4-5.9,5.9
			S54.7-19.1,58.1-19.1z M106.6-17c4.6,0,8.2-3.5,8.2-8.2c0-4.6-3.5-8.2-8.2-8.2c-4.6,0-8.2,3.5-8.2,8.2C98.5-20.6,102-17,106.6-17z
			 M71.3-3c16.7,0,38.5-0.8,47.8-1.9c7-0.8,11-4.8,11-11.5V-25c0-8.6-1.5-13.4-6.2-19.3l-4.3-5.5c-1.8-8.8-5-18-6.7-21.6
			c-2.7-5.7-8-9.2-14.7-10.1c-3.5-0.5-14-0.7-27-0.7s-23.5,0.3-27,0.7c-6.7,0.8-12,4.3-14.7,10.1c-1.7,3.6-4.9,12.8-6.7,21.6
			l-4.3,5.5c-4.6,5.9-6.2,10.7-6.2,19.3v8.6c0,6.7,4,10.7,11,11.5C32.8-3.8,54.6-3,71.3-3z M71.3-10.7c-16.8,0-37.6-0.8-45.5-1.7
			c-4.2-0.5-5.7-2.6-5.7-6.4v-6.5c0-6.6,1.2-9.7,4.7-14.3l5.3-6.9c1.2-6.6,4.3-16.7,6.4-21.1c1.6-3.4,4.7-5.5,9-6
			c3.3-0.4,12.9-0.9,25.8-0.9S93.9-74,97-73.6c4.4,0.5,7.4,2.6,9.1,6c2,4.3,5.1,14.4,6.4,21.1l5.2,6.9c3.5,4.6,4.7,7.7,4.7,14.3v6.5
			c0,3.7-1.6,5.9-5.7,6.4C108.9-11.5,88-10.7,71.3-10.7z M21.5,10.5h5.9c3.7,0,6.6-2.8,6.6-6.5V-8l-19-3.4V4
			C15,7.7,17.8,10.5,21.5,10.5z M115.2,10.5h5.8c3.7,0,6.6-2.8,6.6-6.5v-15.4l-19,3.4V4C108.6,7.7,111.5,10.5,115.2,10.5z"/>
	</g>
	<g id="Regular-M">
		<path id="Left_headlight" d="M1407.4,1101.9c1.9-0.1,10.9,0.7,14.5,1.1c1,0.1,3.8,1,3.8,1s-5.6-7.1-8-8.4
			c-1.7-0.9-5.7-1.3-7.6-1.4c-0.9,0-2.6-0.2-3.4,0c-0.4,0.1-1.2,0.6-1.5,0.9c-0.7,0.7-1.2,2.1-1.3,2.8c-0.5,2.7-0.5,5.3-0.4,8.5
			c0.1,2.4,0.9,7.5,1.5,9.6c0.1,0.3,0.6,0.9,0.9,1.1c0.5,0.3,0.9,0.1,1.2-0.2c0.3-0.2,0.7-0.5,0.6-0.9c-0.2-2.3-1.1-7-1.1-9.7
			c0-1-0.2-3.1,0.1-3.9C1406.7,1102.3,1407.1,1102,1407.4,1101.9z"/>
		<path d="M1504.6,1097.8c0-0.9-0.5-3.5-0.8-4.3c-0.7-1.6-3.1-4.8-4.4-5.9c-0.4-0.4-1.5-0.9-1.5-0.9s2.7-0.3,4.2-0.8
			c0.7-0.2,1.3-2.3,1.2-3c-0.1-0.7-0.5-1.3-0.8-1.5c-1.4-1.1-5.2-1.6-7-1.5c-0.4,0-1.3,0.4-1.5,0.7c-0.5,0.8-0.1,3.7-0.1,3.7
			l-0.5,1.3l-2.2-0.2c0,0-6.3-17.5-11.6-19.4c-6.7-2.4-20.8-2-29.8-2s-23.1-0.4-29.8,2c-5.4,2-11.7,19.4-11.7,19.4l-2.2,0.2
			l-0.5-1.3c0,0,0.4-2.9-0.1-3.7c-0.2-0.3-1.1-0.7-1.5-0.7c-1.8-0.1-5.6,0.3-7,1.5c-0.3,0.3-0.8,0.9-0.8,1.5c-0.1,0.7,0.5,2.8,1.2,3
			c1.5,0.5,4.2,0.8,4.2,0.8s-1.1,0.5-1.5,0.9c-1.2,1.1-3.7,4.3-4.4,5.9c-0.3,0.9-0.8,3.5-0.8,4.3c-0.4,5.5-0.5,15.9-0.1,21.2
			c0,0-0.2,9.6,0.5,12.7c0.2,0.7,0.4,2.6,1.1,2.6c3.6,0.2,9.9,0,13.8,0c0.5,0,0.7-1.3,0.7-1.8c0-0.4,0-1.7,0-1.7
			c16.3,0.3,38.7,0.1,38.7,0.1s22.4,0.2,38.7-0.1c0,0,0,1.3,0,1.7c0,0.5,0.3,1.8,0.8,1.8c3.9,0,10.2,0.2,13.8,0c0.7,0,1-1.9,1.1-2.6
			c0.7-3.1,0.5-12.7,0.5-12.7C1505.1,1113.7,1505,1103.4,1504.6,1097.8z M1499.5,1115.2c-0.1,1.4-0.6,4.3-0.8,5.8
			c-0.3,2.3-1.3,3.6-2.4,3.6c-0.9,0-0.6,0-0.9,0c-0.1,0-0.4,0-1.1,0c0,0-0.1-1.5-1-2.8c-1.3-1.9-6.6-3.6-8.8-3.7
			c-8.7-0.5-34.7-0.2-34.7-0.2s-26.1-0.2-34.7,0.2c-2.3,0.1-7.5,1.8-8.8,3.7c-0.9,1.2-1,2.7-1,2.8l0,0c-2-0.1-0.7,0-2,0
			c-1,0-2.1-1.3-2.4-3.6c-0.2-1.4-0.6-4.3-0.7-5.8c-0.3-4.4-0.3-12.6,0-17.2c0.4-5.4,4.8-8.4,10.2-8.6c0.5,0,1.9-0.2,2.1-0.2
			c0.3-0.2,4.5-17.5,10.3-18.9c7.7-1.9,18.6-1.8,27.1-1.8c8.4,0,19.4-0.1,27,1.8c5.8,1.4,10,18.7,10.3,18.9c0.2,0,1.7,0.2,2.1,0.2
			c5.4,0.2,9.8,3.3,10.2,8.6C1499.8,1102.6,1499.8,1110.9,1499.5,1115.2z"/>
		<path id="Right_headlight" d="M1492.3,1101.9c-1.9-0.1-10.9,0.7-14.5,1.1c-1,0.1-3.8,1-3.8,1s5.6-7.1,8-8.4
			c1.7-0.9,5.7-1.3,7.6-1.4c0.9,0,2.6-0.2,3.4,0c0.4,0.1,1.2,0.6,1.5,0.9c0.7,0.7,1.2,2.1,1.3,2.8c0.5,2.7,0.5,5.3,0.4,8.5
			c-0.1,2.4-0.9,7.5-1.5,9.6c-0.1,0.3-0.6,0.9-0.9,1.1c-0.5,0.3-0.9,0.1-1.2-0.2c-0.3-0.2-0.7-0.5-0.6-0.9c0.2-2.3,1.1-7,1.1-9.7
			c0-1,0.2-3.1-0.1-3.9C1493,1102.3,1492.6,1102,1492.3,1101.9z"/>
		<path d="M1461.6,1092.4c0,0.4-0.2,0.8-0.5,1.2l-15,18.9c-1.2,1.6-3.3,0.5-2.6-1.4l4.9-13.2h-9.3c-0.7,0-1.4-0.6-1.4-1.4
			c0-0.3,0.2-0.7,0.5-1.1l15.1-18.9c1.2-1.6,3.3-0.5,2.5,1.4l-4.9,13.2h9.3C1460.9,1091.1,1461.6,1091.7,1461.6,1092.4z"/>
	</g>
	<g id="Regular-M-frame" class="st8">
		<path class="st9" d="M1407.4,1101.9c1.9-0.1,10.9,0.7,14.5,1.1c1,0.1,3.8,1,3.8,1s-5.6-7.1-8-8.4c-1.7-0.9-5.7-1.3-7.6-1.4
			c-0.9,0-2.6-0.2-3.4,0c-0.4,0.1-1.2,0.6-1.5,0.9c-0.7,0.7-1.2,2.1-1.3,2.8c-0.5,2.7-0.5,5.3-0.4,8.5c0.1,2.4,0.9,7.5,1.5,9.6
			c0.1,0.3,0.6,0.9,0.9,1.1c0.5,0.3,0.9,0.1,1.2-0.2c0.3-0.2,0.7-0.5,0.6-0.9c-0.2-2.3-1.1-7-1.1-9.7c0-1-0.2-3.1,0.1-3.9
			C1406.7,1102.2,1407.1,1101.9,1407.4,1101.9z"/>
		<path class="st9" d="M1410.4,1089.4c0.4,0,1.9-0.2,2.1-0.2c0.3-0.2,4.5-17.5,10.3-18.9c7.7-1.9,18.6-1.8,27.1-1.8v-4.4
			c-9,0-23.1-0.4-29.8,2c-5.4,2-11.6,19.4-11.6,19.4l-2.2,0.2l-0.5-1.4c0,0,0.4-2.9-0.1-3.7c-0.2-0.3-1.1-0.7-1.5-0.7
			c-1.8-0.1-5.6,0.3-7,1.5c-0.3,0.3-0.8,0.9-0.8,1.5c0,0.7,0.5,2.8,1.2,3c1.5,0.5,4.2,0.8,4.2,0.8s-1.1,0.5-1.5,0.9
			c-1.2,1.1-3.7,4.3-4.4,5.9c-0.4,0.9-0.8,3.5-0.8,4.3c-0.4,5.5-0.5,15.9-0.1,21.2c0,0-0.2,9.6,0.5,12.7c0.2,0.7,0.4,2.6,1.1,2.6
			c3.6,0.2,9.9,0,13.8,0c0.5,0,0.7-1.3,0.7-1.8c0-0.4,0-1.7,0-1.7c16.3,0.3,38.7,0.1,38.7,0.1v-2.7v-10.3c0,0-26-0.3-34.7,0.2
			c-2.3,0.1-7.5,1.8-8.8,3.7c-0.9,1.2-0.9,2.7-0.9,2.8c0,0,0,0,0,0c-2-0.1-0.7,0-2,0c-1,0-2.1-1.4-2.4-3.7c-0.2-1.4-0.6-4.3-0.7-5.8
			c-0.3-4.4-0.3-12.7,0-17.2C1400.6,1092.6,1405,1089.6,1410.4,1089.4z"/>
	</g>
	<g id="Light-M" transform="matrix(1 0 0 1 1083.91 1126)">
		<path d="M33.5-49.8c-0.4,1.5,0.2,2.3,2,2.2c8.2-0.6,17.3-1,33.7-1s25.6,0.4,33.7,1c1.8,0.1,2.4-0.7,2.1-2.2
			c-1.3-5.9-3.5-12.3-5.1-15c-1.3-2.4-3.1-3.7-6.1-4.1c-3.7-0.5-12-0.8-24.6-0.8s-20.9,0.3-24.6,0.8c-3,0.4-4.8,1.7-6.1,4.1
			C37-62.1,34.8-55.7,33.5-49.8z M34-16.9c4.1,0,7.2-3.1,7.2-7.3c0-4.1-3.1-7.2-7.2-7.2s-7.2,3.1-7.2,7.2S29.9-16.9,34-16.9z
			 M56.7-18.4h25.1c3.1,0,5.2-2.1,5.2-5.2s-2.1-5.2-5.2-5.2H56.7c-3,0-5.1,2.1-5.1,5.2C51.5-20.5,53.6-18.4,56.7-18.4z M104.4-16.9
			c4.1,0,7.2-3.1,7.2-7.3c0-4.1-3.1-7.2-7.2-7.2s-7.2,3.1-7.2,7.2C97.2-20.1,100.3-16.9,104.4-16.9z M69.2-3.7
			c16.1,0,37.8-0.8,47-1.9c6.2-0.7,9.7-4,9.7-10v-8.6c0-8.5-1.9-12.8-6-18.3l-4.2-5.5c-1.8-8.8-5-18-6.7-21.6
			c-2.6-5.5-7.6-8.5-13.7-9.3c-3.3-0.4-14.2-0.7-26.2-0.7s-22.9,0.3-26.2,0.7C37-78,32-75,29.4-69.5c-1.7,3.6-4.9,12.8-6.7,21.6
			l-4.2,5.5c-4.2,5.5-6.1,9.8-6.1,18.3v8.6c0,6,3.6,9.3,9.7,10C31.4-4.5,53.2-3.7,69.2-3.7z M69.2-8.7c-16.2,0-37.6-0.7-45.8-1.8
			c-4.3-0.6-5.9-2.5-5.9-6.3v-7.3c0-6.8,1.1-10.1,5-15.2l4.9-6.4c1.4-7.6,4.6-17.4,6.6-21.5c1.7-3.6,5-5.8,9.7-6.4
			c3.1-0.4,13.1-0.8,25.6-0.8c12.4,0,22.6,0.4,25.5,0.8c4.8,0.6,8,2.8,9.7,6.4c2,4.1,5.1,13.9,6.6,21.5l4.9,6.4
			c3.9,5.1,5,8.4,5,15.2v7.3c0,3.8-1.6,5.8-5.9,6.3C106.8-9.5,85.4-8.7,69.2-8.7z M21.2,9.4h5.6c3.5,0,6.3-2.7,6.3-6.2V-7.5L15-10
			V3.2C15,6.7,17.7,9.4,21.2,9.4z M111.6,9.4h5.6c3.6,0,6.3-2.7,6.3-6.2V-10l-18.2,2.5V3.2C105.3,6.7,108,9.4,111.6,9.4z"/>
	</g>
	<g id="Thin-M" transform="matrix(1 0 0 1 788.524 1126)">
		<path d="M30.9-49.8c-0.3,1.3,0.1,2.3,1.9,2.2c8.6-0.6,17.6-0.9,35.1-0.9c17.4,0,26.5,0.3,35,0.9c1.8,0.1,2.2-0.9,1.9-2.2
			c-1.5-6.8-3.7-12.8-5.2-15.4S96-69.5,92.3-70c-3.9-0.5-12.5-0.7-24.4-0.7S47.3-70.5,43.5-70c-3.7,0.5-5.9,2.2-7.3,4.8
			C34.6-62.6,32.5-56.6,30.9-49.8z M32.7-17.3c3.7,0,6.4-2.7,6.4-6.5c0-3.7-2.7-6.4-6.4-6.4s-6.4,2.7-6.4,6.4
			C26.3-20.1,29-17.3,32.7-17.3z M55.8-18.2H80c2.7,0,4.6-1.8,4.6-4.5s-1.8-4.6-4.6-4.6H55.8c-2.7,0-4.5,1.8-4.5,4.6
			C51.3-20,53.1-18.2,55.8-18.2z M103.1-17.3c3.7,0,6.4-2.7,6.4-6.5c0-3.7-2.7-6.4-6.4-6.4c-3.7,0-6.4,2.7-6.4,6.4
			S99.4-17.3,103.1-17.3z M67.9-3.9c15.6,0,37.3-0.8,46.5-1.9c5.6-0.6,8.9-3.5,8.9-9.1v-8.6c0-8.8-2.1-12.8-5.8-17.8l-4.3-5.6
			c-1.8-8.8-5-18.1-6.7-21.6c-2.6-5.4-7.5-8.1-13-8.8C90.1-77.7,79-78,67.9-78s-22.3,0.3-25.6,0.7c-5.4,0.7-10.4,3.4-12.9,8.8
			c-1.7,3.6-4.9,12.8-6.7,21.6l-4.3,5.6c-3.8,4.9-5.9,9-5.9,17.8v8.6c0,5.7,3.4,8.5,8.9,9.1C30.6-4.7,52.3-3.9,67.9-3.9z M67.9-7.2
			C52.3-7.2,30.8-8,22.1-9.1c-4.5-0.6-6.3-2.4-6.3-6.3v-8.1c0-6.9,1.2-10.5,5.2-15.8l4.7-6.2c1.6-8.4,4.9-17.9,6.6-21.6
			c1.9-3.8,5.4-6.3,10.4-6.9c3-0.4,13.3-0.7,25.2-0.7s22.2,0.3,25.2,0.7c5.1,0.6,8.6,3,10.4,6.9c1.8,3.7,5,13.2,6.6,21.6l4.7,6.2
			c4,5.3,5.2,8.9,5.2,15.8v8.1c0,3.9-1.8,5.8-6.2,6.3C105-8.1,83.5-7.2,67.9-7.2z M21,8.8h5.5c3.4,0,6.1-2.7,6.1-6v-9.4L15-9V2.7
			C15,6.1,17.6,8.8,21,8.8z M109.3,8.8h5.4c3.4,0,6.1-2.7,6.1-6V-9l-17.6,2.3v9.4C103.2,6.1,105.9,8.8,109.3,8.8z"/>
	</g>
	<g id="Ultralight-M" transform="matrix(1 0 0 1 492.491 1126)">
		<path d="M29.6-49.8c-0.3,1.1,0.1,2.2,1.8,2.1c8.8-0.6,17.8-0.9,35.8-0.9s27,0.3,35.7,0.9c1.7,0.1,2.1-1,1.9-2.1
			c-1.6-7.2-3.7-13-5.3-15.7c-1.6-2.7-3.9-4.7-8-5.2c-4-0.5-12.8-0.7-24.4-0.7s-20.4,0.2-24.4,0.7c-4.1,0.5-6.5,2.4-8,5.2
			C33.4-62.8,31.3-57,29.6-49.8z M32-17.5c3.4,0,6-2.6,6-6.1c0-3.4-2.6-6-6-6c-3.5,0-6,2.6-6,6C26.1-20.1,28.6-17.5,32-17.5z
			 M55.4-18.1H79c2.6,0,4.2-1.6,4.2-4.2s-1.7-4.2-4.2-4.2H55.4c-2.5,0-4.2,1.7-4.2,4.2S52.9-18.1,55.4-18.1z M102.5-17.5
			c3.4,0,6-2.6,6-6.1c0-3.4-2.6-6-6-6c-3.5,0-6,2.6-6,6C96.5-20.1,99-17.5,102.5-17.5z M67.3-4c15.3,0,37-0.8,46.2-1.9
			c5.3-0.6,8.6-3.2,8.6-8.7v-8.6c0-8.9-2.2-12.8-5.7-17.5l-4.4-5.7c-1.7-8.8-5-18.1-6.7-21.6c-2.6-5.4-7.5-7.9-12.7-8.5
			c-3.4-0.4-14.6-0.7-25.3-0.7s-22,0.2-25.4,0.7c-5.1,0.7-10,3.1-12.6,8.5c-1.7,3.6-4.9,12.8-6.7,21.6l-4.4,5.7
			c-3.6,4.7-5.8,8.6-5.8,17.5v8.6c0,5.5,3.3,8.1,8.6,8.7C30.2-4.8,51.9-4,67.3-4z M67.3-6.4C52-6.4,30.4-7.1,21.4-8.3
			c-4.6-0.6-6.5-2.3-6.5-6.2v-8.6c0-7,1.2-10.6,5.4-16.1l4.6-6.1c1.7-8.8,5-18.1,6.6-21.6c2-4,5.6-6.5,10.8-7.1
			c3-0.4,13.4-0.7,25.1-0.7c11.6,0,22,0.3,25,0.7c5.2,0.6,8.8,3.1,10.8,7.1c1.7,3.5,4.9,12.8,6.6,21.6l4.7,6.1
			c4.1,5.4,5.3,9.1,5.3,16.1v8.6c0,3.9-1.9,5.7-6.4,6.2C104.1-7.3,82.5-6.4,67.3-6.4z M20.9,8.4h5.4c3.3,0,5.9-2.6,5.9-5.9v-8.7
			L15-8.4V2.5C15,5.7,17.6,8.4,20.9,8.4z M108.2,8.4h5.4c3.4,0,5.9-2.6,5.9-5.9V-8.4l-17.3,2.2v8.7C102.2,5.8,104.8,8.4,108.2,8.4z"
			/>
	</g>
	<g id="Black-S" transform="matrix(1 0 0 1 2873.24 696)">
		<path d="M33.8-53.1c-0.6,2.4,0.5,4.1,3.2,4c3.4,0,9.6-0.3,23.1-0.3c13.6,0,19.8,0.3,23.1,0.3c2.7,0,3.8-1.6,3.2-4
			C86-55,85-57.8,84.5-58.9c-1.3-2.8-3.2-3.8-6.5-4.2c-1.8-0.2-7.9-0.3-17.9-0.3S44-63.3,42.2-63.1c-3.4,0.5-5.2,1.5-6.5,4.2
			C35.2-57.8,34.3-55,33.8-53.1z M32.1-22.4c4.3,0,7.6-3.3,7.6-7.6s-3.3-7.6-7.6-7.6s-7.6,3.3-7.6,7.6
			C24.5-25.7,27.8-22.4,32.1-22.4z M48.8-24.4h22.7c3.2,0,5.6-2.3,5.6-5.6c0-3.2-2.3-5.6-5.6-5.6H48.8c-3.2,0-5.6,2.3-5.6,5.6
			C43.3-26.8,45.6-24.4,48.8-24.4z M88.2-22.4c4.3,0,7.6-3.3,7.6-7.6s-3.3-7.6-7.6-7.6s-7.6,3.3-7.6,7.6
			C80.7-25.7,83.9-22.4,88.2-22.4z M60.2-7.7c14.1,0,31.4-0.7,38.8-1.5c7.2-0.8,11.6-5.3,11.6-12.3v-6.7c0-8.1-0.7-12.6-4.7-17.3
			l-4.1-4.7c-1.5-6.9-4-14.1-5.4-16.9c-2.5-5.4-7.4-8.7-13.6-9.6c-3.7-0.5-11.1-0.8-22.6-0.8s-18.9,0.3-22.6,0.8
			c-6.2,0.8-11.1,4.2-13.6,9.6c-1.3,2.9-3.9,10.1-5.4,16.9l-4.1,4.7c-4.1,4.6-4.7,9.2-4.7,17.3v6.7c0,6.9,4.4,11.4,11.6,12.3
			C28.7-8.4,46-7.7,60.2-7.7z M60.2-19.1c-13.6,0-28.1-0.7-34.7-1.4c-3.3-0.3-4.8-1.9-4.8-4.8v-4.8c0-4.8,1.5-7.3,3-9.3l5.1-6.7
			c0.6-3.2,2.9-12.1,4.4-15.1s4-4.2,6.8-4.6c3.3-0.5,9.6-0.7,20.1-0.7s16.8,0.3,20.1,0.7c2.7,0.3,5.2,1.6,6.8,4.7
			c1.4,2.6,3.7,11.4,4.4,14.9l5.1,6.7c1.5,2,3,4.5,3,9.3v4.8c0,3-1.5,4.5-4.8,4.8C88.2-19.9,73.8-19.1,60.2-19.1z M17.4,3.1h5.1
			c3.2,0,5.7-2.5,5.7-5.7v-10.7L11.7-19v16.5C11.7,0.6,14.2,3.1,17.4,3.1z M97.9,3.1h5.1c3.2,0,5.7-2.5,5.7-5.7V-19l-16.4,5.8v10.7
			C92.2,0.6,94.7,3.1,97.9,3.1z"/>
	</g>
	<g id="Heavy-S" transform="matrix(1 0 0 1 2577.63 696)">
		<path d="M32.6-51.6c-0.5,2.2,0.4,3.5,2.8,3.5c4-0.1,10.4-0.4,23.6-0.4s19.6,0.3,23.6,0.4c2.4,0.1,3.4-1.3,2.8-3.5
			c-0.5-2.3-1.7-5.7-2.4-7.1c-1.2-2.5-2.9-3.4-5.9-3.8c-2-0.3-8.1-0.4-18.2-0.4s-16.2,0.1-18.2,0.4c-3,0.4-4.6,1.3-5.9,3.8
			C34.3-57.4,33.2-54,32.6-51.6z M31.1-22c4.1,0,7.3-3.2,7.3-7.3s-3.2-7.3-7.3-7.3s-7.3,3.2-7.3,7.3C23.8-25.1,27-22,31.1-22z
			 M48-23.9h22.2c3.1,0,5.3-2.3,5.3-5.4s-2.2-5.3-5.3-5.3H48c-3.1,0-5.3,2.2-5.3,5.3C42.6-26.2,44.9-23.9,48-23.9z M87-22
			c4.1,0,7.3-3.2,7.3-7.3s-3.2-7.3-7.3-7.3c-4.1,0-7.3,3.2-7.3,7.3C79.7-25.1,82.9-22,87-22z M59.1-8.3C73-8.3,90.2-9,97.6-9.8
			c6.8-0.8,10.8-4.9,10.8-11.4V-28c0-7.7-0.8-12-4.8-16.7l-3.9-4.6c-1.5-6.9-4-14.1-5.3-16.9c-2.4-5.1-7.1-8.3-13.1-9.1
			c-3.4-0.5-11-0.7-22.2-0.7s-18.8,0.3-22.2,0.7c-6,0.8-10.7,4-13.1,9.1c-1.3,2.9-3.9,10.1-5.3,16.9l-3.9,4.6
			c-4,4.7-4.8,9.1-4.8,16.7v6.7c0,6.5,4.1,10.6,10.8,11.4C27.9-9,45.2-8.3,59.1-8.3z M59.1-18.4c-13.5,0-28.5-0.7-34.9-1.4
			c-3.3-0.4-4.7-1.9-4.7-4.9v-4.8c0-4.9,1.4-7.4,3.2-9.8l4.8-6.4c0.7-3.7,3-12.3,4.6-15.5c1.4-2.9,3.9-4.2,6.8-4.6
			c3.1-0.4,9.7-0.7,20.2-0.7c10.4,0,17.1,0.4,20.2,0.7c2.9,0.4,5.4,1.7,6.9,4.7c1.4,2.9,3.8,11.4,4.6,15.4l4.8,6.4
			c1.8,2.4,3.2,4.9,3.2,9.8v4.8c0,3-1.4,4.5-4.7,4.9C87.6-19.1,72.6-18.4,59.1-18.4z M17.3,2.4h5c3.1,0,5.5-2.4,5.5-5.5v-10.4
			l-16-4.9v15.3C11.7,0,14.2,2.4,17.3,2.4z M95.9,2.4h5c3.1,0,5.5-2.4,5.5-5.5v-15.3l-16,4.9v10.4C90.4,0,92.8,2.4,95.9,2.4z"/>
	</g>
	<g id="Bold-S" transform="matrix(1 0 0 1 2282.14 696)">
		<path d="M31.2-49.9c-0.5,1.9,0.4,3,2.5,2.9c4.7-0.2,11.4-0.6,24.1-0.6s19.5,0.3,24.1,0.6c2.1,0.1,2.9-1,2.5-2.9
			c-0.7-2.8-2-6.9-2.9-8.5c-1.1-2.2-2.5-3-5.1-3.4c-2.2-0.3-8.4-0.5-18.6-0.5c-10.3,0-16.4,0.2-18.6,0.5c-2.5,0.4-3.9,1.1-5.1,3.4
			C33.2-56.9,31.9-52.8,31.2-49.9z M30-21.5c4,0,7-3,7-7s-3-7-7-7s-7,3-7,7S26-21.5,30-21.5z M47-23.3h21.6c3,0,5.1-2.1,5.1-5.1
			s-2.1-5.1-5.1-5.1H47c-3,0-5.1,2.1-5.1,5.1S44-23.3,47-23.3z M85.7-21.5c4,0,7-3,7-7s-3-7-7-7s-7,3-7,7S81.7-21.5,85.7-21.5z
			 M57.8-9c13.6,0,30.8-0.7,38.1-1.5c6.3-0.7,10-4.5,10-10.4v-6.7c0-7.2-1-11.4-4.8-16.1l-3.6-4.4c-1.4-6.9-4-14.1-5.3-16.9
			c-2.3-4.8-6.7-7.9-12.5-8.6c-3.1-0.4-11-0.7-21.8-0.7S39.2-74,36.1-73.6C30.3-73,25.8-70,23.6-65.1c-1.3,2.9-3.9,10.1-5.3,16.9
			l-3.6,4.4c-3.9,4.7-4.8,8.9-4.8,16.1v6.7c0,6,3.7,9.7,10,10.4C27.1-9.7,44.3-9,57.8-9z M57.8-17.5c-13.4,0-29-0.7-35.2-1.4
			c-3.2-0.4-4.5-2-4.5-4.9v-4.8c0-5,1.2-7.4,3.4-10.4l4.5-6c0.8-4.2,3.2-12.6,4.8-15.9c1.3-2.8,3.8-4.2,6.8-4.6
			c2.9-0.4,9.9-0.7,20.2-0.7s17.4,0.4,20.2,0.7c3.1,0.4,5.5,1.8,6.9,4.6c1.5,3.1,3.9,11.5,4.8,15.9l4.5,6c2.2,2.9,3.4,5.3,3.4,10.4
			v4.8c0,2.9-1.3,4.6-4.5,4.9C86.8-18.2,71.2-17.5,57.8-17.5z M17.1,1.7h4.8c3.1,0,5.4-2.3,5.4-5.4v-10.1l-15.6-4v14.1
			C11.7-0.6,14.1,1.7,17.1,1.7z M93.7,1.7h4.8c3.1,0,5.4-2.3,5.4-5.4v-14.1l-15.6,4v10.1C88.3-0.6,90.7,1.7,93.7,1.7z"/>
	</g>
	<g id="Semibold-S" transform="matrix(1 0 0 1 1986.27 696)">
		<path d="M30.3-48.8c-0.4,1.7,0.4,2.6,2.2,2.5c5.1-0.3,12.1-0.6,24.5-0.6s19.3,0.4,24.5,0.6c1.9,0.1,2.6-0.8,2.2-2.5
			c-0.7-3.2-2.2-7.8-3.2-9.5c-1.1-2-2.3-2.7-4.5-3c-2.4-0.3-8.6-0.6-18.9-0.6c-10.4,0-16.5,0.2-18.9,0.6c-2.2,0.3-3.5,1-4.6,3
			C32.5-56.5,31-51.9,30.3-48.8z M29.2-21.1c3.9,0,6.8-2.9,6.8-6.8s-2.9-6.8-6.8-6.8s-6.8,2.9-6.8,6.8
			C22.4-24.1,25.4-21.1,29.2-21.1z M46.4-22.9h21.3c2.9,0,4.9-2.1,4.9-5s-2-4.9-4.9-4.9H46.4c-2.9,0-4.9,2-4.9,4.9
			C41.4-25,43.5-22.9,46.4-22.9z M84.7-21.1c3.9,0,6.8-2.9,6.8-6.8s-2.9-6.8-6.8-6.8s-6.8,2.9-6.8,6.8
			C77.9-24.1,80.9-21.1,84.7-21.1z M57-9.5c13.4,0,30.5-0.7,37.9-1.5c5.9-0.7,9.4-4.2,9.4-9.8v-6.7c0-6.9-1.1-10.9-4.9-15.6
			l-3.5-4.3c-1.4-6.9-4-14.1-5.3-16.9c-2.2-4.6-6.5-7.6-12.1-8.3C75.6-73,67.6-73.2,57-73.2S38.4-73,35.5-72.7
			c-5.6,0.7-9.9,3.7-12.1,8.3c-1.3,2.8-3.9,10.1-5.3,16.9l-3.5,4.3c-3.8,4.7-4.9,8.7-4.9,15.6v6.7c0,5.6,3.4,9.1,9.4,9.8
			C26.4-10.1,43.6-9.5,57-9.5z M57-16.9c-13.4,0-29.3-0.6-35.4-1.3c-3.2-0.4-4.5-2.1-4.5-5v-4.9c0-5.1,1-7.5,3.5-10.7l4.3-5.7
			c0.8-4.6,3.3-12.8,4.9-16.3c1.3-2.7,3.7-4.2,6.9-4.6c2.8-0.4,10-0.7,20.3-0.7s17.7,0.4,20.2,0.7c3.3,0.4,5.6,1.9,6.9,4.6
			c1.6,3.3,4,11.5,4.9,16.2l4.3,5.7c2.5,3.2,3.5,5.6,3.5,10.7v4.9c0,2.9-1.2,4.6-4.5,5C86.3-17.6,70.3-16.9,57-16.9z M17,1.2h4.7
			c3,0,5.3-2.3,5.3-5.3V-14l-15.4-3.3V-4C11.7-1,14,1.2,17,1.2z M92.2,1.2h4.7c3,0,5.3-2.3,5.3-5.3v-13.3l-15.4,3.3V-4
			C86.9-1,89.2,1.2,92.2,1.2z"/>
	</g>
	<g id="Medium-S" transform="matrix(1 0 0 1 1690.2 696)">
		<path d="M29.6-47.9c-0.4,1.6,0.3,2.3,2,2.2c5.5-0.3,12.6-0.7,24.7-0.7S75.6-46,81-45.7c1.7,0.1,2.4-0.6,2-2.2
			c-0.8-3.4-2.4-8.4-3.5-10.3c-1-1.9-2.1-2.5-4.1-2.8c-2.6-0.4-8.7-0.6-19.1-0.6c-10.5,0-16.6,0.3-19.1,0.6c-2,0.3-3.1,0.9-4.2,2.8
			C32-56.3,30.4-51.3,29.6-47.9z M28.7-20.9c3.8,0,6.6-2.9,6.6-6.6s-2.9-6.6-6.6-6.6c-3.8,0-6.6,2.9-6.6,6.6S24.9-20.9,28.7-20.9z
			 M45.9-22.7h21c2.8,0,4.8-2,4.8-4.8s-2-4.8-4.8-4.8h-21c-2.8,0-4.8,2-4.8,4.8C41.1-24.7,43-22.7,45.9-22.7z M84-20.9
			c3.8,0,6.6-2.9,6.6-6.6s-2.9-6.6-6.6-6.6c-3.8,0-6.6,2.9-6.6,6.6S80.3-20.9,84-20.9z M56.4-9.8c13.2,0,30.4-0.6,37.7-1.5
			c5.7-0.6,8.9-3.9,8.9-9.3v-6.7c0-6.7-1.1-10.5-4.9-15.3l-3.3-4.2c-1.4-6.9-4-14.1-5.3-16.9c-2.1-4.5-6.3-7.3-11.7-8
			c-2.8-0.4-10.9-0.6-21.3-0.6S37.8-72.2,35-71.9c-5.4,0.7-9.6,3.5-11.7,8C22-61,19.4-53.8,18-46.9l-3.3,4.2
			c-3.8,4.8-4.9,8.6-4.9,15.3v6.7c0,5.4,3.2,8.7,8.9,9.3C26-10.5,43.1-9.8,56.4-9.8z M56.4-16.5c-13.3,0-29.6-0.6-35.6-1.3
			c-3.2-0.4-4.4-2.1-4.4-5v-4.9c0-5.2,1-7.5,3.6-11l4.2-5.5c0.9-4.9,3.3-12.9,5-16.5c1.2-2.6,3.6-4.2,6.9-4.5
			c2.6-0.3,10-0.7,20.3-0.7s17.8,0.4,20.2,0.7c3.4,0.4,5.7,2,7,4.6c1.6,3.5,4.1,11.5,5,16.5l4.2,5.5c2.7,3.5,3.6,5.9,3.6,11v4.9
			c0,2.9-1.2,4.6-4.4,5C85.9-17.1,69.6-16.5,56.4-16.5z M16.9,0.9h4.7c3,0,5.3-2.3,5.3-5.2v-9.8l-15.2-2.8v12.6
			C11.7-1.4,14,0.9,16.9,0.9z M91.1,0.9h4.6c3,0,5.3-2.3,5.3-5.2v-12.6l-15.2,2.8v9.8C85.8-1.4,88.1,0.9,91.1,0.9z"/>
	</g>
	<g id="Regular-S" transform="matrix(1 0 0 1 1394.33 696)">
		<path d="M28.7-46.7c-0.3,1.4,0.3,1.9,1.8,1.8c6-0.4,13.2-0.8,25.1-0.8c11.8,0,19.1,0.4,25.1,0.8c1.5,0.1,2.1-0.4,1.8-1.8
			c-0.9-3.8-2.6-9.2-3.9-11.3c-0.9-1.7-1.9-2.2-3.6-2.5c-2.7-0.4-8.9-0.7-19.4-0.7s-16.7,0.3-19.4,0.7c-1.7,0.2-2.7,0.8-3.7,2.5
			C31.2-55.9,29.5-50.5,28.7-46.7z M27.9-20.6c3.7,0,6.4-2.8,6.4-6.4c0-3.7-2.8-6.4-6.4-6.4s-6.4,2.8-6.4,6.4
			C21.5-23.3,24.3-20.6,27.9-20.6z M45.2-22.3h20.6c2.7,0,4.6-2,4.6-4.7s-1.9-4.6-4.6-4.6H45.2c-2.7,0-4.6,1.9-4.6,4.6
			C40.6-24.2,42.5-22.3,45.2-22.3z M83.1-20.6c3.7,0,6.4-2.8,6.4-6.4c0-3.7-2.8-6.4-6.4-6.4s-6.4,2.8-6.4,6.4
			C76.7-23.3,79.4-20.6,83.1-20.6z M55.5-10.3c13,0,30.1-0.6,37.4-1.5c5.4-0.6,8.4-3.6,8.4-8.6v-6.7c0-6.3-1.2-10.1-4.9-14.8
			l-3.2-4.2c-1.4-6.9-4-14.1-5.3-16.9c-2.1-4.3-6.1-7-11.3-7.7c-2.6-0.3-10.8-0.5-21-0.5s-18.5,0.2-21,0.5
			c-5.3,0.6-9.3,3.4-11.3,7.7C22-60.2,19.4-52.9,18-46.1L14.7-42c-3.7,4.8-4.9,8.5-4.9,14.8v6.7c0,5,3,8.1,8.3,8.6
			C25.4-10.9,42.5-10.3,55.5-10.3z M55.5-15.9c-13.2,0-29.9-0.6-35.8-1.3c-3.2-0.4-4.3-2.1-4.3-5v-4.9c0-5.2,0.8-7.6,3.7-11.4l4-5.2
			c0.9-5.3,3.4-13.1,5.1-16.8c1.2-2.5,3.5-4.2,6.9-4.5c2.5-0.3,10.1-0.7,20.4-0.7s18.1,0.4,20.3,0.7c3.5,0.4,5.8,2.1,7,4.5
			c1.7,3.7,4.2,11.5,5.1,16.8l4,5.2c2.9,3.8,3.8,6.2,3.8,11.4v4.9c0,2.9-1.1,4.6-4.3,5C85.4-16.5,68.7-15.9,55.5-15.9z M16.8,0.4
			h4.6c2.9,0,5.2-2.2,5.2-5.1v-9.6l-14.9-2.2v11.8C11.7-1.8,14,0.4,16.8,0.4z M89.6,0.4h4.5c2.9,0,5.2-2.2,5.2-5.1v-11.8l-14.9,2.2
			v9.6C84.4-1.8,86.7,0.4,89.6,0.4z"/>
	</g>
	<g id="Light-S" transform="matrix(1 0 0 1 1098.5 696)">
		<path d="M27-46.7c-0.3,1.2,0.2,1.9,1.7,1.8c6.3-0.4,13.5-0.8,26-0.8s19.8,0.3,26,0.8c1.4,0.1,2-0.5,1.7-1.8
			c-1-4.4-2.7-9.5-3.9-11.6c-1-1.8-2.3-2.7-4.4-3c-2.9-0.4-9.2-0.6-19.3-0.6s-16.5,0.2-19.3,0.6c-2.2,0.3-3.4,1.2-4.5,3
			C29.7-56.2,27.9-51,27-46.7z M27.1-20.8c3.4,0,5.9-2.5,5.9-5.9s-2.5-5.9-5.9-5.9s-5.9,2.5-5.9,5.9S23.7-20.8,27.1-20.8z
			 M44.7-22.1h20c2.5,0,4.2-1.7,4.2-4.2s-1.7-4.2-4.2-4.2h-20c-2.5,0-4.2,1.7-4.2,4.2S42.2-22.1,44.7-22.1z M82.2-20.8
			c3.4,0,5.9-2.5,5.9-5.9s-2.5-5.9-5.9-5.9s-5.9,2.5-5.9,5.9C76.3-23.3,78.9-20.8,82.2-20.8z M54.6-10.4c12.7,0,29.8-0.6,37-1.5
			c5-0.6,7.8-3.3,7.8-8.1v-6.7c0-6.5-1.4-10.1-4.8-14.5l-3.2-4.2c-1.4-6.9-3.9-14.1-5.3-16.9c-2-4.3-6-6.8-10.9-7.4
			c-2.6-0.3-11-0.5-20.7-0.5c-9.6,0-18.1,0.2-20.7,0.5c-4.9,0.6-8.8,3.1-10.9,7.4c-1.3,2.8-3.9,10.1-5.3,16.9l-3.2,4.2
			c-3.4,4.4-4.8,8-4.8,14.5v6.7c0,4.8,2.9,7.5,7.8,8.1C24.8-11.1,41.9-10.4,54.6-10.4z M54.6-14.9c-12.9,0-29.6-0.6-35.9-1.4
			c-3.3-0.4-4.5-2-4.5-5v-5.5c0-5.3,0.9-7.8,3.9-11.8l3.9-5.1c1.1-5.8,3.6-13.5,5.1-16.8c1.3-2.7,3.8-4.4,7.4-4.9
			c2.4-0.3,10.2-0.6,20.1-0.6s17.8,0.3,20.1,0.6c3.7,0.5,6.1,2.2,7.4,4.9c1.6,3.4,4.1,11.1,5.1,16.8l3.9,5.1c3,3.9,3.9,6.5,3.9,11.8
			v5.5c0,2.9-1.2,4.6-4.5,5C84.2-15.5,67.4-14.9,54.6-14.9z M16.7,0h4.5c2.8,0,5-2.2,5-4.9v-8.7l-14.5-2V-5C11.7-2.2,13.9,0,16.7,0z
			 M88.1,0h4.4c2.8,0,5-2.2,5-4.9v-10.8l-14.5,2V-5C83.1-2.2,85.3,0,88.1,0z"/>
	</g>
	<g id="Thin-S" transform="matrix(1 0 0 1 802.961 696)">
		<path d="M24.7-46.7c-0.2,1,0.1,1.8,1.5,1.7c6.7-0.5,13.8-0.7,27.2-0.7c13.5,0,20.6,0.3,27.2,0.7c1.4,0.1,1.8-0.7,1.5-1.7
			c-1.2-5.1-2.8-9.9-4.1-12c-1.1-2-2.7-3.3-5.5-3.6c-3-0.4-9.7-0.6-19.2-0.6s-16.2,0.2-19.2,0.6c-2.8,0.3-4.4,1.6-5.5,3.6
			C27.6-56.6,25.9-51.8,24.7-46.7z M25.9-21.1c3,0,5.2-2.2,5.2-5.2s-2.2-5.2-5.2-5.2s-5.2,2.2-5.2,5.2
			C20.7-23.3,22.9-21.1,25.9-21.1z M43.9-21.9H63c2.2,0,3.7-1.5,3.7-3.7s-1.5-3.7-3.7-3.7H43.9c-2.2,0-3.7,1.5-3.7,3.7
			C40.3-23.4,41.7-21.9,43.9-21.9z M81.1-21.1c3,0,5.2-2.2,5.2-5.2s-2.2-5.2-5.2-5.2s-5.2,2.2-5.2,5.2S78.1-21.1,81.1-21.1z
			 M53.5-10.6c12.3,0,29.3-0.6,36.5-1.5c4.5-0.5,7.2-2.8,7.2-7.3v-6.7c0-6.8-1.6-10.1-4.6-14l-3.3-4.4c-1.4-6.9-3.9-14.1-5.2-16.9
			c-2-4.3-5.9-6.4-10.3-7C71-68.8,62.3-69,53.5-69c-8.9,0-17.6,0.2-20.2,0.5c-4.4,0.6-8.3,2.7-10.3,7c-1.3,2.8-3.9,10.1-5.2,16.9
			l-3.3,4.4c-3,4-4.7,7.2-4.7,14v6.7c0,4.5,2.7,6.8,7.2,7.3C24.1-11.3,41.1-10.6,53.5-10.6z M53.5-13.6c-12.4,0-29.2-0.6-35.9-1.4
			c-3.5-0.4-4.9-1.9-4.9-4.9v-6.2c0-5.4,0.9-8.1,4.1-12.3l3.7-4.9c1.2-6.4,3.8-13.9,5.2-16.9c1.5-3,4.1-4.8,8-5.3
			C36-65.8,44-66,53.5-66c9.4,0,17.5,0.3,19.8,0.6c3.9,0.5,6.6,2.3,8,5.3s3.9,10.5,5.2,16.9l3.7,4.9c3.1,4.1,4,6.9,4,12.3v6.2
			c0,3-1.4,4.5-4.8,4.9C82.6-14.2,65.8-13.6,53.5-13.6z M16.5-0.6h4.3c2.7,0,4.8-2.1,4.8-4.8V-13l-13.9-1.8v9.4
			C11.7-2.8,13.8-0.6,16.5-0.6z M86.1-0.6h4.3c2.7,0,4.8-2.1,4.8-4.8v-9.4L81.3-13v7.6C81.3-2.7,83.4-0.6,86.1-0.6z"/>
	</g>
	<g id="Ultralight-S" transform="matrix(1 0 0 1 506.85 696)">
		<path d="M23.6-46.6c-0.2,0.9,0.1,1.8,1.4,1.7c6.9-0.5,13.9-0.7,27.9-0.7s21,0.3,27.8,0.7c1.4,0.1,1.7-0.8,1.5-1.7
			c-1.2-5.5-2.9-10.1-4.1-12.2c-1.2-2.1-3-3.6-6.1-3.9c-3.1-0.4-10-0.5-19.1-0.5c-9.2,0-16.1,0.2-19.1,0.5c-3.1,0.4-4.9,1.8-6.1,3.9
			C26.5-56.8,24.8-52.2,23.6-46.6z M25.3-21.3c2.8,0,4.8-2.1,4.8-4.9S28-31,25.3-31c-2.8,0-4.8,2.1-4.8,4.8
			C20.5-23.3,22.5-21.3,25.3-21.3z M43.5-21.8h18.7c2.1,0,3.4-1.3,3.4-3.4s-1.4-3.4-3.4-3.4H43.5c-2,0-3.4,1.4-3.4,3.4
			C40.2-23.1,41.5-21.8,43.5-21.8z M80.5-21.3c2.8,0,4.8-2.1,4.8-4.9S83.2-31,80.5-31c-2.8,0-4.8,2.1-4.8,4.8
			C75.7-23.3,77.7-21.3,80.5-21.3z M52.9-10.7c12.1,0,29.1-0.6,36.3-1.5c4.2-0.5,6.8-2.6,6.8-6.9v-6.7c0-6.9-1.7-10.1-4.5-13.8
			L88-44.1C86.6-51,84.1-58.3,82.8-61c-2-4.3-5.9-6.2-10-6.8c-2.6-0.3-11.4-0.5-19.9-0.5s-17.3,0.2-20,0.5c-4.1,0.5-8,2.5-10,6.8
			c-1.3,2.8-3.9,10.1-5.2,16.9l-3.4,4.4c-2.8,3.7-4.6,6.9-4.6,13.8v6.7c0,4.3,2.6,6.4,6.8,6.9C23.8-11.3,40.8-10.7,52.9-10.7z
			 M52.9-12.9c-12.1,0-29-0.6-36-1.5c-3.6-0.4-5-1.8-5-4.9v-6.6c0-5.5,0.9-8.3,4.2-12.5l3.6-4.8c1.3-6.8,3.9-14.1,5.2-16.9
			c1.5-3.1,4.3-5,8.3-5.5c2.4-0.3,10.5-0.5,19.7-0.5s17.3,0.3,19.6,0.5c4.1,0.5,6.9,2.4,8.3,5.5c1.3,2.8,3.9,10.2,5.2,16.9l3.7,4.8
			c3.2,4.2,4.1,7.1,4.1,12.5v6.6c0,3.1-1.4,4.5-5,4.9C81.8-13.6,64.9-12.9,52.9-12.9z M16.4-0.9h4.2c2.6,0,4.7-2.1,4.7-4.7v-7
			l-13.6-1.7v8.8C11.7-3,13.8-0.9,16.4-0.9z M85.1-0.9h4.2C92-0.9,94-3,94-5.6v-8.8l-13.6,1.7v7C80.4-3,82.4-0.9,85.1-0.9z"/>
	</g>
</g>
</svg>
