<?xml version="1.0" encoding="utf-8"?>
<!-- Generator: Adobe Illustrator 27.1.1, SVG Export Plug-In . SVG Version: 6.00 Build 0)  -->
<svg version="1.1" id="Layer_1" xmlns="http://www.w3.org/2000/svg" xmlns:xlink="http://www.w3.org/1999/xlink" x="0px" y="0px"
	 viewBox="0 0 3300 2200" style="enable-background:new 0 0 3300 2200;" xml:space="preserve">
<style type="text/css">
	.st0{fill:#FFFFFF;}
	.st1{fill:none;stroke:#000000;stroke-width:0.5;}
	.st2{font-family:'Helvetica-Bold';}
	.st3{font-size:13px;}
	.st4{font-family:'Helvetica';}
	.st5{fill:none;stroke:#00AEEF;stroke-width:0.5;}
	.st6{fill:#27AAE1;}
	.st7{fill:none;stroke:#27AAE1;stroke-width:0.5;}
	.st8{fill:none;stroke:#000000;stroke-width:11;stroke-miterlimit:10;}
	.st9{fill:none;stroke:#000000;stroke-width:5;stroke-miterlimit:10;}
	.st10{fill:none;stroke:#000000;stroke-width:2;stroke-miterlimit:10;}
	.st11{display:none;}
	.st12{display:inline;fill:none;stroke:#000000;stroke-width:5;stroke-miterlimit:10;}
	.st13{display:inline;}
</style>
<g id="Notes">
	<rect id="artboard" x="0.7" y="-0.1" class="st0" width="3300" height="2200"/>
	<line class="st1" x1="263" y1="292" x2="3036" y2="292"/>
	<text transform="matrix(1 0 0 1 263 322)" class="st2 st3">Weight/Scale Variations</text>
	<text transform="matrix(1 0 0 1 534.0633 322)" class="st4 st3">Ultralight</text>
	<text transform="matrix(1 0 0 1 843.7775 322)" class="st4 st3">Thin</text>
	<text transform="matrix(1 0 0 1 1139.035 322)" class="st4 st3">Light</text>
	<text transform="matrix(1 0 0 1 1427.0773 322)" class="st4 st3">Regular</text>
	<text transform="matrix(1 0 0 1 1723.4419 322)" class="st4 st3">Medium</text>
	<text transform="matrix(1 0 0 1 2016.1719 322)" class="st4 st3">Semibold</text>
	<text transform="matrix(1 0 0 1 2326.9705 322)" class="st4 st3">Bold</text>
	<text transform="matrix(1 0 0 1 2618.2659 322)" class="st4 st3">Heavy</text>
	<text transform="matrix(1 0 0 1 2917.5054 322)" class="st4 st3">Black</text>
	<line class="st1" x1="263" y1="1903" x2="3036" y2="1903"/>
	<g transform="matrix(1 0 0 1 263 1933)">
		<path d="M9.2,0.8c4.3,0,7.9-3.6,7.9-7.9S13.5-15,9.2-15s-7.9,3.6-7.9,7.9C1.4-2.7,5,0.8,9.2,0.8z M9.2-0.7c-3.5,0-6.4-2.8-6.4-6.4
			s2.8-6.4,6.4-6.4s6.4,2.8,6.4,6.4S12.8-0.7,9.2-0.7z M5.7-7.1c0,0.4,0.3,0.7,0.8,0.7h2.1v2.1c0,0.4,0.3,0.7,0.7,0.7S10-3.9,10-4.3
			v-2.1h2.1c0.4,0,0.7-0.3,0.7-0.7c0-0.4-0.3-0.7-0.7-0.7H10v-2.1c0-0.4-0.3-0.8-0.7-0.8s-0.7,0.3-0.7,0.8v2.1H6.4
			C6-7.8,5.7-7.5,5.7-7.1z"/>
	</g>
	<g transform="matrix(1 0 0 1 281.867 1933)">
		<path d="M11.7,2.9c5.4,0,10-4.5,10-10c0-5.4-4.5-10-10-10c-5.4,0-10,4.5-10,10C1.7-1.6,6.3,2.9,11.7,2.9z M11.7,1.2
			c-4.6,0-8.3-3.7-8.3-8.3s3.7-8.3,8.3-8.3S20-11.7,20-7.1C20-2.4,16.3,1.2,11.7,1.2z M7.2-7.1c0,0.5,0.3,0.8,0.8,0.8h2.9v2.9
			c0,0.5,0.3,0.8,0.8,0.8s0.8-0.3,0.8-0.8v-2.9h2.9c0.5,0,0.8-0.3,0.8-0.8s-0.3-0.8-0.8-0.8h-2.9v-2.9c0-0.5-0.3-0.8-0.8-0.8
			s-0.8,0.3-0.8,0.8v2.9H8C7.5-7.9,7.2-7.5,7.2-7.1z"/>
	</g>
	<g transform="matrix(1 0 0 1 305.646 1933)">
		<path d="M15,5.7c7,0,12.7-5.8,12.7-12.7c0-7-5.8-12.7-12.7-12.7C8-19.8,2.3-14,2.3-7.1C2.3-0.1,8,5.7,15,5.7z M15,3.8
			C8.9,3.8,4.1-1,4.1-7.1C4.1-13.1,8.9-18,15-18c6,0,10.9,4.9,10.9,10.9C25.9-1,21,3.8,15,3.8z M9.2-7.1c0,0.5,0.4,0.9,0.9,0.9H14v4
			c0,0.5,0.4,0.9,0.9,0.9s0.9-0.4,0.9-0.9v-4h4c0.5,0,0.9-0.4,0.9-0.9S20.3-8,19.8-8h-4v-3.9c0-0.5-0.4-0.9-0.9-0.9S14-12.4,14-11.9
			V-8h-3.9C9.6-8,9.2-7.6,9.2-7.1z"/>
	</g>
	<text transform="matrix(1 0 0 1 263 1953)" class="st2 st3">Design Variations</text>
	<text transform="matrix(1 0 0 1 263 1971)" class="st4 st3">Symbols are supported in up to nine weights and three scales.</text>
	<text transform="matrix(1 0 0 1 263 1989)" class="st4 st3">For optimal layout with text and other symbols, vertically align</text>
	<text transform="matrix(1 0 0 1 263 2007)" class="st4 st3">symbols with the adjacent text.</text>
	<line class="st5" x1="776" y1="1919" x2="776" y2="1933"/>
	<g transform="matrix(1 0 0 1 776 1933)">
		<path d="M3.3,0.2c0.5,0,0.8-0.2,1-0.7L5.5-4h5.8l1.3,3.4C12.7,0,13,0.2,13.5,0.2s0.8-0.3,0.8-0.8c0-0.2,0-0.3-0.1-0.5L9.7-13.4
			C9.4-14,9-14.3,8.4-14.3s-1,0.3-1.2,0.9L2.6-1.2C2.5-1,2.5-0.8,2.5-0.6C2.5-0.1,2.8,0.2,3.3,0.2z M6-5.5l2.4-6.6l0,0l2.4,6.6
			C10.8-5.5,6-5.5,6-5.5z"/>
	</g>
	<line class="st5" x1="793.2" y1="1919" x2="793.2" y2="1933"/>
	<text transform="matrix(1 0 0 1 776 1953)" class="st2 st3">Margins</text>
	<text transform="matrix(1 0 0 1 776 1971)" class="st4 st3">Leading and trailing margins on the left and right side of each symbol</text>
	<text transform="matrix(1 0 0 1 776 1989)" class="st4 st3">can be adjusted by modifying the x-location of the margin guidelines.</text>
	<text transform="matrix(1 0 0 1 776 2007)" class="st4 st3">Modifications are automatically applied proportionally to all</text>
	<text transform="matrix(1 0 0 1 776 2025)" class="st4 st3">scales and weights.</text>
	<g transform="matrix(1 0 0 1 1289 1933)">
		<path d="M2.8,1.9l1.7,1.7c0.9,0.9,1.8,0.8,2.8-0.2L18-8.4l-1-1L6.4,2.3C6,2.7,5.7,2.8,5.2,2.3L4.1,1.1C3.6,0.7,3.7,0.3,4.1,0
			l11.5-10.8l-1-1L3-0.9C2.1,0,2,1,2.8,1.9z M9.3-16.3c-0.4,0.4-0.4,1-0.2,1.4s0.7,0.6,1.3,0.4c1.5-0.3,3-0.4,4.4,0.5l-0.6,1.5
			c-0.3,0.8-0.2,1.4,0.4,2l2.3,2.3c0.5,0.5,0.9,0.5,1.5,0.4l1-0.2l0.7,0.7v0.6c0,0.5,0.1,0.9,0.6,1.4l0.8,0.7c0.5,0.5,1.1,0.5,1.6,0
			L26-7.5C26.5-8,26.4-8.6,26-9l-1-0.9c-0.5-0.5-0.8-0.6-1.3-0.6h-0.6l-0.6-0.6l0.2-1.1c0.1-0.6,0-1-0.6-1.6L19.9-16
			C16.6-19.3,12.1-19.2,9.3-16.3z M10.8-16c2.4-1.8,5.7-1.5,7.9,0.8l2.4,2.4c0.2,0.2,0.3,0.4,0.2,0.8L21-10.5L22.5-9l1-0.1
			c0.3,0,0.3,0,0.5,0.2l0.6,0.6l-2.4,2.4l-0.6-0.6c-0.2-0.2-0.2-0.3-0.2-0.5l0.1-1L20-9.5l-1.5,0.3c-0.3,0.1-0.5,0-0.7-0.2l-2-2
			c-0.3-0.2-0.3-0.4-0.1-0.8l0.9-2.1C15-15.8,13-16.4,11-15.8C10.7-15.7,10.6-15.8,10.8-16z"/>
	</g>
	<text transform="matrix(1 0 0 1 1289 1953)" class="st2 st3">Exporting</text>
	<text transform="matrix(1 0 0 1 1289 1971)" class="st4 st3">Symbols should be outlined when exporting to ensure the</text>
	<text transform="matrix(1 0 0 1 1289 1989)" class="st4 st3">design is preserved when submitting to Xcode.</text>
	<text id="template-version" transform="matrix(1 0 0 1 2952.4141 1933)" class="st4 st3">Template v.4.0</text>
	<text transform="matrix(1 0 0 1 2865.4575 1951)" class="st4 st3">Requires Xcode 14 or greater</text>
	<text id="descriptive-name" transform="matrix(1 0 0 1 2898.7129 1969)" class="st4 st3">Generated from bolt.car</text>
	<text transform="matrix(1 0 0 1 2912.4111 1987)" class="st4 st3">Typeset at 100 points</text>
	<text transform="matrix(1 0 0 1 263 726)" class="st4 st3">Small</text>
	<text transform="matrix(1 0 0 1 263 1156)" class="st4 st3">Medium</text>
	<text transform="matrix(1 0 0 1 263 1586)" class="st4 st3">Large</text>
</g>
<image style="display:none;overflow:visible;" width="2560" height="1440" xlink:href="../../../../Desktop/2020_porsche_taycan_105.jpg"  transform="matrix(7.474250e-02 0 0 7.474250e-02 1361.8771 603.5916)">
</image>
<g id="Guides">
	<g id="H-reference" transform="matrix(1 0 0 1 339 696)">
		<path class="st6" d="M1,0h2.6l25.7-67.1H30v-3.3h-1.9L1,0z M11.7-24.5H47l-0.8-2.2H12.4L11.7-24.5z M55.1,0h2.6L30.6-70.5h-1.2
			v3.3L55.1,0z"/>
	</g>
	<line id="Baseline-S" class="st7" x1="263" y1="696" x2="3036" y2="696"/>
	<line id="Capline-S" class="st7" x1="263" y1="625.5" x2="3036" y2="625.5"/>
	<g id="H-reference_00000049215790158678296740000004389649278754595766_" transform="matrix(1 0 0 1 339 1126)">
		<path class="st6" d="M1,0h2.6l25.7-67.1H30v-3.3h-1.9L1,0z M11.7-24.5H47l-0.8-2.2H12.4L11.7-24.5z M55.1,0h2.6L30.6-70.5h-1.2
			v3.3L55.1,0z"/>
	</g>
	<line id="Baseline-M" class="st7" x1="263" y1="1126" x2="3036" y2="1126"/>
	<line id="Capline-M" class="st7" x1="263" y1="1055.5" x2="3036" y2="1055.5"/>
	<g id="H-reference_00000062874071521899552400000010971913252586737815_" transform="matrix(1 0 0 1 339 1556)">
		<path class="st6" d="M1,0h2.6l25.7-67.1H30v-3.3h-1.9L1,0z M11.7-24.5H47l-0.8-2.2H12.4L11.7-24.5z M55.1,0h2.6L30.6-70.5h-1.2
			v3.3L55.1,0z"/>
	</g>
	<line id="Baseline-L" class="st7" x1="263" y1="1556" x2="3036" y2="1556"/>
	<line id="Capline-L" class="st7" x1="263" y1="1485.5" x2="3036" y2="1485.5"/>
	<line id="left-margin-Ultralight-S" class="st5" x1="506.9" y1="600.8" x2="506.9" y2="720.1"/>
	<line id="right-margin-Ultralight-S" class="st5" x1="612.6" y1="600.8" x2="612.6" y2="720.1"/>
	<line id="left-margin-Regular-S" class="st5" x1="1394.3" y1="600.8" x2="1394.3" y2="720.1"/>
	<line id="right-margin-Regular-S" class="st5" x1="1505.4" y1="600.8" x2="1505.4" y2="720.1"/>
	<line id="left-margin-Black-S" class="st5" x1="2873.2" y1="600.8" x2="2873.2" y2="720.1"/>
	<line id="right-margin-Black-S" class="st5" x1="2993.6" y1="600.8" x2="2993.6" y2="720.1"/>
</g>
<g id="Symbols">
	<g id="Black-S">
		<path id="Headlight_00000120537554548216087130000014660673855264394652_" d="M2901,665.1c1.9-0.1,10.9,0.7,14.5,1.1
			c1,0.1,3.8,1,3.8,1s-5.6-7.1-8-8.4c-1.7-0.9-5.7-1.3-7.6-1.4c-0.9,0-2.6-0.2-3.4,0c-0.4,0.1-1.2,0.6-1.5,0.9
			c-0.7,0.7-1.2,2.1-1.3,2.8c-0.5,2.7-0.5,5.3-0.4,8.5c0.1,2.4,0.9,7.5,1.5,9.6c0.1,0.3,0.6,0.9,0.9,1.1c0.5,0.3,0.9,0.1,1.2-0.2
			c0.3-0.2,0.7-0.5,0.6-0.9c-0.2-2.3-1.1-7-1.1-9.7c0-1-0.2-3.1,0.1-3.9C2900.3,665.4,2900.7,665.1,2901,665.1z"/>
		<path id="Side_mirror_00000157271149413301485700000018200175177096095370_" d="M2890.5,646.3c0,0-2.9-0.4-4.4-0.9
			c-0.7-0.2-1.3-2.3-1.2-3c0-0.7,0.5-1.3,0.8-1.5c1.4-1.1,5.2-1.6,7-1.5c0.4,0,1.3,0.4,1.5,0.7c0.5,0.8,0.1,3.7,0.1,3.7l0.9,1.2
			L2890.5,646.3z"/>
		<path d="M2970.3,691.4h-73.7c0,0-0.6-6.3,0.2-7.4c1.2-1.8,5.9-3.4,8.1-3.6c10-1,46.1-1.1,57.2,0c2.2,0.2,6.8,1.8,8.1,3.6
			C2970.8,685.2,2970.3,691.4,2970.3,691.4z"/>
		<path id="Tire_00000111874085091708012510000004972165180926980528_" d="M2882.6,684.8c0,0-0.1,8.7,1,10.8
			c0.2,0.5,1.1,0.7,1.6,0.7c3.4,0,8.4,0,13.7,0c0.6,0,0.6-5.8,0.6-5.8l-12.6-1.8L2882.6,684.8z"/>
		<path class="st8" d="M2979.6,670.2c-0.2,8.6,0.1,16.7-1,18.2c-1.9,2.4-18.5,1.7-30.1,1.7c-8,0-22,0-30.1,0
			c-11.5,0-28.2,0.7-30.1-1.7c-1.1-1.5-0.9-9.6-1-18.2c-0.1-5.2-0.2-9.5,0.6-12.6c1.9-7.4,8-8.4,11-8.5c1.1,0,1.9-0.7,2.3-1.7
			c0.9-2.8,2.6-6.2,4-8.9c5.4-10.7,8.7-10.7,17.2-10.7c8.3,0,14,0,22.2,0c8.5,0,11.8,0,17.2,10.7c1.4,2.7,3.1,6.1,4,8.9
			c0.3,1,1.2,1.7,2.3,1.7c3,0.1,9.1,1.2,11,8.5C2979.8,660.7,2979.7,665,2979.6,670.2z"/>
		<path id="Headlight_00000102524421976568820170000009351422755010421426_" d="M2965.9,665.1c-1.9-0.1-10.9,0.7-14.5,1.1
			c-1,0.1-3.8,1-3.8,1s5.6-7.1,8-8.4c1.7-0.9,5.7-1.3,7.6-1.4c0.9,0,2.6-0.2,3.4,0c0.4,0.1,1.2,0.6,1.5,0.9c0.7,0.7,1.2,2.1,1.3,2.8
			c0.5,2.7,0.5,5.3,0.4,8.5c-0.1,2.4-0.9,7.5-1.5,9.6c-0.1,0.3-0.6,0.9-0.9,1.1c-0.5,0.3-0.9,0.1-1.2-0.2c-0.3-0.2-0.7-0.5-0.6-0.9
			c0.2-2.3,1.1-7,1.1-9.7c0-1,0.2-3.1-0.1-3.9C2966.6,665.4,2966.2,665.1,2965.9,665.1z"/>
		<path id="Side_mirror_00000080184541283314506080000018001802242092269699_" d="M2976.4,646.3c0,0,2.9-0.4,4.4-0.9
			c0.7-0.2,1.3-2.3,1.2-3c0-0.7-0.5-1.3-0.8-1.5c-1.4-1.1-5.2-1.6-7-1.5c-0.4,0-1.3,0.4-1.5,0.7c-0.5,0.8-0.1,3.7-0.1,3.7l-0.9,1.2
			L2976.4,646.3z"/>
		<path id="Tire_00000165210626015729444540000017250022389269026206_" d="M2984.3,684.8c0,0,0.1,8.7-1,10.8
			c-0.2,0.5-1.1,0.7-1.6,0.7c-3.4,0-8.4,0-13.7,0c-0.6,0-0.6-5.8-0.6-5.8l12.6-1.8L2984.3,684.8z"/>
		<path d="M2922.7,658.8c0,1,0.8,1.7,1.8,1.7h7.7l-4.2,10.6c-0.8,2.3,1.7,3.7,3.3,1.8l13.9-16.3c0.3-0.4,0.5-0.9,0.5-1.4
			c0-1-0.8-1.7-1.8-1.7h-7.8l4.2-10.6c0.9-2.3-1.7-3.7-3.2-1.8l-13.9,16.4C2922.9,657.9,2922.7,658.3,2922.7,658.8z"/>
	</g>
	<g id="Regular-S">
		<path id="Headlight_00000000920246948085392030000005545543142781029508_" d="M1414.4,664.1c1.9-0.1,10.9,0.7,14.5,1.1
			c1,0.1,3.8,1,3.8,1s-5.6-7.1-8-8.4c-1.7-0.9-5.7-1.3-7.6-1.4c-0.9,0-2.6-0.2-3.4,0c-0.4,0.1-1.2,0.6-1.5,0.9
			c-0.7,0.7-1.2,2.1-1.3,2.8c-0.5,2.7-0.5,5.3-0.4,8.5c0.1,2.4,0.9,7.5,1.5,9.6c0.1,0.3,0.6,0.9,0.9,1.1c0.5,0.3,0.9,0.1,1.2-0.2
			c0.3-0.2,0.7-0.5,0.6-0.9c-0.2-2.3-1.1-7-1.1-9.7c0-1-0.2-3.1,0.1-3.9C1413.7,664.4,1414.1,664.1,1414.4,664.1z"/>
		<path id="Side_mirror_00000005236414152628057450000011060617991775335815_" d="M1408.9,648.3c0,0-2.9-0.4-4.4-0.9
			c-0.7-0.2-1.3-2.3-1.2-3c0-0.7,0.5-1.3,0.8-1.5c1.4-1.1,5.2-1.6,7-1.5c0.4,0,1.3,0.4,1.5,0.7c0.5,0.8,0.1,3.7,0.1,3.7l0.9,1.2
			L1408.9,648.3z"/>
		<path d="M1486.7,691.4H1413c0,0-0.6-6.3,0.2-7.4c1.2-1.8,5.9-3.4,8.1-3.6c10-1,46.1-1.1,57.2,0c2.2,0.2,6.8,1.8,8.1,3.6
			C1487.2,685.2,1486.7,691.4,1486.7,691.4z"/>
		<path id="Tire_00000047771451058325617440000009102773160771426462_" d="M1402,684.8c0,0-0.1,8.7,1,10.8c0.2,0.5,1.1,0.7,1.6,0.7
			c3.4,0,8.4,0,13.7,0c0.6,0,0.6-5.8,0.6-5.8l-12.6-1.8L1402,684.8z"/>
		<path class="st9" d="M1496,670.2c-0.2,8.6,0.1,16.7-1,18.2c-1.9,2.4-18.5,1.7-30.1,1.7c-8,0-22,0-30.1,0
			c-11.5,0-28.2,0.7-30.1-1.7c-1.1-1.5-0.9-9.6-1-18.2c-0.1-5.2-0.2-9.5,0.6-12.6c1.9-7.4,8-8.4,11-8.5c1.1,0,1.9-0.7,2.3-1.7
			c0.9-2.8,2.6-6.2,4-8.9c5.4-10.7,8.7-10.7,17.2-10.7c8.3,0,14,0,22.2,0c8.5,0,11.8,0,17.2,10.7c1.4,2.7,3.1,6.1,4,8.9
			c0.3,1,1.2,1.7,2.3,1.7c3,0.1,9.1,1.2,11,8.5C1496.2,660.7,1496.1,665,1496,670.2z"/>
		<path id="Headlight_00000005964811658334868190000007072042770190069646_" d="M1485.3,664.1c-1.9-0.1-10.9,0.7-14.5,1.1
			c-1,0.1-3.8,1-3.8,1s5.6-7.1,8-8.4c1.7-0.9,5.7-1.3,7.6-1.4c0.9,0,2.6-0.2,3.4,0c0.4,0.1,1.2,0.6,1.5,0.9c0.7,0.7,1.2,2.1,1.3,2.8
			c0.5,2.7,0.5,5.3,0.4,8.5c-0.1,2.4-0.9,7.5-1.5,9.6c-0.1,0.3-0.6,0.9-0.9,1.1c-0.5,0.3-0.9,0.1-1.2-0.2c-0.3-0.2-0.7-0.5-0.6-0.9
			c0.2-2.3,1.1-7,1.1-9.7c0-1,0.2-3.1-0.1-3.9C1486,664.4,1485.6,664.1,1485.3,664.1z"/>
		<path id="Side_mirror_00000079484882605109594540000002193251419321316485_" d="M1490.8,648.3c0,0,2.9-0.4,4.4-0.9
			c0.7-0.2,1.3-2.3,1.2-3c0-0.7-0.5-1.3-0.8-1.5c-1.4-1.1-5.2-1.6-7-1.5c-0.4,0-1.3,0.4-1.5,0.7c-0.5,0.8-0.1,3.7-0.1,3.7l-0.9,1.2
			L1490.8,648.3z"/>
		<path id="Tire_00000018928407582861526260000018090639359181811879_" d="M1497.7,684.8c0,0,0.1,8.7-1,10.8
			c-0.2,0.5-1.1,0.7-1.6,0.7c-3.4,0-8.4,0-13.7,0c-0.6,0-0.6-5.8-0.6-5.8l12.6-1.8L1497.7,684.8z"/>
		<path d="M1437.7,657.5c0,0.8,0.6,1.4,1.4,1.4h9.3l-4.9,13.2c-0.7,2,1.4,3,2.6,1.4l15-18.9c0.3-0.3,0.5-0.8,0.5-1.2
			c0-0.7-0.7-1.3-1.4-1.3h-9.3l4.9-13.2c0.7-2-1.3-3-2.5-1.4l-15.2,18.9C1437.9,656.7,1437.7,657.1,1437.7,657.5z"/>
	</g>
	<g id="Ultralight-S">
		<path id="Headlight_00000113333285427026068080000016347356808295110056_" d="M524.4,664.1c1.9-0.1,10.9,0.7,14.5,1.1
			c1,0.1,3.8,1,3.8,1s-5.6-7.1-8-8.4c-1.7-0.9-5.7-1.3-7.6-1.4c-0.9,0-2.6-0.2-3.4,0c-0.4,0.1-1.2,0.6-1.5,0.9
			c-0.7,0.7-1.2,2.1-1.3,2.8c-0.5,2.7-0.5,5.3-0.4,8.5c0.1,2.4,0.9,7.5,1.5,9.6c0.1,0.3,0.6,0.9,0.9,1.1c0.5,0.3,0.9,0.1,1.2-0.2
			c0.3-0.2,0.7-0.5,0.6-0.9c-0.2-2.3-1.1-7-1.1-9.7c0-1-0.2-3.1,0.1-3.9C523.7,664.4,524.1,664.1,524.4,664.1z"/>
		<path id="Side_mirror_00000064326514728268134110000010149910962224191660_" d="M518.9,649.7c0,0-2.9-0.4-4.4-0.9
			c-0.7-0.2-1.3-2.3-1.2-3c0-0.7,0.5-1.3,0.8-1.5c1.4-1.1,5.2-1.6,7-1.5c0.4,0,1.3,0.4,1.5,0.7c0.5,0.8,0.1,3.7,0.1,3.7l0.9,1.2
			L518.9,649.7z"/>
		<path d="M596.7,691.4H523c0,0-0.5-6.3,0.2-7.4c1.2-1.8,5.9-3.4,8-3.6c10-1,46.1-1.1,57.2,0c2.2,0.2,6.8,1.8,8,3.6
			C597.2,685.2,596.7,691.4,596.7,691.4z"/>
		<path id="Tire_00000075156646350592337390000001330129576435917961_" d="M513,684.8c0,0-0.1,8.7,1,10.8c0.2,0.5,1.1,0.7,1.6,0.7
			c3.4,0,8.4,0,13.7,0c0.6,0,0.6-5.8,0.6-5.8l-12.6-1.8L513,684.8z"/>
		<path class="st10" d="M606,670.2c-0.2,8.6,0.1,16.7-1,18.2c-1.9,2.4-18.5,1.7-30.1,1.7c-8,0-22,0-30.1,0
			c-11.5,0-28.2,0.7-30.1-1.7c-1.1-1.5-0.9-9.6-1-18.2c-0.1-5.2-0.2-9.5,0.6-12.6c1.9-7.4,8-8.4,11-8.5c1.1,0,1.9-0.7,2.3-1.7
			c0.9-2.8,2.6-6.2,4-8.9c5.4-10.7,8.7-10.7,17.2-10.7c8.3,0,14,0,22.2,0c8.5,0,11.8,0,17.2,10.7c1.4,2.7,3.1,6.1,4,8.9
			c0.3,1,1.2,1.7,2.3,1.7c3,0.1,9.1,1.2,11,8.5C606.2,660.7,606.1,665,606,670.2z"/>
		<path id="Headlight_00000126284700436642635900000016499867599707878045_" d="M595.3,664.1c-1.9-0.1-10.9,0.7-14.5,1.1
			c-1,0.1-3.8,1-3.8,1s5.6-7.1,8-8.4c1.7-0.9,5.7-1.3,7.6-1.4c0.9,0,2.6-0.2,3.4,0c0.4,0.1,1.2,0.6,1.5,0.9c0.7,0.7,1.2,2.1,1.3,2.8
			c0.5,2.7,0.5,5.3,0.4,8.5c-0.1,2.4-0.9,7.5-1.5,9.6c-0.1,0.3-0.6,0.9-0.9,1.1c-0.5,0.3-0.9,0.1-1.2-0.2c-0.3-0.2-0.7-0.5-0.6-0.9
			c0.2-2.3,1.1-7,1.1-9.7c0-1,0.2-3.1-0.1-3.9C596,664.4,595.6,664.1,595.3,664.1z"/>
		<path id="Side_mirror_00000179641340735952716070000012585755454698406833_" d="M600.8,649.7c0,0,2.9-0.4,4.4-0.9
			c0.7-0.2,1.3-2.3,1.2-3c0-0.7-0.5-1.3-0.8-1.5c-1.4-1.1-5.2-1.6-7-1.5c-0.4,0-1.3,0.4-1.5,0.7c-0.5,0.8-0.1,3.7-0.1,3.7l-0.9,1.2
			L600.8,649.7z"/>
		<path id="Tire_00000180329062065278517070000004686363145838910600_" d="M606.7,684.8c0,0,0.1,8.7-1,10.8
			c-0.2,0.5-1.1,0.7-1.6,0.7c-3.4,0-8.4,0-13.7,0c-0.6,0-0.6-5.8-0.6-5.8l12.6-1.8L606.7,684.8z"/>
		<path d="M547.8,658.7c0,0.4,0.4,0.6,0.8,0.6h10.3l-5.6,15c-0.5,1.2,0.7,1.9,1.5,0.9l16.5-20.7c0.3-0.3,0.4-0.6,0.4-0.9
			c0-0.4-0.4-0.7-0.8-0.7h-10.2l5.6-15c0.5-1.2-0.8-1.9-1.6-0.9l-16.5,20.9C547.8,658.2,547.8,658.4,547.8,658.7z"/>
	</g>
</g>
<g id="Sketch_00000003071469241216000550000016173175693486167719_" class="st11">
	<path id="Frame_00000129909203988850578080000008745906527658144418_" class="st12" d="M1449.8,627.8c0,0-2.8,0-11.1,0
		c-8.5,0-11.8,0-17.2,10.7c-1.4,2.7-3.1,6.1-4,8.9c-0.3,1-1.2,1.7-2.3,1.7c-3,0.1-9.1,1.2-11,8.5c-0.8,3-0.7,7.4-0.6,12.6
		c0.2,8.6-0.1,16.7,1,18.2c1.9,2.4,18.6,1.7,30.1,1.7c5.8,0,15,0,15,0"/>
	<path id="Headlight_00000141448581311075240320000000130814067131924616_" class="st13" d="M1414.4,664.1
		c1.9-0.1,10.9,0.7,14.5,1.1c1,0.1,3.8,1,3.8,1s-5.6-7.1-8-8.4c-1.7-0.9-5.7-1.3-7.6-1.4c-0.9,0-2.6-0.2-3.4,0
		c-0.4,0.1-1.2,0.6-1.5,0.9c-0.7,0.7-1.2,2.1-1.3,2.8c-0.5,2.7-0.5,5.3-0.4,8.5c0.1,2.4,0.9,7.5,1.5,9.6c0.1,0.3,0.6,0.9,0.9,1.1
		c0.5,0.3,0.9,0.1,1.2-0.2c0.3-0.2,0.7-0.5,0.6-0.9c-0.2-2.3-1.1-7-1.1-9.7c0-1-0.2-3.1,0.1-3.9
		C1413.7,664.4,1414.1,664.1,1414.4,664.1z"/>
	<path id="Side_mirror_00000018940023419696330890000017958382057222172809_" class="st13" d="M1408.9,648.3c0,0-2.9-0.4-4.4-0.9
		c-0.7-0.2-1.3-2.3-1.2-3c0-0.7,0.5-1.3,0.8-1.5c1.4-1.1,5.2-1.6,7-1.5c0.4,0,1.3,0.4,1.5,0.7c0.5,0.8,0.1,3.7,0.1,3.7l0.9,1.2
		L1408.9,648.3z"/>
	<path id="Grill_00000144325691602175405550000008980307494803085462_" class="st13" d="M1413,691.4c0,0-0.6-6.3,0.2-7.4
		c1.2-1.8,5.9-3.4,8-3.6c7.1-0.7,28.6-0.7,28.6-0.7v11.7H1413z"/>
	<path id="Tire_00000036230191553821184630000011019364379363360445_" class="st13" d="M1402,684.8c0,0-0.1,8.7,1,10.8
		c0.2,0.5,1.1,0.7,1.6,0.7c3.4,0,8.4,0,13.7,0c0.6,0,0.6-5.8,0.6-5.8l-12.6-1.8L1402,684.8z"/>
</g>
<g id="Old-Regular-S" transform="matrix(1 0 0 1 1394.33 696)" class="st11">
	<path class="st13" d="M55.5-10.3c13,0,30.1-0.6,37.4-1.5c5.4-0.6,8.4-3.6,8.4-8.6v-6.7c0-6.3-1.2-10.1-4.9-14.8l-3.2-4.2
		c-1.4-6.9-4-14.1-5.3-16.9c-2.1-4.3-6.1-7-11.3-7.7c-2.6-0.3-10.8-0.5-21-0.5s-18.5,0.2-21,0.5c-5.3,0.6-9.3,3.4-11.3,7.7
		C22-60.2,19.4-52.9,18-46.1L14.7-42c-3.7,4.8-4.9,8.5-4.9,14.8v6.7c0,5,3,8.1,8.3,8.6C25.4-10.9,42.5-10.3,55.5-10.3z M55.5-15.9
		c-13.2,0-29.9-0.6-35.8-1.3c-3.2-0.4-4.3-2.1-4.3-5v-4.9c0-5.2,0.8-7.6,3.7-11.4l4-5.2c0.9-5.3,3.4-13.1,5.1-16.8
		c1.2-2.5,3.5-4.2,6.9-4.5c2.5-0.3,10.1-0.7,20.4-0.7s18.1,0.4,20.3,0.7c3.5,0.4,5.8,2.1,7,4.5c1.7,3.7,4.2,11.5,5.1,16.8l4,5.2
		c2.9,3.8,3.8,6.2,3.8,11.4v4.9c0,2.9-1.1,4.6-4.3,5C85.4-16.5,68.7-15.9,55.5-15.9z M16.8,0.4h4.6c2.9,0,5.2-2.2,5.2-5.1v-9.6
		l-14.9-2.2v11.8C11.7-1.8,14,0.4,16.8,0.4z M89.6,0.4h4.5c2.9,0,5.2-2.2,5.2-5.1v-11.8l-14.9,2.2v9.6C84.4-1.8,86.7,0.4,89.6,0.4z
		 M43.4-38.5c0,0.8,0.6,1.4,1.4,1.4h9.3l-4.9,13.2c-0.7,2,1.4,3,2.6,1.4l15-18.9c0.3-0.3,0.5-0.8,0.5-1.2c0-0.7-0.7-1.3-1.4-1.3
		h-9.3l4.9-13.2c0.7-2-1.3-3-2.5-1.4L43.8-39.6C43.6-39.3,43.4-38.9,43.4-38.5z"/>
</g>
<g id="Old-Ultralight-S" transform="matrix(1 0 0 1 506.85 696)" class="st11">
	<path class="st13" d="M52.9-10.7c12.1,0,29.1-0.6,36.3-1.5c4.2-0.5,6.8-2.6,6.8-6.9v-6.7c0-6.9-1.7-10.1-4.5-13.8L88-44.1
		C86.6-51,84.1-58.3,82.8-61c-2-4.3-5.9-6.2-10-6.8c-2.6-0.3-11.4-0.5-19.9-0.5s-17.3,0.2-20,0.5c-4.1,0.5-8,2.5-10,6.8
		c-1.3,2.8-3.9,10.1-5.2,16.9l-3.4,4.4c-2.8,3.7-4.6,6.9-4.6,13.8v6.7c0,4.3,2.6,6.4,6.8,6.9C23.8-11.3,40.8-10.7,52.9-10.7z
		 M52.9-12.9c-12.1,0-29-0.6-36-1.5c-3.6-0.4-5-1.8-5-4.9v-6.6c0-5.5,0.9-8.3,4.2-12.5l3.6-4.8c1.3-6.8,3.9-14.1,5.2-16.9
		c1.5-3.1,4.3-5,8.3-5.5c2.4-0.3,10.5-0.5,19.7-0.5s17.3,0.3,19.6,0.5c4.1,0.5,6.9,2.4,8.3,5.5c1.3,2.8,3.9,10.2,5.2,16.9l3.7,4.8
		c3.2,4.2,4.1,7.1,4.1,12.5v6.6c0,3.1-1.4,4.5-5,4.9C81.8-13.6,64.9-12.9,52.9-12.9z M16.4-0.9h4.2c2.6,0,4.7-2.1,4.7-4.7v-7
		l-13.6-1.7v8.8C11.7-3,13.8-0.9,16.4-0.9z M85.1-0.9h4.2C92-0.9,94-3,94-5.6v-8.8l-13.6,1.7v7C80.4-3,82.4-0.9,85.1-0.9z
		 M40.9-37.3c0,0.4,0.4,0.6,0.8,0.6H52l-5.6,15c-0.5,1.2,0.7,1.9,1.5,0.9l16.5-20.7c0.3-0.3,0.4-0.6,0.4-0.9c0-0.4-0.4-0.7-0.8-0.7
		H53.8l5.6-15c0.5-1.2-0.8-1.9-1.6-0.9L41.3-38.1C41-37.8,40.9-37.6,40.9-37.3z"/>
</g>
<g id="Old-Black-S" transform="matrix(1 0 0 1 2873.24 696)" class="st11">
	<path class="st13" d="M60.2-7.7c14.1,0,31.4-0.7,38.8-1.5c7.2-0.8,11.6-5.3,11.6-12.3v-6.7c0-8.1-0.7-12.6-4.7-17.3l-4.1-4.7
		c-1.5-6.9-4-14.1-5.4-16.9c-2.5-5.4-7.4-8.7-13.6-9.6c-3.7-0.5-11.1-0.8-22.6-0.8s-18.9,0.3-22.6,0.8c-6.2,0.8-11.1,4.2-13.6,9.6
		c-1.3,2.9-3.9,10.1-5.4,16.9l-4.1,4.7c-4.1,4.6-4.7,9.2-4.7,17.3v6.7c0,6.9,4.4,11.4,11.6,12.3C28.7-8.4,46-7.7,60.2-7.7z
		 M60.2-19.1c-13.6,0-28.1-0.7-34.7-1.4c-3.3-0.3-4.8-1.9-4.8-4.8v-4.8c0-4.8,1.5-7.3,3-9.3l5.1-6.7c0.6-3.2,2.9-12.1,4.4-15.1
		s4-4.2,6.8-4.6c3.3-0.5,9.6-0.7,20.1-0.7s16.8,0.3,20.1,0.7c2.7,0.3,5.2,1.6,6.8,4.7c1.4,2.6,3.7,11.4,4.4,14.9l5.1,6.7
		c1.5,2,3,4.5,3,9.3v4.8c0,3-1.5,4.5-4.8,4.8C88.2-19.9,73.8-19.1,60.2-19.1z M17.4,3.1h5.1c3.2,0,5.7-2.5,5.7-5.7v-10.7L11.7-19
		v16.5C11.7,0.6,14.2,3.1,17.4,3.1z M97.9,3.1h5.1c3.2,0,5.7-2.5,5.7-5.7V-19l-16.4,5.8v10.7C92.2,0.6,94.7,3.1,97.9,3.1z
		 M49.5-41.2c0,1,0.8,1.7,1.8,1.7H59l-4.2,10.6c-0.8,2.3,1.7,3.7,3.3,1.8L72-43.4c0.3-0.4,0.5-0.9,0.5-1.4c0-1-0.8-1.7-1.8-1.7h-7.8
		l4.2-10.6c0.9-2.3-1.7-3.7-3.2-1.8L50-42.5C49.7-42.1,49.5-41.7,49.5-41.2z"/>
</g>
</svg>
