<?xml version="1.0" encoding="utf-8"?>
<!-- Generator: Adobe Illustrator 27.1.1, SVG Export Plug-In . SVG Version: 6.00 Build 0)  -->
<svg version="1.1" id="Layer_1" xmlns="http://www.w3.org/2000/svg" xmlns:xlink="http://www.w3.org/1999/xlink" x="0px" y="0px"
	 viewBox="0 0 3300 2200" style="enable-background:new 0 0 3300 2200;" xml:space="preserve">
<style type="text/css">
	.st0{fill:#FFFFFF;}
	.st1{fill:none;stroke:#000000;stroke-width:0.5;}
	.st2{font-family:'Helvetica-Bold';}
	.st3{font-size:13px;}
	.st4{font-family:'Helvetica';}
	.st5{fill:none;stroke:#00AEEF;stroke-width:0.5;}
	.st6{fill:#27AAE1;}
	.st7{fill:none;stroke:#27AAE1;stroke-width:0.5;}
	.monochrome-0 {fill:#000000}
	.monochrome-1 {fill:#000000}
	.monochrome-2 {fill:#000000}

	.multicolor-0:secondaryLabelColor {fill:#8A8A8E}
	.multicolor-1:tintColor {fill:#007AFF}
	.multicolor-2:tertiaryLabelColor {fill:#BDBDBD}

	.hierarchical-0:primary {fill:#212121}
	.hierarchical-1:secondary {fill:#4D4D4D}
	.hierarchical-2:tertiary {fill:#4D4D4D}

	.SFSymbolsPreview8A8A8E {fill:#8A8A8E;opacity:1.0}
	.SFSymbolsPreviewBDBDBD {fill:#BDBDBD;opacity:1.0}
	.SFSymbolsPreviewFF3B30 {fill:#FF3B30;opacity:1.0}
</style>
<g id="Notes">
	<rect id="artboard" class="st0" width="3300" height="2200"/>
	<line class="st1" x1="263" y1="292" x2="3036" y2="292"/>
	<text transform="matrix(1 0 0 1 263 322)" class="st2 st3">Weight/Scale Variations</text>
	<text transform="matrix(1 0 0 1 534.0632935 322)" class="st4 st3">Ultralight</text>
	<text transform="matrix(1 0 0 1 843.7775269 322)" class="st4 st3">Thin</text>
	<text transform="matrix(1 0 0 1 1139.0350342 322)" class="st4 st3">Light</text>
	<text transform="matrix(1 0 0 1 1427.0772705 322)" class="st4 st3">Regular</text>
	<text transform="matrix(1 0 0 1 1723.4418945 322)" class="st4 st3">Medium</text>
	<text transform="matrix(1 0 0 1 2016.171875 322)" class="st4 st3">Semibold</text>
	<text transform="matrix(1 0 0 1 2326.970459 322)" class="st4 st3">Bold</text>
	<text transform="matrix(1 0 0 1 2618.2658691 322)" class="st4 st3">Heavy</text>
	<text transform="matrix(1 0 0 1 2917.5053711 322)" class="st4 st3">Black</text>
	<line class="st1" x1="263" y1="1903" x2="3036" y2="1903"/>
	<g transform="matrix(1 0 0 1 263 1933)">
		<path d="M9.1999998,0.8C13.5,0.8,17.1000004-2.8,17.1000004-7.0999999S13.5-15,9.1999998-15 s-7.9000001,3.6000004-7.9000001,7.9000001C1.4-2.7,5,0.8,9.1999998,0.8z M9.1999998-0.7 c-3.5,0-6.4000001-2.8-6.4000001-6.4000001S5.5999994-13.5,9.1999998-13.5s6.4000006,2.8000002,6.4000006,6.4000001 S12.8000002-0.7,9.1999998-0.7z M5.6999998-7.0999999C5.6999998-6.6999998,6-6.4000001,6.5-6.4000001h2.1000004v2.0999999 c0,0.4000001,0.3000002,0.7,0.6999998,0.7S10-3.9000001,10-4.3000002v-2.0999999h2.1000004 c0.3999996,0,0.6999998-0.3000002,0.6999998-0.6999998C12.8000002-7.5,12.5-7.7999997,12.1000004-7.7999997H10v-2.0999999 c0-0.3999996-0.3000002-0.8000002-0.6999998-0.8000002s-0.6999998,0.3000002-0.6999998,0.8000002v2.0999999H6.4000001 C6-7.8000002,5.6999998-7.5,5.6999998-7.0999999z"/>
	</g>
	<g transform="matrix(1 0 0 1 281.867 1933)">
		<path d="M11.6999998,2.9000001c5.4000006,0,10.000001-4.5,10.000001-10c0-5.4000001-4.5-10-10-10c-5.3999996,0-10,4.5-10,10 C1.7000004-1.6,6.3000007,2.9000001,11.6999998,2.9000001z M11.6999998,1.2c-4.5999994,0-8.2999992-3.7-8.2999992-8.3000002 s3.6999998-8.3000002,8.2999992-8.3000002S20-11.6999998,20-7.0999999C20-2.4000001,16.2999992,1.2,11.6999998,1.2z  M7.2000003-7.0999999c0,0.5,0.3000002,0.8000002,0.7999997,0.8000002h2.8999996v2.9000001c0,0.5,0.3000002,0.8,0.8000002,0.8 s0.8000002-0.3,0.8000002-0.8v-2.9000001h2.8999996c0.5,0,0.7999992-0.3000002,0.7999992-0.8000002 s-0.3000002-0.8000002-0.8000002-0.8000002h-2.9000006v-2.9000001c0-0.5-0.3000002-0.8000002-0.8000002-0.8000002 s-0.8000002,0.3000002-0.8000002,0.8000002v2.9000001H8C7.5000005-7.9000001,7.2000003-7.5,7.2000003-7.0999999z"/>
	</g>
	<g transform="matrix(1 0 0 1 305.646 1933)">
		<path d="M15,5.6999998c7,0,12.7000008-5.8000002,12.7000008-12.6999998c0-7-5.7999992-12.7000008-12.6999998-12.7000008 C8-19.7999992,2.3-14,2.3-7.0999999C2.3-0.1,8,5.6999998,15,5.6999998z M15,3.8C8.8999996,3.8,4.0999999-1,4.0999999-7.0999999 C4.0999999-13.1000004,8.8999996-18,15-18c6,0,10.8999996,4.8999996,10.8999996,10.8999996C25.8999996-1,21,3.8,15,3.8z  M9.1999998-7.0999999c0,0.5,0.3999996,0.9000001,0.8999996,0.9000001H14v4c0,0.5,0.3999996,0.9,0.8999996,0.9 s0.8999996-0.4,0.8999996-0.9v-4h4c0.5,0,0.8999996-0.4000001,0.8999996-0.9000001S20.2999992-8,19.7999992-8h-4v-3.8999996 c0-0.5-0.3999996-0.8999996-0.8999996-0.8999996S14-12.3999996,14-11.8999996V-8h-3.8999996 C9.6000004-8,9.1999998-7.5999999,9.1999998-7.0999999z"/>
	</g>
	<text transform="matrix(1 0 0 1 263 1953)" class="st2 st3">Design Variations</text>
	<text transform="matrix(1 0 0 1 263 1971)" class="st4 st3">Symbols are supported in up to nine weights and three scales.</text>
	<text transform="matrix(1 0 0 1 263 1989)" class="st4 st3">For optimal layout with text and other symbols, vertically align</text>
	<text transform="matrix(1 0 0 1 263 2007)" class="st4 st3">symbols with the adjacent text.</text>
	<line class="st5" x1="776" y1="1919" x2="776" y2="1933"/>
	<g transform="matrix(1 0 0 1 776 1933)">
		<path d="M3.3,0.2c0.5,0,0.8-0.2,1.0000002-0.7L5.5-4h5.8000002l1.3000002,3.4000001C12.6999998,0,13,0.2,13.5,0.2 s0.8000002-0.3,0.8000002-0.8c0-0.2,0-0.3-0.1000004-0.5l-4.5-12.2999992C9.3999996-14,9-14.3000002,8.3999996-14.3000002 s-1,0.3000002-1.1999998,0.8999996L2.5999999-1.2C2.5-1,2.5-0.8,2.5-0.6C2.5-0.1,2.8,0.2,3.3,0.2z M6-5.5l2.3999996-6.6000004l0,0 l2.3999996,6.5999999C10.8000002-5.5,6-5.5,6-5.5z"/>
	</g>
	<line class="st5" x1="793.2000122" y1="1919" x2="793.2000122" y2="1933"/>
	<text transform="matrix(1 0 0 1 776 1953)" class="st2 st3">Margins</text>
	<text transform="matrix(1 0 0 1 776 1971)" class="st4 st3">Leading and trailing margins on the left and right side of each symbol</text>
	<text transform="matrix(1 0 0 1 776 1989)" class="st4 st3">can be adjusted by modifying the x-location of the margin guidelines.</text>
	<text transform="matrix(1 0 0 1 776 2007)" class="st4 st3">Modifications are automatically applied proportionally to all</text>
	<text transform="matrix(1 0 0 1 776 2025)" class="st4 st3">scales and weights.</text>
	<g transform="matrix(1 0 0 1 1289 1933)">
		<path d="M2.8,1.9l1.7,1.6999999c0.9000001,0.9000001,1.8000002,0.8000002,2.8000002-0.2L18-8.3999996l-1-1L6.4000001,2.3 C6,2.7,5.6999998,2.8,5.1999998,2.3L4.0999999,1.1c-0.5-0.4-0.3999999-0.8,0-1.1l11.5-10.8000002l-1-1L3-0.9 C2.0999999,0,2,1,2.8,1.9z M9.3000002-16.2999992c-0.3999996,0.3999996-0.3999996,1-0.1999998,1.3999996 S9.8000002-14.2999992,10.4000006-14.5c1.5-0.3000002,3-0.3999996,4.4000006,0.5l-0.6000004,1.5 c-0.3000002,0.8000002-0.1999998,1.3999996,0.3999996,2l2.2999992,2.3000002c0.5,0.5,0.8999996,0.5,1.5,0.4000001l1-0.1999998 l0.7000008,0.6999998v0.5999999c0,0.5,0.1000004,0.9000001,0.6000004,1.4000001L21.5-4.5999999c0.5,0.5,1.1000004,0.5,1.6000004,0 L26-7.5C26.5-8,26.3999996-8.6000004,26-9l-1-0.8999996C24.5-10.3999996,24.2000008-10.5,23.7000008-10.5h-0.6000004 L22.5-11.1000004l0.2000008-1.1000004c0.1000004-0.6000004,0-1-0.6000004-1.6000004L19.8999996-16 C16.6000004-19.2999992,12.1000004-19.2000008,9.3000002-16.2999992z M10.8000002-16 c2.4000006-1.7999992,5.6999998-1.5,7.9000006,0.8000002l2.3999996,2.4000006 c0.2000008,0.1999998,0.2999992,0.3999996,0.2000008,0.8000002L21-10.5L22.5-9l1-0.1000004c0.2999992,0,0.2999992,0,0.5,0.1999998 l0.6000004,0.6000004l-2.3999996,2.4000001L21.6000004-6.5c-0.2000008-0.1999998-0.2000008-0.3000002-0.2000008-0.5L21.5-8L20-9.5 l-1.5,0.3000002c-0.2999992,0.1000004-0.5,0-0.7000008-0.1999998l-2-2 c-0.3000002-0.1999998-0.3000002-0.3999996-0.1000004-0.8000002l0.8999996-2.0999994C15-15.8000002,13-16.3999996,11-15.8000002 C10.6999998-15.6999998,10.6000004-15.8000002,10.8000002-16z"/>
	</g>
	<text transform="matrix(1 0 0 1 1289 1953)" class="st2 st3">Exporting</text>
	<text transform="matrix(1 0 0 1 1289 1971)" class="st4 st3">Symbols should be outlined when exporting to ensure the</text>
	<text transform="matrix(1 0 0 1 1289 1989)" class="st4 st3">design is preserved when submitting to Xcode.</text>
	<text id="template-version" transform="matrix(1 0 0 1 2952.4140625 1933)" class="st4 st3">Template v.4.0</text>
	<text transform="matrix(1 0 0 1 2865.4575195 1951)" class="st4 st3">Requires Xcode 14 or greater</text>
	<text id="descriptive-name" transform="matrix(1 0 0 1 2898.7128906 1969)" class="st4 st3">Generated from bolt.car</text>
	<text transform="matrix(1 0 0 1 2912.4111328 1987)" class="st4 st3">Typeset at 100 points</text>
	<text transform="matrix(1 0 0 1 263 726)" class="st4 st3">Small</text>
	<text transform="matrix(1 0 0 1 263 1156)" class="st4 st3">Medium</text>
	<text transform="matrix(1 0 0 1 263 1586)" class="st4 st3">Large</text>
</g>
<g id="Guides">
	<g id="H-reference" transform="matrix(1 0 0 1 339 696)">
		<path class="st6" d="M1,0h2.5999999l25.7000008-67.0999985H30v-3.3000031h-1.8999996L1,0z M11.6999998-24.5H47 l-0.7999992-2.2000008H12.3999996L11.6999998-24.5z M55.0999985,0h2.5999985L30.6000004-70.5h-1.2000008v3.3000031L55.0999985,0z" />
	</g>
	<line id="Baseline-S" class="st7" x1="263" y1="696" x2="3036" y2="696"/>
	<line id="Capline-S" class="st7" x1="263" y1="625.5" x2="3036" y2="625.5"/>
	<g id="H-reference_00000145018269667135619830000005543126124872748710_" transform="matrix(1 0 0 1 339 1126)">
		<path class="st6" d="M1,0h2.5999999l25.7000008-67.0999985H30v-3.3000031h-1.8999996L1,0z M11.6999998-24.5H47 l-0.7999992-2.2000008H12.3999996L11.6999998-24.5z M55.0999985,0h2.5999985L30.6000004-70.5h-1.2000008v3.3000031L55.0999985,0z" />
	</g>
	<line id="Baseline-M" class="st7" x1="263" y1="1126" x2="3036" y2="1126"/>
	<line id="Capline-M" class="st7" x1="263" y1="1055.5" x2="3036" y2="1055.5"/>
	<g id="H-reference_00000179622612289126554530000017544532022482279819_" transform="matrix(1 0 0 1 339 1556)">
		<path class="st6" d="M1,0h2.5999999l25.7000008-67.0999985H30v-3.3000031h-1.8999996L1,0z M11.6999998-24.5H47 l-0.7999992-2.2000008H12.3999996L11.6999998-24.5z M55.0999985,0h2.5999985L30.6000004-70.5h-1.2000008v3.3000031L55.0999985,0z" />
	</g>
	<line id="Baseline-L" class="st7" x1="263" y1="1556" x2="3036" y2="1556"/>
	<line id="Capline-L" class="st7" x1="263" y1="1485.5" x2="3036" y2="1485.5"/>
	<line id="left-margin-Regular-M" class="st5" x1="1379.5999756" y1="1030.8000488" x2="1379.5999756" y2="1150.0999756"/>
	<line id="right-margin-Regular-M" class="st5" x1="1520.0999756" y1="1030.8000488" x2="1520.0999756" y2="1150.0999756"/>
</g>
<g id="Symbols">
	<g id="Medium-L">
		<path class="monochrome-1 multicolor-1:tintColor hierarchical-1:secondary SFSymbolsPreviewFF3B30" d="M1726.8000488,1513.9000244 c0,1.3000488,1,2.1999512,2.1999512,2.1999512h15.1999512l-8.0999756,21.6999512 c-1.1999512,3.0999756,2.1999512,4.8000488,4.1999512,2.3000488l25-31.0999756c0.5-0.5,0.9000244-1.3000488,0.9000244-1.9000244 c0-1.1999512-1-2.1999512-2.3000488-2.1999512h-15.1999512l8.0999756-21.6999512 c1.1999512-3.0999756-2.1999512-4.9000244-4.1999512-2.3000488L1727.5,1512 C1727,1512.6999512,1726.8000488,1513.3000488,1726.8000488,1513.9000244z"/>
		<path class="monochrome-2 multicolor-2:tertiaryLabelColor hierarchical-2:tertiary SFSymbolsPreviewBDBDBD" d="M1680.0999756,1525.3000488 c3.0999756-0.0999756,18.0999756,1.1999512,24.1999512,1.8000488c1.6999512,0.0999756,6.4000244,1.6999512,6.4000244,1.6999512 s-9.1999512-11.6999512-13.3000488-13.9000244c-2.9000244-1.5999756-9.5-2.1999512-12.6999512-2.3000488 c-1.4000244,0-4.3000488-0.4000244-5.6999512,0c-0.5999756,0.3000488-2.0999756,0.9000244-2.5999756,1.4000244 c-1,1.1999512-1.9000244,3.4000244-2.1999512,4.6999512c-0.9000244,4.4000244-0.9000244,8.8000488-0.5999756,14.1999512 c0.3000488,4,1.4000244,12.5,2.5,16c0.0999756,0.5,0.9000244,1.5999756,1.4000244,1.8000488 c0.9000244,0.5,1.4000244,0.3000488,2.0999756-0.3000488c0.4000244-0.4000244,1.1999512-0.9000244,1-1.5999756 c-0.4000244-3.9000244-1.8000488-11.6999512-2-16.0999756c0-1.6999512-0.4000244-5.1999512,0.0999756-6.5 C1678.9000244,1525.8000488,1679.5999756,1525.4000244,1680.0999756,1525.3000488z"/>
		<path class="monochrome-2 multicolor-2:tertiaryLabelColor hierarchical-2:tertiary SFSymbolsPreviewBDBDBD" d="M1813.5,1525.3000488 c-3.0999756-0.0999756-18.0999756,1.1999512-24.1999512,1.8000488c-1.6999512,0.0999756-6.4000244,1.6999512-6.4000244,1.6999512 s9.1999512-11.6999512,13.3000488-13.9000244c2.9000244-1.5999756,9.5-2.1999512,12.6999512-2.3000488 c1.4000244,0,4.3000488-0.4000244,5.6999512,0c0.6999512,0.3000488,2.0999756,0.9000244,2.5999756,1.4000244 c1,1.1999512,2,3.4000244,2.1999512,4.6999512c0.9000244,4.4000244,0.9000244,8.8000488,0.6999512,14.1999512 c-0.3000488,4-1.4000244,12.5-2.5,16c-0.0999756,0.5-0.9000244,1.5999756-1.4000244,1.8000488 c-0.9000244,0.5-1.4000244,0.3000488-2.0999756-0.3000488c-0.4000244-0.4000244-1.1999512-0.9000244-1-1.5999756 c0.4000244-3.9000244,1.8000488-11.6999512,1.9000244-16.0999756c0-1.6999512,0.4000244-5.1999512-0.0999756-6.5 C1814.8000488,1525.8000488,1814,1525.4000244,1813.5,1525.3000488z"/>
		<path class="monochrome-0 multicolor-0:secondaryLabelColor hierarchical-0:primary SFSymbolsPreview8A8A8E" d="M1672.4000244,1500 c0,0-10.3000488-1.4000244-12.6999512-2.1999512c-1.1999512-0.4000244-2.0999756-3.8000488-2.0999756-4.9000244 c0.0999756-1.1999512,0.8000488-2.0999756,1.3000488-2.5999756c2.3000488-1.9000244,8.6999512-2.5999756,11.5999756-2.5 c0.6999512,0,2.0999756,0.6999512,2.5,1.1999512c0.8000488,1.3000488,0.0999756,6.0999756,0.0999756,6.0999756l3.5,5.5999756 L1672.4000244,1500z"/>
		<path class="monochrome-0 multicolor-0:secondaryLabelColor hierarchical-0:primary SFSymbolsPreview8A8A8E" d="M1816.9000244,1500.5999756l3.5-5.5999756 c0,0-0.6999512-4.8000488,0.0999756-6.0999756c0.4000244-0.5,1.8000488-1.1999512,2.5-1.1999512 c3-0.0999756,9.4000244,0.5,11.5999756,2.5c0.5,0.5,1.3000488,1.4000244,1.3000488,2.5999756 C1836,1494,1835,1497.4000244,1833.8000488,1497.7000732c-2.5,0.8000488-12.6999512,2.1999512-12.6999512,2.1999512 L1816.9000244,1500.5999756z"/>
		<path class="monochrome-0 multicolor-0:secondaryLabelColor hierarchical-0:primary SFSymbolsPreview8A8A8E" d="M1815.8000488,1570.9000244h-138.0999756 c0,0-0.9000244-10.5,0.4000244-12.3000488c2.0999756-3,9.8000488-5.5999756,13.4000244-6 c11.8000488-1.1999512,55.4000244-1.1999512,55.4000244-1.1999512s43.5999756-0.0999756,55.4000244,1.1999512 c3.5999756,0.4000244,11.3000488,3,13.4000244,6C1816.9000244,1560.4000244,1815.8000488,1570.9000244,1815.8000488,1570.9000244z "/>
		<path class="monochrome-0 multicolor-0:secondaryLabelColor hierarchical-0:primary SFSymbolsPreview8A8A8E" d="M1800.6999512,1573.9000244 c-3.1999512,0-6.8000488,0-10.6999512,0c-3.5999756,0-7.1999512,0-10.4000244,0H1714c-3.1999512,0-6.9000244,0-10.4000244,0 c-30.5,0.3000488-40-0.4000244-43.6999512-4.9000244c-2.3000488-3-2.5999756-8.3000488-2.6999512-23.8000488 c0-3,0-6.1999512-0.0999756-9.5c-0.0999756-8.4000244-0.3000488-16.4000244,1.1999512-22.1999512 c3.9000244-15.1999512,16.4000244-17.6999512,22.4000244-18.0999756c1.6999512-4.9000244,4.5-10.6999512,6.5999756-14.8000488 c9.5-18.6999512,17-19.9000244,30.8000488-20.1999512h2c13.8000488-0.4000244,39.8000488-0.4000244,53.5999756,0h1.9000244 c13.6999512,0.4000244,21.3000488,1.4000244,30.8000488,20.1999512c2.3000488,4.5,5.0999756,10,6.5999756,14.8000488 c6,0.3000488,18.3000488,2.9000244,22.4000244,18.0999756c1.5999756,5.8000488,1.3000488,13.8000488,1.1999512,22.4000244l0,0 c0,3.1999512-0.0999756,6.5-0.0999756,9.5c-0.0999756,15.5-0.4000244,20.8000488-2.6999512,23.8000488 C1830.5999756,1573,1823,1573.9000244,1800.6999512,1573.9000244z M1714,1563.4000244h65.5999756c3.4000244,0,6.9000244,0,10.5,0 c11.4000244,0.0999756,30,0.3000488,35.1999512-1.3000488c0.5-3.0999756,0.6999512-10.8000488,0.6999512-17.1999512 c0-3.0999756,0-6.4000244,0.0999756-9.5999756l0,0c0.0999756-7.6999512,0.3000488-15.0999756-0.9000244-19.5 c-1.6999512-6.5999756-6.1999512-10.0999756-13.4000244-10.3000488c-3.9000244-0.0999756-7.4000244-2.6999512-8.5999756-6.5 c-1.3000488-4.1999512-4-9.5999756-6.1999512-13.9000244c-7.1999512-14.1999512-10.3000488-14.3000488-21.8000488-14.5999756 h-2.0999756c-13.6999512-0.4000244-39.3000488-0.4000244-52.9000244,0h-2.0999756 c-11.5999756,0.3000488-14.6999512,0.4000244-21.6999512,14.4000244c-2.0999756,4.1999512-4.9000244,9.8000488-6.1999512,14 c-1.1999512,3.8000488-4.6999512,6.4000244-8.5999756,6.5C1674.5,1505.5,1670,1509,1668.1999512,1515.7000732 c-1.1999512,4.4000244-1,12.0999756-0.9000244,19.5c0.0999756,3.1999512,0.0999756,6.5,0.0999756,9.5999756 c0,6.4000244,0.0999756,14.1999512,0.6999512,17.1999512c5.1999512,1.5999756,23.8000488,1.4000244,35.1999512,1.3000488 C1707.0999756,1563.5,1710.6999512,1563.4000244,1714,1563.4000244z"/>
		<path class="monochrome-0 multicolor-0:secondaryLabelColor hierarchical-0:primary SFSymbolsPreview8A8A8E" d="M1665.3000488,1566.4000244L1686.2000732,1569.5 c0,0,0.0999756,9.5999756-0.9000244,9.5999756c-8.8000488,0-17.1999512,0-22.8000488,0 c-0.9000244,0-2.3000488-0.4000244-2.6999512-1.1999512c-1.6999512-3.5-1.5999756-18.0999756-1.5999756-18.0999756 L1665.3000488,1566.4000244z"/>
		<path class="monochrome-0 multicolor-0:secondaryLabelColor hierarchical-0:primary SFSymbolsPreview8A8A8E" d="M1835.5,1559.9000244 c0,0,0.0999756,14.5999756-1.5999756,18.0999756c-0.4000244,0.8000488-1.8000488,1.1999512-2.6999512,1.1999512 c-5.5999756,0-13.9000244,0-22.8000488,0c-1,0-0.9000244-9.5999756-0.9000244-9.5999756L1828.4000244,1566.5L1835.5,1559.9000244z "/>
	</g>
	<g id="Medium-M">
		<path class="monochrome-1 multicolor-1:tintColor hierarchical-1:secondary SFSymbolsPreviewFF3B30" d="M1731.4000244,1086.1999512 c0,1,0.8000488,1.6999512,1.6999512,1.6999512h11.6999512l-6.1999512,16.6999512 c-0.9000244,2.4000244,1.6999512,3.6999512,3.1999512,1.8000488l19.1999512-23.9000244 c0.4000244-0.4000244,0.6999512-1,0.6999512-1.5c0-0.9000244-0.8000488-1.6999512-1.8000488-1.6999512h-11.6999512 l6.1999512-16.6999512c0.9000244-2.4000244-1.6999512-3.8000488-3.1999512-1.8000488l-19.3000488,23.9000244 C1731.5999756,1085.3000488,1731.4000244,1085.8000488,1731.4000244,1086.1999512z"/>
		<path class="monochrome-2 multicolor-2:tertiaryLabelColor hierarchical-2:tertiary SFSymbolsPreviewBDBDBD" d="M1695.5,1095 c2.4000244-0.0999756,13.9000244,0.9000244,18.5999756,1.4000244C1715.4000244,1096.5,1719,1097.7000732,1719,1097.7000732 s-7.0999756-9-10.1999512-10.6999512c-2.1999512-1.1999512-7.3000488-1.6999512-9.8000488-1.8000488 c-1.0999756,0-3.3000488-0.3000488-4.4000244,0c-0.5,0.1999512-1.5999756,0.6999512-2,1.0999756 c-0.8000488,0.9000244-1.5,2.5999756-1.6999512,3.5999756c-0.6999512,3.4000244-0.6999512,6.8000488-0.5,10.9000244 c0.1999512,3.0999756,1.0999756,9.5999756,1.9000244,12.3000488c0.0999756,0.4000244,0.6999512,1.1999512,1.0999756,1.4000244 c0.6999512,0.4000244,1.0999756,0.1999512,1.5999756-0.1999512c0.3000488-0.3000488,0.9000244-0.6999512,0.8000488-1.1999512 c-0.3000488-3-1.4000244-9-1.5-12.4000244c0-1.3000488-0.3000488-4,0.0999756-5 C1694.5999756,1095.4000244,1695.0999756,1095.0999756,1695.5,1095z"/>
		<path class="monochrome-2 multicolor-2:tertiaryLabelColor hierarchical-2:tertiary SFSymbolsPreviewBDBDBD" d="M1798.0999756,1095 c-2.4000244-0.0999756-13.9000244,0.9000244-18.5999756,1.4000244c-1.3000488,0.0999756-4.9000244,1.3000488-4.9000244,1.3000488 s7.0999756-9,10.1999512-10.6999512c2.1999512-1.1999512,7.3000488-1.6999512,9.8000488-1.8000488 c1.0999756,0,3.3000488-0.3000488,4.4000244,0c0.5,0.1999512,1.5999756,0.6999512,2,1.0999756 c0.8000488,0.9000244,1.5,2.5999756,1.6999512,3.5999756c0.6999512,3.4000244,0.6999512,6.8000488,0.5,10.9000244 c-0.1999512,3.0999756-1.0999756,9.5999756-1.9000244,12.3000488c-0.0999756,0.4000244-0.6999512,1.1999512-1.0999756,1.4000244 c-0.6999512,0.4000244-1.0999756,0.1999512-1.5999756-0.1999512c-0.3000488-0.3000488-0.9000244-0.6999512-0.8000488-1.1999512 c0.3000488-3,1.4000244-9,1.5-12.4000244c0-1.3000488,0.3000488-4-0.0999756-5 C1799.0999756,1095.4000244,1798.5,1095.0999756,1798.0999756,1095z"/>
		<path class="monochrome-0 multicolor-0:secondaryLabelColor hierarchical-0:primary SFSymbolsPreview8A8A8E" d="M1689.5999756,1075.5 c0,0-7.9000244-1.0999756-9.8000488-1.6999512c-0.9000244-0.3000488-1.5999756-2.9000244-1.5999756-3.8000488 c0.0999756-0.9000244,0.5999756-1.5999756,1-2c1.8000488-1.5,6.6999512-2,8.9000244-1.9000244 c0.5,0,1.5999756,0.5,1.9000244,0.9000244c0.5999756,1,0.0999756,4.6999512,0.0999756,4.6999512L1692.7999268,1076 L1689.5999756,1075.5z"/>
		<path class="monochrome-0 multicolor-0:secondaryLabelColor hierarchical-0:primary SFSymbolsPreview8A8A8E" d="M1800.6999512,1076l2.6999512-4.3000488 c0,0-0.5-3.6999512,0.0999756-4.6999512c0.3000488-0.4000244,1.4000244-0.9000244,1.9000244-0.9000244 C1807.6999512,1066,1812.5998535,1066.5,1814.2999268,1068c0.4000244,0.4000244,1,1.0999756,1,2 c0.0999756,0.9000244-0.6999512,3.5-1.5999756,3.8000488c-1.9000244,0.5999756-9.8000488,1.6999512-9.8000488,1.6999512 L1800.6999512,1076z"/>
		<path class="monochrome-0 multicolor-0:secondaryLabelColor hierarchical-0:primary SFSymbolsPreview8A8A8E" d="M1799.9000244,1130.0999756h-106.1999512 c0,0-0.6999512-8.0999756,0.3000488-9.5c1.5999756-2.3000488,7.5-4.3000488,10.3000488-4.5999756 c9.0999756-0.9000244,42.5999756-0.9000244,42.5999756-0.9000244s33.5-0.0999756,42.5999756,0.9000244 c2.8000488,0.3000488,8.6999512,2.3000488,10.3000488,4.5999756 C1800.6999512,1122,1799.9000244,1130.0999756,1799.9000244,1130.0999756z"/>
		<path class="monochrome-0 multicolor-0:secondaryLabelColor hierarchical-0:primary SFSymbolsPreview8A8A8E" d="M1788.3000488,1132.4000244 c-2.5,0-5.1999512,0-8.1999512,0c-2.8000488,0-5.5,0-8,0h-50.5c-2.5,0-5.3000488,0-8,0 c-23.5,0.1999512-30.8000488-0.3000488-33.5999756-3.8000488c-1.8000488-2.3000488-2-6.4000244-2.0999756-18.3000488 c0-2.3000488,0-4.8000488-0.0999756-7.3000488c-0.0999756-6.5-0.1999512-12.5999756,0.9000244-17.0999756 c3-11.6999512,12.5999756-13.5999756,17.1999512-13.9000244c1.3000488-3.8000488,3.5-8.1999512,5.0999756-11.4000244 c7.3000488-14.4000244,13.0999756-15.3000488,23.6999512-15.5h1.5c10.5999756-0.3000488,30.5999756-0.3000488,41.1999512,0h1.5 c10.5,0.3000488,16.4000244,1.0999756,23.6999512,15.5c1.8000488,3.5,3.9000244,7.6999512,5.0999756,11.4000244 c4.5999756,0.1999512,14.0999756,2.1999512,17.1999512,13.9000244c1.1999512,4.5,1,10.5999756,0.9000244,17.1999512l0,0 c0,2.5-0.0999756,5-0.0999756,7.3000488c-0.0999756,11.9000244-0.3000488,16-2.0999756,18.3000488 C1811.3000488,1131.6999512,1805.4000244,1132.4000244,1788.3000488,1132.4000244z M1721.5999756,1124.3000488h50.5 c2.5999756,0,5.3000488,0,8.0999756,0c8.8000488,0.0999756,23.0999756,0.1999512,27.0999756-1 c0.4000244-2.4000244,0.5-8.3000488,0.5-13.1999512c0-2.4000244,0-4.9000244,0.0999756-7.4000244l0,0 c0.0999756-5.9000244,0.1999512-11.5999756-0.6999512-15c-1.3000488-5.0999756-4.8000488-7.8000488-10.3000488-7.9000244 c-3-0.0999756-5.6999512-2.0999756-6.5999756-5c-1-3.1999512-3.0999756-7.4000244-4.8000488-10.6999512 c-5.5-10.9000244-7.9000244-11-16.8000488-11.1999512h-1.5999756c-10.5-0.3000488-30.1999512-0.3000488-40.6999512,0h-1.5999756 c-8.9000244,0.1999512-11.3000488,0.3000488-16.6999512,11.0999756c-1.5999756,3.1999512-3.8000488,7.5-4.8000488,10.8000488 c-0.9000244,2.9000244-3.5999756,4.9000244-6.5999756,5c-5.5,0.0999756-8.9000244,2.8000488-10.3000488,7.9000244 c-0.9000244,3.4000244-0.8000488,9.3000488-0.6999512,15c0.0999756,2.5,0.0999756,5,0.0999756,7.4000244 c0,4.9000244,0.0999756,10.9000244,0.5,13.1999512c4,1.1999512,18.3000488,1.0999756,27.0999756,1 C1716.3000488,1124.4000244,1719,1124.3000488,1721.5999756,1124.3000488z"/>
		<path class="monochrome-0 multicolor-0:secondaryLabelColor hierarchical-0:primary SFSymbolsPreview8A8A8E" d="M1684.0999756,1126.5999756L1700.1999512,1129 c0,0,0.0999756,7.4000244-0.6999512,7.4000244c-6.8000488,0-13.1999512,0-17.5,0 c-0.6999512,0-1.8000488-0.3000488-2.0999756-0.9000244c-1.3000488-2.6999512-1.1999512-13.9000244-1.1999512-13.9000244 L1684.0999756,1126.5999756z"/>
		<path class="monochrome-0 multicolor-0:secondaryLabelColor hierarchical-0:primary SFSymbolsPreview8A8A8E" d="M1815,1121.5999756 c0,0,0.0999756,11.1999512-1.1999512,13.9000244c-0.3000488,0.5999756-1.4000244,0.9000244-2.0999756,0.9000244 c-4.3000488,0-10.6999512,0-17.5,0c-0.8000488,0-0.6999512-7.4000244-0.6999512-7.4000244l16.0999756-2.4000244L1815,1121.5999756 z"/>
	</g>
	<g id="Regular-L">
		<path class="monochrome-1 multicolor-1:tintColor hierarchical-1:secondary SFSymbolsPreviewFF3B30" d="M1429.7800293,1514.4987793c0,1.1700439,0.9099121,2.0799561,2.0799561,2.0799561h15.7299805 l-8.3200684,22.4901123c-1.1700439,2.9901123,2.0799561,4.5500488,4.0300293,2.2099609l25.3499756-31.8499756 c0.5200195-0.5200195,0.9099121-1.3000488,0.9099121-1.8200684c0-1.1700439-1.0400391-1.9499512-2.2099609-1.9499512h-15.7299805 l8.3200684-22.4901123c1.1700439-2.9901123-2.0799561-4.6799316-3.9000244-2.2099609l-25.4799805,31.8499756 C1430.039917,1513.4587402,1429.7800293,1513.9787598,1429.7800293,1514.4987793z"/>
		<path class="monochrome-2 multicolor-2:tertiaryLabelColor hierarchical-2:tertiary SFSymbolsPreviewBDBDBD" d="M1383.1099854,1525.1588135c3.1199951-0.1300049,18.0700684,1.1699219,24.1799316,1.8199463 c1.6900635,0.1300049,6.3699951,1.6900635,6.3699951,1.6900635s-9.2298584-11.6999512-13.2598877-13.9099121 c-2.8599854-1.5599365-9.4901123-2.2099609-12.7401123-2.3400879c-1.4299316,0-4.2900391-0.3900146-5.7199707,0 c-0.6500244,0.2600098-2.0799561,0.9099121-2.5999756,1.4300537c-1.0400391,1.1699219-1.9500732,3.3798828-2.2099609,4.6799316 c-0.9099121,4.4200439-0.9099121,8.8400879-0.6500244,14.1700439c0.2600098,4.0299072,1.4299316,12.4799805,2.4700928,15.9899902 c0.1298828,0.5200195,0.9099121,1.5599365,1.4299316,1.8200684c0.9099121,0.5200195,1.4299316,0.2598877,2.0799561-0.2598877 c0.3900146-0.3901367,1.1700439-0.9100342,1.0400391-1.5599365c-0.3900146-3.9000244-1.8199463-11.7000732-1.9499512-16.1201172 c0-1.6900635-0.3901367-5.1999512,0.1300049-6.5C1381.9399414,1525.678833,1382.5899658,1525.2886963,1383.1099854,1525.1588135z" />
		<path class="monochrome-2 multicolor-2:tertiaryLabelColor hierarchical-2:tertiary SFSymbolsPreviewBDBDBD" d="M1516.4899902,1525.1588135c-3.1201172-0.1300049-18.0700684,1.1699219-24.1800537,1.8199463 c-1.6900635,0.1300049-6.3699951,1.6900635-6.3699951,1.6900635s9.2299805-11.6999512,13.2598877-13.9099121 c2.8599854-1.5599365,9.4901123-2.2099609,12.7401123-2.3400879c1.4299316,0,4.2900391-0.3900146,5.7199707,0 c0.6500244,0.2600098,2.0800781,0.9099121,2.6000977,1.4300537c1.0400391,1.1699219,1.9499512,3.3798828,2.2098389,4.6799316 c0.9100342,4.4200439,0.9100342,8.8400879,0.6500244,14.1700439c-0.2598877,4.0299072-1.4299316,12.4799805-2.4699707,15.9899902 c-0.1300049,0.5200195-0.9099121,1.5599365-1.4300537,1.8200684c-0.9099121,0.5200195-1.4299316,0.2598877-2.0799561-0.2598877 c-0.3900146-0.3901367-1.1700439-0.9100342-1.0400391-1.5599365c0.3901367-3.9000244,1.8200684-11.7000732,1.9500732-16.1201172 c0-1.6900635,0.3900146-5.1999512-0.1300049-6.5C1517.789917,1525.678833,1517.0100098,1525.2886963,1516.4899902,1525.1588135z"/>
		<path class="monochrome-0 multicolor-0:secondaryLabelColor hierarchical-0:primary SFSymbolsPreview8A8A8E" d="M1376.7399902,1501.1087646c0,0-10.2701416-1.4299316-12.7401123-2.2099609 c-1.1700439-0.3900146-2.0799561-3.7700195-2.0799561-4.9400635c0.1300049-1.1700439,0.7799072-2.0799561,1.2999268-2.5999756 c2.3400879-1.9499512,8.7099609-2.5999756,11.5700684-2.4700928c0.6500244,0,2.0799561,0.6500244,2.4700928,1.1700439 c0.7799072,1.3000488,0.1298828,6.1099854,0.1298828,6.1099854l3.5100098,5.5900879L1376.7399902,1501.1087646z"/>
		<path class="monochrome-0 multicolor-0:secondaryLabelColor hierarchical-0:primary SFSymbolsPreview8A8A8E" d="M1518.5699463,1501.7587891l3.5098877-5.5900879c0,0-0.6500244-4.8099365,0.1300049-6.1099854 c0.3900146-0.5200195,1.8199463-1.1700439,2.4699707-1.1700439c2.9901123-0.1298828,9.3599854,0.5201416,11.5700684,2.4700928 c0.5200195,0.5200195,1.3000488,1.4299316,1.3000488,2.5999756c0.1298828,1.1700439-0.9100342,4.5500488-2.0800781,4.9400635 c-2.4699707,0.7800293-12.7399902,2.2099609-12.7399902,2.2099609L1518.5699463,1501.7587891z"/>
		<path class="monochrome-0 multicolor-0:secondaryLabelColor hierarchical-0:primary SFSymbolsPreview8A8A8E" d="M1518.8299561,1570.7886963h-138.0599365c0,0-0.9099121-10.5299072,0.3901367-12.3499756 c2.0799561-2.9901123,9.75-5.5900879,13.3900146-5.9799805c11.8299561-1.1700439,55.3800049-1.1700439,55.3800049-1.1700439 s43.5499268-0.1298828,55.3800049,1.1700439c3.6400146,0.3901367,11.3099365,2.9901123,13.3900146,5.9799805 C1519.869873,1560.2587891,1518.8299561,1570.7886963,1518.8299561,1570.7886963z"/>
		<path class="monochrome-0 multicolor-0:secondaryLabelColor hierarchical-0:primary SFSymbolsPreview8A8A8E" d="M1503.75,1572.4787598c-3.25,0-6.7598877,0-10.6599121,0c-3.6400146,0-7.1500244,0-10.5299072,0h-65.5201416 c-3.25,0-6.8900146,0-10.5299072,0c-29.6400146,0.2600098-39.3900146-0.2598877-42.6400146-4.4200439 c-2.0800781-2.7299805-2.3400879-7.7999268-2.4700928-23.0098877c0-2.9901123,0-6.2401123-0.1300049-9.4901123 c-0.1298828-8.3199463-0.2598877-16.25,1.1700439-21.9699707c3.9000244-15.0799561,16.6401367-16.9000244,21.9700928-17.0300293 c0.1298828,0,0.1298828-0.1298828,0.1298828-0.1298828c1.5599365-4.9400635,4.5500488-11.0500488,6.7600098-15.3400879 c9.0999756-18.2000732,16.1199951-19.1099854,29.6400146-19.5h2.0799561c13.7800293-0.3901367,39.6500244-0.3901367,53.4300537,0 h2.0799561c13.5200195,0.3900146,20.5400391,1.2999268,29.6400146,19.5 c2.3400879,4.6799316,5.3299561,10.5299072,6.8901367,15.3400879c0,0,0,0.1298828,0.1298828,0.1298828 c5.3299561,0.1300049,18.0700684,2.0799561,21.9700928,17.0300293c1.4299316,5.5900879,1.2999268,13.5200195,1.1700439,21.9699707 l0,0c-0.1300049,3.25-0.1300049,6.5-0.1300049,9.6201172c-0.1300049,15.2098389-0.3900146,20.2799072-2.4700928,23.0098877 C1532.869873,1571.5687256,1525.2000732,1572.4787598,1503.75,1572.4787598z M1417.039917,1564.5488281h65.5200195 c3.25,0,6.8901367,0,10.5300293,0c12.0900879,0.1300049,32.1098633,0.2598877,36.4000244-1.5599365 c0.6499023-2.5999756,0.7799072-11.1799316,0.7799072-18.0700684c0-3.1199951,0-6.3699951,0.1300049-9.6199951l0,0 c0.1298828-7.8000488,0.2598877-15.2099609-0.9099121-19.7598877c-2.3400879-9.1000977-9.2299805-11.1800537-14.5599365-11.1800537 c-3.3800049-0.1298828-6.3701172-2.3400879-7.4100342-5.5900879c-1.2999268-4.2900391-4.1599121-9.75-6.3699951-14.1699219 c-7.5400391-14.8200684-11.0500488-14.9500732-22.8800049-15.2099609h-2.0799561 c-13.6500244-0.3901367-39.3900146-0.3901367-52.9099121,0h-2.0799561 c-11.8299561,0.2598877-15.4700928,0.3900146-22.8800049,15.2099609 c-2.0799561,4.1599121-4.9400635,9.8798828-6.3699951,14.2999268c-1.0400391,3.25-4.0300293,5.4599609-7.4099121,5.5900879 c-5.3299561,0.1300049-12.2200928,2.2099609-14.5599365,11.1799316 c-1.1700439,4.6800537-1.0400391,11.9599609-0.9099121,19.7600098c0.1298828,3.25,0.1298828,6.5,0.1298828,9.6199951 c0,7.0200195,0.1300049,15.5999756,0.7800293,18.1999512c4.2900391,1.8200684,24.3099365,1.6900635,36.4000244,1.5599365 C1410.1500244,1564.678833,1413.789917,1564.5488281,1417.039917,1564.5488281z"/>
		<path class="monochrome-0 multicolor-0:secondaryLabelColor hierarchical-0:primary SFSymbolsPreview8A8A8E" d="M1369.5899658,1566.2387695l20.9299316,3.1199951c0,0,0.1300049,9.6199951-0.9099121,9.6199951 c-8.8400879,0-17.1599121,0-22.75,0c-0.9099121,0-2.3400879-0.3900146-2.7299805-1.1700439 c-1.6900635-3.5098877-1.5599365-18.0699463-1.5599365-18.0699463L1369.5899658,1566.2387695z"/>
		<path class="monochrome-0 multicolor-0:secondaryLabelColor hierarchical-0:primary SFSymbolsPreview8A8A8E" d="M1537.1599121,1559.7387695c0,0,0.1300049,14.5599365-1.5599365,18.0699463 c-0.3900146,0.7800293-1.8199463,1.1700439-2.7298584,1.1700439c-5.5900879,0-13.9100342,0-22.75,0 c-1.0401611,0-0.9100342-9.6199951-0.9100342-9.6199951l20.9300537-3.1199951L1537.1599121,1559.7387695z"/>
	</g>
	<g id="Regular-M">
		<path class="monochrome-1 multicolor-1:tintColor hierarchical-1:secondary SFSymbolsPreviewFF3B30" d="M1434.4000244,1086.8000488c0,0.9000244,0.6999512,1.5999756,1.5999756,1.5999756h12.0999756 l-6.4000244,17.3000488c-0.9000244,2.3000488,1.5999756,3.5,3.0999756,1.6999512l19.5-24.5 c0.4000244-0.4000244,0.6999512-1,0.6999512-1.4000244c0-0.9000244-0.8000488-1.5-1.6999512-1.5h-12.0999756l6.4000244-17.3000488 c0.9000244-2.3000488-1.5999756-3.5999756-3-1.6999512L1435,1085.5 C1434.5999756,1086,1434.4000244,1086.4000244,1434.4000244,1086.8000488z"/>
		<path class="monochrome-2 multicolor-2:tertiaryLabelColor hierarchical-2:tertiary SFSymbolsPreviewBDBDBD" d="M1398.5,1095c2.4000244-0.0999756,13.9000244,0.9000244,18.5999756,1.4000244 C1418.4000244,1096.5,1422,1097.7000732,1422,1097.7000732s-7.0999756-9-10.1999512-10.6999512 c-2.1999512-1.1999512-7.3000488-1.6999512-9.8000488-1.8000488c-1.0999756,0-3.3000488-0.3000488-4.4000244,0 c-0.5,0.1999512-1.5999756,0.6999512-2,1.0999756c-0.8000488,0.9000244-1.5,2.5999756-1.6999512,3.5999756 c-0.6999512,3.4000244-0.6999512,6.8000488-0.5,10.9000244c0.1999512,3.0999756,1.0999756,9.5999756,1.9000244,12.3000488 c0.0999756,0.4000244,0.6999512,1.1999512,1.0999756,1.4000244c0.6999512,0.4000244,1.0999756,0.1999512,1.5999756-0.1999512 c0.3000488-0.3000488,0.9000244-0.6999512,0.8000488-1.1999512c-0.3000488-3-1.4000244-9-1.5-12.4000244 c0-1.3000488-0.3000488-4,0.0999756-5C1397.5999756,1095.4000244,1398.0999756,1095.0999756,1398.5,1095z"/>
		<path class="monochrome-2 multicolor-2:tertiaryLabelColor hierarchical-2:tertiary SFSymbolsPreviewBDBDBD" d="M1501.0999756,1095c-2.4000244-0.0999756-13.9000244,0.9000244-18.5999756,1.4000244 c-1.3000488,0.0999756-4.9000244,1.3000488-4.9000244,1.3000488s7.0999756-9,10.1999512-10.6999512 c2.1999512-1.1999512,7.3000488-1.6999512,9.8000488-1.8000488c1.0999756,0,3.3000488-0.3000488,4.4000244,0 c0.5,0.1999512,1.5999756,0.6999512,2,1.0999756c0.8000488,0.9000244,1.5,2.5999756,1.6999512,3.5999756 c0.6999512,3.4000244,0.6999512,6.8000488,0.5,10.9000244c-0.1999512,3.0999756-1.0999756,9.5999756-1.9000244,12.3000488 c-0.0999756,0.4000244-0.6999512,1.1999512-1.0999756,1.4000244c-0.6999512,0.4000244-1.0999756,0.1999512-1.5999756-0.1999512 c-0.3000488-0.3000488-0.9000244-0.6999512-0.8000488-1.1999512c0.3000488-3,1.4000244-9,1.5-12.4000244 c0-1.3000488,0.3000488-4-0.0999756-5C1502.0999756,1095.4000244,1501.5,1095.0999756,1501.0999756,1095z"/>
		<path class="monochrome-0 multicolor-0:secondaryLabelColor hierarchical-0:primary SFSymbolsPreview8A8A8E" d="M1393.5999756,1076.5c0,0-7.9000244-1.0999756-9.8000488-1.6999512 c-0.9000244-0.3000488-1.5999756-2.9000244-1.5999756-3.8000488c0.0999756-0.9000244,0.5999756-1.5999756,1-2 c1.8000488-1.5,6.6999512-2,8.9000244-1.9000244c0.5,0,1.5999756,0.5,1.9000244,0.9000244 c0.5999756,1,0.0999756,4.6999512,0.0999756,4.6999512L1396.7999268,1077L1393.5999756,1076.5z"/>
		<path class="monochrome-0 multicolor-0:secondaryLabelColor hierarchical-0:primary SFSymbolsPreview8A8A8E" d="M1502.6999512,1077l2.6999512-4.3000488c0,0-0.5-3.6999512,0.0999756-4.6999512 c0.3000488-0.4000244,1.4000244-0.9000244,1.9000244-0.9000244C1509.6999512,1067,1514.5998535,1067.5,1516.2999268,1069 c0.4000244,0.4000244,1,1.0999756,1,2c0.0999756,0.9000244-0.6999512,3.5-1.5999756,3.8000488 c-1.9000244,0.5999756-9.8000488,1.6999512-9.8000488,1.6999512L1502.6999512,1077z"/>
		<path class="monochrome-0 multicolor-0:secondaryLabelColor hierarchical-0:primary SFSymbolsPreview8A8A8E" d="M1502.9000244,1130.0999756h-106.1999512c0,0-0.6999512-8.0999756,0.3000488-9.5 c1.5999756-2.3000488,7.5-4.3000488,10.3000488-4.5999756c9.0999756-0.9000244,42.5999756-0.9000244,42.5999756-0.9000244 s33.5-0.0999756,42.5999756,0.9000244c2.8000488,0.3000488,8.6999512,2.3000488,10.3000488,4.5999756 C1503.6999512,1122,1502.9000244,1130.0999756,1502.9000244,1130.0999756z"/>
		<path class="monochrome-0 multicolor-0:secondaryLabelColor hierarchical-0:primary SFSymbolsPreview8A8A8E" d="M1491.3000488,1131.4000244c-2.5,0-5.1999512,0-8.1999512,0c-2.8000488,0-5.5,0-8.0999756,0h-50.4000244 c-2.5,0-5.3000488,0-8.0999756,0c-22.8000488,0.1999512-30.3000488-0.1999512-32.8000488-3.4000244 c-1.5999756-2.0999756-1.8000488-6-1.9000244-17.6999512c0-2.3000488,0-4.8000488-0.0999756-7.3000488 c-0.0999756-6.4000244-0.1999512-12.5,0.9000244-16.9000244c3-11.5999756,12.8000488-13,16.9000244-13.0999756 c0.0999756,0,0.0999756-0.0999756,0.0999756-0.0999756c1.1999512-3.8000488,3.5-8.5,5.1999512-11.8000488 c7-14,12.4000244-14.6999512,22.8000488-15h1.5999756c10.5999756-0.3000488,30.5-0.3000488,41.0999756,0h1.5999756 c10.4000244,0.3000488,15.8000488,1,22.8000488,15c1.8000488,3.5999756,4.0999756,8.0999756,5.3000488,11.8000488 c0,0,0,0.0999756,0.0999756,0.0999756c4.0999756,0.0999756,13.9000244,1.5999756,16.9000244,13.0999756 c1.0999756,4.3000488,1,10.4000244,0.9000244,16.9000244l0,0c-0.0999756,2.5-0.0999756,5-0.0999756,7.4000244 c-0.0999756,11.6999512-0.3000488,15.5999756-1.9000244,17.6999512 C1513.6999512,1130.6999512,1507.8000488,1131.4000244,1491.3000488,1131.4000244z M1424.5999756,1125.3000488H1475 c2.5,0,5.3000488,0,8.0999756,0c9.3000488,0.0999756,24.6999512,0.1999512,28-1.1999512 c0.5-2,0.5999756-8.5999756,0.5999756-13.9000244c0-2.4000244,0-4.9000244,0.0999756-7.4000244l0,0 c0.0999756-6,0.1999512-11.6999512-0.6999512-15.1999512c-1.8000488-7-7.0999756-8.5999756-11.1999512-8.5999756 c-2.5999756-0.0999756-4.9000244-1.8000488-5.6999512-4.3000488c-1-3.3000488-3.1999512-7.5-4.9000244-10.9000244 c-5.8000488-11.4000244-8.5-11.5-17.5999756-11.6999512h-1.5999756c-10.5-0.3000488-30.3000488-0.3000488-40.6999512,0h-1.5999756 c-9.0999756,0.1999512-11.9000244,0.3000488-17.5999756,11.6999512c-1.5999756,3.1999512-3.8000488,7.5999756-4.9000244,11 c-0.8000488,2.5-3.0999756,4.1999512-5.6999512,4.3000488c-4.0999756,0.0999756-9.4000244,1.6999512-11.1999512,8.5999756 c-0.9000244,3.5999756-0.8000488,9.1999512-0.6999512,15.1999512c0.0999756,2.5,0.0999756,5,0.0999756,7.4000244 c0,5.4000244,0.0999756,12,0.5999756,14c3.3000488,1.4000244,18.6999512,1.3000488,28,1.1999512 C1419.3000488,1125.4000244,1422.0999756,1125.3000488,1424.5999756,1125.3000488z"/>
		<path class="monochrome-0 multicolor-0:secondaryLabelColor hierarchical-0:primary SFSymbolsPreview8A8A8E" d="M1388.0999756,1126.5999756L1404.1999512,1129c0,0,0.0999756,7.4000244-0.6999512,7.4000244 c-6.8000488,0-13.1999512,0-17.5,0c-0.6999512,0-1.8000488-0.3000488-2.0999756-0.9000244 c-1.3000488-2.6999512-1.1999512-13.9000244-1.1999512-13.9000244L1388.0999756,1126.5999756z"/>
		<path class="monochrome-0 multicolor-0:secondaryLabelColor hierarchical-0:primary SFSymbolsPreview8A8A8E" d="M1517,1121.5999756c0,0,0.0999756,11.1999512-1.1999512,13.9000244 c-0.3000488,0.5999756-1.4000244,0.9000244-2.0999756,0.9000244c-4.3000488,0-10.6999512,0-17.5,0 c-0.8000488,0-0.6999512-7.4000244-0.6999512-7.4000244l16.0999756-2.4000244L1517,1121.5999756z"/>
	</g>
</g>
</svg>
