<?xml version="1.0" encoding="utf-8"?>
<!-- Generator: Adobe Illustrator 27.1.1, SVG Export Plug-In . SVG Version: 6.00 Build 0)  -->
<svg version="1.1" id="Layer_1" xmlns="http://www.w3.org/2000/svg" xmlns:xlink="http://www.w3.org/1999/xlink" x="0px" y="0px"
	 viewBox="0 0 3300 2200" style="enable-background:new 0 0 3300 2200;" xml:space="preserve">
<style type="text/css">
	.st0{fill:#FFFFFF;}
	.st1{fill:none;stroke:#000000;stroke-width:0.5;}
	.st2{font-family:'Helvetica-Bold';}
	.st3{font-size:13px;}
	.st4{font-family:'Helvetica';}
	.st5{fill:none;stroke:#00AEEF;stroke-width:0.5;}
	.st6{fill:#27AAE1;}
	.st7{fill:none;stroke:#27AAE1;stroke-width:0.5;}
</style>
<g id="Notes">
	<rect id="artboard" class="st0" width="3300" height="2200"/>
	<line class="st1" x1="263" y1="292" x2="3036" y2="292"/>
	<text transform="matrix(1 0 0 1 263 322)" class="st2 st3">Weight/Scale Variations</text>
	<text transform="matrix(1 0 0 1 534.0632935 322)" class="st4 st3">Ultralight</text>
	<text transform="matrix(1 0 0 1 843.7775269 322)" class="st4 st3">Thin</text>
	<text transform="matrix(1 0 0 1 1139.0350342 322)" class="st4 st3">Light</text>
	<text transform="matrix(1 0 0 1 1427.0772705 322)" class="st4 st3">Regular</text>
	<text transform="matrix(1 0 0 1 1723.4418945 322)" class="st4 st3">Medium</text>
	<text transform="matrix(1 0 0 1 2016.171875 322)" class="st4 st3">Semibold</text>
	<text transform="matrix(1 0 0 1 2326.970459 322)" class="st4 st3">Bold</text>
	<text transform="matrix(1 0 0 1 2618.2658691 322)" class="st4 st3">Heavy</text>
	<text transform="matrix(1 0 0 1 2917.5053711 322)" class="st4 st3">Black</text>
	<line class="st1" x1="263" y1="1903" x2="3036" y2="1903"/>
	<g transform="matrix(1 0 0 1 263 1933)">
		<path d="M9.1999998,0.8C13.5,0.8,17.1000004-2.8,17.1000004-7.0999999S13.5-15,9.1999998-15
			s-7.9000001,3.6000004-7.9000001,7.9000001C1.4-2.7,5,0.8,9.1999998,0.8z M9.1999998-0.7
			c-3.5,0-6.4000001-2.8-6.4000001-6.4000001S5.5999994-13.5,9.1999998-13.5s6.4000006,2.8000002,6.4000006,6.4000001
			S12.8000002-0.7,9.1999998-0.7z M5.6999998-7.0999999C5.6999998-6.6999998,6-6.4000001,6.5-6.4000001h2.1000004v2.0999999
			c0,0.4000001,0.3000002,0.7,0.6999998,0.7S10-3.9000001,10-4.3000002v-2.0999999h2.1000004
			c0.3999996,0,0.6999998-0.3000002,0.6999998-0.6999998C12.8000002-7.5,12.5-7.7999997,12.1000004-7.7999997H10v-2.0999999
			c0-0.3999996-0.3000002-0.8000002-0.6999998-0.8000002s-0.6999998,0.3000002-0.6999998,0.8000002v2.0999999H6.4000001
			C6-7.8000002,5.6999998-7.5,5.6999998-7.0999999z"/>
	</g>
	<g transform="matrix(1 0 0 1 281.867 1933)">
		<path d="M11.6999998,2.9000001c5.4000006,0,10.000001-4.5,10.000001-10c0-5.4000001-4.5-10-10-10c-5.3999991,0-10,4.5-10,10
			C1.7000008-1.6,6.3000011,2.9000001,11.6999998,2.9000001z M11.6999998,1.2c-4.599999,0-8.2999992-3.7-8.2999992-8.3000002
			s3.6999998-8.3000002,8.2999992-8.3000002S20-11.6999998,20-7.0999999C20-2.4000001,16.2999992,1.2,11.6999998,1.2z
			 M7.2000008-7.0999999c0,0.5,0.3000002,0.8000002,0.7999992,0.8000002h2.8999996v2.9000001c0,0.5,0.3000002,0.8,0.8000002,0.8
			s0.8000002-0.3,0.8000002-0.8v-2.9000001h2.8999996c0.5,0,0.7999992-0.3000002,0.7999992-0.8000002
			s-0.3000002-0.8000002-0.8000002-0.8000002h-2.9000006v-2.9000001c0-0.5-0.3000002-0.8000002-0.8000002-0.8000002
			s-0.8000002,0.3000002-0.8000002,0.8000002v2.9000001H8C7.500001-7.9000001,7.2000008-7.5,7.2000008-7.0999999z"/>
	</g>
	<g transform="matrix(1 0 0 1 305.646 1933)">
		<path d="M15,5.6999998c7,0,12.7000008-5.8000002,12.7000008-12.6999998c0-7-5.7999992-12.7000008-12.6999998-12.7000008
			C8-19.7999992,2.3-14,2.3-7.0999999C2.3-0.1,8,5.6999998,15,5.6999998z M15,3.8C8.8999996,3.8,4.0999999-1,4.0999999-7.0999999
			C4.0999999-13.1000004,8.8999996-18,15-18c6,0,10.8999996,4.8999996,10.8999996,10.8999996C25.8999996-1,21,3.8,15,3.8z
			 M9.1999998-7.0999999c0,0.5,0.3999996,0.9000001,0.8999996,0.9000001H14v4c0,0.5,0.3999996,0.9,0.8999996,0.9
			s0.8999996-0.4,0.8999996-0.9v-4h4c0.5,0,0.8999996-0.4000001,0.8999996-0.9000001S20.2999992-8,19.7999992-8h-4v-3.8999996
			c0-0.5-0.3999996-0.8999996-0.8999996-0.8999996S14-12.3999996,14-11.8999996V-8h-3.8999996
			C9.6000004-8,9.1999998-7.5999999,9.1999998-7.0999999z"/>
	</g>
	<text transform="matrix(1 0 0 1 263 1953)" class="st2 st3">Design Variations</text>
	<text transform="matrix(1 0 0 1 263 1971)" class="st4 st3">Symbols are supported in up to nine weights and three scales.</text>
	<text transform="matrix(1 0 0 1 263 1989)" class="st4 st3">For optimal layout with text and other symbols, vertically align</text>
	<text transform="matrix(1 0 0 1 263 2007)" class="st4 st3">symbols with the adjacent text.</text>
	<line class="st5" x1="776" y1="1919" x2="776" y2="1933"/>
	<g transform="matrix(1 0 0 1 776 1933)">
		<path d="M3.3,0.2c0.5,0,0.8-0.2,1.0000002-0.7L5.5-4h5.8000002l1.3000002,3.4000001C12.6999998,0,13,0.2,13.5,0.2
			s0.8000002-0.3,0.8000002-0.8c0-0.2,0-0.3-0.1000004-0.5l-4.5-12.2999992C9.3999996-14,9-14.3000002,8.3999996-14.3000002
			s-1,0.3000002-1.1999998,0.8999996L2.5999999-1.2C2.5-1,2.5-0.8,2.5-0.6C2.5-0.1,2.8,0.2,3.3,0.2z M6-5.5l2.3999996-6.6000004l0,0
			l2.3999996,6.5999999C10.8000002-5.5,6-5.5,6-5.5z"/>
	</g>
	<line class="st5" x1="793.2000122" y1="1919" x2="793.2000122" y2="1933"/>
	<text transform="matrix(1 0 0 1 776 1953)" class="st2 st3">Margins</text>
	<text transform="matrix(1 0 0 1 776 1971)" class="st4 st3">Leading and trailing margins on the left and right side of each symbol</text>
	<text transform="matrix(1 0 0 1 776 1989)" class="st4 st3">can be adjusted by modifying the x-location of the margin guidelines.</text>
	<text transform="matrix(1 0 0 1 776 2007)" class="st4 st3">Modifications are automatically applied proportionally to all</text>
	<text transform="matrix(1 0 0 1 776 2025)" class="st4 st3">scales and weights.</text>
	<g transform="matrix(1 0 0 1 1289 1933)">
		<path d="M2.8,1.9l1.7,1.6999999c0.9000001,0.9000001,1.8000002,0.8000002,2.8000002-0.2L18-8.3999996l-1-1L6.4000001,2.3
			C6,2.7,5.6999998,2.8,5.1999998,2.3L4.0999999,1.1c-0.5-0.4-0.3999999-0.8,0-1.1l11.5-10.8000002l-1-1L3-0.9
			C2.0999999,0,2,1,2.8,1.9z M9.3000002-16.2999992c-0.3999996,0.3999996-0.3999996,1-0.1999998,1.3999996
			S9.8000002-14.2999992,10.4000006-14.5c1.5-0.3000002,3-0.3999996,4.4000006,0.5l-0.6000004,1.5
			c-0.3000002,0.8000002-0.1999998,1.3999996,0.3999996,2l2.2999992,2.3000002c0.5,0.5,0.8999996,0.5,1.5,0.4000001l1-0.1999998
			l0.7000008,0.6999998v0.5999999c0,0.5,0.1000004,0.9000001,0.6000004,1.4000001L21.5-4.5999999c0.5,0.5,1.1000004,0.5,1.6000004,0
			L26-7.5C26.5-8,26.3999996-8.6000004,26-9l-1-0.8999996C24.5-10.3999996,24.2000008-10.5,23.7000008-10.5h-0.6000004
			L22.5-11.1000004l0.2000008-1.1000004c0.1000004-0.6000004,0-1-0.6000004-1.6000004L19.8999996-16
			C16.6000004-19.2999992,12.1000004-19.2000008,9.3000002-16.2999992z M10.8000002-16
			c2.4000006-1.7999992,5.6999998-1.5,7.9000006,0.8000002l2.3999996,2.4000006
			c0.2000008,0.1999998,0.2999992,0.3999996,0.2000008,0.8000002L21-10.5L22.5-9l1-0.1000004c0.2999992,0,0.2999992,0,0.5,0.1999998
			l0.6000004,0.6000004l-2.3999996,2.4000001L21.6000004-6.5c-0.2000008-0.1999998-0.2000008-0.3000002-0.2000008-0.5L21.5-8L20-9.5
			l-1.5,0.3000002c-0.2999992,0.1000004-0.5,0-0.7000008-0.1999998l-2-2
			c-0.3000002-0.1999998-0.3000002-0.3999996-0.1000004-0.8000002l0.8999996-2.0999994C15-15.8000002,13-16.3999996,11-15.8000002
			C10.6999998-15.6999998,10.6000004-15.8000002,10.8000002-16z"/>
	</g>
	<text transform="matrix(1 0 0 1 1289 1953)" class="st2 st3">Exporting</text>
	<text transform="matrix(1 0 0 1 1289 1971)" class="st4 st3">Symbols should be outlined when exporting to ensure the</text>
	<text transform="matrix(1 0 0 1 1289 1989)" class="st4 st3">design is preserved when submitting to Xcode.</text>
	<text id="template-version" transform="matrix(1 0 0 1 2952.4140625 1933)" class="st4 st3">Template v.4.0</text>
	<text transform="matrix(1 0 0 1 2865.4575195 1951)" class="st4 st3">Requires Xcode 14 or greater</text>
	<text id="descriptive-name" transform="matrix(1 0 0 1 2898.7128906 1969)" class="st4 st3">Generated from bolt.car</text>
	<text transform="matrix(1 0 0 1 2912.4111328 1987)" class="st4 st3">Typeset at 100 points</text>
	<text transform="matrix(1 0 0 1 263 726)" class="st4 st3">Small</text>
	<text transform="matrix(1 0 0 1 263 1156)" class="st4 st3">Medium</text>
	<text transform="matrix(1 0 0 1 263 1586)" class="st4 st3">Large</text>
</g>
<g id="Guides">
	<g id="H-reference" transform="matrix(1 0 0 1 339 696)">
		<path class="st6" d="M1,0h2.5999999l25.7000008-67.0999985H30v-3.3000031h-1.8999996L1,0z M11.6999998-24.5H47
			l-0.7999992-2.2000008H12.3999996L11.6999998-24.5z M55.0999985,0h2.5999985L30.6000004-70.5h-1.2000008v3.3000031L55.0999985,0z"
			/>
	</g>
	<line id="Baseline-S" class="st7" x1="263" y1="696" x2="3036" y2="696"/>
	<line id="Capline-S" class="st7" x1="263" y1="625.5" x2="3036" y2="625.5"/>
	<g id="H-reference_00000145018269667135619830000005543126124872748710_" transform="matrix(1 0 0 1 339 1126)">
		<path class="st6" d="M1,0h2.5999999l25.7000008-67.0999985H30v-3.3000031h-1.8999996L1,0z M11.6999998-24.5H47
			l-0.7999992-2.2000008H12.3999996L11.6999998-24.5z M55.0999985,0h2.5999985L30.6000004-70.5h-1.2000008v3.3000031L55.0999985,0z"
			/>
	</g>
	<line id="Baseline-M" class="st7" x1="263" y1="1126" x2="3036" y2="1126"/>
	<line id="Capline-M" class="st7" x1="263" y1="1055.5" x2="3036" y2="1055.5"/>
	<g id="H-reference_00000179622612289126554530000017544532022482279819_" transform="matrix(1 0 0 1 339 1556)">
		<path class="st6" d="M1,0h2.5999999l25.7000008-67.0999985H30v-3.3000031h-1.8999996L1,0z M11.6999998-24.5H47
			l-0.7999992-2.2000008H12.3999996L11.6999998-24.5z M55.0999985,0h2.5999985L30.6000004-70.5h-1.2000008v3.3000031L55.0999985,0z"
			/>
	</g>
	<line id="Baseline-L" class="st7" x1="263" y1="1556" x2="3036" y2="1556"/>
	<line id="Capline-L" class="st7" x1="263" y1="1485.5" x2="3036" y2="1485.5"/>
	<line id="left-margin-Regular-M" class="st5" x1="1379.5999756" y1="1030.8000488" x2="1379.5999756" y2="1150.0999756"/>
	<line id="right-margin-Regular-M" class="st5" x1="1520.0999756" y1="1030.8000488" x2="1520.0999756" y2="1150.0999756"/>
</g>
<g id="Symbols">
	<g id="Semibold-L">
		<path id="headlight.left_00000052803897753663883220000016614349644304695999_" d="M1977.0999756,1525.4000244
			c3.0999756-0.0999756,18.0999756,1.1999512,24.1999512,1.8000488c1.6999512,0.0999756,6.4000244,1.6999512,6.4000244,1.6999512
			S1998.5,1517.2000732,1994.3999023,1515c-2.9000244-1.5999756-9.5-2.1999512-12.6999512-2.3000488
			c-1.4000244,0-4.3000488-0.4000244-5.6999512,0c-0.5999756,0.3000488-2.0999756,0.9000244-2.5999756,1.4000244
			c-1,1.1999512-1.9000244,3.4000244-2.1999512,4.6999512c-0.9000244,4.4000244-0.9000244,8.8000488-0.5999756,14.1999512
			c0.3000488,4,1.4000244,12.5,2.5,16c0.0999756,0.5,0.9000244,1.5999756,1.4000244,1.8000488
			c0.9000244,0.5,1.4000244,0.3000488,2.0999756-0.3000488c0.4000244-0.4000244,1.1999512-0.9000244,1-1.5999756
			c-0.4000244-3.9000244-1.8000488-11.6999512-2-16.0999756c0-1.6999512-0.4000244-5.1999512,0.0999756-6.5
			C1976,1525.9000244,1976.5999756,1525.5,1977.0999756,1525.4000244z"/>
		<path id="headlight.right_00000175321850239215061110000006910355277626681247_" d="M2110.5,1525.4000244
			c-3.1000977-0.0999756-18.1000977,1.1999512-24.1999512,1.8000488c-1.6999512,0.0999756-6.3999023,1.6999512-6.3999023,1.6999512
			s9.1999512-11.6999512,13.3000488-13.9000244c2.8999023-1.5999756,9.5-2.1999512,12.6999512-2.3000488
			c1.3999023,0,4.3000488-0.4000244,5.6999512,0c0.6999512,0.3000488,2.1000977,0.9000244,2.6000977,1.4000244
			c1,1.1999512,1.8999023,3.4000244,2.1999512,4.6999512c0.8999023,4.4000244,0.8999023,8.8000488,0.6000977,14.1999512
			c-0.3000488,4-1.3999023,12.5-2.5,16c-0.1000977,0.5-0.8999023,1.5999756-1.3999023,1.8000488
			c-0.8999023,0.5-1.3999023,0.3000488-2.1000977-0.3000488c-0.3999023-0.4000244-1.1999512-0.9000244-1-1.5999756
			c0.3999023-3.9000244,1.8000488-11.6999512,1.8999023-16.0999756c0-1.6999512,0.3999023-5.1999512-0.1000977-6.5
			C2111.8000488,1525.9000244,2111,1525.5,2110.5,1525.4000244z"/>
		<path id="side-mirror.left_00000019643416254487103660000015564164261989834684_" d="M1969.5,1499.6999512
			c0,0-10.3000488-1.4000244-12.6999512-2.1999512c-1.1999512-0.4000244-2.0999756-3.8000488-2.0999756-4.9000244
			c0.0999756-1.1999512,0.8000488-2.0999756,1.3000488-2.5999756c2.3000488-1.9000244,8.6999512-2.5999756,11.5999756-2.5
			c0.6999512,0,2.0999756,0.6999512,2.5,1.1999512c0.8000488,1.3000488,0.0999756,6.0999756,0.0999756,6.0999756l3.5,5.5999756
			L1969.5,1499.6999512z"/>
		<path id="side-mirror.right_00000111185460064628027170000003269389671682533266_" d="M2113.8999023,1500.3000488l3.5-5.5999756
			c0,0-0.6000977-4.8000488,0.1000977-6.0999756c0.3999023-0.5,1.8000488-1.1999512,2.5-1.1999512
			c3-0.0999756,9.3999023,0.5,11.6000977,2.5c0.5,0.5,1.3000488,1.4000244,1.3000488,2.5999756
			c0.1000977,1.1999512-0.8999023,4.5999756-2.1000977,4.9000244c-2.5,0.8000488-12.6999512,2.1999512-12.6999512,2.1999512
			L2113.8999023,1500.3000488z"/>
		<path id="grill_00000098202263406092732550000015219849028533634720_" d="M2112.8999023,1571h-138.0999756
			c0,0-0.9000244-10.5,0.4000244-12.3000488c2.0999756-3,9.8000488-5.5999756,13.4000244-6
			C2000.4000244,1551.5,2044,1551.5,2044,1551.5s43.5-0.0999756,55.3999023,1.1999512
			c3.6000977,0.4000244,11.3000488,3,13.3999023,6C2113.8000488,1560.5,2112.8999023,1571,2112.8999023,1571z"/>
		<path id="frame_00000022552229767699690660000012241306037696355997_" d="M1990.0999756,1574.6999512
			c-22.5999756,0-30.4000244-1-33.6999512-5.1999512c-2.5999756-3.1999512-2.6999512-8.8000488-2.9000244-24.1999512
			c0-3,0-6.1999512-0.0999756-9.5c-0.0999756-8.4000244-0.3000488-16.5,1.1999512-22.5
			c2.9000244-10.9000244,11.1999512-17.6999512,22.5-18.5c1.6999512-4.8000488,4.4000244-10.4000244,6.5-14.5999756
			c9.5999756-19.0999756,17.4000244-20.1999512,31.3000488-20.5h1.9000244c13.8000488-0.4000244,39.8000488-0.4000244,53.6000977,0
			h1.8999023c13.8999023,0.4000244,21.6999512,1.4000244,31.3000488,20.5c2.1999512,4.4000244,4.8999023,9.8000488,6.5,14.5999756
			c11.3000488,0.8000488,19.6000977,7.5,22.5,18.5c1.6000977,6,1.3999023,13.9000244,1.1999512,22.5l0,0
			c0,3.1999512-0.1000977,6.5-0.1000977,9.5c-0.1000977,15.5-0.3000488,20.9000244-2.8999023,24.1999512
			C2127,1574.3000488,2117.5,1575,2086.6000977,1574.6999512c-3.6000977,0-7.1999512,0-10.3999023,0h-65.5999756
			c-3.1999512,0-6.9000244,0-10.4000244,0C1996.8000488,1574.6999512,1993.3000488,1574.6999512,1990.0999756,1574.6999512z
			 M2011.0999756,1562.8000488h65.7000732c3.3999023,0,6.8999023,0,10.5,0c11.1000977,0.0999756,29,0.3000488,34.6000977-1.1999512
			c0.5-3.1999512,0.5-10.5,0.5-16.5999756c0-3.0999756,0-6.4000244,0.1000977-9.5999756
			c0.1000977-7.6999512,0.3000488-14.9000244-0.8000488-19.1999512c-1.6999512-6.4000244-6-9.5999756-12.6999512-9.8000488
			c-4.3000488-0.0999756-7.8999023-2.9000244-9.1999512-7c-1.3000488-4.1999512-4-9.5-6.1999512-13.9000244
			c-7-13.8000488-9.8000488-13.9000244-21.1999512-14.1999512h-2.1000977c-13.5-0.4000244-39.3000488-0.4000244-52.8000488,0
			h-2.0999756c-11.5999756,0.3000488-14.3000488,0.4000244-21.1999512,14.1999512
			c-2.0999756,4-4.9000244,9.8000488-6.1999512,13.9000244c-1.3000488,4-4.9000244,6.9000244-9.1999512,6.9000244
			c-6.8000488,0.0999756-11.0999756,3.5-12.6999512,9.8000488c-1.1999512,4.4000244-1,12-0.9000244,19.1999512
			c0.0999756,3.1999512,0.0999756,6.5,0.0999756,9.5999756c0,6.0999756,0.0999756,13.4000244,0.5,16.5999756
			c5.5999756,1.4000244,23.5,1.3000488,34.5999756,1.1999512
			C2004.1999512,1563,2007.6999512,1562.8000488,2011.0999756,1562.8000488z"/>
		<path id="tire.left_00000000183014254132988880000012811676982451915187_" d="M1961,1566.5l20.9000244,3.0999756
			c0,0,0.0999756,9.5999756-0.9000244,9.5999756c-8.8000488,0-17.1999512,0-22.8000488,0
			c-0.9000244,0-2.3000488-0.4000244-2.6999512-1.1999512c-1.6999512-3.5-1.5999756-18.0999756-1.5999756-18.0999756L1961,1566.5z"
			/>
		<path id="tire.right_00000034776091375534873560000009249322006867348103_" d="M2133.3000488,1560
			c0,0,0.1000977,14.5999756-1.6000977,18.0999756c-0.3999023,0.8000488-1.8000488,1.1999512-2.6999512,1.1999512
			c-5.6000977,0-13.8999023,0-22.8000488,0c-1,0-0.8999023-9.5999756-0.8999023-9.5999756l20.8999023-3.0999756L2133.3000488,1560z"
			/>
	</g>
	<g id="Medium-L">
		<path id="headlight.left_00000165196428764728969010000015031268329401811130_" d="M1680.0999756,1525.3000488
			c3.0999756-0.0999756,18.0999756,1.1999512,24.1999512,1.8000488c1.6999512,0.0999756,6.4000244,1.6999512,6.4000244,1.6999512
			s-9.1999512-11.6999512-13.3000488-13.9000244c-2.9000244-1.5999756-9.5-2.1999512-12.6999512-2.3000488
			c-1.4000244,0-4.3000488-0.4000244-5.6999512,0c-0.5999756,0.3000488-2.0999756,0.9000244-2.5999756,1.4000244
			c-1,1.1999512-1.9000244,3.4000244-2.1999512,4.6999512c-0.9000244,4.4000244-0.9000244,8.8000488-0.5999756,14.1999512
			c0.3000488,4,1.4000244,12.5,2.5,16c0.0999756,0.5,0.9000244,1.5999756,1.4000244,1.8000488
			c0.9000244,0.5,1.4000244,0.3000488,2.0999756-0.3000488c0.4000244-0.4000244,1.1999512-0.9000244,1-1.5999756
			c-0.4000244-3.9000244-1.8000488-11.6999512-2-16.0999756c0-1.6999512-0.4000244-5.1999512,0.0999756-6.5
			C1678.9000244,1525.8000488,1679.5999756,1525.4000244,1680.0999756,1525.3000488z"/>
		<path id="headlight.right_00000128472504301446786310000004823831745610978488_" d="M1813.5,1525.3000488
			c-3.0999756-0.0999756-18.0999756,1.1999512-24.1999512,1.8000488c-1.6999512,0.0999756-6.4000244,1.6999512-6.4000244,1.6999512
			s9.1999512-11.6999512,13.3000488-13.9000244c2.9000244-1.5999756,9.5-2.1999512,12.6999512-2.3000488
			c1.4000244,0,4.3000488-0.4000244,5.6999512,0c0.6999512,0.3000488,2.0999756,0.9000244,2.5999756,1.4000244
			c1,1.1999512,2,3.4000244,2.1999512,4.6999512c0.9000244,4.4000244,0.9000244,8.8000488,0.6999512,14.1999512
			c-0.3000488,4-1.4000244,12.5-2.5,16c-0.0999756,0.5-0.9000244,1.5999756-1.4000244,1.8000488
			c-0.9000244,0.5-1.4000244,0.3000488-2.0999756-0.3000488c-0.4000244-0.4000244-1.1999512-0.9000244-1-1.5999756
			c0.4000244-3.9000244,1.8000488-11.6999512,1.9000244-16.0999756c0-1.6999512,0.4000244-5.1999512-0.0999756-6.5
			C1814.8000488,1525.8000488,1814,1525.4000244,1813.5,1525.3000488z"/>
		<path id="side-mirror.left_00000098208000981245947810000006848498749185116045_" d="M1672.4000244,1500
			c0,0-10.3000488-1.4000244-12.6999512-2.1999512c-1.1999512-0.4000244-2.0999756-3.8000488-2.0999756-4.9000244
			c0.0999756-1.1999512,0.8000488-2.0999756,1.3000488-2.5999756c2.3000488-1.9000244,8.6999512-2.5999756,11.5999756-2.5
			c0.6999512,0,2.0999756,0.6999512,2.5,1.1999512c0.8000488,1.3000488,0.0999756,6.0999756,0.0999756,6.0999756l3.5,5.5999756
			L1672.4000244,1500z"/>
		<path id="side-mirror.right_00000024002966122469993600000006249488082081794227_" d="M1816.9000244,1500.5999756l3.5-5.5999756
			c0,0-0.6999512-4.8000488,0.0999756-6.0999756c0.4000244-0.5,1.8000488-1.1999512,2.5-1.1999512
			c3-0.0999756,9.4000244,0.5,11.5999756,2.5c0.5,0.5,1.3000488,1.4000244,1.3000488,2.5999756
			C1836,1494,1835,1497.4000244,1833.8000488,1497.7000732c-2.5,0.8000488-12.6999512,2.1999512-12.6999512,2.1999512
			L1816.9000244,1500.5999756z"/>
		<path id="grill_00000064342606184414736090000007537179404454387349_" d="M1815.8000488,1570.9000244h-138.0999756
			c0,0-0.9000244-10.5,0.4000244-12.3000488c2.0999756-3,9.8000488-5.5999756,13.4000244-6
			c11.8000488-1.1999512,55.4000244-1.1999512,55.4000244-1.1999512s43.5999756-0.0999756,55.4000244,1.1999512
			c3.5999756,0.4000244,11.3000488,3,13.4000244,6C1816.9000244,1560.4000244,1815.8000488,1570.9000244,1815.8000488,1570.9000244z
			"/>
		<path id="frame_00000000215413205853091820000011849640296734404261_" d="M1800.6999512,1573.9000244
			c-3.1999512,0-6.8000488,0-10.6999512,0c-3.5999756,0-7.1999512,0-10.4000244,0H1714c-3.1999512,0-6.9000244,0-10.4000244,0
			c-30.5,0.3000488-40-0.4000244-43.6999512-4.9000244c-2.3000488-3-2.5999756-8.3000488-2.6999512-23.8000488
			c0-3,0-6.1999512-0.0999756-9.5c-0.0999756-8.4000244-0.3000488-16.4000244,1.1999512-22.1999512
			c3.9000244-15.1999512,16.4000244-17.6999512,22.4000244-18.0999756c1.6999512-4.9000244,4.5-10.6999512,6.5999756-14.8000488
			c9.5-18.6999512,17-19.9000244,30.8000488-20.1999512h2c13.8000488-0.4000244,39.8000488-0.4000244,53.5999756,0h1.9000244
			c13.6999512,0.4000244,21.3000488,1.4000244,30.8000488,20.1999512c2.3000488,4.5,5.0999756,10,6.5999756,14.8000488
			c6,0.3000488,18.3000488,2.9000244,22.4000244,18.0999756c1.5999756,5.8000488,1.3000488,13.8000488,1.1999512,22.4000244l0,0
			c0,3.1999512-0.0999756,6.5-0.0999756,9.5c-0.0999756,15.5-0.4000244,20.8000488-2.6999512,23.8000488
			C1830.5999756,1573,1823,1573.9000244,1800.6999512,1573.9000244z M1714,1563.4000244h65.5999756c3.4000244,0,6.9000244,0,10.5,0
			c11.4000244,0.0999756,30,0.3000488,35.1999512-1.3000488c0.5-3.0999756,0.6999512-10.8000488,0.6999512-17.1999512
			c0-3.0999756,0-6.4000244,0.0999756-9.5999756l0,0c0.0999756-7.6999512,0.3000488-15.0999756-0.9000244-19.5
			c-1.6999512-6.5999756-6.1999512-10.0999756-13.4000244-10.3000488c-3.9000244-0.0999756-7.4000244-2.6999512-8.5999756-6.5
			c-1.3000488-4.1999512-4-9.5999756-6.1999512-13.9000244c-7.1999512-14.1999512-10.3000488-14.3000488-21.8000488-14.5999756
			h-2.0999756c-13.6999512-0.4000244-39.3000488-0.4000244-52.9000244,0h-2.0999756
			c-11.5999756,0.3000488-14.6999512,0.4000244-21.6999512,14.4000244c-2.0999756,4.1999512-4.9000244,9.8000488-6.1999512,14
			c-1.1999512,3.8000488-4.6999512,6.4000244-8.5999756,6.5C1674.5,1505.5,1670,1509,1668.1999512,1515.7000732
			c-1.1999512,4.4000244-1,12.0999756-0.9000244,19.5c0.0999756,3.1999512,0.0999756,6.5,0.0999756,9.5999756
			c0,6.4000244,0.0999756,14.1999512,0.6999512,17.1999512c5.1999512,1.5999756,23.8000488,1.4000244,35.1999512,1.3000488
			C1707.0999756,1563.5,1710.6999512,1563.4000244,1714,1563.4000244z"/>
		<path id="tire.left_00000111155063136371554300000000812877587865389230_" d="M1665.3000488,1566.4000244L1686.2000732,1569.5
			c0,0,0.0999756,9.5999756-0.9000244,9.5999756c-8.8000488,0-17.1999512,0-22.8000488,0
			c-0.9000244,0-2.3000488-0.4000244-2.6999512-1.1999512c-1.6999512-3.5-1.5999756-18.0999756-1.5999756-18.0999756
			L1665.3000488,1566.4000244z"/>
		<path id="tire.right_00000106143050038686336230000004082485118421894806_" d="M1835.5,1559.9000244
			c0,0,0.0999756,14.5999756-1.5999756,18.0999756c-0.4000244,0.8000488-1.8000488,1.1999512-2.6999512,1.1999512
			c-5.5999756,0-13.9000244,0-22.8000488,0c-1,0-0.9000244-9.5999756-0.9000244-9.5999756L1828.4000244,1566.5L1835.5,1559.9000244z
			"/>
	</g>
	<g id="Regular-L">
		<path id="headlight.left_00000032610675131567694910000003768209391845658778_" d="M1383.0999756,1525.1999512
			c3.0999756-0.0999756,18.0999756,1.1999512,24.1999512,1.8000488c1.6999512,0.0999756,6.4000244,1.6999512,6.4000244,1.6999512
			S1404.5,1517,1400.3999023,1514.7999268c-2.9000244-1.5999756-9.5-2.1999512-12.6999512-2.3000488
			c-1.4000244,0-4.3000488-0.4000244-5.6999512,0c-0.6999512,0.3000488-2.0999756,0.9000244-2.5999756,1.4000244
			c-1,1.1999512-2,3.4000244-2.1999512,4.6999512c-0.9000244,4.4000244-0.9000244,8.8000488-0.6999512,14.1999512
			c0.3000488,4,1.4000244,12.5,2.5,16c0.0999756,0.5,0.9000244,1.5999756,1.4000244,1.8000488
			c0.9000244,0.5,1.4000244,0.3000488,2.0999756-0.3000488c0.4000244-0.4000244,1.1999512-0.9000244,1-1.5999756
			c-0.4000244-3.9000244-1.8000488-11.6999512-1.9000244-16.0999756c0-1.6999512-0.4000244-5.1999512,0.0999756-6.5
			C1381.9000244,1525.6999512,1382.5999756,1525.3000488,1383.0999756,1525.1999512z"/>
		<path id="headlight.right_00000039108928649770346900000012486417119186589572_" d="M1516.5,1525.1999512
			c-3.0999756-0.0999756-18.0999756,1.1999512-24.1999512,1.8000488c-1.6999512,0.0999756-6.4000244,1.6999512-6.4000244,1.6999512
			s9.1999512-11.6999512,13.3000488-13.9000244c2.9000244-1.5999756,9.5-2.1999512,12.6999512-2.3000488
			c1.4000244,0,4.3000488-0.4000244,5.6999512,0c0.6999512,0.3000488,2.0999756,0.9000244,2.5999756,1.4000244
			c1,1.1999512,1.9000244,3.4000244,2.1999512,4.6999512c0.9000244,4.4000244,0.9000244,8.8000488,0.6999512,14.1999512
			c-0.3000488,4-1.4000244,12.5-2.5,16c-0.0999756,0.5-0.9000244,1.5999756-1.4000244,1.8000488
			c-0.9000244,0.5-1.4000244,0.3000488-2.0999756-0.3000488c-0.4000244-0.4000244-1.1999512-0.9000244-1-1.5999756
			c0.4000244-3.9000244,1.8000488-11.6999512,2-16.0999756c0-1.6999512,0.4000244-5.1999512-0.0999756-6.5
			C1517.8000488,1525.6999512,1517,1525.3000488,1516.5,1525.1999512z"/>
		<path id="side-mirror.left_00000021826921029323673180000011571254240196193424_" d="M1376.6999512,1501.0999756
			c0,0-10.3000488-1.4000244-12.6999512-2.1999512c-1.1999512-0.4000244-2.0999756-3.8000488-2.0999756-4.9000244
			c0.0999756-1.1999512,0.8000488-2.0999756,1.3000488-2.5999756c2.3000488-1.9000244,8.6999512-2.5999756,11.5999756-2.5
			c0.6999512,0,2.0999756,0.6999512,2.5,1.1999512c0.8000488,1.3000488,0.0999756,6.0999756,0.0999756,6.0999756l3.5,5.5999756
			L1376.6999512,1501.0999756z"/>
		<path id="side-mirror.right_00000103954600376786467550000000248081674461897635_" d="M1518.5999756,1501.8000488l3.5-5.5999756
			c0,0-0.6999512-4.8000488,0.0999756-6.0999756c0.4000244-0.5,1.8000488-1.1999512,2.5-1.1999512
			c3-0.0999756,9.4000244,0.5,11.5999756,2.5c0.5,0.5,1.3000488,1.4000244,1.3000488,2.5999756
			c0.0999756,1.1999512-0.9000244,4.5999756-2.0999756,4.9000244c-2.5,0.8000488-12.6999512,2.1999512-12.6999512,2.1999512
			L1518.5999756,1501.8000488z"/>
		<path id="grill_00000012460727294474071310000016889149733490438319_" d="M1518.8000488,1570.8000488h-138.0999756
			c0,0-0.9000244-10.5,0.4000244-12.3000488c2.0999756-3,9.8000488-5.5999756,13.4000244-6
			c11.8000488-1.1999512,55.4000244-1.1999512,55.4000244-1.1999512s43.5-0.0999756,55.4000244,1.1999512
			c3.5999756,0.4000244,11.3000488,3,13.4000244,6C1519.9000244,1560.3000488,1518.8000488,1570.8000488,1518.8000488,1570.8000488z
			"/>
		<path id="frame_00000017497848684128076880000010317217182039366824_" d="M1503.8000488,1572.5
			c-3.1999512,0-6.8000488,0-10.6999512,0c-3.5999756,0-7.1999512,0-10.5,0H1417c-3.1999512,0-6.9000244,0-10.5,0
			c-29.5999756,0.3000488-39.4000244-0.3000488-42.5999756-4.4000244c-2.0999756-2.6999512-2.3000488-7.8000488-2.5-23
			c0-3,0-6.1999512-0.0999756-9.5c-0.0999756-8.3000488-0.3000488-16.1999512,1.1999512-22
			c3.9000244-15.0999756,16.5999756-16.9000244,22-17c0.0999756,0,0.0999756-0.0999756,0.0999756-0.0999756
			c1.5999756-4.9000244,4.5999756-11.0999756,6.8000488-15.3000488C1400.5,1463,1407.5,1462.0999756,1421,1461.6999512h2.0999756
			c13.8000488-0.4000244,39.6999512-0.4000244,53.4000244,0h2.0999756c13.5,0.4000244,20.5,1.3000488,29.5999756,19.5
			c2.3000488,4.6999512,5.3000488,10.5,6.9000244,15.3000488c0,0,0,0.0999756,0.0999756,0.0999756
			c5.3000488,0.0999756,18.0999756,2.0999756,22,17c1.4000244,5.5999756,1.3000488,13.5,1.1999512,22l0,0
			c-0.0999756,3.1999512-0.0999756,6.5-0.0999756,9.5999756c-0.0999756,15.1999512-0.4000244,20.3000488-2.5,23
			C1532.9000244,1571.5999756,1525.1999512,1572.5,1503.8000488,1572.5z M1417,1564.5h65.5c3.1999512,0,6.9000244,0,10.5,0
			c12.0999756,0.0999756,32.0999756,0.3000488,36.4000244-1.5999756c0.5999756-2.5999756,0.8000488-11.1999512,0.8000488-18.0999756
			c0-3.0999756,0-6.4000244,0.0999756-9.5999756l0,0c0.0999756-7.8000488,0.3000488-15.1999512-0.9000244-19.8000488
			c-2.3000488-9.0999756-9.1999512-11.1999512-14.5999756-11.1999512c-3.4000244-0.0999756-6.4000244-2.3000488-7.4000244-5.5999756
			c-1.3000488-4.3000488-4.1999512-9.8000488-6.4000244-14.1999512c-7.5-14.8000488-11.0999756-15-22.9000244-15.1999512H1476
			c-13.6999512-0.4000244-39.4000244-0.4000244-52.9000244,0H1421c-11.8000488,0.3000488-15.5,0.4000244-22.9000244,15.1999512
			c-2.0999756,4.1999512-4.9000244,9.9000244-6.4000244,14.3000488c-1,3.1999512-4,5.5-7.4000244,5.5999756
			c-5.3000488,0.0999756-12.1999512,2.1999512-14.5999756,11.1999512c-1.1999512,4.6999512-1,12-0.9000244,19.8000488
			c0.0999756,3.1999512,0.0999756,6.5,0.0999756,9.5999756c0,7,0.0999756,15.5999756,0.8000488,18.1999512
			c4.3000488,1.8000488,24.3000488,1.6999512,36.4000244,1.5999756C1410.1999512,1564.6999512,1413.8000488,1564.5,1417,1564.5z
			 M1369.6999512,1562.9000244L1369.6999512,1562.9000244z"/>
		<path id="tire.left_00000095301360187301130270000000732588457611679376_" d="M1369.5999756,1566.1999512L1390.5,1569.2999268
			c0,0,0.0999756,9.5999756-0.9000244,9.5999756c-8.8000488,0-17.1999512,0-22.8000488,0
			c-0.9000244,0-2.3000488-0.4000244-2.6999512-1.1999512c-1.6999512-3.5-1.5999756-18.0999756-1.5999756-18.0999756
			L1369.5999756,1566.1999512z"/>
		<path id="tire.right_00000160155382729051397710000000712998999489352592_" d="M1537.1999512,1559.6999512
			c0,0,0.0999756,14.5999756-1.5999756,18.0999756c-0.4000244,0.8000488-1.8000488,1.1999512-2.6999512,1.1999512
			c-5.5999756,0-13.9000244,0-22.8000488,0c-1,0-0.9000244-9.5999756-0.9000244-9.5999756l20.9000244-3.0999756
			L1537.1999512,1559.6999512z"/>
	</g>
	<g id="Semibold-M">
		<path id="headlight.left_00000103227661940584171550000000314405120612962746_" d="M1992.5,1095
			c2.4000244-0.0999756,13.9000244,0.9000244,18.5999756,1.4000244C2012.4000244,1096.5,2016,1097.7000732,2016,1097.7000732
			s-7.0999756-9-10.1999512-10.6999512c-2.1999512-1.1999512-7.3000488-1.6999512-9.8000488-1.8000488
			c-1.0999756,0-3.3000488-0.3000488-4.4000244,0c-0.5,0.1999512-1.5999756,0.6999512-2,1.0999756
			c-0.8000488,0.9000244-1.5,2.5999756-1.6999512,3.5999756c-0.6999512,3.4000244-0.6999512,6.8000488-0.5,10.9000244
			c0.1999512,3.0999756,1.0999756,9.5999756,1.9000244,12.3000488c0.0999756,0.4000244,0.6999512,1.1999512,1.0999756,1.4000244
			c0.6999512,0.4000244,1.0999756,0.1999512,1.5999756-0.1999512c0.3000488-0.3000488,0.9000244-0.6999512,0.8000488-1.1999512
			c-0.3000488-3-1.4000244-9-1.5-12.4000244c0-1.3000488-0.3000488-4,0.0999756-5
			C1991.5999756,1095.4000244,1992.0999756,1095.0999756,1992.5,1095z"/>
		<path id="headlight.right_00000088815351195283686670000017504666190479805354_" d="M2095.1000977,1095
			c-2.3999023-0.0999756-13.8999023,0.9000244-18.6000977,1.4000244c-1.3000488,0.0999756-4.8999023,1.3000488-4.8999023,1.3000488
			s7.1000977-9,10.1999512-10.6999512c2.1999512-1.1999512,7.3000488-1.6999512,9.8000488-1.8000488
			c1.1000977,0,3.3000488-0.3000488,4.3999023,0c0.5,0.1999512,1.6000977,0.6999512,2,1.0999756
			c0.8000488,0.9000244,1.5,2.5999756,1.6999512,3.5999756c0.6999512,3.4000244,0.6999512,6.8000488,0.5,10.9000244
			c-0.1999512,3.0999756-1.1000977,9.5999756-1.8999023,12.3000488c-0.1000977,0.4000244-0.6999512,1.1999512-1.1000977,1.4000244
			c-0.6999512,0.4000244-1.1000977,0.1999512-1.6000977-0.1999512c-0.3000488-0.3000488-0.8999023-0.6999512-0.8000488-1.1999512
			c0.3000488-3,1.3999023-9,1.5-12.4000244c0-1.3000488,0.3000488-4-0.1000977-5
			C2096.1000977,1095.4000244,2095.5,1095.0999756,2095.1000977,1095z"/>
		<path id="side-mirror.left_00000069366490673394420620000001999297000863172001_" d="M1986.5999756,1075.1999512
			c0,0-7.9000244-1.0999756-9.8000488-1.6999512c-0.9000244-0.3000488-1.5999756-2.9000244-1.5999756-3.8000488
			c0.0999756-0.9000244,0.5999756-1.5999756,1-2c1.8000488-1.5,6.6999512-2,8.9000244-1.9000244
			c0.5,0,1.5999756,0.5,1.9000244,0.9000244c0.5999756,1,0.0999756,4.6999512,0.0999756,4.6999512l2.6999512,4.3000488
			L1986.5999756,1075.1999512z"/>
		<path id="side-mirror.right_00000076579254548540879400000011344718653972534717_" d="M2097.6999512,1075.6999512
			l2.6999512-4.3000488c0,0-0.5-3.6999512,0.1000977-4.6999512c0.3000488-0.4000244,1.3999023-0.9000244,1.8999023-0.9000244
			c2.3000488-0.0999756,7.1999512,0.4000244,8.8999023,1.9000244c0.3999023,0.4000244,1,1.0999756,1,2
			c0.1000977,0.9000244-0.6999512,3.5-1.6000977,3.8000488c-1.8999023,0.5999756-9.8000488,1.6999512-9.8000488,1.6999512
			L2097.6999512,1075.6999512z"/>
		<path id="grill_00000085246312681144728020000013735304969145830284_" d="M2096.8999023,1130.0999756h-106.1999512
			c0,0-0.6999512-8.0999756,0.3000488-9.5c1.5999756-2.3000488,7.5-4.3000488,10.3000488-4.5999756
			c9.0999756-0.9000244,42.5999756-0.9000244,42.5999756-0.9000244S2077.3999023,1115,2086.5,1116
			c2.8000488,0.3000488,8.6999512,2.3000488,10.3000488,4.5999756
			C2097.6000977,1122,2096.8999023,1130.0999756,2096.8999023,1130.0999756z"/>
		<path id="frame_00000015347368548410546690000016530741044693404554_" d="M2002.5,1132.9000244
			c-17.4000244,0-23.4000244-0.8000488-25.9000244-4c-2-2.5-2.0999756-6.8000488-2.1999512-18.5999756
			c0-2.3000488,0-4.8000488-0.0999756-7.3000488c-0.0999756-6.5-0.1999512-12.6999512,0.9000244-17.3000488
			c2.1999512-8.4000244,8.5999756-13.5999756,17.3000488-14.1999512c1.3000488-3.6999512,3.4000244-8,5-11.1999512
			c7.4000244-14.6999512,13.4000244-15.5,24.0999756-15.8000488h1.5c10.5999756-0.3000488,30.6000977-0.3000488,41.1999512,0h1.5
			c10.6999512,0.3000488,16.6999512,1.0999756,24.1000977,15.8000488c1.6999512,3.4000244,3.8000488,7.5,5,11.1999512
			c8.6999512,0.5999756,15.1000977,5.8000488,17.3000488,14.1999512c1.1999512,4.5999756,1.1000977,10.6999512,0.8999023,17.3000488
			l0,0c0,2.5-0.1000977,5-0.1000977,7.3000488c-0.1000977,11.9000244-0.1999512,16.0999756-2.1999512,18.5999756
			c-2.8999023,3.6999512-10.1999512,4.1999512-34,4c-2.8000488,0-5.5,0-8,0h-50.5c-2.5,0-5.3000488,0-8,0
			C2007.5999756,1132.9000244,2004.9000244,1132.9000244,2002.5,1132.9000244z M2018.5999756,1123.8000488h50.5001221
			c2.6000977,0,5.3000488,0,8.1000977,0c8.5,0.0999756,22.3000488,0.1999512,26.6000977-0.9000244
			c0.3999023-2.5,0.3999023-8.0999756,0.3999023-12.8000488c0-2.4000244,0-4.9000244,0.1000977-7.4000244
			c0.1000977-5.9000244,0.1999512-11.5-0.6000977-14.8000488c-1.3000488-4.9000244-4.6000977-7.4000244-9.8000488-7.5
			c-3.3000488-0.0999756-6.1000977-2.1999512-7.1000977-5.4000244c-1-3.1999512-3.1000977-7.3000488-4.8000488-10.6999512
			c-5.3999023-10.5999756-7.5-10.6999512-16.3000488-10.9000244h-1.6000977
			c-10.3999023-0.3000488-30.1999512-0.3000488-40.5999756,0h-1.5999756c-8.9000244,0.1999512-11,0.3000488-16.3000488,10.9000244
			c-1.5999756,3.0999756-3.8000488,7.5-4.8000488,10.6999512c-1,3.0999756-3.8000488,5.3000488-7.0999756,5.3000488
			c-5.1999512,0.0999756-8.5,2.6999512-9.8000488,7.5c-0.9000244,3.4000244-0.8000488,9.1999512-0.6999512,14.8000488
			c0.0999756,2.5,0.0999756,5,0.0999756,7.4000244c0,4.6999512,0.0999756,10.3000488,0.4000244,12.8000488
			c4.3000488,1.0999756,18.0999756,1,26.5999756,0.9000244C2013.3000488,1123.9000244,2016,1123.8000488,2018.5999756,1123.8000488z
			"/>
		<path id="tire.left_00000142157859109187500950000011357885213720245633_" d="M1980.0999756,1126.5999756L1996.1999512,1129
			c0,0,0.0999756,7.4000244-0.6999512,7.4000244c-6.8000488,0-13.1999512,0-17.5,0
			c-0.6999512,0-1.8000488-0.3000488-2.0999756-0.9000244c-1.3000488-2.6999512-1.1999512-13.9000244-1.1999512-13.9000244
			L1980.0999756,1126.5999756z"/>
		<path id="tire.right_00000039820406730277144490000000000546212399341195_" d="M2112.8000488,1121.5999756
			c0,0,0.1000977,11.1999512-1.1999512,13.9000244c-0.3000488,0.5999756-1.3999023,0.9000244-2.1000977,0.9000244
			c-4.3000488,0-10.6999512,0-17.5,0c-0.8000488,0-0.6999512-7.4000244-0.6999512-7.4000244l16.1000977-2.4000244
			L2112.8000488,1121.5999756z"/>
	</g>
	<g id="Medium-M">
		<path id="headlight.left_00000106124553470611410140000009380722217575275651_" d="M1695.5,1095
			c2.4000244-0.0999756,13.9000244,0.9000244,18.5999756,1.4000244C1715.4000244,1096.5,1719,1097.7000732,1719,1097.7000732
			s-7.0999756-9-10.1999512-10.6999512c-2.1999512-1.1999512-7.3000488-1.6999512-9.8000488-1.8000488
			c-1.0999756,0-3.3000488-0.3000488-4.4000244,0c-0.5,0.1999512-1.5999756,0.6999512-2,1.0999756
			c-0.8000488,0.9000244-1.5,2.5999756-1.6999512,3.5999756c-0.6999512,3.4000244-0.6999512,6.8000488-0.5,10.9000244
			c0.1999512,3.0999756,1.0999756,9.5999756,1.9000244,12.3000488c0.0999756,0.4000244,0.6999512,1.1999512,1.0999756,1.4000244
			c0.6999512,0.4000244,1.0999756,0.1999512,1.5999756-0.1999512c0.3000488-0.3000488,0.9000244-0.6999512,0.8000488-1.1999512
			c-0.3000488-3-1.4000244-9-1.5-12.4000244c0-1.3000488-0.3000488-4,0.0999756-5
			C1694.5999756,1095.4000244,1695.0999756,1095.0999756,1695.5,1095z"/>
		<path id="headlight.right_00000058568129546365369310000016035917804485221515_" d="M1798.0999756,1095
			c-2.4000244-0.0999756-13.9000244,0.9000244-18.5999756,1.4000244c-1.3000488,0.0999756-4.9000244,1.3000488-4.9000244,1.3000488
			s7.0999756-9,10.1999512-10.6999512c2.1999512-1.1999512,7.3000488-1.6999512,9.8000488-1.8000488
			c1.0999756,0,3.3000488-0.3000488,4.4000244,0c0.5,0.1999512,1.5999756,0.6999512,2,1.0999756
			c0.8000488,0.9000244,1.5,2.5999756,1.6999512,3.5999756c0.6999512,3.4000244,0.6999512,6.8000488,0.5,10.9000244
			c-0.1999512,3.0999756-1.0999756,9.5999756-1.9000244,12.3000488c-0.0999756,0.4000244-0.6999512,1.1999512-1.0999756,1.4000244
			c-0.6999512,0.4000244-1.0999756,0.1999512-1.5999756-0.1999512c-0.3000488-0.3000488-0.9000244-0.6999512-0.8000488-1.1999512
			c0.3000488-3,1.4000244-9,1.5-12.4000244c0-1.3000488,0.3000488-4-0.0999756-5
			C1799.0999756,1095.4000244,1798.5,1095.0999756,1798.0999756,1095z"/>
		<path id="side-mirror.left_00000013162078664265966050000014199744137284617896_" d="M1689.5999756,1075.5
			c0,0-7.9000244-1.0999756-9.8000488-1.6999512c-0.9000244-0.3000488-1.5999756-2.9000244-1.5999756-3.8000488
			c0.0999756-0.9000244,0.5999756-1.5999756,1-2c1.8000488-1.5,6.6999512-2,8.9000244-1.9000244
			c0.5,0,1.5999756,0.5,1.9000244,0.9000244c0.5999756,1,0.0999756,4.6999512,0.0999756,4.6999512L1692.7999268,1076
			L1689.5999756,1075.5z"/>
		<path id="side-mirror.right_00000074403494692128295370000014932326562212343709_" d="M1800.6999512,1076l2.6999512-4.3000488
			c0,0-0.5-3.6999512,0.0999756-4.6999512c0.3000488-0.4000244,1.4000244-0.9000244,1.9000244-0.9000244
			C1807.6999512,1066,1812.5998535,1066.5,1814.2999268,1068c0.4000244,0.4000244,1,1.0999756,1,2
			c0.0999756,0.9000244-0.6999512,3.5-1.5999756,3.8000488c-1.9000244,0.5999756-9.8000488,1.6999512-9.8000488,1.6999512
			L1800.6999512,1076z"/>
		<path id="grill_00000163752157834727398350000014621957577837595805_" d="M1799.9000244,1130.0999756h-106.1999512
			c0,0-0.6999512-8.0999756,0.3000488-9.5c1.5999756-2.3000488,7.5-4.3000488,10.3000488-4.5999756
			c9.0999756-0.9000244,42.5999756-0.9000244,42.5999756-0.9000244s33.5-0.0999756,42.5999756,0.9000244
			c2.8000488,0.3000488,8.6999512,2.3000488,10.3000488,4.5999756
			C1800.6999512,1122,1799.9000244,1130.0999756,1799.9000244,1130.0999756z"/>
		<path id="frame_00000150072942441466415910000007357925362878524841_" d="M1788.3000488,1132.4000244
			c-2.5,0-5.1999512,0-8.1999512,0c-2.8000488,0-5.5,0-8,0h-50.5c-2.5,0-5.3000488,0-8,0
			c-23.5,0.1999512-30.8000488-0.3000488-33.5999756-3.8000488c-1.8000488-2.3000488-2-6.4000244-2.0999756-18.3000488
			c0-2.3000488,0-4.8000488-0.0999756-7.3000488c-0.0999756-6.5-0.1999512-12.5999756,0.9000244-17.0999756
			c3-11.6999512,12.5999756-13.5999756,17.1999512-13.9000244c1.3000488-3.8000488,3.5-8.1999512,5.0999756-11.4000244
			c7.3000488-14.4000244,13.0999756-15.3000488,23.6999512-15.5h1.5c10.5999756-0.3000488,30.5999756-0.3000488,41.1999512,0h1.5
			c10.5,0.3000488,16.4000244,1.0999756,23.6999512,15.5c1.8000488,3.5,3.9000244,7.6999512,5.0999756,11.4000244
			c4.5999756,0.1999512,14.0999756,2.1999512,17.1999512,13.9000244c1.1999512,4.5,1,10.5999756,0.9000244,17.1999512l0,0
			c0,2.5-0.0999756,5-0.0999756,7.3000488c-0.0999756,11.9000244-0.3000488,16-2.0999756,18.3000488
			C1811.3000488,1131.6999512,1805.4000244,1132.4000244,1788.3000488,1132.4000244z M1721.5999756,1124.3000488h50.5
			c2.5999756,0,5.3000488,0,8.0999756,0c8.8000488,0.0999756,23.0999756,0.1999512,27.0999756-1
			c0.4000244-2.4000244,0.5-8.3000488,0.5-13.1999512c0-2.4000244,0-4.9000244,0.0999756-7.4000244l0,0
			c0.0999756-5.9000244,0.1999512-11.5999756-0.6999512-15c-1.3000488-5.0999756-4.8000488-7.8000488-10.3000488-7.9000244
			c-3-0.0999756-5.6999512-2.0999756-6.5999756-5c-1-3.1999512-3.0999756-7.4000244-4.8000488-10.6999512
			c-5.5-10.9000244-7.9000244-11-16.8000488-11.1999512h-1.5999756c-10.5-0.3000488-30.1999512-0.3000488-40.6999512,0h-1.5999756
			c-8.9000244,0.1999512-11.3000488,0.3000488-16.6999512,11.0999756c-1.5999756,3.1999512-3.8000488,7.5-4.8000488,10.8000488
			c-0.9000244,2.9000244-3.5999756,4.9000244-6.5999756,5c-5.5,0.0999756-8.9000244,2.8000488-10.3000488,7.9000244
			c-0.9000244,3.4000244-0.8000488,9.3000488-0.6999512,15c0.0999756,2.5,0.0999756,5,0.0999756,7.4000244
			c0,4.9000244,0.0999756,10.9000244,0.5,13.1999512c4,1.1999512,18.3000488,1.0999756,27.0999756,1
			C1716.3000488,1124.4000244,1719,1124.3000488,1721.5999756,1124.3000488z"/>
		<path id="tire.left_00000093863501556776467430000014714732364625658026_" d="M1684.0999756,1126.5999756L1700.1999512,1129
			c0,0,0.0999756,7.4000244-0.6999512,7.4000244c-6.8000488,0-13.1999512,0-17.5,0
			c-0.6999512,0-1.8000488-0.3000488-2.0999756-0.9000244c-1.3000488-2.6999512-1.1999512-13.9000244-1.1999512-13.9000244
			L1684.0999756,1126.5999756z"/>
		<path id="tire.right_00000121264443317549395260000016497165682527789723_" d="M1815,1121.5999756
			c0,0,0.0999756,11.1999512-1.1999512,13.9000244c-0.3000488,0.5999756-1.4000244,0.9000244-2.0999756,0.9000244
			c-4.3000488,0-10.6999512,0-17.5,0c-0.8000488,0-0.6999512-7.4000244-0.6999512-7.4000244l16.0999756-2.4000244L1815,1121.5999756
			z"/>
	</g>
	<g id="Regular-M">
		<path id="headlight.left" d="M1398.5,1095c2.4000244-0.0999756,13.9000244,0.9000244,18.5999756,1.4000244
			C1418.4000244,1096.5,1422,1097.7000732,1422,1097.7000732s-7.0999756-9-10.1999512-10.6999512
			c-2.1999512-1.1999512-7.3000488-1.6999512-9.8000488-1.8000488c-1.0999756,0-3.3000488-0.3000488-4.4000244,0
			c-0.5,0.1999512-1.5999756,0.6999512-2,1.0999756c-0.8000488,0.9000244-1.5,2.5999756-1.6999512,3.5999756
			c-0.6999512,3.4000244-0.6999512,6.8000488-0.5,10.9000244c0.1999512,3.0999756,1.0999756,9.5999756,1.9000244,12.3000488
			c0.0999756,0.4000244,0.6999512,1.1999512,1.0999756,1.4000244c0.6999512,0.4000244,1.0999756,0.1999512,1.5999756-0.1999512
			c0.3000488-0.3000488,0.9000244-0.6999512,0.8000488-1.1999512c-0.3000488-3-1.4000244-9-1.5-12.4000244
			c0-1.3000488-0.3000488-4,0.0999756-5C1397.5999756,1095.4000244,1398.0999756,1095.0999756,1398.5,1095z"/>
		<path id="headlight.right" d="M1501.0999756,1095c-2.4000244-0.0999756-13.9000244,0.9000244-18.5999756,1.4000244
			c-1.3000488,0.0999756-4.9000244,1.3000488-4.9000244,1.3000488s7.0999756-9,10.1999512-10.6999512
			c2.1999512-1.1999512,7.3000488-1.6999512,9.8000488-1.8000488c1.0999756,0,3.3000488-0.3000488,4.4000244,0
			c0.5,0.1999512,1.5999756,0.6999512,2,1.0999756c0.8000488,0.9000244,1.5,2.5999756,1.6999512,3.5999756
			c0.6999512,3.4000244,0.6999512,6.8000488,0.5,10.9000244c-0.1999512,3.0999756-1.0999756,9.5999756-1.9000244,12.3000488
			c-0.0999756,0.4000244-0.6999512,1.1999512-1.0999756,1.4000244c-0.6999512,0.4000244-1.0999756,0.1999512-1.5999756-0.1999512
			c-0.3000488-0.3000488-0.9000244-0.6999512-0.8000488-1.1999512c0.3000488-3,1.4000244-9,1.5-12.4000244
			c0-1.3000488,0.3000488-4-0.0999756-5C1502.0999756,1095.4000244,1501.5,1095.0999756,1501.0999756,1095z"/>
		<path id="side-mirror.left" d="M1393.5999756,1076.5c0,0-7.9000244-1.0999756-9.8000488-1.6999512
			c-0.9000244-0.3000488-1.5999756-2.9000244-1.5999756-3.8000488c0.0999756-0.9000244,0.5999756-1.5999756,1-2
			c1.8000488-1.5,6.6999512-2,8.9000244-1.9000244c0.5,0,1.5999756,0.5,1.9000244,0.9000244
			c0.5999756,1,0.0999756,4.6999512,0.0999756,4.6999512L1396.7999268,1077L1393.5999756,1076.5z"/>
		<path id="side-mirror.right" d="M1502.6999512,1077l2.6999512-4.3000488c0,0-0.5-3.6999512,0.0999756-4.6999512
			c0.3000488-0.4000244,1.4000244-0.9000244,1.9000244-0.9000244C1509.6999512,1067,1514.5998535,1067.5,1516.2999268,1069
			c0.4000244,0.4000244,1,1.0999756,1,2c0.0999756,0.9000244-0.6999512,3.5-1.5999756,3.8000488
			c-1.9000244,0.5999756-9.8000488,1.6999512-9.8000488,1.6999512L1502.6999512,1077z"/>
		<path id="grill" d="M1502.9000244,1130.0999756h-106.1999512c0,0-0.6999512-8.0999756,0.3000488-9.5
			c1.5999756-2.3000488,7.5-4.3000488,10.3000488-4.5999756c9.0999756-0.9000244,42.5999756-0.9000244,42.5999756-0.9000244
			s33.5-0.0999756,42.5999756,0.9000244c2.8000488,0.3000488,8.6999512,2.3000488,10.3000488,4.5999756
			C1503.6999512,1122,1502.9000244,1130.0999756,1502.9000244,1130.0999756z"/>
		<path id="frame" d="M1491.3000488,1131.4000244c-2.5,0-5.1999512,0-8.1999512,0c-2.8000488,0-5.5,0-8.0999756,0h-50.4000244
			c-2.5,0-5.3000488,0-8.0999756,0c-22.8000488,0.1999512-30.3000488-0.1999512-32.8000488-3.4000244
			c-1.5999756-2.0999756-1.8000488-6-1.9000244-17.6999512c0-2.3000488,0-4.8000488-0.0999756-7.3000488
			c-0.0999756-6.4000244-0.1999512-12.5,0.9000244-16.9000244c3-11.5999756,12.8000488-13,16.9000244-13.0999756
			c0.0999756,0,0.0999756-0.0999756,0.0999756-0.0999756c1.1999512-3.8000488,3.5-8.5,5.1999512-11.8000488
			c7-14,12.4000244-14.6999512,22.8000488-15h1.5999756c10.5999756-0.3000488,30.5-0.3000488,41.0999756,0h1.5999756
			c10.4000244,0.3000488,15.8000488,1,22.8000488,15c1.8000488,3.5999756,4.0999756,8.0999756,5.3000488,11.8000488
			c0,0,0,0.0999756,0.0999756,0.0999756c4.0999756,0.0999756,13.9000244,1.5999756,16.9000244,13.0999756
			c1.0999756,4.3000488,1,10.4000244,0.9000244,16.9000244l0,0c-0.0999756,2.5-0.0999756,5-0.0999756,7.4000244
			c-0.0999756,11.6999512-0.3000488,15.5999756-1.9000244,17.6999512
			C1513.6999512,1130.6999512,1507.8000488,1131.4000244,1491.3000488,1131.4000244z M1424.5999756,1125.3000488H1475
			c2.5,0,5.3000488,0,8.0999756,0c9.3000488,0.0999756,24.6999512,0.1999512,28-1.1999512
			c0.5-2,0.5999756-8.5999756,0.5999756-13.9000244c0-2.4000244,0-4.9000244,0.0999756-7.4000244l0,0
			c0.0999756-6,0.1999512-11.6999512-0.6999512-15.1999512c-1.8000488-7-7.0999756-8.5999756-11.1999512-8.5999756
			c-2.5999756-0.0999756-4.9000244-1.8000488-5.6999512-4.3000488c-1-3.3000488-3.1999512-7.5-4.9000244-10.9000244
			c-5.8000488-11.4000244-8.5-11.5-17.5999756-11.6999512h-1.5999756c-10.5-0.3000488-30.3000488-0.3000488-40.6999512,0h-1.5999756
			c-9.0999756,0.1999512-11.9000244,0.3000488-17.5999756,11.6999512c-1.5999756,3.1999512-3.8000488,7.5999756-4.9000244,11
			c-0.8000488,2.5-3.0999756,4.1999512-5.6999512,4.3000488c-4.0999756,0.0999756-9.4000244,1.6999512-11.1999512,8.5999756
			c-0.9000244,3.5999756-0.8000488,9.1999512-0.6999512,15.1999512c0.0999756,2.5,0.0999756,5,0.0999756,7.4000244
			c0,5.4000244,0.0999756,12,0.5999756,14c3.3000488,1.4000244,18.6999512,1.3000488,28,1.1999512
			C1419.3000488,1125.4000244,1422.0999756,1125.3000488,1424.5999756,1125.3000488z"/>
		<path id="tire.left" d="M1388.0999756,1126.5999756L1404.1999512,1129c0,0,0.0999756,7.4000244-0.6999512,7.4000244
			c-6.8000488,0-13.1999512,0-17.5,0c-0.6999512,0-1.8000488-0.3000488-2.0999756-0.9000244
			c-1.3000488-2.6999512-1.1999512-13.9000244-1.1999512-13.9000244L1388.0999756,1126.5999756z"/>
		<path id="tire.right" d="M1517,1121.5999756c0,0,0.0999756,11.1999512-1.1999512,13.9000244
			c-0.3000488,0.5999756-1.4000244,0.9000244-2.0999756,0.9000244c-4.3000488,0-10.6999512,0-17.5,0
			c-0.8000488,0-0.6999512-7.4000244-0.6999512-7.4000244l16.0999756-2.4000244L1517,1121.5999756z"/>
	</g>
</g>
</svg>
