<?xml version="1.0" encoding="UTF-8"?>
<!--Generator: Apple Native CoreSVG 175.5-->
<!DOCTYPE svg
PUBLIC "-//W3C//DTD SVG 1.1//EN"
       "http://www.w3.org/Graphics/SVG/1.1/DTD/svg11.dtd">
<svg version="1.1" xmlns="http://www.w3.org/2000/svg" xmlns:xlink="http://www.w3.org/1999/xlink" width="3300" height="2200">
 <!--glyph: "", point size: 100.0, font version: "18.0d11e1", template writer version: "90"-->
 <style/>
 <g id="Notes">
  <rect height="2200" id="artboard" style="fill:white;opacity:1" width="3300" x="0" y="0"/>
  <line style="fill:none;stroke:black;opacity:1;stroke-width:0.5;" x1="263" x2="3036" y1="292" y2="292"/>
  <text style="stroke:none;fill:black;font-family:sans-serif;font-size:13;font-weight:bold;" transform="matrix(1 0 0 1 263 322)">Weight/Scale Variations</text>
  <text style="stroke:none;fill:black;font-family:sans-serif;font-size:13;text-anchor:middle;" transform="matrix(1 0 0 1 559.711 322)">Ultralight</text>
  <text style="stroke:none;fill:black;font-family:sans-serif;font-size:13;text-anchor:middle;" transform="matrix(1 0 0 1 856.422 322)">Thin</text>
  <text style="stroke:none;fill:black;font-family:sans-serif;font-size:13;text-anchor:middle;" transform="matrix(1 0 0 1 1153.13 322)">Light</text>
  <text style="stroke:none;fill:black;font-family:sans-serif;font-size:13;text-anchor:middle;" transform="matrix(1 0 0 1 1449.84 322)">Regular</text>
  <text style="stroke:none;fill:black;font-family:sans-serif;font-size:13;text-anchor:middle;" transform="matrix(1 0 0 1 1746.56 322)">Medium</text>
  <text style="stroke:none;fill:black;font-family:sans-serif;font-size:13;text-anchor:middle;" transform="matrix(1 0 0 1 2043.27 322)">Semibold</text>
  <text style="stroke:none;fill:black;font-family:sans-serif;font-size:13;text-anchor:middle;" transform="matrix(1 0 0 1 2339.98 322)">Bold</text>
  <text style="stroke:none;fill:black;font-family:sans-serif;font-size:13;text-anchor:middle;" transform="matrix(1 0 0 1 2636.69 322)">Heavy</text>
  <text style="stroke:none;fill:black;font-family:sans-serif;font-size:13;text-anchor:middle;" transform="matrix(1 0 0 1 2933.4 322)">Black</text>
  <line style="fill:none;stroke:black;opacity:1;stroke-width:0.5;" x1="263" x2="3036" y1="1903" y2="1903"/>
  <g transform="matrix(1 0 0 1 263 1933)">
   <path d="M9.24805 0.830078C13.5547 0.830078 17.1387-2.74414 17.1387-7.05078C17.1387-11.3574 13.5449-14.9316 9.23828-14.9316C4.94141-14.9316 1.36719-11.3574 1.36719-7.05078C1.36719-2.74414 4.95117 0.830078 9.24805 0.830078ZM9.24805-0.654297C5.70312-0.654297 2.87109-3.49609 2.87109-7.05078C2.87109-10.6055 5.69336-13.4473 9.23828-13.4473C12.793-13.4473 15.6445-10.6055 15.6445-7.05078C15.6445-3.49609 12.8027-0.654297 9.24805-0.654297ZM5.6543-7.05078C5.6543-6.62109 5.95703-6.32812 6.40625-6.32812L8.50586-6.32812L8.50586-4.20898C8.50586-3.76953 8.79883-3.4668 9.22852-3.4668C9.67773-3.4668 9.9707-3.76953 9.9707-4.20898L9.9707-6.32812L12.0898-6.32812C12.5293-6.32812 12.832-6.62109 12.832-7.05078C12.832-7.49023 12.5293-7.79297 12.0898-7.79297L9.9707-7.79297L9.9707-9.90234C9.9707-10.3516 9.67773-10.6543 9.22852-10.6543C8.79883-10.6543 8.50586-10.3516 8.50586-9.90234L8.50586-7.79297L6.40625-7.79297C5.95703-7.79297 5.6543-7.49023 5.6543-7.05078Z"/>
  </g>
  <g transform="matrix(1 0 0 1 281.867 1933)">
   <path d="M11.709 2.91016C17.1582 2.91016 21.6699-1.61133 21.6699-7.05078C21.6699-12.5 17.1484-17.0117 11.6992-17.0117C6.25977-17.0117 1.74805-12.5 1.74805-7.05078C1.74805-1.61133 6.26953 2.91016 11.709 2.91016ZM11.709 1.25C7.09961 1.25 3.41797-2.44141 3.41797-7.05078C3.41797-11.6602 7.08984-15.3516 11.6992-15.3516C16.3086-15.3516 20.0098-11.6602 20.0098-7.05078C20.0098-2.44141 16.3184 1.25 11.709 1.25ZM7.17773-7.05078C7.17773-6.57227 7.50977-6.25 8.00781-6.25L10.8789-6.25L10.8789-3.36914C10.8789-2.88086 11.2109-2.53906 11.6895-2.53906C12.1777-2.53906 12.5195-2.87109 12.5195-3.36914L12.5195-6.25L15.4004-6.25C15.8887-6.25 16.2305-6.57227 16.2305-7.05078C16.2305-7.53906 15.8887-7.88086 15.4004-7.88086L12.5195-7.88086L12.5195-10.752C12.5195-11.25 12.1777-11.5918 11.6895-11.5918C11.2109-11.5918 10.8789-11.25 10.8789-10.752L10.8789-7.88086L8.00781-7.88086C7.50977-7.88086 7.17773-7.53906 7.17773-7.05078Z"/>
  </g>
  <g transform="matrix(1 0 0 1 305.646 1933)">
   <path d="M14.9707 5.66406C21.9336 5.66406 27.6953-0.0976562 27.6953-7.05078C27.6953-14.0137 21.9238-19.7754 14.9609-19.7754C8.00781-19.7754 2.25586-14.0137 2.25586-7.05078C2.25586-0.0976562 8.01758 5.66406 14.9707 5.66406ZM14.9707 3.84766C8.93555 3.84766 4.08203-1.01562 4.08203-7.05078C4.08203-13.0957 8.92578-17.9492 14.9609-17.9492C21.0059-17.9492 25.8691-13.0957 25.8691-7.05078C25.8691-1.01562 21.0156 3.84766 14.9707 3.84766ZM9.19922-7.05078C9.19922-6.5332 9.57031-6.17188 10.1172-6.17188L14.0625-6.17188L14.0625-2.2168C14.0625-1.67969 14.4336-1.29883 14.9512-1.29883C15.4883-1.29883 15.8594-1.66992 15.8594-2.2168L15.8594-6.17188L19.8145-6.17188C20.3516-6.17188 20.7324-6.5332 20.7324-7.05078C20.7324-7.59766 20.3613-7.96875 19.8145-7.96875L15.8594-7.96875L15.8594-11.9141C15.8594-12.4609 15.4883-12.8418 14.9512-12.8418C14.4336-12.8418 14.0625-12.4609 14.0625-11.9141L14.0625-7.96875L10.1172-7.96875C9.57031-7.96875 9.19922-7.59766 9.19922-7.05078Z"/>
  </g>
  <text style="stroke:none;fill:black;font-family:sans-serif;font-size:13;font-weight:bold;" transform="matrix(1 0 0 1 263 1953)">Design Variations</text>
  <text style="stroke:none;fill:black;font-family:sans-serif;font-size:13;" transform="matrix(1 0 0 1 263 1971)">Symbols are supported in up to nine weights and three scales.</text>
  <text style="stroke:none;fill:black;font-family:sans-serif;font-size:13;" transform="matrix(1 0 0 1 263 1989)">For optimal layout with text and other symbols, vertically align</text>
  <text style="stroke:none;fill:black;font-family:sans-serif;font-size:13;" transform="matrix(1 0 0 1 263 2007)">symbols with the adjacent text.</text>
  <line style="fill:none;stroke:#00AEEF;stroke-width:0.5;opacity:1.0;" x1="776" x2="776" y1="1919" y2="1933"/>
  <g transform="matrix(1 0 0 1 776 1933)">
   <path d="M3.31055 0.15625C3.82812 0.15625 4.08203-0.0390625 4.26758-0.585938L5.52734-4.0332L11.2891-4.0332L12.5488-0.585938C12.7344-0.0390625 12.9883 0.15625 13.4961 0.15625C14.0137 0.15625 14.3457-0.15625 14.3457-0.644531C14.3457-0.810547 14.3164-0.966797 14.2383-1.17188L9.6582-13.3691C9.43359-13.9648 9.0332-14.2676 8.4082-14.2676C7.80273-14.2676 7.39258-13.9746 7.17773-13.3789L2.59766-1.16211C2.51953-0.957031 2.49023-0.800781 2.49023-0.634766C2.49023-0.146484 2.80273 0.15625 3.31055 0.15625ZM6.00586-5.51758L8.37891-12.0898L8.42773-12.0898L10.8008-5.51758Z"/>
  </g>
  <line style="fill:none;stroke:#00AEEF;stroke-width:0.5;opacity:1.0;" x1="793.197" x2="793.197" y1="1919" y2="1933"/>
  <text style="stroke:none;fill:black;font-family:sans-serif;font-size:13;font-weight:bold;" transform="matrix(1 0 0 1 776 1953)">Margins</text>
  <text style="stroke:none;fill:black;font-family:sans-serif;font-size:13;" transform="matrix(1 0 0 1 776 1971)">Leading and trailing margins on the left and right side of each symbol</text>
  <text style="stroke:none;fill:black;font-family:sans-serif;font-size:13;" transform="matrix(1 0 0 1 776 1989)">can be adjusted by modifying the x-location of the margin guidelines.</text>
  <text style="stroke:none;fill:black;font-family:sans-serif;font-size:13;" transform="matrix(1 0 0 1 776 2007)">Modifications are automatically applied proportionally to all</text>
  <text style="stroke:none;fill:black;font-family:sans-serif;font-size:13;" transform="matrix(1 0 0 1 776 2025)">scales and weights.</text>
  <g transform="matrix(1 0 0 1 1289 1933)">
   <path d="M2.8418 1.86523L4.54102 3.57422C5.40039 4.44336 6.38672 4.38477 7.31445 3.35938L18.0078-8.42773L17.041-9.4043L6.42578 2.27539C6.07422 2.67578 5.74219 2.77344 5.27344 2.30469L4.10156 1.14258C3.63281 0.683594 3.74023 0.341797 4.14062-0.0195312L15.6152-10.8203L14.6387-11.7871L3.04688-0.898438C2.06055 0.0195312 1.98242 0.996094 2.8418 1.86523ZM9.25781-16.3281C8.83789-15.918 8.80859-15.3418 9.04297-14.9512C9.27734-14.5898 9.73633-14.3555 10.3809-14.5215C11.8457-14.8633 13.3691-14.9219 14.7949-13.9844L14.209-12.5293C13.8672-11.6992 14.043-11.1133 14.5801-10.5664L16.875-8.25195C17.3633-7.76367 17.7734-7.74414 18.3398-7.8418L19.4043-8.03711L20.0684-7.36328L20.0293-6.80664C19.9902-6.30859 20.1172-5.92773 20.6055-5.44922L21.3672-4.70703C21.8457-4.22852 22.4609-4.19922 22.9297-4.66797L25.8398-7.58789C26.3086-8.05664 26.2891-8.65234 25.8105-9.13086L25.0391-9.89258C24.5605-10.3711 24.1895-10.5273 23.7109-10.4883L23.1348-10.4395L22.4902-11.0742L22.7344-12.1973C22.8613-12.7637 22.7051-13.2031 22.1191-13.7891L19.9219-15.9766C16.582-19.2969 12.1484-19.2188 9.25781-16.3281ZM10.752-15.957C13.1836-17.7344 16.4746-17.4316 18.7012-15.2051L21.1328-12.793C21.3672-12.5586 21.4062-12.373 21.3379-12.0312L21.0156-10.5469L22.5195-9.0625L23.5059-9.12109C23.7598-9.13086 23.8379-9.11133 24.0332-8.91602L24.6094-8.33984L22.168-5.89844L21.5918-6.47461C21.3965-6.66992 21.3672-6.74805 21.377-7.01172L21.4453-7.98828L19.9512-9.47266L18.4277-9.21875C18.1055-9.15039 17.959-9.17969 17.7148-9.41406L15.7129-11.416C15.459-11.6504 15.4297-11.8164 15.5859-12.1875L16.4648-14.2773C14.9023-15.7324 12.8711-16.3574 10.8398-15.7617C10.6836-15.7227 10.625-15.8496 10.752-15.957Z"/>
  </g>
  <text style="stroke:none;fill:black;font-family:sans-serif;font-size:13;font-weight:bold;" transform="matrix(1 0 0 1 1289 1953)">Exporting</text>
  <text style="stroke:none;fill:black;font-family:sans-serif;font-size:13;" transform="matrix(1 0 0 1 1289 1971)">Symbols should be outlined when exporting to ensure the</text>
  <text style="stroke:none;fill:black;font-family:sans-serif;font-size:13;" transform="matrix(1 0 0 1 1289 1989)">design is preserved when submitting to Xcode.</text>
  <text id="template-version" style="stroke:none;fill:black;font-family:sans-serif;font-size:13;text-anchor:end;" transform="matrix(1 0 0 1 3036 1933)">Template v.4.0</text>
  <text style="stroke:none;fill:black;font-family:sans-serif;font-size:13;text-anchor:end;" transform="matrix(1 0 0 1 3036 1951)">Requires Xcode 14 or greater</text>
  <text id="descriptive-name" style="stroke:none;fill:black;font-family:sans-serif;font-size:13;text-anchor:end;" transform="matrix(1 0 0 1 3036 1969)">Generated from car-modified</text>
  <text style="stroke:none;fill:black;font-family:sans-serif;font-size:13;text-anchor:end;" transform="matrix(1 0 0 1 3036 1987)">Typeset at 100 points</text>
  <text style="stroke:none;fill:black;font-family:sans-serif;font-size:13;" transform="matrix(1 0 0 1 263 726)">Small</text>
  <text style="stroke:none;fill:black;font-family:sans-serif;font-size:13;" transform="matrix(1 0 0 1 263 1156)">Medium</text>
  <text style="stroke:none;fill:black;font-family:sans-serif;font-size:13;" transform="matrix(1 0 0 1 263 1586)">Large</text>
 </g>
 <g id="Guides">
  <g id="H-reference" style="fill:#27AAE1;stroke:none;" transform="matrix(1 0 0 1 339 696)">
   <path d="M0.993654 0L3.63775 0L29.3281-67.1323L30.0303-67.1323L30.0303-70.459L28.1226-70.459ZM11.6885-24.4799L46.9815-24.4799L46.2315-26.7285L12.4385-26.7285ZM55.1196 0L57.7637 0L30.6382-70.459L29.4326-70.459L29.4326-67.1323Z"/>
  </g>
  <line id="Baseline-S" style="fill:none;stroke:#27AAE1;opacity:1;stroke-width:0.5;" x1="263" x2="3036" y1="696" y2="696"/>
  <line id="Capline-S" style="fill:none;stroke:#27AAE1;opacity:1;stroke-width:0.5;" x1="263" x2="3036" y1="625.541" y2="625.541"/>
  <g id="H-reference" style="fill:#27AAE1;stroke:none;" transform="matrix(1 0 0 1 339 1126)">
   <path d="M0.993654 0L3.63775 0L29.3281-67.1323L30.0303-67.1323L30.0303-70.459L28.1226-70.459ZM11.6885-24.4799L46.9815-24.4799L46.2315-26.7285L12.4385-26.7285ZM55.1196 0L57.7637 0L30.6382-70.459L29.4326-70.459L29.4326-67.1323Z"/>
  </g>
  <line id="Baseline-M" style="fill:none;stroke:#27AAE1;opacity:1;stroke-width:0.5;" x1="263" x2="3036" y1="1126" y2="1126"/>
  <line id="Capline-M" style="fill:none;stroke:#27AAE1;opacity:1;stroke-width:0.5;" x1="263" x2="3036" y1="1055.54" y2="1055.54"/>
  <g id="H-reference" style="fill:#27AAE1;stroke:none;" transform="matrix(1 0 0 1 339 1556)">
   <path d="M0.993654 0L3.63775 0L29.3281-67.1323L30.0303-67.1323L30.0303-70.459L28.1226-70.459ZM11.6885-24.4799L46.9815-24.4799L46.2315-26.7285L12.4385-26.7285ZM55.1196 0L57.7637 0L30.6382-70.459L29.4326-70.459L29.4326-67.1323Z"/>
  </g>
  <line id="Baseline-L" style="fill:none;stroke:#27AAE1;opacity:1;stroke-width:0.5;" x1="263" x2="3036" y1="1556" y2="1556"/>
  <line id="Capline-L" style="fill:none;stroke:#27AAE1;opacity:1;stroke-width:0.5;" x1="263" x2="3036" y1="1485.54" y2="1485.54"/>
  <line id="left-margin-Regular-M" style="fill:none;stroke:#00AEEF;stroke-width:0.5;opacity:1.0;" x1="1379.75" x2="1379.75" y1="1030.73" y2="1150.14"/>
  <line id="right-margin-Regular-M" style="fill:none;stroke:#00AEEF;stroke-width:0.5;opacity:1.0;" x1="1519.93" x2="1519.93" y1="1030.73" y2="1150.14"/>
 </g>
 <g id="Symbols">
  <g id="Black-L" transform="matrix(1 0 0 1 2837.65 1556)">
   <path d="M52-61.8C51.1-58.3 52.7-56.1 56.6-56.2C63.3-56.4 74-57 95.7-57C117.3-57 128-56.5 134.8-56.2C138.7-56.1 140.2-58.3 139.4-61.8C138.5-65.8 136.6-71.6 135.4-73.9C133.4-78 130.7-79.4 125.9-80.1C122.6-80.6 112.5-80.8 95.8-80.8C79.1-80.8 69-80.6 65.7-80.1C60.9-79.4 58.2-77.9 56.2-73.9C54.8-71.6 52.9-65.8 52-61.8ZM49.6-13.3C56.4-13.3 61.5-18.4 61.5-25.2C61.5-32 56.4-37.1 49.6-37.1C42.8-37.1 37.7-32 37.7-25.2C37.7-18.5 42.8-13.3 49.6-13.3ZM77.4-16.4L113.7-16.4C118.8-16.4 122.4-20.1 122.4-25.1C122.4-30.2 118.8-33.8 113.7-33.8L77.4-33.8C72.3-33.8 68.7-30.2 68.7-25.1C68.7-20.1 72.4-16.4 77.4-16.4ZM141.6-13.3C148.4-13.3 153.5-18.4 153.5-25.2C153.5-32 148.4-37.1 141.6-37.1C134.8-37.1 129.7-32 129.7-25.2C129.7-18.5 134.9-13.3 141.6-13.3ZM95.6 8.9C118.3 8.9 146.8 7.8 158.9 6.4C169.9 5.1 176.5-1.6 176.5-12.1L176.5-23.2C176.5-35.7 175.1-42.9 168.6-50.5L162.3-58C159.9-69.3 155.7-81.2 153.5-85.9C149.5-94.3 142-99.5 132.1-100.8C126.6-101.5 113.9-102 95.7-102C77.4-102 64.8-101.5 59.3-100.8C49.5-99.5 41.8-94.3 37.9-85.9C35.7-81.2 31.5-69.3 29.1-58L22.7-50.5C16.2-42.8 14.8-35.7 14.8-23.2L14.8-12.1C14.8-1.6 21.4 5.2 32.4 6.4C44.4 7.8 72.9 8.9 95.6 8.9ZM95.6-7.2C73.4-7.2 48.6-8.3 38-9.5C32.6-10.1 30.3-12.7 30.3-17.5L30.3-25.5C30.3-33.6 32.5-37.7 35.6-41.8L43.5-52.2C44.7-58.4 48.6-72.6 51.1-77.8C53.4-82.5 57.5-84.7 62.4-85.4C67.5-86.1 78.5-86.6 95.6-86.6C112.8-86.6 123.8-86 128.8-85.4C133.7-84.8 137.7-82.5 140.2-77.7C142.6-72.9 146.4-58.9 147.8-52.3L155.6-41.9C158.7-37.8 160.9-33.7 160.9-25.6L160.9-17.6C160.9-12.7 158.6-10.1 153.2-9.6C142.6-8.3 117.8-7.2 95.6-7.2ZM27.1 26.6L35.2 26.6C40.3 26.6 44.3 22.6 44.3 17.5L44.3 0.5L18-7.3L18 17.6C18 22.6 22 26.6 27.1 26.6ZM156 26.6L164.1 26.6C169.2 26.6 173.2 22.6 173.2 17.5L173.2-7.3L146.9 0.6L146.9 17.6C146.9 22.6 150.9 26.6 156 26.6Z"/>
  </g>
  <g id="Heavy-L" transform="matrix(1 0 0 1 2542.49 1556)">
   <path d="M50-60C49.2-56.8 50.6-54.9 54.1-55C61.7-55.3 72.6-55.9 94-55.9C115.3-55.9 126.3-55.4 133.9-55C137.4-54.9 138.8-56.8 138.1-60C137-64.7 134.9-71.1 133.5-73.7C131.6-77.5 129.1-78.9 124.6-79.6C120.9-80.1 110.8-80.4 94.1-80.4C77.4-80.4 67.2-80.1 63.6-79.6C59.1-79 56.6-77.5 54.6-73.7C53.2-71.1 51.1-64.7 50-60ZM48.2-12.8C54.7-12.8 59.6-17.7 59.6-24.2C59.6-30.7 54.7-35.6 48.2-35.6C41.7-35.7 36.7-30.8 36.7-24.3C36.7-17.8 41.7-12.8 48.2-12.8ZM76.3-15.8L111.9-15.8C116.8-15.8 120.2-19.3 120.2-24.2C120.2-29.1 116.7-32.5 111.9-32.5L76.3-32.5C71.4-32.5 68-29 68-24.2C67.9-19.3 71.4-15.8 76.3-15.8ZM139.9-12.8C146.4-12.8 151.3-17.7 151.3-24.2C151.3-30.7 146.4-35.6 139.9-35.6C133.4-35.6 128.5-30.7 128.5-24.2C128.5-17.8 133.4-12.8 139.9-12.8ZM94.1 8.1C116.4 8.1 144.8 7 156.9 5.6C167.3 4.4 173.4-1.8 173.4-11.7L173.4-22.8C173.4-34.9 171.8-41.7 165.5-49.3L159.4-56.7C157-68 152.8-79.9 150.6-84.6C146.8-92.7 139.4-97.6 130-98.9C124.7-99.6 111.9-100 94.1-100C76.3-100 63.4-99.6 58.2-98.9C48.8-97.7 41.4-92.7 37.6-84.6C35.4-79.9 31.2-68 28.8-56.7L22.7-49.3C16.4-41.7 14.8-34.8 14.8-22.8L14.8-11.7C14.8-1.8 21 4.4 31.3 5.6C43.4 7 71.7 8.1 94.1 8.1ZM94.1-6C72.1-6 46.6-7.1 36.2-8.3C30.8-8.9 28.6-11.5 28.6-16.4L28.6-24.6C28.6-32.9 30.6-36.9 34.1-41.6L41.6-51.5C42.9-58.5 46.8-72.3 49.4-77.6C51.6-82.3 55.7-84.6 60.8-85.2C65.6-85.9 77-86.4 94-86.4C111-86.4 122.5-85.8 127.2-85.2C132.3-84.6 136.3-82.2 138.7-77.4C141.2-72.4 145.1-58.7 146.5-51.4L154-41.5C157.6-36.8 159.6-32.8 159.6-24.5L159.6-16.3C159.6-11.4 157.4-8.8 152-8.2C141.5-7.1 116-6 94.1-6ZM26.9 25.7L34.9 25.7C39.9 25.7 43.8 21.8 43.8 16.9L43.8 0.4L18-6.4L18 16.9C18 21.9 21.9 25.7 26.9 25.7ZM153.3 25.7L161.2 25.7C166.2 25.7 170.1 21.8 170.1 16.9L170.1-6.4L144.3 0.4L144.3 16.9C144.3 21.9 148.2 25.7 153.3 25.7Z"/>
  </g>
  <g id="Bold-L" transform="matrix(1 0 0 1 2247.78 1556)">
   <path d="M47.5-58C46.8-55.2 48-53.6 51.1-53.8C59.6-54.3 70.9-54.8 92.1-54.8C113.2-54.8 124.5-54.3 133.1-53.8C136.2-53.7 137.4-55.2 136.8-58C135.5-63.6 133.1-70.7 131.5-73.6C129.7-77.1 127.3-78.6 123.1-79.2C119.1-79.8 108.8-80.1 92.2-80.1C75.5-80.1 65.3-79.8 61.3-79.2C57.1-78.6 54.7-77.2 52.8-73.6C51.2-70.7 48.8-63.6 47.5-58ZM46.4-12.4C52.5-12.4 57.2-17.1 57.2-23.2C57.2-29.3 52.5-34 46.4-34C40.2-34 35.6-29.3 35.6-23.2C35.6-17 40.3-12.4 46.4-12.4ZM74.8-15L109.4-15C114-15 117.2-18.3 117.2-22.9C117.2-27.5 114-30.7 109.4-30.7L74.8-30.7C70.2-30.7 67-27.5 67-22.9C67-18.3 70.3-15 74.8-15ZM137.9-12.4C144-12.4 148.7-17.1 148.7-23.2C148.7-29.3 144-34 137.9-34C131.7-34 127.1-29.3 127.1-23.2C127.1-17 131.7-12.4 137.9-12.4ZM92.1 7.3C113.9 7.3 142.2 6.2 154.2 4.9C163.8 3.8 169.4-1.8 169.4-11L169.4-22.1C169.4-33.7 167.6-40.2 161.5-47.7L155.7-54.9C153.4-66.2 149.2-78.1 147-82.8C143.3-90.5 136.3-95.2 127.4-96.3C122.5-97 109.2-97.3 92.2-97.3C75.1-97.3 61.8-96.9 57-96.3C48.1-95.2 41-90.5 37.4-82.8C35.2-78.1 31-66.2 28.7-54.9L22.7-47.8C16.6-40.3 14.8-33.8 14.8-22.2L14.8-11.1C14.8-1.9 20.4 3.7 30 4.8C42 6.2 70.3 7.3 92.1 7.3ZM92.1-4.5C70.4-4.5 44.2-5.6 33.8-6.8C28.4-7.5 26.2-10.1 26.2-14.9L26.2-23.4C26.2-31.8 28-35.9 32-41.2L39.1-50.6C40.6-58.5 44.6-71.9 47.1-77.3C49.3-81.9 53.4-84.4 58.8-85.1C63.4-85.7 75.3-86.2 92-86.2C108.7-86.2 120.8-85.6 125.1-85.1C130.6-84.4 134.6-81.9 136.9-77.2C139.4-72 143.4-58.7 144.9-50.6L152-41.2C156.1-35.9 157.9-31.8 157.9-23.4L157.9-14.9C157.9-10 155.7-7.4 150.3-6.8C140-5.5 113.8-4.5 92.1-4.5ZM26.6 24.7L34.3 24.7C39.2 24.7 43 20.9 43 16.1L43 0.4L18-5.2L18 16.1C18 20.9 21.8 24.7 26.6 24.7ZM149.9 24.7L157.6 24.7C162.5 24.7 166.3 20.9 166.3 16.1L166.3-5.2L141.2 0.4L141.2 16.1C141.2 20.9 145 24.7 149.9 24.7Z"/>
  </g>
  <g id="Semibold-L" transform="matrix(1 0 0 1 1952.32 1556)">
   <path d="M45.8-56.6C45.2-54.1 46.3-52.7 49.1-52.8C58.3-53.4 69.8-53.9 90.8-53.9C111.8-53.9 123.3-53.3 132.5-52.8C135.3-52.7 136.4-54 135.8-56.6C134.4-62.8 131.8-70.4 130.1-73.5C128.3-76.8 126-78.3 122-78.9C117.7-79.5 107.3-79.8 90.8-79.8C74.2-79.8 63.8-79.4 59.6-78.9C55.6-78.3 53.3-76.9 51.5-73.5C49.8-70.4 47.2-62.8 45.8-56.6ZM45.2-12.1C51.1-12.1 55.6-16.6 55.6-22.5C55.6-28.4 51.1-32.9 45.2-32.9C39.3-32.9 34.8-28.4 34.8-22.5C34.8-16.5 39.3-12.1 45.2-12.1ZM73.9-14.5L107.8-14.5C112.2-14.5 115.3-17.6 115.3-22C115.3-26.4 112.2-29.5 107.8-29.5L73.9-29.5C69.5-29.5 66.4-26.4 66.4-22C66.4-17.6 69.5-14.5 73.9-14.5ZM136.5-12.1C142.4-12.1 146.9-16.6 146.9-22.5C146.9-28.4 142.4-32.9 136.5-32.9C130.6-32.9 126.1-28.4 126.1-22.5C126.1-16.5 130.5-12.1 136.5-12.1ZM90.8 6.6C112.3 6.6 140.5 5.5 152.5 4.2C161.6 3.2 166.9-2 166.9-10.7L166.9-21.8C166.9-33.1 164.9-39.4 159-46.8L153.3-54C151-65.3 146.8-77.2 144.6-81.9C141.1-89.4 134.2-93.8 125.6-94.9C120.9-95.5 107.4-95.9 90.8-95.9C74.2-95.9 60.7-95.5 56-94.9C47.4-93.8 40.6-89.4 37-81.9C34.8-77.2 30.6-65.3 28.3-54L22.7-46.7C16.8-39.3 14.8-33.1 14.8-21.7L14.8-10.6C14.8-1.9 20.1 3.3 29.1 4.3C41.1 5.6 69.3 6.6 90.8 6.6ZM90.8-3.4C69.3-3.4 42.6-4.4 32.2-5.7C26.8-6.4 24.7-9 24.7-13.8L24.7-22.5C24.7-31 26.4-35.2 30.7-40.9L37.6-49.9C39.2-58.4 43.2-71.5 45.8-77C48-81.6 52.1-84.2 57.7-84.9C62.1-85.5 74.3-86 90.9-86C107.4-86 119.9-85.4 124-84.9C129.7-84.2 133.7-81.5 136-77C138.5-71.7 142.5-58.6 144.2-50L151-41C155.4-35.2 157.1-31.1 157.1-22.6L157.1-13.9C157.1-9 155-6.4 149.6-5.7C139-4.5 112.2-3.4 90.8-3.4ZM26.5 23.9L34.1 23.9C38.9 23.9 42.6 20.2 42.6 15.5L42.6 0.3L18-4.4L18 15.5C18 20.2 21.7 23.9 26.5 23.9ZM147.6 23.9L155.2 23.9C160 23.9 163.7 20.2 163.7 15.5L163.7-4.4L139.1 0.4L139.1 15.6C139.1 20.2 142.8 23.9 147.6 23.9Z"/>
  </g>
  <g id="Medium-L" transform="matrix(1 0 0 1 1656.66 1556)">
   <path d="M44.5-55.5C44-53.2 44.9-52 47.5-52.1C57.2-52.7 68.8-53.3 89.8-53.3C110.7-53.3 122.4-52.7 132.1-52.1C134.7-51.9 135.7-53.2 135.2-55.5C133.7-62.2 131-70.1 129.1-73.4C127.4-76.6 125.2-78.1 121.3-78.6C116.8-79.2 106.3-79.6 89.8-79.6C73.2-79.6 62.8-79.2 58.3-78.6C54.4-78.1 52.2-76.6 50.5-73.4C48.7-70.1 46-62.2 44.5-55.5ZM44.3-11.8C50-11.8 54.3-16.1 54.3-21.9C54.3-27.6 50-31.9 44.3-31.9C38.6-31.9 34.3-27.6 34.3-21.9C34.2-16.2 38.5-11.8 44.3-11.8ZM73.1-14.1L106.5-14.1C110.8-14.1 113.7-17.1 113.7-21.4C113.7-25.7 110.7-28.6 106.5-28.6L73.1-28.6C68.9-28.6 65.9-25.6 65.9-21.4C65.9-17.2 68.9-14.1 73.1-14.1ZM135.4-11.8C141.1-11.8 145.4-16.1 145.4-21.9C145.4-27.6 141.1-31.9 135.4-31.9C129.7-31.9 125.4-27.6 125.4-21.9C125.3-16.2 129.6-11.8 135.4-11.8ZM89.8 6.2C111 6.2 139.2 5.1 151.1 3.8C159.8 2.8 164.8-2 164.8-10.4L164.8-21.5C164.8-32.6 162.7-38.6 156.9-46L151.4-53.1C149.1-64.4 144.9-76.4 142.7-81C139.2-88.3 132.5-92.5 124.2-93.6C119.7-94.2 106-94.5 89.8-94.5C73.6-94.5 59.8-94.1 55.4-93.6C47.1-92.6 40.4-88.3 36.9-81C34.7-76.3 30.5-64.4 28.2-53L22.7-46C16.9-38.7 14.8-32.7 14.8-21.5L14.8-10.4C14.8-2 19.8 2.8 28.5 3.8C40.4 5.1 68.6 6.2 89.8 6.2ZM89.8-2.6C68.5-2.6 41.4-3.6 31-4.9C25.5-5.6 23.5-8.2 23.5-13.1L23.5-22C23.5-30.6 25.1-34.8 29.7-40.9L36.3-49.6C38-58.6 42-71.5 44.6-77C46.8-81.5 50.9-84.3 56.6-85C60.8-85.5 73.3-86.1 89.7-86.1C106.1-86.1 118.8-85.5 122.7-85C128.6-84.3 132.6-81.5 134.8-77C137.4-71.6 141.4-58.7 143.1-49.7L149.7-41C154.4-34.9 155.9-30.8 155.9-22.1L155.9-13.2C155.9-8.3 153.8-5.7 148.4-5C138.2-3.7 111.1-2.6 89.8-2.6ZM26.4 23.4L33.9 23.4C38.6 23.4 42.3 19.8 42.3 15.1L42.3 0.3L18-3.8L18 15.1C18 19.7 21.7 23.4 26.4 23.4ZM145.8 23.4L153.2 23.4C157.9 23.4 161.6 19.8 161.6 15.1L161.6-3.8L137.4 0.4L137.4 15.1C137.4 19.7 141.1 23.4 145.8 23.4Z"/>
  </g>
  <g id="Regular-L" transform="matrix(1 0 0 1 1361.09 1556)">
   <path d="M43.1-54.1C42.6-52.1 43.4-51 45.8-51.2C56.2-51.9 68-52.5 88.8-52.5C109.6-52.5 121.5-51.9 131.8-51.2C134.2-51 135-52.1 134.5-54.1C132.8-61.4 130-69.8 128-73.3C126.3-76.3 124.2-77.8 120.6-78.3C115.9-78.9 105.3-79.3 88.8-79.3C72.3-79.3 61.7-78.9 57-78.3C53.3-77.8 51.2-76.3 49.5-73.3C47.6-69.8 44.7-61.4 43.1-54.1ZM43.4-11.5C48.9-11.5 53-15.6 53-21.1C53-26.6 48.9-30.7 43.4-30.7C37.9-30.7 33.8-26.6 33.8-21.1C33.8-15.6 37.9-11.5 43.4-11.5ZM72.4-13.6L105.1-13.6C109.2-13.6 112-16.4 112-20.5C112-24.6 109.2-27.4 105.1-27.4L72.4-27.4C68.3-27.4 65.5-24.6 65.5-20.5C65.5-16.4 68.4-13.6 72.4-13.6ZM134.3-11.5C139.8-11.5 143.9-15.6 143.9-21.1C143.9-26.6 139.8-30.7 134.3-30.7C128.8-30.7 124.7-26.6 124.7-21.1C124.7-15.6 128.8-11.5 134.3-11.5ZM88.8 5.6C109.7 5.6 137.8 4.6 149.7 3.2C157.9 2.3 162.5-2.1 162.5-10L162.5-21.1C162.5-31.9 160.2-37.7 154.6-44.9L149.2-51.9C146.9-63.2 142.7-75.2 140.5-79.8C137.1-86.8 130.6-90.9 122.6-91.9C118.3-92.5 104.4-92.8 88.6-92.8C72.8-92.8 58.8-92.4 54.6-91.9C46.6-90.9 40.1-86.8 36.8-79.8C34.6-75.2 30.4-63.2 28.1-51.9L22.7-44.9C17.1-37.7 14.8-31.9 14.8-21.1L14.8-10C14.8-2.1 19.5 2.3 27.6 3.2C39.8 4.5 67.9 5.6 88.8 5.6ZM88.8-1.6C67.7-1.6 40.1-2.6 29.7-3.9C24.2-4.6 22.2-7.2 22.2-12.1L22.2-21.2C22.2-29.9 23.6-34.1 28.6-40.6L35-48.9C36.8-58.5 40.9-71.1 43.5-76.6C45.7-81.1 49.8-84 55.7-84.7C59.7-85.2 72.6-85.7 88.8-85.7C105-85.7 118.1-85.1 121.8-84.7C127.9-83.9 132-81.1 134.1-76.6C136.7-71.1 140.8-58.5 142.6-48.9L148.9-40.6C153.9-34.1 155.3-29.9 155.3-21.2L155.3-12.1C155.3-7.2 153.3-4.5 147.8-3.9C137.5-2.6 109.9-1.6 88.8-1.6ZM26.5 22.6L33.8 22.6C38.4 22.6 42 19.1 42 14.5L42 0.3L18.3-3L18.3 14.6C18.3 19.1 21.9 22.6 26.5 22.6ZM143.8 22.6L151.1 22.6C155.8 22.6 159.3 19.1 159.3 14.5L159.3-3L135.5 0.3L135.5 14.5C135.6 19.1 139.2 22.6 143.8 22.6Z"/>
  </g>
  <g id="Light-L" transform="matrix(1 0 0 1 1065.63 1556)">
   <path d="M40.7-54.1C40.3-52.3 40.9-51.1 43.3-51.3C54-52 65.7-52.5 87.4-52.5C109.1-52.5 120.8-52 131.5-51.3C133.8-51.1 134.5-52.3 134.1-54.1C132.3-62.1 129.5-70.2 127.5-73.7C125.7-76.9 123.2-78.8 119-79.3C114.1-79.9 103.2-80.3 87.4-80.3C71.4-80.3 60.6-80 55.8-79.3C51.5-78.8 49.1-76.9 47.3-73.7C45.3-70.2 42.5-62.1 40.7-54.1ZM42-11.8C47.1-11.8 50.9-15.6 50.9-20.8C50.9-25.9 47.1-29.7 42-29.7C36.9-29.7 33.1-25.9 33.1-20.8C33.1-15.6 36.8-11.8 42-11.8ZM71.4-13.4L103.3-13.4C107.1-13.4 109.7-16 109.7-19.8C109.7-23.6 107.1-26.2 103.3-26.2L71.4-26.2C67.6-26.2 65.1-23.6 65.1-19.8C65.1-16 67.7-13.4 71.4-13.4ZM132.9-11.8C138-11.8 141.8-15.6 141.8-20.8C141.8-25.9 138-29.7 132.9-29.7C127.8-29.7 124-25.9 124-20.8C123.9-15.6 127.7-11.8 132.9-11.8ZM87.4 5.4C107.9 5.4 135.9 4.4 147.8 3C155.5 2.1 160-1.9 160-9.5L160-20.6C160-31.7 157.5-37.2 152.3-44L146.8-51.1C144.5-62.4 140.3-74.4 138.2-79C134.9-86 128.4-89.7 120.9-90.7C116.6-91.3 102.4-91.6 87.4-91.6C72.4-91.6 58.1-91.2 53.9-90.7C46.4-89.7 40-86 36.6-79C34.4-74.4 30.2-62.4 28-51.1L22.5-44C17.3-37.2 14.8-31.7 14.8-20.6L14.8-9.5C14.8-1.9 19.3 2.1 27 3C38.8 4.4 66.9 5.4 87.4 5.4ZM87.4-0.3C66.8-0.3 39.1-1.3 28.3-2.6C22.6-3.3 20.5-5.8 20.5-10.7L20.5-20.5C20.5-29.3 22-33.7 27.1-40.4L33.3-48.6C35.2-58.8 39.4-71.3 41.8-76.4C44.1-81.1 48.4-84.1 54.6-84.9C58.6-85.4 71.6-85.9 87.4-85.9C103.2-85.9 116.4-85.4 120.1-84.9C126.5-84.1 130.7-81.1 133-76.4C135.4-71.3 139.6-58.8 141.5-48.6L147.7-40.4C152.8-33.7 154.3-29.3 154.3-20.5L154.3-10.7C154.3-5.8 152.1-3.2 146.5-2.6C135.7-1.4 108-0.3 87.4-0.3ZM26 22.1L33.2 22.1C37.7 22.1 41.2 18.6 41.2 14.2L41.2 1L18-2.2L18 14.1C18 18.6 21.5 22.1 26 22.1ZM141.6 22.1L148.8 22.1C153.3 22.1 156.8 18.6 156.8 14.2L156.8-2.2L133.6 1L133.6 14.1C133.6 18.6 137.1 22.1 141.6 22.1Z"/>
  </g>
  <g id="Thin-L" transform="matrix(1 0 0 1 770.372 1556)">
   <path d="M37.8-54C37.5-52.5 37.9-51.1 40.2-51.2C51.5-52 63.1-52.4 85.9-52.4C108.7-52.4 120.4-52 131.6-51.2C133.9-51 134.4-52.4 134.1-54C132.1-63 129.3-70.6 127.3-74.1C125.3-77.6 122.4-79.9 117.5-80.5C112.4-81.1 101.1-81.4 86-81.4C70.8-81.4 59.5-81.1 54.5-80.5C49.5-79.9 46.5-77.5 44.7-74.1C42.7-70.7 39.9-63 37.8-54ZM40.5-12.2C45.1-12.2 48.5-15.6 48.5-20.3C48.5-24.9 45.1-28.3 40.5-28.3C35.8-28.3 32.5-24.9 32.5-20.3C32.5-15.6 35.9-12.2 40.5-12.2ZM70.5-13.2L101.3-13.2C104.7-13.2 107-15.4 107-18.8C107-22.2 104.7-24.5 101.3-24.5L70.5-24.5C67.1-24.5 64.9-22.2 64.9-18.8C64.9-15.4 67.2-13.2 70.5-13.2ZM131.4-12.2C136-12.2 139.4-15.6 139.4-20.3C139.4-24.9 136-28.3 131.4-28.3C126.7-28.3 123.4-24.9 123.4-20.3C123.4-15.6 126.7-12.2 131.4-12.2ZM86 5.2C106 5.2 134 4.2 145.8 2.8C152.8 2 157.1-1.5 157.1-8.7L157.1-19.8C157.1-31.2 154.3-36.4 149.6-42.6L144-49.9C141.7-61.2 137.6-73.2 135.4-77.8C132.1-84.8 125.7-88.1 118.8-89C114.5-89.6 100-89.9 85.9-89.9C71.8-89.9 57.3-89.6 53-89C46.2-88.1 39.8-84.8 36.5-77.8C34.3-73.2 30.1-61.2 27.9-49.9L22.3-42.6C17.6-36.4 14.8-31.2 14.8-19.8L14.8-8.7C14.8-1.5 19.1 2 26.1 2.8C37.9 4.1 65.9 5.2 86 5.2ZM86 1.4C66 1.4 38.2 0.4 26.8-1C20.9-1.7 18.6-4 18.6-9.1L18.6-19.9C18.6-28.9 20.1-33.5 25.4-40.4L31.4-48.3C33.6-59.4 37.7-71.5 39.9-76.2C42.4-81.2 47-84.4 53.5-85.2C57.4-85.7 70.7-86.1 86-86.1C101.2-86.1 114.5-85.7 118.4-85.2C125.1-84.4 129.6-81.2 132.1-76.2C134.3-71.5 138.5-59.4 140.6-48.3L146.7-40.4C152-33.5 153.5-28.8 153.5-19.9L153.5-9.1C153.5-4.1 151.1-1.7 145.3-1C133.7 0.3 105.9 1.4 86 1.4ZM25.8 21.3L32.8 21.3C37.1 21.3 40.5 17.9 40.5 13.6L40.5 1.9L18-1L18 13.6C18 17.9 21.4 21.3 25.8 21.3ZM139.1 21.3L146.1 21.3C150.5 21.3 153.8 17.9 153.8 13.6L153.8-1L131.3 1.9L131.3 13.6C131.3 17.9 134.8 21.3 139.1 21.3Z"/>
  </g>
  <g id="Ultralight-L" transform="matrix(1 0 0 1 474.411 1556)">
   <path d="M36.4-54C36.1-52.6 36.5-51.1 38.7-51.3C50.2-52.1 61.8-52.5 85.2-52.5C108.7-52.5 120.2-52.1 131.6-51.3C133.8-51.1 134.3-52.6 134-54C131.9-63.5 129.1-70.9 127.1-74.4C125.1-78 121.9-80.6 116.6-81.2C111.4-81.8 99.9-82.1 85.2-82.1C70.4-82.1 58.9-81.9 53.8-81.2C48.4-80.5 45.2-78 43.3-74.4C41.3-70.9 38.5-63.5 36.4-54ZM39.8-12.4C44.1-12.4 47.4-15.6 47.4-20C47.4-24.3 44.2-27.6 39.8-27.6C35.4-27.6 32.2-24.4 32.2-20C32.2-15.6 35.4-12.4 39.8-12.4ZM70-13L100.3-13C103.5-13 105.6-15 105.6-18.3C105.6-21.5 103.5-23.6 100.3-23.6L70-23.6C66.9-23.6 64.7-21.5 64.7-18.3C64.8-15.1 66.9-13 70-13ZM130.6-12.4C134.9-12.4 138.2-15.6 138.2-20C138.2-24.3 135-27.6 130.6-27.6C126.2-27.6 123-24.4 123-20C123.1-15.6 126.2-12.4 130.6-12.4ZM85.2 5.1C104.9 5.1 132.9 4.1 144.7 2.7C151.4 1.9 155.6-1.3 155.6-8.3L155.6-19.4C155.6-31 152.7-36 148.2-41.9L142.5-49.2C140.3-60.5 136.1-72.5 133.9-77.1C130.6-84.1 124.3-87.2 117.7-88C113.4-88.6 98.7-88.9 85.2-88.9C71.6-88.9 56.9-88.6 52.6-88C46.1-87.1 39.8-84.1 36.5-77.1C34.3-72.5 30.1-60.5 27.9-49.2L22.2-42C17.7-36 14.8-31 14.8-19.5L14.8-8.4C14.8-1.4 19 1.8 25.7 2.6C37.5 4 65.4 5.1 85.2 5.1ZM85.2 2.3C65.5 2.3 37.7 1.3 25.9-0.1C19.9-0.8 17.5-3 17.5-8.1L17.5-19.4C17.5-28.4 19-33.2 24.5-40.3L30.4-48.1C32.7-59.6 36.9-71.6 38.9-76C41.5-81.2 46.2-84.4 53-85.3C56.8-85.8 70.3-86.2 85.3-86.2C100.2-86.2 113.6-85.8 117.5-85.3C124.3-84.5 129-81.2 131.5-76C133.6-71.6 137.8-59.6 140-48.1L146-40.3C151.3-33.3 152.9-28.5 152.9-19.4L152.9-8.1C152.9-3 150.5-0.7 144.5-0.1C132.6 1.1 104.8 2.3 85.2 2.3ZM25.7 21L32.6 21C36.8 21 40.2 17.6 40.2 13.4L40.2 2.4L18-0.4L18 13.4C18 17.5 21.4 21 25.7 21ZM137.9 21L144.8 21C149.1 21 152.4 17.6 152.4 13.4L152.4-0.4L130.2 2.4L130.2 13.4C130.2 17.6 133.5 21 137.9 21Z"/>
  </g>
  <g id="Black-M" transform="matrix(1 0 0 1 2854.65 1126)">
   <path d="M45.1-57.4C44.4-54.4 45.7-52.5 49-52.5C53.6-52.6 61.6-53 78.7-53C95.8-53 103.9-52.6 108.4-52.5C111.7-52.4 113-54.4 112.3-57.4C111.7-60 110.4-63.9 109.7-65.4C108.1-68.8 105.8-70 101.7-70.6C99.4-70.9 91.6-71.1 78.7-71.1C65.9-71.1 58.1-71 55.7-70.6C51.6-70 49.4-68.8 47.7-65.4C46.9-63.8 45.7-60 45.1-57.4ZM42.9-18.7C48.3-18.7 52.4-22.8 52.4-28.2C52.4-33.6 48.3-37.7 42.9-37.7C37.5-37.7 33.4-33.6 33.4-28.2C33.4-22.8 37.5-18.7 42.9-18.7ZM64.3-21.2L93-21.2C97.1-21.2 100-24.2 100-28.2C100-32.3 97.1-35.2 93-35.2L64.3-35.2C60.2-35.2 57.3-32.3 57.3-28.2C57.3-24.2 60.3-21.2 64.3-21.2ZM114.5-18.7C119.9-18.7 124-22.8 124-28.2C124-33.6 119.9-37.7 114.5-37.7C109.1-37.7 105-33.6 105-28.2C104.9-22.8 109-18.7 114.5-18.7ZM78.7-0.4C96.6-0.4 118.7-1.3 128.1-2.3C137.1-3.3 142.5-8.9 142.5-17.6L142.5-26.2C142.5-36.3 141.6-42.1 136.4-48L131.3-53.9C129.4-62.7 126.2-71.8 124.5-75.5C121.3-82.2 115.2-86.5 107.4-87.5C102.8-88.1 93.3-88.5 78.8-88.5C64.3-88.5 54.7-88.1 50.2-87.5C42.3-86.5 36.2-82.3 33.1-75.5C31.4-71.8 28.1-62.7 26.3-53.9L20.9-48C15.8-42.1 14.8-36.3 14.8-26.2L14.8-17.6C14.8-9 20.3-3.4 29.2-2.3C38.7-1.3 60.8-0.4 78.7-0.4ZM78.7-14.4C61.4-14.4 42.7-15.3 34.3-16.2C30.1-16.6 28.3-18.6 28.3-22.4L28.3-28.5C28.3-34.7 30.2-37.9 32.2-40.6L38.6-49C39.4-53.3 42.4-64.5 44.3-68.4C46.1-72.2 49.4-73.7 53-74.2C57.1-74.8 65.3-75.1 78.7-75.1C92.1-75.1 100.3-74.7 104.4-74.2C108-73.8 111.1-72.1 113.1-68.2C114.9-64.7 117.8-53.6 118.8-48.9L125.2-40.5C127.3-37.8 129.1-34.6 129.1-28.4L129.1-22.3C129.1-18.5 127.2-16.6 123.1-16.1C114.7-15.3 96-14.4 78.7-14.4ZM24.5 13.4L30.9 13.4C34.9 13.4 38.1 10.3 38.1 6.2L38.1-7.3L17.3-14.3L17.3 6.2C17.4 10.2 20.5 13.4 24.5 13.4ZM126.4 13.4L132.8 13.4C136.8 13.4 140 10.3 140 6.2L140-14.3L119.2-7.3L119.2 6.2C119.2 10.2 122.4 13.4 126.4 13.4Z"/>
  </g>
  <g id="Heavy-M" transform="matrix(1 0 0 1 2559.44 1126)">
   <path d="M43.1-55.6C42.5-52.9 43.6-51.3 46.6-51.3C51.9-51.5 60.2-51.9 77-51.9C93.8-51.9 102.1-51.5 107.4-51.3C110.4-51.2 111.5-52.9 110.9-55.6C110.2-58.8 108.7-63.3 107.7-65.2C106.2-68.3 104.1-69.5 100.3-70C97.7-70.4 89.8-70.6 76.9-70.6C64-70.6 56.2-70.4 53.5-70C49.8-69.5 47.7-68.3 46.1-65.2C45.4-63.4 43.9-58.8 43.1-55.6ZM41.4-18.2C46.6-18.2 50.5-22.2 50.5-27.3C50.5-32.5 46.5-36.4 41.4-36.4C36.2-36.4 32.3-32.4 32.3-27.3C32.3-22.2 36.2-18.2 41.4-18.2ZM63-20.6L91-20.6C94.9-20.6 97.7-23.4 97.7-27.3C97.7-31.2 95-34 91.1-34L63.1-34C59.2-34 56.4-31.2 56.4-27.3C56.4-23.4 59.1-20.6 63-20.6ZM112.7-18.2C117.9-18.2 121.8-22.2 121.8-27.3C121.8-32.5 117.8-36.4 112.7-36.4C107.5-36.4 103.6-32.4 103.6-27.3C103.5-22.2 107.5-18.2 112.7-18.2ZM77.1-1.1C94.6-1.1 116.7-2 126-3C134.4-4 139.5-9.1 139.5-17.2L139.5-25.8C139.5-35.5 138.4-40.9 133.4-46.9L128.5-52.7C126.7-61.5 123.4-70.7 121.7-74.3C118.6-80.7 112.8-84.8 105.3-85.8C101-86.4 91.2-86.7 77.2-86.7C63.2-86.7 53.3-86.3 49-85.8C41.5-84.8 35.6-80.8 32.6-74.3C30.9-70.6 27.6-61.5 25.8-52.7L20.9-46.9C15.9-41 14.8-35.5 14.8-25.8L14.8-17.2C14.8-9.1 19.8-4 28.3-3C37.5-2 59.5-1.1 77.1-1.1ZM77.1-13.3C59.9-13.3 40.6-14.2 32.4-15.1C28.2-15.6 26.4-17.6 26.4-21.3L26.4-27.5C26.4-33.8 28.1-37 30.5-40.2L36.6-48.2C37.5-53.1 40.5-64.1 42.5-68.1C44.3-71.8 47.5-73.5 51.3-74C55.2-74.6 63.8-75 77.1-75C90.3-75 99-74.6 102.8-74.1C106.6-73.6 109.7-71.9 111.6-68.1C113.5-64.4 116.4-53.6 117.5-48.3L123.5-40.3C126-37 127.7-33.9 127.7-27.6L127.7-21.4C127.7-17.6 125.9-15.6 121.7-15.2C113.5-14.2 94.2-13.3 77.1-13.3ZM24.2 12.6L30.5 12.6C34.4 12.6 37.5 9.5 37.5 5.6L37.5-7.5L17.2-13.5L17.2 5.6C17.2 9.5 20.2 12.6 24.2 12.6ZM123.7 12.6L130 12.6C133.9 12.6 137 9.5 137 5.6L137-13.5L116.7-7.5L116.7 5.6C116.7 9.5 119.7 12.6 123.7 12.6Z"/>
  </g>
  <g id="Bold-M" transform="matrix(1 0 0 1 2264.28 1126)">
   <path d="M41.3-53.6C40.7-51.3 41.8-49.9 44.3-50C50.5-50.3 59.1-50.7 75.5-50.7C91.8-50.7 100.5-50.3 106.7-50C109.3-49.9 110.3-51.2 109.7-53.6C108.8-57.5 107-62.8 105.9-64.9C104.5-67.7 102.6-68.8 99.3-69.3C96.3-69.7 88.4-70 75.5-70C62.5-70 54.6-69.8 51.7-69.3C48.4-68.8 46.6-67.8 45.1-64.9C44-62.8 42.2-57.5 41.3-53.6ZM40.1-17.7C45-17.7 48.8-21.5 48.8-26.4C48.8-31.3 45-35.1 40.1-35.1C35.2-35.1 31.4-31.3 31.4-26.4C31.4-21.4 35.1-17.7 40.1-17.7ZM61.9-19.9L89.2-19.9C92.9-19.9 95.5-22.5 95.5-26.2C95.5-29.9 92.9-32.5 89.2-32.5L61.9-32.5C58.2-32.5 55.6-29.9 55.6-26.2C55.6-22.5 58.2-19.9 61.9-19.9ZM111-17.7C115.9-17.7 119.7-21.5 119.7-26.4C119.7-31.3 115.9-35.1 111-35.1C106.1-35.1 102.3-31.3 102.3-26.4C102.3-21.4 106.1-17.7 111-17.7ZM75.6-2C92.8-2 114.7-2.8 124-3.9C131.8-4.8 136.4-9.4 136.4-16.8L136.4-25.4C136.4-34.6 135.1-39.7 130.3-45.7L125.7-51.3C123.9-60.1 120.6-69.3 118.9-72.9C116-79 110.4-82.8 103.3-83.7C99.4-84.2 89.3-84.5 75.7-84.5C62.1-84.5 52-84.2 48.1-83.7C40.8-82.8 35.2-79 32.3-72.9C30.6-69.3 27.3-60.1 25.5-51.3L20.9-45.7C16.1-39.8 14.8-34.6 14.8-25.4L14.8-16.8C14.8-9.3 19.4-4.7 27.2-3.9C36.5-2.8 58.4-2 75.6-2ZM75.6-12.1C58.6-12.1 38.6-12.9 30.6-13.9C26.4-14.4 24.7-16.4 24.7-20.2L24.7-26.6C24.7-33.1 26.2-36.2 29.1-40L34.8-47.5C35.9-53.2 38.9-63.7 40.9-67.9C42.6-71.5 45.8-73.3 49.8-73.8C53.4-74.3 62.5-74.7 75.6-74.7C88.7-74.7 97.8-74.2 101.3-73.8C105.4-73.3 108.5-71.4 110.3-67.8C112.2-63.8 115.3-53.3 116.4-47.4L122.1-39.9C125-36.1 126.5-32.9 126.5-26.5L126.5-20.1C126.5-16.3 124.8-14.3 120.7-13.8C112.5-13 92.5-12.1 75.6-12.1ZM24.1 11.6L30.2 11.6C34 11.6 37 8.6 37 4.8L37-7.7L17.3-12.6L17.3 4.9C17.3 8.7 20.2 11.6 24.1 11.6ZM120.9 11.6L127 11.6C130.8 11.6 133.8 8.6 133.8 4.8L133.8-12.6L114.1-7.8L114.1 4.9C114.1 8.7 117.1 11.6 120.9 11.6Z"/>
  </g>
  <g id="Semibold-M" transform="matrix(1 0 0 1 1968.62 1126)">
   <path d="M40.1-52.3C39.6-50.2 40.5-49.1 42.8-49.2C49.6-49.6 58.4-50 74.5-50C90.6-50 99.5-49.6 106.2-49.2C108.5-49.1 109.4-50.2 108.9-52.3C107.9-56.7 106-62.5 104.7-64.8C103.3-67.4 101.6-68.4 98.6-68.9C95.4-69.3 87.5-69.6 74.5-69.6C61.5-69.6 53.5-69.3 50.4-68.9C47.4-68.5 45.7-67.4 44.3-64.8C43-62.5 41.1-56.7 40.1-52.3ZM39.2-17.3C44-17.3 47.6-20.9 47.6-25.7C47.6-30.5 44-34.1 39.2-34.1C34.4-34.1 30.8-30.5 30.8-25.7C30.8-20.9 34.4-17.3 39.2-17.3ZM61.2-19.4L87.9-19.4C91.5-19.4 94-21.9 94-25.5C94-29.1 91.5-31.6 87.9-31.6L61.2-31.6C57.6-31.6 55.1-29.1 55.1-25.5C55.1-22 57.6-19.4 61.2-19.4ZM109.9-17.3C114.7-17.3 118.3-20.9 118.3-25.7C118.3-30.5 114.7-34.1 109.9-34.1C105.1-34.1 101.5-30.5 101.5-25.7C101.6-20.9 105.2-17.3 109.9-17.3ZM74.6-2.5C91.5-2.5 113.4-3.3 122.7-4.4C130-5.2 134.3-9.5 134.3-16.5L134.3-25.1C134.3-33.9 132.9-38.9 128.1-44.8L123.7-50.3C121.9-59.1 118.6-68.3 116.9-71.9C114.1-77.8 108.7-81.4 101.8-82.3C98.1-82.8 87.8-83.1 74.6-83.1C61.4-83.1 51-82.8 47.4-82.3C40.4-81.5 35-77.8 32.2-72C30.5-68.4 27.3-59.2 25.4-50.4L21-44.9C16.3-39 14.8-34 14.8-25.2L14.8-16.6C14.8-9.6 19.1-5.3 26.4-4.5C35.8-3.4 57.7-2.5 74.6-2.5ZM74.6-11.3C57.7-11.3 37.3-12.1 29.3-13C25.1-13.5 23.5-15.6 23.5-19.3L23.5-25.8C23.5-32.4 24.8-35.5 28.1-39.7L33.6-46.8C34.7-53 37.9-63.3 39.9-67.6C41.6-71.1 44.7-73 48.9-73.6C52.4-74 61.7-74.5 74.7-74.5C87.7-74.5 97.2-74 100.4-73.6C104.7-73.1 107.7-71.1 109.5-67.6C111.5-63.4 114.6-53.1 115.8-46.8L121.2-39.7C124.5-35.4 125.8-32.3 125.8-25.8L125.8-19.3C125.8-15.6 124.2-13.5 120-13C111.9-12.1 91.4-11.3 74.6-11.3ZM24 11L30 11C33.8 11 36.7 8.1 36.7 4.4L36.7-7.9L17.4-11.9L17.4 4.4C17.4 8.1 20.3 11 24 11ZM119.1 11L125 11C128.8 11 131.7 8.1 131.7 4.4L131.7-11.9L112.4-7.9L112.4 4.4C112.4 8.1 115.3 11 119.1 11Z"/>
  </g>
  <g id="Medium-M" transform="matrix(1 0 0 1 1672.76 1126)">
   <path d="M39.2-51.2C38.7-49.3 39.6-48.3 41.7-48.5C48.9-48.9 57.9-49.4 73.8-49.4C89.7-49.4 98.7-48.9 105.9-48.5C108-48.4 108.9-49.3 108.4-51.2C107.3-55.9 105.3-62.1 103.8-64.6C102.5-67 100.9-68 98.1-68.4C94.7-68.9 86.8-69.2 73.7-69.2C60.6-69.2 52.7-68.9 49.3-68.4C46.5-68 44.9-67 43.6-64.6C42.3-62.2 40.3-56 39.2-51.2ZM38.5-17C43.1-17 46.7-20.5 46.7-25.2C46.7-29.8 43.2-33.4 38.5-33.4C33.9-33.4 30.3-29.9 30.3-25.2C30.4-20.6 33.9-17 38.5-17ZM60.6-19.1L87-19.1C90.5-19.1 92.9-21.6 92.9-25C92.9-28.4 90.5-30.9 87-30.9L60.6-30.9C57.1-30.9 54.7-28.5 54.7-25C54.7-21.5 57.2-19.1 60.6-19.1ZM109.1-17C113.7-17 117.3-20.5 117.3-25.2C117.3-29.8 113.8-33.4 109.1-33.4C104.5-33.4 100.9-29.9 100.9-25.2C101-20.6 104.5-17 109.1-17ZM73.8-3C90.5-3 112.3-3.8 121.6-4.9C128.6-5.7 132.6-9.7 132.6-16.4L132.6-25C132.6-33.6 131.1-38.4 126.4-44.3L122.1-49.8C120.3-58.6 117.1-67.8 115.4-71.4C112.7-77.1 107.4-80.6 100.7-81.5C97.2-82 86.7-82.2 73.7-82.2C60.7-82.2 50.2-81.9 46.7-81.5C40-80.7 34.7-77.2 32-71.4C30.3-67.8 27.1-58.6 25.3-49.8L21-44.3C16.4-38.4 14.8-33.6 14.8-25L14.8-16.4C14.8-9.7 18.8-5.7 25.8-4.9C35.3-3.8 57.1-3 73.8-3ZM73.8-10.7C57-10.7 36.2-11.5 28.3-12.4C24.1-12.9 22.6-15 22.6-18.8L22.6-25.3C22.6-31.9 23.8-35 27.3-39.6L32.6-46.5C33.8-53.1 36.9-63.2 39-67.6C40.6-71 43.7-73.1 48-73.6C51.3-74 60.9-74.5 73.8-74.5C86.7-74.5 96.4-74 99.5-73.6C103.9-73.1 106.9-71 108.6-67.6C110.6-63.3 113.7-53.2 115-46.5L120.2-39.6C123.7-35 124.9-31.9 124.9-25.3L124.9-18.8C124.9-15.1 123.3-12.9 119.2-12.4C111.4-11.5 90.5-10.7 73.8-10.7ZM24 10.5L29.9 10.5C33.6 10.5 36.5 7.7 36.5 4L36.5-8L17.5-11.4L17.5 4C17.5 7.7 20.3 10.5 24 10.5ZM117.7 10.5L123.5 10.5C127.2 10.5 130.1 7.7 130.1 4L130.1-11.4L111.1-8L111.1 4C111.1 7.7 114 10.5 117.7 10.5Z"/>
  </g>
  <g id="Regular-M" transform="matrix(1 0 0 1 1379.75 1126)">
   <path d="M27.6546-24.475C29.5546-24.575 38.5546-23.775 42.1546-23.375C43.1546-23.275 45.9546-22.375 45.9546-22.375C45.9546-22.375 40.3546-29.475 37.9546-30.775C36.2546-31.675 32.2546-32.075 30.3546-32.175C29.4546-32.175 27.7546-32.375 26.9546-32.175C26.5546-32.075 25.7546-31.575 25.4546-31.275C24.7546-30.575 24.2546-29.175 24.1546-28.475C23.6546-25.775 23.6546-23.175 23.7546-19.975C23.8546-17.575 24.6546-12.475 25.2546-10.375C25.3546-10.075 25.8546-9.475 26.1546-9.275C26.6546-8.975 27.0546-9.175 27.3546-9.475C27.6546-9.675 28.0546-9.975 27.9546-10.375C27.7546-12.675 26.8546-17.375 26.8546-20.075C26.8546-21.075 26.6546-23.175 26.9546-23.975C26.9546-24.075 27.3546-24.375 27.6546-24.475ZM124.855-28.575C124.855-29.475 124.355-32.075 124.055-32.875C123.355-34.475 120.955-37.675 119.655-38.775C119.255-39.175 118.155-39.675 118.155-39.675C118.155-39.675 120.855-39.975 122.355-40.475C123.055-40.675 123.655-42.775 123.555-43.475C123.455-44.175 123.055-44.775 122.755-44.975C121.355-46.075 117.555-46.575 115.755-46.475C115.355-46.475 114.455-46.075 114.255-45.775C113.755-44.975 114.155-42.075 114.155-42.075L113.655-40.775L111.455-40.975C111.455-40.975 105.155-58.475 99.8546-60.375C93.1546-62.775 79.0546-62.375 70.0546-62.375C61.0546-62.375 46.9546-62.775 40.2546-60.375C34.8546-58.375 28.5546-40.975 28.5546-40.975L26.3546-40.775L25.8546-42.075C25.8546-42.075 26.2546-44.975 25.7546-45.775C25.5546-46.075 24.6546-46.475 24.2546-46.475C22.4546-46.575 18.6546-46.175 17.2546-44.975C16.9546-44.675 16.4546-44.075 16.4546-43.475C16.3546-42.775 16.9546-40.675 17.6546-40.475C19.1546-39.975 21.8546-39.675 21.8546-39.675C21.8546-39.675 20.7546-39.175 20.3546-38.775C19.1546-37.675 16.6546-34.475 15.9546-32.875C15.6546-31.975 15.1546-29.375 15.1546-28.575C14.7546-23.075 14.6546-12.675 15.0546-7.375C15.0546-7.375 14.8546 2.225 15.5546 5.325C15.7546 6.025 15.9546 7.925 16.6546 7.925C20.2546 8.125 26.5546 7.925 30.4546 7.925C30.9546 7.925 31.1546 6.625 31.1546 6.125C31.1546 5.725 31.1546 4.425 31.1546 4.425C47.4546 4.725 69.8546 4.525 69.8546 4.525C69.8546 4.525 92.2546 4.725 108.555 4.425C108.555 4.425 108.555 5.725 108.555 6.125C108.555 6.625 108.855 7.925 109.355 7.925C113.255 7.925 119.555 8.125 123.155 7.925C123.855 7.925 124.155 6.025 124.255 5.325C124.955 2.225 124.755-7.375 124.755-7.375C125.355-12.675 125.255-22.975 124.855-28.575ZM119.755-11.175C119.655-9.775 119.155-6.875 118.955-5.375C118.655-3.075 117.655-1.775 116.555-1.775C115.655-1.775 115.955-1.775 115.655-1.775C115.555-1.775 115.255-1.775 114.555-1.775C114.555-1.775 114.455-3.275 113.555-4.575C112.255-6.475 106.955-8.175 104.755-8.275C96.0546-8.775 70.0546-8.475 70.0546-8.475C70.0546-8.475 43.9546-8.675 35.3546-8.275C33.0546-8.175 27.8546-6.475 26.5546-4.575C25.6546-3.375 25.5546-1.875 25.5546-1.775L25.5546-1.775C23.5546-1.875 24.8546-1.775 23.5546-1.775C22.5546-1.775 21.4546-3.075 21.1546-5.375C20.9546-6.775 20.5546-9.675 20.4546-11.175C20.1546-15.575 20.1546-23.775 20.4546-28.375C20.8546-33.775 25.2546-36.775 30.6546-36.975C31.1546-36.975 32.5546-37.175 32.7546-37.175C33.0546-37.375 37.2546-54.675 43.0546-56.075C50.7546-57.975 61.6546-57.875 70.1546-57.875C78.5546-57.875 89.5546-57.975 97.1546-56.075C102.955-54.675 107.155-37.375 107.455-37.175C107.655-37.175 109.155-36.975 109.555-36.975C114.955-36.775 119.355-33.675 119.755-28.375C120.055-23.775 120.055-15.475 119.755-11.175ZM112.555-24.475C110.655-24.575 101.655-23.775 98.0546-23.375C97.0546-23.275 94.2546-22.375 94.2546-22.375C94.2546-22.375 99.8546-29.475 102.255-30.775C103.955-31.675 107.955-32.075 109.855-32.175C110.755-32.175 112.455-32.375 113.255-32.175C113.655-32.075 114.455-31.575 114.755-31.275C115.455-30.575 115.955-29.175 116.055-28.475C116.555-25.775 116.555-23.175 116.455-19.975C116.355-17.575 115.555-12.475 114.955-10.375C114.855-10.075 114.355-9.475 114.055-9.275C113.555-8.975 113.155-9.175 112.855-9.475C112.555-9.675 112.155-9.975 112.255-10.375C112.455-12.675 113.355-17.375 113.355-20.075C113.355-21.075 113.555-23.175 113.255-23.975C113.255-24.075 112.855-24.375 112.555-24.475ZM81.8546-33.975C81.8546-33.575 81.6546-33.175 81.3546-32.775L66.3546-13.875C65.1546-12.275 63.0546-13.375 63.7546-15.275L68.6546-28.475L59.3546-28.475C58.6546-28.475 57.9546-29.075 57.9546-29.875C57.9546-30.175 58.1546-30.575 58.4546-30.975L73.5546-49.875C74.7546-51.475 76.8546-50.375 76.0546-48.475L71.1546-35.275L80.4546-35.275C81.1546-35.275 81.8546-34.675 81.8546-33.975Z"/>
  </g>
  <g id="Light-M" transform="matrix(1 0 0 1 1081.48 1126)">
   <path d="M35.9-49.8C35.5-48.3 36.1-47.5 37.9-47.6C46.1-48.2 55.2-48.6 71.6-48.6C88-48.6 97.2-48.2 105.3-47.6C107.1-47.5 107.7-48.3 107.4-49.8C106.1-55.7 103.9-62.1 102.3-64.8C101-67.2 99.2-68.5 96.2-68.9C92.5-69.4 84.2-69.7 71.6-69.7C59-69.7 50.7-69.4 47-68.9C44-68.5 42.2-67.2 40.9-64.8C39.4-62.1 37.2-55.7 35.9-49.8ZM36.4-16.9C40.5-16.9 43.6-20 43.6-24.2C43.6-28.3 40.5-31.4 36.4-31.4C32.3-31.4 29.2-28.3 29.2-24.2C29.2-20.1 32.3-16.9 36.4-16.9ZM59.1-18.4L84.2-18.4C87.3-18.4 89.4-20.5 89.4-23.6C89.4-26.7 87.3-28.8 84.2-28.8L59.1-28.8C56.1-28.8 54-26.7 54-23.6C53.9-20.5 56-18.4 59.1-18.4ZM106.8-16.9C110.9-16.9 114-20 114-24.2C114-28.3 110.9-31.4 106.8-31.4C102.7-31.4 99.6-28.3 99.6-24.2C99.6-20.1 102.7-16.9 106.8-16.9ZM71.6-3.7C87.7-3.7 109.4-4.5 118.6-5.6C124.8-6.3 128.3-9.6 128.3-15.6L128.3-24.2C128.3-32.7 126.4-37 122.3-42.5L118.1-48C116.3-56.8 113.1-66 111.4-69.6C108.8-75.1 103.8-78.1 97.7-78.9C94.4-79.3 83.5-79.6 71.5-79.6C59.5-79.6 48.6-79.3 45.3-78.9C39.4-78 34.4-75 31.8-69.5C30.1-65.9 26.9-56.7 25.1-47.9L20.9-42.4C16.7-36.9 14.8-32.6 14.8-24.1L14.8-15.5C14.8-9.5 18.4-6.2 24.5-5.5C33.8-4.5 55.6-3.7 71.6-3.7ZM71.6-8.7C55.4-8.7 34-9.4 25.8-10.5C21.5-11.1 19.9-13 19.9-16.8L19.9-24.1C19.9-30.9 21-34.2 24.9-39.3L29.8-45.7C31.2-53.3 34.4-63.1 36.4-67.2C38.1-70.8 41.4-73 46.1-73.6C49.2-74 59.2-74.4 71.7-74.4C84.1-74.4 94.3-74 97.2-73.6C102-73 105.2-70.8 106.9-67.2C108.9-63.1 112-53.3 113.5-45.7L118.4-39.3C122.3-34.2 123.4-30.9 123.4-24.1L123.4-16.8C123.4-13 121.8-11 117.5-10.5C109.2-9.5 87.8-8.7 71.6-8.7ZM23.6 9.4L29.2 9.4C32.7 9.4 35.5 6.7 35.5 3.2L35.5-7.5L17.4-10L17.4 3.2C17.4 6.7 20.1 9.4 23.6 9.4ZM114 9.4L119.6 9.4C123.2 9.4 125.9 6.7 125.9 3.2L125.9-10L107.7-7.5L107.7 3.2C107.7 6.7 110.4 9.4 114 9.4Z"/>
  </g>
  <g id="Thin-M" transform="matrix(1 0 0 1 786.122 1126)">
   <path d="M33.2-49.8C32.9-48.5 33.3-47.5 35.1-47.6C43.7-48.2 52.7-48.5 70.2-48.5C87.6-48.5 96.7-48.2 105.2-47.6C107-47.5 107.4-48.5 107.1-49.8C105.6-56.6 103.4-62.6 101.9-65.2C100.4-67.8 98.3-69.5 94.6-70C90.7-70.5 82.1-70.7 70.2-70.7C58.3-70.7 49.6-70.5 45.8-70C42.1-69.5 39.9-67.8 38.5-65.2C36.9-62.6 34.8-56.6 33.2-49.8ZM35-17.3C38.7-17.3 41.4-20 41.4-23.8C41.4-27.5 38.7-30.2 35-30.2C31.3-30.2 28.6-27.5 28.6-23.8C28.6-20.1 31.3-17.3 35-17.3ZM58.1-18.2L82.3-18.2C85-18.2 86.9-20 86.9-22.7C86.9-25.4 85.1-27.3 82.3-27.3L58.1-27.3C55.4-27.3 53.6-25.5 53.6-22.7C53.6-20 55.4-18.2 58.1-18.2ZM105.4-17.3C109.1-17.3 111.8-20 111.8-23.8C111.8-27.5 109.1-30.2 105.4-30.2C101.7-30.2 99-27.5 99-23.8C99-20.1 101.7-17.3 105.4-17.3ZM70.2-3.9C85.8-3.9 107.5-4.7 116.7-5.8C122.3-6.4 125.6-9.3 125.6-14.9L125.6-23.5C125.6-32.3 123.5-36.3 119.8-41.3L115.5-46.9C113.7-55.7 110.5-65 108.8-68.5C106.2-73.9 101.3-76.6 95.8-77.3C92.4-77.7 81.3-78 70.2-78C59.1-78 47.9-77.7 44.6-77.3C39.2-76.6 34.2-73.9 31.7-68.5C30-64.9 26.8-55.7 25-46.9L20.7-41.3C16.9-36.4 14.8-32.3 14.8-23.5L14.8-14.9C14.8-9.2 18.2-6.4 23.7-5.8C32.9-4.7 54.6-3.9 70.2-3.9ZM70.2-7.2C54.6-7.2 33.1-8 24.4-9.1C19.9-9.7 18.1-11.5 18.1-15.4L18.1-23.5C18.1-30.4 19.3-34 23.3-39.3L28-45.5C29.6-53.9 32.9-63.4 34.6-67.1C36.5-70.9 40-73.4 45-74C48-74.4 58.3-74.7 70.2-74.7C82.1-74.7 92.4-74.4 95.4-74C100.5-73.4 104-71 105.8-67.1C107.6-63.4 110.8-53.9 112.4-45.5L117.1-39.3C121.1-34 122.3-30.4 122.3-23.5L122.3-15.4C122.3-11.5 120.5-9.6 116.1-9.1C107.3-8.1 85.8-7.2 70.2-7.2ZM23.3 8.8L28.8 8.8C32.2 8.8 34.9 6.1 34.9 2.8L34.9-6.6L17.3-9L17.3 2.7C17.3 6.1 19.9 8.8 23.3 8.8ZM111.6 8.8L117 8.8C120.4 8.8 123.1 6.1 123.1 2.8L123.1-9L105.5-6.7L105.5 2.7C105.5 6.1 108.2 8.8 111.6 8.8Z"/>
  </g>
  <g id="Ultralight-M" transform="matrix(1 0 0 1 489.961 1126)">
   <path d="M32-49.8C31.7-48.7 32.1-47.6 33.8-47.7C42.6-48.3 51.6-48.6 69.6-48.6C87.6-48.6 96.6-48.3 105.3-47.7C107-47.6 107.4-48.7 107.2-49.8C105.6-57 103.5-62.8 101.9-65.5C100.3-68.2 98-70.2 93.9-70.7C89.9-71.2 81.1-71.4 69.5-71.4C57.9-71.4 49.1-71.2 45.1-70.7C41-70.2 38.6-68.3 37.1-65.5C35.8-62.8 33.7-57 32-49.8ZM34.4-17.5C37.8-17.5 40.4-20.1 40.4-23.6C40.4-27 37.8-29.6 34.4-29.6C30.9-29.6 28.4-27 28.4-23.6C28.5-20.1 31-17.5 34.4-17.5ZM57.8-18.1L81.4-18.1C84-18.1 85.6-19.7 85.6-22.3C85.6-24.9 83.9-26.5 81.4-26.5L57.8-26.5C55.3-26.5 53.6-24.8 53.6-22.3C53.6-19.8 55.3-18.1 57.8-18.1ZM104.9-17.5C108.3-17.5 110.9-20.1 110.9-23.6C110.9-27 108.3-29.6 104.9-29.6C101.4-29.6 98.9-27 98.9-23.6C98.9-20.1 101.4-17.5 104.9-17.5ZM69.7-4C85-4 106.7-4.8 115.9-5.9C121.2-6.5 124.5-9.1 124.5-14.6L124.5-23.2C124.5-32.1 122.3-36 118.8-40.7L114.4-46.4C112.7-55.2 109.4-64.5 107.7-68C105.1-73.4 100.2-75.9 95-76.5C91.6-76.9 80.4-77.2 69.7-77.2C59-77.2 47.7-77 44.3-76.5C39.2-75.8 34.3-73.4 31.7-68C30-64.4 26.8-55.2 25-46.4L20.6-40.7C17-36 14.8-32.1 14.8-23.2L14.8-14.6C14.8-9.1 18.1-6.5 23.4-5.9C32.6-4.8 54.3-4 69.7-4ZM69.7-6.4C54.4-6.4 32.8-7.1 23.8-8.3C19.2-8.9 17.3-10.6 17.3-14.5L17.3-23.1C17.3-30.1 18.5-33.7 22.7-39.2L27.3-45.3C29-54.1 32.3-63.4 33.9-66.9C35.9-70.9 39.5-73.4 44.7-74C47.7-74.4 58.1-74.7 69.8-74.7C81.4-74.7 91.8-74.4 94.8-74C100-73.4 103.6-70.9 105.6-66.9C107.3-63.4 110.5-54.1 112.2-45.3L116.9-39.2C121-33.8 122.2-30.1 122.2-23.1L122.2-14.5C122.2-10.6 120.3-8.8 115.8-8.3C106.5-7.3 84.9-6.4 69.7-6.4ZM23.3 8.4L28.7 8.4C32 8.4 34.6 5.8 34.6 2.5L34.6-6.2L17.4-8.4L17.4 2.5C17.4 5.7 20 8.4 23.3 8.4ZM110.6 8.4L116 8.4C119.4 8.4 121.9 5.8 121.9 2.5L121.9-8.4L104.6-6.2L104.6 2.5C104.6 5.8 107.2 8.4 110.6 8.4Z"/>
  </g>
  <g id="Black-S" transform="matrix(1 0 0 1 2868.1 696)">
   <path d="M38.8-53.1C38.2-50.7 39.3-49 42-49.1C45.4-49.1 51.6-49.4 65.1-49.4C78.7-49.4 84.9-49.1 88.2-49.1C90.9-49.1 92-50.7 91.4-53.1C91-55 90-57.8 89.5-58.9C88.2-61.7 86.3-62.7 83-63.1C81.2-63.3 75.1-63.4 65.1-63.4C55.1-63.4 49-63.3 47.2-63.1C43.8-62.6 42-61.6 40.7-58.9C40.2-57.8 39.3-55 38.8-53.1ZM37.1-22.4C41.4-22.4 44.7-25.7 44.7-30C44.7-34.3 41.4-37.6 37.1-37.6C32.8-37.6 29.5-34.3 29.5-30C29.5-25.7 32.8-22.4 37.1-22.4ZM53.8-24.4L76.5-24.4C79.7-24.4 82.1-26.7 82.1-30C82.1-33.2 79.8-35.6 76.5-35.6L53.8-35.6C50.6-35.6 48.2-33.3 48.2-30C48.3-26.8 50.6-24.4 53.8-24.4ZM93.2-22.4C97.5-22.4 100.8-25.7 100.8-30C100.8-34.3 97.5-37.6 93.2-37.6C88.9-37.6 85.6-34.3 85.6-30C85.7-25.7 88.9-22.4 93.2-22.4ZM65.2-7.7C79.3-7.7 96.6-8.4 104-9.2C111.2-10 115.6-14.5 115.6-21.5L115.6-28.2C115.6-36.3 114.9-40.8 110.9-45.5L106.8-50.2C105.3-57.1 102.8-64.3 101.4-67.1C98.9-72.5 94-75.8 87.8-76.7C84.1-77.2 76.7-77.5 65.2-77.5C53.7-77.5 46.3-77.2 42.6-76.7C36.4-75.9 31.5-72.5 29-67.1C27.7-64.2 25.1-57 23.6-50.2L19.5-45.5C15.4-40.9 14.8-36.3 14.8-28.2L14.8-21.5C14.8-14.6 19.2-10.1 26.4-9.2C33.7-8.4 51-7.7 65.2-7.7ZM65.2-19.1C51.6-19.1 37.1-19.8 30.5-20.5C27.2-20.8 25.7-22.4 25.7-25.3L25.7-30.1C25.7-34.9 27.2-37.4 28.7-39.4L33.8-46.1C34.4-49.3 36.7-58.2 38.2-61.2C39.7-64.2 42.2-65.4 45-65.8C48.3-66.3 54.6-66.5 65.1-66.5C75.6-66.5 81.9-66.2 85.2-65.8C87.9-65.5 90.4-64.2 92-61.1C93.4-58.5 95.7-49.7 96.4-46.2L101.5-39.5C103-37.5 104.5-35 104.5-30.2L104.5-25.4C104.5-22.4 103-20.9 99.7-20.6C93.2-19.9 78.8-19.1 65.2-19.1ZM22.4 3.1L27.5 3.1C30.7 3.1 33.2 0.6 33.2-2.6L33.2-13.3L16.7-19L16.7-2.5C16.7 0.6 19.2 3.1 22.4 3.1ZM102.9 3.1L108 3.1C111.2 3.1 113.7 0.6 113.7-2.6L113.7-19L97.3-13.2L97.3-2.5C97.2 0.6 99.7 3.1 102.9 3.1Z"/>
  </g>
  <g id="Heavy-S" transform="matrix(1 0 0 1 2572.49 696)">
   <path d="M37.6-51.6C37.1-49.4 38-48.1 40.4-48.1C44.4-48.2 50.8-48.5 64-48.5C77.2-48.5 83.6-48.2 87.6-48.1C90-48 91-49.4 90.4-51.6C89.9-53.9 88.7-57.3 88-58.7C86.8-61.2 85.1-62.1 82.1-62.5C80.1-62.8 74-62.9 63.9-62.9C53.8-62.9 47.7-62.8 45.7-62.5C42.7-62.1 41.1-61.2 39.8-58.7C39.3-57.4 38.2-54 37.6-51.6ZM36.1-22C40.2-22 43.4-25.2 43.4-29.3C43.4-33.4 40.2-36.6 36.1-36.6C32-36.6 28.8-33.4 28.8-29.3C28.8-25.1 32-22 36.1-22ZM53-23.9L75.2-23.9C78.3-23.9 80.5-26.2 80.5-29.3C80.5-32.4 78.3-34.6 75.2-34.6L53-34.6C49.9-34.6 47.7-32.4 47.7-29.3C47.6-26.2 49.9-23.9 53-23.9ZM92-22C96.1-22 99.3-25.2 99.3-29.3C99.3-33.4 96.1-36.6 92-36.6C87.9-36.6 84.7-33.4 84.7-29.3C84.7-25.1 87.9-22 92-22ZM64.1-8.3C78-8.3 95.2-9 102.6-9.8C109.4-10.6 113.4-14.7 113.4-21.2L113.4-28C113.4-35.7 112.6-40 108.6-44.7L104.7-49.3C103.2-56.2 100.7-63.4 99.4-66.2C97-71.3 92.3-74.5 86.3-75.3C82.9-75.8 75.3-76 64.1-76C52.9-76 45.3-75.7 41.9-75.3C35.9-74.5 31.2-71.3 28.8-66.2C27.5-63.3 24.9-56.1 23.5-49.3L19.6-44.7C15.6-40 14.8-35.6 14.8-28L14.8-21.3C14.8-14.8 18.9-10.7 25.6-9.9C32.9-9 50.2-8.3 64.1-8.3ZM64.1-18.4C50.6-18.4 35.6-19.1 29.2-19.8C25.9-20.2 24.5-21.7 24.5-24.7L24.5-29.5C24.5-34.4 25.9-36.9 27.7-39.3L32.5-45.7C33.2-49.4 35.5-58 37.1-61.2C38.5-64.1 41-65.4 43.9-65.8C47-66.2 53.6-66.5 64.1-66.5C74.5-66.5 81.2-66.1 84.3-65.8C87.2-65.4 89.7-64.1 91.2-61.1C92.6-58.2 95-49.7 95.8-45.7L100.6-39.3C102.4-36.9 103.8-34.4 103.8-29.5L103.8-24.7C103.8-21.7 102.4-20.2 99.1-19.8C92.6-19.1 77.6-18.4 64.1-18.4ZM22.3 2.4L27.3 2.4C30.4 2.4 32.8 0 32.8-3.1L32.8-13.5L16.8-18.4L16.8-3.1C16.7 0 19.2 2.4 22.3 2.4ZM100.9 2.4L105.9 2.4C109 2.4 111.4 0 111.4-3.1L111.4-18.4L95.4-13.5L95.4-3.1C95.4 0 97.8 2.4 100.9 2.4Z"/>
  </g>
  <g id="Bold-S" transform="matrix(1 0 0 1 2277.08 696)">
   <path d="M36.1-49.9C35.6-48 36.5-46.9 38.6-47C43.3-47.2 50-47.6 62.7-47.6C75.4-47.6 82.2-47.3 86.8-47C88.9-46.9 89.7-48 89.3-49.9C88.6-52.7 87.3-56.8 86.4-58.4C85.3-60.6 83.9-61.4 81.3-61.8C79.1-62.1 72.9-62.3 62.7-62.3C52.4-62.3 46.3-62.1 44.1-61.8C41.6-61.4 40.2-60.7 39-58.4C38.1-56.9 36.8-52.8 36.1-49.9ZM34.9-21.5C38.9-21.5 41.9-24.5 41.9-28.5C41.9-32.5 38.9-35.5 34.9-35.5C30.9-35.5 27.9-32.5 27.9-28.5C27.9-24.5 30.9-21.5 34.9-21.5ZM51.9-23.3L73.5-23.3C76.5-23.3 78.6-25.4 78.6-28.4C78.6-31.4 76.5-33.5 73.5-33.5L51.9-33.5C48.9-33.5 46.8-31.4 46.8-28.4C46.8-25.4 48.9-23.3 51.9-23.3ZM90.6-21.5C94.6-21.5 97.6-24.5 97.6-28.5C97.6-32.5 94.6-35.5 90.6-35.5C86.6-35.5 83.6-32.5 83.6-28.5C83.6-24.5 86.6-21.5 90.6-21.5ZM62.7-9C76.3-9 93.5-9.7 100.8-10.5C107.1-11.2 110.8-15 110.8-20.9L110.8-27.6C110.8-34.8 109.8-39 106-43.7L102.4-48.1C101-55 98.4-62.2 97.1-65C94.8-69.8 90.4-72.9 84.6-73.6C81.5-74 73.6-74.3 62.8-74.3C52-74.3 44.1-74 41-73.6C35.2-73 30.7-70 28.5-65.1C27.2-62.2 24.6-55 23.2-48.2L19.6-43.8C15.7-39.1 14.8-34.9 14.8-27.7L14.8-21C14.8-15 18.5-11.3 24.8-10.6C32-9.7 49.2-9 62.7-9ZM62.7-17.5C49.3-17.5 33.7-18.2 27.5-18.9C24.3-19.3 23-20.9 23-23.8L23-28.6C23-33.6 24.2-36 26.4-39L30.9-45C31.7-49.2 34.1-57.6 35.7-60.9C37-63.7 39.5-65.1 42.5-65.5C45.4-65.9 52.4-66.2 62.7-66.2C73-66.2 80.1-65.8 82.9-65.5C86-65.1 88.4-63.7 89.8-60.9C91.3-57.8 93.7-49.4 94.6-45L99.1-39C101.3-36.1 102.5-33.7 102.5-28.6L102.5-23.8C102.5-20.9 101.2-19.2 98-18.9C91.7-18.2 76.1-17.5 62.7-17.5ZM22 1.7L26.8 1.7C29.9 1.7 32.2-0.6 32.2-3.7L32.2-13.8L16.6-17.8L16.6-3.7C16.6-0.6 19 1.7 22 1.7ZM98.6 1.7L103.4 1.7C106.5 1.7 108.8-0.6 108.8-3.7L108.8-17.8L93.2-13.8L93.2-3.7C93.2-0.6 95.6 1.7 98.6 1.7Z"/>
  </g>
  <g id="Semibold-S" transform="matrix(1 0 0 1 1981.07 696)">
   <path d="M35.4-48.8C35-47.1 35.8-46.2 37.6-46.3C42.7-46.6 49.7-46.9 62.1-46.9C74.5-46.9 81.4-46.5 86.6-46.3C88.5-46.2 89.2-47.1 88.8-48.8C88.1-52 86.6-56.6 85.6-58.3C84.5-60.3 83.3-61 81.1-61.3C78.7-61.6 72.5-61.9 62.2-61.9C51.8-61.9 45.7-61.7 43.3-61.3C41.1-61 39.8-60.3 38.7-58.3C37.6-56.5 36.1-51.9 35.4-48.8ZM34.3-21.1C38.2-21.1 41.1-24 41.1-27.9C41.1-31.8 38.2-34.7 34.3-34.7C30.4-34.7 27.5-31.8 27.5-27.9C27.5-24.1 30.5-21.1 34.3-21.1ZM51.5-22.9L72.8-22.9C75.7-22.9 77.7-25 77.7-27.9C77.7-30.8 75.7-32.8 72.8-32.8L51.5-32.8C48.6-32.8 46.6-30.8 46.6-27.9C46.5-25 48.6-22.9 51.5-22.9ZM89.8-21.1C93.7-21.1 96.6-24 96.6-27.9C96.6-31.8 93.7-34.7 89.8-34.7C85.9-34.7 83-31.8 83-27.9C83-24.1 86-21.1 89.8-21.1ZM62.1-9.5C75.5-9.5 92.6-10.2 100-11C105.9-11.7 109.4-15.2 109.4-20.8L109.4-27.5C109.4-34.4 108.3-38.4 104.5-43.1L101-47.4C99.6-54.3 97-61.5 95.7-64.3C93.5-68.9 89.2-71.9 83.6-72.6C80.7-73 72.7-73.2 62.1-73.2C51.5-73.2 43.5-73 40.6-72.7C35-72 30.7-69 28.5-64.4C27.2-61.6 24.6-54.3 23.2-47.5L19.7-43.2C15.9-38.5 14.8-34.5 14.8-27.6L14.8-20.9C14.8-15.3 18.2-11.8 24.2-11.1C31.5-10.1 48.7-9.5 62.1-9.5ZM62.1-16.9C48.7-16.9 32.8-17.5 26.7-18.2C23.5-18.6 22.2-20.3 22.2-23.2L22.2-28.1C22.2-33.2 23.2-35.6 25.7-38.8L30-44.5C30.8-49.1 33.3-57.3 34.9-60.8C36.2-63.5 38.6-65 41.8-65.4C44.6-65.8 51.8-66.1 62.1-66.1C72.4-66.1 79.8-65.7 82.3-65.4C85.6-65 87.9-63.5 89.2-60.8C90.8-57.5 93.2-49.3 94.1-44.6L98.4-38.9C100.9-35.7 101.9-33.3 101.9-28.2L101.9-23.3C101.9-20.4 100.7-18.7 97.4-18.3C91.4-17.6 75.4-16.9 62.1-16.9ZM22.1 1.2L26.8 1.2C29.8 1.2 32.1-1.1 32.1-4.1L32.1-14L16.7-17.3L16.7-4C16.8-1 19.1 1.2 22.1 1.2ZM97.3 1.2L102 1.2C105 1.2 107.3-1.1 107.3-4.1L107.3-17.4L91.9-14.1L91.9-4C92-1 94.3 1.2 97.3 1.2Z"/>
  </g>
  <g id="Medium-S" transform="matrix(1 0 0 1 1685.06 696)">
   <path d="M34.6-47.9C34.2-46.3 34.9-45.6 36.6-45.7C42.1-46 49.2-46.4 61.3-46.4C73.4-46.4 80.6-46 86-45.7C87.7-45.6 88.4-46.3 88-47.9C87.2-51.3 85.6-56.3 84.5-58.2C83.5-60.1 82.4-60.7 80.4-61C77.8-61.4 71.7-61.6 61.3-61.6C50.8-61.6 44.7-61.3 42.2-61C40.2-60.7 39.1-60.1 38-58.2C37-56.3 35.4-51.3 34.6-47.9ZM33.7-20.9C37.5-20.9 40.3-23.8 40.3-27.5C40.3-31.2 37.4-34.1 33.7-34.1C29.9-34.1 27.1-31.2 27.1-27.5C27.1-23.8 29.9-20.9 33.7-20.9ZM50.9-22.7L71.9-22.7C74.7-22.7 76.7-24.7 76.7-27.5C76.7-30.3 74.7-32.3 71.9-32.3L50.9-32.3C48.1-32.3 46.1-30.3 46.1-27.5C46.1-24.7 48-22.7 50.9-22.7ZM89-20.9C92.8-20.9 95.6-23.8 95.6-27.5C95.6-31.2 92.7-34.1 89-34.1C85.2-34.1 82.4-31.2 82.4-27.5C82.4-23.8 85.3-20.9 89-20.9ZM61.4-9.8C74.6-9.8 91.8-10.4 99.1-11.3C104.8-11.9 108-15.2 108-20.6L108-27.3C108-34 106.9-37.8 103.1-42.6L99.8-46.8C98.4-53.7 95.8-60.9 94.5-63.7C92.4-68.2 88.2-71 82.8-71.7C80-72.1 71.9-72.3 61.5-72.3C51.1-72.3 42.8-72.2 40-71.9C34.6-71.2 30.4-68.4 28.3-63.9C27-61 24.4-53.8 23-46.9L19.7-42.7C15.9-37.9 14.8-34.1 14.8-27.4L14.8-20.7C14.8-15.3 18-12 23.7-11.4C31-10.5 48.1-9.8 61.4-9.8ZM61.4-16.5C48.1-16.5 31.8-17.1 25.8-17.8C22.6-18.2 21.4-19.9 21.4-22.8L21.4-27.7C21.4-32.9 22.4-35.2 25-38.7L29.2-44.2C30.1-49.1 32.5-57.1 34.2-60.7C35.4-63.3 37.8-64.9 41.1-65.2C43.7-65.5 51.1-65.9 61.4-65.9C71.7-65.9 79.2-65.5 81.6-65.2C85-64.8 87.3-63.2 88.6-60.6C90.2-57.1 92.7-49.1 93.6-44.1L97.8-38.6C100.5-35.1 101.4-32.7 101.4-27.6L101.4-22.7C101.4-19.8 100.2-18.1 97-17.7C90.9-17.1 74.6-16.5 61.4-16.5ZM21.9 0.9L26.6 0.9C29.6 0.9 31.9-1.4 31.9-4.3L31.9-14.1L16.7-16.9L16.7-4.3C16.7-1.4 19 0.9 21.9 0.9ZM96.1 0.9L100.7 0.9C103.7 0.9 106-1.4 106-4.3L106-16.9L90.8-14.1L90.8-4.3C90.8-1.4 93.1 0.9 96.1 0.9Z"/>
  </g>
  <g id="Regular-S" transform="matrix(1 0 0 1 1389.19 696)">
   <path d="M33.7-46.7C33.4-45.3 34-44.8 35.5-44.9C41.5-45.3 48.7-45.7 60.6-45.7C72.4-45.7 79.7-45.3 85.7-44.9C87.2-44.8 87.8-45.3 87.5-46.7C86.6-50.5 84.9-55.9 83.6-58C82.7-59.7 81.7-60.2 80-60.5C77.3-60.9 71.1-61.2 60.6-61.2C50.1-61.2 43.9-60.9 41.2-60.5C39.5-60.3 38.5-59.7 37.5-58C36.2-55.9 34.5-50.5 33.7-46.7ZM32.9-20.6C36.6-20.6 39.3-23.4 39.3-27C39.3-30.7 36.5-33.4 32.9-33.4C29.3-33.4 26.5-30.6 26.5-27C26.5-23.3 29.3-20.6 32.9-20.6ZM50.2-22.3L70.8-22.3C73.5-22.3 75.4-24.3 75.4-27C75.4-29.7 73.5-31.6 70.8-31.6L50.2-31.6C47.5-31.6 45.6-29.7 45.6-27C45.6-24.2 47.5-22.3 50.2-22.3ZM88.1-20.6C91.8-20.6 94.5-23.4 94.5-27C94.5-30.7 91.7-33.4 88.1-33.4C84.5-33.4 81.7-30.6 81.7-27C81.7-23.3 84.4-20.6 88.1-20.6ZM60.5-10.3C73.5-10.3 90.6-10.9 97.9-11.8C103.3-12.4 106.3-15.4 106.3-20.4L106.3-27.1C106.3-33.4 105.1-37.2 101.4-41.9L98.2-46.1C96.8-53 94.2-60.2 92.9-63C90.8-67.3 86.8-70 81.6-70.7C79-71 70.8-71.2 60.6-71.2C50.4-71.2 42.1-71 39.6-70.7C34.3-70.1 30.3-67.3 28.3-63C27-60.2 24.4-52.9 23-46.1L19.7-42C16-37.2 14.8-33.5 14.8-27.2L14.8-20.5C14.8-15.5 17.8-12.4 23.1-11.9C30.4-10.9 47.5-10.3 60.5-10.3ZM60.5-15.9C47.3-15.9 30.6-16.5 24.7-17.2C21.5-17.6 20.4-19.3 20.4-22.2L20.4-27.1C20.4-32.3 21.2-34.7 24.1-38.5L28.1-43.7C29-49 31.5-56.8 33.2-60.5C34.4-63 36.7-64.7 40.1-65C42.6-65.3 50.2-65.7 60.5-65.7C70.8-65.7 78.6-65.3 80.8-65C84.3-64.6 86.6-62.9 87.8-60.5C89.5-56.8 92-49 92.9-43.7L96.9-38.5C99.8-34.7 100.7-32.3 100.7-27.1L100.7-22.2C100.7-19.3 99.6-17.6 96.4-17.2C90.4-16.5 73.7-15.9 60.5-15.9ZM21.8 0.4L26.4 0.4C29.3 0.4 31.6-1.8 31.6-4.7L31.6-14.3L16.7-16.5L16.7-4.7C16.7-1.8 19 0.4 21.8 0.4ZM94.6 0.4L99.1 0.4C102 0.4 104.3-1.8 104.3-4.7L104.3-16.5L89.4-14.3L89.4-4.7C89.4-1.8 91.7 0.4 94.6 0.4Z"/>
  </g>
  <g id="Light-S" transform="matrix(1 0 0 1 1093.33 696)">
   <path d="M32.2-46.7C31.9-45.5 32.4-44.8 33.9-44.9C40.2-45.3 47.4-45.7 59.9-45.7C72.4-45.7 79.7-45.4 85.9-44.9C87.3-44.8 87.9-45.4 87.6-46.7C86.6-51.1 84.9-56.2 83.7-58.3C82.7-60.1 81.4-61 79.3-61.3C76.4-61.7 70.1-61.9 60-61.9C49.9-61.9 43.5-61.7 40.7-61.3C38.5-61 37.3-60.1 36.2-58.3C34.9-56.2 33.1-51 32.2-46.7ZM32.3-20.8C35.7-20.8 38.2-23.3 38.2-26.7C38.2-30.1 35.7-32.6 32.3-32.6C28.9-32.6 26.4-30.1 26.4-26.7C26.4-23.3 28.9-20.8 32.3-20.8ZM49.9-22.1L69.9-22.1C72.4-22.1 74.1-23.8 74.1-26.3C74.1-28.8 72.4-30.5 69.9-30.5L49.9-30.5C47.4-30.5 45.7-28.8 45.7-26.3C45.7-23.8 47.4-22.1 49.9-22.1ZM87.4-20.8C90.8-20.8 93.3-23.3 93.3-26.7C93.3-30.1 90.8-32.6 87.4-32.6C84-32.6 81.5-30.1 81.5-26.7C81.5-23.3 84.1-20.8 87.4-20.8ZM59.8-10.4C72.5-10.4 89.6-11 96.8-11.9C101.8-12.5 104.6-15.2 104.6-20L104.6-26.7C104.6-33.2 103.2-36.8 99.8-41.2L96.6-45.4C95.2-52.3 92.7-59.5 91.3-62.3C89.3-66.6 85.3-69.1 80.4-69.7C77.8-70 69.4-70.2 59.7-70.2C50.1-70.2 41.6-70 39-69.7C34.1-69.1 30.2-66.6 28.1-62.3C26.8-59.5 24.2-52.2 22.8-45.4L19.6-41.2C16.2-36.8 14.8-33.2 14.8-26.7L14.8-20C14.8-15.2 17.7-12.5 22.6-11.9C30-11.1 47.1-10.4 59.8-10.4ZM59.8-14.9C46.9-14.9 30.2-15.5 23.9-16.3C20.6-16.7 19.4-18.3 19.4-21.3L19.4-26.8C19.4-32.1 20.3-34.6 23.3-38.6L27.2-43.7C28.3-49.5 30.8-57.2 32.3-60.5C33.6-63.2 36.1-64.9 39.7-65.4C42.1-65.7 49.9-66 59.8-66C69.7-66 77.6-65.7 79.9-65.4C83.6-64.9 86-63.2 87.3-60.5C88.9-57.1 91.4-49.4 92.4-43.7L96.3-38.6C99.3-34.7 100.2-32.1 100.2-26.8L100.2-21.3C100.2-18.4 99-16.7 95.7-16.3C89.4-15.5 72.6-14.9 59.8-14.9ZM21.9 0L26.4 0C29.2 0 31.4-2.2 31.4-4.9L31.4-13.6L16.9-15.6L16.9-5C16.9-2.2 19.1 0 21.9 0ZM93.3 0L97.7 0C100.5 0 102.7-2.2 102.7-4.9L102.7-15.7L88.2-13.7L88.2-5C88.3-2.2 90.5 0 93.3 0Z"/>
  </g>
  <g id="Thin-S" transform="matrix(1 0 0 1 797.822 696)">
   <path d="M29.7-46.7C29.5-45.7 29.8-44.9 31.2-45C37.9-45.5 45-45.7 58.4-45.7C71.9-45.7 79-45.4 85.6-45C87-44.9 87.4-45.7 87.1-46.7C85.9-51.8 84.3-56.6 83-58.7C81.9-60.7 80.3-62 77.5-62.3C74.5-62.7 67.8-62.9 58.3-62.9C48.8-62.9 42.1-62.7 39.1-62.3C36.3-62 34.7-60.7 33.6-58.7C32.6-56.6 30.9-51.8 29.7-46.7ZM30.9-21.1C33.9-21.1 36.1-23.3 36.1-26.3C36.1-29.3 33.9-31.5 30.9-31.5C27.9-31.5 25.7-29.3 25.7-26.3C25.7-23.3 27.9-21.1 30.9-21.1ZM48.9-21.9L68-21.9C70.2-21.9 71.7-23.4 71.7-25.6C71.7-27.8 70.2-29.3 68-29.3L48.9-29.3C46.7-29.3 45.2-27.8 45.2-25.6C45.3-23.4 46.7-21.9 48.9-21.9ZM86.1-21.1C89.1-21.1 91.3-23.3 91.3-26.3C91.3-29.3 89.1-31.5 86.1-31.5C83.1-31.5 80.9-29.3 80.9-26.3C80.9-23.3 83.1-21.1 86.1-21.1ZM58.5-10.6C70.8-10.6 87.8-11.2 95-12.1C99.5-12.6 102.2-14.9 102.2-19.4L102.2-26.1C102.2-32.9 100.6-36.2 97.6-40.1L94.3-44.5C92.9-51.4 90.4-58.6 89.1-61.4C87.1-65.7 83.2-67.8 78.8-68.4C76-68.8 67.3-69 58.5-69C49.6-69 40.9-68.8 38.3-68.5C33.9-67.9 30-65.8 28-61.5C26.7-58.7 24.1-51.4 22.8-44.6L19.5-40.2C16.5-36.2 14.8-33 14.8-26.2L14.8-19.5C14.8-15 17.5-12.7 22-12.2C29.1-11.3 46.1-10.6 58.5-10.6ZM58.5-13.6C46.1-13.6 29.3-14.2 22.6-15C19.1-15.4 17.7-16.9 17.7-19.9L17.7-26.1C17.7-31.5 18.6-34.2 21.8-38.4L25.5-43.3C26.7-49.7 29.3-57.2 30.7-60.2C32.2-63.2 34.8-65 38.7-65.5C41-65.8 49-66 58.5-66C67.9-66 76-65.7 78.3-65.4C82.2-64.9 84.9-63.1 86.3-60.1C87.7-57.1 90.2-49.6 91.5-43.2L95.2-38.3C98.3-34.2 99.2-31.4 99.2-26L99.2-19.8C99.2-16.8 97.8-15.3 94.4-14.9C87.6-14.2 70.8-13.6 58.5-13.6ZM21.5-0.6L25.8-0.6C28.5-0.6 30.6-2.7 30.6-5.4L30.6-13L16.7-14.8L16.7-5.4C16.7-2.8 18.8-0.6 21.5-0.6ZM91.1-0.6L95.4-0.6C98.1-0.6 100.2-2.7 100.2-5.4L100.2-14.8L86.3-13L86.3-5.4C86.3-2.7 88.4-0.6 91.1-0.6Z"/>
  </g>
  <g id="Ultralight-S" transform="matrix(1 0 0 1 501.661 696)">
   <path d="M28.7-46.6C28.5-45.7 28.8-44.8 30.1-44.9C37-45.4 44-45.6 58-45.6C72-45.6 79-45.3 85.8-44.9C87.2-44.8 87.5-45.7 87.3-46.6C86.1-52.1 84.4-56.7 83.2-58.8C82-60.9 80.2-62.4 77.1-62.7C74-63.1 67.1-63.2 58-63.2C48.8-63.2 41.9-63 38.9-62.7C35.8-62.3 34-60.9 32.8-58.8C31.6-56.8 29.9-52.2 28.7-46.6ZM30.4-21.3C33.2-21.3 35.2-23.4 35.2-26.2C35.2-29 33.1-31 30.4-31C27.6-31 25.6-28.9 25.6-26.2C25.6-23.3 27.6-21.3 30.4-21.3ZM48.6-21.8L67.3-21.8C69.4-21.8 70.7-23.1 70.7-25.2C70.7-27.3 69.3-28.6 67.3-28.6L48.6-28.6C46.6-28.6 45.2-27.2 45.2-25.2C45.3-23.1 46.6-21.8 48.6-21.8ZM85.6-21.3C88.4-21.3 90.4-23.4 90.4-26.2C90.4-29 88.3-31 85.6-31C82.8-31 80.8-28.9 80.8-26.2C80.8-23.3 82.8-21.3 85.6-21.3ZM58-10.7C70.1-10.7 87.1-11.3 94.3-12.2C98.5-12.7 101.1-14.8 101.1-19.1L101.1-25.8C101.1-32.7 99.4-35.9 96.6-39.6L93.1-44.1C91.7-51 89.2-58.3 87.9-61C85.9-65.3 82-67.2 77.9-67.8C75.3-68.1 66.5-68.3 58-68.3C49.5-68.3 40.7-68.1 38-67.8C33.9-67.3 30-65.3 28-61C26.7-58.2 24.1-50.9 22.8-44.1L19.4-39.7C16.6-36 14.8-32.8 14.8-25.9L14.8-19.2C14.8-14.9 17.4-12.8 21.6-12.3C28.9-11.3 45.9-10.7 58-10.7ZM58-12.9C45.9-12.9 29-13.5 22-14.4C18.4-14.8 17-16.2 17-19.3L17-25.9C17-31.4 17.9-34.2 21.2-38.4L24.8-43.2C26.1-50 28.7-57.3 30-60.1C31.5-63.2 34.3-65.1 38.3-65.6C40.7-65.9 48.8-66.1 58-66.1C67.2-66.1 75.3-65.8 77.6-65.6C81.7-65.1 84.5-63.2 85.9-60.1C87.2-57.3 89.8-49.9 91.1-43.2L94.8-38.4C98-34.2 98.9-31.3 98.9-25.9L98.9-19.3C98.9-16.2 97.5-14.8 93.9-14.4C86.9-13.6 70-12.9 58-12.9ZM21.5-0.9L25.7-0.9C28.3-0.9 30.4-3 30.4-5.6L30.4-12.6L16.8-14.3L16.8-5.5C16.8-3 18.9-0.9 21.5-0.9ZM90.2-0.9L94.4-0.9C97.1-0.9 99.1-3 99.1-5.6L99.1-14.4L85.5-12.7L85.5-5.7C85.5-3 87.5-0.9 90.2-0.9Z"/>
  </g>
 </g>
</svg>
