<?xml version="1.0" encoding="utf-8"?>
<!-- Generator: Adobe Illustrator 27.1.1, SVG Export Plug-In . SVG Version: 6.00 Build 0)  -->
<svg version="1.1" id="Layer_1" xmlns="http://www.w3.org/2000/svg" xmlns:xlink="http://www.w3.org/1999/xlink" x="0px" y="0px"
	 viewBox="0 0 3300 2200" style="enable-background:new 0 0 3300 2200;" xml:space="preserve">
<style type="text/css">
	.st0{fill:#FFFFFF;}
	.st1{fill:none;stroke:#000000;stroke-width:0.5;}
	.st2{font-family:'Helvetica-Bold';}
	.st3{font-size:13px;}
	.st4{font-family:'Helvetica';}
	.st5{fill:none;stroke:#00AEEF;stroke-width:0.5;}
	.st6{fill:#27AAE1;}
	.st7{fill:none;stroke:#27AAE1;stroke-width:0.5;}
	.st8{display:none;}
	.st9{display:inline;}
	.st10{fill:none;stroke:#000000;stroke-width:5;stroke-miterlimit:10;}
	.st11{fill:none;stroke:#000000;stroke-width:9;stroke-miterlimit:10;}
	.st12{fill:none;stroke:#000000;stroke-width:6;stroke-miterlimit:10;}
</style>
<g id="Notes">
	<rect id="artboard" class="st0" width="3300" height="2200"/>
	<line class="st1" x1="263" y1="292" x2="3036" y2="292"/>
	<text transform="matrix(1 0 0 1 263 322)" class="st2 st3">Weight/Scale Variations</text>
	<text transform="matrix(1 0 0 1 534.0633 322)" class="st4 st3">Ultralight</text>
	<text transform="matrix(1 0 0 1 843.7775 322)" class="st4 st3">Thin</text>
	<text transform="matrix(1 0 0 1 1139.035 322)" class="st4 st3">Light</text>
	<text transform="matrix(1 0 0 1 1427.0773 322)" class="st4 st3">Regular</text>
	<text transform="matrix(1 0 0 1 1723.4419 322)" class="st4 st3">Medium</text>
	<text transform="matrix(1 0 0 1 2016.1719 322)" class="st4 st3">Semibold</text>
	<text transform="matrix(1 0 0 1 2326.9705 322)" class="st4 st3">Bold</text>
	<text transform="matrix(1 0 0 1 2618.2659 322)" class="st4 st3">Heavy</text>
	<text transform="matrix(1 0 0 1 2917.5054 322)" class="st4 st3">Black</text>
	<line class="st1" x1="263" y1="1903" x2="3036" y2="1903"/>
	<g transform="matrix(1 0 0 1 263 1933)">
		<path d="M9.2,0.8c4.3,0,7.9-3.6,7.9-7.9S13.5-15,9.2-15s-7.9,3.6-7.9,7.9C1.4-2.7,5,0.8,9.2,0.8z M9.2-0.7c-3.5,0-6.4-2.8-6.4-6.4
			s2.8-6.4,6.4-6.4s6.4,2.8,6.4,6.4S12.8-0.7,9.2-0.7z M5.7-7.1c0,0.4,0.3,0.7,0.8,0.7h2.1v2.1c0,0.4,0.3,0.7,0.7,0.7S10-3.9,10-4.3
			v-2.1h2.1c0.4,0,0.7-0.3,0.7-0.7c0-0.4-0.3-0.7-0.7-0.7H10v-2.1c0-0.4-0.3-0.8-0.7-0.8s-0.7,0.3-0.7,0.8v2.1H6.4
			C6-7.8,5.7-7.5,5.7-7.1z"/>
	</g>
	<g transform="matrix(1 0 0 1 281.867 1933)">
		<path d="M11.7,2.9c5.4,0,10-4.5,10-10c0-5.4-4.5-10-10-10c-5.4,0-10,4.5-10,10C1.7-1.6,6.3,2.9,11.7,2.9z M11.7,1.2
			c-4.6,0-8.3-3.7-8.3-8.3s3.7-8.3,8.3-8.3S20-11.7,20-7.1C20-2.4,16.3,1.2,11.7,1.2z M7.2-7.1c0,0.5,0.3,0.8,0.8,0.8h2.9v2.9
			c0,0.5,0.3,0.8,0.8,0.8s0.8-0.3,0.8-0.8v-2.9h2.9c0.5,0,0.8-0.3,0.8-0.8s-0.3-0.8-0.8-0.8h-2.9v-2.9c0-0.5-0.3-0.8-0.8-0.8
			s-0.8,0.3-0.8,0.8v2.9H8C7.5-7.9,7.2-7.5,7.2-7.1z"/>
	</g>
	<g transform="matrix(1 0 0 1 305.646 1933)">
		<path d="M15,5.7c7,0,12.7-5.8,12.7-12.7c0-7-5.8-12.7-12.7-12.7C8-19.8,2.3-14,2.3-7.1C2.3-0.1,8,5.7,15,5.7z M15,3.8
			C8.9,3.8,4.1-1,4.1-7.1C4.1-13.1,8.9-18,15-18c6,0,10.9,4.9,10.9,10.9C25.9-1,21,3.8,15,3.8z M9.2-7.1c0,0.5,0.4,0.9,0.9,0.9H14v4
			c0,0.5,0.4,0.9,0.9,0.9s0.9-0.4,0.9-0.9v-4h4c0.5,0,0.9-0.4,0.9-0.9S20.3-8,19.8-8h-4v-3.9c0-0.5-0.4-0.9-0.9-0.9S14-12.4,14-11.9
			V-8h-3.9C9.6-8,9.2-7.6,9.2-7.1z"/>
	</g>
	<text transform="matrix(1 0 0 1 263 1953)" class="st2 st3">Design Variations</text>
	<text transform="matrix(1 0 0 1 263 1971)" class="st4 st3">Symbols are supported in up to nine weights and three scales.</text>
	<text transform="matrix(1 0 0 1 263 1989)" class="st4 st3">For optimal layout with text and other symbols, vertically align</text>
	<text transform="matrix(1 0 0 1 263 2007)" class="st4 st3">symbols with the adjacent text.</text>
	<line class="st5" x1="776" y1="1919" x2="776" y2="1933"/>
	<g transform="matrix(1 0 0 1 776 1933)">
		<path d="M3.3,0.2c0.5,0,0.8-0.2,1-0.7L5.5-4h5.8l1.3,3.4C12.7,0,13,0.2,13.5,0.2s0.8-0.3,0.8-0.8c0-0.2,0-0.3-0.1-0.5L9.7-13.4
			C9.4-14,9-14.3,8.4-14.3s-1,0.3-1.2,0.9L2.6-1.2C2.5-1,2.5-0.8,2.5-0.6C2.5-0.1,2.8,0.2,3.3,0.2z M6-5.5l2.4-6.6l0,0l2.4,6.6
			C10.8-5.5,6-5.5,6-5.5z"/>
	</g>
	<line class="st5" x1="793.2" y1="1919" x2="793.2" y2="1933"/>
	<text transform="matrix(1 0 0 1 776 1953)" class="st2 st3">Margins</text>
	<text transform="matrix(1 0 0 1 776 1971)" class="st4 st3">Leading and trailing margins on the left and right side of each symbol</text>
	<text transform="matrix(1 0 0 1 776 1989)" class="st4 st3">can be adjusted by modifying the x-location of the margin guidelines.</text>
	<text transform="matrix(1 0 0 1 776 2007)" class="st4 st3">Modifications are automatically applied proportionally to all</text>
	<text transform="matrix(1 0 0 1 776 2025)" class="st4 st3">scales and weights.</text>
	<g transform="matrix(1 0 0 1 1289 1933)">
		<path d="M2.8,1.9l1.7,1.7c0.9,0.9,1.8,0.8,2.8-0.2L18-8.4l-1-1L6.4,2.3C6,2.7,5.7,2.8,5.2,2.3L4.1,1.1C3.6,0.7,3.7,0.3,4.1,0
			l11.5-10.8l-1-1L3-0.9C2.1,0,2,1,2.8,1.9z M9.3-16.3c-0.4,0.4-0.4,1-0.2,1.4s0.7,0.6,1.3,0.4c1.5-0.3,3-0.4,4.4,0.5l-0.6,1.5
			c-0.3,0.8-0.2,1.4,0.4,2l2.3,2.3c0.5,0.5,0.9,0.5,1.5,0.4l1-0.2l0.7,0.7v0.6c0,0.5,0.1,0.9,0.6,1.4l0.8,0.7c0.5,0.5,1.1,0.5,1.6,0
			L26-7.5C26.5-8,26.4-8.6,26-9l-1-0.9c-0.5-0.5-0.8-0.6-1.3-0.6h-0.6l-0.6-0.6l0.2-1.1c0.1-0.6,0-1-0.6-1.6L19.9-16
			C16.6-19.3,12.1-19.2,9.3-16.3z M10.8-16c2.4-1.8,5.7-1.5,7.9,0.8l2.4,2.4c0.2,0.2,0.3,0.4,0.2,0.8L21-10.5L22.5-9l1-0.1
			c0.3,0,0.3,0,0.5,0.2l0.6,0.6l-2.4,2.4l-0.6-0.6c-0.2-0.2-0.2-0.3-0.2-0.5l0.1-1L20-9.5l-1.5,0.3c-0.3,0.1-0.5,0-0.7-0.2l-2-2
			c-0.3-0.2-0.3-0.4-0.1-0.8l0.9-2.1C15-15.8,13-16.4,11-15.8C10.7-15.7,10.6-15.8,10.8-16z"/>
	</g>
	<text transform="matrix(1 0 0 1 1289 1953)" class="st2 st3">Exporting</text>
	<text transform="matrix(1 0 0 1 1289 1971)" class="st4 st3">Symbols should be outlined when exporting to ensure the</text>
	<text transform="matrix(1 0 0 1 1289 1989)" class="st4 st3">design is preserved when submitting to Xcode.</text>
	<text id="template-version" transform="matrix(1 0 0 1 2952.4141 1933)" class="st4 st3">Template v.4.0</text>
	<text transform="matrix(1 0 0 1 2865.4575 1951)" class="st4 st3">Requires Xcode 14 or greater</text>
	<text id="descriptive-name" transform="matrix(1 0 0 1 2898.7129 1969)" class="st4 st3">Generated from bolt.car</text>
	<text transform="matrix(1 0 0 1 2912.4111 1987)" class="st4 st3">Typeset at 100 points</text>
	<text transform="matrix(1 0 0 1 263 726)" class="st4 st3">Small</text>
	<text transform="matrix(1 0 0 1 263 1156)" class="st4 st3">Medium</text>
	<text transform="matrix(1 0 0 1 263 1586)" class="st4 st3">Large</text>
</g>
<g id="Guides">
	<g id="H-reference" transform="matrix(1 0 0 1 339 696)">
		<path class="st6" d="M1,0h2.6l25.7-67.1H30v-3.3h-1.9L1,0z M11.7-24.5H47l-0.8-2.2H12.4L11.7-24.5z M55.1,0h2.6L30.6-70.5h-1.2
			v3.3L55.1,0z"/>
	</g>
	<line id="Baseline-S" class="st7" x1="263" y1="696" x2="3036" y2="696"/>
	<line id="Capline-S" class="st7" x1="263" y1="625.5" x2="3036" y2="625.5"/>
	<g id="H-reference_00000145018269667135619830000005543126124872748710_" transform="matrix(1 0 0 1 339 1126)">
		<path class="st6" d="M1,0h2.6l25.7-67.1H30v-3.3h-1.9L1,0z M11.7-24.5H47l-0.8-2.2H12.4L11.7-24.5z M55.1,0h2.6L30.6-70.5h-1.2
			v3.3L55.1,0z"/>
	</g>
	<line id="Baseline-M" class="st7" x1="263" y1="1126" x2="3036" y2="1126"/>
	<line id="Capline-M" class="st7" x1="263" y1="1055.5" x2="3036" y2="1055.5"/>
	<g id="H-reference_00000179622612289126554530000017544532022482279819_" transform="matrix(1 0 0 1 339 1556)">
		<path class="st6" d="M1,0h2.6l25.7-67.1H30v-3.3h-1.9L1,0z M11.7-24.5H47l-0.8-2.2H12.4L11.7-24.5z M55.1,0h2.6L30.6-70.5h-1.2
			v3.3L55.1,0z"/>
	</g>
	<line id="Baseline-L" class="st7" x1="263" y1="1556" x2="3036" y2="1556"/>
	<line id="Capline-L" class="st7" x1="263" y1="1485.5" x2="3036" y2="1485.5"/>
	<line id="left-margin-Regular-M" class="st5" x1="1379.6" y1="1030.8" x2="1379.6" y2="1150.1"/>
	<line id="right-margin-Regular-M" class="st5" x1="1520.1" y1="1030.8" x2="1520.1" y2="1150.1"/>
</g>
<g id="Symbols">
	<g id="Semibold-L">
		<path id="Headlight_00000082328230609564413000000012842650162881119898_" d="M1977.1,1525.4c3.1-0.1,18.1,1.2,24.2,1.8
			c1.7,0.1,6.4,1.7,6.4,1.7s-9.2-11.7-13.3-13.9c-2.9-1.6-9.5-2.2-12.7-2.3c-1.4,0-4.3-0.4-5.7,0c-0.6,0.3-2.1,0.9-2.6,1.4
			c-1,1.2-1.9,3.4-2.2,4.7c-0.9,4.4-0.9,8.8-0.6,14.2c0.3,4,1.4,12.5,2.5,16c0.1,0.5,0.9,1.6,1.4,1.8c0.9,0.5,1.4,0.3,2.1-0.3
			c0.4-0.4,1.2-0.9,1-1.6c-0.4-3.9-1.8-11.7-2-16.1c0-1.7-0.4-5.2,0.1-6.5C1976,1525.9,1976.6,1525.5,1977.1,1525.4z"/>
		<path id="Side_mirror_00000170245168149057781130000011275629250889809033_" d="M1969.5,1499.7c0,0-10.3-1.4-12.7-2.2
			c-1.2-0.4-2.1-3.8-2.1-4.9c0.1-1.2,0.8-2.1,1.3-2.6c2.3-1.9,8.7-2.6,11.6-2.5c0.7,0,2.1,0.7,2.5,1.2c0.8,1.3,0.1,6.1,0.1,6.1
			l3.5,5.6L1969.5,1499.7z"/>
		<path d="M2112.9,1571h-138.1c0,0-0.9-10.5,0.4-12.3c2.1-3,9.8-5.6,13.4-6c11.8-1.2,55.4-1.2,55.4-1.2s43.5-0.1,55.4,1.2
			c3.6,0.4,11.3,3,13.4,6C2113.8,1560.5,2112.9,1571,2112.9,1571z"/>
		<path d="M1961,1566.5l20.9,3.1c0,0,0.1,9.6-0.9,9.6c-8.8,0-17.2,0-22.8,0c-0.9,0-2.3-0.4-2.7-1.2c-1.7-3.5-1.6-18.1-1.6-18.1
			L1961,1566.5z"/>
		<path d="M1990.1,1574.7c-22.6,0-30.4-1-33.7-5.2c-2.6-3.2-2.7-8.8-2.9-24.2c0-3,0-6.2-0.1-9.5c-0.1-8.4-0.3-16.5,1.2-22.5
			c2.9-10.9,11.2-17.7,22.5-18.5c1.7-4.8,4.4-10.4,6.5-14.6c9.6-19.1,17.4-20.2,31.3-20.5h1.9c13.8-0.4,39.8-0.4,53.6,0h1.9
			c13.9,0.4,21.7,1.4,31.3,20.5c2.2,4.4,4.9,9.8,6.5,14.6c11.3,0.8,19.6,7.5,22.5,18.5c1.6,6,1.4,13.9,1.2,22.5l0,0
			c0,3.2-0.1,6.5-0.1,9.5c-0.1,15.5-0.3,20.9-2.9,24.2c-3.8,4.8-13.3,5.5-44.2,5.2c-3.6,0-7.2,0-10.4,0h-65.6c-3.2,0-6.9,0-10.4,0
			C1996.8,1574.7,1993.3,1574.7,1990.1,1574.7z M1966.1,1563.1L1966.1,1563.1L1966.1,1563.1z M2121.6,1563.1L2121.6,1563.1
			L2121.6,1563.1z M2011.1,1562.8h65.7c3.4,0,6.9,0,10.5,0c11.1,0.1,29,0.3,34.6-1.2c0.5-3.2,0.5-10.5,0.5-16.6c0-3.1,0-6.4,0.1-9.6
			c0.1-7.7,0.3-14.9-0.8-19.2c-1.7-6.4-6-9.6-12.7-9.8c-4.3-0.1-7.9-2.9-9.2-7c-1.3-4.2-4-9.5-6.2-13.9c-7-13.8-9.8-13.9-21.2-14.2
			h-2.1c-13.5-0.4-39.3-0.4-52.8,0h-2.1c-11.6,0.3-14.3,0.4-21.2,14.2c-2.1,4-4.9,9.8-6.2,13.9c-1.3,4-4.9,6.9-9.2,6.9
			c-6.8,0.1-11.1,3.5-12.7,9.8c-1.2,4.4-1,12-0.9,19.2c0.1,3.2,0.1,6.5,0.1,9.6c0,6.1,0.1,13.4,0.5,16.6c5.6,1.4,23.5,1.3,34.6,1.2
			C2004.2,1563,2007.7,1562.8,2011.1,1562.8z M2123,1561.4L2123,1561.4L2123,1561.4z M1964.8,1561.4L1964.8,1561.4z M2110.9,1496
			L2110.9,1496L2110.9,1496z M1978.4,1494.7L1978.4,1494.7L1978.4,1494.7z M2109.2,1494.7L2109.2,1494.7L2109.2,1494.7z"/>
		<path id="Headlight_00000000211721878245737780000017630197445179461279_" d="M2110.5,1525.4c-3.1-0.1-18.1,1.2-24.2,1.8
			c-1.7,0.1-6.4,1.7-6.4,1.7s9.2-11.7,13.3-13.9c2.9-1.6,9.5-2.2,12.7-2.3c1.4,0,4.3-0.4,5.7,0c0.7,0.3,2.1,0.9,2.6,1.4
			c1,1.2,1.9,3.4,2.2,4.7c0.9,4.4,0.9,8.8,0.6,14.2c-0.3,4-1.4,12.5-2.5,16c-0.1,0.5-0.9,1.6-1.4,1.8c-0.9,0.5-1.4,0.3-2.1-0.3
			c-0.4-0.4-1.2-0.9-1-1.6c0.4-3.9,1.8-11.7,1.9-16.1c0-1.7,0.4-5.2-0.1-6.5C2111.8,1525.9,2111,1525.5,2110.5,1525.4z"/>
		<path d="M2113.9,1500.3l3.5-5.6c0,0-0.6-4.8,0.1-6.1c0.4-0.5,1.8-1.2,2.5-1.2c3-0.1,9.4,0.5,11.6,2.5c0.5,0.5,1.3,1.4,1.3,2.6
			c0.1,1.2-0.9,4.6-2.1,4.9c-2.5,0.8-12.7,2.2-12.7,2.2L2113.9,1500.3z"/>
		<path id="Tire_00000058587914886662140870000009944566317284346547_" d="M2133.8,1560c0,0,0.1,14.6-1.6,18.1
			c-0.4,0.8-1.8,1.2-2.7,1.2c-5.6,0-13.9,0-22.8,0c-1,0-0.9-9.6-0.9-9.6l20.9-3.1L2133.8,1560z"/>
		<path d="M2023.7,1513.4c0,1.3,1,2.3,2.3,2.3h15l-7.9,21.1c-1.2,3.2,2.3,5.1,4.4,2.5l24.7-30.6c0.5-0.6,0.9-1.3,0.9-1.9
			c0-1.3-1.2-2.2-2.3-2.2h-14.8l7.9-21.1c1.2-3.2-2.2-5.1-4.4-2.5l-24.7,30.5C2024.1,1512.1,2023.7,1512.8,2023.7,1513.4z"/>
	</g>
	<g id="Medium-L">
		<path id="Headlight_00000082363313924420561590000012592391277760414622_" d="M1680.1,1525.3c3.1-0.1,18.1,1.2,24.2,1.8
			c1.7,0.1,6.4,1.7,6.4,1.7s-9.2-11.7-13.3-13.9c-2.9-1.6-9.5-2.2-12.7-2.3c-1.4,0-4.3-0.4-5.7,0c-0.6,0.3-2.1,0.9-2.6,1.4
			c-1,1.2-1.9,3.4-2.2,4.7c-0.9,4.4-0.9,8.8-0.6,14.2c0.3,4,1.4,12.5,2.5,16c0.1,0.5,0.9,1.6,1.4,1.8c0.9,0.5,1.4,0.3,2.1-0.3
			c0.4-0.4,1.2-0.9,1-1.6c-0.4-3.9-1.8-11.7-2-16.1c0-1.7-0.4-5.2,0.1-6.5C1678.9,1525.8,1679.6,1525.4,1680.1,1525.3z"/>
		<path id="Side_mirror_00000152979257891332429120000012123720567880684199_" d="M1672.4,1500c0,0-10.3-1.4-12.7-2.2
			c-1.2-0.4-2.1-3.8-2.1-4.9c0.1-1.2,0.8-2.1,1.3-2.6c2.3-1.9,8.7-2.6,11.6-2.5c0.7,0,2.1,0.7,2.5,1.2c0.8,1.3,0.1,6.1,0.1,6.1
			l3.5,5.6L1672.4,1500z"/>
		<path d="M1815.8,1570.9h-138.1c0,0-0.9-10.5,0.4-12.3c2.1-3,9.8-5.6,13.4-6c11.8-1.2,55.4-1.2,55.4-1.2s43.6-0.1,55.4,1.2
			c3.6,0.4,11.3,3,13.4,6C1816.9,1560.4,1815.8,1570.9,1815.8,1570.9z"/>
		<path d="M1665.3,1566.4l20.9,3.1c0,0,0.1,9.6-0.9,9.6c-8.8,0-17.2,0-22.8,0c-0.9,0-2.3-0.4-2.7-1.2c-1.7-3.5-1.6-18.1-1.6-18.1
			L1665.3,1566.4z"/>
		<path d="M1800.7,1573.9c-3.2,0-6.8,0-10.7,0c-3.6,0-7.2,0-10.4,0H1714c-3.2,0-6.9,0-10.4,0c-30.5,0.3-40-0.4-43.7-4.9
			c-2.3-3-2.6-8.3-2.7-23.8c0-3,0-6.2-0.1-9.5c-0.1-8.4-0.3-16.4,1.2-22.2c3.9-15.2,16.4-17.7,22.4-18.1c1.7-4.9,4.5-10.7,6.6-14.8
			c9.5-18.7,17-19.9,30.8-20.2h2c13.8-0.4,39.8-0.4,53.6,0h1.9c13.7,0.4,21.3,1.4,30.8,20.2c2.3,4.5,5.1,10,6.6,14.8
			c6,0.3,18.3,2.9,22.4,18.1c1.6,5.8,1.3,13.8,1.2,22.4l0,0c0,3.2-0.1,6.5-0.1,9.5c-0.1,15.5-0.4,20.8-2.7,23.8
			C1830.6,1573,1823,1573.9,1800.7,1573.9z M1714,1563.4h65.6c3.4,0,6.9,0,10.5,0c11.4,0.1,30,0.3,35.2-1.3
			c0.5-3.1,0.7-10.8,0.7-17.2c0-3.1,0-6.4,0.1-9.6l0,0c0.1-7.7,0.3-15.1-0.9-19.5c-1.7-6.6-6.2-10.1-13.4-10.3
			c-3.9-0.1-7.4-2.7-8.6-6.5c-1.3-4.2-4-9.6-6.2-13.9c-7.2-14.2-10.3-14.3-21.8-14.6h-2.1c-13.7-0.4-39.3-0.4-52.9,0h-2.1
			c-11.6,0.3-14.7,0.4-21.7,14.4c-2.1,4.2-4.9,9.8-6.2,14c-1.2,3.8-4.7,6.4-8.6,6.5c-7.1,0.1-11.6,3.6-13.4,10.3
			c-1.2,4.4-1,12.1-0.9,19.5c0.1,3.2,0.1,6.5,0.1,9.6c0,6.4,0.1,14.2,0.7,17.2c5.2,1.6,23.8,1.4,35.2,1.3
			C1707.1,1563.5,1710.7,1563.4,1714,1563.4z M1668.5,1563.1L1668.5,1563.1L1668.5,1563.1z M1667.4,1562L1667.4,1562z
			 M1813.2,1496.1L1813.2,1496.1L1813.2,1496.1z"/>
		<path id="Headlight_00000137812606289935368280000002340863010240306820_" d="M1813.5,1525.3c-3.1-0.1-18.1,1.2-24.2,1.8
			c-1.7,0.1-6.4,1.7-6.4,1.7s9.2-11.7,13.3-13.9c2.9-1.6,9.5-2.2,12.7-2.3c1.4,0,4.3-0.4,5.7,0c0.7,0.3,2.1,0.9,2.6,1.4
			c1,1.2,2,3.4,2.2,4.7c0.9,4.4,0.9,8.8,0.7,14.2c-0.3,4-1.4,12.5-2.5,16c-0.1,0.5-0.9,1.6-1.4,1.8c-0.9,0.5-1.4,0.3-2.1-0.3
			c-0.4-0.4-1.2-0.9-1-1.6c0.4-3.9,1.8-11.7,1.9-16.1c0-1.7,0.4-5.2-0.1-6.5C1814.8,1525.8,1814,1525.4,1813.5,1525.3z"/>
		<path d="M1816.9,1500.6l3.5-5.6c0,0-0.7-4.8,0.1-6.1c0.4-0.5,1.8-1.2,2.5-1.2c3-0.1,9.4,0.5,11.6,2.5c0.5,0.5,1.3,1.4,1.3,2.6
			c0.1,1.2-0.9,4.6-2.1,4.9c-2.5,0.8-12.7,2.2-12.7,2.2L1816.9,1500.6z"/>
		<path id="Tire_00000160178626152581144220000004996974974661147545_" d="M1835.5,1559.9c0,0,0.1,14.6-1.6,18.1
			c-0.4,0.8-1.8,1.2-2.7,1.2c-5.6,0-13.9,0-22.8,0c-1,0-0.9-9.6-0.9-9.6l20.9-3.1L1835.5,1559.9z"/>
		<path d="M1726.8,1513.9c0,1.3,1,2.2,2.2,2.2h15.2l-8.1,21.7c-1.2,3.1,2.2,4.8,4.2,2.3l25-31.1c0.5-0.5,0.9-1.3,0.9-1.9
			c0-1.2-1-2.2-2.3-2.2h-15.2l8.1-21.7c1.2-3.1-2.2-4.9-4.2-2.3l-25.1,31.1C1727,1512.7,1726.8,1513.3,1726.8,1513.9z"/>
	</g>
	<g id="Regular-L">
		<path id="Headlight_00000095310526408724200820000006662198109318990775_" d="M1383.1,1525.2c3.1-0.1,18.1,1.2,24.2,1.8
			c1.7,0.1,6.4,1.7,6.4,1.7s-9.2-11.7-13.3-13.9c-2.9-1.6-9.5-2.2-12.7-2.3c-1.4,0-4.3-0.4-5.7,0c-0.7,0.3-2.1,0.9-2.6,1.4
			c-1,1.2-2,3.4-2.2,4.7c-0.9,4.4-0.9,8.8-0.7,14.2c0.3,4,1.4,12.5,2.5,16c0.1,0.5,0.9,1.6,1.4,1.8c0.9,0.5,1.4,0.3,2.1-0.3
			c0.4-0.4,1.2-0.9,1-1.6c-0.4-3.9-1.8-11.7-1.9-16.1c0-1.7-0.4-5.2,0.1-6.5C1381.9,1525.7,1382.6,1525.3,1383.1,1525.2z"/>
		<path id="Side_mirror_00000083091099233029604540000013132165916944270247_" d="M1376.7,1501.1c0,0-10.3-1.4-12.7-2.2
			c-1.2-0.4-2.1-3.8-2.1-4.9c0.1-1.2,0.8-2.1,1.3-2.6c2.3-1.9,8.7-2.6,11.6-2.5c0.7,0,2.1,0.7,2.5,1.2c0.8,1.3,0.1,6.1,0.1,6.1
			l3.5,5.6L1376.7,1501.1z"/>
		<path d="M1518.8,1570.8h-138.1c0,0-0.9-10.5,0.4-12.3c2.1-3,9.8-5.6,13.4-6c11.8-1.2,55.4-1.2,55.4-1.2s43.5-0.1,55.4,1.2
			c3.6,0.4,11.3,3,13.4,6C1519.9,1560.3,1518.8,1570.8,1518.8,1570.8z"/>
		<path d="M1369.6,1566.2l20.9,3.1c0,0,0.1,9.6-0.9,9.6c-8.8,0-17.2,0-22.8,0c-0.9,0-2.3-0.4-2.7-1.2c-1.7-3.5-1.6-18.1-1.6-18.1
			L1369.6,1566.2z"/>
		<path d="M1429.8,1514.5c0,1.2,0.9,2.1,2.1,2.1h15.7l-8.3,22.5c-1.2,3,2.1,4.6,4,2.2l25.3-31.8c0.5-0.5,0.9-1.3,0.9-1.8
			c0-1.2-1-1.9-2.2-1.9h-15.7l8.3-22.5c1.2-3-2.1-4.7-3.9-2.2l-25.5,31.8C1430,1513.5,1429.8,1514,1429.8,1514.5z"/>
		<path d="M1503.8,1572.5c-3.2,0-6.8,0-10.7,0c-3.6,0-7.2,0-10.5,0H1417c-3.2,0-6.9,0-10.5,0c-29.6,0.3-39.4-0.3-42.6-4.4
			c-2.1-2.7-2.3-7.8-2.5-23c0-3,0-6.2-0.1-9.5c-0.1-8.3-0.3-16.2,1.2-22c3.9-15.1,16.6-16.9,22-17c0.1,0,0.1-0.1,0.1-0.1
			c1.6-4.9,4.6-11.1,6.8-15.3c9.1-18.2,16.1-19.1,29.6-19.5h2.1c13.8-0.4,39.7-0.4,53.4,0h2.1c13.5,0.4,20.5,1.3,29.6,19.5
			c2.3,4.7,5.3,10.5,6.9,15.3c0,0,0,0.1,0.1,0.1c5.3,0.1,18.1,2.1,22,17c1.4,5.6,1.3,13.5,1.2,22l0,0c-0.1,3.2-0.1,6.5-0.1,9.6
			c-0.1,15.2-0.4,20.3-2.5,23C1532.9,1571.6,1525.2,1572.5,1503.8,1572.5z M1417,1564.5h65.5c3.2,0,6.9,0,10.5,0
			c12.1,0.1,32.1,0.3,36.4-1.6c0.6-2.6,0.8-11.2,0.8-18.1c0-3.1,0-6.4,0.1-9.6l0,0c0.1-7.8,0.3-15.2-0.9-19.8
			c-2.3-9.1-9.2-11.2-14.6-11.2c-3.4-0.1-6.4-2.3-7.4-5.6c-1.3-4.3-4.2-9.8-6.4-14.2c-7.5-14.8-11.1-15-22.9-15.2h-2.1
			c-13.7-0.4-39.4-0.4-52.9,0h-2.1c-11.8,0.3-15.5,0.4-22.9,15.2c-2.1,4.2-4.9,9.9-6.4,14.3c-1,3.2-4,5.5-7.4,5.6
			c-5.3,0.1-12.2,2.2-14.6,11.2c-1.2,4.7-1,12-0.9,19.8c0.1,3.2,0.1,6.5,0.1,9.6c0,7,0.1,15.6,0.8,18.2c4.3,1.8,24.3,1.7,36.4,1.6
			C1410.2,1564.7,1413.8,1564.5,1417,1564.5z M1529.4,1563.5L1529.4,1563.5L1529.4,1563.5z M1369.7,1562.9L1369.7,1562.9z
			 M1529.9,1562.9L1529.9,1562.9L1529.9,1562.9z"/>
		<path id="Headlight_00000012444295058468526680000005668505162275183802_" d="M1516.5,1525.2c-3.1-0.1-18.1,1.2-24.2,1.8
			c-1.7,0.1-6.4,1.7-6.4,1.7s9.2-11.7,13.3-13.9c2.9-1.6,9.5-2.2,12.7-2.3c1.4,0,4.3-0.4,5.7,0c0.7,0.3,2.1,0.9,2.6,1.4
			c1,1.2,1.9,3.4,2.2,4.7c0.9,4.4,0.9,8.8,0.7,14.2c-0.3,4-1.4,12.5-2.5,16c-0.1,0.5-0.9,1.6-1.4,1.8c-0.9,0.5-1.4,0.3-2.1-0.3
			c-0.4-0.4-1.2-0.9-1-1.6c0.4-3.9,1.8-11.7,2-16.1c0-1.7,0.4-5.2-0.1-6.5C1517.8,1525.7,1517,1525.3,1516.5,1525.2z"/>
		<path d="M1518.6,1501.8l3.5-5.6c0,0-0.7-4.8,0.1-6.1c0.4-0.5,1.8-1.2,2.5-1.2c3-0.1,9.4,0.5,11.6,2.5c0.5,0.5,1.3,1.4,1.3,2.6
			c0.1,1.2-0.9,4.6-2.1,4.9c-2.5,0.8-12.7,2.2-12.7,2.2L1518.6,1501.8z"/>
		<path id="Tire_00000021113788362703978790000001910673324293836172_" d="M1537.2,1559.7c0,0,0.1,14.6-1.6,18.1
			c-0.4,0.8-1.8,1.2-2.7,1.2c-5.6,0-13.9,0-22.8,0c-1,0-0.9-9.6-0.9-9.6l20.9-3.1L1537.2,1559.7z"/>
	</g>
	<g id="Semibold-M">
		<path id="Headlight_00000023246372907820684190000005771123230882524840_" d="M1992.5,1095c2.4-0.1,13.9,0.9,18.6,1.4
			c1.3,0.1,4.9,1.3,4.9,1.3s-7.1-9-10.2-10.7c-2.2-1.2-7.3-1.7-9.8-1.8c-1.1,0-3.3-0.3-4.4,0c-0.5,0.2-1.6,0.7-2,1.1
			c-0.8,0.9-1.5,2.6-1.7,3.6c-0.7,3.4-0.7,6.8-0.5,10.9c0.2,3.1,1.1,9.6,1.9,12.3c0.1,0.4,0.7,1.2,1.1,1.4c0.7,0.4,1.1,0.2,1.6-0.2
			c0.3-0.3,0.9-0.7,0.8-1.2c-0.3-3-1.4-9-1.5-12.4c0-1.3-0.3-4,0.1-5C1991.6,1095.4,1992.1,1095.1,1992.5,1095z"/>
		<path id="Side_mirror_00000088849868522007586160000015943729668513809301_" d="M1986.6,1075.2c0,0-7.9-1.1-9.8-1.7
			c-0.9-0.3-1.6-2.9-1.6-3.8c0.1-0.9,0.6-1.6,1-2c1.8-1.5,6.7-2,8.9-1.9c0.5,0,1.6,0.5,1.9,0.9c0.6,1,0.1,4.7,0.1,4.7l2.7,4.3
			L1986.6,1075.2z"/>
		<path d="M2096.9,1130.1h-106.2c0,0-0.7-8.1,0.3-9.5c1.6-2.3,7.5-4.3,10.3-4.6c9.1-0.9,42.6-0.9,42.6-0.9s33.5-0.1,42.6,0.9
			c2.8,0.3,8.7,2.3,10.3,4.6C2097.6,1122,2096.9,1130.1,2096.9,1130.1z"/>
		<path d="M1980.1,1126.6l16.1,2.4c0,0,0.1,7.4-0.7,7.4c-6.8,0-13.2,0-17.5,0c-0.7,0-1.8-0.3-2.1-0.9c-1.3-2.7-1.2-13.9-1.2-13.9
			L1980.1,1126.6z"/>
		<path d="M2002.5,1132.9c-17.4,0-23.4-0.8-25.9-4c-2-2.5-2.1-6.8-2.2-18.6c0-2.3,0-4.8-0.1-7.3c-0.1-6.5-0.2-12.7,0.9-17.3
			c2.2-8.4,8.6-13.6,17.3-14.2c1.3-3.7,3.4-8,5-11.2c7.4-14.7,13.4-15.5,24.1-15.8h1.5c10.6-0.3,30.6-0.3,41.2,0h1.5
			c10.7,0.3,16.7,1.1,24.1,15.8c1.7,3.4,3.8,7.5,5,11.2c8.7,0.6,15.1,5.8,17.3,14.2c1.2,4.6,1.1,10.7,0.9,17.3l0,0
			c0,2.5-0.1,5-0.1,7.3c-0.1,11.9-0.2,16.1-2.2,18.6c-2.9,3.7-10.2,4.2-34,4c-2.8,0-5.5,0-8,0h-50.5c-2.5,0-5.3,0-8,0
			C2007.6,1132.9,2004.9,1132.9,2002.5,1132.9z M1984,1124L1984,1124L1984,1124z M2103.6,1124L2103.6,1124L2103.6,1124z
			 M2018.6,1123.8h50.5c2.6,0,5.3,0,8.1,0c8.5,0.1,22.3,0.2,26.6-0.9c0.4-2.5,0.4-8.1,0.4-12.8c0-2.4,0-4.9,0.1-7.4
			c0.1-5.9,0.2-11.5-0.6-14.8c-1.3-4.9-4.6-7.4-9.8-7.5c-3.3-0.1-6.1-2.2-7.1-5.4c-1-3.2-3.1-7.3-4.8-10.7
			c-5.4-10.6-7.5-10.7-16.3-10.9h-1.6c-10.4-0.3-30.2-0.3-40.6,0h-1.6c-8.9,0.2-11,0.3-16.3,10.9c-1.6,3.1-3.8,7.5-4.8,10.7
			c-1,3.1-3.8,5.3-7.1,5.3c-5.2,0.1-8.5,2.7-9.8,7.5c-0.9,3.4-0.8,9.2-0.7,14.8c0.1,2.5,0.1,5,0.1,7.4c0,4.7,0.1,10.3,0.4,12.8
			c4.3,1.1,18.1,1,26.6,0.9C2013.3,1123.9,2016,1123.8,2018.6,1123.8z M2104.7,1122.7L2104.7,1122.7L2104.7,1122.7z M1983,1122.7
			L1983,1122.7z M2095.4,1072.4L2095.4,1072.4L2095.4,1072.4z M1993.5,1071.4L1993.5,1071.4L1993.5,1071.4z M2094.1,1071.4
			L2094.1,1071.4L2094.1,1071.4z"/>
		<path id="Headlight_00000035495900417645219400000017300166531435907993_" d="M2095.1,1095c-2.4-0.1-13.9,0.9-18.6,1.4
			c-1.3,0.1-4.9,1.3-4.9,1.3s7.1-9,10.2-10.7c2.2-1.2,7.3-1.7,9.8-1.8c1.1,0,3.3-0.3,4.4,0c0.5,0.2,1.6,0.7,2,1.1
			c0.8,0.9,1.5,2.6,1.7,3.6c0.7,3.4,0.7,6.8,0.5,10.9c-0.2,3.1-1.1,9.6-1.9,12.3c-0.1,0.4-0.7,1.2-1.1,1.4c-0.7,0.4-1.1,0.2-1.6-0.2
			c-0.3-0.3-0.9-0.7-0.8-1.2c0.3-3,1.4-9,1.5-12.4c0-1.3,0.3-4-0.1-5C2096.1,1095.4,2095.5,1095.1,2095.1,1095z"/>
		<path d="M2097.7,1075.7l2.7-4.3c0,0-0.5-3.7,0.1-4.7c0.3-0.4,1.4-0.9,1.9-0.9c2.3-0.1,7.2,0.4,8.9,1.9c0.4,0.4,1,1.1,1,2
			c0.1,0.9-0.7,3.5-1.6,3.8c-1.9,0.6-9.8,1.7-9.8,1.7L2097.7,1075.7z"/>
		<path id="Tire_00000027581878084727028130000012458499751239752599_" d="M2113,1121.6c0,0,0.1,11.2-1.2,13.9
			c-0.3,0.6-1.4,0.9-2.1,0.9c-4.3,0-10.7,0-17.5,0c-0.8,0-0.7-7.4-0.7-7.4l16.1-2.4L2113,1121.6z"/>
		<path d="M2028.3,1085.8c0,1,0.8,1.8,1.8,1.8h11.5l-6.1,16.2c-0.9,2.5,1.8,3.9,3.4,1.9l19-23.5c0.4-0.5,0.7-1,0.7-1.5
			c0-1-0.9-1.7-1.8-1.7h-11.4l6.1-16.2c0.9-2.5-1.7-3.9-3.4-1.9l-19,23.5C2028.6,1084.8,2028.3,1085.3,2028.3,1085.8z"/>
	</g>
	<g id="Medium-M">
		<path id="Headlight_00000023993440875375171840000005770740314844560308_" d="M1695.5,1095c2.4-0.1,13.9,0.9,18.6,1.4
			c1.3,0.1,4.9,1.3,4.9,1.3s-7.1-9-10.2-10.7c-2.2-1.2-7.3-1.7-9.8-1.8c-1.1,0-3.3-0.3-4.4,0c-0.5,0.2-1.6,0.7-2,1.1
			c-0.8,0.9-1.5,2.6-1.7,3.6c-0.7,3.4-0.7,6.8-0.5,10.9c0.2,3.1,1.1,9.6,1.9,12.3c0.1,0.4,0.7,1.2,1.1,1.4c0.7,0.4,1.1,0.2,1.6-0.2
			c0.3-0.3,0.9-0.7,0.8-1.2c-0.3-3-1.4-9-1.5-12.4c0-1.3-0.3-4,0.1-5C1694.6,1095.4,1695.1,1095.1,1695.5,1095z"/>
		<path id="Side_mirror_00000088824623474782714130000008977103727538844302_" d="M1689.6,1075.5c0,0-7.9-1.1-9.8-1.7
			c-0.9-0.3-1.6-2.9-1.6-3.8c0.1-0.9,0.6-1.6,1-2c1.8-1.5,6.7-2,8.9-1.9c0.5,0,1.6,0.5,1.9,0.9c0.6,1,0.1,4.7,0.1,4.7l2.7,4.3
			L1689.6,1075.5z"/>
		<path d="M1799.9,1130.1h-106.2c0,0-0.7-8.1,0.3-9.5c1.6-2.3,7.5-4.3,10.3-4.6c9.1-0.9,42.6-0.9,42.6-0.9s33.5-0.1,42.6,0.9
			c2.8,0.3,8.7,2.3,10.3,4.6C1800.7,1122,1799.9,1130.1,1799.9,1130.1z"/>
		<path d="M1684.1,1126.6l16.1,2.4c0,0,0.1,7.4-0.7,7.4c-6.8,0-13.2,0-17.5,0c-0.7,0-1.8-0.3-2.1-0.9c-1.3-2.7-1.2-13.9-1.2-13.9
			L1684.1,1126.6z"/>
		<path d="M1788.3,1132.4c-2.5,0-5.2,0-8.2,0c-2.8,0-5.5,0-8,0h-50.5c-2.5,0-5.3,0-8,0c-23.5,0.2-30.8-0.3-33.6-3.8
			c-1.8-2.3-2-6.4-2.1-18.3c0-2.3,0-4.8-0.1-7.3c-0.1-6.5-0.2-12.6,0.9-17.1c3-11.7,12.6-13.6,17.2-13.9c1.3-3.8,3.5-8.2,5.1-11.4
			c7.3-14.4,13.1-15.3,23.7-15.5h1.5c10.6-0.3,30.6-0.3,41.2,0h1.5c10.5,0.3,16.4,1.1,23.7,15.5c1.8,3.5,3.9,7.7,5.1,11.4
			c4.6,0.2,14.1,2.2,17.2,13.9c1.2,4.5,1,10.6,0.9,17.2l0,0c0,2.5-0.1,5-0.1,7.3c-0.1,11.9-0.3,16-2.1,18.3
			C1811.3,1131.7,1805.4,1132.4,1788.3,1132.4z M1721.6,1124.3h50.5c2.6,0,5.3,0,8.1,0c8.8,0.1,23.1,0.2,27.1-1
			c0.4-2.4,0.5-8.3,0.5-13.2c0-2.4,0-4.9,0.1-7.4l0,0c0.1-5.9,0.2-11.6-0.7-15c-1.3-5.1-4.8-7.8-10.3-7.9c-3-0.1-5.7-2.1-6.6-5
			c-1-3.2-3.1-7.4-4.8-10.7c-5.5-10.9-7.9-11-16.8-11.2h-1.6c-10.5-0.3-30.2-0.3-40.7,0h-1.6c-8.9,0.2-11.3,0.3-16.7,11.1
			c-1.6,3.2-3.8,7.5-4.8,10.8c-0.9,2.9-3.6,4.9-6.6,5c-5.5,0.1-8.9,2.8-10.3,7.9c-0.9,3.4-0.8,9.3-0.7,15c0.1,2.5,0.1,5,0.1,7.4
			c0,4.9,0.1,10.9,0.5,13.2c4,1.2,18.3,1.1,27.1,1C1716.3,1124.4,1719,1124.3,1721.6,1124.3z M1686.6,1124.1L1686.6,1124.1
			L1686.6,1124.1z M1685.7,1123.2L1685.7,1123.2z M1797.9,1072.5L1797.9,1072.5L1797.9,1072.5z"/>
		<path id="Headlight_00000045617659222851417610000016130051797797482628_" d="M1798.1,1095c-2.4-0.1-13.9,0.9-18.6,1.4
			c-1.3,0.1-4.9,1.3-4.9,1.3s7.1-9,10.2-10.7c2.2-1.2,7.3-1.7,9.8-1.8c1.1,0,3.3-0.3,4.4,0c0.5,0.2,1.6,0.7,2,1.1
			c0.8,0.9,1.5,2.6,1.7,3.6c0.7,3.4,0.7,6.8,0.5,10.9c-0.2,3.1-1.1,9.6-1.9,12.3c-0.1,0.4-0.7,1.2-1.1,1.4c-0.7,0.4-1.1,0.2-1.6-0.2
			c-0.3-0.3-0.9-0.7-0.8-1.2c0.3-3,1.4-9,1.5-12.4c0-1.3,0.3-4-0.1-5C1799.1,1095.4,1798.5,1095.1,1798.1,1095z"/>
		<path d="M1800.7,1076l2.7-4.3c0,0-0.5-3.7,0.1-4.7c0.3-0.4,1.4-0.9,1.9-0.9c2.3-0.1,7.2,0.4,8.9,1.9c0.4,0.4,1,1.1,1,2
			c0.1,0.9-0.7,3.5-1.6,3.8c-1.9,0.6-9.8,1.7-9.8,1.7L1800.7,1076z"/>
		<path id="Tire_00000057114371594338433280000012817249872547963015_" d="M1815,1121.6c0,0,0.1,11.2-1.2,13.9
			c-0.3,0.6-1.4,0.9-2.1,0.9c-4.3,0-10.7,0-17.5,0c-0.8,0-0.7-7.4-0.7-7.4l16.1-2.4L1815,1121.6z"/>
		<path d="M1731.4,1086.2c0,1,0.8,1.7,1.7,1.7h11.7l-6.2,16.7c-0.9,2.4,1.7,3.7,3.2,1.8l19.2-23.9c0.4-0.4,0.7-1,0.7-1.5
			c0-0.9-0.8-1.7-1.8-1.7h-11.7l6.2-16.7c0.9-2.4-1.7-3.8-3.2-1.8l-19.3,23.9C1731.6,1085.3,1731.4,1085.8,1731.4,1086.2z"/>
	</g>
	<g id="Regular-M">
		<path id="Headlight_00000090275156388061219330000001277150200139191191_" d="M1398.5,1095c2.4-0.1,13.9,0.9,18.6,1.4
			c1.3,0.1,4.9,1.3,4.9,1.3s-7.1-9-10.2-10.7c-2.2-1.2-7.3-1.7-9.8-1.8c-1.1,0-3.3-0.3-4.4,0c-0.5,0.2-1.6,0.7-2,1.1
			c-0.8,0.9-1.5,2.6-1.7,3.6c-0.7,3.4-0.7,6.8-0.5,10.9c0.2,3.1,1.1,9.6,1.9,12.3c0.1,0.4,0.7,1.2,1.1,1.4c0.7,0.4,1.1,0.2,1.6-0.2
			c0.3-0.3,0.9-0.7,0.8-1.2c-0.3-3-1.4-9-1.5-12.4c0-1.3-0.3-4,0.1-5C1397.6,1095.4,1398.1,1095.1,1398.5,1095z"/>
		<path id="Side_mirror_00000110446344581595901780000018089079844354034065_" d="M1393.6,1076.5c0,0-7.9-1.1-9.8-1.7
			c-0.9-0.3-1.6-2.9-1.6-3.8c0.1-0.9,0.6-1.6,1-2c1.8-1.5,6.7-2,8.9-1.9c0.5,0,1.6,0.5,1.9,0.9c0.6,1,0.1,4.7,0.1,4.7l2.7,4.3
			L1393.6,1076.5z"/>
		<path d="M1502.9,1130.1h-106.2c0,0-0.7-8.1,0.3-9.5c1.6-2.3,7.5-4.3,10.3-4.6c9.1-0.9,42.6-0.9,42.6-0.9s33.5-0.1,42.6,0.9
			c2.8,0.3,8.7,2.3,10.3,4.6C1503.7,1122,1502.9,1130.1,1502.9,1130.1z"/>
		<path d="M1388.1,1126.6l16.1,2.4c0,0,0.1,7.4-0.7,7.4c-6.8,0-13.2,0-17.5,0c-0.7,0-1.8-0.3-2.1-0.9c-1.3-2.7-1.2-13.9-1.2-13.9
			L1388.1,1126.6z"/>
		<path d="M1434.4,1086.8c0,0.9,0.7,1.6,1.6,1.6h12.1l-6.4,17.3c-0.9,2.3,1.6,3.5,3.1,1.7l19.5-24.5c0.4-0.4,0.7-1,0.7-1.4
			c0-0.9-0.8-1.5-1.7-1.5h-12.1l6.4-17.3c0.9-2.3-1.6-3.6-3-1.7l-19.6,24.5C1434.6,1086,1434.4,1086.4,1434.4,1086.8z"/>
		<path d="M1491.3,1131.4c-2.5,0-5.2,0-8.2,0c-2.8,0-5.5,0-8.1,0h-50.4c-2.5,0-5.3,0-8.1,0c-22.8,0.2-30.3-0.2-32.8-3.4
			c-1.6-2.1-1.8-6-1.9-17.7c0-2.3,0-4.8-0.1-7.3c-0.1-6.4-0.2-12.5,0.9-16.9c3-11.6,12.8-13,16.9-13.1c0.1,0,0.1-0.1,0.1-0.1
			c1.2-3.8,3.5-8.5,5.2-11.8c7-14,12.4-14.7,22.8-15h1.6c10.6-0.3,30.5-0.3,41.1,0h1.6c10.4,0.3,15.8,1,22.8,15
			c1.8,3.6,4.1,8.1,5.3,11.8c0,0,0,0.1,0.1,0.1c4.1,0.1,13.9,1.6,16.9,13.1c1.1,4.3,1,10.4,0.9,16.9l0,0c-0.1,2.5-0.1,5-0.1,7.4
			c-0.1,11.7-0.3,15.6-1.9,17.7C1513.7,1130.7,1507.8,1131.4,1491.3,1131.4z M1424.6,1125.3h50.4c2.5,0,5.3,0,8.1,0
			c9.3,0.1,24.7,0.2,28-1.2c0.5-2,0.6-8.6,0.6-13.9c0-2.4,0-4.9,0.1-7.4l0,0c0.1-6,0.2-11.7-0.7-15.2c-1.8-7-7.1-8.6-11.2-8.6
			c-2.6-0.1-4.9-1.8-5.7-4.3c-1-3.3-3.2-7.5-4.9-10.9c-5.8-11.4-8.5-11.5-17.6-11.7h-1.6c-10.5-0.3-30.3-0.3-40.7,0h-1.6
			c-9.1,0.2-11.9,0.3-17.6,11.7c-1.6,3.2-3.8,7.6-4.9,11c-0.8,2.5-3.1,4.2-5.7,4.3c-4.1,0.1-9.4,1.7-11.2,8.6
			c-0.9,3.6-0.8,9.2-0.7,15.2c0.1,2.5,0.1,5,0.1,7.4c0,5.4,0.1,12,0.6,14c3.3,1.4,18.7,1.3,28,1.2
			C1419.3,1125.4,1422.1,1125.3,1424.6,1125.3z M1511,1124.5L1511,1124.5L1511,1124.5z M1388.2,1124L1388.2,1124z M1511.4,1124
			L1511.4,1124L1511.4,1124z"/>
		<path id="Headlight_00000032631829457415999880000002496847720901484218_" d="M1501.1,1095c-2.4-0.1-13.9,0.9-18.6,1.4
			c-1.3,0.1-4.9,1.3-4.9,1.3s7.1-9,10.2-10.7c2.2-1.2,7.3-1.7,9.8-1.8c1.1,0,3.3-0.3,4.4,0c0.5,0.2,1.6,0.7,2,1.1
			c0.8,0.9,1.5,2.6,1.7,3.6c0.7,3.4,0.7,6.8,0.5,10.9c-0.2,3.1-1.1,9.6-1.9,12.3c-0.1,0.4-0.7,1.2-1.1,1.4c-0.7,0.4-1.1,0.2-1.6-0.2
			c-0.3-0.3-0.9-0.7-0.8-1.2c0.3-3,1.4-9,1.5-12.4c0-1.3,0.3-4-0.1-5C1502.1,1095.4,1501.5,1095.1,1501.1,1095z"/>
		<path d="M1502.7,1077l2.7-4.3c0,0-0.5-3.7,0.1-4.7c0.3-0.4,1.4-0.9,1.9-0.9c2.3-0.1,7.2,0.4,8.9,1.9c0.4,0.4,1,1.1,1,2
			c0.1,0.9-0.7,3.5-1.6,3.8c-1.9,0.6-9.8,1.7-9.8,1.7L1502.7,1077z"/>
		<path id="Tire_00000054249443273588454500000011626926964900206734_" d="M1517,1121.6c0,0,0.1,11.2-1.2,13.9
			c-0.3,0.6-1.4,0.9-2.1,0.9c-4.3,0-10.7,0-17.5,0c-0.8,0-0.7-7.4-0.7-7.4l16.1-2.4L1517,1121.6z"/>
	</g>
</g>
<g id="Building_blocks" class="st8">
	<g id="Sketch__x40__regular-s" class="st9">
		<path id="Frame_00000129909203988850578080000008745906527658144418_" class="st10" d="M1449.8,627.8c0,0-2.8,0-11.1,0
			c-8.5,0-11.8,0-17.2,10.7c-1.4,2.7-3.1,6.1-4,8.9c-0.3,1-1.2,1.7-2.3,1.7c-3,0.1-9.1,1.2-11,8.5c-0.8,3-0.7,7.4-0.6,12.6
			c0.2,8.6-0.1,16.7,1,18.2c1.9,2.4,18.6,1.7,30.1,1.7c5.8,0,15,0,15,0"/>
		<path id="Headlight_00000141448581311075240320000000130814067131924616_" d="M1414.4,664.1c1.9-0.1,10.9,0.7,14.5,1.1
			c1,0.1,3.8,1,3.8,1s-5.6-7.1-8-8.4c-1.7-0.9-5.7-1.3-7.6-1.4c-0.9,0-2.6-0.2-3.4,0c-0.4,0.1-1.2,0.6-1.5,0.9
			c-0.7,0.7-1.2,2.1-1.3,2.8c-0.5,2.7-0.5,5.3-0.4,8.5c0.1,2.4,0.9,7.5,1.5,9.6c0.1,0.3,0.6,0.9,0.9,1.1c0.5,0.3,0.9,0.1,1.2-0.2
			c0.3-0.2,0.7-0.5,0.6-0.9c-0.2-2.3-1.1-7-1.1-9.7c0-1-0.2-3.1,0.1-3.9C1413.7,664.4,1414.1,664.1,1414.4,664.1z"/>
		<path id="Side_mirror_00000018940023419696330890000017958382057222172809_" d="M1412.1,648.8c0,0-6.1-0.9-7.6-1.4
			c-0.7-0.2-1.3-2.3-1.2-3c0-0.7,0.5-1.3,0.8-1.5c1.4-1.1,5.2-1.6,7-1.5c0.4,0,1.3,0.4,1.5,0.7c0.5,0.8,0.1,3.7,0.1,3.7l2.1,3.3
			L1412.1,648.8z"/>
		<path id="Grill_00000144325691602175405550000008980307494803085462_" d="M1413,691.4c0,0-0.6-6.3,0.2-7.4c1.2-1.8,5.9-3.4,8-3.6
			c7.1-0.7,28.6-0.7,28.6-0.7v11.7H1413z"/>
		<path id="Tire_00000036230191553821184630000011019364379363360445_" d="M1402,684.8c0,0-0.1,8.7,1,10.8c0.2,0.5,1.1,0.7,1.6,0.7
			c3.4,0,8.4,0,13.7,0c0.6,0,0.6-5.8,0.6-5.8l-12.6-1.8L1402,684.8z"/>
	</g>
	<g id="Regular-M_x2F_sketch" class="st9">
		<path id="Frame_00000134953490098406309450000010690401545950032048_" class="st10" d="M1449.8,1048.7c0,0-9.9,0-20.5,0.3
			c-10.5,0.3-14.9-0.3-21.8,13.4c-1.8,3.5-3.9,7.8-5.1,11.4c-0.4,1.3-1.6,2.2-2.9,2.2c-3.9,0.1-11.6,1.5-14,10.9
			c-1,3.9-0.9,9.5-0.8,16.1c0.2,11-0.1,21.4,1.3,23.2c2.4,3,23.7,2.2,38.5,2.2c7.4,0,25.2,0,25.2,0"/>
		<path id="Headlight_00000065786894090988398860000015191684847977427366_" d="M1398.5,1095c2.4-0.1,13.9,0.9,18.6,1.4
			c1.3,0.1,4.9,1.3,4.9,1.3s-7.1-9-10.2-10.7c-2.2-1.2-7.3-1.7-9.8-1.8c-1.1,0-3.3-0.3-4.4,0c-0.5,0.2-1.6,0.7-2,1.1
			c-0.8,0.9-1.5,2.6-1.7,3.6c-0.7,3.4-0.7,6.8-0.5,10.9c0.2,3.1,1.1,9.6,1.9,12.3c0.1,0.4,0.7,1.2,1.1,1.4c0.7,0.4,1.1,0.2,1.6-0.2
			c0.3-0.3,0.9-0.7,0.8-1.2c-0.3-3-1.4-9-1.5-12.4c0-1.3-0.3-4,0.1-5C1397.6,1095.4,1398.1,1095.1,1398.5,1095z"/>
		<path id="Side_mirror_00000062174434639753279310000003927948516355515561_" d="M1394.6,1077.5c0,0-7.9-1.1-9.8-1.7
			c-0.9-0.3-1.6-2.9-1.6-3.8c0.1-0.9,0.6-1.6,1-2c1.8-1.5,6.7-2,8.9-1.9c0.5,0,1.6,0.5,1.9,0.9c0.6,1,0.1,4.7,0.1,4.7l2.7,4.3
			L1394.6,1077.5z"/>
		<path id="Grill_00000054255349432303944820000001166140080231704251_" d="M1396.7,1130.1c0,0-0.7-8.1,0.3-9.5
			c1.6-2.3,7.5-4.3,10.3-4.6c9.1-0.9,42.6-0.9,42.6-0.9v14.9L1396.7,1130.1L1396.7,1130.1z"/>
		<path id="Tire_00000060022938926501972790000017773437657697937321_" d="M1382.7,1121.6c0,0-0.1,11.2,1.2,13.9
			c0.3,0.6,1.4,0.9,2.1,0.9c4.3,0,10.7,0,17.5,0c0.8,0,0.7-7.4,0.7-7.4l-16.1-2.4L1382.7,1121.6z"/>
	</g>
	<g id="Unstroked-M" class="st9">
		<path id="Headlight_00000031199387560658284170000002891012745439305141_" d="M1992.5,1095c2.4-0.1,13.9,0.9,18.6,1.4
			c1.3,0.1,4.9,1.3,4.9,1.3s-7.1-9-10.2-10.7c-2.2-1.2-7.3-1.7-9.8-1.8c-1.1,0-3.3-0.3-4.4,0c-0.5,0.2-1.6,0.7-2,1.1
			c-0.8,0.9-1.5,2.6-1.7,3.6c-0.7,3.4-0.7,6.8-0.5,10.9c0.2,3.1,1.1,9.6,1.9,12.3c0.1,0.4,0.7,1.2,1.1,1.4c0.7,0.4,1.1,0.2,1.6-0.2
			c0.3-0.3,0.9-0.7,0.8-1.2c-0.3-3-1.4-9-1.5-12.4c0-1.3-0.3-4,0.1-5C1991.6,1095.4,1992.1,1095.1,1992.5,1095z"/>
		<path id="Side_mirror_00000112634920040195570060000018110641274820770946_" d="M1986.6,1075.5c0,0-7.9-1.1-9.8-1.7
			c-0.9-0.3-1.6-2.9-1.6-3.8c0.1-0.9,0.6-1.6,1-2c1.8-1.5,6.7-2,8.9-1.9c0.5,0,1.6,0.5,1.9,0.9c0.6,1,0.1,4.7,0.1,4.7l2.7,4.3
			L1986.6,1075.5z"/>
		<path d="M2096.9,1130.1h-106.2c0,0-0.7-8.1,0.3-9.5c1.6-2.3,7.5-4.3,10.3-4.6c9.1-0.9,42.6-0.9,42.6-0.9s33.5-0.1,42.6,0.9
			c2.8,0.3,8.7,2.3,10.3,4.6C2097.6,1122,2096.9,1130.1,2096.9,1130.1z"/>
		<path d="M1980.1,1126.6l16.1,2.4c0,0,0.1,7.4-0.7,7.4c-6.8,0-13.2,0-17.5,0c-0.7,0-1.8-0.3-2.1-0.9c-1.3-2.7-1.2-13.9-1.2-13.9
			L1980.1,1126.6z"/>
		<path class="st11" d="M2108.9,1102.9c-0.2,11,0.1,21.4-1.3,23.2c-2.4,3-23.7,2.2-38.5,2.2c-7.4,0-43.1,0-50.5,0
			c-14.7,0-36.1,0.8-38.5-2.2c-1.4-1.8-1.1-12.2-1.3-23.2c-0.1-6.6-0.2-12.2,0.8-16.1c2.5-9.4,10.2-10.8,14-10.9
			c1.3,0,2.5-0.9,2.9-2.2c1.1-3.6,3.3-7.9,5.1-11.4c6.9-13.7,11.2-13.1,21.8-13.4c10.6-0.3,30.3-0.3,40.9,0
			c10.5,0.3,14.9-0.3,21.8,13.4c1.8,3.5,3.9,7.8,5.1,11.4c0.4,1.3,1.5,2.2,2.9,2.2c3.9,0.1,11.6,1.5,14.1,10.9
			C2109.1,1090.7,2109,1096.3,2108.9,1102.9z"/>
		<path id="Headlight_00000049221904702637253070000001231923539838135989_" d="M2095.1,1095c-2.4-0.1-13.9,0.9-18.6,1.4
			c-1.3,0.1-4.9,1.3-4.9,1.3s7.1-9,10.2-10.7c2.2-1.2,7.3-1.7,9.8-1.8c1.1,0,3.3-0.3,4.4,0c0.5,0.2,1.6,0.7,2,1.1
			c0.8,0.9,1.5,2.6,1.7,3.6c0.7,3.4,0.7,6.8,0.5,10.9c-0.2,3.1-1.1,9.6-1.9,12.3c-0.1,0.4-0.7,1.2-1.1,1.4c-0.7,0.4-1.1,0.2-1.6-0.2
			c-0.3-0.3-0.9-0.7-0.8-1.2c0.3-3,1.4-9,1.5-12.4c0-1.3,0.3-4-0.1-5C2096.1,1095.4,2095.5,1095.1,2095.1,1095z"/>
		<path d="M2097.7,1076l2.7-4.3c0,0-0.5-3.7,0.1-4.7c0.3-0.4,1.4-0.9,1.9-0.9c2.3-0.1,7.2,0.4,8.9,1.9c0.4,0.4,1,1.1,1,2
			c0.1,0.9-0.7,3.5-1.6,3.8c-1.9,0.6-9.8,1.7-9.8,1.7L2097.7,1076z"/>
		<path id="Tire_00000163041068612314765930000009953592833564211363_" d="M2113,1121.6c0,0,0.1,11.2-1.2,13.9
			c-0.3,0.6-1.4,0.9-2.1,0.9c-4.3,0-10.7,0-17.5,0c-0.8,0-0.7-7.4-0.7-7.4l16.1-2.4L2113,1121.6z"/>
		<path d="M2028.3,1085.8c0,1,0.8,1.8,1.8,1.8h11.5l-6.1,16.2c-0.9,2.5,1.8,3.9,3.4,1.9l19-23.5c0.4-0.5,0.7-1,0.7-1.5
			c0-1-0.9-1.7-1.8-1.7h-11.4l6.1-16.2c0.9-2.5-1.7-3.9-3.4-1.9l-19,23.5C2028.6,1084.8,2028.3,1085.3,2028.3,1085.8z"/>
	</g>
	<g id="Template" class="st9">
		<path id="Headlight_00000098943342141482302250000018177710775225577119_" d="M1398.5,1095c2.4-0.1,13.9,0.9,18.6,1.4
			c1.3,0.1,4.9,1.3,4.9,1.3s-7.1-9-10.2-10.7c-2.2-1.2-7.3-1.7-9.8-1.8c-1.1,0-3.3-0.3-4.4,0c-0.5,0.2-1.6,0.7-2,1.1
			c-0.8,0.9-1.5,2.6-1.7,3.6c-0.7,3.4-0.7,6.8-0.5,10.9c0.2,3.1,1.1,9.6,1.9,12.3c0.1,0.4,0.7,1.2,1.1,1.4c0.7,0.4,1.1,0.2,1.6-0.2
			c0.3-0.3,0.9-0.7,0.8-1.2c-0.3-3-1.4-9-1.5-12.4c0-1.3-0.3-4,0.1-5C1397.6,1095.4,1398.1,1095.1,1398.5,1095z"/>
		<path id="Side_mirror_00000021091813444764485420000010722923863946011275_" d="M1393.6,1076.5c0,0-7.9-1.1-9.8-1.7
			c-0.9-0.3-1.6-2.9-1.6-3.8c0.1-0.9,0.6-1.6,1-2c1.8-1.5,6.7-2,8.9-1.9c0.5,0,1.6,0.5,1.9,0.9c0.6,1,0.1,4.7,0.1,4.7l2.7,4.3
			L1393.6,1076.5z"/>
		<path d="M1502.9,1130.1h-106.2c0,0-0.7-8.1,0.3-9.5c1.6-2.3,7.5-4.3,10.3-4.6c9.1-0.9,42.6-0.9,42.6-0.9s33.5-0.1,42.6,0.9
			c2.8,0.3,8.7,2.3,10.3,4.6C1503.7,1122,1502.9,1130.1,1502.9,1130.1z"/>
		<path d="M1388.1,1126.6l16.1,2.4c0,0,0.1,7.4-0.7,7.4c-6.8,0-13.2,0-17.5,0c-0.7,0-1.8-0.3-2.1-0.9c-1.3-2.7-1.2-13.9-1.2-13.9
			L1388.1,1126.6z"/>
		<path d="M1434.4,1086.8c0,0.9,0.7,1.6,1.6,1.6h12.1l-6.4,17.3c-0.9,2.3,1.6,3.5,3.1,1.7l19.5-24.5c0.4-0.4,0.7-1,0.7-1.4
			c0-0.9-0.8-1.5-1.7-1.5h-12.1l6.4-17.3c0.9-2.3-1.6-3.6-3-1.7l-19.6,24.5C1434.6,1086,1434.4,1086.4,1434.4,1086.8z"/>
		<path class="st12" d="M1514.8,1102.9c-0.2,11,0.1,21.4-1.3,23.2c-2.4,3-23.7,2.2-38.5,2.2c-7.4,0-43.1,0-50.5,0
			c-14.7,0-36.1,0.8-38.5-2.2c-1.4-1.8-1.1-12.2-1.3-23.2c-0.1-6.6-0.2-12.2,0.8-16.1c2.5-9.4,10.2-10.8,14-10.9
			c1.3,0,2.5-0.9,2.9-2.2c1.1-3.6,3.3-7.9,5.1-11.4c6.9-13.7,11.2-13.1,21.8-13.4c10.6-0.3,30.3-0.3,40.9,0
			c10.5,0.3,14.9-0.3,21.8,13.4c1.8,3.5,3.9,7.8,5.1,11.4c0.4,1.3,1.5,2.2,2.9,2.2c3.9,0.1,11.6,1.5,14.1,10.9
			C1515.1,1090.7,1515,1096.3,1514.8,1102.9z"/>
		<path id="Headlight_00000041985702648238463530000003727658065957450380_" d="M1501.1,1095c-2.4-0.1-13.9,0.9-18.6,1.4
			c-1.3,0.1-4.9,1.3-4.9,1.3s7.1-9,10.2-10.7c2.2-1.2,7.3-1.7,9.8-1.8c1.1,0,3.3-0.3,4.4,0c0.5,0.2,1.6,0.7,2,1.1
			c0.8,0.9,1.5,2.6,1.7,3.6c0.7,3.4,0.7,6.8,0.5,10.9c-0.2,3.1-1.1,9.6-1.9,12.3c-0.1,0.4-0.7,1.2-1.1,1.4c-0.7,0.4-1.1,0.2-1.6-0.2
			c-0.3-0.3-0.9-0.7-0.8-1.2c0.3-3,1.4-9,1.5-12.4c0-1.3,0.3-4-0.1-5C1502.1,1095.4,1501.5,1095.1,1501.1,1095z"/>
		<path d="M1502.7,1077l2.7-4.3c0,0-0.5-3.7,0.1-4.7c0.3-0.4,1.4-0.9,1.9-0.9c2.3-0.1,7.2,0.4,8.9,1.9c0.4,0.4,1,1.1,1,2
			c0.1,0.9-0.7,3.5-1.6,3.8c-1.9,0.6-9.8,1.7-9.8,1.7L1502.7,1077z"/>
		<path id="Tire_00000168099496520596086740000008171816392339732387_" d="M1517,1121.6c0,0,0.1,11.2-1.2,13.9
			c-0.3,0.6-1.4,0.9-2.1,0.9c-4.3,0-10.7,0-17.5,0c-0.8,0-0.7-7.4-0.7-7.4l16.1-2.4L1517,1121.6z"/>
	</g>
</g>
</svg>
