<?xml version="1.0" encoding="UTF-8"?>
<!--Generator: Apple Native CoreSVG 175.5-->
<!DOCTYPE svg
PUBLIC "-//W3C//DTD SVG 1.1//EN"
       "http://www.w3.org/Graphics/SVG/1.1/DTD/svg11.dtd">
<svg version="1.1" xmlns="http://www.w3.org/2000/svg" xmlns:xlink="http://www.w3.org/1999/xlink" width="3300" height="2200">
 <!--glyph: "", point size: 100.0, font version: "18.0d12e2", template writer version: "101"-->
 <style/>
 <g id="Notes">
  <rect height="2200" id="artboard" style="fill:white;opacity:1" width="3300" x="0" y="0"/>
  <line style="fill:none;stroke:black;opacity:1;stroke-width:0.5;" x1="263" x2="3036" y1="292" y2="292"/>
  <text style="stroke:none;fill:black;font-family:sans-serif;font-size:13;font-weight:bold;" transform="matrix(1 0 0 1 263 322)">Weight/Scale Variations</text>
  <text style="stroke:none;fill:black;font-family:sans-serif;font-size:13;text-anchor:middle;" transform="matrix(1 0 0 1 559.711 322)">Ultralight</text>
  <text style="stroke:none;fill:black;font-family:sans-serif;font-size:13;text-anchor:middle;" transform="matrix(1 0 0 1 856.422 322)">Thin</text>
  <text style="stroke:none;fill:black;font-family:sans-serif;font-size:13;text-anchor:middle;" transform="matrix(1 0 0 1 1153.13 322)">Light</text>
  <text style="stroke:none;fill:black;font-family:sans-serif;font-size:13;text-anchor:middle;" transform="matrix(1 0 0 1 1449.84 322)">Regular</text>
  <text style="stroke:none;fill:black;font-family:sans-serif;font-size:13;text-anchor:middle;" transform="matrix(1 0 0 1 1746.56 322)">Medium</text>
  <text style="stroke:none;fill:black;font-family:sans-serif;font-size:13;text-anchor:middle;" transform="matrix(1 0 0 1 2043.27 322)">Semibold</text>
  <text style="stroke:none;fill:black;font-family:sans-serif;font-size:13;text-anchor:middle;" transform="matrix(1 0 0 1 2339.98 322)">Bold</text>
  <text style="stroke:none;fill:black;font-family:sans-serif;font-size:13;text-anchor:middle;" transform="matrix(1 0 0 1 2636.69 322)">Heavy</text>
  <text style="stroke:none;fill:black;font-family:sans-serif;font-size:13;text-anchor:middle;" transform="matrix(1 0 0 1 2933.4 322)">Black</text>
  <line style="fill:none;stroke:black;opacity:1;stroke-width:0.5;" x1="263" x2="3036" y1="1903" y2="1903"/>
  <g transform="matrix(1 0 0 1 263 1933)">
   <path d="M9.24805 0.830078C13.5547 0.830078 17.1387-2.74414 17.1387-7.05078C17.1387-11.3574 13.5449-14.9316 9.23828-14.9316C4.94141-14.9316 1.36719-11.3574 1.36719-7.05078C1.36719-2.74414 4.95117 0.830078 9.24805 0.830078ZM9.24805-0.654297C5.70312-0.654297 2.87109-3.49609 2.87109-7.05078C2.87109-10.6055 5.69336-13.4473 9.23828-13.4473C12.793-13.4473 15.6445-10.6055 15.6445-7.05078C15.6445-3.49609 12.8027-0.654297 9.24805-0.654297ZM5.6543-7.05078C5.6543-6.62109 5.95703-6.32812 6.40625-6.32812L8.50586-6.32812L8.50586-4.20898C8.50586-3.76953 8.79883-3.4668 9.22852-3.4668C9.67773-3.4668 9.9707-3.76953 9.9707-4.20898L9.9707-6.32812L12.0898-6.32812C12.5293-6.32812 12.832-6.62109 12.832-7.05078C12.832-7.49023 12.5293-7.79297 12.0898-7.79297L9.9707-7.79297L9.9707-9.90234C9.9707-10.3516 9.67773-10.6543 9.22852-10.6543C8.79883-10.6543 8.50586-10.3516 8.50586-9.90234L8.50586-7.79297L6.40625-7.79297C5.95703-7.79297 5.6543-7.49023 5.6543-7.05078Z"/>
  </g>
  <g transform="matrix(1 0 0 1 281.867 1933)">
   <path d="M11.709 2.91016C17.1582 2.91016 21.6699-1.61133 21.6699-7.05078C21.6699-12.5 17.1484-17.0117 11.6992-17.0117C6.25977-17.0117 1.74805-12.5 1.74805-7.05078C1.74805-1.61133 6.26953 2.91016 11.709 2.91016ZM11.709 1.25C7.09961 1.25 3.41797-2.44141 3.41797-7.05078C3.41797-11.6602 7.08984-15.3516 11.6992-15.3516C16.3086-15.3516 20.0098-11.6602 20.0098-7.05078C20.0098-2.44141 16.3184 1.25 11.709 1.25ZM7.17773-7.05078C7.17773-6.57227 7.50977-6.25 8.00781-6.25L10.8789-6.25L10.8789-3.36914C10.8789-2.88086 11.2109-2.53906 11.6895-2.53906C12.1777-2.53906 12.5195-2.87109 12.5195-3.36914L12.5195-6.25L15.4004-6.25C15.8887-6.25 16.2305-6.57227 16.2305-7.05078C16.2305-7.53906 15.8887-7.88086 15.4004-7.88086L12.5195-7.88086L12.5195-10.752C12.5195-11.25 12.1777-11.5918 11.6895-11.5918C11.2109-11.5918 10.8789-11.25 10.8789-10.752L10.8789-7.88086L8.00781-7.88086C7.50977-7.88086 7.17773-7.53906 7.17773-7.05078Z"/>
  </g>
  <g transform="matrix(1 0 0 1 305.646 1933)">
   <path d="M14.9707 5.66406C21.9336 5.66406 27.6953-0.0976562 27.6953-7.05078C27.6953-14.0137 21.9238-19.7754 14.9609-19.7754C8.00781-19.7754 2.25586-14.0137 2.25586-7.05078C2.25586-0.0976562 8.01758 5.66406 14.9707 5.66406ZM14.9707 3.84766C8.93555 3.84766 4.08203-1.01562 4.08203-7.05078C4.08203-13.0957 8.92578-17.9492 14.9609-17.9492C21.0059-17.9492 25.8691-13.0957 25.8691-7.05078C25.8691-1.01562 21.0156 3.84766 14.9707 3.84766ZM9.19922-7.05078C9.19922-6.5332 9.57031-6.17188 10.1172-6.17188L14.0625-6.17188L14.0625-2.2168C14.0625-1.67969 14.4336-1.29883 14.9512-1.29883C15.4883-1.29883 15.8594-1.66992 15.8594-2.2168L15.8594-6.17188L19.8145-6.17188C20.3516-6.17188 20.7324-6.5332 20.7324-7.05078C20.7324-7.59766 20.3613-7.96875 19.8145-7.96875L15.8594-7.96875L15.8594-11.9141C15.8594-12.4609 15.4883-12.8418 14.9512-12.8418C14.4336-12.8418 14.0625-12.4609 14.0625-11.9141L14.0625-7.96875L10.1172-7.96875C9.57031-7.96875 9.19922-7.59766 9.19922-7.05078Z"/>
  </g>
  <text style="stroke:none;fill:black;font-family:sans-serif;font-size:13;font-weight:bold;" transform="matrix(1 0 0 1 263 1953)">Design Variations</text>
  <text style="stroke:none;fill:black;font-family:sans-serif;font-size:13;" transform="matrix(1 0 0 1 263 1971)">Symbols are supported in up to nine weights and three scales.</text>
  <text style="stroke:none;fill:black;font-family:sans-serif;font-size:13;" transform="matrix(1 0 0 1 263 1989)">For optimal layout with text and other symbols, vertically align</text>
  <text style="stroke:none;fill:black;font-family:sans-serif;font-size:13;" transform="matrix(1 0 0 1 263 2007)">symbols with the adjacent text.</text>
  <line style="fill:none;stroke:#00AEEF;stroke-width:0.5;opacity:1.0;" x1="776" x2="776" y1="1919" y2="1933"/>
  <g transform="matrix(1 0 0 1 776 1933)">
   <path d="M3.31055 0.15625C3.82812 0.15625 4.08203-0.0390625 4.26758-0.585938L5.52734-4.0332L11.2891-4.0332L12.5488-0.585938C12.7344-0.0390625 12.9883 0.15625 13.4961 0.15625C14.0137 0.15625 14.3457-0.15625 14.3457-0.644531C14.3457-0.810547 14.3164-0.966797 14.2383-1.17188L9.6582-13.3691C9.43359-13.9648 9.0332-14.2676 8.4082-14.2676C7.80273-14.2676 7.39258-13.9746 7.17773-13.3789L2.59766-1.16211C2.51953-0.957031 2.49023-0.800781 2.49023-0.634766C2.49023-0.146484 2.80273 0.15625 3.31055 0.15625ZM6.00586-5.51758L8.37891-12.0898L8.42773-12.0898L10.8008-5.51758Z"/>
  </g>
  <line style="fill:none;stroke:#00AEEF;stroke-width:0.5;opacity:1.0;" x1="793.197" x2="793.197" y1="1919" y2="1933"/>
  <text style="stroke:none;fill:black;font-family:sans-serif;font-size:13;font-weight:bold;" transform="matrix(1 0 0 1 776 1953)">Margins</text>
  <text style="stroke:none;fill:black;font-family:sans-serif;font-size:13;" transform="matrix(1 0 0 1 776 1971)">Leading and trailing margins on the left and right side of each symbol</text>
  <text style="stroke:none;fill:black;font-family:sans-serif;font-size:13;" transform="matrix(1 0 0 1 776 1989)">can be adjusted by modifying the x-location of the margin guidelines.</text>
  <text style="stroke:none;fill:black;font-family:sans-serif;font-size:13;" transform="matrix(1 0 0 1 776 2007)">Modifications are automatically applied proportionally to all</text>
  <text style="stroke:none;fill:black;font-family:sans-serif;font-size:13;" transform="matrix(1 0 0 1 776 2025)">scales and weights.</text>
  <g transform="matrix(1 0 0 1 1289 1933)">
   <path d="M2.8418 1.86523L4.54102 3.57422C5.40039 4.44336 6.38672 4.38477 7.31445 3.35938L18.0078-8.42773L17.041-9.4043L6.42578 2.27539C6.07422 2.67578 5.74219 2.77344 5.27344 2.30469L4.10156 1.14258C3.63281 0.683594 3.74023 0.341797 4.14062-0.0195312L15.6152-10.8203L14.6387-11.7871L3.04688-0.898438C2.06055 0.0195312 1.98242 0.996094 2.8418 1.86523ZM9.25781-16.3281C8.83789-15.918 8.80859-15.3418 9.04297-14.9512C9.27734-14.5898 9.73633-14.3555 10.3809-14.5215C11.8457-14.8633 13.3691-14.9219 14.7949-13.9844L14.209-12.5293C13.8672-11.6992 14.043-11.1133 14.5801-10.5664L16.875-8.25195C17.3633-7.76367 17.7734-7.74414 18.3398-7.8418L19.4043-8.03711L20.0684-7.36328L20.0293-6.80664C19.9902-6.30859 20.1172-5.92773 20.6055-5.44922L21.3672-4.70703C21.8457-4.22852 22.4609-4.19922 22.9297-4.66797L25.8398-7.58789C26.3086-8.05664 26.2891-8.65234 25.8105-9.13086L25.0391-9.89258C24.5605-10.3711 24.1895-10.5273 23.7109-10.4883L23.1348-10.4395L22.4902-11.0742L22.7344-12.1973C22.8613-12.7637 22.7051-13.2031 22.1191-13.7891L19.9219-15.9766C16.582-19.2969 12.1484-19.2188 9.25781-16.3281ZM10.752-15.957C13.1836-17.7344 16.4746-17.4316 18.7012-15.2051L21.1328-12.793C21.3672-12.5586 21.4062-12.373 21.3379-12.0312L21.0156-10.5469L22.5195-9.0625L23.5059-9.12109C23.7598-9.13086 23.8379-9.11133 24.0332-8.91602L24.6094-8.33984L22.168-5.89844L21.5918-6.47461C21.3965-6.66992 21.3672-6.74805 21.377-7.01172L21.4453-7.98828L19.9512-9.47266L18.4277-9.21875C18.1055-9.15039 17.959-9.17969 17.7148-9.41406L15.7129-11.416C15.459-11.6504 15.4297-11.8164 15.5859-12.1875L16.4648-14.2773C14.9023-15.7324 12.8711-16.3574 10.8398-15.7617C10.6836-15.7227 10.625-15.8496 10.752-15.957Z"/>
  </g>
  <text style="stroke:none;fill:black;font-family:sans-serif;font-size:13;font-weight:bold;" transform="matrix(1 0 0 1 1289 1953)">Exporting</text>
  <text style="stroke:none;fill:black;font-family:sans-serif;font-size:13;" transform="matrix(1 0 0 1 1289 1971)">Symbols should be outlined when exporting to ensure the</text>
  <text style="stroke:none;fill:black;font-family:sans-serif;font-size:13;" transform="matrix(1 0 0 1 1289 1989)">design is preserved when submitting to Xcode.</text>
  <text id="template-version" style="stroke:none;fill:black;font-family:sans-serif;font-size:13;text-anchor:end;" transform="matrix(1 0 0 1 3036 1933)">Template v.4.0</text>
  <text style="stroke:none;fill:black;font-family:sans-serif;font-size:13;text-anchor:end;" transform="matrix(1 0 0 1 3036 1951)">Requires Xcode 14 or greater</text>
  <text id="descriptive-name" style="stroke:none;fill:black;font-family:sans-serif;font-size:13;text-anchor:end;" transform="matrix(1 0 0 1 3036 1969)">Generated from taycan.charging</text>
  <text style="stroke:none;fill:black;font-family:sans-serif;font-size:13;text-anchor:end;" transform="matrix(1 0 0 1 3036 1987)">Typeset at 100 points</text>
  <text style="stroke:none;fill:black;font-family:sans-serif;font-size:13;" transform="matrix(1 0 0 1 263 726)">Small</text>
  <text style="stroke:none;fill:black;font-family:sans-serif;font-size:13;" transform="matrix(1 0 0 1 263 1156)">Medium</text>
  <text style="stroke:none;fill:black;font-family:sans-serif;font-size:13;" transform="matrix(1 0 0 1 263 1586)">Large</text>
 </g>
 <g id="Guides">
  <g id="H-reference" style="fill:#27AAE1;stroke:none;" transform="matrix(1 0 0 1 339 696)">
   <path d="M0.993654 0L3.63775 0L29.3281-67.1323L30.0303-67.1323L30.0303-70.459L28.1226-70.459ZM11.6885-24.4799L46.9815-24.4799L46.2315-26.7285L12.4385-26.7285ZM55.1196 0L57.7637 0L30.6382-70.459L29.4326-70.459L29.4326-67.1323Z"/>
  </g>
  <line id="Baseline-S" style="fill:none;stroke:#27AAE1;opacity:1;stroke-width:0.5;" x1="263" x2="3036" y1="696" y2="696"/>
  <line id="Capline-S" style="fill:none;stroke:#27AAE1;opacity:1;stroke-width:0.5;" x1="263" x2="3036" y1="625.541" y2="625.541"/>
  <g id="H-reference" style="fill:#27AAE1;stroke:none;" transform="matrix(1 0 0 1 339 1126)">
   <path d="M0.993654 0L3.63775 0L29.3281-67.1323L30.0303-67.1323L30.0303-70.459L28.1226-70.459ZM11.6885-24.4799L46.9815-24.4799L46.2315-26.7285L12.4385-26.7285ZM55.1196 0L57.7637 0L30.6382-70.459L29.4326-70.459L29.4326-67.1323Z"/>
  </g>
  <line id="Baseline-M" style="fill:none;stroke:#27AAE1;opacity:1;stroke-width:0.5;" x1="263" x2="3036" y1="1126" y2="1126"/>
  <line id="Capline-M" style="fill:none;stroke:#27AAE1;opacity:1;stroke-width:0.5;" x1="263" x2="3036" y1="1055.54" y2="1055.54"/>
  <g id="H-reference" style="fill:#27AAE1;stroke:none;" transform="matrix(1 0 0 1 339 1556)">
   <path d="M0.993654 0L3.63775 0L29.3281-67.1323L30.0303-67.1323L30.0303-70.459L28.1226-70.459ZM11.6885-24.4799L46.9815-24.4799L46.2315-26.7285L12.4385-26.7285ZM55.1196 0L57.7637 0L30.6382-70.459L29.4326-70.459L29.4326-67.1323Z"/>
  </g>
  <line id="Baseline-L" style="fill:none;stroke:#27AAE1;opacity:1;stroke-width:0.5;" x1="263" x2="3036" y1="1556" y2="1556"/>
  <line id="Capline-L" style="fill:none;stroke:#27AAE1;opacity:1;stroke-width:0.5;" x1="263" x2="3036" y1="1485.54" y2="1485.54"/>
  <line id="left-margin-Regular-M" style="fill:none;stroke:#00AEEF;stroke-width:0.5;opacity:1.0;" x1="1379.59" x2="1379.59" y1="1030.79" y2="1150.12"/>
  <line id="right-margin-Regular-M" style="fill:none;stroke:#00AEEF;stroke-width:0.5;opacity:1.0;" x1="1520.09" x2="1520.09" y1="1030.79" y2="1150.12"/>
 </g>
 <g id="Symbols">
  <g id="Semibold-L" transform="matrix(1 0 0 1 1950.87 1556)">
   <path d="M72.4107-42.6C72.4107-41.2999 73.4107-40.2999 74.7108-40.2999L89.7108-40.2999L81.8107-19.2C80.6108-16 84.1108-14.1 86.2108-16.7L110.911-47.2999C111.411-47.8999 111.811-48.6 111.811-49.2C111.811-50.5 110.611-51.3999 109.511-51.3999L94.7108-51.3999L102.611-72.4999C103.811-75.6998 100.411-77.5999 98.2108-74.9999L73.5108-44.4999C72.8107-43.9 72.4107-43.2 72.4107-42.6ZM25.8107-30.6C28.9107-30.7 43.9107-29.4 50.0107-28.7999C51.7106-28.7 56.4107-27.1 56.4107-27.1C56.4107-27.1 47.2108-38.7999 43.1107-41C40.2106-42.6 33.6107-43.2 30.4107-43.3C29.0107-43.3 26.1107-43.7001 24.7108-43.3C24.1108-43 22.6108-42.4 22.1108-41.9C21.1108-40.7001 20.2108-38.5 19.9108-37.2001C19.0108-32.8 19.0108-28.4 19.3109-23.0001C19.6109-19.0001 20.7109-10.5001 21.8109-7.00012C21.9108-6.50012 22.7109-5.40015 23.2109-5.20007C24.1109-4.70007 24.6109-4.90002 25.3109-5.50012C25.7109-5.90015 26.5108-6.40015 26.3109-7.1001C25.9108-11.0001 24.5108-18.8 24.3109-23.2001C24.3109-24.9 23.9108-28.4 24.4108-29.7001C24.7108-30.1 25.3107-30.5 25.8107-30.6ZM159.211-30.6C156.111-30.7 141.111-29.4 135.011-28.7999C133.311-28.7 128.611-27.1 128.611-27.1C128.611-27.1 137.811-38.7999 141.911-41C144.811-42.6 151.411-43.2 154.611-43.3C156.011-43.3 158.911-43.7001 160.311-43.3C161.011-43 162.411-42.4 162.911-41.9C163.911-40.7001 164.811-38.5 165.111-37.2001C166.011-32.8 166.011-28.4 165.711-23.0001C165.411-19.0001 164.311-10.5001 163.211-7.00012C163.111-6.50012 162.311-5.40015 161.811-5.20007C160.911-4.70007 160.411-4.90002 159.711-5.50012C159.311-5.90015 158.511-6.40015 158.711-7.1001C159.111-11.0001 160.511-18.8 160.611-23.2001C160.611-24.9 161.011-28.4 160.511-29.7001C160.511-30.1 159.711-30.5 159.211-30.6ZM18.2108-56.3C18.2108-56.3 7.91072-57.7001 5.51081-58.5C4.31086-58.9 3.41084-62.3 3.41084-63.4C3.51081-64.6 4.21089-65.5 4.71089-66C7.01094-67.9 13.4108-68.6 16.3109-68.5C17.0108-68.5 18.4108-67.8 18.8109-67.3C19.6109-66 18.9108-61.2001 18.9108-61.2001L22.4108-55.6001L18.2108-56.3ZM162.611-55.7L166.111-61.2999C166.111-61.2999 165.511-66.1 166.211-67.3999C166.611-67.8999 168.011-68.5999 168.711-68.5999C171.711-68.6998 178.111-68.0999 180.311-66.0999C180.811-65.5999 181.611-64.6998 181.611-63.4999C181.711-62.2999 180.711-58.8999 179.511-58.5999C177.011-57.7998 166.811-56.3999 166.811-56.3999L162.611-55.7ZM161.611 15L23.5107 15C23.5107 15 22.6107 4.5 23.9107 2.69995C26.0107-0.300049 33.7108-2.90002 37.3107-3.30005C49.1108-4.5 92.7108-4.5 92.7108-4.5C92.7108-4.5 136.211-4.59998 148.111-3.30005C151.711-2.90002 159.411-0.300049 161.511 2.69995C162.511 4.5 161.611 15 161.611 15ZM38.8107 18.7C16.2108 18.7 8.41072 17.7 5.11079 13.5C2.51081 10.3 2.41084 4.69995 2.21076-10.7C2.21076-13.7 2.21076-16.8999 2.11079-20.2C2.01081-28.6 1.81074-36.7 3.31074-42.7C6.21076-53.6 14.5107-60.3999 25.8107-61.2C27.5107-66 30.2108-71.6 32.3107-75.7999C41.9107-94.8999 49.7108-95.9999 63.6108-96.2999L65.5108-96.2999C79.3109-96.7 105.311-96.7 119.111-96.2999L121.011-96.2999C134.911-95.8999 142.711-94.8999 152.311-75.7999C154.511-71.3999 157.211-65.9999 158.811-61.2C170.111-60.3999 178.411-53.7 181.311-42.7C182.911-36.7 182.711-28.7999 182.511-20.2L182.511-20.2C182.511-17 182.411-13.7 182.411-10.7C182.311 4.80005 182.111 10.2001 179.511 13.5C175.711 18.3 166.211 19 135.311 18.7C131.711 18.7 128.111 18.7 124.911 18.7L59.311 18.7C56.111 18.7 52.411 18.7 48.911 18.7C45.5108 18.7 42.0108 18.7 38.8107 18.7ZM59.8107 6.80005L125.511 6.80005C128.911 6.80005 132.411 6.80005 136.011 6.80005C147.111 6.90002 165.011 7.1001 170.611 5.6001C171.111 2.40015 171.111-4.8999 171.111-10.9999C171.111-14.0999 171.111-17.3999 171.211-20.5999C171.311-28.2998 171.511-35.4999 170.411-39.7998C168.711-46.1998 164.411-49.3998 157.711-49.5999C153.411-49.6998 149.811-52.4999 148.511-56.5999C147.211-60.7998 144.511-66.0999 142.311-70.4999C135.311-84.2999 132.511-84.3999 121.111-84.6998L119.011-84.6998C105.511-85.0999 79.711-85.0999 66.211-84.6998L64.111-84.6998C52.5111-84.3998 49.811-84.2998 42.9111-70.4999C40.8111-66.4999 38.0111-60.6998 36.7111-56.5999C35.4111-52.5999 31.8111-49.6998 27.5112-49.6998C20.7111-49.5999 16.4112-46.1998 14.8112-39.8998C13.6113-35.4998 13.8112-27.8998 13.9112-20.6998C14.0112-17.4999 14.0112-14.1998 14.0112-11.0999C14.0112-4.99988 14.1112 2.30017 14.5112 5.50012C20.1112 6.90015 38.0112 6.80017 49.1112 6.70007C52.9107 7 56.4107 6.80005 59.8107 6.80005ZM9.71076 10.5L30.6108 13.6C30.6108 13.6 30.7108 23.2 29.7108 23.2C20.9107 23.2 12.5108 23.2 6.91072 23.2C6.01069 23.2 4.61067 22.7999 4.21076 22C2.51081 18.5 2.61079 3.90002 2.61079 3.90002L9.71076 10.5ZM182.011 4C182.011 4 182.111 18.6 180.411 22.1C180.011 22.9 178.611 23.2999 177.711 23.2999C172.111 23.2999 163.811 23.2999 154.911 23.2999C153.911 23.2999 154.011 13.7 154.011 13.7L174.911 10.6L182.011 4Z"/>
  </g>
  <g id="Medium-L" transform="matrix(1 0 0 1 1654.63 1556)">
   <path d="M71.8107-42.1C71.8107-40.7999 72.8107-39.9 74.0107-39.9L89.2106-39.9L81.1107-18.2001C79.9107-15.1001 83.3106-13.4 85.3106-15.9L110.311-47C110.811-47.5 111.211-48.3 111.211-48.9C111.211-50.1 110.211-51.1 108.911-51.1L93.7106-51.1L101.811-72.7999C103.011-75.8999 99.6107-77.7 97.6107-75.1L72.5107-44C72.0107-43.3 71.8107-42.7 71.8107-42.1ZM25.1107-30.7C28.2106-30.7999 43.2106-29.5 49.3106-28.8999C51.0106-28.7999 55.7106-27.2 55.7106-27.2C55.7106-27.2 46.5107-38.8999 42.4106-41.1C39.5106-42.7 32.9106-43.2999 29.7106-43.4C28.3106-43.4 25.4106-43.8 24.0107-43.4C23.4107-43.1 21.9107-42.5 21.4107-42C20.4107-40.8 19.5107-38.6 19.2108-37.3C18.3107-32.9 18.3107-28.5 18.6108-23.1001C18.9108-19.1001 20.0108-10.6001 21.1108-7.1001C21.2108-6.6001 22.0108-5.50012 22.5108-5.30005C23.4108-4.80005 23.9108-5 24.6108-5.6001C25.0108-6.00012 25.8107-6.50012 25.6108-7.20007C25.2108-11.1001 23.8107-18.9 23.6108-23.3C23.6108-25 23.2108-28.5 23.7108-29.8C23.9107-30.2 24.6107-30.6 25.1107-30.7ZM158.511-30.7C155.411-30.7999 140.411-29.5 134.311-28.8999C132.611-28.7999 127.911-27.2 127.911-27.2C127.911-27.2 137.111-38.8999 141.211-41.1C144.111-42.7 150.711-43.2999 153.911-43.4C155.311-43.4 158.211-43.8 159.611-43.4C160.311-43.1 161.711-42.5 162.211-42C163.211-40.8 164.211-38.6 164.411-37.3C165.311-32.9 165.311-28.5 165.111-23.1001C164.81-19.1001 163.711-10.6001 162.611-7.1001C162.511-6.6001 161.711-5.50012 161.211-5.30005C160.31-4.80005 159.81-5 159.111-5.6001C158.711-6.00012 157.911-6.50012 158.111-7.20007C158.511-11.1001 159.911-18.9 160.011-23.3C160.011-25 160.411-28.5 159.911-29.8C159.811-30.2 159.011-30.6 158.511-30.7ZM17.4107-56C17.4107-56 7.11067-57.4 4.71076-58.2C3.51081-58.6 2.61079-62 2.61079-63.1C2.71076-64.2999 3.41084-65.2 3.91084-65.7C6.21089-67.6 12.6108-68.2999 15.5108-68.2C16.2108-68.2 17.6108-67.5 18.0108-67C18.8109-65.7 18.1108-60.9 18.1108-60.9L21.6108-55.3L17.4107-56ZM161.911-55.4L165.411-61C165.411-61 164.711-65.8 165.511-67.1C165.911-67.6 167.311-68.2999 168.011-68.2999C171.011-68.3999 177.411-67.7999 179.611-65.7999C180.111-65.2999 180.911-64.3999 180.911-63.2C181.011-62 180.011-58.6 178.811-58.2999C176.311-57.4999 166.111-56.1 166.111-56.1L161.911-55.4ZM160.811 14.9L22.7108 14.9C22.7108 14.9 21.8107 4.40002 23.1108 2.59998C25.2108-0.400024 32.9108-3 36.5108-3.40002C48.3109-4.59998 91.9108-4.59998 91.9108-4.59998C91.9108-4.59998 135.511-4.69995 147.311-3.40002C150.911-3 158.611-0.400024 160.711 2.59998C161.911 4.40002 160.811 14.9 160.811 14.9ZM145.711 17.9C142.511 17.9 138.911 17.9 135.011 17.9C131.411 17.9 127.811 17.9 124.611 17.9L59.0107 17.9C55.8107 17.9 52.1107 17.9 48.6107 17.9C18.1107 18.2001 8.61067 17.5 4.91072 13C2.61067 10 2.31074 4.69995 2.21076-10.8C2.21076-13.8 2.21076-17 2.11079-20.3C2.01081-28.7001 1.81074-36.7001 3.31074-42.5C7.21076-57.7 19.7108-60.2 25.7108-60.6C27.4107-65.5 30.2108-71.2999 32.3107-75.4C41.8107-94.1 49.3107-95.3 63.1108-95.6L65.1108-95.6C78.9108-96 104.911-96 118.711-95.6L120.611-95.6C134.311-95.2 141.911-94.2 151.411-75.4C153.711-70.9 156.511-65.4 158.011-60.6C164.011-60.2999 176.311-57.7 180.411-42.5C182.011-36.7 181.711-28.7 181.611-20.1L181.611-20.1C181.611-16.9 181.511-13.6 181.511-10.6C181.411 4.90002 181.111 10.2001 178.811 13.2001C175.611 17 168.011 17.9 145.711 17.9ZM59.0107 7.40002L124.611 7.40002C128.011 7.40002 131.511 7.40002 135.111 7.40002C146.511 7.5 165.111 7.70007 170.311 6.09998C170.811 3 171.011-4.70007 171.011-11.1C171.011-14.2 171.011-17.5 171.111-20.7L171.111-20.7C171.211-28.3999 171.411-35.7999 170.211-40.2C168.511-46.7999 164.011-50.2999 156.81-50.5C152.91-50.6 149.41-53.2 148.211-57C146.91-61.2 144.211-66.6 142.011-70.9C134.811-85.1 131.711-85.2001 120.211-85.5L118.111-85.5C104.411-85.9 78.8105-85.9 65.2105-85.5L63.1105-85.5C51.5106-85.2 48.4106-85.1 41.4106-71.1C39.3106-66.9 36.5106-61.2999 35.2106-57.1C34.0107-53.2999 30.5107-50.7 26.6107-50.6C19.5107-50.5 15.0107-47 13.2106-40.2999C12.0107-35.8999 12.2106-28.2 12.3106-20.7999C12.4106-17.6 12.4106-14.2999 12.4106-11.2C12.4106-4.79993 12.5106 3 13.1105 6C18.3105 7.59998 36.9106 7.40002 48.3105 7.30005C52.1107 7.5 55.7106 7.40002 59.0107 7.40002ZM10.3107 10.4L31.2108 13.5C31.2108 13.5 31.3107 23.1 30.3107 23.1C21.5107 23.1 13.1108 23.1 7.51069 23.1C6.61067 23.1 5.21064 22.7 4.81074 21.9C3.11079 18.4 3.21076 3.80005 3.21076 3.80005L10.3107 10.4ZM180.511 3.90002C180.511 3.90002 180.611 18.5 178.911 22C178.511 22.8 177.111 23.2 176.211 23.2C170.611 23.2 162.311 23.2 153.411 23.2C152.411 23.2 152.511 13.6 152.511 13.6L173.411 10.5L180.511 3.90002Z"/>
  </g>
  <g id="Regular-L" transform="matrix(1 0 0 1 1359.14 1556)">
   <path d="M70.6108-41.5C70.6108-40.3 71.5108-39.4 72.7108-39.4L88.4107-39.4L80.1107-16.9C78.9107-13.9 82.2106-12.3 84.1107-14.7001L109.411-46.5001C109.911-47.0001 110.311-47.8002 110.311-48.3002C110.311-49.5001 109.311-50.2002 108.111-50.2002L92.4108-50.2002L100.711-72.7002C101.911-75.7002 98.6109-77.4001 96.8109-74.9001L71.3109-43.1001C70.8107-42.5 70.6108-42 70.6108-41.5ZM23.9107-30.8C27.0107-30.9 42.0107-29.6001 48.1107-29C49.8106-28.9 54.5107-27.3 54.5107-27.3C54.5107-27.3 45.3107-39 41.2106-41.2001C38.3106-42.8 31.7106-43.4 28.5107-43.5001C27.1107-43.5001 24.2106-43.9001 22.8107-43.5001C22.1108-43.2001 20.7108-42.6001 20.2108-42.1001C19.2108-40.9001 18.2108-38.7001 18.0108-37.4001C17.1108-33.0001 17.1108-28.6001 17.3109-23.2002C17.6109-19.2002 18.7109-10.7002 19.8109-7.2002C19.9108-6.7002 20.7109-5.60022 21.2109-5.40015C22.1109-4.90015 22.6109-5.1001 23.3109-5.7002C23.7109-6.10022 24.5108-6.60022 24.3109-7.30017C23.9108-11.2002 22.5108-19.0001 22.4108-23.4001C22.4108-25.1001 22.0108-28.6001 22.5108-29.9001C22.7108-30.3 23.4107-30.7 23.9107-30.8ZM157.311-30.8C154.211-30.9 139.211-29.6001 133.111-29C131.411-28.9 126.711-27.3 126.711-27.3C126.711-27.3 135.911-39 140.011-41.2001C142.911-42.8 149.511-43.4 152.711-43.5001C154.111-43.5001 157.011-43.9001 158.411-43.5001C159.111-43.2001 160.511-42.6001 161.011-42.1001C162.011-40.9001 162.911-38.7001 163.211-37.4001C164.111-33.0001 164.111-28.6001 163.911-23.2002C163.611-19.2002 162.511-10.7002 161.411-7.2002C161.311-6.7002 160.511-5.60022 160.011-5.40015C159.111-4.90015 158.611-5.1001 157.911-5.7002C157.511-6.10022 156.711-6.60022 156.911-7.30017C157.311-11.2002 158.711-19.0001 158.911-23.4001C158.911-25.1001 159.311-28.6001 158.811-29.9001C158.611-30.3 157.811-30.7 157.311-30.8ZM17.5107-54.9C17.5107-54.9 7.21064-56.3 4.81074-57.1C3.61079-57.5 2.71076-60.9 2.71076-62C2.81074-63.2 3.51081-64.1 4.01081-64.6C6.31086-66.5 12.7108-67.2 15.6108-67.1C16.3107-67.1 17.7108-66.4 18.1108-65.9C18.9108-64.6 18.2108-59.8 18.2108-59.8L21.7108-54.2001L17.5107-54.9ZM159.411-54.2L162.911-59.7999C162.911-59.7999 162.211-64.6 163.011-65.8999C163.411-66.3999 164.811-67.0999 165.511-67.0999C168.511-67.1998 174.911-66.5999 177.111-64.5999C177.611-64.0999 178.411-63.1998 178.411-61.9999C178.511-60.7999 177.511-57.3999 176.311-57.0999C173.811-56.2998 163.611-54.8999 163.611-54.8999L159.411-54.2ZM159.611 14.8L21.5108 14.8C21.5108 14.8 20.6108 4.30005 21.9108 2.5C24.0108-0.5 31.7109-3.09998 35.3109-3.5C47.1109-4.69995 90.7109-4.69995 90.7109-4.69995C90.7109-4.69995 134.211-4.79993 146.111-3.5C149.711-3.09998 157.411-0.5 159.511 2.5C160.711 4.30005 159.611 14.8 159.611 14.8ZM144.611 16.5C141.411 16.5 137.811 16.5 133.911 16.5C130.311 16.5 126.711 16.5 123.411 16.5L57.8107 16.5C54.6108 16.5 50.9107 16.5 47.3107 16.5C17.7108 16.8 7.91072 16.2 4.71076 12.1C2.61079 9.40002 2.41072 4.29993 2.21076-10.9C2.21076-13.9 2.21076-17.1 2.11079-20.4C2.01081-28.7001 1.81074-36.6 3.31074-42.4C7.21076-57.5 19.9107-59.3 25.3107-59.4C25.4107-59.4 25.4107-59.5 25.4107-59.5C27.0107-64.4 30.0107-70.6 32.2108-74.8C41.3107-93 48.3107-93.9 61.8107-94.3L63.9107-94.3C77.7108-94.7001 103.611-94.7001 117.311-94.3L119.411-94.3C132.911-93.9 139.911-93 149.011-74.8C151.311-70.1001 154.311-64.3 155.911-59.5C155.911-59.5 155.911-59.4 156.011-59.4C161.311-59.3 174.111-57.3 178.011-42.4C179.411-36.8 179.311-28.9 179.211-20.4L179.211-20.4C179.111-17.2001 179.111-13.9 179.111-10.8C179.011 4.3999 178.711 9.5 176.611 12.2C173.711 15.6 166.011 16.5 144.611 16.5ZM57.8107 8.5L123.311 8.5C126.511 8.5 130.211 8.5 133.811 8.5C145.911 8.59998 165.911 8.80005 170.211 6.90002C170.811 4.30005 171.011-4.29993 171.011-11.2C171.011-14.2999 171.011-17.6 171.111-20.7999L171.111-20.7999C171.211-28.6 171.411-35.9999 170.211-40.6C167.911-49.7 161.011-51.7999 155.611-51.7999C152.211-51.8999 149.211-54.1 148.211-57.3999C146.911-61.7 144.011-67.2 141.811-71.5999C134.311-86.3999 130.711-86.5999 118.911-86.7998L116.811-86.7998C103.111-87.1998 77.4107-87.1998 63.9107-86.7998L61.8107-86.7998C50.0107-86.4998 46.3107-86.3998 38.9107-71.5999C36.8107-67.3999 34.0107-61.6998 32.5107-57.2998C31.5107-54.0999 28.5107-51.7998 25.1107-51.6998C19.8106-51.5999 12.9107-49.4999 10.5107-40.4999C9.31074-35.7999 9.51069-28.4999 9.61067-20.6998C9.71064-17.4999 9.71064-14.1998 9.71064-11.0999C9.71064-4.09985 9.81062 4.50012 10.5107 7.1001C14.8107 8.90015 34.8107 8.80005 46.9107 8.70007C51.0107 8.69995 54.6108 8.5 57.8107 8.5ZM10.5107 6.90002L10.5107 6.90002ZM10.4107 10.2L31.3107 13.2999C31.3107 13.2999 31.4107 22.8999 30.4107 22.8999C21.6107 22.8999 13.2108 22.8999 7.61067 22.8999C6.71064 22.8999 5.31062 22.4999 4.91072 21.7C3.21076 18.2 3.31074 3.59998 3.31074 3.59998L10.4107 10.2ZM178.011 3.69995C178.011 3.69995 178.111 18.2999 176.411 21.7999C176.011 22.6 174.611 22.9999 173.711 22.9999C168.111 22.9999 159.811 22.9999 150.911 22.9999C149.911 22.9999 150.011 13.3999 150.011 13.3999L170.911 10.2999L178.011 3.69995Z"/>
  </g>
  <g id="Semibold-M" transform="matrix(1 0 0 1 1971.68 1126)">
   <path d="M56.1001-40.2C56.1001-39.2 56.9001-38.3999 57.9001-38.3999L69.4001-38.3999L63.3002-22.2C62.4001-19.7 65.1002-18.2999 66.7002-20.2999L85.7002-43.7999C86.1001-44.2999 86.4001-44.7999 86.4001-45.2999C86.4001-46.2999 85.5002-46.9999 84.6001-46.9999L73.2001-46.9999L79.3-63.1998C80.2-65.6998 77.6001-67.0999 75.9001-65.0999L56.9001-41.5999C56.4-41.2 56.1001-40.7 56.1001-40.2ZM20.3-31C22.7001-31.1 34.2001-30.1 38.9-29.6C40.2001-29.5 43.8-28.2999 43.8-28.2999C43.8-28.2999 36.7001-37.2999 33.6001-38.9999C31.4001-40.1998 26.3-40.6998 23.8-40.7999C22.7001-40.7999 20.5-41.1 19.4-40.7999C18.9-40.6 17.8-40.1 17.4-39.7C16.6-38.7999 15.9-37.1 15.7001-36.1C15.0001-32.7 15.0001-29.2999 15.2001-25.2C15.4-22.1 16.3-15.6 17.1001-12.8999C17.2001-12.4999 17.8-11.7 18.2001-11.4999C18.9-11.0999 19.3-11.2999 19.8-11.6998C20.1001-11.9999 20.7001-12.3998 20.6001-12.8998C20.3-15.8998 19.2001-21.8998 19.1001-25.2998C19.1001-26.5999 18.8-29.2998 19.2001-30.2998C19.4-30.6 19.9-30.9 20.3-31ZM122.9-31C120.5-31.1 109-30.1 104.3-29.6C103-29.5 99.4001-28.2999 99.4001-28.2999C99.4001-28.2999 106.5-37.2999 109.6-38.9999C111.8-40.1998 116.9-40.6998 119.4-40.7999C120.5-40.7999 122.7-41.1 123.8-40.7999C124.3-40.6 125.4-40.1 125.8-39.7C126.6-38.7999 127.3-37.1 127.5-36.1C128.2-32.7 128.2-29.2999 128-25.2C127.8-22.1 126.9-15.6 126.1-12.8999C126-12.4999 125.4-11.7 125-11.4999C124.3-11.0999 123.9-11.2999 123.4-11.6998C123.1-11.9999 122.5-12.3998 122.6-12.8998C122.9-15.8998 124-21.8998 124.1-25.2998C124.1-26.5999 124.4-29.2998 124-30.2998C123.9-30.6 123.3-30.9 122.9-31ZM14.4-50.8C14.4-50.8 6.5-51.9 4.59998-52.5C3.69995-52.8 3-55.4 3-56.3C3.09998-57.2001 3.59998-57.9 4-58.3C5.80005-59.8 10.7-60.3 12.9-60.2001C13.4-60.2001 14.5-59.7001 14.8-59.3C15.4-58.3 14.9-54.6001 14.9-54.6001L17.6-50.3L14.4-50.8ZM125.5-50.3L128.2-54.6001C128.2-54.6001 127.7-58.3 128.3-59.3C128.6-59.7001 129.7-60.2001 130.2-60.2001C132.5-60.3 137.4-59.8 139.1-58.3C139.5-57.9 140.1-57.2001 140.1-56.3C140.2-55.4 139.4-52.8 138.5-52.5C136.6-51.9 128.7-50.8 128.7-50.8L125.5-50.3ZM124.7 4.09998L18.5 4.09998C18.5 4.09998 17.8-4 18.8-5.40002C20.4-7.70007 26.3-9.70007 29.1001-10C38.2001-10.9 71.7001-10.9 71.7001-10.9C71.7001-10.9 105.2-11 114.3-10C117.1-9.69995 123-7.69995 124.6-5.40002C125.4-4 124.7 4.09998 124.7 4.09998ZM30.3 6.90002C12.9 6.90002 6.90002 6.09998 4.40002 2.90002C2.40002 0.400024 2.30005-3.90002 2.20007-15.7C2.20007-18 2.20007-20.5 2.1001-23C2.00012-29.5 1.90015-35.7 3.00012-40.3C5.20007-48.7001 11.6001-53.9 20.3002-54.5C21.6002-58.2 23.7002-62.5 25.3002-65.7C32.7002-80.3999 38.7002-81.2 49.4001-81.5L50.9001-81.5C61.5001-81.8 81.5002-81.8 92.1001-81.5L93.6001-81.5C104.3-81.2 110.3-80.4 117.7-65.7C119.4-62.2999 121.5-58.2 122.7-54.5C131.4-53.9 137.8-48.7 140-40.3C141.2-35.7001 141.1-29.6001 140.9-23L140.9-23C140.9-20.5 140.8-18 140.8-15.7C140.7-3.79993 140.6 0.400024 138.6 2.90002C135.7 6.59998 128.4 7.09998 104.6 6.90002C101.8 6.90002 99.1001 6.90002 96.6001 6.90002L46.1001 6.90002C43.6001 6.90002 40.8 6.90002 38.1001 6.90002C35.4 6.90002 32.7001 6.90002 30.3 6.90002ZM46.4-2.19995L96.9001-2.19995C99.5002-2.19995 102.2-2.19995 105-2.19995C113.5-2.09998 127.3-2 131.6-3.09998C132-5.59998 132-11.2 132-15.9C132-18.3 132-20.8 132.1-23.3C132.2-29.2001 132.3-34.8 131.5-38.1001C130.2-43.0001 126.9-45.5001 121.7-45.6001C118.4-45.7001 115.6-47.8 114.6-51.0001C113.6-54.2001 111.5-58.3002 109.8-61.7001C104.4-72.3 102.3-72.4 93.5-72.6001L91.8999-72.6001C81.5-72.9001 61.7-72.9001 51.2999-72.6001L49.7-72.6001C40.7999-72.4001 38.7-72.3 33.3999-61.7001C31.7999-58.6001 29.5999-54.2001 28.5999-51.0001C27.5999-47.9001 24.7998-45.7001 21.4999-45.7001C16.2999-45.6001 12.9999-43.0001 11.6998-38.2001C10.7998-34.8 10.8998-29.0001 10.9999-23.4C11.0999-20.9 11.0999-18.4 11.0999-16C11.0999-11.3 11.1998-5.69995 11.4999-3.19995C15.7999-2.09998 29.5999-2.19995 38.0999-2.29993C41.1001-2.09998 43.8-2.19995 46.4-2.19995ZM7.90002 0.599976L24 3C24 3 24.1 10.4 23.3 10.4C16.5 10.4 10.1001 10.4 5.80005 10.4C5.1001 10.4 4 10.1 3.70007 9.5C2.40002 6.80005 2.50012-4.40002 2.50012-4.40002L7.90002 0.599976ZM140.6-4.40002C140.6-4.40002 140.7 6.79993 139.4 9.5C139.1 10.1 138 10.4 137.3 10.4C133 10.4 126.6 10.4 119.8 10.4C119 10.4 119.1 3 119.1 3L135.2 0.599976L140.6-4.40002Z"/>
  </g>
  <g id="Medium-M" transform="matrix(1 0 0 1 1675.4 1126)">
   <path d="M55.7-39.8C55.7-38.8 56.5-38.1001 57.3999-38.1001L69.0999-38.1001L62.8999-21.4001C61.9999-19.0001 64.5999-17.7002 66.0999-19.6001L85.2998-43.5001C85.6998-43.9001 85.9998-44.5001 85.9998-45.0001C85.9998-45.9001 85.1997-46.7001 84.1997-46.7001L72.4998-46.7001L78.6997-63.4C79.5997-65.8 76.9998-67.2001 75.4998-65.2001L56.1997-41.3C55.8999-40.7 55.7-40.2 55.7-39.8ZM19.7999-31C22.2-31.1 33.7-30.1 38.3999-29.6C39.7-29.5 43.2999-28.2999 43.2999-28.2999C43.2999-28.2999 36.2-37.2999 33.1-38.9999C30.9-40.1998 25.7999-40.6998 23.2999-40.7999C22.2-40.7999 19.9999-41.1 18.8999-40.7999C18.3999-40.6 17.2999-40.1 16.8999-39.7C16.0999-38.7999 15.3999-37.1 15.2-36.1C14.5-32.7 14.5-29.2999 14.7-25.2C14.8999-22.1 15.7999-15.6 16.6-12.8999C16.7-12.4999 17.2999-11.7 17.7-11.4999C18.3999-11.0999 18.7999-11.2999 19.2999-11.6998C19.6-11.9999 20.2-12.3998 20.1-12.8998C19.7999-15.8998 18.7-21.8998 18.6-25.2998C18.6-26.5999 18.2999-29.2998 18.7-30.2998C18.8999-30.6 19.3999-30.9 19.7999-31ZM122.4-31C120-31.1 108.5-30.1 103.8-29.6C102.5-29.5 98.8999-28.2999 98.8999-28.2999C98.8999-28.2999 106-37.2999 109.1-38.9999C111.3-40.1998 116.4-40.6998 118.9-40.7999C120-40.7999 122.2-41.1 123.3-40.7999C123.8-40.6 124.9-40.1 125.3-39.7C126.1-38.7999 126.8-37.1 127-36.1C127.7-32.7 127.7-29.2999 127.5-25.2C127.3-22.1 126.4-15.6 125.6-12.8999C125.5-12.4999 124.9-11.7 124.5-11.4999C123.8-11.0999 123.4-11.2999 122.9-11.6998C122.6-11.9999 122-12.3998 122.1-12.8998C122.4-15.8998 123.5-21.8998 123.6-25.2998C123.6-26.5999 123.9-29.2998 123.5-30.2998C123.4-30.6 122.8-30.9 122.4-31ZM13.8999-50.5C13.8999-50.5 5.99988-51.6 4.09985-52.2C3.19983-52.5 2.49988-55.1 2.49988-56C2.59985-56.9 3.09985-57.6 3.49988-58C5.29993-59.5 10.1998-60 12.3999-59.9C12.8999-59.9 13.9999-59.4 14.2999-59C14.8999-58 14.3999-54.3 14.3999-54.3L17.0999-50L13.8999-50.5ZM125-50L127.7-54.3C127.7-54.3 127.2-58 127.8-59C128.1-59.4 129.2-59.9 129.7-59.9C132-60 136.9-59.5 138.6-58C139-57.6 139.6-56.9 139.6-56C139.7-55.1 138.9-52.5 138-52.2C136.1-51.6 128.2-50.5 128.2-50.5L125-50ZM124.2 4.09998L18 4.09998C18 4.09998 17.3-4 18.3-5.40002C19.9-7.70007 25.8-9.70007 28.6001-10C37.7001-10.9 71.2001-10.9 71.2001-10.9C71.2001-10.9 104.7-11 113.8-10C116.6-9.69995 122.5-7.69995 124.1-5.40002C125-4 124.2 4.09998 124.2 4.09998ZM112.6 6.40002C110.1 6.40002 107.4 6.40002 104.4 6.40002C101.6 6.40002 98.9 6.40002 96.4 6.40002L45.9 6.40002C43.4 6.40002 40.6 6.40002 37.9 6.40002C14.4 6.59998 7.09998 6.09998 4.30005 2.59998C2.5 0.299927 2.30005-3.80005 2.20007-15.7001C2.20007-18.0001 2.20007-20.5001 2.1001-23.0001C2.00012-29.5001 1.90015-35.6001 3.00012-40.1001C6.00012-51.8 15.6001-53.7001 20.2001-54.0001C21.5001-57.8002 23.7001-62.2001 25.3-65.4001C32.6001-79.8002 38.4-80.7002 49-80.9001L50.5-80.9001C61.1-81.2002 81.1-81.2002 91.7-80.9001L93.2-80.9001C103.7-80.6001 109.6-79.8002 116.9-65.4001C118.7-61.9001 120.8-57.7002 122-54.0001C126.6-53.8002 136.1-51.8002 139.2-40.1001C140.4-35.6001 140.2-29.5001 140.1-22.9001L140.1-22.9001C140.1-20.4001 140-17.9001 140-15.6001C139.9-3.70007 139.7 0.399902 137.9 2.69995C135.6 5.69995 129.7 6.40002 112.6 6.40002ZM45.8999-1.69995L96.3999-1.69995C98.9999-1.69995 101.7-1.69995 104.5-1.69995C113.3-1.59998 127.6-1.5 131.6-2.69995C132-5.09998 132.1-11 132.1-15.8999C132.1-18.2999 132.1-20.7999 132.2-23.2999L132.2-23.2999C132.3-29.2 132.4-34.8999 131.5-38.2999C130.2-43.3999 126.7-46.1 121.2-46.2C118.2-46.2999 115.5-48.2999 114.6-51.2C113.6-54.3999 111.5-58.6 109.8-61.8999C104.3-72.7999 101.9-72.8999 92.9998-73.0999L91.3998-73.0999C80.8998-73.3999 61.1998-73.3999 50.6998-73.0999L49.0999-73.0999C40.1998-72.8999 37.7998-72.7998 32.3999-61.9999C30.7999-58.7999 28.5999-54.4999 27.5999-51.1998C26.6998-48.2998 23.9999-46.2998 20.9999-46.1998C15.4999-46.0999 12.0999-43.3998 10.6998-38.2998C9.7998-34.8998 9.89978-28.9998 9.99988-23.2998C10.0999-20.7998 10.0999-18.2998 10.0999-15.8998C10.0999-10.9998 10.1998-4.99976 10.5999-2.69983C14.5999-1.49988 28.8999-1.59985 37.6998-1.69983C40.6-1.59998 43.2999-1.69995 45.8999-1.69995ZM8.3999 0.599976L24.4999 3C24.4999 3 24.5999 10.4 23.7999 10.4C16.9999 10.4 10.6 10.4 6.29993 10.4C5.59998 10.4 4.49988 10.1 4.19995 9.5C2.8999 6.80005 3-4.40002 3-4.40002L8.3999 0.599976ZM139.3-4.40002C139.3-4.40002 139.4 6.79993 138.1 9.5C137.8 10.1 136.7 10.4 136 10.4C131.7 10.4 125.3 10.4 118.5 10.4C117.7 10.4 117.8 3 117.8 3L133.9 0.599976L139.3-4.40002Z"/>
  </g>
  <g id="Regular-M" transform="matrix(1 0 0 1 1379.59 1126)">
   <path d="M54.8-39.2C54.8-38.2999 55.5-37.6 56.4-37.6L68.5-37.6L62.1-20.2999C61.2-17.9999 63.7-16.7999 65.2-18.6L84.7-43.1C85.1-43.5 85.3999-44.1 85.3999-44.5C85.3999-45.4 84.5999-46 83.7-46L71.6-46L78-63.3C78.9-65.6001 76.4-66.9 75-65L55.4-40.5C55-40 54.8-39.6 54.8-39.2ZM18.9-31C21.3-31.1 32.8-30.1 37.5-29.6C38.8-29.5 42.4-28.2999 42.4-28.2999C42.4-28.2999 35.3-37.2999 32.2001-38.9999C30.0001-40.1998 24.9-40.6998 22.4-40.7999C21.3-40.7999 19.1-41.1 18-40.7999C17.5-40.6 16.4-40.1 16-39.7C15.2-38.7999 14.5-37.1 14.3-36.1C13.6001-32.7 13.6001-29.2999 13.8-25.2C14-22.1 14.9-15.6 15.7001-12.8999C15.8-12.4999 16.4-11.7 16.8-11.4999C17.5-11.0999 17.9-11.2999 18.4-11.6998C18.7001-11.9999 19.3-12.3998 19.2001-12.8998C18.9-15.8998 17.8-21.8998 17.7001-25.2998C17.7001-26.5999 17.4-29.2998 17.8-30.2998C18-30.6 18.5-30.9 18.9-31ZM121.5-31C119.1-31.1 107.6-30.1 102.9-29.6C101.6-29.5 98-28.2999 98-28.2999C98-28.2999 105.1-37.2999 108.2-38.9999C110.4-40.1998 115.5-40.6998 118-40.7999C119.1-40.7999 121.3-41.1 122.4-40.7999C122.9-40.6 124-40.1 124.4-39.7C125.2-38.7999 125.9-37.1 126.1-36.1C126.8-32.7 126.8-29.2999 126.6-25.2C126.4-22.1 125.5-15.6 124.7-12.8999C124.6-12.4999 124-11.7 123.6-11.4999C122.9-11.0999 122.5-11.2999 122-11.6998C121.7-11.9999 121.1-12.3998 121.2-12.8998C121.5-15.8998 122.6-21.8998 122.7-25.2998C122.7-26.5999 123-29.2998 122.6-30.2998C122.5-30.6 121.9-30.9 121.5-31ZM14-49.5C14-49.5 6.09998-50.6 4.19995-51.2C3.29993-51.5 2.59998-54.1 2.59998-55C2.69995-55.9 3.19995-56.6 3.59998-57C5.40002-58.5 10.2999-59 12.5-58.9C13-58.9 14.1-58.4 14.4-58C15-57 14.5-53.3 14.5-53.3L17.2-49L14-49.5ZM123.1-49L125.8-53.3C125.8-53.3 125.3-57 125.9-58C126.2-58.4 127.3-58.9 127.8-58.9C130.1-59 135-58.5 136.7-57C137.1-56.6 137.7-55.9 137.7-55C137.8-54.1 137-51.5 136.1-51.2C134.2-50.6 126.3-49.5 126.3-49.5L123.1-49ZM123.3 4.09998L17.1001 4.09998C17.1001 4.09998 16.4001-4 17.4001-5.40002C19.0001-7.70007 24.9001-9.70007 27.7002-10C36.8002-10.9 70.3002-10.9 70.3002-10.9C70.3002-10.9 103.8-11 112.9-10C115.7-9.69995 121.6-7.69995 123.2-5.40002C124.1-4 123.3 4.09998 123.3 4.09998ZM111.7 5.40002C109.2 5.40002 106.5 5.40002 103.5 5.40002C100.7 5.40002 98.0001 5.40002 95.4001 5.40002L45.0001 5.40002C42.5001 5.40002 39.7001 5.40002 36.9001 5.40002C14.1001 5.59998 6.6001 5.20007 4.1001 2C2.50012-0.0999756 2.30005-4 2.20007-15.7C2.20007-18 2.20007-20.5 2.1001-23C2.00012-29.4 1.90015-35.5 3.00012-39.9C6.00012-51.5 15.8002-52.9 19.9001-53C20.0001-53 20.0001-53.1 20.0001-53.1C21.2001-56.9 23.5001-61.6 25.2001-64.9C32.2001-78.9 37.6001-79.6 48.0001-79.9L49.6001-79.9C60.2001-80.2001 80.1001-80.2001 90.7001-79.9L92.3-79.9C102.7-79.6 108.1-78.9 115.1-64.9C116.9-61.3 119.2-56.8 120.4-53.1C120.4-53.1 120.4-53 120.5-53C124.6-52.9 134.4-51.4 137.4-39.9C138.5-35.6 138.4-29.5 138.3-23L138.3-23C138.2-20.5 138.2-18 138.2-15.6C138.1-3.90002 137.9 0 136.3 2.09998C134.1 4.69995 128.2 5.40002 111.7 5.40002ZM45-0.699951L95.4-0.699951C97.9-0.699951 100.7-0.699951 103.5-0.699951C112.8-0.599976 128.2-0.5 131.5-1.8999C132-3.8999 132.1-10.4999 132.1-15.7999C132.1-18.2 132.1-20.7 132.2-23.2L132.2-23.2C132.3-29.2 132.4-34.8999 131.5-38.3999C129.7-45.3999 124.4-46.9999 120.3-46.9999C117.7-47.0999 115.4-48.7999 114.6-51.2999C113.6-54.6 111.4-58.7999 109.7-62.2C103.9-73.6 101.2-73.7 92.1001-73.8999L90.5001-73.8999C80.0001-74.2 60.2001-74.2 49.8002-73.8999L48.2002-73.8999C39.1002-73.7 36.3002-73.5999 30.6002-62.2C29.0002-59 26.8002-54.6 25.7002-51.2C24.9001-48.7 22.6002-47 20.0002-46.8999C15.9003-46.7999 10.6002-45.2 8.80029-38.2999C7.90027-34.7 8.00024-29.1 8.10034-23.1C8.20032-20.6 8.20032-18.1 8.20032-15.7C8.20032-10.2999 8.30029-3.69995 8.80029-1.69995C12.1003-0.299927 27.5002-0.399902 36.8003-0.5C39.7001-0.599976 42.5-0.699951 45-0.699951ZM8.5 0.599976L24.6 3C24.6 3 24.7 10.4 23.9 10.4C17.1 10.4 10.7001 10.4 6.40002 10.4C5.70007 10.4 4.59998 10.1 4.30005 9.5C3 6.80005 3.1001-4.40002 3.1001-4.40002L8.5 0.599976ZM137.4-4.40002C137.4-4.40002 137.5 6.79993 136.2 9.5C135.9 10.1 134.8 10.4 134.1 10.4C129.8 10.4 123.4 10.4 116.6 10.4C115.8 10.4 115.9 3 115.9 3L132 0.599976L137.4-4.40002Z"/>
  </g>
 </g>
</svg>
