<?xml version="1.0" encoding="utf-8"?>
<!-- Generator: Adobe Illustrator 27.1.1, SVG Export Plug-In . SVG Version: 6.00 Build 0)  -->
<svg version="1.1" id="Layer_1" xmlns="http://www.w3.org/2000/svg" xmlns:xlink="http://www.w3.org/1999/xlink" x="0px" y="0px"
	 viewBox="0 0 3300 2200" style="enable-background:new 0 0 3300 2200;" xml:space="preserve">
<style type="text/css">
	.st0{fill:#FFFFFF;}
	.st1{fill:none;stroke:#000000;stroke-width:0.5;}
	.st2{font-family:'Helvetica-Bold';}
	.st3{font-size:13px;}
	.st4{font-family:'Helvetica';}
	.st5{fill:none;stroke:#00AEEF;stroke-width:0.5;}
	.st6{fill:#27AAE1;}
	.st7{fill:none;stroke:#27AAE1;stroke-width:0.5;}
	.st8{display:none;}
	.st9{display:inline;fill:none;stroke:#000000;stroke-width:5;stroke-miterlimit:10;}
	.st10{display:inline;}
	.st11{fill:none;stroke:#000000;stroke-width:6;stroke-miterlimit:10;}
	.st12{display:inline;fill:none;stroke:#000000;stroke-width:9;stroke-miterlimit:10;}
</style>
<g id="Notes">
	<rect id="artboard" class="st0" width="3300" height="2200"/>
	<line class="st1" x1="263" y1="292" x2="3036" y2="292"/>
	<text transform="matrix(1 0 0 1 263 322)" class="st2 st3">Weight/Scale Variations</text>
	<text transform="matrix(1 0 0 1 534.0633 322)" class="st4 st3">Ultralight</text>
	<text transform="matrix(1 0 0 1 843.7775 322)" class="st4 st3">Thin</text>
	<text transform="matrix(1 0 0 1 1139.035 322)" class="st4 st3">Light</text>
	<text transform="matrix(1 0 0 1 1427.0773 322)" class="st4 st3">Regular</text>
	<text transform="matrix(1 0 0 1 1723.4419 322)" class="st4 st3">Medium</text>
	<text transform="matrix(1 0 0 1 2016.1719 322)" class="st4 st3">Semibold</text>
	<text transform="matrix(1 0 0 1 2326.9705 322)" class="st4 st3">Bold</text>
	<text transform="matrix(1 0 0 1 2618.2659 322)" class="st4 st3">Heavy</text>
	<text transform="matrix(1 0 0 1 2917.5054 322)" class="st4 st3">Black</text>
	<line class="st1" x1="263" y1="1903" x2="3036" y2="1903"/>
	<g transform="matrix(1 0 0 1 263 1933)">
		<path d="M9.2,0.8c4.3,0,7.9-3.6,7.9-7.9c0-4.3-3.6-7.9-7.9-7.9c-4.3,0-7.9,3.6-7.9,7.9C1.4-2.7,5,0.8,9.2,0.8z M9.2-0.7
			c-3.5,0-6.4-2.8-6.4-6.4c0-3.6,2.8-6.4,6.4-6.4c3.6,0,6.4,2.8,6.4,6.4C15.6-3.5,12.8-0.7,9.2-0.7z M5.7-7.1c0,0.4,0.3,0.7,0.8,0.7
			h2.1v2.1c0,0.4,0.3,0.7,0.7,0.7c0.4,0,0.7-0.3,0.7-0.7v-2.1h2.1c0.4,0,0.7-0.3,0.7-0.7c0-0.4-0.3-0.7-0.7-0.7H10v-2.1
			c0-0.4-0.3-0.8-0.7-0.8c-0.4,0-0.7,0.3-0.7,0.8v2.1H6.4C6-7.8,5.7-7.5,5.7-7.1z"/>
	</g>
	<g transform="matrix(1 0 0 1 281.867 1933)">
		<path d="M11.7,2.9c5.4,0,10-4.5,10-10c0-5.4-4.5-10-10-10c-5.4,0-10,4.5-10,10C1.7-1.6,6.3,2.9,11.7,2.9z M11.7,1.2
			c-4.6,0-8.3-3.7-8.3-8.3c0-4.6,3.7-8.3,8.3-8.3c4.6,0,8.3,3.7,8.3,8.3C20-2.4,16.3,1.2,11.7,1.2z M7.2-7.1c0,0.5,0.3,0.8,0.8,0.8
			h2.9v2.9c0,0.5,0.3,0.8,0.8,0.8c0.5,0,0.8-0.3,0.8-0.8v-2.9h2.9c0.5,0,0.8-0.3,0.8-0.8c0-0.5-0.3-0.8-0.8-0.8h-2.9v-2.9
			c0-0.5-0.3-0.8-0.8-0.8c-0.5,0-0.8,0.3-0.8,0.8v2.9H8C7.5-7.9,7.2-7.5,7.2-7.1z"/>
	</g>
	<g transform="matrix(1 0 0 1 305.646 1933)">
		<path d="M15,5.7c7,0,12.7-5.8,12.7-12.7c0-7-5.8-12.7-12.7-12.7C8-19.8,2.3-14,2.3-7.1C2.3-0.1,8,5.7,15,5.7z M15,3.8
			C8.9,3.8,4.1-1,4.1-7.1c0-6,4.8-10.9,10.9-10.9c6,0,10.9,4.9,10.9,10.9C25.9-1,21,3.8,15,3.8z M9.2-7.1c0,0.5,0.4,0.9,0.9,0.9h3.9
			v4c0,0.5,0.4,0.9,0.9,0.9c0.5,0,0.9-0.4,0.9-0.9v-4h4c0.5,0,0.9-0.4,0.9-0.9c0-0.5-0.4-0.9-0.9-0.9h-4v-3.9c0-0.5-0.4-0.9-0.9-0.9
			c-0.5,0-0.9,0.4-0.9,0.9V-8h-3.9C9.6-8,9.2-7.6,9.2-7.1z"/>
	</g>
	<text transform="matrix(1 0 0 1 263 1953)" class="st2 st3">Design Variations</text>
	<text transform="matrix(1 0 0 1 263 1971)" class="st4 st3">Symbols are supported in up to nine weights and three scales.</text>
	<text transform="matrix(1 0 0 1 263 1989)" class="st4 st3">For optimal layout with text and other symbols, vertically align</text>
	<text transform="matrix(1 0 0 1 263 2007)" class="st4 st3">symbols with the adjacent text.</text>
	<line class="st5" x1="776" y1="1919" x2="776" y2="1933"/>
	<g transform="matrix(1 0 0 1 776 1933)">
		<path d="M3.3,0.2c0.5,0,0.8-0.2,1-0.7L5.5-4h5.8l1.3,3.4C12.7,0,13,0.2,13.5,0.2c0.5,0,0.8-0.3,0.8-0.8c0-0.2,0-0.3-0.1-0.5
			L9.7-13.4C9.4-14,9-14.3,8.4-14.3c-0.6,0-1,0.3-1.2,0.9L2.6-1.2C2.5-1,2.5-0.8,2.5-0.6C2.5-0.1,2.8,0.2,3.3,0.2z M6-5.5l2.4-6.6h0
			l2.4,6.6H6z"/>
	</g>
	<line class="st5" x1="793.2" y1="1919" x2="793.2" y2="1933"/>
	<text transform="matrix(1 0 0 1 776 1953)" class="st2 st3">Margins</text>
	<text transform="matrix(1 0 0 1 776 1971)" class="st4 st3">Leading and trailing margins on the left and right side of each symbol</text>
	<text transform="matrix(1 0 0 1 776 1989)" class="st4 st3">can be adjusted by modifying the x-location of the margin guidelines.</text>
	<text transform="matrix(1 0 0 1 776 2007)" class="st4 st3">Modifications are automatically applied proportionally to all</text>
	<text transform="matrix(1 0 0 1 776 2025)" class="st4 st3">scales and weights.</text>
	<g transform="matrix(1 0 0 1 1289 1933)">
		<path d="M2.8,1.9l1.7,1.7c0.9,0.9,1.8,0.8,2.8-0.2L18-8.4l-1-1L6.4,2.3c-0.4,0.4-0.7,0.5-1.2,0L4.1,1.1C3.6,0.7,3.7,0.3,4.1,0
			l11.5-10.8l-1-1L3-0.9C2.1,0,2,1,2.8,1.9z M9.3-16.3c-0.4,0.4-0.4,1-0.2,1.4c0.2,0.4,0.7,0.6,1.3,0.4c1.5-0.3,3-0.4,4.4,0.5
			l-0.6,1.5c-0.3,0.8-0.2,1.4,0.4,2l2.3,2.3c0.5,0.5,0.9,0.5,1.5,0.4L19.4-8l0.7,0.7l0,0.6c0,0.5,0.1,0.9,0.6,1.4l0.8,0.7
			c0.5,0.5,1.1,0.5,1.6,0l2.9-2.9c0.5-0.5,0.4-1.1,0-1.5L25-9.9c-0.5-0.5-0.8-0.6-1.3-0.6l-0.6,0l-0.6-0.6l0.2-1.1
			c0.1-0.6,0-1-0.6-1.6L19.9-16C16.6-19.3,12.1-19.2,9.3-16.3z M10.8-16c2.4-1.8,5.7-1.5,7.9,0.8l2.4,2.4c0.2,0.2,0.3,0.4,0.2,0.8
			L21-10.5l1.5,1.5l1-0.1c0.3,0,0.3,0,0.5,0.2l0.6,0.6l-2.4,2.4l-0.6-0.6c-0.2-0.2-0.2-0.3-0.2-0.5l0.1-1L20-9.5l-1.5,0.3
			c-0.3,0.1-0.5,0-0.7-0.2l-2-2c-0.3-0.2-0.3-0.4-0.1-0.8l0.9-2.1c-1.6-1.5-3.6-2.1-5.6-1.5C10.7-15.7,10.6-15.8,10.8-16z"/>
	</g>
	<text transform="matrix(1 0 0 1 1289 1953)" class="st2 st3">Exporting</text>
	<text transform="matrix(1 0 0 1 1289 1971)" class="st4 st3">Symbols should be outlined when exporting to ensure the</text>
	<text transform="matrix(1 0 0 1 1289 1989)" class="st4 st3">design is preserved when submitting to Xcode.</text>
	<text id="template-version" transform="matrix(1 0 0 1 2952.4141 1933)" class="st4 st3">Template v.4.0</text>
	<text transform="matrix(1 0 0 1 2865.4575 1951)" class="st4 st3">Requires Xcode 14 or greater</text>
	<text id="descriptive-name" transform="matrix(1 0 0 1 2898.7129 1969)" class="st4 st3">Generated from bolt.car</text>
	<text transform="matrix(1 0 0 1 2912.4111 1987)" class="st4 st3">Typeset at 100 points</text>
	<text transform="matrix(1 0 0 1 263 726)" class="st4 st3">Small</text>
	<text transform="matrix(1 0 0 1 263 1156)" class="st4 st3">Medium</text>
	<text transform="matrix(1 0 0 1 263 1586)" class="st4 st3">Large</text>
</g>
<image style="display:none;overflow:visible;" width="2560" height="1440" xlink:href="../../../../Desktop/2020_porsche_taycan_105.jpg"  transform="matrix(9.309807e-02 0 0 9.309807e-02 1331.1786 1020.1976)">
</image>
<g id="Guides">
	<g id="H-reference" transform="matrix(1 0 0 1 339 696)">
		<path class="st6" d="M1,0h2.6l25.7-67.1H30v-3.3h-1.9L1,0z M11.7-24.5H47l-0.8-2.2H12.4L11.7-24.5z M55.1,0h2.6L30.6-70.5h-1.2
			v3.3L55.1,0z"/>
	</g>
	<line id="Baseline-S" class="st7" x1="263" y1="696" x2="3036" y2="696"/>
	<line id="Capline-S" class="st7" x1="263" y1="625.5" x2="3036" y2="625.5"/>
	<g id="H-reference_00000145018269667135619830000005543126124872748710_" transform="matrix(1 0 0 1 339 1126)">
		<path class="st6" d="M1,0h2.6l25.7-67.1H30v-3.3h-1.9L1,0z M11.7-24.5H47l-0.8-2.2H12.4L11.7-24.5z M55.1,0h2.6L30.6-70.5h-1.2
			v3.3L55.1,0z"/>
	</g>
	<line id="Baseline-M" class="st7" x1="263" y1="1126" x2="3036" y2="1126"/>
	<line id="Capline-M" class="st7" x1="263" y1="1055.5" x2="3036" y2="1055.5"/>
	<g id="H-reference_00000179622612289126554530000017544532022482279819_" transform="matrix(1 0 0 1 339 1556)">
		<path class="st6" d="M1,0h2.6l25.7-67.1H30v-3.3h-1.9L1,0z M11.7-24.5H47l-0.8-2.2H12.4L11.7-24.5z M55.1,0h2.6L30.6-70.5h-1.2
			v3.3L55.1,0z"/>
	</g>
	<line id="Baseline-L" class="st7" x1="263" y1="1556" x2="3036" y2="1556"/>
	<line id="Capline-L" class="st7" x1="263" y1="1485.5" x2="3036" y2="1485.5"/>
	<line id="left-margin-Regular-M" class="st5" x1="1379.6" y1="1030.8" x2="1379.6" y2="1150.1"/>
	<line id="right-margin-Regular-M" class="st5" x1="1520.1" y1="1030.8" x2="1520.1" y2="1150.1"/>
</g>
<g id="Symbols">
	<g id="Old-Black-L" transform="matrix(1 0 0 1 2836.48 1556)">
		<path d="M96.9,8.9c22.7,0,51.2-1.1,63.3-2.5c11-1.3,17.6-8,17.6-18.5v-11.1c0-12.5-1.4-19.7-7.9-27.3l-6.3-7.5
			c-2.4-11.3-6.6-23.2-8.8-27.9c-4-8.4-11.5-13.6-21.4-14.9c-5.5-0.7-18.2-1.2-36.4-1.2c-18.3,0-30.9,0.5-36.4,1.2
			c-9.8,1.3-17.5,6.5-21.4,14.9c-2.2,4.7-6.4,16.6-8.8,27.9L24-50.5c-6.5,7.7-7.9,14.8-7.9,27.3v11.1c0,10.5,6.6,17.3,17.6,18.5
			C45.7,7.8,74.2,8.9,96.9,8.9z M96.9-7.2c-22.2,0-47-1.1-57.6-2.3c-5.4-0.6-7.7-3.2-7.7-8v-8c0-8.1,2.2-12.2,5.3-16.3l7.9-10.4
			c1.2-6.2,5.1-20.4,7.6-25.6c2.3-4.7,6.4-6.9,11.3-7.6c5.1-0.7,16.1-1.2,33.2-1.2c17.2,0,28.2,0.6,33.2,1.2
			c4.9,0.6,8.9,2.9,11.4,7.7c2.4,4.8,6.2,18.8,7.6,25.4l7.8,10.4c3.1,4.1,5.3,8.2,5.3,16.3v8c0,4.9-2.3,7.5-7.7,8
			C143.9-8.3,119.1-7.2,96.9-7.2z M28.4,26.6h8.1c5.1,0,9.1-4,9.1-9.1v-17L19.3-7.3v24.9C19.3,22.6,23.3,26.6,28.4,26.6z
			 M157.3,26.6h8.1c5.1,0,9.1-4,9.1-9.1V-7.3l-26.3,7.9v17C148.2,22.6,152.2,26.6,157.3,26.6z M78.6-43.8c0,1.5,1.2,2.6,2.8,2.6
			h13.5l-7.2,18.7c-1.3,3.6,2.6,5.7,5.1,2.8l23.3-28.2c0.6-0.6,0.9-1.4,0.9-2.2c0-1.5-1.2-2.6-2.7-2.6h-13.6l7.2-18.7
			c1.4-3.6-2.6-5.7-5-2.8L79.5-45.9C79-45.3,78.6-44.5,78.6-43.8z"/>
	</g>
	<g id="Old-Heavy-L" transform="matrix(1 0 0 1 2541.34 1556)">
		<path d="M95.4,8.1c22.3,0,50.7-1.1,62.8-2.5c10.4-1.2,16.5-7.4,16.5-17.3v-11.1c0-12.1-1.6-18.9-7.9-26.5l-6.1-7.4
			c-2.4-11.3-6.6-23.2-8.8-27.9c-3.8-8.1-11.2-13-20.6-14.3c-5.3-0.7-18.1-1.1-35.9-1.1c-17.8,0-30.7,0.4-35.9,1.1
			c-9.4,1.2-16.8,6.2-20.6,14.3c-2.2,4.7-6.4,16.6-8.8,27.9L24-49.3c-6.3,7.6-7.9,14.5-7.9,26.5v11.1c0,9.9,6.2,16.1,16.5,17.3
			C44.7,7,73,8.1,95.4,8.1z M95.4-6c-22,0-47.5-1.1-57.9-2.3c-5.4-0.6-7.6-3.2-7.6-8.1v-8.2c0-8.3,2-12.3,5.5-17l7.5-9.9
			c1.3-7,5.2-20.8,7.8-26.1c2.2-4.7,6.3-7,11.4-7.6c4.8-0.7,16.2-1.2,33.2-1.2c17,0,28.5,0.6,33.2,1.2c5.1,0.6,9.1,3,11.5,7.8
			c2.5,5,6.4,18.7,7.8,26l7.5,9.9c3.6,4.7,5.6,8.7,5.6,17v8.2c0,4.9-2.2,7.5-7.6,8.1C142.8-7.1,117.3-6,95.4-6z M28.2,25.7h8
			c5,0,8.9-3.9,8.9-8.8V0.4L19.3-6.4v23.3C19.3,21.9,23.2,25.7,28.2,25.7z M154.6,25.7h7.9c5,0,8.9-3.9,8.9-8.8V-6.4l-25.8,6.8v16.5
			C145.6,21.9,149.5,25.7,154.6,25.7z M76.7-42.9c0,1.4,1.1,2.5,2.6,2.5h14l-7.5,19.7c-1.3,3.4,2.4,5.4,4.8,2.6l23.8-29.1
			c0.6-0.6,0.9-1.4,0.9-2.1c0-1.4-1.2-2.5-2.6-2.5H98.7l7.5-19.6c1.3-3.4-2.4-5.4-4.7-2.6L77.5-45C77-44.3,76.7-43.6,76.7-42.9z"/>
	</g>
	<g id="Old-Bold-L" transform="matrix(1 0 0 1 2246.54 1556)">
		<path d="M93.4,7.3c21.8,0,50.1-1.1,62.1-2.4c9.6-1.1,15.2-6.7,15.2-15.9v-11.1c0-11.6-1.8-18.1-7.9-25.6l-5.8-7.2
			c-2.3-11.3-6.5-23.2-8.7-27.9c-3.7-7.7-10.7-12.4-19.6-13.5c-4.9-0.7-18.2-1-35.2-1c-17.1,0-30.4,0.4-35.2,1
			c-8.9,1.1-16,5.8-19.6,13.5c-2.2,4.7-6.4,16.6-8.7,27.9L24-47.8c-6.1,7.5-7.9,14-7.9,25.6v11.1c0,9.2,5.6,14.8,15.2,15.9
			C43.3,6.2,71.6,7.3,93.4,7.3z M93.4-4.5c-21.7,0-47.9-1.1-58.3-2.3c-5.4-0.7-7.6-3.3-7.6-8.1v-8.5c0-8.4,1.8-12.5,5.8-17.8
			l7.1-9.4c1.5-7.9,5.5-21.3,8-26.7c2.2-4.6,6.3-7.1,11.7-7.8c4.6-0.6,16.5-1.1,33.2-1.1c16.7,0,28.8,0.6,33.1,1.1
			c5.5,0.7,9.5,3.2,11.8,7.9c2.5,5.2,6.5,18.5,8,26.6l7.1,9.4c4.1,5.3,5.9,9.4,5.9,17.8v8.5c0,4.9-2.2,7.5-7.6,8.1
			C141.3-5.5,115.1-4.5,93.4-4.5z M27.9,24.7h7.7c4.9,0,8.7-3.8,8.7-8.6V0.4L19.3-5.2v21.3C19.3,20.9,23.1,24.7,27.9,24.7z
			 M151.2,24.7h7.7c4.9,0,8.7-3.8,8.7-8.6V-5.2l-25.1,5.6v15.7C142.5,20.9,146.3,24.7,151.2,24.7z M74.3-41.9c0,1.3,1.1,2.2,2.4,2.2
			h14.7l-7.8,20.8c-1.2,3.2,2.2,5,4.4,2.4l24.5-30.2c0.5-0.6,0.8-1.3,0.8-2c0-1.3-1.1-2.2-2.4-2.2H96.2l7.8-20.7
			c1.2-3.2-2.2-5-4.3-2.4L75.1-43.8C74.6-43.2,74.3-42.5,74.3-41.9z"/>
	</g>
	<g id="Old-Semibold-L" transform="matrix(1 0 0 1 1951.15 1556)">
		<path d="M92.1,6.6c21.5,0,49.7-1.1,61.7-2.4c9.1-1,14.4-6.2,14.4-14.9v-11.1c0-11.3-2-17.6-7.9-25l-5.7-7.2
			c-2.3-11.3-6.5-23.2-8.7-27.9c-3.5-7.5-10.4-11.9-19-13c-4.7-0.6-18.2-1-34.8-1c-16.6,0-30.1,0.4-34.8,1c-8.6,1.1-15.4,5.5-19,13
			c-2.2,4.7-6.4,16.6-8.7,27.9L24-46.7c-5.9,7.4-7.9,13.6-7.9,25v11.1c0,8.7,5.3,13.9,14.3,14.9C42.4,5.6,70.6,6.6,92.1,6.6z
			 M92.1-3.4c-21.5,0-48.2-1-58.6-2.3C28.1-6.4,26-9,26-13.8v-8.7c0-8.5,1.7-12.7,6-18.4l6.9-9c1.6-8.5,5.6-21.6,8.2-27.1
			c2.2-4.6,6.3-7.2,11.9-7.9c4.4-0.6,16.6-1.1,33.2-1.1c16.5,0,29,0.6,33.1,1.1c5.7,0.7,9.7,3.4,12,7.9c2.5,5.3,6.5,18.4,8.2,27
			l6.8,9c4.4,5.8,6.1,9.9,6.1,18.4v8.7c0,4.9-2.1,7.5-7.5,8.2C140.3-4.5,113.5-3.4,92.1-3.4z M27.8,23.9h7.6c4.8,0,8.5-3.7,8.5-8.4
			V0.3L19.3-4.4v19.9C19.3,20.2,23,23.9,27.8,23.9z M148.9,23.9h7.6c4.8,0,8.5-3.7,8.5-8.4V-4.4l-24.6,4.8v15.2
			C140.4,20.2,144.1,23.9,148.9,23.9z M72.7-41.2c0,1.2,1,2.1,2.2,2.1h15.1L82-17.5c-1.2,3.1,2.1,4.7,4.1,2.3L111-46.2
			c0.5-0.6,0.8-1.2,0.8-1.9c0-1.2-1-2.1-2.2-2.1H94.5l8-21.5c1.2-3.1-2.1-4.8-4.1-2.3L73.5-43C73-42.4,72.7-41.7,72.7-41.2z"/>
	</g>
	<g id="Medium-L">
		<path id="Headlight_00000036967241094614715760000004881415708791493028_" d="M1682.3,1527.2c3-0.2,17.5,1.2,23.3,1.7
			c1.6,0.2,6.1,1.6,6.1,1.6s-9-11.4-12.9-13.4c-2.8-1.5-9.2-2.1-12.3-2.2c-1.4-0.1-4.2-0.4-5.5,0c-0.7,0.2-2,0.9-2.5,1.4
			c-1.1,1.1-1.9,3.3-2.2,4.5c-0.9,4.3-0.9,8.6-0.6,13.7c0.2,3.9,1.4,12.1,2.4,15.4c0.2,0.6,0.9,1.5,1.4,1.8c0.8,0.5,1.4,0.2,2-0.3
			c0.4-0.4,1.1-0.8,1-1.5c-0.4-3.7-1.7-11.3-1.8-15.6c0-1.6-0.3-5.1,0.1-6.3C1681.1,1527.7,1681.8,1527.2,1682.3,1527.2z"/>
		<path id="Side_mirror_00000132069838491965796160000007897652732675373221_" d="M1674.9,1502.6c0,0-9.9-1.4-12.3-2.2
			c-1.1-0.4-2.1-3.6-2-4.8c0.1-1.1,0.8-2,1.3-2.5c2.2-1.8,8.4-2.5,11.2-2.4c0.7,0,2,0.6,2.4,1.2c0.8,1.3,0.1,5.9,0.1,5.9l3.3,5.4
			L1674.9,1502.6z"/>
		<path d="M1813.7,1571.2H1680c0,0-0.9-10.1,0.3-11.9c2-2.9,9.4-5.4,12.9-5.8c11.4-1.2,53.6-1.1,53.6-1.1s42.1-0.1,53.6,1.1
			c3.5,0.4,10.9,2.9,12.9,5.8C1814.5,1561.1,1813.7,1571.2,1813.7,1571.2z"/>
		<path d="M1668,1566.9l20.2,3c0,0,0.1,9.3-0.9,9.3c-8.6,0-16.6,0-22.1,0c-0.9,0-2.2-0.4-2.6-1.2c-1.7-3.4-1.6-17.4-1.6-17.4
			L1668,1566.9z"/>
		<path d="M1799,1574.2c-3.1,0-6.6,0-10.3-0.1c-3.5,0-6.9-0.1-10.1-0.1h-63.5c-3.2,0-6.6,0-10.1,0.1c-29.6,0.3-38.8-0.3-42.2-4.8
			c-2.3-2.9-2.5-8-2.6-23.1c0-2.9-0.1-6-0.1-9.2c-0.2-8.2-0.3-15.9,1.2-21.6c3.8-14.7,15.8-17.1,21.6-17.4
			c1.6-4.8,4.4-10.3,6.4-14.4c9.2-18.2,16.5-19.2,29.8-19.6l1.9-0.1c13.3-0.4,38.5-0.4,51.8,0l1.9,0.1c13.3,0.4,20.6,1.4,29.8,19.6
			c2.2,4.4,4.9,9.7,6.4,14.4c5.8,0.3,17.8,2.8,21.6,17.4c1.5,5.6,1.3,13.4,1.2,21.6v0c-0.1,3.2-0.1,6.3-0.1,9.2
			c-0.1,15-0.4,20.1-2.6,23C1827.9,1573.3,1820.5,1574.2,1799,1574.2z M1715.1,1564.1h63.5c3.2,0,6.7,0,10.2,0.1
			c11,0.1,29,0.3,34.1-1.2c0.5-3,0.6-10.4,0.6-16.6c0-3,0.1-6.1,0.1-9.3l0,0c0.1-7.5,0.3-14.5-0.8-18.8c-1.7-6.4-6-9.8-12.9-9.9
			c-3.8-0.1-7.2-2.6-8.3-6.3c-1.3-4.1-3.9-9.3-6-13.5c-6.9-13.7-9.9-13.8-21.1-14.1l-2-0.1c-13.1-0.4-38-0.4-51.2,0l-2,0.1
			c-11.2,0.3-14.2,0.4-21.1,14c-2,4-4.7,9.4-6.1,13.6c-1.2,3.7-4.5,6.2-8.3,6.3c-6.9,0.2-11.2,3.5-12.9,9.9
			c-1.1,4.3-1,11.7-0.8,18.8c0.1,3.2,0.1,6.3,0.1,9.3c0.1,6.2,0.1,13.7,0.6,16.6c5.1,1.5,23.1,1.3,34.1,1.2
			C1708.4,1564.1,1711.9,1564.1,1715.1,1564.1z M1671,1563.8C1671,1563.8,1671,1563.8,1671,1563.8L1671,1563.8z M1670,1562.6
			L1670,1562.6z M1811.1,1498.9C1811.1,1498.9,1811.1,1498.9,1811.1,1498.9C1811.1,1498.9,1811.1,1498.9,1811.1,1498.9z"/>
		<path id="Headlight_00000109005570387379192540000000175034300003645062_" d="M1811.4,1527.2c-3-0.2-17.5,1.2-23.3,1.7
			c-1.6,0.2-6.1,1.6-6.1,1.6s9-11.4,12.9-13.4c2.8-1.5,9.2-2.1,12.3-2.2c1.4-0.1,4.2-0.4,5.5,0c0.7,0.2,2,0.9,2.5,1.4
			c1.1,1.1,1.9,3.3,2.2,4.5c0.9,4.3,0.9,8.6,0.6,13.7c-0.2,3.9-1.4,12.1-2.4,15.4c-0.2,0.6-0.9,1.5-1.4,1.8c-0.8,0.5-1.4,0.2-2-0.3
			c-0.4-0.4-1.1-0.8-1-1.5c0.4-3.7,1.7-11.3,1.8-15.6c0-1.6,0.3-5.1-0.1-6.3C1812.5,1527.7,1811.9,1527.2,1811.4,1527.2z"/>
		<path d="M1814.6,1503.2l3.3-5.4c0,0-0.7-4.7,0.1-5.9c0.4-0.6,1.7-1.2,2.4-1.2c2.9-0.1,9,0.5,11.2,2.4c0.5,0.4,1.2,1.4,1.3,2.5
			c0.1,1.2-0.9,4.5-2,4.8c-2.4,0.8-12.3,2.2-12.3,2.2L1814.6,1503.2z"/>
		<path id="Tire_00000035532194101465659730000003710157190428181692_" d="M1832.6,1560.6c0,0,0.1,14.1-1.6,17.4
			c-0.4,0.8-1.7,1.2-2.6,1.2c-5.4,0-13.5,0-22.1,0c-1,0-0.9-9.3-0.9-9.3l20.2-3L1832.6,1560.6z"/>
		<path d="M1727.4,1516.1c0,1.2,1,2.1,2.2,2.1h14.8l-7.9,21c-1.1,3.1,2.1,4.7,4.1,2.2l24.2-30.1c0.5-0.6,0.8-1.2,0.8-1.9
			c0-1.2-1-2.1-2.2-2.1h-14.7l7.8-21c1.1-3.1-2.1-4.8-4-2.2l-24.2,30.1C1727.7,1514.9,1727.4,1515.6,1727.4,1516.1z"/>
	</g>
	<g id="Old-Regular-L" transform="matrix(1 0 0 1 1360.02 1556)">
		<path d="M89.8,5.6c20.9,0,49-1,60.9-2.4c8.2-0.9,12.8-5.3,12.8-13.2v-11.1c0-10.8-2.3-16.6-7.9-23.8l-5.4-7
			c-2.3-11.3-6.5-23.3-8.7-27.9c-3.4-7-9.9-11.1-17.9-12.1c-4.3-0.6-18.2-0.9-34-0.9c-15.8,0-29.8,0.4-34,0.9
			c-8,1-14.5,5.1-17.8,12.1c-2.2,4.6-6.4,16.6-8.7,27.9l-5.4,7c-5.6,7.2-7.9,13-7.9,23.8V-10c0,7.9,4.7,12.3,12.8,13.2
			C40.8,4.5,68.9,5.6,89.8,5.6z M89.8-1.6c-21.1,0-48.7-1-59.1-2.3c-5.5-0.7-7.5-3.3-7.5-8.2v-9.1c0-8.7,1.4-12.9,6.4-19.4l6.4-8.3
			c1.8-9.6,5.9-22.2,8.5-27.7c2.2-4.5,6.3-7.4,12.2-8.1c4-0.5,16.9-1,33.1-1c16.2,0,29.3,0.6,33,1c6.1,0.8,10.2,3.6,12.3,8.1
			c2.6,5.5,6.7,18.1,8.5,27.7l6.3,8.3c5,6.5,6.4,10.7,6.4,19.4v9.1c0,4.9-2,7.6-7.5,8.2C138.5-2.6,110.9-1.6,89.8-1.6z M27.5,22.6
			h7.3c4.6,0,8.2-3.5,8.2-8.1V0.3L19.3-3v17.6C19.3,19.1,22.9,22.6,27.5,22.6z M144.8,22.6h7.3c4.7,0,8.2-3.5,8.2-8.1V-3l-23.8,3.3
			v14.2C136.6,19.1,140.2,22.6,144.8,22.6z M69.9-39.9c0,1,0.9,1.8,1.9,1.8h15.9l-8.5,22.9c-1.1,2.8,1.9,4.2,3.6,2l25.7-32.2
			c0.5-0.6,0.8-1.2,0.8-1.7c0-1-0.9-1.8-2-1.8H91.5l8.5-22.8c1-2.8-1.9-4.3-3.6-2L70.6-41.6C70.2-41,69.9-40.4,69.9-39.9z"/>
	</g>
	<g id="Old-Light-L" transform="matrix(1 0 0 1 1064.43 1556)">
		<path d="M88.7,5.4c20.5,0,48.5-1,60.4-2.4c7.7-0.9,12.2-4.9,12.2-12.5v-11.1c0-11.1-2.5-16.6-7.7-23.4l-5.5-7.1
			c-2.3-11.3-6.5-23.3-8.6-27.9c-3.3-7-9.8-10.7-17.3-11.7c-4.3-0.6-18.5-0.9-33.5-0.9s-29.3,0.4-33.5,0.9
			c-7.5,1-13.9,4.7-17.3,11.7c-2.2,4.6-6.4,16.6-8.6,27.9l-5.5,7.1c-5.2,6.8-7.7,12.3-7.7,23.4v11.1c0,7.6,4.5,11.6,12.2,12.5
			C40.1,4.4,68.2,5.4,88.7,5.4z M88.7-0.3c-20.6,0-48.3-1-59.1-2.3c-5.7-0.7-7.8-3.2-7.8-8.1v-9.8c0-8.8,1.5-13.2,6.6-19.9l6.2-8.2
			c1.9-10.2,6.1-22.7,8.5-27.8c2.3-4.7,6.6-7.7,12.8-8.5c4-0.5,17-1,32.8-1c15.8,0,29,0.5,32.7,1c6.4,0.8,10.6,3.8,12.9,8.5
			c2.4,5.1,6.6,17.6,8.5,27.8l6.2,8.2c5.1,6.7,6.6,11.1,6.6,19.9v9.8c0,4.9-2.2,7.5-7.8,8.1C137-1.4,109.3-0.3,88.7-0.3z M27.3,22.1
			h7.2c4.5,0,8-3.5,8-7.9V1L19.3-2.2v16.3C19.3,18.6,22.8,22.1,27.3,22.1z M142.9,22.1h7.2c4.5,0,8-3.5,8-7.9V-2.2L134.9,1v13.1
			C134.9,18.6,138.4,22.1,142.9,22.1z M68.9-39.4c0,0.9,0.8,1.5,1.7,1.5h16.3l-8.8,23.7c-1,2.5,1.6,3.8,3.2,1.8l26.3-33
			c0.5-0.6,0.7-1.1,0.7-1.6c0-0.9-0.8-1.6-1.7-1.6H90.3l8.7-23.6c0.9-2.5-1.7-3.8-3.2-1.8L69.6-41C69.1-40.4,68.9-39.9,68.9-39.4z"
			/>
	</g>
	<g id="Old-Thin-L" transform="matrix(1 0 0 1 769.196 1556)">
		<path d="M87.3,5.2c20,0,48-1,59.8-2.4c7-0.8,11.3-4.3,11.3-11.5v-11.1c0-11.4-2.8-16.6-7.5-22.8l-5.6-7.3
			c-2.3-11.3-6.4-23.3-8.6-27.9c-3.3-7-9.7-10.3-16.6-11.2c-4.3-0.6-18.8-0.9-32.9-0.9c-14.1,0-28.6,0.3-32.9,0.9
			c-6.8,0.9-13.2,4.2-16.5,11.2c-2.2,4.6-6.4,16.6-8.6,27.9l-5.6,7.3c-4.7,6.2-7.5,11.4-7.5,22.8v11.1c0,7.2,4.3,10.7,11.3,11.5
			C39.2,4.1,67.2,5.2,87.3,5.2z M87.3,1.4c-20,0-47.8-1-59.2-2.4c-5.9-0.7-8.2-3-8.2-8.1v-10.8c0-9,1.5-13.6,6.8-20.5l6-7.9
			c2.2-11.1,6.3-23.2,8.5-27.9c2.5-5,7.1-8.2,13.6-9c3.9-0.5,17.2-0.9,32.5-0.9c15.2,0,28.5,0.4,32.4,0.9c6.7,0.8,11.2,4,13.7,9
			c2.2,4.7,6.4,16.8,8.5,27.9l6.1,7.9c5.3,6.9,6.8,11.6,6.8,20.5v10.8c0,5-2.4,7.4-8.2,8.1C135,0.3,107.2,1.4,87.3,1.4z M27.1,21.3
			h7c4.3,0,7.7-3.4,7.7-7.7V1.9L19.3-1v14.6C19.3,17.9,22.7,21.3,27.1,21.3z M140.4,21.3h7c4.4,0,7.7-3.4,7.7-7.7V-1l-22.5,2.9v11.7
			C132.6,17.9,136.1,21.3,140.4,21.3z M67.5-38.7c0,0.6,0.6,1.1,1.4,1.1h16.8l-9.1,24.7c-0.8,2.1,1.2,3.2,2.6,1.5l27.1-34
			c0.4-0.6,0.7-1,0.7-1.4c0-0.7-0.6-1.2-1.4-1.2H88.7l9.1-24.5c0.8-2.1-1.4-3.2-2.7-1.5l-27,34C67.7-39.6,67.5-39.1,67.5-38.7z"/>
	</g>
	<g id="Old-Ultralight-L" transform="matrix(1 0 0 1 473.241 1556)">
		<path d="M86.5,5.1c19.7,0,47.7-1,59.5-2.4c6.7-0.8,10.9-4,10.9-11v-11.1c0-11.6-2.9-16.6-7.4-22.5l-5.7-7.3
			c-2.2-11.3-6.4-23.3-8.6-27.9c-3.3-7-9.6-10.1-16.2-10.9c-4.3-0.6-19-0.9-32.5-0.9c-13.6,0-28.3,0.3-32.6,0.9
			c-6.5,0.9-12.8,3.9-16.1,10.9c-2.2,4.6-6.4,16.6-8.6,27.9L23.5-42C19-36,16.1-31,16.1-19.5v11.1c0,7,4.2,10.2,10.9,11
			C38.8,4,66.7,5.1,86.5,5.1z M86.5,2.3c-19.7,0-47.5-1-59.3-2.4c-6-0.7-8.4-2.9-8.4-8v-11.3c0-9,1.5-13.8,7-20.9l5.9-7.8
			c2.3-11.5,6.5-23.5,8.5-27.9c2.6-5.2,7.3-8.4,14.1-9.3c3.8-0.5,17.3-0.9,32.3-0.9c14.9,0,28.3,0.4,32.2,0.9
			c6.8,0.8,11.5,4.1,14,9.3c2.1,4.4,6.3,16.4,8.5,27.9l6,7.8c5.3,7,6.9,11.8,6.9,20.9v11.3c0,5.1-2.4,7.4-8.4,8
			C133.9,1.1,106.1,2.3,86.5,2.3z M27,21h6.9c4.2,0,7.6-3.4,7.6-7.6v-11L19.3-0.4v13.8C19.3,17.5,22.7,21,27,21z M139.2,21h6.9
			c4.3,0,7.6-3.4,7.6-7.6V-0.4l-22.2,2.8v11C131.5,17.6,134.8,21,139.2,21z M66.8-38.4c0,0.5,0.5,0.9,1.2,0.9h17.1l-9.3,25.2
			c-0.8,1.9,1.1,2.9,2.3,1.3l27.5-34.5c0.4-0.6,0.6-0.9,0.6-1.3c0-0.6-0.5-1.1-1.2-1.1H87.9l9.3-25c0.7-1.9-1.2-2.9-2.5-1.3
			L67.4-39.7C67-39.1,66.8-38.8,66.8-38.4z"/>
	</g>
	<g id="Old-Black-M" transform="matrix(1 0 0 1 2857.12 1126)">
		<path d="M76.3-0.4c17.9,0,40-0.9,49.4-1.9c9-1,14.4-6.6,14.4-15.3v-8.6c0-10.1-0.9-15.9-6.1-21.8l-5.1-5.9
			c-1.9-8.8-5.1-17.9-6.8-21.6c-3.2-6.7-9.3-11-17.1-12c-4.6-0.6-14.1-1-28.6-1s-24.1,0.4-28.6,1c-7.9,1-14,5.2-17.1,12
			c-1.7,3.7-5,12.8-6.8,21.6L18.5-48c-5.1,5.9-6.1,11.7-6.1,21.8v8.6c0,8.6,5.5,14.2,14.4,15.3C36.3-1.3,58.4-0.4,76.3-0.4z
			 M76.3-14.4c-17.3,0-36-0.9-44.4-1.8c-4.2-0.4-6-2.4-6-6.2v-6.1c0-6.2,1.9-9.4,3.9-12.1l6.4-8.4c0.8-4.3,3.8-15.5,5.7-19.4
			c1.8-3.8,5.1-5.3,8.7-5.8c4.1-0.6,12.3-0.9,25.7-0.9c13.4,0,21.6,0.4,25.7,0.9c3.6,0.4,6.7,2.1,8.7,6c1.8,3.5,4.7,14.6,5.7,19.3
			l6.4,8.4c2.1,2.7,3.9,5.9,3.9,12.1v6.1c0,3.8-1.9,5.7-6,6.2C112.3-15.3,93.6-14.4,76.3-14.4z M22.1,13.4h6.4c4,0,7.2-3.1,7.2-7.2
			V-7.3l-20.8-7V6.2C15,10.2,18.1,13.4,22.1,13.4z M124,13.4h6.4c4,0,7.2-3.1,7.2-7.2v-20.5l-20.8,7V6.2
			C116.8,10.2,120,13.4,124,13.4z M62.5-42.5c0,1.2,1,2.1,2.3,2.1h10.1l-5.4,13.8c-1.1,2.9,2.1,4.6,4.1,2.3l17.8-21.2
			c0.4-0.5,0.7-1.1,0.7-1.7c0-1.2-1-2.1-2.2-2.1H79.7L85-63.2c1.1-2.9-2.1-4.6-4-2.3L63.2-44.2C62.7-43.7,62.5-43.1,62.5-42.5z"/>
	</g>
	<g id="Old-Heavy-M" transform="matrix(1 0 0 1 2561.84 1126)">
		<path d="M74.9-1.1c17.5,0,39.6-0.9,48.9-1.9c8.4-1,13.5-6.1,13.5-14.2v-8.6c0-9.7-1.1-15.1-6.1-21.1l-4.9-5.8
			c-1.8-8.8-5.1-18-6.8-21.6c-3.1-6.4-8.9-10.5-16.4-11.5c-4.3-0.6-14.1-0.9-28.1-0.9s-23.9,0.4-28.2,0.9c-7.5,1-13.4,5-16.4,11.5
			c-1.7,3.7-5,12.8-6.8,21.6l-4.9,5.8c-5,5.9-6.1,11.4-6.1,21.1v8.6c0,8.1,5,13.2,13.5,14.2C35.3-2,57.3-1.1,74.9-1.1z M74.9-13.3
			c-17.2,0-36.5-0.9-44.7-1.8c-4.2-0.5-6-2.5-6-6.2v-6.2c0-6.3,1.7-9.5,4.1-12.7l6.1-8c0.9-4.9,3.9-15.9,5.9-19.9
			c1.8-3.7,5-5.4,8.8-5.9C53-74.6,61.6-75,74.9-75c13.2,0,21.9,0.4,25.7,0.9c3.8,0.5,6.9,2.2,8.8,6c1.9,3.7,4.8,14.5,5.9,19.8l6,8
			c2.5,3.3,4.2,6.4,4.2,12.7v6.2c0,3.8-1.8,5.8-6,6.2C111.3-14.2,92-13.3,74.9-13.3z M22,12.6h6.3c3.9,0,7-3.1,7-7V-7.5l-20.3-6V5.6
			C15,9.5,18,12.6,22,12.6z M121.5,12.6h6.3c3.9,0,7-3.1,7-7v-19.1l-20.3,6V5.6C114.5,9.5,117.5,12.6,121.5,12.6z M60.7-41.7
			c0,1.2,0.9,2,2.1,2h10.5l-5.6,14.7c-1,2.8,2,4.4,3.9,2.1l18.2-22c0.4-0.5,0.7-1.1,0.7-1.7c0-1.1-0.9-2-2.1-2H77.7l5.6-14.7
			c1.1-2.8-2-4.4-3.8-2.1l-18.2,22C60.9-42.9,60.7-42.3,60.7-41.7z"/>
	</g>
	<g id="Old-Bold-M" transform="matrix(1 0 0 1 2266.73 1126)">
		<path d="M73.3-2c17.2,0,39.1-0.8,48.4-1.9c7.8-0.9,12.4-5.5,12.4-12.9v-8.6c0-9.2-1.3-14.3-6.1-20.3l-4.6-5.6
			c-1.8-8.8-5.1-18-6.8-21.6c-2.9-6.1-8.5-9.9-15.6-10.8c-3.9-0.5-14-0.8-27.6-0.8c-13.6,0-23.7,0.3-27.6,0.8
			C38.5-82.8,32.9-79,30-72.9c-1.7,3.6-5,12.8-6.8,21.6l-4.6,5.6c-4.8,5.9-6.1,11.1-6.1,20.3v8.6c0,7.5,4.6,12.1,12.4,12.9
			C34.2-2.8,56.1-2,73.3-2z M73.3-12.1c-17,0-37-0.8-45-1.8c-4.2-0.5-5.9-2.5-5.9-6.3v-6.4c0-6.5,1.5-9.6,4.4-13.4l5.7-7.5
			c1.1-5.7,4.1-16.2,6.1-20.4c1.7-3.6,4.9-5.4,8.9-5.9c3.6-0.5,12.7-0.9,25.8-0.9c13.1,0,22.2,0.5,25.7,0.9c4.1,0.5,7.2,2.4,9,6
			c1.9,4,5,14.5,6.1,20.4l5.7,7.5c2.9,3.8,4.4,7,4.4,13.4v6.4c0,3.8-1.7,5.8-5.8,6.3C110.2-13,90.2-12.1,73.3-12.1z M21.8,11.6h6.1
			c3.8,0,6.8-3,6.8-6.8V-7.7L15-12.6V4.9C15,8.7,17.9,11.6,21.8,11.6z M118.6,11.6h6.1c3.8,0,6.8-3,6.8-6.8v-17.4l-19.7,4.8V4.9
			C111.8,8.7,114.8,11.6,118.6,11.6z M58.6-40.8c0,1.1,0.9,1.9,1.9,1.9h11.1l-5.9,15.6c-1,2.6,1.8,4.1,3.6,2L88-44.3
			c0.4-0.5,0.7-1,0.7-1.6c0-1-0.9-1.8-1.9-1.8H75.6l5.9-15.6c1-2.6-1.8-4.1-3.5-2L59.3-42.4C58.9-41.9,58.6-41.3,58.6-40.8z"/>
	</g>
	<g id="Semibold-M">
		<path id="Headlight_00000023246372907820684190000005771123230882524840_" d="M1992.5,1095c2.4-0.1,13.9,0.9,18.6,1.4
			c1.3,0.1,4.9,1.3,4.9,1.3s-7.1-9-10.2-10.7c-2.2-1.2-7.3-1.7-9.8-1.8c-1.1,0-3.3-0.3-4.4,0c-0.5,0.2-1.6,0.7-2,1.1
			c-0.8,0.9-1.5,2.6-1.7,3.6c-0.7,3.4-0.7,6.8-0.5,10.9c0.2,3.1,1.1,9.6,1.9,12.3c0.1,0.4,0.7,1.2,1.1,1.4c0.7,0.4,1.1,0.2,1.6-0.2
			c0.3-0.3,0.9-0.7,0.8-1.2c-0.3-3-1.4-9-1.5-12.4c0-1.3-0.3-4,0.1-5C1991.6,1095.4,1992.1,1095.1,1992.5,1095z"/>
		<path id="Side_mirror_00000088849868522007586160000015943729668513809301_" d="M1986.6,1075.2c0,0-7.9-1.1-9.8-1.7
			c-0.9-0.3-1.6-2.9-1.6-3.8c0.1-0.9,0.6-1.6,1-2c1.8-1.5,6.7-2,8.9-1.9c0.5,0,1.6,0.5,1.9,0.9c0.6,1,0.1,4.7,0.1,4.7l2.7,4.3
			L1986.6,1075.2z"/>
		<path d="M2096.9,1130.1h-106.2c0,0-0.7-8.1,0.3-9.5c1.6-2.3,7.5-4.3,10.3-4.6c9.1-0.9,42.6-0.9,42.6-0.9s33.5-0.1,42.6,0.9
			c2.8,0.3,8.7,2.3,10.3,4.6C2097.6,1122,2096.9,1130.1,2096.9,1130.1z"/>
		<path d="M1980.1,1126.6l16.1,2.4c0,0,0.1,7.4-0.7,7.4c-6.8,0-13.2,0-17.5,0c-0.7,0-1.8-0.3-2.1-0.9c-1.3-2.7-1.2-13.9-1.2-13.9
			L1980.1,1126.6z"/>
		<path d="M2002.5,1132.9c-17.4,0-23.4-0.8-25.9-4c-2-2.5-2.1-6.8-2.2-18.6c0-2.3,0-4.8-0.1-7.3c-0.1-6.5-0.2-12.7,0.9-17.3
			c2.2-8.4,8.6-13.6,17.3-14.2c1.3-3.7,3.4-8,5-11.2c7.4-14.7,13.4-15.5,24.1-15.8l1.5,0c10.6-0.3,30.6-0.3,41.2,0l1.5,0
			c10.7,0.3,16.7,1.1,24.1,15.8c1.7,3.4,3.8,7.5,5,11.2c8.7,0.6,15.1,5.8,17.3,14.2c1.2,4.6,1.1,10.7,0.9,17.3v0
			c0,2.5-0.1,5-0.1,7.3c-0.1,11.9-0.2,16.1-2.2,18.6c-2.9,3.7-10.2,4.2-34,4c-2.8,0-5.5,0-8,0h-50.5c-2.5,0-5.3,0-8,0
			C2007.6,1132.9,2004.9,1132.9,2002.5,1132.9z M1984,1124C1984,1124,1984,1124,1984,1124L1984,1124z M2103.6,1124
			C2103.6,1124,2103.6,1124,2103.6,1124S2103.6,1124,2103.6,1124z M2018.6,1123.8h50.5c2.6,0,5.3,0,8.1,0c8.5,0.1,22.3,0.2,26.6-0.9
			c0.4-2.5,0.4-8.1,0.4-12.8c0-2.4,0-4.9,0.1-7.4c0.1-5.9,0.2-11.5-0.6-14.8c-1.3-4.9-4.6-7.4-9.8-7.5c-3.3-0.1-6.1-2.2-7.1-5.4
			c-1-3.2-3.1-7.3-4.8-10.7c-5.4-10.6-7.5-10.7-16.3-10.9l-1.6,0c-10.4-0.3-30.2-0.3-40.6,0l-1.6,0c-8.9,0.2-11,0.3-16.3,10.9
			c-1.6,3.1-3.8,7.5-4.8,10.7c-1,3.1-3.8,5.3-7.1,5.3c-5.2,0.1-8.5,2.7-9.8,7.5c-0.9,3.4-0.8,9.2-0.7,14.8c0.1,2.5,0.1,5,0.1,7.4
			c0,4.7,0.1,10.3,0.4,12.8c4.3,1.1,18.1,1,26.6,0.9C2013.3,1123.9,2016,1123.8,2018.6,1123.8z M2104.7,1122.7L2104.7,1122.7
			L2104.7,1122.7z M1983,1122.7L1983,1122.7z M2095.4,1072.4C2095.4,1072.4,2095.4,1072.4,2095.4,1072.4
			C2095.4,1072.4,2095.4,1072.4,2095.4,1072.4z M1993.5,1071.4C1993.5,1071.4,1993.5,1071.4,1993.5,1071.4
			C1993.5,1071.4,1993.5,1071.4,1993.5,1071.4z M2094.1,1071.4C2094.1,1071.4,2094.1,1071.4,2094.1,1071.4
			C2094.1,1071.4,2094.1,1071.4,2094.1,1071.4z"/>
		<path id="Headlight_00000035495900417645219400000017300166531435907993_" d="M2095.1,1095c-2.4-0.1-13.9,0.9-18.6,1.4
			c-1.3,0.1-4.9,1.3-4.9,1.3s7.1-9,10.2-10.7c2.2-1.2,7.3-1.7,9.8-1.8c1.1,0,3.3-0.3,4.4,0c0.5,0.2,1.6,0.7,2,1.1
			c0.8,0.9,1.5,2.6,1.7,3.6c0.7,3.4,0.7,6.8,0.5,10.9c-0.2,3.1-1.1,9.6-1.9,12.3c-0.1,0.4-0.7,1.2-1.1,1.4c-0.7,0.4-1.1,0.2-1.6-0.2
			c-0.3-0.3-0.9-0.7-0.8-1.2c0.3-3,1.4-9,1.5-12.4c0-1.3,0.3-4-0.1-5C2096.1,1095.4,2095.5,1095.1,2095.1,1095z"/>
		<path d="M2097.7,1075.7l2.7-4.3c0,0-0.5-3.7,0.1-4.7c0.3-0.4,1.4-0.9,1.9-0.9c2.3-0.1,7.2,0.4,8.9,1.9c0.4,0.4,1,1.1,1,2
			c0.1,0.9-0.7,3.5-1.6,3.8c-1.9,0.6-9.8,1.7-9.8,1.7L2097.7,1075.7z"/>
		<path id="Tire_00000027581878084727028130000012458499751239752599_" d="M2113,1121.6c0,0,0.1,11.2-1.2,13.9
			c-0.3,0.6-1.4,0.9-2.1,0.9c-4.3,0-10.7,0-17.5,0c-0.8,0-0.7-7.4-0.7-7.4l16.1-2.4L2113,1121.6z"/>
		<path d="M2028.3,1085.8c0,1,0.8,1.8,1.8,1.8h11.5l-6.1,16.2c-0.9,2.5,1.8,3.9,3.4,1.9l19-23.5c0.4-0.5,0.7-1,0.7-1.5
			c0-1-0.9-1.7-1.8-1.7h-11.4l6.1-16.2c0.9-2.5-1.7-3.9-3.4-1.9l-19,23.5C2028.6,1084.8,2028.3,1085.3,2028.3,1085.8z"/>
	</g>
	<g id="Medium-M">
		<path id="Headlight_00000023993440875375171840000005770740314844560308_" d="M1695.5,1095c2.4-0.1,13.9,0.9,18.6,1.4
			c1.3,0.1,4.9,1.3,4.9,1.3s-7.1-9-10.2-10.7c-2.2-1.2-7.3-1.7-9.8-1.8c-1.1,0-3.3-0.3-4.4,0c-0.5,0.2-1.6,0.7-2,1.1
			c-0.8,0.9-1.5,2.6-1.7,3.6c-0.7,3.4-0.7,6.8-0.5,10.9c0.2,3.1,1.1,9.6,1.9,12.3c0.1,0.4,0.7,1.2,1.1,1.4c0.7,0.4,1.1,0.2,1.6-0.2
			c0.3-0.3,0.9-0.7,0.8-1.2c-0.3-3-1.4-9-1.5-12.4c0-1.3-0.3-4,0.1-5C1694.6,1095.4,1695.1,1095.1,1695.5,1095z"/>
		<path id="Side_mirror_00000088824623474782714130000008977103727538844302_" d="M1689.6,1075.5c0,0-7.9-1.1-9.8-1.7
			c-0.9-0.3-1.6-2.9-1.6-3.8c0.1-0.9,0.6-1.6,1-2c1.8-1.5,6.7-2,8.9-1.9c0.5,0,1.6,0.5,1.9,0.9c0.6,1,0.1,4.7,0.1,4.7l2.7,4.3
			L1689.6,1075.5z"/>
		<path d="M1799.9,1130.1h-106.2c0,0-0.7-8.1,0.3-9.5c1.6-2.3,7.5-4.3,10.3-4.6c9.1-0.9,42.6-0.9,42.6-0.9s33.5-0.1,42.6,0.9
			c2.8,0.3,8.7,2.3,10.3,4.6C1800.7,1122,1799.9,1130.1,1799.9,1130.1z"/>
		<path d="M1684.1,1126.6l16.1,2.4c0,0,0.1,7.4-0.7,7.4c-6.8,0-13.2,0-17.5,0c-0.7,0-1.8-0.3-2.1-0.9c-1.3-2.7-1.2-13.9-1.2-13.9
			L1684.1,1126.6z"/>
		<path d="M1788.3,1132.4c-2.5,0-5.2,0-8.2,0c-2.8,0-5.5,0-8,0h-50.5c-2.5,0-5.3,0-8,0c-23.5,0.2-30.8-0.3-33.6-3.8
			c-1.8-2.3-2-6.4-2.1-18.3c0-2.3,0-4.8-0.1-7.3c-0.1-6.5-0.2-12.6,0.9-17.1c3-11.7,12.6-13.6,17.2-13.9c1.3-3.8,3.5-8.2,5.1-11.4
			c7.3-14.4,13.1-15.3,23.7-15.5l1.5,0c10.6-0.3,30.6-0.3,41.2,0l1.5,0c10.5,0.3,16.4,1.1,23.7,15.5c1.8,3.5,3.9,7.7,5.1,11.4
			c4.6,0.2,14.1,2.2,17.2,13.9c1.2,4.5,1,10.6,0.9,17.2v0c0,2.5-0.1,5-0.1,7.3c-0.1,11.9-0.3,16-2.1,18.3
			C1811.3,1131.7,1805.4,1132.4,1788.3,1132.4z M1721.6,1124.3h50.5c2.6,0,5.3,0,8.1,0c8.8,0.1,23.1,0.2,27.1-1
			c0.4-2.4,0.5-8.3,0.5-13.2c0-2.4,0-4.9,0.1-7.4l0,0c0.1-5.9,0.2-11.6-0.7-15c-1.3-5.1-4.8-7.8-10.3-7.9c-3-0.1-5.7-2.1-6.6-5
			c-1-3.2-3.1-7.4-4.8-10.7c-5.5-10.9-7.9-11-16.8-11.2l-1.6,0c-10.5-0.3-30.2-0.3-40.7,0l-1.6,0c-8.9,0.2-11.3,0.3-16.7,11.1
			c-1.6,3.2-3.8,7.5-4.8,10.8c-0.9,2.9-3.6,4.9-6.6,5c-5.5,0.1-8.9,2.8-10.3,7.9c-0.9,3.4-0.8,9.3-0.7,15c0.1,2.5,0.1,5,0.1,7.4
			c0,4.9,0.1,10.9,0.5,13.2c4,1.2,18.3,1.1,27.1,1C1716.3,1124.4,1719,1124.3,1721.6,1124.3z M1686.6,1124.1
			C1686.6,1124.1,1686.6,1124.1,1686.6,1124.1L1686.6,1124.1z M1685.7,1123.2L1685.7,1123.2z M1797.9,1072.5
			C1797.9,1072.5,1797.9,1072.5,1797.9,1072.5C1797.9,1072.5,1797.9,1072.5,1797.9,1072.5z"/>
		<path id="Headlight_00000045617659222851417610000016130051797797482628_" d="M1798.1,1095c-2.4-0.1-13.9,0.9-18.6,1.4
			c-1.3,0.1-4.9,1.3-4.9,1.3s7.1-9,10.2-10.7c2.2-1.2,7.3-1.7,9.8-1.8c1.1,0,3.3-0.3,4.4,0c0.5,0.2,1.6,0.7,2,1.1
			c0.8,0.9,1.5,2.6,1.7,3.6c0.7,3.4,0.7,6.8,0.5,10.9c-0.2,3.1-1.1,9.6-1.9,12.3c-0.1,0.4-0.7,1.2-1.1,1.4c-0.7,0.4-1.1,0.2-1.6-0.2
			c-0.3-0.3-0.9-0.7-0.8-1.2c0.3-3,1.4-9,1.5-12.4c0-1.3,0.3-4-0.1-5C1799.1,1095.4,1798.5,1095.1,1798.1,1095z"/>
		<path d="M1800.7,1076l2.7-4.3c0,0-0.5-3.7,0.1-4.7c0.3-0.4,1.4-0.9,1.9-0.9c2.3-0.1,7.2,0.4,8.9,1.9c0.4,0.4,1,1.1,1,2
			c0.1,0.9-0.7,3.5-1.6,3.8c-1.9,0.6-9.8,1.7-9.8,1.7L1800.7,1076z"/>
		<path id="Tire_00000057114371594338433280000012817249872547963015_" d="M1815,1121.6c0,0,0.1,11.2-1.2,13.9
			c-0.3,0.6-1.4,0.9-2.1,0.9c-4.3,0-10.7,0-17.5,0c-0.8,0-0.7-7.4-0.7-7.4l16.1-2.4L1815,1121.6z"/>
		<path d="M1731.4,1086.2c0,1,0.8,1.7,1.7,1.7h11.7l-6.2,16.7c-0.9,2.4,1.7,3.7,3.2,1.8l19.2-23.9c0.4-0.4,0.7-1,0.7-1.5
			c0-0.9-0.8-1.7-1.8-1.7h-11.7l6.2-16.7c0.9-2.4-1.7-3.8-3.2-1.8l-19.3,23.9C1731.6,1085.3,1731.4,1085.8,1731.4,1086.2z"/>
	</g>
	<g id="Regular-M_x2F_sketch" class="st8">
		<path id="Frame_00000134953490098406309450000010690401545950032048_" class="st9" d="M1449.8,1048.7c0,0-9.9,0-20.5,0.3
			c-10.5,0.3-14.9-0.3-21.8,13.4c-1.8,3.5-3.9,7.8-5.1,11.4c-0.4,1.3-1.6,2.2-2.9,2.2c-3.9,0.1-11.6,1.5-14,10.9
			c-1,3.9-0.9,9.5-0.8,16.1c0.2,11-0.1,21.4,1.3,23.2c2.4,3,23.7,2.2,38.5,2.2c7.4,0,25.2,0,25.2,0"/>
		<path id="Headlight_00000065786894090988398860000015191684847977427366_" class="st10" d="M1398.5,1095
			c2.4-0.1,13.9,0.9,18.6,1.4c1.3,0.1,4.9,1.3,4.9,1.3s-7.1-9-10.2-10.7c-2.2-1.2-7.3-1.7-9.8-1.8c-1.1,0-3.3-0.3-4.4,0
			c-0.5,0.2-1.6,0.7-2,1.1c-0.8,0.9-1.5,2.6-1.7,3.6c-0.7,3.4-0.7,6.8-0.5,10.9c0.2,3.1,1.1,9.6,1.9,12.3c0.1,0.4,0.7,1.2,1.1,1.4
			c0.7,0.4,1.1,0.2,1.6-0.2c0.3-0.3,0.9-0.7,0.8-1.2c-0.3-3-1.4-9-1.5-12.4c0-1.3-0.3-4,0.1-5
			C1397.6,1095.4,1398.1,1095.1,1398.5,1095z"/>
		<path id="Side_mirror_00000062174434639753279310000003927948516355515561_" class="st10" d="M1394.6,1077.5c0,0-7.9-1.1-9.8-1.7
			c-0.9-0.3-1.6-2.9-1.6-3.8c0.1-0.9,0.6-1.6,1-2c1.8-1.5,6.7-2,8.9-1.9c0.5,0,1.6,0.5,1.9,0.9c0.6,1,0.1,4.7,0.1,4.7l2.7,4.3
			L1394.6,1077.5z"/>
		<path id="Grill_00000054255349432303944820000001166140080231704251_" class="st10" d="M1396.7,1130.1c0,0-0.7-8.1,0.3-9.5
			c1.6-2.3,7.5-4.3,10.3-4.6c9.1-0.9,42.6-0.9,42.6-0.9v14.9H1396.7z"/>
		<path id="Tire_00000060022938926501972790000017773437657697937321_" class="st10" d="M1382.7,1121.6c0,0-0.1,11.2,1.2,13.9
			c0.3,0.6,1.4,0.9,2.1,0.9c4.3,0,10.7,0,17.5,0c0.8,0,0.7-7.4,0.7-7.4l-16.1-2.4L1382.7,1121.6z"/>
	</g>
	<g id="Template">
		<path id="Headlight_00000098943342141482302250000018177710775225577119_" d="M1398.5,1095c2.4-0.1,13.9,0.9,18.6,1.4
			c1.3,0.1,4.9,1.3,4.9,1.3s-7.1-9-10.2-10.7c-2.2-1.2-7.3-1.7-9.8-1.8c-1.1,0-3.3-0.3-4.4,0c-0.5,0.2-1.6,0.7-2,1.1
			c-0.8,0.9-1.5,2.6-1.7,3.6c-0.7,3.4-0.7,6.8-0.5,10.9c0.2,3.1,1.1,9.6,1.9,12.3c0.1,0.4,0.7,1.2,1.1,1.4c0.7,0.4,1.1,0.2,1.6-0.2
			c0.3-0.3,0.9-0.7,0.8-1.2c-0.3-3-1.4-9-1.5-12.4c0-1.3-0.3-4,0.1-5C1397.6,1095.4,1398.1,1095.1,1398.5,1095z"/>
		<path id="Side_mirror_00000021091813444764485420000010722923863946011275_" d="M1393.6,1076.5c0,0-7.9-1.1-9.8-1.7
			c-0.9-0.3-1.6-2.9-1.6-3.8c0.1-0.9,0.6-1.6,1-2c1.8-1.5,6.7-2,8.9-1.9c0.5,0,1.6,0.5,1.9,0.9c0.6,1,0.1,4.7,0.1,4.7l2.7,4.3
			L1393.6,1076.5z"/>
		<path d="M1502.9,1130.1h-106.2c0,0-0.7-8.1,0.3-9.5c1.6-2.3,7.5-4.3,10.3-4.6c9.1-0.9,42.6-0.9,42.6-0.9s33.5-0.1,42.6,0.9
			c2.8,0.3,8.7,2.3,10.3,4.6C1503.7,1122,1502.9,1130.1,1502.9,1130.1z"/>
		<path d="M1388.1,1126.6l16.1,2.4c0,0,0.1,7.4-0.7,7.4c-6.8,0-13.2,0-17.5,0c-0.7,0-1.8-0.3-2.1-0.9c-1.3-2.7-1.2-13.9-1.2-13.9
			L1388.1,1126.6z"/>
		<path d="M1434.4,1086.8c0,0.9,0.7,1.6,1.6,1.6h12.1l-6.4,17.3c-0.9,2.3,1.6,3.5,3.1,1.7l19.5-24.5c0.4-0.4,0.7-1,0.7-1.4
			c0-0.9-0.8-1.5-1.7-1.5h-12.1l6.4-17.3c0.9-2.3-1.6-3.6-3-1.7l-19.6,24.5C1434.6,1086,1434.4,1086.4,1434.4,1086.8z"/>
		<path class="st11" d="M1514.8,1102.9c-0.2,11,0.1,21.4-1.3,23.2c-2.4,3-23.7,2.2-38.5,2.2c-7.4,0-43.1,0-50.5,0
			c-14.7,0-36.1,0.8-38.5-2.2c-1.4-1.8-1.1-12.2-1.3-23.2c-0.1-6.6-0.2-12.2,0.8-16.1c2.5-9.4,10.2-10.8,14-10.9
			c1.3,0,2.5-0.9,2.9-2.2c1.1-3.6,3.3-7.9,5.1-11.4c6.9-13.7,11.2-13.1,21.8-13.4c10.6-0.3,30.3-0.3,40.9,0
			c10.5,0.3,14.9-0.3,21.8,13.4c1.8,3.5,3.9,7.8,5.1,11.4c0.4,1.3,1.5,2.2,2.9,2.2c3.9,0.1,11.6,1.5,14.1,10.9
			C1515.1,1090.7,1515,1096.3,1514.8,1102.9z"/>
		<path id="Headlight_00000041985702648238463530000003727658065957450380_" d="M1501.1,1095c-2.4-0.1-13.9,0.9-18.6,1.4
			c-1.3,0.1-4.9,1.3-4.9,1.3s7.1-9,10.2-10.7c2.2-1.2,7.3-1.7,9.8-1.8c1.1,0,3.3-0.3,4.4,0c0.5,0.2,1.6,0.7,2,1.1
			c0.8,0.9,1.5,2.6,1.7,3.6c0.7,3.4,0.7,6.8,0.5,10.9c-0.2,3.1-1.1,9.6-1.9,12.3c-0.1,0.4-0.7,1.2-1.1,1.4c-0.7,0.4-1.1,0.2-1.6-0.2
			c-0.3-0.3-0.9-0.7-0.8-1.2c0.3-3,1.4-9,1.5-12.4c0-1.3,0.3-4-0.1-5C1502.1,1095.4,1501.5,1095.1,1501.1,1095z"/>
		<path d="M1502.7,1077l2.7-4.3c0,0-0.5-3.7,0.1-4.7c0.3-0.4,1.4-0.9,1.9-0.9c2.3-0.1,7.2,0.4,8.9,1.9c0.4,0.4,1,1.1,1,2
			c0.1,0.9-0.7,3.5-1.6,3.8c-1.9,0.6-9.8,1.7-9.8,1.7L1502.7,1077z"/>
		<path id="Tire_00000168099496520596086740000008171816392339732387_" d="M1517,1121.6c0,0,0.1,11.2-1.2,13.9
			c-0.3,0.6-1.4,0.9-2.1,0.9c-4.3,0-10.7,0-17.5,0c-0.8,0-0.7-7.4-0.7-7.4l16.1-2.4L1517,1121.6z"/>
	</g>
	<g id="Regular-M">
		<path id="Headlight_00000090275156388061219330000001277150200139191191_" d="M1398.5,1095c2.4-0.1,13.9,0.9,18.6,1.4
			c1.3,0.1,4.9,1.3,4.9,1.3s-7.1-9-10.2-10.7c-2.2-1.2-7.3-1.7-9.8-1.8c-1.1,0-3.3-0.3-4.4,0c-0.5,0.2-1.6,0.7-2,1.1
			c-0.8,0.9-1.5,2.6-1.7,3.6c-0.7,3.4-0.7,6.8-0.5,10.9c0.2,3.1,1.1,9.6,1.9,12.3c0.1,0.4,0.7,1.2,1.1,1.4c0.7,0.4,1.1,0.2,1.6-0.2
			c0.3-0.3,0.9-0.7,0.8-1.2c-0.3-3-1.4-9-1.5-12.4c0-1.3-0.3-4,0.1-5C1397.6,1095.4,1398.1,1095.1,1398.5,1095z"/>
		<path id="Side_mirror_00000110446344581595901780000018089079844354034065_" d="M1393.6,1076.5c0,0-7.9-1.1-9.8-1.7
			c-0.9-0.3-1.6-2.9-1.6-3.8c0.1-0.9,0.6-1.6,1-2c1.8-1.5,6.7-2,8.9-1.9c0.5,0,1.6,0.5,1.9,0.9c0.6,1,0.1,4.7,0.1,4.7l2.7,4.3
			L1393.6,1076.5z"/>
		<path d="M1502.9,1130.1h-106.2c0,0-0.7-8.1,0.3-9.5c1.6-2.3,7.5-4.3,10.3-4.6c9.1-0.9,42.6-0.9,42.6-0.9s33.5-0.1,42.6,0.9
			c2.8,0.3,8.7,2.3,10.3,4.6C1503.7,1122,1502.9,1130.1,1502.9,1130.1z"/>
		<path d="M1388.1,1126.6l16.1,2.4c0,0,0.1,7.4-0.7,7.4c-6.8,0-13.2,0-17.5,0c-0.7,0-1.8-0.3-2.1-0.9c-1.3-2.7-1.2-13.9-1.2-13.9
			L1388.1,1126.6z"/>
		<path d="M1434.4,1086.8c0,0.9,0.7,1.6,1.6,1.6h12.1l-6.4,17.3c-0.9,2.3,1.6,3.5,3.1,1.7l19.5-24.5c0.4-0.4,0.7-1,0.7-1.4
			c0-0.9-0.8-1.5-1.7-1.5h-12.1l6.4-17.3c0.9-2.3-1.6-3.6-3-1.7l-19.6,24.5C1434.6,1086,1434.4,1086.4,1434.4,1086.8z"/>
		<path d="M1491.3,1131.4c-2.5,0-5.2,0-8.2,0c-2.8,0-5.5,0-8.1,0h-50.4c-2.5,0-5.3,0-8.1,0c-22.8,0.2-30.3-0.2-32.8-3.4
			c-1.6-2.1-1.8-6-1.9-17.7c0-2.3,0-4.8-0.1-7.3c-0.1-6.4-0.2-12.5,0.9-16.9c3-11.6,12.8-13,16.9-13.1c0.1,0,0.1-0.1,0.1-0.1
			c1.2-3.8,3.5-8.5,5.2-11.8c7-14,12.4-14.7,22.8-15l1.6,0c10.6-0.3,30.5-0.3,41.1,0l1.6,0c10.4,0.3,15.8,1,22.8,15
			c1.8,3.6,4.1,8.1,5.3,11.8c0,0,0,0.1,0.1,0.1c4.1,0.1,13.9,1.6,16.9,13.1c1.1,4.3,1,10.4,0.9,16.9v0c-0.1,2.5-0.1,5-0.1,7.4
			c-0.1,11.7-0.3,15.6-1.9,17.7C1513.7,1130.7,1507.8,1131.4,1491.3,1131.4z M1424.6,1125.3h50.4c2.5,0,5.3,0,8.1,0
			c9.3,0.1,24.7,0.2,28-1.2c0.5-2,0.6-8.6,0.6-13.9c0-2.4,0-4.9,0.1-7.4l0,0c0.1-6,0.2-11.7-0.7-15.2c-1.8-7-7.1-8.6-11.2-8.6
			c-2.6-0.1-4.9-1.8-5.7-4.3c-1-3.3-3.2-7.5-4.9-10.9c-5.8-11.4-8.5-11.5-17.6-11.7l-1.6,0c-10.5-0.3-30.3-0.3-40.7,0l-1.6,0
			c-9.1,0.2-11.9,0.3-17.6,11.7c-1.6,3.2-3.8,7.6-4.9,11c-0.8,2.5-3.1,4.2-5.7,4.3c-4.1,0.1-9.4,1.7-11.2,8.6
			c-0.9,3.6-0.8,9.2-0.7,15.2c0.1,2.5,0.1,5,0.1,7.4c0,5.4,0.1,12,0.6,14c3.3,1.4,18.7,1.3,28,1.2
			C1419.3,1125.4,1422.1,1125.3,1424.6,1125.3z M1511,1124.5L1511,1124.5L1511,1124.5z M1388.2,1124L1388.2,1124z M1511.4,1124
			L1511.4,1124C1511.4,1124,1511.4,1124,1511.4,1124z"/>
		<path id="Headlight_00000032631829457415999880000002496847720901484218_" d="M1501.1,1095c-2.4-0.1-13.9,0.9-18.6,1.4
			c-1.3,0.1-4.9,1.3-4.9,1.3s7.1-9,10.2-10.7c2.2-1.2,7.3-1.7,9.8-1.8c1.1,0,3.3-0.3,4.4,0c0.5,0.2,1.6,0.7,2,1.1
			c0.8,0.9,1.5,2.6,1.7,3.6c0.7,3.4,0.7,6.8,0.5,10.9c-0.2,3.1-1.1,9.6-1.9,12.3c-0.1,0.4-0.7,1.2-1.1,1.4c-0.7,0.4-1.1,0.2-1.6-0.2
			c-0.3-0.3-0.9-0.7-0.8-1.2c0.3-3,1.4-9,1.5-12.4c0-1.3,0.3-4-0.1-5C1502.1,1095.4,1501.5,1095.1,1501.1,1095z"/>
		<path d="M1502.7,1077l2.7-4.3c0,0-0.5-3.7,0.1-4.7c0.3-0.4,1.4-0.9,1.9-0.9c2.3-0.1,7.2,0.4,8.9,1.9c0.4,0.4,1,1.1,1,2
			c0.1,0.9-0.7,3.5-1.6,3.8c-1.9,0.6-9.8,1.7-9.8,1.7L1502.7,1077z"/>
		<path id="Tire_00000054249443273588454500000011626926964900206734_" d="M1517,1121.6c0,0,0.1,11.2-1.2,13.9
			c-0.3,0.6-1.4,0.9-2.1,0.9c-4.3,0-10.7,0-17.5,0c-0.8,0-0.7-7.4-0.7-7.4l16.1-2.4L1517,1121.6z"/>
	</g>
	<g id="Old-Light-M" transform="matrix(1 0 0 1 1083.91 1126)">
		<path d="M69.2-3.7c16.1,0,37.8-0.8,47-1.9c6.2-0.7,9.7-4,9.7-10v-8.6c0-8.5-1.9-12.8-6-18.3l-4.2-5.5c-1.8-8.8-5-18-6.7-21.6
			c-2.6-5.5-7.6-8.5-13.7-9.3c-3.3-0.4-14.2-0.7-26.2-0.7c-12,0-22.9,0.3-26.2,0.7C37-78,32-75,29.4-69.5
			c-1.7,3.6-4.9,12.8-6.7,21.6l-4.2,5.5c-4.2,5.5-6.1,9.8-6.1,18.3v8.6c0,6,3.6,9.3,9.7,10C31.4-4.5,53.2-3.7,69.2-3.7z M69.2-8.7
			c-16.2,0-37.6-0.7-45.8-1.8c-4.3-0.6-5.9-2.5-5.9-6.3v-7.3c0-6.8,1.1-10.1,5-15.2l4.9-6.4c1.4-7.6,4.6-17.4,6.6-21.5
			c1.7-3.6,5-5.8,9.7-6.4c3.1-0.4,13.1-0.8,25.6-0.8c12.4,0,22.6,0.4,25.5,0.8c4.8,0.6,8,2.8,9.7,6.4c2,4.1,5.1,13.9,6.6,21.5
			l4.9,6.4c3.9,5.1,5,8.4,5,15.2v7.3c0,3.8-1.6,5.8-5.9,6.3C106.8-9.5,85.4-8.7,69.2-8.7z M21.2,9.4h5.6c3.5,0,6.3-2.7,6.3-6.2V-7.5
			L15-10V3.2C15,6.7,17.7,9.4,21.2,9.4z M111.6,9.4h5.6c3.6,0,6.3-2.7,6.3-6.2V-10l-18.2,2.5V3.2C105.3,6.7,108,9.4,111.6,9.4z
			 M53.8-38.7c0,0.7,0.6,1.3,1.4,1.3h12.5l-6.7,18c-0.8,2,1.4,3.1,2.7,1.5l20.1-25.2c0.4-0.4,0.6-0.9,0.6-1.3c0-0.7-0.7-1.3-1.4-1.3
			H70.5l6.6-17.9c0.8-2-1.4-3.2-2.7-1.5L54.4-40C54-39.5,53.8-39.1,53.8-38.7z"/>
	</g>
	<g id="Old-Thin-M" transform="matrix(1 0 0 1 788.524 1126)">
		<path d="M67.9-3.9c15.6,0,37.3-0.8,46.5-1.9c5.6-0.6,8.9-3.5,8.9-9.1v-8.6c0-8.8-2.1-12.8-5.8-17.8l-4.3-5.6
			c-1.8-8.8-5-18.1-6.7-21.6c-2.6-5.4-7.5-8.1-13-8.8c-3.4-0.4-14.5-0.7-25.6-0.7c-11.1,0-22.3,0.3-25.6,0.7
			c-5.4,0.7-10.4,3.4-12.9,8.8c-1.7,3.6-4.9,12.8-6.7,21.6l-4.3,5.6c-3.8,4.9-5.9,9-5.9,17.8v8.6c0,5.7,3.4,8.5,8.9,9.1
			C30.6-4.7,52.3-3.9,67.9-3.9z M67.9-7.2C52.3-7.2,30.8-8,22.1-9.1c-4.5-0.6-6.3-2.4-6.3-6.3v-8.1c0-6.9,1.2-10.5,5.2-15.8l4.7-6.2
			c1.6-8.4,4.9-17.9,6.6-21.6c1.9-3.8,5.4-6.3,10.4-6.9c3-0.4,13.3-0.7,25.2-0.7c11.9,0,22.2,0.3,25.2,0.7c5.1,0.6,8.6,3,10.4,6.9
			c1.8,3.7,5,13.2,6.6,21.6l4.7,6.2c4,5.3,5.2,8.9,5.2,15.8v8.1c0,3.9-1.8,5.8-6.2,6.3C105-8.1,83.5-7.2,67.9-7.2z M21,8.8h5.5
			c3.4,0,6.1-2.7,6.1-6v-9.4L15-9V2.7C15,6.1,17.6,8.8,21,8.8z M109.3,8.8h5.4c3.4,0,6.1-2.7,6.1-6V-9l-17.6,2.3v9.4
			C103.2,6.1,105.9,8.8,109.3,8.8z M52.6-38.1c0,0.5,0.5,0.9,1.1,0.9h12.9l-7,18.9c-0.7,1.7,1,2.6,2.1,1.2l20.8-26.1
			c0.3-0.4,0.5-0.8,0.5-1.1c0-0.6-0.5-1-1.2-1H69.1l7-18.8c0.6-1.7-1.1-2.6-2.2-1.2L53.1-39.2C52.8-38.8,52.6-38.4,52.6-38.1z"/>
	</g>
	<g id="Old-Ultralight-M" transform="matrix(1 0 0 1 492.491 1126)">
		<path d="M67.3-4c15.3,0,37-0.8,46.2-1.9c5.3-0.6,8.6-3.2,8.6-8.7v-8.6c0-8.9-2.2-12.8-5.7-17.5l-4.4-5.7c-1.7-8.8-5-18.1-6.7-21.6
			c-2.6-5.4-7.5-7.9-12.7-8.5c-3.4-0.4-14.6-0.7-25.3-0.7s-22,0.2-25.4,0.7c-5.1,0.7-10,3.1-12.6,8.5c-1.7,3.6-4.9,12.8-6.7,21.6
			l-4.4,5.7c-3.6,4.7-5.8,8.6-5.8,17.5v8.6c0,5.5,3.3,8.1,8.6,8.7C30.2-4.8,51.9-4,67.3-4z M67.3-6.4c-15.3,0-36.9-0.7-45.9-1.9
			c-4.6-0.6-6.5-2.3-6.5-6.2v-8.6c0-7,1.2-10.6,5.4-16.1l4.6-6.1c1.7-8.8,5-18.1,6.6-21.6c2-4,5.6-6.5,10.8-7.1
			c3-0.4,13.4-0.7,25.1-0.7c11.6,0,22,0.3,25,0.7c5.2,0.6,8.8,3.1,10.8,7.1c1.7,3.5,4.9,12.8,6.6,21.6l4.7,6.1
			c4.1,5.4,5.3,9.1,5.3,16.1v8.6c0,3.9-1.9,5.7-6.4,6.2C104.1-7.3,82.5-6.4,67.3-6.4z M20.9,8.4h5.4c3.3,0,5.9-2.6,5.9-5.9v-8.7
			L15-8.4V2.5C15,5.7,17.6,8.4,20.9,8.4z M108.2,8.4h5.4c3.4,0,5.9-2.6,5.9-5.9V-8.4l-17.3,2.2v8.7C102.2,5.8,104.8,8.4,108.2,8.4z
			 M52-37.8c0,0.4,0.4,0.8,1,0.8h13.1L59-17.6c-0.6,1.5,0.9,2.3,1.9,1.1L82-43.2c0.3-0.4,0.5-0.7,0.5-1.1c0-0.5-0.4-0.9-1-0.9H68.4
			l7.2-19.2c0.6-1.5-1-2.3-2-1.1L52.4-38.8C52.1-38.4,52-38.1,52-37.8z"/>
	</g>
	<g id="Old-Heavy-S" transform="matrix(1 0 0 1 2577.63 696)">
		<path d="M59.1-8.3c13.9,0,31.1-0.7,38.5-1.5c6.8-0.8,10.8-4.9,10.8-11.4V-28c0-7.7-0.8-12-4.8-16.7l-3.9-4.6
			c-1.5-6.9-4-14.1-5.3-16.9c-2.4-5.1-7.1-8.3-13.1-9.1c-3.4-0.5-11-0.7-22.2-0.7c-11.2,0-18.8,0.3-22.2,0.7c-6,0.8-10.7,4-13.1,9.1
			c-1.3,2.9-3.9,10.1-5.3,16.9l-3.9,4.6c-4,4.7-4.8,9.1-4.8,16.7v6.7c0,6.5,4.1,10.6,10.8,11.4C27.9-9,45.2-8.3,59.1-8.3z
			 M59.1-18.4c-13.5,0-28.5-0.7-34.9-1.4c-3.3-0.4-4.7-1.9-4.7-4.9v-4.8c0-4.9,1.4-7.4,3.2-9.8l4.8-6.4c0.7-3.7,3-12.3,4.6-15.5
			c1.4-2.9,3.9-4.2,6.8-4.6c3.1-0.4,9.7-0.7,20.2-0.7c10.4,0,17.1,0.4,20.2,0.7c2.9,0.4,5.4,1.7,6.9,4.7c1.4,2.9,3.8,11.4,4.6,15.4
			l4.8,6.4c1.8,2.4,3.2,4.9,3.2,9.8v4.8c0,3-1.4,4.5-4.7,4.9C87.6-19.1,72.6-18.4,59.1-18.4z M17.3,2.4h5c3.1,0,5.5-2.4,5.5-5.5
			v-10.4l-16-4.9v15.3C11.7,0,14.2,2.4,17.3,2.4z M95.9,2.4h5c3.1,0,5.5-2.4,5.5-5.5v-15.3l-16,4.9v10.4C90.4,0,92.8,2.4,95.9,2.4z
			 M48-40.5c0,0.9,0.7,1.6,1.7,1.6h8.1l-4.3,11.3c-0.8,2.2,1.6,3.5,3.1,1.7l14.1-17c0.3-0.4,0.5-0.9,0.5-1.3c0-0.9-0.8-1.6-1.7-1.6
			h-8.2l4.3-11.3c0.8-2.2-1.6-3.5-3.1-1.7l-14.2,17C48.2-41.5,48-41,48-40.5z"/>
	</g>
	<g id="Old-Bold-S" transform="matrix(1 0 0 1 2282.14 696)">
		<path d="M57.8-9c13.6,0,30.8-0.7,38.1-1.5c6.3-0.7,10-4.5,10-10.4v-6.7c0-7.2-1-11.4-4.8-16.1l-3.6-4.4c-1.4-6.9-4-14.1-5.3-16.9
			c-2.3-4.8-6.7-7.9-12.5-8.6c-3.1-0.4-11-0.7-21.8-0.7c-10.8,0-18.7,0.3-21.8,0.7C30.3-73,25.8-70,23.6-65.1
			c-1.3,2.9-3.9,10.1-5.3,16.9l-3.6,4.4c-3.9,4.7-4.8,8.9-4.8,16.1v6.7c0,6,3.7,9.7,10,10.4C27.1-9.7,44.3-9,57.8-9z M57.8-17.5
			c-13.4,0-29-0.7-35.2-1.4c-3.2-0.4-4.5-2-4.5-4.9v-4.8c0-5,1.2-7.4,3.4-10.4l4.5-6c0.8-4.2,3.2-12.6,4.8-15.9
			c1.3-2.8,3.8-4.2,6.8-4.6c2.9-0.4,9.9-0.7,20.2-0.7s17.4,0.4,20.2,0.7c3.1,0.4,5.5,1.8,6.9,4.6c1.5,3.1,3.9,11.5,4.8,15.9l4.5,6
			c2.2,2.9,3.4,5.3,3.4,10.4v4.8c0,2.9-1.3,4.6-4.5,4.9C86.8-18.2,71.2-17.5,57.8-17.5z M17.1,1.7h4.8c3.1,0,5.4-2.3,5.4-5.4v-10.1
			l-15.6-4v14.1C11.7-0.6,14.1,1.7,17.1,1.7z M93.7,1.7h4.8c3.1,0,5.4-2.3,5.4-5.4v-14.1l-15.6,4v10.1C88.3-0.6,90.7,1.7,93.7,1.7z
			 M46.4-39.8c0,0.9,0.7,1.5,1.6,1.5h8.5L52-26.4c-0.8,2.1,1.5,3.3,2.9,1.6l14.4-17.7c0.3-0.4,0.5-0.8,0.5-1.3
			c0-0.9-0.7-1.5-1.6-1.5h-8.5l4.5-11.9c0.8-2.1-1.5-3.3-2.9-1.6L46.9-41.1C46.6-40.7,46.4-40.3,46.4-39.8z"/>
	</g>
	<g id="Old-Semibold-S" transform="matrix(1 0 0 1 1986.27 696)">
		<path d="M57-9.5c13.4,0,30.5-0.7,37.9-1.5c5.9-0.7,9.4-4.2,9.4-9.8v-6.7c0-6.9-1.1-10.9-4.9-15.6l-3.5-4.3
			c-1.4-6.9-4-14.1-5.3-16.9c-2.2-4.6-6.5-7.6-12.1-8.3c-2.9-0.4-10.9-0.6-21.5-0.6S38.4-73,35.5-72.7c-5.6,0.7-9.9,3.7-12.1,8.3
			c-1.3,2.8-3.9,10.1-5.3,16.9l-3.5,4.3c-3.8,4.7-4.9,8.7-4.9,15.6v6.7c0,5.6,3.4,9.1,9.4,9.8C26.4-10.1,43.6-9.5,57-9.5z M57-16.9
			c-13.4,0-29.3-0.6-35.4-1.3c-3.2-0.4-4.5-2.1-4.5-5v-4.9c0-5.1,1-7.5,3.5-10.7l4.3-5.7c0.8-4.6,3.3-12.8,4.9-16.3
			c1.3-2.7,3.7-4.2,6.9-4.6c2.8-0.4,10-0.7,20.3-0.7c10.3,0,17.7,0.4,20.2,0.7c3.3,0.4,5.6,1.9,6.9,4.6c1.6,3.3,4,11.5,4.9,16.2
			l4.3,5.7c2.5,3.2,3.5,5.6,3.5,10.7v4.9c0,2.9-1.2,4.6-4.5,5C86.3-17.6,70.3-16.9,57-16.9z M17,1.2h4.7c3,0,5.3-2.3,5.3-5.3v-9.9
			l-15.4-3.3V-4C11.7-1,14,1.2,17,1.2z M92.2,1.2h4.7c3,0,5.3-2.3,5.3-5.3v-13.3l-15.4,3.3V-4C86.9-1,89.2,1.2,92.2,1.2z M45.3-39.4
			c0,0.8,0.7,1.5,1.5,1.5h8.8L51-25.5c-0.8,2.1,1.5,3.2,2.8,1.5L68.4-42c0.3-0.4,0.5-0.8,0.5-1.2c0-0.8-0.7-1.4-1.5-1.4h-8.8
			l4.6-12.4c0.8-2.1-1.4-3.2-2.8-1.5L45.8-40.6C45.5-40.2,45.3-39.8,45.3-39.4z"/>
	</g>
	<g id="Old-Medium-S" transform="matrix(1 0 0 1 1690.2 696)">
		<path d="M56.4-9.8c13.2,0,30.4-0.6,37.7-1.5c5.7-0.6,8.9-3.9,8.9-9.3v-6.7c0-6.7-1.1-10.5-4.9-15.3l-3.3-4.2
			c-1.4-6.9-4-14.1-5.3-16.9c-2.1-4.5-6.3-7.3-11.7-8c-2.8-0.4-10.9-0.6-21.3-0.6S37.8-72.2,35-71.9c-5.4,0.7-9.6,3.5-11.7,8
			C22-61,19.4-53.8,18-46.9l-3.3,4.2c-3.8,4.8-4.9,8.6-4.9,15.3v6.7c0,5.4,3.2,8.7,8.9,9.3C26-10.5,43.1-9.8,56.4-9.8z M56.4-16.5
			c-13.3,0-29.6-0.6-35.6-1.3c-3.2-0.4-4.4-2.1-4.4-5v-4.9c0-5.2,1-7.5,3.6-11l4.2-5.5c0.9-4.9,3.3-12.9,5-16.5
			c1.2-2.6,3.6-4.2,6.9-4.5c2.6-0.3,10-0.7,20.3-0.7c10.3,0,17.8,0.4,20.2,0.7c3.4,0.4,5.7,2,7,4.6c1.6,3.5,4.1,11.5,5,16.5l4.2,5.5
			c2.7,3.5,3.6,5.9,3.6,11v4.9c0,2.9-1.2,4.6-4.4,5C85.9-17.1,69.6-16.5,56.4-16.5z M16.9,0.9h4.7c3,0,5.3-2.3,5.3-5.2v-9.8
			l-15.2-2.8v12.6C11.7-1.4,14,0.9,16.9,0.9z M91.1,0.9h4.6c3,0,5.3-2.3,5.3-5.2v-12.6l-15.2,2.8v9.8C85.8-1.4,88.1,0.9,91.1,0.9z
			 M44.5-39c0,0.8,0.7,1.4,1.4,1.4h9l-4.8,12.8c-0.8,2,1.4,3.1,2.7,1.5l14.8-18.4c0.3-0.4,0.5-0.8,0.5-1.2c0-0.8-0.7-1.4-1.5-1.4h-9
			l4.8-12.8c0.8-2-1.4-3.1-2.7-1.5L45-40.2C44.7-39.8,44.5-39.4,44.5-39z"/>
	</g>
	<g id="Old-Light-S" transform="matrix(1 0 0 1 1098.5 696)">
		<path d="M54.6-10.4c12.7,0,29.8-0.6,37-1.5c5-0.6,7.8-3.3,7.8-8.1v-6.7c0-6.5-1.4-10.1-4.8-14.5l-3.2-4.2
			c-1.4-6.9-3.9-14.1-5.3-16.9c-2-4.3-6-6.8-10.9-7.4c-2.6-0.3-11-0.5-20.7-0.5c-9.6,0-18.1,0.2-20.7,0.5c-4.9,0.6-8.8,3.1-10.9,7.4
			c-1.3,2.8-3.9,10.1-5.3,16.9l-3.2,4.2c-3.4,4.4-4.8,8-4.8,14.5v6.7c0,4.8,2.9,7.5,7.8,8.1C24.8-11.1,41.9-10.4,54.6-10.4z
			 M54.6-14.9c-12.9,0-29.6-0.6-35.9-1.4c-3.3-0.4-4.5-2-4.5-5v-5.5c0-5.3,0.9-7.8,3.9-11.8l3.9-5.1c1.1-5.8,3.6-13.5,5.1-16.8
			c1.3-2.7,3.8-4.4,7.4-4.9c2.4-0.3,10.2-0.6,20.1-0.6c9.9,0,17.8,0.3,20.1,0.6c3.7,0.5,6.1,2.2,7.4,4.9c1.6,3.4,4.1,11.1,5.1,16.8
			l3.9,5.1c3,3.9,3.9,6.5,3.9,11.8v5.5c0,2.9-1.2,4.6-4.5,5C84.2-15.5,67.4-14.9,54.6-14.9z M16.7,0h4.5c2.8,0,5-2.2,5-4.9v-8.7
			l-14.5-2V-5C11.7-2.2,13.9,0,16.7,0z M88.1,0h4.4c2.8,0,5-2.2,5-4.9v-10.8l-14.5,2V-5C83.1-2.2,85.3,0,88.1,0z M42.5-38.1
			c0,0.6,0.5,1.1,1.2,1.1h9.6l-5.1,13.8c-0.7,1.7,1.2,2.6,2.2,1.2L66-41.4c0.3-0.3,0.5-0.7,0.5-1.1c0-0.6-0.6-1.1-1.2-1.1h-9.6
			l5.1-13.8c0.6-1.7-1.2-2.6-2.2-1.2L43-39.1C42.7-38.8,42.5-38.4,42.5-38.1z"/>
	</g>
	<g id="Old-Thin-S" transform="matrix(1 0 0 1 802.961 696)">
		<path d="M53.5-10.6c12.3,0,29.3-0.6,36.5-1.5c4.5-0.5,7.2-2.8,7.2-7.3v-6.7c0-6.8-1.6-10.1-4.6-14l-3.3-4.4
			c-1.4-6.9-3.9-14.1-5.2-16.9c-2-4.3-5.9-6.4-10.3-7C71-68.8,62.3-69,53.5-69c-8.9,0-17.6,0.2-20.2,0.5c-4.4,0.6-8.3,2.7-10.3,7
			c-1.3,2.8-3.9,10.1-5.2,16.9l-3.3,4.4c-3,4-4.7,7.2-4.7,14v6.7c0,4.5,2.7,6.8,7.2,7.3C24.1-11.3,41.1-10.6,53.5-10.6z M53.5-13.6
			c-12.4,0-29.2-0.6-35.9-1.4c-3.5-0.4-4.9-1.9-4.9-4.9v-6.2c0-5.4,0.9-8.1,4.1-12.3l3.7-4.9c1.2-6.4,3.8-13.9,5.2-16.9
			c1.5-3,4.1-4.8,8-5.3C36-65.8,44-66,53.5-66c9.4,0,17.5,0.3,19.8,0.6c3.9,0.5,6.6,2.3,8,5.3c1.4,3,3.9,10.5,5.2,16.9l3.7,4.9
			c3.1,4.1,4,6.9,4,12.3v6.2c0,3-1.4,4.5-4.8,4.9C82.6-14.2,65.8-13.6,53.5-13.6z M16.5-0.6h4.3c2.7,0,4.8-2.1,4.8-4.8V-13
			l-13.9-1.8v9.4C11.7-2.8,13.8-0.6,16.5-0.6z M86.1-0.6h4.3c2.7,0,4.8-2.1,4.8-4.8v-9.4L81.3-13v7.6C81.3-2.7,83.4-0.6,86.1-0.6z
			 M41.5-37.6c0,0.5,0.4,0.8,0.9,0.8h10L47-22.1c-0.6,1.4,0.9,2.1,1.8,1L65-41.4c0.3-0.3,0.4-0.6,0.4-0.9c0-0.5-0.4-0.9-1-0.9h-10
			l5.4-14.6c0.5-1.4-0.9-2.1-1.8-1L41.8-38.5C41.6-38.1,41.5-37.8,41.5-37.6z"/>
	</g>
</g>
<g id="Sketch__x40__regular-s" class="st8">
	<path id="Frame_00000129909203988850578080000008745906527658144418_" class="st9" d="M1449.8,627.8c0,0-2.8,0-11.1,0
		c-8.5,0-11.8,0-17.2,10.7c-1.4,2.7-3.1,6.1-4,8.9c-0.3,1-1.2,1.7-2.3,1.7c-3,0.1-9.1,1.2-11,8.5c-0.8,3-0.7,7.4-0.6,12.6
		c0.2,8.6-0.1,16.7,1,18.2c1.9,2.4,18.6,1.7,30.1,1.7c5.8,0,15,0,15,0"/>
	<path id="Headlight_00000141448581311075240320000000130814067131924616_" class="st10" d="M1414.4,664.1
		c1.9-0.1,10.9,0.7,14.5,1.1c1,0.1,3.8,1,3.8,1s-5.6-7.1-8-8.4c-1.7-0.9-5.7-1.3-7.6-1.4c-0.9,0-2.6-0.2-3.4,0
		c-0.4,0.1-1.2,0.6-1.5,0.9c-0.7,0.7-1.2,2.1-1.3,2.8c-0.5,2.7-0.5,5.3-0.4,8.5c0.1,2.4,0.9,7.5,1.5,9.6c0.1,0.3,0.6,0.9,0.9,1.1
		c0.5,0.3,0.9,0.1,1.2-0.2c0.3-0.2,0.7-0.5,0.6-0.9c-0.2-2.3-1.1-7-1.1-9.7c0-1-0.2-3.1,0.1-3.9
		C1413.7,664.4,1414.1,664.1,1414.4,664.1z"/>
	<path id="Side_mirror_00000018940023419696330890000017958382057222172809_" class="st10" d="M1412.1,648.8c0,0-6.1-0.9-7.6-1.4
		c-0.7-0.2-1.3-2.3-1.2-3c0-0.7,0.5-1.3,0.8-1.5c1.4-1.1,5.2-1.6,7-1.5c0.4,0,1.3,0.4,1.5,0.7c0.5,0.8,0.1,3.7,0.1,3.7l2.1,3.3
		L1412.1,648.8z"/>
	<path id="Grill_00000144325691602175405550000008980307494803085462_" class="st10" d="M1413,691.4c0,0-0.6-6.3,0.2-7.4
		c1.2-1.8,5.9-3.4,8-3.6c7.1-0.7,28.6-0.7,28.6-0.7v11.7H1413z"/>
	<path id="Tire_00000036230191553821184630000011019364379363360445_" class="st10" d="M1402,684.8c0,0-0.1,8.7,1,10.8
		c0.2,0.5,1.1,0.7,1.6,0.7c3.4,0,8.4,0,13.7,0c0.6,0,0.6-5.8,0.6-5.8l-12.6-1.8L1402,684.8z"/>
</g>
<g id="Semibold-M_00000107561794240463038140000017276914180640906900_" class="st8">
	<path id="Headlight_00000031199387560658284170000002891012745439305141_" class="st10" d="M1992.5,1095c2.4-0.1,13.9,0.9,18.6,1.4
		c1.3,0.1,4.9,1.3,4.9,1.3s-7.1-9-10.2-10.7c-2.2-1.2-7.3-1.7-9.8-1.8c-1.1,0-3.3-0.3-4.4,0c-0.5,0.2-1.6,0.7-2,1.1
		c-0.8,0.9-1.5,2.6-1.7,3.6c-0.7,3.4-0.7,6.8-0.5,10.9c0.2,3.1,1.1,9.6,1.9,12.3c0.1,0.4,0.7,1.2,1.1,1.4c0.7,0.4,1.1,0.2,1.6-0.2
		c0.3-0.3,0.9-0.7,0.8-1.2c-0.3-3-1.4-9-1.5-12.4c0-1.3-0.3-4,0.1-5C1991.6,1095.4,1992.1,1095.1,1992.5,1095z"/>
	<path id="Side_mirror_00000112634920040195570060000018110641274820770946_" class="st10" d="M1986.6,1075.5c0,0-7.9-1.1-9.8-1.7
		c-0.9-0.3-1.6-2.9-1.6-3.8c0.1-0.9,0.6-1.6,1-2c1.8-1.5,6.7-2,8.9-1.9c0.5,0,1.6,0.5,1.9,0.9c0.6,1,0.1,4.7,0.1,4.7l2.7,4.3
		L1986.6,1075.5z"/>
	<path class="st10" d="M2096.9,1130.1h-106.2c0,0-0.7-8.1,0.3-9.5c1.6-2.3,7.5-4.3,10.3-4.6c9.1-0.9,42.6-0.9,42.6-0.9
		s33.5-0.1,42.6,0.9c2.8,0.3,8.7,2.3,10.3,4.6C2097.6,1122,2096.9,1130.1,2096.9,1130.1z"/>
	<path class="st10" d="M1980.1,1126.6l16.1,2.4c0,0,0.1,7.4-0.7,7.4c-6.8,0-13.2,0-17.5,0c-0.7,0-1.8-0.3-2.1-0.9
		c-1.3-2.7-1.2-13.9-1.2-13.9L1980.1,1126.6z"/>
	<path class="st12" d="M2108.9,1102.9c-0.2,11,0.1,21.4-1.3,23.2c-2.4,3-23.7,2.2-38.5,2.2c-7.4,0-43.1,0-50.5,0
		c-14.7,0-36.1,0.8-38.5-2.2c-1.4-1.8-1.1-12.2-1.3-23.2c-0.1-6.6-0.2-12.2,0.8-16.1c2.5-9.4,10.2-10.8,14-10.9
		c1.3,0,2.5-0.9,2.9-2.2c1.1-3.6,3.3-7.9,5.1-11.4c6.9-13.7,11.2-13.1,21.8-13.4c10.6-0.3,30.3-0.3,40.9,0
		c10.5,0.3,14.9-0.3,21.8,13.4c1.8,3.5,3.9,7.8,5.1,11.4c0.4,1.3,1.5,2.2,2.9,2.2c3.9,0.1,11.6,1.5,14.1,10.9
		C2109.1,1090.7,2109,1096.3,2108.9,1102.9z"/>
	<path id="Headlight_00000049221904702637253070000001231923539838135989_" class="st10" d="M2095.1,1095
		c-2.4-0.1-13.9,0.9-18.6,1.4c-1.3,0.1-4.9,1.3-4.9,1.3s7.1-9,10.2-10.7c2.2-1.2,7.3-1.7,9.8-1.8c1.1,0,3.3-0.3,4.4,0
		c0.5,0.2,1.6,0.7,2,1.1c0.8,0.9,1.5,2.6,1.7,3.6c0.7,3.4,0.7,6.8,0.5,10.9c-0.2,3.1-1.1,9.6-1.9,12.3c-0.1,0.4-0.7,1.2-1.1,1.4
		c-0.7,0.4-1.1,0.2-1.6-0.2c-0.3-0.3-0.9-0.7-0.8-1.2c0.3-3,1.4-9,1.5-12.4c0-1.3,0.3-4-0.1-5
		C2096.1,1095.4,2095.5,1095.1,2095.1,1095z"/>
	<path class="st10" d="M2097.7,1076l2.7-4.3c0,0-0.5-3.7,0.1-4.7c0.3-0.4,1.4-0.9,1.9-0.9c2.3-0.1,7.2,0.4,8.9,1.9
		c0.4,0.4,1,1.1,1,2c0.1,0.9-0.7,3.5-1.6,3.8c-1.9,0.6-9.8,1.7-9.8,1.7L2097.7,1076z"/>
	<path id="Tire_00000163041068612314765930000009953592833564211363_" class="st10" d="M2113,1121.6c0,0,0.1,11.2-1.2,13.9
		c-0.3,0.6-1.4,0.9-2.1,0.9c-4.3,0-10.7,0-17.5,0c-0.8,0-0.7-7.4-0.7-7.4l16.1-2.4L2113,1121.6z"/>
	<path class="st10" d="M2028.3,1085.8c0,1,0.8,1.8,1.8,1.8h11.5l-6.1,16.2c-0.9,2.5,1.8,3.9,3.4,1.9l19-23.5c0.4-0.5,0.7-1,0.7-1.5
		c0-1-0.9-1.7-1.8-1.7h-11.4l6.1-16.2c0.9-2.5-1.7-3.9-3.4-1.9l-19,23.5C2028.6,1084.8,2028.3,1085.3,2028.3,1085.8z"/>
</g>
</svg>
